<svg width="549" height="436" viewBox="0 0 549 436" fill="none" xmlns="http://www.w3.org/2000/svg">
<path opacity="0.4" d="M529.2 308.212C539.671 297.741 539.671 280.765 529.2 270.294C518.729 259.823 501.752 259.823 491.282 270.294C480.811 280.765 480.811 297.741 491.282 308.212C501.752 318.683 518.729 318.683 529.2 308.212Z" fill="#DCF2FF"/>
<path opacity="0.4" d="M97.9949 131.041C113.974 115.062 113.974 89.1544 97.9949 73.1753C82.0157 57.1961 56.1084 57.1961 40.1293 73.1753C24.1502 89.1544 24.1502 115.062 40.1293 131.041C56.1084 147.02 82.0157 147.02 97.9949 131.041Z" fill="#DCF2FF"/>
<path opacity="0.4" d="M210.538 62.7925C222.312 62.7925 231.857 53.2473 231.857 41.4725C231.857 29.6978 222.312 20.1526 210.538 20.1526C198.763 20.1526 189.218 29.6978 189.218 41.4725C189.218 53.2473 198.763 62.7925 210.538 62.7925Z" fill="#DCF2FF"/>
<path d="M179.987 52.0026C178.655 52.0026 177.322 51.9051 176.022 51.6776L176.152 50.8651C177.42 51.0601 178.72 51.1576 179.987 51.1576H180.15V51.9701L179.987 52.0026ZM184.277 51.6451L184.147 50.8326C185.447 50.6051 186.747 50.2801 188.015 49.8576L188.275 50.6376C186.975 51.0926 185.61 51.4176 184.277 51.6451ZM172.025 50.7351C170.725 50.3126 169.425 49.7601 168.222 49.1426L168.58 48.4276C169.75 49.0451 170.985 49.5651 172.252 49.9551L172.025 50.7351ZM192.045 49.0126L191.655 48.2976C192.825 47.6801 193.962 46.9651 195.035 46.1526L195.522 46.8026C194.417 47.6151 193.247 48.3626 192.045 49.0126ZM164.745 46.9651C163.64 46.1526 162.6 45.2426 161.625 44.2676L162.21 43.7151C163.152 44.6576 164.16 45.5351 165.232 46.3476L164.745 46.9651ZM198.577 44.0401L197.992 43.4876C198.902 42.5126 199.747 41.4726 200.495 40.3676L201.177 40.8226C200.397 41.9601 199.552 43.0326 198.577 44.0401ZM158.992 41.0826C158.212 39.9451 157.497 38.7751 156.912 37.5401L157.66 37.1826C158.245 38.3851 158.927 39.5551 159.675 40.6276L158.992 41.0826ZM203.225 37.2476L202.477 36.8901C203.03 35.6876 203.517 34.4201 203.875 33.1526L204.655 33.3801C204.297 34.7126 203.81 36.0126 203.225 37.2476ZM155.417 33.6726C155.027 32.3401 154.735 31.0076 154.54 29.6426L155.352 29.5451C155.515 30.8451 155.807 32.1776 156.197 33.4451L155.417 33.6726ZM205.467 29.3501L204.655 29.2526C204.752 28.3101 204.817 27.3351 204.817 26.3601C204.817 26.0026 204.817 25.6126 204.785 25.2551L205.597 25.2226C205.63 25.6126 205.63 25.9701 205.63 26.3601C205.662 27.3351 205.597 28.3426 205.467 29.3501ZM155.157 25.5476L154.345 25.5151C154.377 24.1501 154.54 22.7526 154.8 21.4201L155.612 21.5826C155.352 22.8826 155.222 24.2476 155.157 25.5476ZM204.33 21.2901C204.07 19.9901 203.68 18.6901 203.192 17.4551L203.94 17.1626C204.427 18.4626 204.817 19.7951 205.11 21.1276L204.33 21.2901ZM156.717 17.7476L155.97 17.4551C156.457 16.1551 157.042 14.9201 157.692 13.7176L158.407 14.1076C157.725 15.2776 157.172 16.5126 156.717 17.7476ZM203.127 17.2601C202.64 16.0251 202.055 14.8226 201.372 13.6851L202.087 13.2626C202.77 14.4326 203.387 15.7001 203.907 16.9676L203.127 17.2601ZM160.617 10.8251L159.967 10.3051C160.812 9.23256 161.787 8.22506 162.795 7.31506L163.347 7.93256C162.372 8.81006 161.462 9.78506 160.617 10.8251ZM199.065 10.4351C198.22 9.42756 197.277 8.45256 196.27 7.57506L196.79 6.95756C197.83 7.86756 198.805 8.84256 199.682 9.88256L199.065 10.4351ZM166.532 5.49506L166.077 4.81256C167.215 4.06506 168.45 3.41506 169.717 2.86256L170.042 3.61006C168.807 4.13006 167.637 4.78006 166.532 5.49506ZM193.052 5.20256C191.915 4.52006 190.712 3.90256 189.51 3.38256L189.835 2.63506C191.102 3.15506 192.337 3.80506 193.507 4.52006L193.052 5.20256ZM173.812 2.31006L173.617 1.53006C174.95 1.17256 176.315 0.945065 177.68 0.815065L177.745 1.62756C176.412 1.72506 175.112 1.95256 173.812 2.31006ZM185.675 2.18006C184.375 1.88756 183.042 1.66006 181.742 1.56256L181.807 0.750061C183.172 0.847561 184.537 1.04256 185.87 1.36756L185.675 2.18006Z" fill="#91CAFF"/>
<path d="M435.957 335.955V335.143C437.29 335.11 438.655 335.078 439.987 334.98L440.052 335.793C438.687 335.89 437.322 335.923 435.957 335.955ZM431.895 335.923C430.53 335.89 429.165 335.825 427.832 335.695L427.897 334.883C429.23 334.98 430.595 335.045 431.927 335.078L431.895 335.923ZM444.115 335.435L444.017 334.623C445.35 334.46 446.715 334.298 448.015 334.07L448.145 334.883C446.812 335.11 445.447 335.305 444.115 335.435ZM423.77 335.338C422.437 335.175 421.072 334.98 419.74 334.753L419.87 333.94C421.202 334.168 422.535 334.363 423.867 334.525L423.77 335.338ZM452.175 334.168L452.012 333.388C453.345 333.128 454.645 332.803 455.945 332.478L456.14 333.258C454.84 333.583 453.507 333.875 452.175 334.168ZM415.71 333.94C414.377 333.648 413.045 333.323 411.745 332.965L411.972 332.185C413.272 332.543 414.572 332.868 415.905 333.16L415.71 333.94ZM460.072 332.12L459.845 331.34C461.112 330.95 462.412 330.528 463.68 330.04L463.972 330.82C462.672 331.275 461.372 331.73 460.072 332.12ZM407.845 331.828C406.545 331.405 405.245 330.95 403.977 330.495L404.27 329.748C405.537 330.235 406.805 330.658 408.105 331.08L407.845 331.828ZM467.742 329.358L467.417 328.61C468.652 328.09 469.887 327.538 471.09 326.985L471.447 327.733C470.212 328.285 468.977 328.838 467.742 329.358ZM400.175 328.935C398.94 328.383 397.672 327.83 396.47 327.245L396.827 326.53C398.03 327.115 399.265 327.7 400.5 328.22L400.175 328.935ZM475.087 325.88L474.697 325.165C475.867 324.548 477.07 323.865 478.207 323.183L478.63 323.898C477.492 324.58 476.29 325.23 475.087 325.88ZM392.83 325.36C391.627 324.71 390.457 324.028 389.287 323.313L389.71 322.63C390.847 323.345 392.05 324.028 393.22 324.645L392.83 325.36ZM482.107 321.72L481.652 321.038C482.79 320.29 483.895 319.51 484.967 318.73L485.455 319.38C484.35 320.193 483.245 320.973 482.107 321.72ZM385.875 321.103C384.77 320.355 383.632 319.543 382.56 318.73L383.047 318.08C384.12 318.893 385.225 319.673 386.33 320.42L385.875 321.103ZM488.672 316.91L488.152 316.293C489.192 315.448 490.232 314.57 491.24 313.693L491.792 314.31C490.785 315.188 489.745 316.065 488.672 316.91ZM379.342 316.195C378.302 315.318 377.262 314.44 376.255 313.53L376.807 312.913C377.815 313.823 378.822 314.7 379.862 315.545L379.342 316.195ZM494.782 311.515L494.23 310.93C495.205 309.988 496.147 309.013 497.057 308.038L497.642 308.59C496.732 309.598 495.757 310.573 494.782 311.515ZM373.297 310.735C372.322 309.793 371.38 308.785 370.47 307.778L371.055 307.225C371.965 308.2 372.907 309.208 373.85 310.15L373.297 310.735ZM500.372 305.568L499.755 305.048C500.632 304.04 501.477 302.968 502.322 301.928L502.972 302.415C502.127 303.455 501.25 304.528 500.372 305.568ZM367.772 304.723C366.895 303.683 366.05 302.61 365.237 301.538L365.887 301.05C366.7 302.123 367.545 303.195 368.39 304.203L367.772 304.723ZM505.377 299.1L504.727 298.645C505.507 297.54 506.255 296.403 506.97 295.298L507.652 295.72C506.937 296.858 506.157 297.995 505.377 299.1ZM362.865 298.223C362.085 297.118 361.337 295.948 360.655 294.81L361.337 294.388C362.052 295.525 362.767 296.663 363.547 297.768L362.865 298.223ZM509.765 292.21L509.05 291.82C509.7 290.65 510.35 289.448 510.967 288.245L511.682 288.603C511.097 289.838 510.447 291.04 509.765 292.21ZM358.575 291.268C357.925 290.098 357.275 288.863 356.69 287.66L357.405 287.303C357.99 288.505 358.64 289.708 359.29 290.878L358.575 291.268ZM513.47 284.93L512.722 284.605C513.275 283.37 513.795 282.135 514.315 280.868L515.062 281.16C514.575 282.428 514.055 283.695 513.47 284.93ZM354.967 283.988C354.415 282.753 353.895 281.485 353.44 280.218L354.187 279.925C354.675 281.16 355.162 282.428 355.715 283.663L354.967 283.988ZM516.492 277.325L515.712 277.065C516.135 275.798 516.557 274.498 516.915 273.198L517.695 273.425C517.337 274.758 516.915 276.058 516.492 277.325ZM352.075 276.383C351.652 275.083 351.262 273.783 350.905 272.483L351.685 272.255C352.042 273.555 352.432 274.855 352.855 276.123L352.075 276.383ZM518.767 269.493L517.987 269.298C518.312 267.998 518.572 266.665 518.832 265.333L519.645 265.495C519.352 266.86 519.06 268.193 518.767 269.493ZM349.897 268.518C349.605 267.218 349.312 265.853 349.085 264.52L349.897 264.39C350.125 265.723 350.417 267.055 350.71 268.355L349.897 268.518ZM520.262 261.498L519.45 261.4C519.645 260.068 519.807 258.735 519.905 257.37L520.717 257.435C520.62 258.8 520.457 260.165 520.262 261.498ZM348.467 260.458C348.305 259.125 348.142 257.76 348.045 256.395L348.857 256.33C348.955 257.663 349.117 259.028 349.28 260.36L348.467 260.458ZM521.042 253.373L520.23 253.34C520.295 252.008 520.327 250.643 520.327 249.31H521.14C521.14 250.643 521.107 252.008 521.042 253.373ZM347.817 252.333C347.785 251.325 347.752 250.285 347.752 249.278C347.752 248.92 347.752 248.595 347.752 248.238H348.565C348.565 248.563 348.565 248.92 348.565 249.245C348.565 250.253 348.597 251.26 348.63 252.268L347.817 252.333ZM520.295 247.295C520.262 245.963 520.197 244.598 520.1 243.265L520.912 243.2C521.01 244.533 521.075 245.93 521.107 247.263L520.295 247.295ZM348.727 244.24L347.915 244.208C347.98 242.843 348.11 241.478 348.24 240.145L349.052 240.243C348.89 241.543 348.792 242.875 348.727 244.24ZM519.742 239.235C519.58 237.903 519.385 236.57 519.19 235.238L520.002 235.108C520.23 236.44 520.425 237.805 520.555 239.138L519.742 239.235ZM349.572 236.18L348.76 236.05C348.955 234.718 349.215 233.353 349.475 232.02L350.287 232.183C349.995 233.515 349.767 234.88 349.572 236.18ZM518.41 231.273C518.117 229.973 517.825 228.64 517.467 227.34L518.247 227.145C518.605 228.445 518.897 229.778 519.19 231.11L518.41 231.273ZM351.165 228.283L350.385 228.088C350.71 226.788 351.067 225.455 351.49 224.155L352.27 224.383C351.847 225.65 351.49 226.983 351.165 228.283ZM516.362 223.44C515.972 222.173 515.517 220.873 515.062 219.605L515.81 219.313C516.265 220.58 516.72 221.88 517.142 223.18L516.362 223.44ZM353.505 220.515L352.725 220.255C353.18 218.988 353.667 217.688 354.187 216.42L354.935 216.713C354.447 217.98 353.96 219.248 353.505 220.515ZM513.567 215.868C513.047 214.633 512.495 213.398 511.91 212.195L512.657 211.838C513.242 213.073 513.795 214.308 514.347 215.543L513.567 215.868ZM356.56 213.04L355.812 212.683C356.397 211.448 356.982 210.213 357.632 209.01L358.347 209.4C357.73 210.603 357.145 211.838 356.56 213.04ZM510.09 208.588C509.472 207.418 508.79 206.248 508.107 205.078L508.79 204.655C509.505 205.825 510.155 206.995 510.805 208.198L510.09 208.588ZM360.33 205.858L359.615 205.435C360.297 204.265 361.012 203.095 361.76 201.958L362.442 202.413C361.727 203.55 361.012 204.72 360.33 205.858ZM505.93 201.665C505.182 200.56 504.402 199.455 503.622 198.35L504.272 197.863C505.085 198.968 505.865 200.073 506.612 201.21L505.93 201.665ZM364.75 199.098L364.1 198.61C364.88 197.505 365.725 196.433 366.57 195.36L367.22 195.88C366.375 196.92 365.53 198.025 364.75 199.098ZM501.12 195.165C500.275 194.125 499.397 193.085 498.487 192.078L499.105 191.525C500.015 192.533 500.892 193.573 501.737 194.645L501.12 195.165ZM369.787 192.76L369.17 192.24C370.047 191.233 370.99 190.193 371.932 189.218L372.517 189.77C371.607 190.745 370.665 191.753 369.787 192.76ZM495.757 189.153C494.815 188.178 493.84 187.235 492.865 186.325L493.417 185.74C494.392 186.65 495.4 187.625 496.342 188.6L495.757 189.153ZM375.377 186.943L374.825 186.358C375.8 185.415 376.84 184.505 377.847 183.628L378.367 184.245C377.36 185.09 376.352 186.033 375.377 186.943ZM489.81 183.66C488.802 182.783 487.73 181.938 486.657 181.125L487.145 180.475C488.217 181.288 489.29 182.165 490.33 183.043L489.81 183.66ZM381.52 181.678L381.032 181.028C382.105 180.183 383.21 179.37 384.315 178.59L384.77 179.24C383.665 180.02 382.56 180.833 381.52 181.678ZM483.407 178.72C482.302 177.94 481.165 177.193 480.027 176.478L480.45 175.795C481.587 176.51 482.757 177.258 483.862 178.038L483.407 178.72ZM388.085 176.998L387.63 176.315C388.767 175.568 389.937 174.885 391.107 174.203L391.53 174.918C390.392 175.568 389.222 176.25 388.085 176.998ZM476.55 174.43C475.38 173.78 474.177 173.13 472.975 172.513L473.332 171.798C474.535 172.415 475.77 173.065 476.94 173.715L476.55 174.43ZM395.072 172.935L394.715 172.22C395.917 171.603 397.152 170.985 398.387 170.433L398.712 171.18C397.477 171.733 396.275 172.35 395.072 172.935ZM469.335 170.79C468.1 170.238 466.865 169.718 465.597 169.23L465.89 168.483C467.157 168.97 468.425 169.49 469.66 170.043L469.335 170.79ZM402.417 169.588L402.125 168.84C403.392 168.32 404.66 167.865 405.96 167.41L406.22 168.19C404.92 168.613 403.652 169.1 402.417 169.588ZM461.762 167.865C460.495 167.443 459.195 167.053 457.895 166.663L458.122 165.883C459.422 166.24 460.722 166.663 462.022 167.085L461.762 167.865ZM410.055 166.923L409.827 166.143C411.127 165.753 412.46 165.395 413.76 165.07L413.955 165.85C412.655 166.208 411.322 166.565 410.055 166.923ZM453.995 165.655C452.695 165.363 451.362 165.07 450.03 164.843L450.192 164.03C451.525 164.29 452.857 164.55 454.19 164.875L453.995 165.655ZM417.887 165.005L417.725 164.193C419.057 163.933 420.422 163.705 421.755 163.51L421.885 164.323C420.552 164.518 419.22 164.745 417.887 165.005ZM446.065 164.193C444.732 163.998 443.4 163.868 442.035 163.738L442.1 162.925C443.465 163.055 444.797 163.185 446.162 163.38L446.065 164.193ZM425.882 163.835L425.817 163.023C427.15 162.893 428.515 162.795 429.88 162.73L429.912 163.543C428.58 163.608 427.215 163.705 425.882 163.835ZM438.005 163.478C436.835 163.445 435.632 163.413 434.43 163.413C434.267 163.413 434.105 163.413 433.942 163.413V162.6C434.105 162.6 434.267 162.6 434.43 162.6C435.632 162.6 436.835 162.633 438.037 162.665L438.005 163.478Z" fill="#91CAFF"/>
<path d="M82.7475 240.925C81.3825 240.925 80.0175 240.86 78.6525 240.763L78.7175 239.95C80.05 240.048 81.415 240.113 82.7475 240.113V240.925ZM86.8425 240.795L86.7775 239.983C88.11 239.885 89.475 239.755 90.775 239.593L90.8725 240.405C89.5725 240.568 88.2075 240.698 86.8425 240.795ZM74.6225 240.275C73.29 240.08 71.925 239.82 70.5925 239.528L70.755 238.748C72.055 239.04 73.3875 239.3 74.72 239.495L74.6225 240.275ZM94.935 239.69L94.7725 238.91C96.0725 238.65 97.405 238.293 98.6725 237.935L98.9 238.715C97.6 239.073 96.2675 239.398 94.935 239.69ZM66.6275 238.52C65.3275 238.13 64.0275 237.675 62.76 237.188L63.0525 236.44C64.32 236.928 65.5875 237.35 66.8875 237.74L66.6275 238.52ZM102.8 237.415L102.507 236.668C103.775 236.213 105.01 235.693 106.245 235.14L106.57 235.888C105.335 236.44 104.067 236.96 102.8 237.415ZM58.99 235.595C57.755 235.01 56.52 234.393 55.35 233.743L55.74 233.028C56.91 233.678 58.1125 234.295 59.3475 234.88L58.99 235.595ZM110.243 234.068L109.852 233.353C111.022 232.703 112.192 232.02 113.33 231.305L113.752 231.988C112.615 232.703 111.445 233.418 110.243 234.068ZM51.84 231.598C50.7025 230.85 49.5975 230.07 48.4925 229.225L48.98 228.575C50.0525 229.388 51.1575 230.168 52.2625 230.915L51.84 231.598ZM117.132 229.648L116.645 228.998C117.717 228.185 118.79 227.34 119.797 226.463L120.317 227.08C119.277 227.99 118.205 228.868 117.132 229.648ZM45.34 226.658C44.3325 225.748 43.325 224.805 42.3825 223.83L42.9675 223.245C43.91 224.188 44.885 225.13 45.8925 226.008L45.34 226.658ZM123.307 224.318L122.722 223.733C123.665 222.79 124.607 221.815 125.485 220.775L126.102 221.295C125.225 222.368 124.282 223.375 123.307 224.318ZM39.62 220.808C38.7425 219.768 37.8975 218.695 37.085 217.59L37.735 217.103C38.515 218.175 39.36 219.248 40.2375 220.255L39.62 220.808ZM128.702 218.175L128.052 217.688C128.865 216.615 129.645 215.51 130.36 214.373L131.043 214.828C130.295 215.965 129.515 217.07 128.702 218.175ZM34.7775 214.243C34.0625 213.105 33.3475 211.903 32.73 210.7L33.445 210.31C34.0625 211.48 34.745 212.65 35.46 213.788L34.7775 214.243ZM133.122 211.318L132.407 210.928C133.057 209.758 133.675 208.555 134.227 207.32L134.975 207.645C134.422 208.88 133.805 210.115 133.122 211.318ZM30.91 207.028C30.3575 205.793 29.8375 204.525 29.3825 203.225L30.1625 202.965C30.6175 204.233 31.1375 205.468 31.6575 206.703L30.91 207.028ZM136.535 203.875L135.787 203.583C136.242 202.315 136.698 201.048 137.055 199.748L137.835 199.975C137.477 201.275 137.022 202.608 136.535 203.875ZM28.1475 199.358C27.79 198.058 27.465 196.725 27.1725 195.393L27.9525 195.23C28.2125 196.53 28.5375 197.863 28.895 199.163L28.1475 199.358ZM138.842 196.01L138.062 195.848C138.355 194.548 138.582 193.215 138.777 191.883L139.59 192.013C139.395 193.345 139.135 194.71 138.842 196.01ZM26.5225 191.33C26.36 189.998 26.23 188.633 26.1325 187.268L26.945 187.235C27.01 188.568 27.14 189.933 27.335 191.233L26.5225 191.33ZM140.012 187.95L139.2 187.885C139.297 186.553 139.33 185.188 139.33 183.855H140.143C140.175 185.22 140.11 186.585 140.012 187.95ZM26.8475 183.173H26.035C26.035 181.808 26.1 180.443 26.23 179.078L27.0425 179.143C26.9125 180.508 26.8475 181.84 26.8475 183.173ZM139.297 181.158C139.232 179.825 139.135 178.46 138.972 177.128L139.785 177.03C139.947 178.363 140.045 179.76 140.11 181.093L139.297 181.158ZM27.4975 175.145L26.685 175.015C26.88 173.683 27.14 172.318 27.465 170.985L28.245 171.18C27.9525 172.513 27.6925 173.845 27.4975 175.145ZM138.322 173.13C138.062 171.83 137.77 170.498 137.412 169.198L138.193 169.003C138.55 170.303 138.842 171.668 139.103 173L138.322 173.13ZM29.3175 167.313L28.5375 167.085C28.9275 165.785 29.3825 164.485 29.87 163.218L30.6175 163.51C30.13 164.745 29.7075 166.013 29.3175 167.313ZM136.243 165.363C135.787 164.095 135.3 162.828 134.78 161.625L135.527 161.3C136.08 162.535 136.567 163.835 137.022 165.103L136.243 165.363ZM32.2425 159.773L31.495 159.415C32.08 158.18 32.6975 156.978 33.38 155.775L34.095 156.165C33.4125 157.368 32.795 158.57 32.2425 159.773ZM133.057 157.985C132.44 156.783 131.79 155.613 131.075 154.475L131.757 154.053C132.472 155.223 133.155 156.393 133.772 157.595L133.057 157.985ZM36.2075 152.753L35.525 152.298C36.2725 151.16 37.085 150.055 37.8975 148.983L38.5475 149.47C37.735 150.543 36.9225 151.648 36.2075 152.753ZM128.832 151.095C128.052 150.023 127.207 148.95 126.362 147.91L126.98 147.39C127.857 148.43 128.702 149.535 129.482 150.64L128.832 151.095ZM41.115 146.383L40.4975 145.83C41.4075 144.823 42.35 143.815 43.325 142.873L43.8775 143.458C42.9675 144.4 42.025 145.375 41.115 146.383ZM123.697 144.92C122.755 143.945 121.812 143.003 120.805 142.125L121.357 141.508C122.365 142.418 123.34 143.393 124.282 144.368L123.697 144.92ZM46.9 140.76L46.38 140.143C47.42 139.265 48.4925 138.42 49.5975 137.64L50.085 138.29C49.0125 139.07 47.94 139.915 46.9 140.76ZM117.717 139.493C116.677 138.68 115.572 137.868 114.467 137.12L114.922 136.438C116.06 137.185 117.165 137.998 118.237 138.843L117.717 139.493ZM53.4325 136.048L53.01 135.365C54.1475 134.65 55.35 133.968 56.5525 133.318L56.9425 134.033C55.74 134.65 54.57 135.333 53.4325 136.048ZM111.022 135.008C109.852 134.325 108.65 133.708 107.447 133.123L107.805 132.375C109.04 132.96 110.242 133.61 111.412 134.293L111.022 135.008ZM60.55 132.278L60.225 131.53C61.46 130.978 62.76 130.49 64.0275 130.035L64.2875 130.815C63.02 131.27 61.785 131.758 60.55 132.278ZM103.742 131.498C102.507 131.01 101.207 130.555 99.94 130.165L100.167 129.385C101.467 129.808 102.767 130.263 104.035 130.75L103.742 131.498ZM68.1225 129.613L67.895 128.833C69.195 128.475 70.5275 128.15 71.86 127.89L72.0225 128.703C70.755 128.93 69.4225 129.255 68.1225 129.613ZM96.0725 129.093C94.7725 128.8 93.44 128.508 92.1075 128.313L92.2375 127.5C93.57 127.728 94.935 127.988 96.235 128.28L96.0725 129.093ZM76.0525 128.02L75.955 127.208C77.2875 127.045 78.685 126.915 80.0175 126.85L80.05 127.663C78.7175 127.76 77.3525 127.858 76.0525 128.02ZM88.11 127.825C86.7775 127.695 85.4125 127.63 84.08 127.598V126.785C85.445 126.818 86.81 126.883 88.175 127.013L88.11 127.825Z" fill="#91CAFF"/>
<path d="M311.612 47.0301C304.04 47.0301 297.897 40.8876 297.897 33.3151C297.897 25.7426 304.04 19.6001 311.612 19.6001C319.185 19.6001 325.327 25.7426 325.327 33.3151C325.327 40.8876 319.152 47.0301 311.612 47.0301ZM311.612 20.2176C304.397 20.2176 298.515 26.1001 298.515 33.3151C298.515 40.5301 304.397 46.4126 311.612 46.4126C318.827 46.4126 324.71 40.5301 324.71 33.3151C324.71 26.1001 318.827 20.2176 311.612 20.2176Z" fill="#91CAFF"/>
<path d="M454.255 96.2676V343.333C454.255 348.468 450.095 352.628 444.96 352.628H85.9C80.765 352.628 76.605 348.468 76.605 343.333V96.2676C76.605 91.1326 80.765 86.9401 85.9 86.9401H444.927C450.095 86.9401 454.255 91.1001 454.255 96.2676Z" fill="white"/>
<path d="M444.96 353.05H85.9C80.5375 353.05 76.1825 348.695 76.1825 343.333V96.2676C76.1825 90.9051 80.5375 86.55 85.9 86.55H444.927C450.29 86.55 454.645 90.9051 454.645 96.2676V343.3C454.645 348.663 450.29 353.05 444.96 353.05ZM85.9 87.3625C80.9925 87.3625 76.995 91.3601 76.995 96.2676V343.3C76.995 348.208 80.9925 352.205 85.9 352.205H444.927C449.835 352.205 453.832 348.208 453.832 343.3V96.2676C453.832 91.3601 449.835 87.3625 444.927 87.3625H85.9Z" fill="#91CAFF"/>
<path d="M454.255 96.2676V110.925H76.605V96.2676C76.605 91.1326 80.765 86.9401 85.9 86.9401H444.927C450.095 86.9401 454.255 91.1001 454.255 96.2676Z" fill="white"/>
<path d="M454.645 111.315H76.1825V96.2351C76.1825 90.8726 80.5375 86.5176 85.9 86.5176H444.927C450.29 86.5176 454.645 90.8726 454.645 96.2351V111.315ZM76.995 110.503H453.832V96.2351C453.832 91.3276 449.835 87.3301 444.927 87.3301H85.9C80.9925 87.3301 76.995 91.3276 76.995 96.2351V110.503Z" fill="#91CAFF"/>
<path d="M97.5676 103.255C99.9548 103.255 101.89 101.32 101.89 98.9326C101.89 96.5453 99.9548 94.6101 97.5676 94.6101C95.1803 94.6101 93.2451 96.5453 93.2451 98.9326C93.2451 101.32 95.1803 103.255 97.5676 103.255Z" fill="#4A7DC9"/>
<path d="M114.11 94.6101C111.705 94.6101 109.788 96.5601 109.788 98.9326C109.788 101.338 111.738 103.255 114.11 103.255C116.483 103.255 118.433 101.305 118.433 98.9326C118.433 96.5276 116.483 94.6101 114.11 94.6101Z" fill="#4A7DC9"/>
<path d="M130.62 103.255C128.215 103.255 126.297 101.305 126.297 98.9326C126.297 96.5276 128.247 94.6101 130.62 94.6101C133.025 94.6101 134.943 96.5601 134.943 98.9326C134.943 101.338 132.992 103.255 130.62 103.255ZM130.62 95.4226C128.67 95.4226 127.11 97.0151 127.11 98.9326C127.11 100.883 128.702 102.443 130.62 102.443C132.57 102.443 134.13 100.85 134.13 98.9326C134.13 96.9826 132.57 95.4226 130.62 95.4226Z" fill="#91CAFF"/>
<path d="M237.253 103.743H156.685C154.02 103.743 151.875 101.565 151.875 98.9325C151.875 96.3001 154.052 94.1226 156.685 94.1226H237.22C239.885 94.1226 242.03 96.3001 242.03 98.9325C242.03 101.565 239.885 103.743 237.253 103.743ZM156.685 94.9351C154.475 94.9351 152.688 96.7225 152.688 98.9325C152.688 101.143 154.475 102.93 156.685 102.93H237.22C239.43 102.93 241.218 101.143 241.218 98.9325C241.218 96.7225 239.43 94.9351 237.22 94.9351H156.685Z" fill="#91CAFF"/>
<path d="M339.66 225.878C339.66 264.78 308.135 296.305 269.232 296.305C230.33 296.305 198.772 264.78 198.772 225.878C198.772 189.38 226.527 159.383 262.082 155.775L264.422 178.883C240.6 181.288 222.01 201.405 222.01 225.845C222.01 251.91 243.135 273.068 269.2 273.068C295.265 273.068 316.39 251.943 316.39 225.845C316.39 221.295 315.74 216.908 314.537 212.748L336.865 206.313C338.685 212.52 339.66 219.085 339.66 225.878Z" fill="#91CAFF"/>
<path d="M269.232 282.753C300.644 282.753 326.107 257.289 326.107 225.878C326.107 194.466 300.644 169.003 269.232 169.003C237.821 169.003 212.357 194.466 212.357 225.878C212.357 257.289 237.821 282.753 269.232 282.753Z" fill="white"/>
<path opacity="0.5" d="M269.232 282.753C300.644 282.753 326.107 257.289 326.107 225.878C326.107 194.466 300.644 169.003 269.232 169.003C237.821 169.003 212.357 194.466 212.357 225.878C212.357 257.289 237.821 282.753 269.232 282.753Z" fill="#D1E9FF"/>
<path d="M269.233 266.178C291.49 266.178 309.533 248.135 309.533 225.878C309.533 203.62 291.49 185.578 269.233 185.578C246.975 185.578 228.932 203.62 228.932 225.878C228.932 248.135 246.975 266.178 269.233 266.178Z" fill="white"/>
<path d="M273.815 245.703V251.813H266.047V245.963C260.522 245.638 255.192 244.143 251.877 242.095L256.07 232.605C259.71 234.75 264.552 236.148 268.81 236.148C272.515 236.148 273.847 235.368 273.847 234.035C273.847 229.193 252.495 233.093 252.495 218.695C252.495 212.455 257.012 207.223 266.08 205.955V199.943H273.847V205.858C277.942 206.248 281.907 207.288 285.06 209.075L281.127 218.5C277.325 216.583 273.717 215.64 270.37 215.64C266.567 215.64 265.332 216.745 265.332 218.078C265.332 222.725 286.685 218.858 286.685 233.093C286.685 239.008 282.362 244.208 273.815 245.703Z" fill="#91CAFF"/>
<path d="M519.97 38.7426H366.732V132.44H519.97V38.7426Z" fill="white"/>
<path d="M520.392 132.863H366.342V38.3526H520.392V132.863ZM367.155 132.05H519.58V39.1651H367.155V132.05Z" fill="#91CAFF"/>
<path d="M394.845 102.638H386.037V118.823H394.845V102.638Z" fill="#D1E9FF"/>
<path d="M412.46 95.2275H403.652V118.823H412.46V95.2275Z" fill="#D1E9FF"/>
<path d="M430.107 101.273H421.3V118.823H430.107V101.273Z" fill="#D1E9FF"/>
<path d="M447.755 88.9225H438.947V118.823H447.755V88.9225Z" fill="#D1E9FF"/>
<path d="M465.402 81.0251H456.595V118.823H465.402V81.0251Z" fill="#D1E9FF"/>
<path d="M483.017 69.7475H474.21V118.823H483.017V69.7475Z" fill="#D1E9FF"/>
<path d="M500.665 52.3925H491.857V118.823H500.665V52.3925Z" fill="#D1E9FF"/>
<path d="M393.057 60.2575H386.037V68.1875H393.057V60.2575Z" fill="#D1E9FF"/>
<path d="M451.362 63.93H403.88V65.9776H451.362V63.93Z" fill="#D1E9FF"/>
<path d="M382.072 179.955L372.355 153.143C361.402 157.108 353.57 167.605 353.57 179.955C353.57 195.685 366.342 208.458 382.072 208.458C397.802 208.458 410.575 195.685 410.575 179.955C410.575 175.21 409.405 170.758 407.357 166.825L382.072 179.955Z" fill="#EBF8FF"/>
<path d="M411.192 156.685C406.447 147.553 396.892 141.313 385.907 141.313C382.495 141.313 379.245 141.898 376.19 143.003L385.907 169.815L411.192 156.685Z" fill="#91CAFF"/>
<path d="M422.437 271.313H355V335.5H422.437V271.313Z" fill="#EBF8FF"/>
<path d="M403.36 288.375H365.562V291.073H403.36V288.375Z" fill="white"/>
<path d="M403.36 296.5H365.562V299.198H403.36V296.5Z" fill="white"/>
<path d="M165.005 148.625H106.375V247.75H165.005V148.625Z" fill="#EBF8FF"/>
<path d="M153.76 162.99H115.312V198.188H153.76V162.99Z" fill="white"/>
<path d="M115.592 162.688L115.043 163.287L153.494 198.491L154.043 197.892L115.592 162.688Z" fill="#EBF8FF"/>
<path d="M153.466 162.709L115.02 197.912L115.568 198.511L154.014 163.308L153.466 162.709Z" fill="#EBF8FF"/>
<path d="M134.552 189.12H0.424988V277.488H134.552V189.12Z" fill="white"/>
<path d="M134.942 277.878H0.0349731V188.73H134.942V277.878ZM0.814971 277.098H134.162V189.51H0.814971V277.098Z" fill="#91CAFF"/>
<path d="M14.5624 256.135L23.2399 239.885L41.1149 256.688L53.0099 222.01L75.2399 246.385L89.8649 240.438L116.385 205.76" fill="white"/>
<path d="M41.2775 257.403L23.3375 240.568L14.92 256.33L14.205 255.94L23.11 239.235L40.92 255.973L52.8475 221.23L75.3375 245.898L89.605 240.113L116.06 205.533L116.71 206.02L90.125 240.763L75.11 246.873L74.915 246.678L53.1725 222.79L41.2775 257.403Z" fill="#91CAFF"/>
<path d="M23.3049 242.063C24.5434 242.063 25.5474 241.059 25.5474 239.82C25.5474 238.582 24.5434 237.578 23.3049 237.578C22.0664 237.578 21.0624 238.582 21.0624 239.82C21.0624 241.059 22.0664 242.063 23.3049 242.063Z" fill="#91CAFF"/>
<path d="M40.9849 258.54C42.2234 258.54 43.2274 257.536 43.2274 256.298C43.2274 255.059 42.2234 254.055 40.9849 254.055C39.7464 254.055 38.7424 255.059 38.7424 256.298C38.7424 257.536 39.7464 258.54 40.9849 258.54Z" fill="#91CAFF"/>
<path d="M53.1724 224.415C54.4109 224.415 55.4149 223.411 55.4149 222.173C55.4149 220.934 54.4109 219.93 53.1724 219.93C51.9339 219.93 50.9299 220.934 50.9299 222.173C50.9299 223.411 51.9339 224.415 53.1724 224.415Z" fill="#91CAFF"/>
<path d="M95.9425 203.193H39.0674V204.005H95.9425V203.193Z" fill="#91CAFF"/>
<path d="M319.348 402.743C316.943 386.98 320.258 370.405 328.512 356.788C336.767 343.17 349.93 332.575 365.042 327.44C356.495 333.42 351.295 343.073 347.655 352.855C344.015 362.638 341.642 372.875 337.125 382.3C332.64 391.725 325.555 400.5 315.74 404.01L319.348 402.743Z" fill="#91CAFF"/>
<path d="M316.975 402.872C316.65 384.673 313.107 366.505 306.575 349.508C304.267 343.463 301.472 337.45 296.955 332.803C292.437 328.188 285.872 325.133 279.502 326.27C287.432 332.218 291.527 341.968 293.867 351.588C296.175 361.208 297.085 371.217 300.335 380.577C303.585 389.937 309.825 398.94 319.152 402.287L316.975 402.872Z" fill="#91CAFF"/>
<path d="M315.74 404.043C311.222 391.823 306.282 379.31 297.15 370.015C288.017 360.72 273.587 355.39 261.66 360.59C271.312 362.768 280.185 368.39 286.327 376.158C290.812 381.878 293.835 388.638 298.482 394.26C303.097 399.883 310.15 404.4 317.3 403.068L315.74 404.043Z" fill="#D1E9FF"/>
<path d="M314.277 403.23C312.425 389.84 310.572 376.223 312.522 362.833C314.472 349.443 320.81 336.085 332.152 328.708C325.88 334.85 323.767 344.178 323.767 352.985C323.767 361.76 325.555 370.503 325.685 379.278C325.847 388.053 324.092 397.413 318.145 403.88L314.277 403.23Z" fill="#D1E9FF"/>
<path d="M320.55 401.28C324.905 390.198 329.52 378.725 338.393 370.763C344.08 365.66 351.328 362.313 358.868 361.273C353.57 365.498 350.223 371.705 347.493 377.913C344.73 384.12 342.358 390.588 338.36 396.08C334.363 401.573 328.383 406.09 321.59 406.383L320.55 401.28Z" fill="#D1E9FF"/>
<path d="M342.617 434.95H293.835L286.295 397.413H350.157L342.617 434.95Z" fill="white"/>
<path d="M342.975 435.373H293.51L285.807 397.023H350.645L342.975 435.373ZM294.16 434.56H342.292L349.67 397.835H286.815L294.16 434.56Z" fill="#91CAFF"/>
<path d="M430.01 412.395V434.95H400.727L414.15 424.03L414.832 410.283L430.01 412.395Z" fill="#D1E9FF"/>
<path d="M414.43 423.725L413.87 424.313L419.451 429.622L420.011 429.033L414.43 423.725Z" fill="#1B1B43"/>
<path d="M427.15 418.375H417.14V419.188H427.15V418.375Z" fill="#1B1B43"/>
<path d="M464.232 413.435L465.305 434.95H436.022L448.372 424.388V411.323L464.232 413.435Z" fill="#D1E9FF"/>
<path d="M448.617 424.028L448.079 424.637L452.634 428.661L453.172 428.052L448.617 424.028Z" fill="#1B1B43"/>
<path d="M461.568 418.798H451.688V419.61H461.568V418.798Z" fill="#1B1B43"/>
<path d="M432.968 282.59C433.455 327.57 437.193 371.868 444.343 415.385H469.01C463.875 382.105 461.567 341.675 464.427 288.115L446.618 273.523L432.968 282.59Z" fill="#1FC7A2"/>
<path d="M413.467 288.57L402.287 338.23C399.59 350.158 399.427 362.508 401.735 374.533L409.567 415.093H434.235L426.76 361.858L444.602 280.705L413.467 288.57Z" fill="#1FC7A2"/>
<path d="M434.625 336.15C434.56 335.143 433.162 312.295 433 309.403L426.565 307.063L426.857 306.315L433.812 308.85V309.143C433.812 309.63 434.885 327.018 435.437 336.118L434.625 336.15Z" fill="#BE443D"/>
<path d="M488.055 176.445L489.387 173.293C489.387 173.293 484.61 163.25 486.137 161.918C487.665 160.585 490.102 164.355 490.102 164.355C490.102 164.355 489.387 152.168 491.727 152.07C493.71 151.973 493.547 155.515 493.775 160.813C493.775 160.813 495.01 159.188 497.22 160.878C498.227 159.188 500.372 160.325 500.957 161.333C501.672 160.52 504.63 160.715 504.207 164.193C503.687 168.58 501.673 176.673 501.673 176.673L495.173 182.068L488.055 176.445Z" fill="#FFBC96"/>
<path d="M435.828 218.5L445.708 218.435C463.03 216.875 476.583 202.803 476.583 202.803L488.023 176.478L501.64 176.673L493.645 207.613C492.508 212.065 490.038 216.063 486.56 219.053L458.155 243.688L435.828 218.5Z" fill="#4A7DC9"/>
<path d="M408.755 240.925L413.468 288.57L464.427 288.115L462.64 230.688L435.827 218.5L417.302 226.365L408.755 240.925Z" fill="#4A7DC9"/>
<path d="M377.198 245.54C376.353 244.793 375.312 244.338 374.207 244.273C368.585 243.818 350.97 242.453 351.132 243.818C351.327 245.443 364.75 251.553 364.75 251.553C367.61 254.77 370.47 258.02 373.362 261.238L381.227 249.148L377.198 245.54Z" fill="#FFBC96"/>
<path d="M415.613 223.083C411.973 223.733 408.853 226.008 407.195 229.323L392.18 258.833L381.228 249.115L373.363 261.205C374.305 262.278 375.28 263.35 376.223 264.455C380.48 269.233 385.453 275.668 392.083 277.065C395.463 277.78 398.615 276.383 401.053 274.043C402.84 272.32 404.433 270.24 405.7 268.128L411.68 258.248L430.79 220.45L415.613 223.083Z" fill="#4A7DC9"/>
<path d="M409.146 240.859L408.337 240.937L411.189 270.244L411.997 270.165L409.146 240.859Z" fill="#D1E9FF"/>
<path d="M462.965 239.43L458.188 243.688L463.258 252.105L462.965 239.43Z" fill="#1B1B43"/>
<path d="M495.497 166.858C493.58 166.858 493.417 164.355 493.417 160.813H494.035C494.035 165.005 494.392 166.273 495.497 166.273C495.725 166.273 495.92 166.175 496.082 166.013C496.635 165.428 496.83 164.063 496.895 162.86C496.862 161.983 496.862 161.203 496.895 160.878H497.512C497.512 160.943 497.577 161.788 497.512 162.795C497.61 164.453 497.87 166.078 498.422 166.24C498.747 166.338 499.007 166.305 499.235 166.11C499.885 165.623 500.275 164.29 500.47 163.088C500.502 162.568 500.535 161.983 500.665 161.3L501.282 161.365C501.282 161.43 501.25 162.113 501.12 162.99C501.087 164.258 501.217 165.493 501.737 165.688C502.127 165.85 502.42 165.85 502.68 165.688C503.362 165.265 503.622 163.835 503.655 163.315L504.272 163.348C504.272 163.445 504.11 165.525 503.005 166.208C502.582 166.468 502.062 166.5 501.477 166.24C501.347 166.175 500.892 165.915 500.632 164.973C500.405 165.655 500.047 166.24 499.592 166.598C499.202 166.89 498.747 166.955 498.26 166.793C497.74 166.63 497.382 165.948 497.187 165.103C497.025 165.623 496.83 166.11 496.537 166.403C496.245 166.728 495.887 166.858 495.497 166.858Z" fill="#D28572"/>
<path d="M431.538 230.07C427.215 230.428 423.413 227.178 423.055 222.855L422.958 221.75L421.723 206.41L431.277 205.663L437.42 205.175L438.752 221.588C439.077 225.91 435.86 229.713 431.538 230.07Z" fill="#FFBC96"/>
<path d="M434.365 210.83C431.375 216.063 427.118 219.833 422.99 221.75L421.755 206.41L431.31 205.663L434.365 210.83Z" fill="#1B1B43"/>
<path d="M437.485 194.808L435.6 210.798C435.6 210.798 429.49 216.615 420.552 216.355C417.302 216.258 415.385 213.17 414.248 209.238C413.793 207.613 413.467 205.825 413.24 204.038C412.492 198.155 412.818 192.37 412.818 192.37L426.63 187.788L437.485 194.808Z" fill="#FFBC96"/>
<path d="M435.373 201.373C433.943 196.238 431.343 193.67 427.865 193.118C416.75 199.13 409.535 195.555 404.302 188.86C417.173 191.363 422.795 173.098 435.113 185.285C444.245 188.048 444.083 196.79 438.915 203.908L435.373 201.373Z" fill="#1B1B43"/>
<path d="M441.068 203.335C441.539 200.922 440.222 198.634 438.126 198.224C436.029 197.815 433.948 199.439 433.477 201.852C433.005 204.266 434.322 206.554 436.419 206.963C438.515 207.373 440.596 205.748 441.068 203.335Z" fill="#FFBC96"/>
<path d="M438.752 200.95C438.102 201.048 437.712 201.535 437.387 202.088C437.095 202.64 436.9 203.258 436.77 203.94H436.542C436.445 203.583 436.445 203.193 436.51 202.835C436.575 202.478 436.705 202.12 436.867 201.795C437.062 201.47 437.29 201.178 437.647 200.95C437.972 200.723 438.395 200.625 438.785 200.723L438.752 200.95Z" fill="#1B1B43"/>
<path d="M416.132 202.023C416.132 202.705 415.807 203.29 415.385 203.29C414.962 203.29 414.637 202.738 414.637 202.023C414.637 201.308 414.962 200.755 415.385 200.755C415.807 200.755 416.132 201.308 416.132 202.023Z" fill="#1B1B43"/>
<path d="M422.307 201.503C422.307 202.25 421.95 202.868 421.495 202.868C421.04 202.868 420.682 202.25 420.682 201.503C420.682 200.755 421.04 200.138 421.495 200.138C421.95 200.138 422.307 200.755 422.307 201.503Z" fill="#1B1B43"/>
<path d="M417.823 203.03C417.823 203.258 417.725 203.518 417.627 203.713C417.497 203.908 417.367 204.103 417.205 204.233C416.912 204.558 416.652 204.85 416.587 205.143C416.522 205.435 416.62 205.76 416.848 206.053C417.075 206.345 417.4 206.605 417.725 206.93L417.595 207.125C417.205 206.963 416.815 206.735 416.457 206.41C416.295 206.248 416.132 206.053 416.035 205.793C415.937 205.533 415.905 205.273 415.97 204.98C416.035 204.72 416.165 204.493 416.327 204.298C416.49 204.103 416.652 203.973 416.815 203.843C417.14 203.583 417.432 203.323 417.562 202.965L417.823 203.03Z" fill="#1B1B43"/>
<path d="M418.407 209.79C419.252 209.595 420.065 209.335 420.78 208.88C421.137 208.653 421.462 208.425 421.787 208.133C422.112 207.84 422.405 207.548 422.73 207.255L422.925 207.385C422.535 208.198 421.885 208.913 421.072 209.4C420.26 209.888 419.317 210.115 418.407 210.018V209.79Z" fill="#1B1B43"/>
<path d="M420.52 198.155C420.357 199.065 423.217 199.358 423.737 199.455C424.16 199.52 424.777 199.585 424.875 198.935C424.972 198.123 424.127 198.058 423.607 197.928C423.12 197.83 420.682 197.278 420.52 198.155Z" fill="#1B1B43"/>
<path d="M416.49 198.708C416.49 199.585 414.182 199.683 413.76 199.748C413.402 199.78 412.947 199.78 412.98 199.163C413.012 198.383 413.727 198.383 414.117 198.285C414.507 198.22 416.522 197.863 416.49 198.708Z" fill="#1B1B43"/>
<path opacity="0.2" d="M427.248 207.19C428.881 207.19 430.205 205.866 430.205 204.233C430.205 202.599 428.881 201.275 427.248 201.275C425.614 201.275 424.29 202.599 424.29 204.233C424.29 205.866 425.614 207.19 427.248 207.19Z" fill="#FE5B52"/>
<path opacity="0.2" d="M415.418 206.865C415.418 207.84 414.963 208.685 414.248 209.205C413.793 207.58 413.467 205.793 413.24 204.005C414.508 204.363 415.418 205.5 415.418 206.865Z" fill="#FE5B52"/>
<path d="M205.5 301.765H148.982V305.568H205.5V301.765Z" fill="#91CAFF"/>
<path d="M205.5 301.798H157.757L175.86 257.695H223.57L205.5 301.798Z" fill="white"/>
<path d="M205.76 302.188H157.172L175.6 257.305H224.22L205.76 302.188ZM158.375 301.375H205.24L222.985 258.118H176.12L158.375 301.375Z" fill="#91CAFF"/>
<path d="M201.372 298.093H163.867L178.07 263.448H215.575L201.372 298.093Z" fill="#EBF8FF"/>
<path d="M186.487 306.803H185.675V435.178H186.487V306.803Z" fill="#1B1B43"/>
<path d="M231.695 305.6H140.5V312.848H231.695V305.6Z" fill="#D1E9FF"/>
<path d="M66.9199 360.72H66.1074V435.178H66.9199V360.72Z" fill="#1B1B43"/>
<path d="M88.8249 364.165H44.2025C45.145 359.648 49.1425 356.398 53.7575 356.398H79.2374C83.8849 356.398 87.8499 359.648 88.8249 364.165Z" fill="#D1E9FF"/>
<path d="M78.1 434.95H54.96C54.96 432.123 57.235 429.848 60.0625 429.848H73.03C75.7925 429.848 78.1 432.123 78.1 434.95Z" fill="#D1E9FF"/>
<path d="M100.915 250.253C102.052 251.878 103.677 254.218 103.872 256.233C104.132 259.19 99.4199 257.11 99.3549 257.37C99.3549 257.403 100.915 250.253 100.915 250.253Z" fill="#D28572"/>
<path d="M93.7 253.73H78.7825V275.603H93.7V253.73Z" fill="#FFBC96"/>
<path d="M93.7 257.5V273.1C88.9875 270.143 84.925 265.755 81.415 260.685L93.7 257.5Z" fill="#1B1B43"/>
<path d="M102.085 251.585C101.63 259.125 98.7049 267.673 90.7749 265.593C84.5349 263.935 77.6774 258.703 77.6774 251.13C77.6774 243.558 82.9099 237.415 89.3774 237.415C93.4074 237.415 98.5099 239.365 100.882 243.168C102.345 245.41 102.312 248.303 102.085 251.585Z" fill="#FFBC96"/>
<path d="M88.89 249.408C91.0025 243.818 95.845 243.265 95.845 243.265C95.845 243.265 107.057 254.348 106.342 242.908C105.79 233.808 96.9175 234.685 96.9175 234.685C92.5625 229.03 85.6074 231.24 83.0724 234.523C80.5374 237.805 81.4474 235.92 75.4674 238.033C69.4874 240.178 72.6724 249.245 71.6324 249.928C63.6699 249.928 65.1649 257.793 65.1649 257.793L83.9825 263.935L88.5 251.553L88.89 249.408Z" fill="#1B1B43"/>
<path d="M90.1454 255.303C91.6998 254.405 92.0141 252.04 90.8474 250.019C89.6807 247.998 87.4748 247.088 85.9204 247.985C84.366 248.883 84.0517 251.248 85.2184 253.269C86.3851 255.29 88.591 256.2 90.1454 255.303Z" fill="#FFBC96"/>
<path d="M88.435 252.463C88.175 251.943 87.9475 251.455 87.59 251.098C87.4275 250.935 87.2 250.773 86.9725 250.643C86.745 250.513 86.485 250.415 86.225 250.285L86.2575 250.058C86.55 250.025 86.8425 250.09 87.1675 250.188C87.46 250.285 87.7525 250.448 87.98 250.708C88.2075 250.935 88.37 251.228 88.4675 251.52C88.565 251.813 88.63 252.105 88.63 252.398L88.435 252.463Z" fill="#1B1B43"/>
<path d="M81.4178 238.942C84.9141 238.776 87.603 235.575 87.4238 231.792C87.2445 228.009 84.2649 225.076 80.7687 225.242C77.2724 225.408 74.5835 228.609 74.7627 232.392C74.942 236.175 77.9216 239.108 81.4178 238.942Z" fill="#1B1B43"/>
<path opacity="0.2" d="M95.6174 258.735C97.197 258.735 98.4774 257.455 98.4774 255.875C98.4774 254.296 97.197 253.015 95.6174 253.015C94.0379 253.015 92.7574 254.296 92.7574 255.875C92.7574 257.455 94.0379 258.735 95.6174 258.735Z" fill="#FE5B52"/>
<path d="M106.797 329.423L58.99 323.313L67.9925 275.798C68.61 272.483 70.8525 269.655 73.9075 268.258C76.475 267.088 79.4 267.023 82.0325 268.03L98.315 275.278C101.435 276.675 103.612 279.633 104.002 283.013L104.912 298.548L105.952 316.13L106.797 329.423Z" fill="#1FC7A2"/>
<path d="M150.51 295.298L163.152 291.593C164.062 291.333 165.037 291.463 165.85 291.983C169.327 294.29 178.525 300.79 176.217 303.455C175.047 304.788 164.485 301.668 164.485 301.668L149.177 305.958L150.51 295.298Z" fill="#FFBC96"/>
<path d="M105.985 316.13C101.987 311.06 99.6475 304.365 98.835 296.078L104.912 298.548L105.985 316.13Z" fill="#1B1B43"/>
<path d="M96.885 274.693L98.8025 275.505C102.735 277.195 106.245 279.698 109.105 282.85L124.802 300.14L150.542 295.265L153.922 309.078L121.585 319.185C119.017 319.64 116.417 318.763 114.662 316.845L91.36 291.463L96.885 274.693Z" fill="#1FC7A2"/>
<path d="M124.477 300.433C124.412 300.335 116.742 292.015 110.112 284.573C103.547 277.228 93.57 273.653 93.4725 273.62L93.7325 272.84C93.83 272.873 104.002 276.513 110.697 284.02C117.327 291.463 124.965 299.783 125.062 299.848L124.477 300.433Z" fill="#1B1B43"/>
<path d="M93.2539 294.156L92.6703 294.721L114.357 317.105L114.94 316.54L93.2539 294.156Z" fill="#1B1B43"/>
<path d="M105.042 401.248L94.74 421.333L120.772 434.723L113.85 418.863L119.505 406.318L105.042 401.248Z" fill="#D1E9FF"/>
<path d="M113.747 418.468L106.358 420.644L106.588 421.423L113.977 419.248L113.747 418.468Z" fill="#1B1B43"/>
<path d="M121.26 414.475L97.665 405.668L113.817 355.39C116.58 347.948 125.16 344.275 132.927 347.168C140.695 350.06 144.757 358.445 141.995 365.888L121.26 414.475Z" fill="#26289C"/>
<path d="M144.172 411.063L146.447 434.95H175.73L162.34 424.03L159.187 410.25L144.172 411.063Z" fill="#D1E9FF"/>
<path d="M162.133 423.642L155.188 427.471L155.581 428.182L162.525 424.354L162.133 423.642Z" fill="#1B1B43"/>
<path d="M165.297 413.923L139.687 417.985L122.17 366.44L118.985 357.048L75.4674 357.405C64.7099 357.665 56.13 348.435 57.2025 337.71L59.0224 323.345L102.085 328.773L130.392 331.893C142.19 333.94 145.797 341.058 148.235 350.223L165.297 413.923Z" fill="#4A7DC9"/>
<path d="M122.17 366.44L118.985 357.048L124.868 356.853C125.388 360.363 123.99 364.328 122.17 366.44Z" fill="#1B1B43"/>
<path d="M510.61 434.56H17.4225V435.373H510.61V434.56Z" fill="#1B1B43"/>
</svg>
