<svg width="555" height="350" viewBox="0 0 555 350" fill="none" xmlns="http://www.w3.org/2000/svg">
<path opacity="0.4" d="M426.516 136.622C451.665 136.622 472.053 116.234 472.053 91.085C472.053 65.9356 451.665 45.548 426.516 45.548C401.366 45.548 380.979 65.9356 380.979 91.085C380.979 116.234 401.366 136.622 426.516 136.622Z" fill="#E5E5FF"/>
<path d="M123.989 349.085C122.807 348.182 121.646 347.257 120.485 346.333L120.893 345.817C122.054 346.741 123.215 347.644 124.398 348.547L123.989 349.085ZM465.151 346.096L464.678 345.645C465.689 344.591 466.699 343.473 467.688 342.377L468.183 342.828C467.194 343.925 466.183 345.021 465.151 346.096ZM117.045 343.538C115.905 342.592 114.766 341.624 113.648 340.657L114.078 340.141C115.196 341.108 116.335 342.054 117.475 343L117.045 343.538ZM471.064 339.431L470.548 339.001C471.494 337.862 472.418 336.701 473.321 335.54L473.859 335.948C472.956 337.131 472.01 338.313 471.064 339.431ZM110.294 337.711C109.197 336.722 108.101 335.712 107.004 334.701L107.456 334.207C108.531 335.217 109.627 336.206 110.724 337.195L110.294 337.711ZM476.503 332.379L475.966 331.992C476.826 330.81 477.664 329.584 478.481 328.337L479.04 328.703C478.223 329.95 477.363 331.175 476.503 332.379ZM103.779 331.648C102.704 330.616 101.672 329.563 100.619 328.509L101.092 328.036C102.124 329.09 103.177 330.143 104.231 331.175L103.779 331.648ZM97.5444 325.306C96.5339 324.231 95.5234 323.134 94.5344 322.038L95.0289 321.586C96.0179 322.683 97.0284 323.779 98.0389 324.854L97.5444 325.306ZM481.427 324.94L480.868 324.596C481.19 324.059 481.513 323.521 481.835 322.984C482.265 322.253 482.695 321.522 483.104 320.769L483.684 321.092C483.276 321.844 482.846 322.575 482.416 323.328C482.093 323.865 481.749 324.403 481.427 324.94ZM91.5889 318.684C90.6214 317.566 89.6754 316.426 88.7294 315.265L89.2454 314.835C90.1914 315.975 91.1374 317.114 92.1049 318.232L91.5889 318.684ZM485.748 317.157L485.146 316.856C485.791 315.545 486.436 314.19 487.017 312.836L487.619 313.094C487.038 314.448 486.393 315.824 485.748 317.157ZM85.9559 311.782C85.0529 310.621 84.1499 309.417 83.2684 308.235L83.8059 307.848C84.6874 309.03 85.5904 310.234 86.4934 311.395L85.9559 311.782ZM489.317 308.987L488.694 308.751C489.231 307.375 489.726 305.956 490.177 304.58L490.801 304.795C490.349 306.171 489.855 307.59 489.317 308.987ZM80.6669 304.623C79.8069 303.397 78.9684 302.172 78.1729 300.946L78.7319 300.581C79.5274 301.806 80.3659 303.032 81.2259 304.257L80.6669 304.623ZM492.091 300.516L491.446 300.344C491.833 298.925 492.198 297.485 492.521 296.044L493.166 296.195C492.865 297.635 492.499 299.076 492.091 300.516ZM75.7649 297.184C74.9909 295.937 74.2169 294.647 73.4644 293.357L74.0449 293.013C74.7759 294.281 75.5499 295.571 76.3239 296.818L75.7649 297.184ZM494.069 291.809L493.402 291.701C493.66 290.239 493.875 288.777 494.069 287.315L494.735 287.401C494.542 288.863 494.327 290.347 494.069 291.809ZM71.2929 289.487C70.9919 288.928 70.6909 288.369 70.3899 287.81C69.9814 287.057 69.5944 286.305 69.2289 285.552L69.8309 285.251C70.2179 286.004 70.6049 286.756 70.9919 287.509C71.2929 288.068 71.5939 288.627 71.8949 289.186L71.2929 289.487ZM495.187 282.972L494.52 282.929C494.628 281.467 494.714 279.962 494.735 278.5L495.402 278.522C495.359 279.984 495.294 281.489 495.187 282.972ZM67.2724 281.532C66.6489 280.199 66.0469 278.823 65.4664 277.468L66.0899 277.21C66.6704 278.565 67.2724 279.919 67.8959 281.274L67.2724 281.532ZM494.735 274.071C494.692 272.609 494.628 271.104 494.499 269.642L495.165 269.599C495.273 271.061 495.359 272.566 495.402 274.05L494.735 274.071ZM63.7894 273.319C63.2519 271.921 62.7359 270.524 62.2629 269.126L62.8864 268.911C63.3594 270.287 63.8754 271.706 64.4129 273.082L63.7894 273.319ZM494.047 265.256C493.854 263.794 493.617 262.332 493.359 260.892L494.004 260.763C494.284 262.225 494.52 263.687 494.714 265.17L494.047 265.256ZM60.8869 264.891C60.4569 263.472 60.0269 262.031 59.6614 260.612L60.3064 260.44C60.6934 261.859 61.1019 263.3 61.5319 264.697L60.8869 264.891ZM492.435 256.549C492.091 255.108 491.704 253.689 491.274 252.27L491.919 252.077C492.349 253.496 492.736 254.936 493.101 256.377L492.435 256.549ZM58.5649 256.291C58.2209 254.85 57.9199 253.388 57.6189 251.926L58.2639 251.797C58.5434 253.238 58.8659 254.7 59.1884 256.14L58.5649 256.291ZM489.855 248.099C489.36 246.723 488.801 245.347 488.221 243.993L488.823 243.735C489.425 245.089 489.984 246.487 490.478 247.884L489.855 248.099ZM56.8449 247.54C56.6084 246.078 56.3934 244.595 56.2214 243.133L56.8879 243.047C57.0599 244.487 57.2749 245.971 57.5114 247.433L56.8449 247.54ZM486.329 239.972C485.662 238.661 484.953 237.349 484.222 236.081L484.802 235.737C485.555 237.005 486.264 238.338 486.931 239.65L486.329 239.972ZM55.7484 238.704C55.6194 237.22 55.5119 235.737 55.4259 234.253L56.0924 234.21C56.1784 235.672 56.2859 237.156 56.4149 238.639L55.7484 238.704ZM481.857 232.34C481.04 231.136 480.18 229.91 479.277 228.749L479.814 228.341C480.717 229.523 481.599 230.749 482.416 231.974L481.857 232.34ZM55.2754 229.803C55.2539 229.072 55.2539 228.341 55.2539 227.588C55.2539 226.836 55.2539 226.083 55.2754 225.331L55.9419 225.352C55.9204 226.105 55.9204 226.857 55.9204 227.588C55.9204 228.319 55.9204 229.05 55.9419 229.781L55.2754 229.803ZM476.503 225.309C475.557 224.191 474.547 223.095 473.515 222.063L473.988 221.59C475.02 222.643 476.052 223.761 476.998 224.879L476.503 225.309ZM56.0924 220.902L55.4259 220.859C55.5119 219.375 55.6194 217.892 55.7484 216.408L56.4149 216.473C56.2859 217.956 56.1784 219.44 56.0924 220.902ZM470.333 218.988C469.236 217.999 468.118 217.032 466.957 216.129L467.366 215.613C468.527 216.537 469.666 217.505 470.763 218.515L470.333 218.988ZM463.431 213.463C462.227 212.624 461.002 211.786 459.755 211.012L460.099 210.453C461.367 211.248 462.614 212.065 463.818 212.925L463.431 213.463ZM56.9094 212.065L56.2429 211.979C56.4364 210.496 56.6514 209.012 56.8879 207.572L57.5544 207.679C57.3179 209.12 57.0814 210.603 56.9094 212.065ZM455.928 208.776C454.638 208.066 453.326 207.4 451.993 206.755L452.273 206.153C453.606 206.798 454.96 207.486 456.25 208.195L455.928 208.776ZM447.951 204.949C446.618 204.39 445.221 203.852 443.823 203.358L444.038 202.734C445.457 203.229 446.855 203.766 448.209 204.325L447.951 204.949ZM58.3499 203.315L57.7049 203.186C58.0059 201.745 58.3284 200.262 58.6724 198.843L59.3174 198.993C58.9734 200.412 58.6509 201.874 58.3499 203.315ZM439.631 201.982C438.255 201.573 436.814 201.165 435.374 200.799L435.546 200.154C437.008 200.52 438.448 200.928 439.846 201.337L439.631 201.982ZM431.052 199.81C429.655 199.509 428.193 199.23 426.709 198.972L426.817 198.305C428.322 198.563 429.784 198.843 431.181 199.144L431.052 199.81ZM422.302 198.262C420.84 198.047 419.378 197.854 417.894 197.682L417.98 197.015C419.464 197.187 420.926 197.381 422.388 197.596L422.302 198.262ZM413.487 197.187C412.025 197.037 410.541 196.908 409.058 196.779L409.122 196.112C410.606 196.241 412.089 196.37 413.551 196.521L413.487 197.187ZM404.629 196.413C403.145 196.306 401.683 196.198 400.2 196.091L400.243 195.424C401.726 195.532 403.21 195.639 404.672 195.747L404.629 196.413ZM395.771 195.768C394.287 195.661 392.804 195.553 391.342 195.446L391.385 194.779C392.868 194.887 394.33 194.994 395.814 195.102L395.771 195.768ZM386.913 195.08C385.429 194.951 383.967 194.822 382.484 194.672L382.548 194.005C384.01 194.156 385.494 194.285 386.956 194.414L386.913 195.08ZM60.4569 194.715L59.8119 194.521C60.2204 193.102 60.6504 191.662 61.1234 190.264L61.7469 190.479C61.2954 191.855 60.8654 193.274 60.4569 194.715ZM378.055 194.177C376.571 194.005 375.109 193.812 373.647 193.597L373.733 192.93C375.195 193.145 376.657 193.339 378.119 193.511L378.055 194.177ZM369.261 192.909C367.799 192.651 366.316 192.371 364.897 192.07L365.026 191.425C366.445 191.726 367.907 192.006 369.369 192.264L369.261 192.909ZM360.532 191.06C359.07 190.694 357.63 190.286 356.232 189.877L356.426 189.232C357.802 189.641 359.242 190.049 360.704 190.393L360.532 191.06ZM351.997 188.501C350.578 188.007 349.18 187.469 347.826 186.91L348.084 186.287C349.438 186.846 350.814 187.383 352.212 187.878L351.997 188.501ZM63.2089 186.287L62.5854 186.05C63.1014 184.674 63.6389 183.277 64.2194 181.901L64.8429 182.159C64.2624 183.513 63.7249 184.911 63.2089 186.287ZM343.762 185.083C342.429 184.438 341.096 183.75 339.806 183.019L340.129 182.438C341.397 183.148 342.73 183.836 344.042 184.481L343.762 185.083ZM335.979 180.718C334.775 179.944 333.528 179.084 332.303 178.203L332.69 177.665C333.915 178.547 335.141 179.385 336.345 180.159L335.979 180.718ZM66.6274 178.095L66.0254 177.816C66.6489 176.461 67.3154 175.128 67.9819 173.817L68.5839 174.118C67.8959 175.408 67.2294 176.762 66.6274 178.095ZM328.734 175.515C327.616 174.634 326.455 173.666 325.294 172.677L325.724 172.161C326.885 173.15 328.024 174.096 329.142 174.978L328.734 175.515ZM70.6479 170.205L70.0674 169.882C70.7984 168.592 71.5509 167.302 72.3249 166.055L72.8839 166.399C72.1314 167.646 71.3789 168.936 70.6479 170.205ZM321.961 169.732C320.865 168.743 319.768 167.732 318.693 166.722L319.145 166.227C320.22 167.238 321.316 168.248 322.413 169.237L321.961 169.732ZM315.447 163.669L312.222 160.594L312.673 160.1L315.898 163.174L315.447 163.669ZM75.2919 162.68L74.7329 162.314C75.5499 161.089 76.4314 159.863 77.2914 158.681L77.8289 159.068C76.9689 160.25 76.1304 161.454 75.2919 162.68ZM308.997 157.563C307.922 156.552 306.825 155.563 305.729 154.574L306.18 154.08C307.277 155.069 308.373 156.079 309.47 157.09L308.997 157.563ZM80.5379 155.563L80.0219 155.155C80.9464 153.994 81.9139 152.854 82.8814 151.736L83.3759 152.166C82.4084 153.263 81.4624 154.402 80.5379 155.563ZM302.375 151.65C301.214 150.661 300.053 149.715 298.935 148.855L299.343 148.339C300.461 149.221 301.622 150.167 302.805 151.156L302.375 151.65ZM86.3429 148.877L85.8484 148.425C86.8804 147.35 87.9124 146.275 88.9659 145.243L89.4389 145.716C88.4069 146.748 87.3534 147.802 86.3429 148.877ZM295.387 146.189C294.205 145.329 292.979 144.491 291.754 143.652L292.141 143.093C293.388 143.932 294.613 144.792 295.796 145.652L295.387 146.189ZM92.6854 142.706L92.2339 142.212C93.3304 141.223 94.4699 140.255 95.6094 139.309L96.0394 139.825C94.9214 140.75 93.7819 141.717 92.6854 142.706ZM288.056 141.201C286.83 140.406 285.562 139.61 284.293 138.858L284.637 138.277C285.906 139.051 287.174 139.847 288.421 140.642L288.056 141.201ZM99.5224 137.073L99.1139 136.536C100.296 135.633 101.5 134.751 102.726 133.913L103.113 134.45C101.887 135.289 100.683 136.17 99.5224 137.073ZM280.488 136.6C279.198 135.869 277.908 135.138 276.618 134.45L276.94 133.87C278.252 134.579 279.542 135.289 280.832 136.041L280.488 136.6ZM272.683 132.386C271.372 131.72 270.039 131.053 268.706 130.43L268.985 129.828C270.318 130.473 271.651 131.118 272.984 131.806L272.683 132.386ZM106.789 131.999L106.424 131.44C107.671 130.645 108.961 129.849 110.229 129.118L110.573 129.699C109.283 130.43 108.015 131.204 106.789 131.999ZM264.685 128.538C263.331 127.936 261.976 127.334 260.622 126.753L260.88 126.13C262.256 126.71 263.61 127.312 264.965 127.914L264.685 128.538ZM114.422 127.527L114.099 126.947C115.389 126.259 116.744 125.571 118.077 124.926L118.378 125.528C117.045 126.151 115.712 126.839 114.422 127.527ZM256.494 125.076C255.118 124.539 253.742 124.001 252.344 123.485L252.581 122.862C253.978 123.378 255.354 123.915 256.73 124.453L256.494 125.076ZM122.398 123.657L122.14 123.055C123.495 122.453 124.871 121.873 126.247 121.335L126.483 121.959C125.107 122.475 123.731 123.055 122.398 123.657ZM248.173 122.002C247.356 121.722 246.518 121.443 245.701 121.163C245.12 120.97 244.54 120.776 243.981 120.604L244.174 119.959C244.755 120.153 245.335 120.325 245.916 120.518C246.754 120.798 247.571 121.077 248.41 121.357L248.173 122.002ZM130.633 120.389L130.418 119.766C131.815 119.271 133.234 118.777 134.632 118.325L134.847 118.949C133.428 119.4 132.009 119.895 130.633 120.389ZM239.724 119.293C238.305 118.884 236.886 118.476 235.445 118.089L235.617 117.444C237.058 117.831 238.477 118.239 239.896 118.669L239.724 119.293ZM139.061 117.637L138.867 116.992C140.286 116.584 141.727 116.175 143.167 115.81L143.339 116.455C141.92 116.82 140.48 117.229 139.061 117.637ZM231.167 116.971C229.726 116.605 228.286 116.283 226.845 115.96L226.996 115.315C228.436 115.638 229.898 115.982 231.339 116.347L231.167 116.971ZM147.639 115.401L147.489 114.756C148.929 114.434 150.391 114.111 151.853 113.81L151.982 114.455C150.542 114.756 149.08 115.057 147.639 115.401ZM222.502 115.036C221.062 114.735 219.6 114.477 218.138 114.219L218.245 113.552C219.707 113.81 221.169 114.09 222.61 114.391L222.502 115.036ZM156.347 113.638L156.239 112.972C157.701 112.714 159.163 112.499 160.647 112.284L160.733 112.95C159.271 113.165 157.787 113.402 156.347 113.638ZM213.773 113.466C212.311 113.23 210.849 113.036 209.387 112.843L209.473 112.176C210.935 112.37 212.419 112.585 213.881 112.8L213.773 113.466ZM165.119 112.391L165.033 111.725C166.495 111.553 168 111.402 169.462 111.273L169.526 111.94C168.064 112.069 166.581 112.219 165.119 112.391ZM204.98 112.305C203.518 112.155 202.034 112.004 200.572 111.875L200.637 111.209C202.12 111.338 203.604 111.467 205.066 111.639L204.98 112.305ZM173.955 111.596L173.912 110.929C175.396 110.843 176.879 110.757 178.363 110.693L178.384 111.359C176.922 111.424 175.417 111.488 173.955 111.596ZM196.122 111.574C194.638 111.488 193.176 111.424 191.693 111.359L191.714 110.693C193.198 110.757 194.681 110.822 196.165 110.908L196.122 111.574ZM182.835 111.252V110.585C184.318 110.564 185.802 110.564 187.285 110.585V111.252C185.78 111.23 184.297 111.23 182.835 111.252Z" fill="#D1E9FF"/>
<path d="M362.94 47.0099C356.06 47.0099 350.449 41.4199 350.449 34.5184C350.449 27.6384 356.039 22.0269 362.94 22.0269C369.842 22.0269 375.432 27.6169 375.432 34.5184C375.41 41.4199 369.82 47.0099 362.94 47.0099ZM362.94 22.7149C356.426 22.7149 351.115 28.0254 351.115 34.5399C351.115 41.0544 356.426 46.3649 362.94 46.3649C369.455 46.3649 374.765 41.0544 374.765 34.5399C374.744 28.0254 369.455 22.7149 362.94 22.7149Z" fill="#D1E9FF"/>
<path d="M72.2388 71.9069C65.3588 71.9069 59.7473 66.3169 59.7473 59.4153C59.7473 52.5353 65.3373 46.9238 72.2388 46.9238C79.1188 46.9238 84.7303 52.5138 84.7303 59.4153C84.7303 66.2954 79.1188 71.9069 72.2388 71.9069ZM72.2388 47.6118C65.7243 47.6118 60.4138 52.9223 60.4138 59.4368C60.4138 65.9513 65.7243 71.2619 72.2388 71.2619C78.7533 71.2619 84.0638 65.9513 84.0638 59.4368C84.0638 52.9008 78.7533 47.6118 72.2388 47.6118Z" fill="#D1E9FF"/>
<path d="M506.066 171.473C504.991 171.473 503.916 171.344 502.884 171.065L503.056 170.42C504.432 170.785 505.915 170.893 507.334 170.742L507.399 171.409C506.969 171.452 506.517 171.473 506.066 171.473ZM511.763 170.097L511.462 169.495C512.752 168.829 513.892 167.947 514.859 166.872L515.354 167.324C514.322 168.463 513.118 169.409 511.763 170.097ZM498.777 169.13C497.53 168.227 496.477 167.13 495.638 165.862L496.197 165.496C496.993 166.7 498.003 167.754 499.164 168.592L498.777 169.13ZM517.719 163.454L517.095 163.217C517.611 161.863 517.869 160.444 517.869 158.982H518.536C518.536 160.53 518.256 162.035 517.719 163.454ZM493.875 161.669C493.682 160.788 493.596 159.906 493.596 159.003C493.596 158.38 493.639 157.756 493.725 157.133L494.391 157.24C494.305 157.821 494.262 158.423 494.262 159.003C494.262 159.863 494.348 160.702 494.542 161.54L493.875 161.669ZM517.848 158.208C517.762 156.767 517.396 155.348 516.794 154.037L517.396 153.757C518.041 155.155 518.407 156.617 518.514 158.165L517.848 158.208ZM495.789 153.155L495.208 152.833C495.961 151.5 496.95 150.339 498.132 149.35L498.562 149.866C497.423 150.79 496.498 151.908 495.789 153.155ZM514.322 150.532C513.29 149.522 512.086 148.705 510.753 148.146L511.011 147.544C512.408 148.146 513.677 149.006 514.773 150.081L514.322 150.532ZM502.303 147.78L502.088 147.157C503.529 146.684 505.055 146.447 506.582 146.512L506.56 147.178C505.12 147.114 503.658 147.329 502.303 147.78Z" fill="#D1E9FF"/>
<path d="M153.337 46.9669L151.531 45.1609L153.337 43.3549L153.81 43.8279L152.477 45.1609L153.81 46.4939L153.337 46.9669Z" fill="#D1E9FF"/>
<path d="M170.774 64.4034L167.871 61.5009L168.344 61.0279L171.247 63.9304L170.774 64.4034ZM164.947 58.5769L162.045 55.6744L162.518 55.2014L165.42 58.1039L164.947 58.5769ZM159.142 52.7719L156.24 49.8694L156.713 49.3964L159.615 52.2989L159.142 52.7719Z" fill="#D1E9FF"/>
<path d="M175.482 69.1119L173.676 67.3059L174.149 66.8329L175.482 68.1659L176.815 66.8329L177.288 67.3059L175.482 69.1119Z" fill="#D1E9FF"/>
<path d="M180.191 64.4034L179.718 63.9304L182.62 61.0279L183.093 61.5009L180.191 64.4034ZM186.017 58.5769L185.544 58.1039L188.447 55.2014L188.92 55.6744L186.017 58.5769ZM191.822 52.7719L191.349 52.2989L194.252 49.3964L194.725 49.8694L191.822 52.7719Z" fill="#D1E9FF"/>
<path d="M197.627 46.9669L197.154 46.4939L198.487 45.1609L197.154 43.8279L197.627 43.3549L199.433 45.1609L197.627 46.9669Z" fill="#D1E9FF"/>
<path d="M194.252 40.9038L191.349 38.0013L191.822 37.5283L194.725 40.4308L194.252 40.9038ZM188.447 35.0988L185.544 32.1963L186.017 31.7233L188.92 34.6258L188.447 35.0988ZM182.62 29.2938L179.718 26.3913L180.191 25.9183L183.093 28.8208L182.62 29.2938Z" fill="#D1E9FF"/>
<path d="M174.149 23.4674L173.676 23.0159L175.482 21.1884L177.288 23.0159L176.815 23.4674L175.482 22.1344L174.149 23.4674Z" fill="#D1E9FF"/>
<path d="M156.713 40.9038L156.24 40.4308L159.142 37.5283L159.615 38.0013L156.713 40.9038ZM162.518 35.0988L162.045 34.6258L164.947 31.7233L165.42 32.1963L162.518 35.0988ZM168.344 29.2938L167.871 28.8208L170.774 25.9183L171.247 26.3913L168.344 29.2938Z" fill="#D1E9FF"/>
<path d="M464.7 82.5924L448.596 66.4889L464.7 50.3854L480.803 66.4889L464.7 82.5924ZM449.542 66.4889L464.7 81.6464L479.857 66.4889L464.7 51.3314L449.542 66.4889Z" fill="#D1E9FF"/>
<path opacity="0.4" d="M530.146 317.681C543.386 304.44 543.386 282.972 530.146 269.731C516.905 256.491 495.437 256.491 482.196 269.731C468.956 282.972 468.956 304.44 482.196 317.681C495.437 330.921 516.905 330.921 530.146 317.681Z" fill="#E5E5FF"/>
<path opacity="0.4" d="M143.769 68.6174C162.495 68.6174 177.675 53.4374 177.675 34.7119C177.675 15.9864 162.495 0.806396 143.769 0.806396C125.044 0.806396 109.864 15.9864 109.864 34.7119C109.864 53.4374 125.044 68.6174 143.769 68.6174Z" fill="#E5E5FF"/>
<path opacity="0.5" d="M364.725 80.8938C366.684 80.8938 368.272 79.3056 368.272 77.3463C368.272 75.3871 366.684 73.7988 364.725 73.7988C362.766 73.7988 361.177 75.3871 361.177 77.3463C361.177 79.3056 362.766 80.8938 364.725 80.8938Z" fill="#D1E9FF"/>
<path opacity="0.5" d="M509.033 230.985C510.992 230.985 512.58 229.397 512.58 227.438C512.58 225.479 510.992 223.89 509.033 223.89C507.074 223.89 505.485 225.479 505.485 227.438C505.485 229.397 507.074 230.985 509.033 230.985Z" fill="#D1E9FF"/>
<path opacity="0.5" d="M223.586 38.6857C225.383 37.9061 226.208 35.817 225.429 34.0196C224.649 32.2222 222.56 31.3971 220.763 32.1767C218.965 32.9563 218.14 35.0453 218.92 36.8427C219.699 38.6401 221.788 39.4653 223.586 38.6857Z" fill="#D1E9FF"/>
<path opacity="0.5" d="M76.9904 111.273C78.9496 111.273 80.5379 109.685 80.5379 107.726C80.5379 105.767 78.9496 104.178 76.9904 104.178C75.0311 104.178 73.4429 105.767 73.4429 107.726C73.4429 109.685 75.0311 111.273 76.9904 111.273Z" fill="#D1E9FF"/>
<path d="M306.783 265.256H239.229V337.711H306.783V265.256Z" fill="#D1E9FF"/>
<path opacity="0.15" d="M306.783 265.256H239.229V306.171H306.783V265.256Z" fill="#1B1B43"/>
<path d="M337.463 348.827H208.57C208.57 339.41 216.203 331.799 225.598 331.799H320.435C329.83 331.777 337.463 339.41 337.463 348.827Z" fill="#D1E9FF"/>
<path d="M273.006 313.115C281.437 313.115 288.271 306.281 288.271 297.85C288.271 289.42 281.437 282.585 273.006 282.585C264.575 282.585 257.741 289.42 257.741 297.85C257.741 306.281 264.575 313.115 273.006 313.115Z" fill="white"/>
<path d="M426.365 96.9545H119.668V297.27H426.365V96.9545Z" fill="#D1E9FF"/>
<path d="M256.473 331.777H231.812V332.229H256.473V331.777Z" fill="#1B1B43"/>
<path d="M313.147 331.777H288.486V332.229H313.147V331.777Z" fill="#1B1B43"/>
<path d="M415.873 111.424H130.16V280.65H415.873V111.424Z" fill="white"/>
<g opacity="0.2">
<path opacity="0.2" d="M440.577 289.981C441.996 278.586 428.559 267.342 412.799 266.74C412.756 259.172 400.114 253.259 390.59 256.377C391.041 247.583 379.109 239.564 367.047 240.596C371.992 200.047 293.925 197.445 269.458 195.768C260.665 195.166 252.022 193.468 243.164 193.618C228.78 193.876 215.343 199.488 204.485 208.862C198.917 213.678 195.886 220.558 199.154 226.384C186.684 223.009 171.848 224.664 161.356 230.62C150.864 236.575 145.081 246.616 146.629 256.226C140.351 253.173 131.106 253.904 125.881 257.86C120.657 261.816 120.098 268.567 124.613 272.953C119.26 271.62 112.831 272.932 109.241 276.114C105.65 279.296 105.113 284.112 107.951 287.659L115.218 335.002L451.241 326.703L440.577 289.981Z" fill="#D1E9FF"/>
</g>
<g opacity="0.5">
<path opacity="0.5" d="M403.468 321.35C403.683 309.095 398.738 296.84 390.052 288.175C381.366 279.511 369.09 274.587 356.856 274.845C352.879 262.612 338.581 254.786 326.154 258.054C323.574 247.519 314.093 239.757 303.837 236.274C293.56 232.77 282.488 232.813 271.63 232.877C259.676 232.942 247.486 233.049 236.155 236.833C224.825 240.617 214.268 248.766 210.721 260.161C203.54 257.237 194.703 258.871 189.07 264.181C183.416 269.492 181.244 278.199 183.717 285.552C173.526 282.005 161.507 284.284 153.316 291.314C145.124 298.366 141.082 309.912 143.06 320.512L403.468 321.35Z" fill="#D1E9FF"/>
</g>
<path opacity="0.7" d="M245.787 195.876L226.48 305.827H322.477L300.031 195.876L271.372 184.911L245.787 195.876Z" fill="#FFF2E0"/>
<path d="M257.354 191.103L249.743 238.252L258.171 227.674L260.278 258.742L269.759 228.384L280.294 268.632L281.348 222.02L297.15 243.907L286.615 182.481L257.354 191.103Z" fill="#1FC7A2"/>
<path opacity="0.4" d="M261.611 190.178L256.365 220.278L262.191 213.527L263.632 233.35L270.189 213.979L277.478 239.65L278.187 209.915L289.109 223.89L281.842 184.674L261.611 190.178Z" fill="white"/>
<path opacity="0.5" d="M181.438 210.926C178.643 210.345 175.977 208.926 174.235 207.873C173.569 207.464 172.881 206.927 172.902 205.981C172.924 205.228 173.418 204.454 173.934 203.788C177.245 199.445 182.556 196.306 186.899 196.585C191.5 196.865 194.402 201.509 190.962 207.099C188.49 211.098 184.856 211.635 181.438 210.926Z" fill="#D1E9FF"/>
<path opacity="0.5" d="M352.169 218.107C355.093 219.612 358.555 220.279 361.393 220.064C362.661 219.978 364.059 219.655 364.79 218.602C365.284 217.892 365.392 216.968 365.37 216.086C365.263 211.442 362.188 207.013 358.254 204.691C355.029 202.799 350.385 202.735 347.848 205.788C346.3 207.637 345.87 210.367 346.773 212.603C347.697 215.011 349.74 216.839 352.169 218.107Z" fill="#D1E9FF"/>
<path opacity="0.5" d="M215.026 230.976C217.143 230.099 218.149 227.672 217.272 225.555C216.395 223.437 213.967 222.432 211.85 223.309C209.733 224.186 208.727 226.613 209.604 228.731C210.481 230.848 212.909 231.853 215.026 230.976Z" fill="#D1E9FF"/>
<path opacity="0.5" d="M333.593 248.185C335.885 248.185 337.743 246.328 337.743 244.036C337.743 241.744 335.885 239.886 333.593 239.886C331.301 239.886 329.444 241.744 329.444 244.036C329.444 246.328 331.301 248.185 333.593 248.185Z" fill="#D1E9FF"/>
<path opacity="0.5" d="M368.853 260.333C370.325 260.333 371.519 259.139 371.519 257.667C371.519 256.195 370.325 255.001 368.853 255.001C367.381 255.001 366.187 256.195 366.187 257.667C366.187 259.139 367.381 260.333 368.853 260.333Z" fill="#D1E9FF"/>
<path opacity="0.5" d="M185.738 249.368C187.21 249.368 188.404 248.174 188.404 246.702C188.404 245.23 187.21 244.036 185.738 244.036C184.265 244.036 183.072 245.23 183.072 246.702C183.072 248.174 184.265 249.368 185.738 249.368Z" fill="#D1E9FF"/>
<path d="M339.269 142.814C337.871 146.275 334.861 148.791 331.228 149.565L296.462 156.939L296.097 135.74L339.269 142.814Z" fill="#D1E9FF"/>
<path d="M339.269 142.814H301.321V88.6984C316.909 132.881 339.269 123.55 339.269 142.814Z" fill="#4A7DC9"/>
<path d="M206.743 142.814C208.14 146.275 211.15 148.791 214.784 149.565L249.549 156.939L249.915 135.74L206.743 142.814Z" fill="#D1E9FF"/>
<path d="M206.743 142.814H244.69V88.6984C229.103 132.881 206.743 123.55 206.743 142.814Z" fill="#4A7DC9"/>
<path d="M298.569 167.711C311.577 130.473 308.266 89.2788 288.744 55.0078C288.378 54.3843 288.013 53.7608 287.647 53.1373H272.92H272.898H258.171C257.805 53.7608 257.44 54.3843 257.074 55.0078C237.552 89.2788 234.241 130.473 247.249 167.711L251.033 178.547L245.765 195.876H257.074H272.877H272.898H288.701H300.01L294.742 178.547L298.569 167.711Z" fill="#91C4FF"/>
<path d="M258.192 53.1374H272.898H287.647L272.92 29.0789L258.192 53.1374Z" fill="#1B1B43"/>
<path d="M251.054 178.568L294.764 178.547L300.031 195.876H245.787L251.054 178.568Z" fill="#4A7DC9"/>
<path d="M272.92 207.228C271.092 207.228 269.609 205.744 269.609 203.917V147.2C269.609 145.372 271.092 143.889 272.92 143.889C274.747 143.889 276.231 145.372 276.231 147.2V203.917C276.231 205.744 274.747 207.228 272.92 207.228Z" fill="#1B1B43"/>
<path d="M283.686 98.1678C289.631 92.2233 289.631 82.5853 283.686 76.6408C277.742 70.6963 268.104 70.6963 262.159 76.6408C256.215 82.5853 256.215 92.2233 262.159 98.1678C268.104 104.112 277.742 104.112 283.686 98.1678Z" fill="white"/>
<path d="M280.539 95.0208C284.746 90.8143 284.746 83.9943 280.539 79.7878C276.333 75.5813 269.513 75.5813 265.306 79.7878C261.1 83.9943 261.1 90.8143 265.306 95.0208C269.513 99.2273 276.333 99.2273 280.539 95.0208Z" fill="#4A7DC9"/>
<path d="M271.179 84.3208C271.43 83.2576 270.771 82.1923 269.708 81.9413C268.645 81.6902 267.58 82.3485 267.329 83.4117C267.078 84.4748 267.736 85.5402 268.799 85.7912C269.862 86.0422 270.928 85.3839 271.179 84.3208Z" fill="white"/>
<path d="M272.92 128.129C272.834 128.129 272.748 128.129 272.662 128.129L272.684 127.248H272.92C273.393 127.248 273.888 127.205 274.361 127.119L274.533 128C273.995 128.065 273.458 128.129 272.92 128.129ZM270.792 127.85C270.19 127.678 269.609 127.463 269.05 127.162L269.48 126.388C269.975 126.646 270.491 126.861 271.028 127.011L270.792 127.85ZM276.296 127.398L275.93 126.581C276.446 126.345 276.919 126.065 277.371 125.721L277.908 126.431C277.414 126.818 276.876 127.14 276.296 127.398ZM267.502 126.087C267.029 125.678 266.599 125.205 266.234 124.689L266.965 124.173C267.287 124.625 267.674 125.033 268.083 125.42L267.502 126.087ZM279.263 125.119L278.575 124.56C278.94 124.13 279.241 123.657 279.478 123.163L280.273 123.55C279.994 124.109 279.65 124.646 279.263 125.119ZM265.331 123.055C265.094 122.475 264.922 121.873 264.815 121.249L265.696 121.099C265.782 121.658 265.933 122.195 266.148 122.711L265.331 123.055ZM280.918 121.787L280.058 121.593C280.187 121.056 280.252 120.497 280.252 119.938H281.133C281.112 120.54 281.047 121.163 280.918 121.787ZM265.61 119.443L264.729 119.379C264.772 118.755 264.879 118.132 265.051 117.53L265.911 117.788C265.761 118.325 265.653 118.884 265.61 119.443ZM280.187 119.185C280.123 118.626 280.015 118.089 279.843 117.551L280.682 117.272C280.875 117.874 281.026 118.476 281.069 119.099L280.187 119.185ZM266.578 116.261L265.804 115.81C266.126 115.272 266.492 114.756 266.922 114.305L267.567 114.907C267.201 115.337 266.857 115.788 266.578 116.261ZM279.134 116.046C278.833 115.573 278.489 115.143 278.102 114.735L278.725 114.111C279.177 114.563 279.564 115.057 279.886 115.573L279.134 116.046ZM268.857 113.832L268.362 113.101C268.878 112.757 269.437 112.456 270.039 112.241L270.362 113.079C269.803 113.273 269.308 113.531 268.857 113.832ZM276.769 113.703C276.296 113.402 275.78 113.165 275.264 112.993L275.543 112.155C276.145 112.348 276.704 112.628 277.242 112.95L276.769 113.703ZM271.953 112.671L271.845 111.789C272.469 111.703 273.114 111.703 273.716 111.768L273.63 112.649C273.071 112.585 272.512 112.585 271.953 112.671Z" fill="#1B1B43"/>
<path d="M449.308 307.094H514.367V296.666H449.308V307.094Z" fill="#D1E9FF"/>
<g opacity="0.4">
<path opacity="0.4" d="M510.108 305.44C510.495 305.44 510.796 305.117 510.796 304.752V298.99C510.796 298.603 510.473 298.302 510.108 298.302C509.721 298.302 509.42 298.624 509.42 298.99V304.73C509.42 305.117 509.721 305.44 510.108 305.44Z" fill="#4A7DC9"/>
<path opacity="0.4" d="M498.541 305.44C498.928 305.44 499.229 305.117 499.229 304.752V298.99C499.229 298.603 498.907 298.302 498.541 298.302C498.154 298.302 497.853 298.624 497.853 298.99V304.73C497.853 305.117 498.176 305.44 498.541 305.44Z" fill="#4A7DC9"/>
<path opacity="0.4" d="M486.996 305.44C487.383 305.44 487.684 305.117 487.684 304.752V298.99C487.684 298.603 487.361 298.302 486.996 298.302C486.609 298.302 486.308 298.624 486.308 298.99V304.73C486.286 305.117 486.609 305.44 486.996 305.44Z" fill="#4A7DC9"/>
<path opacity="0.4" d="M475.429 305.44C475.816 305.44 476.117 305.117 476.117 304.752V298.99C476.117 298.603 475.794 298.302 475.429 298.302C475.041 298.302 474.74 298.624 474.74 298.99V304.73C474.74 305.117 475.063 305.44 475.429 305.44Z" fill="#4A7DC9"/>
<path opacity="0.4" d="M463.883 305.44C464.27 305.44 464.571 305.117 464.571 304.752V298.99C464.571 298.603 464.249 298.302 463.883 298.302C463.496 298.302 463.195 298.624 463.195 298.99V304.73C463.174 305.117 463.496 305.44 463.883 305.44Z" fill="#4A7DC9"/>
<path opacity="0.4" d="M453.542 305.44C453.929 305.44 454.229 305.117 454.229 304.752V298.99C454.229 298.603 453.907 298.302 453.542 298.302C453.155 298.302 452.854 298.624 452.854 298.99V304.73C452.854 305.117 453.155 305.44 453.542 305.44Z" fill="#4A7DC9"/>
</g>
<path d="M449.308 317.513H514.367V307.086H449.308V317.513Z" fill="#D1E9FF"/>
<g opacity="0.4">
<path opacity="0.4" d="M510.108 315.867C510.495 315.867 510.796 315.545 510.796 315.179V309.439C510.796 309.052 510.473 308.751 510.108 308.751C509.721 308.751 509.42 309.073 509.42 309.439V315.179C509.42 315.566 509.721 315.867 510.108 315.867Z" fill="#4A7DC9"/>
<path opacity="0.4" d="M498.541 315.867C498.928 315.867 499.229 315.545 499.229 315.179V309.439C499.229 309.052 498.907 308.751 498.541 308.751C498.154 308.751 497.853 309.073 497.853 309.439V315.179C497.853 315.566 498.176 315.867 498.541 315.867Z" fill="#4A7DC9"/>
<path opacity="0.4" d="M486.996 315.867C487.383 315.867 487.684 315.545 487.684 315.179V309.439C487.684 309.052 487.361 308.751 486.996 308.751C486.609 308.751 486.308 309.073 486.308 309.439V315.179C486.286 315.566 486.609 315.867 486.996 315.867Z" fill="#4A7DC9"/>
<path opacity="0.4" d="M475.429 315.867C475.816 315.867 476.117 315.545 476.117 315.179V309.439C476.117 309.052 475.794 308.751 475.429 308.751C475.041 308.751 474.74 309.073 474.74 309.439V315.179C474.74 315.566 475.063 315.867 475.429 315.867Z" fill="#4A7DC9"/>
<path opacity="0.4" d="M463.883 315.867C464.27 315.867 464.571 315.545 464.571 315.179V309.439C464.571 309.052 464.249 308.751 463.883 308.751C463.496 308.751 463.195 309.073 463.195 309.439V315.179C463.174 315.566 463.496 315.867 463.883 315.867Z" fill="#4A7DC9"/>
<path opacity="0.4" d="M453.542 315.867C453.929 315.867 454.229 315.545 454.229 315.179V309.439C454.229 309.052 453.907 308.751 453.542 308.751C453.155 308.751 452.854 309.073 452.854 309.439V315.179C452.854 315.566 453.155 315.867 453.542 315.867Z" fill="#4A7DC9"/>
</g>
<path opacity="0.15" d="M449.308 310.81H514.367V307.091H449.308V310.81Z" fill="#1B1B43"/>
<path d="M443.681 327.954H508.74V317.527H443.681V327.954Z" fill="#D1E9FF"/>
<g opacity="0.4">
<path opacity="0.4" d="M504.475 326.295C504.862 326.295 505.163 325.972 505.163 325.607V319.866C505.163 319.479 504.84 319.178 504.475 319.178C504.088 319.178 503.787 319.501 503.787 319.866V325.607C503.787 325.994 504.088 326.295 504.475 326.295Z" fill="#4A7DC9"/>
<path opacity="0.4" d="M492.93 326.295C493.317 326.295 493.618 325.972 493.618 325.607V319.866C493.618 319.479 493.295 319.178 492.93 319.178C492.543 319.178 492.241 319.501 492.241 319.866V325.607C492.22 325.994 492.543 326.295 492.93 326.295Z" fill="#4A7DC9"/>
<path opacity="0.4" d="M481.362 326.295C481.749 326.295 482.05 325.972 482.05 325.607V319.866C482.05 319.479 481.728 319.178 481.362 319.178C480.975 319.178 480.674 319.501 480.674 319.866V325.607C480.674 325.994 480.975 326.295 481.362 326.295Z" fill="#4A7DC9"/>
<path opacity="0.4" d="M469.795 326.295C470.182 326.295 470.483 325.972 470.483 325.607V319.866C470.483 319.479 470.161 319.178 469.795 319.178C469.408 319.178 469.107 319.501 469.107 319.866V325.607C469.107 325.994 469.43 326.295 469.795 326.295Z" fill="#4A7DC9"/>
<path opacity="0.4" d="M458.25 326.295C458.637 326.295 458.938 325.972 458.938 325.607V319.866C458.938 319.479 458.615 319.178 458.25 319.178C457.863 319.178 457.562 319.501 457.562 319.866V325.607C457.562 325.994 457.863 326.295 458.25 326.295Z" fill="#4A7DC9"/>
<path opacity="0.4" d="M447.908 326.295C448.295 326.295 448.596 325.972 448.596 325.607V319.866C448.596 319.479 448.274 319.178 447.908 319.178C447.521 319.178 447.22 319.501 447.22 319.866V325.607C447.22 325.994 447.521 326.295 447.908 326.295Z" fill="#4A7DC9"/>
</g>
<path d="M443.681 338.396H508.74V327.968H443.681V338.396Z" fill="#D1E9FF"/>
<g opacity="0.4">
<path opacity="0.4" d="M504.475 336.744C504.862 336.744 505.163 336.421 505.163 336.056V330.315C505.163 329.928 504.84 329.627 504.475 329.627C504.088 329.627 503.787 329.95 503.787 330.315V336.056C503.787 336.421 504.088 336.744 504.475 336.744Z" fill="#4A7DC9"/>
<path opacity="0.4" d="M492.93 336.744C493.317 336.744 493.618 336.421 493.618 336.056V330.315C493.618 329.928 493.295 329.627 492.93 329.627C492.543 329.627 492.241 329.95 492.241 330.315V336.056C492.22 336.421 492.543 336.744 492.93 336.744Z" fill="#4A7DC9"/>
<path opacity="0.4" d="M481.362 336.744C481.749 336.744 482.05 336.421 482.05 336.056V330.315C482.05 329.928 481.728 329.627 481.362 329.627C480.975 329.627 480.674 329.95 480.674 330.315V336.056C480.674 336.421 480.975 336.744 481.362 336.744Z" fill="#4A7DC9"/>
<path opacity="0.4" d="M469.795 336.744C470.182 336.744 470.483 336.421 470.483 336.056V330.315C470.483 329.928 470.161 329.627 469.795 329.627C469.408 329.627 469.107 329.95 469.107 330.315V336.056C469.107 336.421 469.43 336.744 469.795 336.744Z" fill="#4A7DC9"/>
<path opacity="0.4" d="M458.25 336.744C458.637 336.744 458.938 336.421 458.938 336.056V330.315C458.938 329.928 458.615 329.627 458.25 329.627C457.863 329.627 457.562 329.95 457.562 330.315V336.056C457.562 336.421 457.863 336.744 458.25 336.744Z" fill="#4A7DC9"/>
<path opacity="0.4" d="M447.908 336.744C448.295 336.744 448.596 336.421 448.596 336.056V330.315C448.596 329.928 448.274 329.627 447.908 329.627C447.521 329.627 447.22 329.95 447.22 330.315V336.056C447.22 336.421 447.521 336.744 447.908 336.744Z" fill="#4A7DC9"/>
</g>
<path opacity="0.15" d="M443.681 332.257H508.74V327.979H443.681V332.257Z" fill="#1B1B43"/>
<path d="M448.703 348.815H513.762V338.388H448.703V348.815Z" fill="#D1E9FF"/>
<g opacity="0.4">
<path opacity="0.4" d="M509.506 347.171C509.893 347.171 510.194 346.849 510.194 346.483V340.743C510.194 340.356 509.871 340.055 509.506 340.055C509.119 340.055 508.818 340.377 508.818 340.743V346.483C508.818 346.87 509.14 347.171 509.506 347.171Z" fill="#4A7DC9"/>
<path opacity="0.4" d="M497.961 347.171C498.348 347.171 498.649 346.849 498.649 346.483V340.743C498.649 340.356 498.326 340.055 497.961 340.055C497.574 340.055 497.273 340.377 497.273 340.743V346.483C497.251 346.87 497.574 347.171 497.961 347.171Z" fill="#4A7DC9"/>
<path opacity="0.4" d="M486.394 347.171C486.781 347.171 487.082 346.849 487.082 346.483V340.743C487.082 340.356 486.759 340.055 486.394 340.055C486.007 340.055 485.706 340.377 485.706 340.743V346.483C485.706 346.87 486.007 347.171 486.394 347.171Z" fill="#4A7DC9"/>
<path opacity="0.4" d="M474.848 347.171C475.235 347.171 475.536 346.849 475.536 346.483V340.743C475.536 340.356 475.213 340.055 474.848 340.055C474.461 340.055 474.16 340.377 474.16 340.743V346.483C474.138 346.87 474.461 347.171 474.848 347.171Z" fill="#4A7DC9"/>
<path opacity="0.4" d="M463.281 347.171C463.668 347.171 463.969 346.849 463.969 346.483V340.743C463.969 340.356 463.647 340.055 463.281 340.055C462.894 340.055 462.593 340.377 462.593 340.743V346.483C462.593 346.87 462.894 347.171 463.281 347.171Z" fill="#4A7DC9"/>
<path opacity="0.4" d="M452.961 347.171C453.348 347.171 453.649 346.849 453.649 346.483V340.743C453.649 340.356 453.326 340.055 452.961 340.055C452.574 340.055 452.273 340.377 452.273 340.743V346.483C452.251 346.87 452.574 347.171 452.961 347.171Z" fill="#4A7DC9"/>
</g>
<path d="M391.235 173.946C391.235 173.946 392.998 165.303 391.428 165.582C389.88 165.862 389.708 168.141 389.708 168.141C389.708 168.141 389.042 160.035 387.365 160.465C385.688 160.917 386.87 167.345 386.87 167.345C385.43 166.786 382.936 167.13 381.818 169.796C380.356 170.291 379.883 171.882 380.313 173.344L382.635 178.977L386.483 181.191L391.235 173.946Z" fill="#FFBC96"/>
<path d="M418.647 177.364C413.38 179.364 409.832 182.245 401.598 189.146L391.235 173.967L382.635 178.998L394.008 200.004C396.201 204.067 401.34 205.465 405.296 203.1L418.626 195.145V177.364H418.647Z" fill="#1FC7A2"/>
<path d="M383.753 174.247C383.301 174.247 382.57 173.881 381.474 173.107L381.732 172.742C383.559 174.01 383.839 173.774 383.839 173.774C384.011 173.602 383.495 172.376 382.742 171.258L383.108 171.022C383.602 171.774 384.699 173.559 384.14 174.096C384.054 174.182 383.925 174.247 383.753 174.247Z" fill="#D28572"/>
<path d="M385.301 173.279C384.376 173.279 383.043 171.516 382.742 171.129L383.108 170.871C383.817 171.839 385.021 173.064 385.408 172.806C385.43 172.785 385.494 172.742 385.516 172.634C385.623 172.097 384.978 170.828 384.527 170.14L384.892 169.882C385.43 170.613 386.483 171.774 386.999 171.774C387.064 171.774 387.107 171.753 387.128 171.71C387.558 171.129 386.698 169.71 386.376 169.259L386.741 169.001C386.892 169.216 388.182 171.022 387.494 171.968C387.365 172.14 387.193 172.226 386.999 172.226C386.634 172.226 386.161 171.903 385.752 171.516C385.924 171.968 386.032 172.398 385.967 172.742C385.924 172.935 385.817 173.086 385.666 173.193C385.537 173.236 385.43 173.279 385.301 173.279Z" fill="#D28572"/>
<path d="M401.167 348.332L416.583 341.818L420.432 348.031L422.302 334.873C417.916 336.873 412.541 338.442 408.005 339.152L401.167 348.332Z" fill="#1B1B43"/>
<path d="M410.95 276.63C410.95 277.511 411.552 334.422 411.552 334.422L408.005 339.173C412.541 338.442 417.916 336.894 422.302 334.895L430.816 274.867L410.95 276.63Z" fill="#FFBC96"/>
<path d="M463.647 326.037C461.174 330.53 455.864 336.142 451.435 338.249L449.478 348.139C455.584 347.795 457.39 342.183 460.572 335.411L466.657 339.474C465.711 334.938 464.7 330.466 463.647 326.037Z" fill="#1B1B43"/>
<path d="M463.647 326.037C458.809 305.59 452.94 286.455 443.157 269.47L428.322 278.479C428.688 279.296 452.918 330.767 452.918 330.767L451.456 338.227C455.885 336.142 461.196 330.53 463.647 326.037Z" fill="#FFBC96"/>
<path d="M458.272 281.166H406.048C405.683 260.677 407.854 239.951 413.079 223.933C413.81 221.697 414.584 219.569 415.444 217.526L444.856 221.418C445.071 221.998 445.286 222.6 445.501 223.202C451.864 240.768 456.014 260.182 458.272 281.166Z" fill="#4A7DC9"/>
<path opacity="0.6" d="M445.522 223.181C433.332 224.256 422.324 224.621 413.1 223.912C413.831 221.676 414.605 219.547 415.465 217.505L444.877 221.396C445.092 221.977 445.307 222.579 445.522 223.181Z" fill="#1B1B43"/>
<path d="M446.748 203.637C445.63 213.119 444.727 221.353 444.856 221.654C444.168 221.461 423.807 219.913 415.186 219.268C413.036 219.117 411.38 217.311 411.359 215.161L411.208 187.555C410.95 183.126 413.724 179.106 417.916 177.687C421.034 176.633 424.323 175.967 427.828 175.687L441.502 177.493C444.447 177.88 447.178 178.934 449.543 180.525C448.833 186.222 447.715 195.403 446.748 203.637Z" fill="#1FC7A2"/>
<path d="M444.877 221.891H444.791L444.705 221.826L444.877 221.654V221.439V221.654L445.028 221.482V221.504L444.877 221.654V221.891Z" fill="#102048"/>
<path d="M471.967 229.416L471.666 253.646L438.685 242.939L439.008 218.687L471.967 229.416Z" fill="#EBEBFF"/>
<path d="M453.047 227.481L452.897 242.961L444.834 240.338L445.049 224.578L453.047 227.481Z" fill="#91C4FF"/>
<path d="M457.562 192.285C456.487 187.362 453.563 183.191 449.543 180.525C448.833 186.222 447.737 195.403 446.769 203.637L453.864 236.575L464.27 238.188L457.562 192.285Z" fill="#1FC7A2"/>
<path d="M464.227 238.188L453.821 236.575L456.423 248.637C458.014 249.712 460.293 250.486 462.959 251.109C464.528 251.475 465.969 250.142 465.732 248.551L464.227 238.188Z" fill="#FFBC96"/>
<path d="M455.089 241.219C455.089 241.219 453.133 249.325 453.821 249.819C455.885 251.303 457.97 243.821 457.97 243.821L455.089 241.219Z" fill="#FFBC96"/>
<path d="M435.331 166.356V176.547C435.331 179.751 432.729 182.352 429.526 182.352C426.322 182.352 423.721 179.751 423.721 176.547V166.356H435.331Z" fill="#FFBC96"/>
<path d="M433.16 169.13C431.719 173.086 427.376 176.246 423.699 176.547V169.044L433.16 169.13Z" fill="#1B1B43"/>
<path d="M437.524 153.521C441.193 153.521 444.167 150.547 444.167 146.877C444.167 143.208 441.193 140.234 437.524 140.234C433.855 140.234 430.88 143.208 430.88 146.877C430.88 150.547 433.855 153.521 437.524 153.521Z" fill="#1B1B43"/>
<path d="M439.609 156.681C439.351 161.992 433.912 166.012 427.827 166.012C421.743 166.012 416.325 161.734 416.325 156.402C416.325 151.07 422.861 145.501 428.945 145.501C435.008 145.523 439.953 150.081 439.609 156.681Z" fill="#1B1B43"/>
<path d="M436.255 162.594C436.255 162.744 436.255 162.916 436.234 163.067C436.169 164.357 435.847 165.582 435.331 166.679C435.309 166.743 435.288 166.786 435.266 166.851C434.621 168.184 433.697 169.366 432.6 170.355C430.536 172.247 427.849 173.365 425.376 173.365C424.774 173.365 424.215 173.301 423.699 173.172C421.721 172.699 420.281 171.344 419.356 169.409C418.776 168.205 418.389 166.765 418.195 165.174C418.088 164.357 418.045 163.475 418.045 162.594C418.045 162.207 418.066 161.841 418.088 161.454C418.174 160.444 418.367 159.476 418.647 158.573C419.958 154.402 423.269 151.457 427.118 151.457C431.633 151.457 435.374 155.456 436.083 160.723C436.148 161.089 436.191 161.476 436.191 161.863C436.234 162.121 436.255 162.357 436.255 162.594Z" fill="#FFBC96"/>
<path d="M435.546 163.089C432.88 162.078 428.322 159.476 427.591 156.251C422.173 155.907 421.141 156.466 417.916 159.197L418.69 154.144L426.968 148.984L434.686 151.328L438.019 158.659L435.546 163.089Z" fill="#1B1B43"/>
<path d="M438.061 164.701C437.459 166.313 435.868 167.238 434.492 166.722C433.116 166.227 432.493 164.507 433.073 162.873C433.675 161.261 435.266 160.336 436.642 160.852C438.018 161.347 438.642 163.067 438.061 164.701Z" fill="#FFBC96"/>
<path d="M435.266 165.26C435.116 164.765 435.094 164.249 435.202 163.712C435.266 163.454 435.374 163.196 435.546 162.981C435.718 162.766 435.954 162.594 436.212 162.529L436.298 162.68C435.933 163.002 435.739 163.368 435.632 163.819C435.503 164.271 435.503 164.744 435.438 165.238L435.266 165.26Z" fill="#1B1B43"/>
<path d="M419.808 164.572C420.117 164.572 420.367 164.245 420.367 163.841C420.367 163.437 420.117 163.11 419.808 163.11C419.499 163.11 419.249 163.437 419.249 163.841C419.249 164.245 419.499 164.572 419.808 164.572Z" fill="#1B1B43"/>
<path d="M425.591 163.153C425.591 163.626 425.29 163.991 424.925 163.991C424.559 163.991 424.258 163.604 424.258 163.153C424.258 162.68 424.559 162.314 424.925 162.314C425.29 162.314 425.591 162.68 425.591 163.153Z" fill="#1B1B43"/>
<path d="M421.893 164.443C421.936 164.765 421.893 165.109 421.786 165.432C421.7 165.754 421.485 166.055 421.442 166.292C421.42 166.421 421.42 166.464 421.463 166.529C421.528 166.593 421.636 166.679 421.765 166.722C422.023 166.83 422.324 166.83 422.646 166.873L422.668 167.045C422.367 167.131 422.023 167.174 421.657 167.109C421.485 167.066 421.313 166.98 421.141 166.83C420.969 166.658 420.947 166.357 421.012 166.185C421.141 165.819 421.313 165.604 421.442 165.324C421.571 165.045 421.657 164.765 421.722 164.464L421.893 164.443Z" fill="#D28572"/>
<path d="M422.237 169.109C422.947 169.238 423.678 169.259 424.28 168.937C424.903 168.636 425.312 168.055 425.656 167.41L425.828 167.475C425.699 168.227 425.226 168.958 424.473 169.324C423.721 169.689 422.861 169.603 422.173 169.281L422.237 169.109Z" fill="#1B1B43"/>
<path d="M420.496 161.476C420.625 161.798 420.044 162.121 419.378 162.336C418.733 162.551 418.238 162.615 418.131 162.271C418.023 161.927 418.475 161.562 419.098 161.261C419.765 160.96 420.195 160.68 420.496 161.476Z" fill="#1B1B43"/>
<path d="M423.291 160.96C423.269 161.325 424.194 161.476 425.204 161.497C426.193 161.519 426.881 161.433 426.903 161.067C426.924 160.702 426.107 160.465 425.118 160.358C424.086 160.229 423.355 160.078 423.291 160.96Z" fill="#1B1B43"/>
<path opacity="0.2" d="M429.547 167.818C430.901 167.818 431.998 166.721 431.998 165.367C431.998 164.014 430.901 162.916 429.547 162.916C428.194 162.916 427.096 164.014 427.096 165.367C427.096 166.721 428.194 167.818 429.547 167.818Z" fill="#FE5B52"/>
<path opacity="0.2" d="M420.195 167.582C420.195 168.313 419.872 168.979 419.356 169.431C418.776 168.227 418.389 166.786 418.195 165.195C419.356 165.389 420.195 166.378 420.195 167.582Z" fill="#FE5B52"/>
<path d="M411.458 190.699L411.316 203.296L411.767 203.301L411.909 190.704L411.458 190.699Z" fill="#1B1B43"/>
<path d="M446.748 203.637L445.307 198.542C444.125 203.035 444.361 206.475 446.189 208.281L446.748 203.637Z" fill="#1B1B43"/>
<path d="M429.44 186.674C429.182 186.674 428.924 186.652 428.666 186.631C426.108 186.416 423.893 185.126 422.883 183.234L423.27 183.019C424.216 184.76 426.301 185.964 428.709 186.179C431.676 186.416 434.471 185.147 436.385 182.696L436.729 182.976C434.901 185.341 432.278 186.674 429.44 186.674Z" fill="#1B1B43"/>
<path d="M120.7 296.646H55.6411V307.074H120.7V296.646Z" fill="#D1E9FF"/>
<g opacity="0.4">
<path opacity="0.4" d="M59.8982 305.44C59.5112 305.44 59.2102 305.117 59.2102 304.752V298.99C59.2102 298.603 59.5327 298.302 59.8982 298.302C60.2852 298.302 60.5862 298.624 60.5862 298.99V304.73C60.5862 305.117 60.2637 305.44 59.8982 305.44Z" fill="#4A7DC9"/>
<path opacity="0.4" d="M71.4436 305.44C71.0566 305.44 70.7556 305.117 70.7556 304.752V298.99C70.7556 298.603 71.0781 298.302 71.4436 298.302C71.8306 298.302 72.1316 298.624 72.1316 298.99V304.73C72.1316 305.117 71.8306 305.44 71.4436 305.44Z" fill="#4A7DC9"/>
<path opacity="0.4" d="M83.0108 305.44C82.6238 305.44 82.3228 305.117 82.3228 304.752V298.99C82.3228 298.603 82.6453 298.302 83.0108 298.302C83.3978 298.302 83.6988 298.624 83.6988 298.99V304.73C83.6988 305.117 83.3763 305.44 83.0108 305.44Z" fill="#4A7DC9"/>
<path opacity="0.4" d="M94.5562 305.44C94.1692 305.44 93.8682 305.117 93.8682 304.752V298.99C93.8682 298.603 94.1907 298.302 94.5562 298.302C94.9432 298.302 95.2442 298.624 95.2442 298.99V304.73C95.2442 305.117 94.9432 305.44 94.5562 305.44Z" fill="#4A7DC9"/>
<path opacity="0.4" d="M106.123 305.44C105.736 305.44 105.435 305.117 105.435 304.752V298.99C105.435 298.603 105.758 298.302 106.123 298.302C106.51 298.302 106.811 298.624 106.811 298.99V304.73C106.811 305.117 106.489 305.44 106.123 305.44Z" fill="#4A7DC9"/>
<path opacity="0.4" d="M116.443 305.44C116.056 305.44 115.755 305.117 115.755 304.752V298.99C115.755 298.603 116.078 298.302 116.443 298.302C116.83 298.302 117.131 298.624 117.131 298.99V304.73C117.153 305.117 116.83 305.44 116.443 305.44Z" fill="#4A7DC9"/>
</g>
<path d="M120.7 307.095H55.6411V317.523H120.7V307.095Z" fill="#D1E9FF"/>
<g opacity="0.4">
<path opacity="0.4" d="M59.8982 315.867C59.5112 315.867 59.2102 315.545 59.2102 315.179V309.439C59.2102 309.052 59.5327 308.751 59.8982 308.751C60.2852 308.751 60.5862 309.073 60.5862 309.439V315.179C60.5862 315.566 60.2637 315.867 59.8982 315.867Z" fill="#4A7DC9"/>
<path opacity="0.4" d="M71.4436 315.867C71.0566 315.867 70.7556 315.545 70.7556 315.179V309.439C70.7556 309.052 71.0781 308.751 71.4436 308.751C71.8306 308.751 72.1316 309.073 72.1316 309.439V315.179C72.1316 315.566 71.8306 315.867 71.4436 315.867Z" fill="#4A7DC9"/>
<path opacity="0.4" d="M83.0108 315.867C82.6238 315.867 82.3228 315.545 82.3228 315.179V309.439C82.3228 309.052 82.6453 308.751 83.0108 308.751C83.3978 308.751 83.6988 309.073 83.6988 309.439V315.179C83.6988 315.566 83.3763 315.867 83.0108 315.867Z" fill="#4A7DC9"/>
<path opacity="0.4" d="M94.5562 315.867C94.1692 315.867 93.8682 315.545 93.8682 315.179V309.439C93.8682 309.052 94.1907 308.751 94.5562 308.751C94.9432 308.751 95.2442 309.073 95.2442 309.439V315.179C95.2442 315.566 94.9432 315.867 94.5562 315.867Z" fill="#4A7DC9"/>
<path opacity="0.4" d="M106.123 315.867C105.736 315.867 105.435 315.545 105.435 315.179V309.439C105.435 309.052 105.758 308.751 106.123 308.751C106.51 308.751 106.811 309.073 106.811 309.439V315.179C106.811 315.566 106.489 315.867 106.123 315.867Z" fill="#4A7DC9"/>
<path opacity="0.4" d="M116.443 315.867C116.056 315.867 115.755 315.545 115.755 315.179V309.439C115.755 309.052 116.078 308.751 116.443 308.751C116.83 308.751 117.131 309.073 117.131 309.439V315.179C117.153 315.566 116.83 315.867 116.443 315.867Z" fill="#4A7DC9"/>
</g>
<path opacity="0.15" d="M120.7 307.095H55.6411V310.815H120.7V307.095Z" fill="#1B1B43"/>
<path d="M126.333 317.523H61.2739V327.95H126.333V317.523Z" fill="#D1E9FF"/>
<g opacity="0.4">
<path opacity="0.4" d="M65.5093 326.295C65.1223 326.295 64.8213 325.972 64.8213 325.607V319.866C64.8213 319.479 65.1438 319.178 65.5093 319.178C65.8963 319.178 66.1973 319.501 66.1973 319.866V325.607C66.2188 325.994 65.8963 326.295 65.5093 326.295Z" fill="#4A7DC9"/>
<path opacity="0.4" d="M77.0762 326.295C76.6892 326.295 76.3882 325.972 76.3882 325.607V319.866C76.3882 319.479 76.7107 319.178 77.0762 319.178C77.4632 319.178 77.7642 319.501 77.7642 319.866V325.607C77.7642 325.994 77.4632 326.295 77.0762 326.295Z" fill="#4A7DC9"/>
<path opacity="0.4" d="M88.6218 326.295C88.2348 326.295 87.9338 325.972 87.9338 325.607V319.866C87.9338 319.479 88.2563 319.178 88.6218 319.178C89.0088 319.178 89.3098 319.501 89.3098 319.866V325.607C89.3313 325.994 89.0088 326.295 88.6218 326.295Z" fill="#4A7DC9"/>
<path opacity="0.4" d="M100.189 326.295C99.8017 326.295 99.5007 325.972 99.5007 325.607V319.866C99.5007 319.479 99.8232 319.178 100.189 319.178C100.576 319.178 100.877 319.501 100.877 319.866V325.607C100.877 325.994 100.576 326.295 100.189 326.295Z" fill="#4A7DC9"/>
<path opacity="0.4" d="M111.734 326.295C111.347 326.295 111.046 325.972 111.046 325.607V319.866C111.046 319.479 111.369 319.178 111.734 319.178C112.121 319.178 112.422 319.501 112.422 319.866V325.607C112.444 325.994 112.121 326.295 111.734 326.295Z" fill="#4A7DC9"/>
<path opacity="0.4" d="M122.076 326.295C121.689 326.295 121.388 325.972 121.388 325.607V319.866C121.388 319.479 121.71 319.178 122.076 319.178C122.463 319.178 122.764 319.501 122.764 319.866V325.607C122.785 325.994 122.463 326.295 122.076 326.295Z" fill="#4A7DC9"/>
</g>
<path d="M126.333 327.95H61.2739V338.378H126.333V327.95Z" fill="#D1E9FF"/>
<g opacity="0.4">
<path opacity="0.4" d="M65.5093 336.744C65.1223 336.744 64.8213 336.421 64.8213 336.056V330.315C64.8213 329.928 65.1438 329.627 65.5093 329.627C65.8963 329.627 66.1973 329.95 66.1973 330.315V336.056C66.2188 336.421 65.8963 336.744 65.5093 336.744Z" fill="#4A7DC9"/>
<path opacity="0.4" d="M77.0762 336.744C76.6892 336.744 76.3882 336.421 76.3882 336.056V330.315C76.3882 329.928 76.7107 329.627 77.0762 329.627C77.4632 329.627 77.7642 329.95 77.7642 330.315V336.056C77.7642 336.421 77.4632 336.744 77.0762 336.744Z" fill="#4A7DC9"/>
<path opacity="0.4" d="M88.6218 336.744C88.2348 336.744 87.9338 336.421 87.9338 336.056V330.315C87.9338 329.928 88.2563 329.627 88.6218 329.627C89.0088 329.627 89.3098 329.95 89.3098 330.315V336.056C89.3313 336.421 89.0088 336.744 88.6218 336.744Z" fill="#4A7DC9"/>
<path opacity="0.4" d="M100.189 336.744C99.8017 336.744 99.5007 336.421 99.5007 336.056V330.315C99.5007 329.928 99.8232 329.627 100.189 329.627C100.576 329.627 100.877 329.95 100.877 330.315V336.056C100.877 336.421 100.576 336.744 100.189 336.744Z" fill="#4A7DC9"/>
<path opacity="0.4" d="M111.734 336.744C111.347 336.744 111.046 336.421 111.046 336.056V330.315C111.046 329.928 111.369 329.627 111.734 329.627C112.121 329.627 112.422 329.95 112.422 330.315V336.056C112.444 336.421 112.121 336.744 111.734 336.744Z" fill="#4A7DC9"/>
<path opacity="0.4" d="M122.076 336.744C121.689 336.744 121.388 336.421 121.388 336.056V330.315C121.388 329.928 121.71 329.627 122.076 329.627C122.463 329.627 122.764 329.95 122.764 330.315V336.056C122.785 336.421 122.463 336.744 122.076 336.744Z" fill="#4A7DC9"/>
</g>
<path opacity="0.15" d="M126.333 327.95H61.2739V332.229H126.333V327.95Z" fill="#1B1B43"/>
<path d="M121.28 338.399H56.2214V348.827H121.28V338.399Z" fill="#D1E9FF"/>
<g opacity="0.4">
<path opacity="0.4" d="M60.4785 347.171C60.0915 347.171 59.7905 346.849 59.7905 346.483V340.743C59.7905 340.356 60.113 340.055 60.4785 340.055C60.8655 340.055 61.1665 340.377 61.1665 340.743V346.483C61.1665 346.87 60.8655 347.171 60.4785 347.171Z" fill="#4A7DC9"/>
<path opacity="0.4" d="M72.0454 347.171C71.6584 347.171 71.3574 346.849 71.3574 346.483V340.743C71.3574 340.356 71.6799 340.055 72.0454 340.055C72.4324 340.055 72.7334 340.377 72.7334 340.743V346.483C72.7334 346.87 72.4109 347.171 72.0454 347.171Z" fill="#4A7DC9"/>
<path opacity="0.4" d="M83.5911 347.171C83.2041 347.171 82.9031 346.849 82.9031 346.483V340.743C82.9031 340.356 83.2256 340.055 83.5911 340.055C83.9781 340.055 84.279 340.377 84.279 340.743V346.483C84.3005 346.87 83.9781 347.171 83.5911 347.171Z" fill="#4A7DC9"/>
<path opacity="0.4" d="M95.158 347.171C94.771 347.171 94.47 346.849 94.47 346.483V340.743C94.47 340.356 94.7925 340.055 95.158 340.055C95.545 340.055 95.846 340.377 95.846 340.743V346.483C95.846 346.87 95.5235 347.171 95.158 347.171Z" fill="#4A7DC9"/>
<path opacity="0.4" d="M106.704 347.171C106.317 347.171 106.016 346.849 106.016 346.483V340.743C106.016 340.356 106.338 340.055 106.704 340.055C107.091 340.055 107.392 340.377 107.392 340.743V346.483C107.413 346.87 107.091 347.171 106.704 347.171Z" fill="#4A7DC9"/>
<path opacity="0.4" d="M117.045 347.171C116.658 347.171 116.357 346.849 116.357 346.483V340.743C116.357 340.356 116.679 340.055 117.045 340.055C117.432 340.055 117.733 340.377 117.733 340.743V346.483C117.733 346.87 117.432 347.171 117.045 347.171Z" fill="#4A7DC9"/>
</g>
<path d="M56.3664 287.627L22.9846 343.467L31.9345 348.817L65.3163 292.977L56.3664 287.627Z" fill="#D1E9FF"/>
<g opacity="0.4">
<path opacity="0.4" d="M32.7007 344.333C32.5072 344.656 32.0772 344.763 31.7547 344.57L26.8312 341.624C26.5087 341.431 26.4012 341.001 26.5947 340.678C26.7882 340.356 27.2182 340.248 27.5407 340.442L32.4642 343.387C32.8082 343.559 32.9157 343.989 32.7007 344.333Z" fill="#4A7DC9"/>
<path opacity="0.4" d="M38.6347 334.4C38.4412 334.723 38.0112 334.83 37.6887 334.637L32.7652 331.691C32.4427 331.498 32.3352 331.068 32.5287 330.745C32.7222 330.423 33.1522 330.315 33.4747 330.509L38.3982 333.454C38.7207 333.648 38.8282 334.078 38.6347 334.4Z" fill="#4A7DC9"/>
<path opacity="0.4" d="M44.5685 324.489C44.375 324.811 43.945 324.919 43.6225 324.725L38.6991 321.78C38.3766 321.586 38.2691 321.156 38.4626 320.834C38.6561 320.511 39.0861 320.404 39.4086 320.597L44.332 323.543C44.6545 323.736 44.762 324.166 44.5685 324.489Z" fill="#4A7DC9"/>
<path opacity="0.4" d="M50.5026 314.577C50.3091 314.9 49.8791 315.007 49.5566 314.814L44.6332 311.868C44.3107 311.675 44.2032 311.245 44.3967 310.922C44.5902 310.6 45.0202 310.492 45.3427 310.686L50.2661 313.631C50.5886 313.803 50.6961 314.233 50.5026 314.577Z" fill="#4A7DC9"/>
<path opacity="0.4" d="M56.4367 304.644C56.2432 304.967 55.8132 305.074 55.4907 304.881L50.5672 301.935C50.2447 301.742 50.1372 301.312 50.3307 300.989C50.5242 300.667 50.9542 300.559 51.2767 300.753L56.2002 303.698C56.5227 303.892 56.6302 304.322 56.4367 304.644Z" fill="#4A7DC9"/>
<path opacity="0.4" d="M61.7256 295.786C61.5321 296.109 61.1021 296.216 60.7796 296.023L55.8561 293.077C55.5336 292.884 55.4261 292.454 55.6196 292.131C55.8131 291.809 56.2431 291.701 56.5656 291.895L61.4891 294.84C61.8116 295.012 61.9191 295.442 61.7256 295.786Z" fill="#4A7DC9"/>
</g>
<path d="M136.266 226.298L138.889 220.945C138.889 220.945 139.384 215.075 140.609 214.667C141.62 214.323 141.921 218.322 141.921 218.322C141.921 218.322 145.339 211.313 146.242 212.13C147.145 212.947 145.017 218.408 145.017 218.408L147.339 219.461C148.973 220.214 149.79 222.063 149.231 223.783L148.715 225.331C148.521 225.933 148.177 226.47 147.726 226.9L143.103 231.286L137.105 232.103L136.266 226.298Z" fill="#FFBC96"/>
<path d="M105.027 219.913L123.581 235.027L137.147 224.127L144.694 233.243L128.504 247.175C125.387 249.862 120.872 250.228 117.368 248.056L102.468 238.876L105.027 219.913Z" fill="#26289C"/>
<path d="M143.92 223.202C143.834 223.202 143.769 223.181 143.705 223.159C143.253 222.923 143.296 222.063 143.834 220.3L144.264 220.429C143.619 222.557 143.92 222.751 143.92 222.751C144.135 222.858 145.145 221.977 145.984 220.945L146.328 221.224C145.79 221.848 144.629 223.202 143.92 223.202Z" fill="#D28572"/>
<path d="M147.037 225.718C146.93 225.718 146.822 225.696 146.736 225.675C146.543 225.61 146.414 225.481 146.349 225.288C146.242 224.944 146.392 224.406 146.629 223.869C146.263 224.17 145.876 224.406 145.532 224.449C145.339 224.471 145.167 224.428 145.016 224.299C144.178 223.611 145.769 221.353 146.091 220.923L146.457 221.181C145.747 222.149 144.952 223.675 145.317 223.955C145.339 223.976 145.403 224.019 145.511 223.998C146.048 223.933 147.08 222.923 147.575 222.299L147.919 222.579C147.381 223.331 146.607 224.686 146.758 225.159C146.779 225.223 146.801 225.245 146.865 225.266C147.553 225.503 148.628 224.256 148.951 223.783L149.316 224.041C149.187 224.234 148.069 225.718 147.037 225.718Z" fill="#D28572"/>
<path d="M153.574 331.046L155.573 348.59H180.47L170.258 339.926L166.474 330.38L153.574 331.046Z" fill="#A7A7CC"/>
<path d="M115.949 270.889L144.221 273.835C152.09 274.652 158.626 280.242 160.69 287.874L172.988 333.583L166.237 333.734L142.157 300.108L115.949 270.889Z" fill="#1AB492"/>
<path d="M128.397 266.589L136.61 265.041L143.211 270.008L129.214 270.223L128.397 266.589Z" fill="#FFBC96"/>
<path d="M114.358 213.807L113.756 216.279L112.057 223.439L111.799 224.471L99.1355 221.697L101.801 209.356L106.016 208.475L114.358 213.807Z" fill="#FFBC96"/>
<path d="M113.755 216.279L112.035 223.439L112.014 223.46C108.832 220.321 106.639 217.075 105.521 213.678L113.755 216.279Z" fill="#1B1B43"/>
<path d="M119.647 208.002C119.647 208.002 121.926 211.184 121.238 212.345C120.55 213.506 118.099 212.259 118.099 212.259L119.647 208.002Z" fill="#FFBC96"/>
<path d="M121.797 201.573C121.797 201.573 119.905 217.806 115.024 217.913C110.144 218.021 103.909 213.248 103.909 213.248L103.242 203.702L112.251 197.359L121.797 201.573Z" fill="#FFBC96"/>
<path d="M111.584 206.368C112.122 204.196 113.154 202.24 115.927 201.079C119.905 204.454 123.99 203.272 128.204 198.585C128.204 198.585 122.248 199.036 118.099 193.575C113.928 188.136 105.156 194.414 105.156 194.414C97.4801 194.973 97.2651 204.798 101.221 212.087C102.382 209.894 106.618 207.744 109.671 207.636L111.584 206.368Z" fill="#1B1B43"/>
<path d="M113.132 206.088C113.476 207.765 112.68 209.335 111.347 209.614C110.014 209.894 108.66 208.754 108.316 207.099C107.972 205.422 108.767 203.852 110.1 203.573C111.433 203.293 112.788 204.411 113.132 206.088Z" fill="#FFBC96"/>
<path d="M110.789 207.486C111.004 206.604 110.681 205.744 109.843 205.379L109.864 205.207C110.122 205.185 110.38 205.271 110.617 205.422C110.832 205.572 111.004 205.809 111.111 206.045C111.305 206.54 111.262 207.142 110.939 207.529L110.789 207.486Z" fill="#1B1B43"/>
<path d="M119.238 207.572C119.109 208.002 118.722 208.26 118.357 208.174C117.991 208.066 117.798 207.636 117.927 207.206C118.056 206.776 118.443 206.518 118.808 206.604C119.174 206.712 119.367 207.142 119.238 207.572Z" fill="#1B1B43"/>
<path d="M115.239 211.893C115.497 214.968 117.131 215.484 117.948 213.398L115.239 211.893Z" fill="white"/>
<path d="M121.044 205.938C120.98 206.454 120.292 206.196 119.432 206.088C118.572 205.981 117.862 205.895 117.905 205.572C117.948 205.25 118.679 205.078 119.539 205.164C120.399 205.271 121.109 205.443 121.044 205.938Z" fill="#1B1B43"/>
<path opacity="0.2" d="M114.229 211.076C115.202 211.076 115.992 210.287 115.992 209.313C115.992 208.34 115.202 207.55 114.229 207.55C113.255 207.55 112.466 208.34 112.466 209.313C112.466 210.287 113.255 211.076 114.229 211.076Z" fill="#1FC7A2"/>
<path d="M147.575 331.046L149.575 348.59H174.472L164.259 339.926L160.475 330.38L147.575 331.046Z" fill="#D1E9FF"/>
<path d="M82.2366 268.589L85.1606 285.251C86.3216 291.809 91.7396 296.754 98.3831 297.291L133.794 300.151L144.694 333.712H166.259L151.875 287.552C150.198 282.134 145.769 278.027 140.265 276.716L115.97 270.911L93.5886 263.493L82.2366 268.589Z" fill="#1FC7A2"/>
<path d="M133.793 299.807L139.169 300.151C139.169 300.151 138.61 304.558 136.051 306.859L133.793 299.807Z" fill="#1AB492"/>
<path d="M164.024 339.559L160.039 342.187L160.525 342.923L164.509 340.295L164.024 339.559Z" fill="#102048"/>
<path d="M117.303 239.929L116.207 265.02L115.949 270.825V270.868H115.648L101.823 270.825L82.7311 270.739C80.5811 270.739 78.9471 268.782 79.3341 266.654C82.0861 251.539 85.7841 236.833 92.4061 223.46C94.1261 219.999 98.1681 218.236 101.974 219.225L106.467 220.386C108.144 220.816 109.757 221.525 111.111 222.6C113.605 224.557 114.96 227.18 115.949 230.899C116.744 233.845 117.153 236.876 117.303 239.929Z" fill="#4A7DC9"/>
<path d="M148.22 270.094H126.462V273.254H148.22V270.094Z" fill="#1B1B43"/>
<path d="M120.399 269.986L115.949 270.825L115.648 270.868L101.823 270.825C96.1256 264.977 94.2121 253.044 93.5671 238.145L116.207 265.02L120.399 269.986Z" fill="#1B1B43"/>
<path d="M104.984 227.481L113.863 254.592L131.579 265.041L128.462 275.49L109.8 269.492C104.941 268.073 101.135 262.805 99.6516 257.946L93.5886 238.145L104.984 227.481Z" fill="#4A7DC9"/>
<path d="M148.242 273.254H145.124L162.302 238.596H165.42L148.242 273.254Z" fill="#1B1B43"/>
<path d="M131.471 265.235L113.691 254.743L113.67 254.657L104.769 227.545L105.199 227.416L114.057 254.442L131.686 264.848L131.471 265.235Z" fill="#1B1B43"/>
<path d="M493.617 127.57C482.824 127.57 474.052 136.321 474.052 147.135C474.052 150.812 475.063 154.252 476.847 157.197L470.849 164.507L482.093 162.938C485.318 165.303 489.317 166.7 493.617 166.7C504.41 166.7 513.182 157.95 513.182 147.135C513.182 136.342 504.41 127.57 493.617 127.57Z" fill="#D1E9FF"/>
<path d="M485.497 147.763C485.827 146.364 484.961 144.963 483.563 144.633C482.164 144.303 480.763 145.169 480.433 146.567C480.103 147.965 480.969 149.366 482.367 149.697C483.765 150.027 485.166 149.161 485.497 147.763Z" fill="white"/>
<path d="M496.164 147.767C496.494 146.368 495.628 144.967 494.23 144.637C492.832 144.307 491.43 145.173 491.1 146.571C490.77 147.969 491.636 149.371 493.034 149.701C494.433 150.031 495.834 149.165 496.164 147.767Z" fill="white"/>
<path d="M506.831 147.771C507.162 146.373 506.296 144.971 504.897 144.641C503.499 144.311 502.098 145.177 501.768 146.575C501.438 147.973 502.303 149.375 503.702 149.705C505.1 150.035 506.501 149.169 506.831 147.771Z" fill="white"/>
<path d="M59.8765 153.349C70.6695 153.349 79.4415 162.099 79.4415 172.914C79.4415 176.59 78.431 180.03 76.6465 182.976L82.645 190.286L71.4005 188.716C68.1755 191.081 64.1765 192.479 59.8765 192.479C49.0835 192.479 40.3115 183.728 40.3115 172.914C40.3115 162.099 49.062 153.349 59.8765 153.349Z" fill="#D1E9FF"/>
<path d="M72.3757 174.751C73.3917 173.735 73.3916 172.088 72.3757 171.072C71.3598 170.056 69.7126 170.056 68.6967 171.072C67.6808 172.088 67.6808 173.735 68.6967 174.751C69.7126 175.767 71.3598 175.767 72.3757 174.751Z" fill="white"/>
<path d="M61.7107 174.748C62.7266 173.732 62.7266 172.085 61.7107 171.069C60.6947 170.053 59.0476 170.053 58.0317 171.069C57.0157 172.085 57.0157 173.732 58.0316 174.748C59.0476 175.764 60.6947 175.764 61.7107 174.748Z" fill="white"/>
<path d="M51.0306 174.761C52.0465 173.745 52.0465 172.098 51.0305 171.082C50.0146 170.066 48.3674 170.066 47.3515 171.082C46.3355 172.098 46.3355 173.745 47.3515 174.761C48.3674 175.777 50.0146 175.777 51.0306 174.761Z" fill="white"/>
<path d="M545.69 347.924H0.428955V348.805H545.69V347.924Z" fill="#102048"/>
</svg>
