<svg width="562" height="350" viewBox="0 0 562 350" fill="none" xmlns="http://www.w3.org/2000/svg">
<g opacity="0.4">
<path opacity="0.4" d="M518.947 280.185C541.924 236.803 544.344 180.362 515.939 140.316C497.452 114.243 467.957 97.4352 437.066 89.1948C372.756 72.0382 300.882 90.917 250.742 134.713C235.133 148.338 220.701 164.666 201.059 171.272C186.061 176.308 169.798 175.021 153.971 175.414C133.131 175.893 112.115 179.469 93.3239 188.494C74.5323 197.519 58.1169 212.343 49.5931 231.353C36.9709 259.496 43.2493 293.352 58.9235 319.926C65.1147 330.434 72.7229 340.091 81.4211 348.615H459.106C483.478 329.823 504.624 307.26 518.947 280.185Z" fill="#E5E5FF"/>
</g>
<path opacity="0.4" d="M86.6531 132.904C103.93 132.904 117.936 118.898 117.936 101.621C117.936 84.3437 103.93 70.3378 86.6531 70.3378C69.376 70.3378 55.3701 84.3437 55.3701 101.621C55.3701 118.898 69.376 132.904 86.6531 132.904Z" fill="#E5E5FF"/>
<path d="M494.444 154.922C493.071 154.922 491.675 154.835 490.302 154.638L490.411 153.897C492.024 154.115 493.659 154.202 495.316 154.159L495.338 154.9C495.033 154.9 494.727 154.922 494.444 154.922ZM500.33 154.333L500.177 153.592C501.791 153.287 503.36 152.829 504.886 152.24L505.148 152.938C503.578 153.548 501.965 154.006 500.33 154.333ZM485.397 153.527C483.806 153.025 482.236 152.393 480.732 151.63L481.059 150.954C482.519 151.695 484.045 152.306 485.593 152.807L485.397 153.527ZM509.682 150.802L509.312 150.148C510.707 149.319 512.058 148.382 513.323 147.335L513.802 147.902C512.516 148.992 511.121 149.951 509.682 150.802ZM476.481 148.992C475.282 148.098 474.126 147.117 473.058 146.027L472.709 145.679L473.254 145.155L473.603 145.504C474.65 146.551 475.761 147.51 476.939 148.382L476.481 148.992ZM517.378 144.392L516.811 143.913C517.879 142.67 518.838 141.34 519.688 139.945L520.321 140.338C519.47 141.755 518.489 143.128 517.378 144.392ZM469.505 141.798C468.546 140.425 467.717 138.942 466.998 137.438L467.674 137.133C468.371 138.615 469.178 140.032 470.115 141.384L469.505 141.798ZM522.588 135.825L521.89 135.542C522.501 134.016 522.98 132.446 523.307 130.855L524.027 131.007C523.678 132.642 523.198 134.277 522.588 135.825ZM465.276 132.729C464.84 131.116 464.513 129.459 464.338 127.781L465.079 127.694C465.254 129.307 465.559 130.942 465.995 132.511L465.276 132.729ZM524.681 126.037L523.939 125.993C523.961 125.535 523.961 125.099 523.961 124.642C523.961 123.464 523.896 122.265 523.743 121.088L524.484 121.001C524.637 122.2 524.702 123.421 524.702 124.642C524.702 125.099 524.702 125.579 524.681 126.037ZM464.992 122.81L464.251 122.767C464.36 121.088 464.6 119.431 464.97 117.796L465.69 117.971C465.319 119.54 465.079 121.175 464.992 122.81ZM522.762 116.292C522.304 114.723 521.716 113.175 520.996 111.714L521.672 111.387C522.413 112.891 523.024 114.461 523.482 116.074L522.762 116.292ZM467.194 113.284L466.496 113C467.129 111.453 467.913 109.948 468.807 108.531L469.439 108.924C468.567 110.319 467.826 111.78 467.194 113.284ZM518.489 107.507C517.552 106.177 516.484 104.934 515.328 103.757L515.852 103.234C517.051 104.433 518.141 105.719 519.1 107.071L518.489 107.507ZM472.404 105.022L471.837 104.52C472.23 104.084 472.622 103.648 473.036 103.234C473.799 102.471 474.628 101.73 475.456 101.054L475.914 101.643C475.086 102.297 474.301 103.016 473.538 103.779C473.167 104.171 472.775 104.607 472.404 105.022ZM512.364 101.185C511.077 100.182 509.682 99.31 508.243 98.547L508.592 97.893C510.075 98.6778 511.492 99.5934 512.821 100.596L512.364 101.185ZM480.012 98.8958L479.642 98.2418C481.102 97.4134 482.628 96.7158 484.22 96.149L484.481 96.8466C482.934 97.4134 481.429 98.0892 480.012 98.8958ZM503.731 96.6286C502.183 96.1272 500.57 95.7348 498.957 95.4732L499.066 94.732C500.722 94.9936 502.357 95.386 503.949 95.9092L503.731 96.6286ZM489.19 95.604L489.059 94.8628C490.716 94.5576 492.395 94.405 494.052 94.3832V95.1244C492.438 95.1462 490.803 95.2988 489.19 95.604Z" fill="#4A7DC9"/>
<path d="M428.564 187.84L428.455 187.099C430.069 186.881 431.616 186.401 433.077 185.682L433.404 186.357C431.9 187.099 430.265 187.6 428.564 187.84ZM423.507 187.731C421.828 187.426 420.215 186.859 418.733 186.052L419.081 185.398C420.498 186.161 422.046 186.706 423.638 186.99L423.507 187.731ZM437.546 183.436L437.023 182.913L437.175 182.782C438.287 181.67 439.203 180.428 439.922 179.054L440.576 179.403C439.813 180.842 438.854 182.15 437.699 183.327L437.546 183.436ZM414.7 182.978C413.522 181.736 412.563 180.341 411.822 178.793L412.498 178.466C413.195 179.926 414.111 181.256 415.223 182.455L414.7 182.978ZM442.189 174.564L441.448 174.433C441.579 173.604 441.644 172.754 441.644 171.926C441.644 171.141 441.579 170.378 441.47 169.615L442.211 169.506C442.342 170.313 442.386 171.119 442.386 171.926C442.407 172.82 442.342 173.692 442.189 174.564ZM410.405 173.953C410.318 173.299 410.274 172.602 410.274 171.926C410.274 170.901 410.361 169.877 410.558 168.874L411.299 169.005C411.124 169.964 411.015 170.945 411.015 171.904C411.015 172.558 411.059 173.19 411.146 173.822L410.405 173.953ZM440.009 165.015C439.29 163.576 438.331 162.268 437.175 161.113L437.699 160.59C438.919 161.789 439.9 163.184 440.685 164.688L440.009 165.015ZM412.956 164.492L412.302 164.121C413.021 162.835 413.915 161.636 414.983 160.568C415.136 160.415 415.288 160.285 415.441 160.132L415.942 160.677C415.79 160.808 415.659 160.939 415.506 161.091C414.503 162.116 413.653 163.249 412.956 164.492ZM433.971 158.65C432.576 157.843 431.05 157.276 429.458 156.949L429.611 156.23C431.289 156.579 432.881 157.167 434.341 158.017L433.971 158.65ZM419.953 157.996L419.648 157.32C421.196 156.622 422.831 156.164 424.531 155.968L424.619 156.709C423.005 156.906 421.436 157.32 419.953 157.996Z" fill="#4A7DC9"/>
<path d="M485.244 205.956C480.056 205.956 475.849 201.748 475.849 196.56C475.849 191.371 480.056 187.164 485.244 187.164C490.433 187.164 494.64 191.393 494.64 196.56C494.64 201.726 490.433 205.956 485.244 205.956ZM485.244 187.883C480.47 187.883 476.59 191.764 476.59 196.538C476.59 201.312 480.47 205.193 485.244 205.193C490.019 205.193 493.899 201.312 493.899 196.538C493.899 191.786 490.019 187.883 485.244 187.883Z" fill="#4A7DC9"/>
<path d="M234.13 21.7456C228.942 21.7456 224.734 17.5382 224.734 12.3498C224.734 7.16137 228.942 2.95398 234.13 2.95398C239.319 2.95398 243.526 7.16137 243.526 12.3498C243.526 17.5164 239.297 21.7456 234.13 21.7456ZM234.13 3.69518C229.356 3.69518 225.476 7.57557 225.476 12.3498C225.476 17.124 229.356 21.0044 234.13 21.0044C238.904 21.0044 242.785 17.124 242.785 12.3498C242.785 7.57557 238.904 3.69518 234.13 3.69518Z" fill="#4A7DC9"/>
<path d="M28.9485 167.282C23.7601 167.282 19.5527 163.075 19.5527 157.887C19.5527 152.698 23.7601 148.491 28.9485 148.491C34.1369 148.491 38.3443 152.698 38.3443 157.887C38.3661 163.053 34.1369 167.282 28.9485 167.282ZM28.9485 149.21C24.1743 149.21 20.2939 153.091 20.2939 157.865C20.2939 162.639 24.1743 166.519 28.9485 166.519C33.7227 166.519 37.6031 162.639 37.6031 157.865C37.6031 153.091 33.7227 149.21 28.9485 149.21Z" fill="#4A7DC9"/>
<path d="M460.414 67.0895L445.83 52.5053L460.414 37.9211L474.998 52.5053L460.414 67.0895ZM446.876 52.5053L460.414 66.0431L473.952 52.5053L460.414 38.9675L446.876 52.5053Z" fill="#4A7DC9"/>
<path d="M63.9158 97.8712L60.406 94.3396L60.9292 93.8163L64.439 97.3262L63.9158 97.8712ZM67.9706 95.6258L67.4474 95.1026L70.9572 91.5928L71.4804 92.1159L67.9706 95.6258ZM56.8962 90.8298L53.3864 87.32L53.9096 86.7968L57.4194 90.3066L56.8962 90.8298ZM74.9902 88.5843L74.467 88.0612L77.9768 84.5513L78.5 85.0746L74.9902 88.5843ZM49.8548 83.8102L46.345 80.3003L46.8682 79.7772L50.378 83.2869L49.8548 83.8102ZM82.0098 81.5648L81.4866 81.0416L84.9964 77.5318L85.5196 78.055L82.0098 81.5648ZM42.8352 76.7688L39.3254 73.259L39.8486 72.7358L43.3584 76.2456L42.8352 76.7688ZM89.0512 74.5452L88.528 74.022L92.0378 70.5122L92.561 71.0353L89.0512 74.5452ZM91.0786 70.0543L87.5688 66.5446L88.092 66.0214L91.6018 69.5312L91.0786 70.0543ZM38.8894 69.7492L38.3662 69.226L41.876 65.7162L42.3992 66.2394L38.8894 69.7492ZM84.0372 63.0348L80.5274 59.525L81.0506 59.0018L84.5604 62.5116L84.0372 63.0348ZM45.909 62.7296L45.3858 62.2064L48.8956 58.6966L49.4188 59.2198L45.909 62.7296ZM77.0176 56.0152L73.5078 52.4836L74.031 51.9604L77.5408 55.4702L77.0176 56.0152ZM52.9504 55.6882L52.4272 55.165L55.937 51.6552L56.4602 52.1784L52.9504 55.6882ZM69.998 48.9738L66.4882 45.464L67.0114 44.9408L70.5212 48.4506L69.998 48.9738ZM59.97 48.6686L59.4468 48.1454L62.9566 44.6356L63.4798 45.1588L59.97 48.6686Z" fill="#4A7DC9"/>
<path d="M64.0901 283.782H107.603L107.908 281.667H64.3953L64.0901 283.782Z" fill="#D1E9FF"/>
<path d="M66.7715 265.404H110.284L110.589 263.311H67.0767L66.7715 265.404Z" fill="#D1E9FF"/>
<path d="M69.4746 247.027H112.966L113.271 244.934H69.7798L69.4746 247.027Z" fill="#D1E9FF"/>
<path d="M72.1562 228.671H115.647L115.952 226.578H72.4615L72.1562 228.671Z" fill="#D1E9FF"/>
<path d="M75.1426 208.201L74.8374 210.294H118.328L118.634 208.201H75.1426Z" fill="#D1E9FF"/>
<path d="M61.4087 302.137H104.921L105.227 300.044H61.7139L61.4087 302.137Z" fill="#D1E9FF"/>
<path d="M58.7273 320.515H102.24L102.545 318.422H59.0325L58.7273 320.515Z" fill="#D1E9FF"/>
<path d="M77.8242 189.824L77.519 191.916H121.01L121.315 189.824H77.8242Z" fill="#D1E9FF"/>
<path d="M120.797 189.764L97.6802 348.629L98.6725 348.774L121.79 189.908L120.797 189.764Z" fill="#1B1B43"/>
<path d="M77.3197 189.643L54.2026 348.508L55.195 348.653L78.3121 189.787L77.3197 189.643Z" fill="#1B1B43"/>
<path d="M124.302 146.115L110.72 162.356L105.379 164.928L110.175 171.599L112.857 170.16C115.712 168.372 118.328 165.974 119.985 163.031L126.285 151.761L124.302 146.115Z" fill="#FFBC96"/>
<path d="M90.0103 172.275L98.1198 178.073L111.222 172.95L105.379 164.906L90.0103 172.275Z" fill="#1FC7A2"/>
<path d="M224.494 74.3054C221.857 75.8096 219.764 77.9242 218.26 80.453L199.294 47.0336L97.0952 105.087L155.149 207.285L193.124 185.725C192.928 189.039 193.604 192.309 195.304 195.274C200.58 204.539 213.594 207.089 224.429 200.942C235.242 194.794 239.733 182.303 234.479 173.016C232.8 170.051 230.315 167.784 227.372 166.258L257.347 149.232L238.272 115.682C241.215 115.682 244.093 114.984 246.73 113.48C255.995 108.204 258.546 95.1898 252.398 84.3552C246.251 73.5424 233.759 69.0516 224.494 74.3054Z" fill="#4A7DC9"/>
<g opacity="0.6">
<path opacity="0.6" d="M245.008 87.1239C233.454 90.4375 220.025 102.427 207.708 95.168C202.04 91.8326 199.708 85.5542 203.109 79.6464C205.332 75.8096 208.624 72.4525 211.872 69.2261L211.545 68.6375C209.496 70.7739 207.447 72.9321 205.507 75.1557C202.389 78.7309 199.642 83.2216 201.038 88.1484C202.28 92.552 206.248 95.8003 210.455 97.2173C215.905 99.0485 221.835 97.675 227.045 95.6476C233.454 93.1406 239.34 89.3257 246.055 87.5817C248.474 86.9495 251.112 86.6878 253.663 86.884C253.554 86.6224 253.423 86.3608 253.292 86.0774C250.545 85.9466 247.733 86.3391 245.008 87.1239Z" fill="white"/>
<path opacity="0.6" d="M239.406 115.289C227.612 117.055 213.769 121.873 210.041 134.604C206.706 145.962 215.426 156.404 225.476 160.524C228.179 161.636 230.969 162.29 233.803 162.617L234.915 161.985C232.277 161.745 229.639 161.244 227.089 160.328C216.32 156.535 206.749 145.33 211.24 133.471C215.6 121.917 227.394 118.232 238.643 116.292L238.294 115.682C240.278 115.682 242.262 115.355 244.136 114.679C242.523 114.875 240.954 115.071 239.406 115.289Z" fill="white"/>
<path opacity="0.6" d="M168.163 199.873L169.231 199.263C175.292 184.483 179.804 169.048 177.995 152.916C176.883 142.954 173.264 132.817 166.375 125.339C163.454 122.178 159.814 119.453 155.563 118.407C150.919 117.251 146.189 118.407 142.069 120.652C132.934 125.601 126.656 136.261 116.41 139.117L116.737 139.705C121.206 138.288 125.326 135.302 128.858 132.184C136.771 125.187 146.45 114.941 158.091 120.085C167.814 124.402 173.526 135.781 175.924 145.591C180.524 164.23 175.335 182.564 168.163 199.873Z" fill="white"/>
<path opacity="0.6" d="M151.617 88.5627C148.957 93.1843 144.336 96.8031 140.085 99.8769C135.398 103.278 130.275 106.068 124.868 108.183C117.958 110.886 109.761 112.608 104.18 117.622L104.551 118.254C108.126 114.984 112.835 113.153 117.369 111.583C123.059 109.621 128.618 107.681 133.872 104.716C138.777 101.948 143.398 98.6125 147.475 94.7321C150.331 92.0071 153.099 88.7589 153.862 84.7913C154.625 80.9109 153.514 77.3357 151.399 74.2401L150.636 74.6761C153.492 78.7309 154.473 83.5705 151.617 88.5627Z" fill="white"/>
</g>
<path d="M100.322 161.941C100.322 161.941 102.153 163.882 102.044 164.339C101.957 164.819 99.9946 165.255 99.9946 165.255L100.322 161.941Z" fill="#D28572"/>
<path d="M97.7493 165.735H90.2065V174.694H97.7493V165.735Z" fill="#FFBC96"/>
<path d="M97.7711 165.735V171.926C95.1987 171.512 93.3239 169.789 92.0813 166.563L95.1551 165.735H97.7711Z" fill="#1B1B43"/>
<path d="M99.7549 157.799C99.7549 157.799 103.025 169.528 96.5503 169.31C91.7979 169.157 89.3345 164.274 89.3345 164.274L92.9097 157.712L99.7549 157.799Z" fill="#FFBC96"/>
<path d="M96.1579 163.664C95.6783 162.05 95.9399 160.328 97.1389 159.282C100.322 160.241 102.589 159.5 103.657 156.557C103.657 156.557 100.518 157.342 98.2943 155.314C95.9617 153.156 91.3619 154.987 90.9695 156.339C86.3697 158.039 86.8493 162.247 90.1629 167.348C90.9913 165.495 92.9969 164.754 94.9807 164.209L96.1579 163.664Z" fill="#1B1B43"/>
<path d="M96.463 162.944C96.9644 163.903 96.7464 164.993 95.9616 165.408C95.1986 165.822 94.1522 165.364 93.6508 164.427C93.1494 163.467 93.3674 162.377 94.1522 161.963C94.937 161.549 95.9616 162.007 96.463 162.944Z" fill="#FFBC96"/>
<path d="M90.7296 282.103H82.0532L82.8162 272.991H90.2718L90.7296 282.103Z" fill="#1B1B43"/>
<path d="M81.9007 199.612C79.4591 203.318 79.0885 211.711 80.4183 215.853V275.65H92.1903L95.5039 206.065L81.9007 199.612Z" fill="#4A7DC9"/>
<path d="M92.3428 210.119C91.9722 213.041 92.9532 216.529 94.9153 218.621L95.1551 212.169L92.3428 210.119Z" fill="#1B1B43"/>
<path d="M98.7084 251.474L95.8962 256.532L108.039 263.355L104.769 255.42L106.644 251.954L100.147 248.378L98.7084 251.474Z" fill="#1B1B43"/>
<path d="M99.1225 198.129L112.922 215.155C116.279 219.493 117.609 223.919 116.018 229.064L107.69 253.153L97.2913 249.468L103.33 223.832C96.9643 218.316 89.8357 209.465 82.5327 199.939L99.1225 198.129Z" fill="#4A7DC9"/>
<path d="M104.398 184.352C104.398 184.395 104.398 184.417 104.398 184.461C104.311 185.812 104.202 187.142 104.049 188.428C103.613 192.134 102.959 195.622 102.022 198.827C101.804 199.546 101.412 200.004 100.888 200.266C100.452 200.506 99.951 200.615 99.406 200.68C97.0734 200.854 94.7844 200.157 92.43 200.244C90.1629 200.353 88.1573 201.029 86.0645 201.574C85.6067 201.683 85.1707 201.792 84.7129 201.901C84.5385 201.944 84.3641 201.966 84.1679 202.01C83.1433 202.184 81.8353 202.293 80.8107 201.923C80.2657 201.726 79.7861 201.421 79.5027 200.898C78.7615 199.59 79.9823 197.759 80.3529 196.516C80.8325 194.859 81.2249 193.181 81.5301 191.48C82.1405 187.971 82.3585 184.395 82.2277 180.842C82.0751 176.22 85.4977 172.166 90.1193 171.686C90.1411 171.686 90.1847 171.686 90.2283 171.686C92.8225 171.424 95.3948 171.555 97.771 171.948C98.7956 172.122 99.7984 172.362 100.736 172.623C100.736 172.623 100.736 172.623 100.758 172.623C102.153 173.038 103.439 173.539 104.594 174.128C104.682 177.703 104.638 181.104 104.398 184.352Z" fill="#1FC7A2"/>
<path d="M104.398 184.33V184.483C104.311 185.834 104.202 187.164 104.049 188.45C102.349 187.535 101.739 185.682 101.521 184.177C101.499 184.134 104.398 184.33 104.398 184.33Z" fill="#1B1B43"/>
<path d="M114.862 175.501L124.214 174.084L133.523 164.754L137.796 168.699L128.858 179.142C127.441 180.777 125.457 181.823 123.299 181.997L109.063 183.262L114.862 175.501Z" fill="#FFBC96"/>
<path d="M133.523 164.775L134.613 161.157C134.613 161.157 134.962 156.709 135.55 157.211C136.117 157.712 136.488 161.069 136.488 161.069C136.488 161.069 138.798 155.074 139.692 155.074C140.586 155.074 139.016 160.939 139.016 160.939C139.016 160.939 141.48 161.702 141.654 163.467C141.741 164.47 137.817 168.721 137.817 168.721L133.043 169.048L133.523 164.775Z" fill="#FFBC96"/>
<path d="M100.736 172.623C105.859 173.866 110.786 175 114.84 175.501L113.903 184.701L98.6865 184.134L100.736 172.623Z" fill="#1FC7A2"/>
<path d="M114.819 175.697C109.303 174.934 103.548 173.735 97.7056 172.122L97.8146 171.73C103.635 173.321 109.369 174.52 114.862 175.283L114.819 175.697Z" fill="#1B1B43"/>
<path d="M457.733 249.163C456.381 249.795 455.138 250.689 454.332 251.932C453.525 253.174 453.176 254.766 453.656 256.161C453.983 257.142 454.702 258.014 454.659 259.06C454.637 259.932 454.048 260.695 453.46 261.328C452.849 261.96 452.173 262.57 451.846 263.377C451.498 264.183 451.629 265.273 452.37 265.709C452.653 265.884 453.024 265.971 453.154 266.254C453.329 266.669 452.937 267.083 452.631 267.41C451.672 268.456 451.476 270.135 452.173 271.377C452.871 272.62 454.419 273.318 455.792 273.034L476.568 264.99C477.571 263.856 477.178 262.091 476.568 260.695C476.415 260.368 476.241 260.02 476.001 259.758C475.718 259.453 475.347 259.235 474.998 259.017C474.257 258.581 473.538 258.145 472.796 257.731C472.469 257.534 472.121 257.338 471.946 256.989C471.532 256.205 472.142 255.071 471.554 254.417C471.14 253.959 470.355 254.046 469.897 253.632C469.417 253.196 469.483 252.477 469.374 251.845C468.96 249.577 465.799 248.596 463.989 248.335C461.678 247.986 459.782 248.226 457.733 249.163Z" fill="#1FC7A2"/>
<path d="M471.684 263.268L466.845 267.432L465.537 265.927L461.896 261.676L463.924 259.954L466.736 257.513L471.684 263.268Z" fill="#FFBC96"/>
<path d="M465.537 265.927L461.896 261.698L463.924 259.954L466.736 259.605C467.106 261.894 466.627 263.987 465.537 265.927Z" fill="#1B1B43"/>
<path d="M466.54 254.439C467.957 257.883 466.736 262.2 464.665 263.072C462.507 263.965 459.564 262.832 457.013 258.385C455.16 255.158 456.664 252.019 459.302 250.929C461.94 249.839 465.123 250.994 466.54 254.439Z" fill="#FFBC96"/>
<path d="M464.643 254.526C464.403 254.33 464.142 254.134 463.837 254.134C463.531 254.134 463.248 254.352 462.943 254.504C462.659 254.657 462.311 254.766 462.049 254.548C461.918 254.439 461.831 254.264 461.722 254.112C461.526 253.828 461.264 253.589 460.959 253.545C460.654 253.501 460.327 253.698 460.218 254.046C460.131 254.308 460.196 254.613 460.152 254.897C460.087 255.354 459.716 255.703 459.324 255.681C458.975 255.66 458.605 255.333 458.299 255.551C458.016 255.747 458.016 256.226 458.081 256.619C458.147 257.011 458.212 257.469 457.994 257.752C457.82 257.992 457.515 258.014 457.253 257.992C456.991 257.949 456.73 257.883 456.468 257.97C456.207 258.058 456.01 258.428 456.119 258.712C455.858 258.363 455.662 257.927 455.596 257.469C455.531 257.055 455.531 256.641 455.574 256.226C455.792 253.698 457.275 251.387 459.237 250.493C459.586 250.34 459.956 250.21 460.327 250.122C462.027 249.73 463.815 250.035 465.341 250.994C466.017 251.409 466.649 251.954 467.107 252.673C467.586 253.436 467.848 254.373 467.826 255.333C467.826 256.03 467.608 256.771 467.128 257.098C466.889 257.251 466.235 257.447 465.973 257.273C465.668 257.055 465.82 256.902 465.799 256.532C465.755 255.66 465.188 254.984 464.643 254.526Z" fill="#1FC7A2"/>
<path d="M466.496 257.818C467.519 257.818 468.349 256.988 468.349 255.965C468.349 254.941 467.519 254.112 466.496 254.112C465.473 254.112 464.643 254.941 464.643 255.965C464.643 256.988 465.473 257.818 466.496 257.818Z" fill="#FFBC96"/>
<path d="M476.568 341.944L477.004 349.051L463.27 349.073L469.439 343.143L469.112 339.197L476.503 338.543L476.568 341.944Z" fill="#1B1B43"/>
<path d="M487.642 296.295L485.724 298.409L483.457 300.916L481.037 303.576L472.382 313.124L478.246 340.963H467.085L459.804 319.446C457.82 313.648 458.997 307.238 462.899 302.508L470.377 293.417L473.995 289.014L476.677 287.749L480.383 286.005L483.086 289.842L487.642 296.295Z" fill="#4A7DC9"/>
<path d="M485.724 298.409L481.037 303.576C479.685 300.982 480.492 297.298 482.432 295.946L485.724 298.409Z" fill="#1B1B43"/>
<path d="M517.247 335.796L521.432 341.552L509.835 348.942L511.862 340.614L509.486 337.475L515.372 332.941L517.247 335.796Z" fill="#1B1B43"/>
<path d="M517.814 332.941L516.135 334.118L510.162 338.347L507.633 340.135L495.665 319.991C491.981 315.937 487.839 309.026 483.479 300.916C481.931 298.017 480.339 294.965 478.748 291.848C478.072 290.496 477.396 289.144 476.699 287.771C476.394 287.182 476.088 286.572 475.783 285.962L480.012 284.152L487.446 280.991L488.623 283.019L489.648 284.784L517.814 332.941Z" fill="#4A7DC9"/>
<path opacity="0.6" d="M489.648 284.784C487.577 286.877 481.691 292.305 478.508 293.265C475.805 294.071 473.167 293.984 470.377 293.439L473.996 289.035L476.677 287.771C476.372 287.182 476.067 286.572 475.761 285.962L479.991 284.152L488.623 282.997L489.648 284.784Z" fill="#1B1B43"/>
<path d="M442.93 273.993C442.93 273.993 438.461 267.868 438.374 269.263C438.309 270.266 438.309 274.451 438.461 276.936C438.527 277.874 439.29 278.593 440.227 278.615L443.039 278.659L442.93 273.993Z" fill="#D28572"/>
<path d="M468.349 264.467L458.91 275.607L442.255 273.121L441.753 280.446L456.991 283.847C458.953 284.283 461.024 283.738 462.485 282.365L477.767 268.151L468.349 264.467Z" fill="#D1E9FF"/>
<path d="M475.107 290.976C473.385 291.608 471.488 290.692 470.856 288.883C470.442 287.706 469.941 286.398 469.374 285.068C468.48 282.888 467.477 280.533 466.714 278.157C465.057 273.1 464.382 267.998 467.717 264.336C468.872 263.05 470.595 262.352 472.295 262.614C474.846 263.006 478.683 265.121 482.716 272.86C483.762 274.865 485.201 276.609 486.923 277.983C488.318 279.073 489.822 280.446 490.237 281.514C491.283 284.109 480.753 288.905 475.107 290.976Z" fill="#D1E9FF"/>
<path d="M473.385 273.23C473.036 278.07 471.554 282.147 469.374 285.068C468.48 282.888 467.477 280.533 466.714 278.157L473.385 273.23Z" fill="#1B1B43"/>
<path d="M466.888 279.269C466.779 278.92 466.67 278.55 466.561 278.201C465.559 275.04 464.316 271.116 465.951 266.472L466.322 266.603C464.752 271.116 465.907 274.8 466.932 278.07C467.041 278.441 467.172 278.789 467.259 279.16L466.888 279.269Z" fill="#4A7DC9"/>
<path d="M442.887 279.16C442.887 279.16 438.156 272.293 438.091 273.688C438.025 274.691 437.895 279.443 438.483 281.645C438.723 282.561 439.312 283.302 440.249 283.324L443.061 283.367L442.887 279.16Z" fill="#FFBC96"/>
<path d="M472.208 264.925L458.91 280.337L442.255 277.852L441.753 285.177L456.991 288.578C458.953 289.014 461.024 288.469 462.485 287.095L477.767 272.882L472.208 264.925Z" fill="#D1E9FF"/>
<path d="M458.997 280.533L442.233 278.048L442.298 277.656L458.845 280.119L470.769 266.167L471.074 266.429L458.997 280.533Z" fill="#4A7DC9"/>
<path d="M438.374 231.549V349.073H320.851V310.574C323.401 312.013 326.257 312.819 329.309 312.819C339.969 312.819 348.624 302.748 348.624 290.3C348.624 277.852 339.969 267.78 329.309 267.78C326.279 267.78 323.423 268.587 320.851 270.048V231.527H363.099C362.031 229.282 361.442 226.84 361.442 224.268C361.442 213.607 371.514 204.953 383.962 204.953C396.388 204.953 406.481 213.607 406.481 224.268C406.481 226.84 405.892 229.282 404.824 231.527H438.374V231.549Z" fill="#4A7DC9"/>
<g opacity="0.6">
<path opacity="0.6" d="M348.341 286.616C348.384 286.877 348.406 287.139 348.45 287.4C357.715 289.798 369.138 295.924 377.095 287.313C380.19 283.956 381.803 279.422 382.741 275.04C384.005 269.023 384.354 262.766 383.918 256.662C383.482 250.602 382.022 244.869 380.496 239.026C378.773 232.464 377.836 225.728 381.302 219.559C384.616 213.629 389.869 210.098 395.821 207.874C395.516 207.721 395.21 207.569 394.905 207.416C391.592 208.746 388.452 210.534 385.684 213.019C382.261 216.071 379.58 220.038 378.577 224.551C377.226 230.568 379.079 236.65 380.648 242.427C382.479 249.25 383.526 256.183 383.351 263.268C383.199 269.415 382.479 275.955 379.929 281.623C377.269 287.509 372.342 291.433 365.672 291.128C359.611 290.823 354.118 288.076 348.341 286.616Z" fill="white"/>
<path opacity="0.6" d="M438.374 315.806C431.66 323.436 420.302 325.354 410.558 325.071C392.398 324.548 370.773 316.394 354.248 327.643C347.011 332.57 343.152 340.636 342.04 349.094H342.803C343.871 341.137 347.359 333.507 354.03 328.711C370.489 316.852 392.682 325.42 410.972 325.834C419.953 326.052 429.502 324.526 436.587 318.574C437.241 318.029 437.808 317.463 438.374 316.874V315.806Z" fill="white"/>
<path opacity="0.6" d="M430.701 231.549H429.742C429.589 231.81 429.436 232.05 429.284 232.312C419.496 248.88 421.37 270.157 432.75 285.373C434.603 287.836 436.63 290.431 438.396 293.134V291.608C436.805 289.341 435.039 287.182 433.404 284.981C430.439 281.013 427.998 276.762 426.363 272.075C423.114 262.788 422.809 252.499 425.512 243.037C426.668 238.917 428.455 235.059 430.701 231.549Z" fill="white"/>
</g>
<path d="M336.547 231.549L325.45 231.592L330.748 226.993L330.573 221.521L335.544 221.041L336.547 231.549Z" fill="#1B1B43"/>
<path d="M342.498 163.053C342.498 163.119 342.498 163.162 342.476 163.228C342.084 166.607 341.735 170.225 341.408 174.019C341.081 177.812 340.754 181.801 340.449 185.965C339.555 197.759 338.683 210.817 337.528 224.333H328.59C328.917 205.868 328.917 188.341 330.726 172.231C331.075 169.179 331.489 166.171 331.969 163.206C332.1 162.421 332.23 161.658 332.383 160.873L337.005 161.854L342.498 163.053Z" fill="#1FC7A2"/>
<path d="M358.128 231.549L347.01 231.592L351.457 226.666L350.28 221.019L355.599 220.736L358.128 231.549Z" fill="#1B1B43"/>
<path d="M357.91 224.333H348.645C345.79 212.583 342.847 199.786 340.449 185.965C339.751 181.997 339.097 177.921 338.508 173.779C338.029 170.313 337.571 166.803 337.179 163.228C337.113 162.77 337.07 162.334 337.026 161.876C336.982 161.527 336.939 161.178 336.917 160.808L349.147 161.702C349.169 162.203 349.212 162.704 349.256 163.206C349.517 166.825 349.844 170.4 350.215 173.91C352.068 191.241 355.207 207.373 357.91 224.333Z" fill="#1FC7A2"/>
<path d="M350.215 173.91C347.49 174.128 344.438 174.171 341.43 174.019C340.449 173.953 339.49 173.888 338.53 173.779C335.696 173.495 332.993 172.994 330.748 172.231C331.097 169.179 331.511 166.171 331.99 163.206H349.234C349.496 166.846 349.823 170.4 350.215 173.91Z" fill="#BE443D"/>
<path d="M339.213 177.96L338.827 178.031L340.94 189.59L341.326 189.519L339.213 177.96Z" fill="#1B1B43"/>
<path d="M307.509 122.527C307.008 120.783 306.681 119.104 306.768 117.622H312.916L312.283 122.592L310.561 122.898L307.509 122.527Z" fill="#D28572"/>
<path d="M312.283 122.636L307.531 122.549L308.01 127.388C309.297 127.04 311.455 125.448 312.915 125.056L312.283 122.636Z" fill="#D28572"/>
<path d="M331.227 141.667L316.055 137.155L312.894 125.056C311.433 125.448 307.967 126.604 306.659 126.952L308.556 138.703C308.73 139.727 309.057 140.752 309.646 141.624C310.452 142.823 311.455 143.542 312.48 144L332.121 150.889L331.227 141.667Z" fill="#4A7DC9"/>
<path d="M327.674 149.319L330.9 150.431L330.835 148.207L327.674 149.319Z" fill="#1B1B43"/>
<path d="M374.871 123.334C375.373 121.59 375.7 119.911 375.612 118.429H369.465L370.097 123.399L371.819 123.704L374.871 123.334Z" fill="#D28572"/>
<path d="M370.097 123.443L374.849 123.355L374.501 128.151C373.214 127.803 370.925 126.255 369.465 125.862L370.097 123.443Z" fill="#D28572"/>
<path d="M375.699 127.759L373.803 139.509C373.628 140.534 373.301 141.558 372.713 142.43C371.906 143.608 370.903 144.349 369.879 144.807L353.267 150.54L350.041 151.652L349.125 151.979L349.866 141.711L366.304 138.005L369.465 125.906C370.598 126.211 372.953 126.974 374.544 127.476C375.002 127.563 375.394 127.672 375.699 127.759Z" fill="#4A7DC9"/>
<path d="M353.267 150.518L350.041 151.63L350.128 149.406L353.267 150.518Z" fill="#1B1B43"/>
<path d="M350.041 141.667C344.547 140.795 336.22 140.185 331.075 141.58L330.617 161.2C330.617 161.92 330.486 162.617 330.29 163.293C329.571 165.582 328.982 167.173 331.685 168.024C334.737 169.005 338.291 169.288 341.473 169.31C343.566 169.332 349.43 169.68 350.39 167.261C350.869 166.04 349.91 163.075 349.866 161.593C349.801 159.238 350.084 153.527 350.106 151.172C350.106 150.518 350.041 141.667 350.041 141.667Z" fill="#4A7DC9"/>
<path d="M340.493 144.196C338.749 144.196 337.354 142.779 337.354 141.057V136.065H343.632V141.057C343.632 142.779 342.237 144.196 340.493 144.196Z" fill="#D28572"/>
<path d="M343.631 137.94C342.084 142.125 339.075 141.471 337.331 137.961L340.078 137.177L343.631 137.94Z" fill="#1B1B43"/>
<path d="M345.245 133.34C345.223 137.482 342.542 139.487 340.514 139.487C338.618 139.487 335.893 137.765 335.784 133.34C335.697 129.939 337.898 127.192 340.514 127.192C343.109 127.192 345.245 129.939 345.245 133.34Z" fill="#D28572"/>
<path d="M335.74 132.577C335.958 131.4 336.547 130.288 337.419 129.481C337.658 129.786 338.073 129.939 338.465 129.895C338.857 129.83 339.184 129.547 339.315 129.176C339.424 129.612 339.838 129.939 340.274 129.983C340.71 130.026 341.168 129.743 341.343 129.35C341.473 129.677 341.8 129.917 342.149 129.961C342.498 129.983 342.869 129.808 343.043 129.481C344.046 130.31 344.656 131.574 344.7 132.86L345.615 133.34C345.964 132.751 346.182 132.075 346.204 131.4C346.226 131.051 346.204 130.702 346.117 130.375C346.051 130.157 345.812 129.83 345.942 129.612C346.182 129.22 346.553 128.718 346.422 128.173C346.378 128.021 345.659 127.236 345.463 127.476C345.746 126.887 345.376 126.451 345.092 126.255C344.809 126.059 344.46 126.08 344.133 126.102C344.177 125.47 343.632 124.947 343.108 124.881C342.563 124.838 342.062 125.121 341.582 125.383C341.473 124.925 341.146 124.576 340.754 124.445C340.362 124.336 339.947 124.467 339.664 124.816C339.402 124.467 338.966 124.315 338.596 124.445C338.225 124.576 337.92 124.969 337.855 125.426C337.44 125.143 336.917 125.143 336.525 125.426C336.111 125.71 335.849 126.255 335.849 126.822C335.369 126.909 334.955 127.345 334.824 127.89C334.694 128.457 334.868 129.089 335.239 129.459C334.585 130.484 334.497 131.966 334.999 133.078L335.74 132.577Z" fill="#1B1B43"/>
<path d="M336.808 133.253C336.808 134.059 336.263 134.713 335.588 134.713C334.912 134.713 334.367 134.059 334.367 133.253C334.367 132.446 334.912 131.792 335.588 131.792C336.263 131.792 336.808 132.446 336.808 133.253Z" fill="#D28572"/>
<path d="M346.575 133.209C346.575 133.994 346.008 134.626 345.31 134.626C344.613 134.626 344.046 133.994 344.046 133.209C344.046 132.424 344.613 131.792 345.31 131.792C346.008 131.792 346.575 132.424 346.575 133.209Z" fill="#D28572"/>
<path d="M397.63 0.926636V118.45H364.08C365.148 116.205 365.737 113.763 365.737 111.191C365.737 100.531 355.643 91.8762 343.217 91.8762C330.77 91.8762 320.698 100.531 320.698 111.191C320.698 113.763 321.287 116.205 322.355 118.45H280.106V79.8644C282.657 81.325 285.513 82.1316 288.565 82.1316C299.225 82.1316 307.88 72.06 307.88 59.6122C307.88 47.1862 299.225 37.0928 288.565 37.0928C285.535 37.0928 282.679 37.8994 280.106 39.36V0.926636H397.63Z" fill="#1FC7A2"/>
<path opacity="0.6" d="M397.63 12.8731C391.831 10.8675 385.793 9.71207 379.536 10.0609C371.884 10.4969 364.429 13.3091 358.325 17.9307C351.981 22.7267 347.665 29.2231 344.765 36.5697C341.408 45.0717 339.664 54.1405 335.784 62.4463C332.405 69.6621 327.718 76.2021 322.071 81.8047C310.801 93.0317 295.868 100.422 280.106 102.231V102.972C292.903 101.534 305.155 96.4543 315.422 88.6063C327.914 79.0361 336.067 66.2395 340.71 51.3501C343.435 42.6083 345.724 33.4087 351.327 25.9749C356.603 18.9335 364.429 13.8977 372.953 11.8049C381.433 9.73387 389.717 10.9547 397.652 13.7233V12.8731H397.63Z" fill="white"/>
<path d="M312.218 122.767C312.218 122.767 315.095 115.507 314.223 114.941C313.33 114.374 311.673 118.45 311.215 121.372L312.218 122.767Z" fill="#D28572"/>
<path d="M370.162 123.573C370.162 123.573 367.285 116.314 368.157 115.747C369.051 115.18 370.707 119.257 371.165 122.178L370.162 123.573Z" fill="#D28572"/>
<path d="M289.72 290.322C289.72 302.748 281.065 312.841 270.405 312.841C267.375 312.841 264.519 312.034 261.947 310.596V349.094H144.445V231.571H188.11C186.301 234.339 185.276 237.544 185.276 240.945C185.276 251.605 195.348 260.259 207.796 260.259C220.222 260.259 230.315 251.605 230.315 240.945C230.315 237.544 229.29 234.339 227.481 231.571H261.969V270.091C264.519 268.631 267.375 267.824 270.427 267.824C281.087 267.802 289.72 277.874 289.72 290.322Z" fill="#D1E9FF"/>
<path d="M197.223 333.006C196.896 323.24 195.217 313.212 185.952 308.001C169.951 299.02 152.816 310.487 144.467 324.678V326.052C147.453 320.471 151.573 315.501 156.827 311.707C164.784 305.93 175.183 303.62 184.317 308.001C194.41 312.819 196.154 323.283 196.503 333.42C196.678 338.63 196.743 343.862 196.743 349.073H197.484C197.462 343.732 197.397 338.369 197.223 333.006Z" fill="#4A7DC9"/>
<path d="M240.409 277.503C245.488 282.517 252.856 279.705 258.197 276.697C262.666 274.168 266.83 271.181 270.667 267.802C270.58 267.802 270.514 267.802 270.427 267.802C270.122 267.802 269.817 267.824 269.512 267.824C265.893 270.92 261.991 273.688 257.827 276.043C253.837 278.288 248.758 280.686 244.136 278.986C240.038 277.503 238.098 273.318 237.378 269.306C235.94 261.393 237.923 252.586 241.106 245.305C243.33 240.225 246.382 235.582 250.11 231.527H249.129C241.978 239.549 237.4 249.774 236.419 260.565C235.874 266.211 236.092 273.252 240.409 277.503Z" fill="#4A7DC9"/>
<path d="M277.708 311.162C277.992 311.032 278.275 310.879 278.537 310.748C274.264 306.41 269.163 303.075 262.623 301.614C253.903 299.674 245.488 302.922 240.19 310.072C234.283 318.029 233.498 328.232 235.896 337.628C236.877 341.486 238.316 345.432 240.147 349.116H241.084C239.079 345.105 237.444 340.919 236.419 336.581C234.261 327.316 235.307 317.288 241.433 309.724C247.493 302.224 256.976 300.11 265.914 303.402C270.471 305.037 274.329 307.805 277.708 311.162Z" fill="#4A7DC9"/>
<path d="M144.445 291.346V292.196C154.604 286.572 162.757 277.416 166.877 266.472C171.128 255.245 170.801 242.645 166.506 231.549H165.7C169.929 242.34 170.365 254.57 166.397 265.6C162.495 276.522 154.495 285.678 144.445 291.346Z" fill="#4A7DC9"/>
<path d="M561.784 348.092H0.216064V349.094H561.784V348.092Z" fill="#1B1B43"/>
</svg>
