<svg width="489" height="429" viewBox="0 0 489 429" fill="none" xmlns="http://www.w3.org/2000/svg">
<path d="M423.49 59.8148C433.514 49.7901 433.514 33.537 423.49 23.5123C413.465 13.4877 397.212 13.4877 387.187 23.5123C377.162 33.537 377.162 49.7901 387.187 59.8148C397.212 69.8395 413.465 69.8395 423.49 59.8148Z" fill="#D1E9FF"/>
<path d="M407.966 53.1474V56.711H403.466V53.3286C400.265 53.1474 397.154 52.2716 395.251 51.0938L397.698 45.5974C399.812 46.8356 402.62 47.651 405.097 47.651C407.241 47.651 407.996 47.198 407.996 46.443C407.996 43.6344 395.614 45.8994 395.614 37.534C395.614 33.91 398.241 30.89 403.496 30.135V26.6318H407.996V30.0444C410.351 30.2558 412.677 30.89 414.489 31.9168L412.224 37.383C410.019 36.2656 407.935 35.722 405.972 35.722C403.768 35.722 403.073 36.3562 403.073 37.1414C403.073 39.8292 415.455 37.5944 415.455 45.839C415.425 49.2818 412.918 52.2716 407.966 53.1474Z" fill="white"/>
<path d="M360.703 92.1056C369.292 92.1056 376.256 85.1423 376.256 76.5526C376.256 67.9629 369.292 60.9996 360.703 60.9996C352.113 60.9996 345.15 67.9629 345.15 76.5526C345.15 85.1423 352.113 92.1056 360.703 92.1056Z" fill="#D1E9FF"/>
<path d="M362.303 83.4987V85.6429H359.555V83.5893C357.622 83.4685 355.75 82.9551 354.572 82.2303L356.052 78.9083C357.32 79.6633 359.042 80.1465 360.521 80.1465C361.82 80.1465 362.273 79.8747 362.273 79.4217C362.273 77.7003 354.783 79.0895 354.783 74.0461C354.783 71.8415 356.384 69.9993 359.555 69.5765V67.4625H362.303V69.5463C363.723 69.6671 365.142 70.0597 366.229 70.6637L364.84 73.9857C363.511 73.3213 362.243 72.9891 361.065 72.9891C359.736 72.9891 359.313 73.3817 359.313 73.8347C359.313 75.4655 366.803 74.1065 366.803 79.1197C366.803 81.1431 365.293 82.9853 362.303 83.4987Z" fill="white"/>
<path d="M413.873 89.2445C415.369 82.7945 411.353 76.353 404.903 74.8572C398.453 73.3614 392.011 77.3776 390.516 83.8277C389.02 90.2778 393.036 96.7192 399.486 98.215C405.936 99.7108 412.377 95.6946 413.873 89.2445Z" fill="#D1E9FF"/>
<path d="M403.436 91.8943V93.5553H401.322V91.9547C399.812 91.8641 398.362 91.4715 397.486 90.8977L398.634 88.3307C399.63 88.9045 400.929 89.2971 402.077 89.2971C403.073 89.2971 403.436 89.0857 403.436 88.7233C403.436 87.3945 397.637 88.4817 397.637 84.5557C397.637 82.8645 398.875 81.4451 401.322 81.1129V79.4821H403.436V81.0827C404.553 81.1733 405.61 81.4753 406.486 81.9585L405.429 84.5255C404.402 84.0121 403.435 83.7403 402.499 83.7403C401.472 83.7403 401.14 84.0423 401.14 84.4047C401.14 85.6731 406.939 84.6161 406.939 88.4817C406.908 90.0823 405.761 91.4715 403.436 91.8943Z" fill="white"/>
<path d="M353.877 34.2122H352.126V46.7754H353.877V34.2122Z" fill="#91C4FF"/>
<path d="M359.283 39.6181H346.72V41.3697H359.283V39.6181Z" fill="#91C4FF"/>
<path d="M369.551 0.539162H366.924V19.4444H369.551V0.539162Z" fill="#91C4FF"/>
<path d="M377.675 8.69317H358.77V11.3206H377.675V8.69317Z" fill="#91C4FF"/>
<path d="M428.804 97.1491H426.81V111.464H428.804V97.1491Z" fill="#91C4FF"/>
<path d="M434.964 103.31H420.65V105.303H434.964V103.31Z" fill="#91C4FF"/>
<path opacity="0.4" d="M207.722 64.305C216.815 55.212 216.815 40.4694 207.722 31.3765C198.629 22.2835 183.886 22.2835 174.793 31.3765C165.7 40.4694 165.7 55.212 174.793 64.305C183.886 73.398 198.629 73.398 207.722 64.305Z" fill="#E5E5FF"/>
<path opacity="0.4" d="M246.849 354.997C261.326 354.997 273.062 343.261 273.062 328.783C273.062 314.306 261.326 302.57 246.849 302.57C232.371 302.57 220.635 314.306 220.635 328.783C220.635 343.261 232.371 354.997 246.849 354.997Z" fill="#E5E5FF"/>
<path d="M198.317 367.228C198.045 367.228 197.774 367.228 197.502 367.228V366.473C198.74 366.503 200.008 366.473 201.247 366.382L201.277 367.137C200.31 367.197 199.284 367.228 198.317 367.228ZM193.697 367.016C192.428 366.895 191.16 366.744 189.922 366.533L190.042 365.778C191.25 365.989 192.519 366.14 193.757 366.261L193.697 367.016ZM205.052 366.775L204.961 366.02C206.199 365.869 207.438 365.627 208.646 365.385L208.797 366.11C207.589 366.382 206.32 366.593 205.052 366.775ZM186.207 365.748C184.969 365.446 183.761 365.083 182.553 364.691L182.794 363.966C183.972 364.359 185.18 364.691 186.388 364.993L186.207 365.748ZM212.511 365.204L212.3 364.479C213.508 364.117 214.686 363.724 215.863 363.302L216.135 363.996C214.927 364.449 213.719 364.842 212.511 365.204ZM178.989 363.392C177.811 362.909 176.664 362.365 175.546 361.792L175.879 361.127C176.996 361.701 178.144 362.214 179.291 362.698L178.989 363.392ZM219.608 362.516L219.276 361.822C220.393 361.308 221.511 360.704 222.598 360.1L222.96 360.765C221.873 361.399 220.756 361.973 219.608 362.516ZM172.194 359.919C171.107 359.255 170.05 358.56 169.023 357.835L169.476 357.231C170.503 357.956 171.53 358.651 172.587 359.285L172.194 359.919ZM226.222 358.772L225.799 358.137C226.826 357.443 227.853 356.718 228.819 355.933L229.272 356.537C228.306 357.322 227.279 358.077 226.222 358.772ZM166.033 355.51C165.067 354.695 164.131 353.849 163.225 352.973L163.738 352.43C164.614 353.305 165.55 354.151 166.517 354.936L166.033 355.51ZM232.202 354.091L231.688 353.547C232.594 352.701 233.5 351.826 234.346 350.92L234.889 351.433C234.044 352.339 233.138 353.245 232.202 354.091ZM160.567 350.195C159.722 349.259 158.936 348.262 158.151 347.265L158.755 346.812C159.51 347.809 160.295 348.775 161.111 349.712L160.567 350.195ZM237.396 348.564L236.822 348.081C237.607 347.114 238.362 346.118 239.057 345.091L239.691 345.514C238.966 346.571 238.211 347.598 237.396 348.564ZM156.007 344.155C155.312 343.098 154.678 341.98 154.074 340.893L154.739 340.531C155.343 341.618 155.977 342.705 156.641 343.762L156.007 344.155ZM241.745 342.313L241.08 341.92C241.715 340.833 242.319 339.746 242.862 338.628L243.527 338.96C242.983 340.108 242.379 341.225 241.745 342.313ZM152.383 337.481C151.87 336.333 151.386 335.155 150.964 333.947L151.688 333.706C152.111 334.883 152.564 336.031 153.078 337.179L152.383 337.481ZM245.067 335.487L244.372 335.216C244.825 334.068 245.248 332.86 245.61 331.682L246.335 331.894C245.973 333.102 245.55 334.31 245.067 335.487ZM149.816 330.323C149.484 329.115 149.182 327.847 148.94 326.609L149.695 326.458C149.937 327.666 150.209 328.904 150.541 330.112L149.816 330.323ZM247.332 328.239L246.607 328.058C246.879 326.85 247.12 325.612 247.302 324.374L248.057 324.495C247.845 325.733 247.604 327.001 247.332 328.239ZM148.336 322.864C148.185 321.626 148.095 320.327 148.034 319.089L148.789 319.059C148.85 320.297 148.94 321.565 149.091 322.803L148.336 322.864ZM248.479 320.72L247.724 320.659C247.815 319.421 247.875 318.153 247.875 316.914H248.63C248.6 318.183 248.57 319.451 248.479 320.72ZM247.845 316.431C247.845 315.193 247.785 313.925 247.664 312.686L248.419 312.626C248.54 313.894 248.6 315.163 248.6 316.431H247.845ZM148.789 315.314L148.034 315.284C148.064 314.015 148.155 312.747 148.306 311.478L149.061 311.569C148.91 312.807 148.819 314.045 148.789 315.314ZM247.211 308.972C247 307.734 246.758 306.495 246.486 305.287L247.211 305.106C247.513 306.344 247.755 307.583 247.966 308.821L247.211 308.972ZM149.574 307.854L148.819 307.703C149.061 306.465 149.333 305.227 149.665 303.989L150.39 304.17C150.088 305.408 149.816 306.646 149.574 307.854ZM245.459 301.694C245.067 300.516 244.644 299.338 244.161 298.19L244.855 297.919C245.339 299.096 245.761 300.274 246.154 301.482L245.459 301.694ZM151.507 300.637L150.782 300.395C151.205 299.187 151.658 298.009 152.172 296.862L152.866 297.164C152.353 298.281 151.9 299.459 151.507 300.637ZM242.651 294.778C242.107 293.66 241.503 292.573 240.839 291.486L241.473 291.093C242.137 292.181 242.741 293.298 243.315 294.415L242.651 294.778ZM154.497 293.751L153.833 293.389C154.437 292.271 155.071 291.154 155.735 290.097L156.369 290.489C155.705 291.577 155.071 292.664 154.497 293.751ZM238.785 288.345C238.06 287.318 237.305 286.322 236.52 285.386L237.094 284.902C237.909 285.869 238.664 286.896 239.389 287.922L238.785 288.345ZM158.483 287.439L157.879 286.986C158.634 285.959 159.42 284.963 160.265 284.027L160.839 284.51C160.024 285.446 159.238 286.443 158.483 287.439ZM234.014 282.577C233.138 281.671 232.232 280.795 231.326 279.98L231.839 279.406C232.775 280.252 233.712 281.127 234.587 282.033L234.014 282.577ZM163.376 281.762L162.832 281.218C163.738 280.342 164.674 279.466 165.641 278.651L166.124 279.225C165.188 280.04 164.282 280.886 163.376 281.762ZM228.457 277.594C227.46 276.839 226.433 276.114 225.407 275.42L225.829 274.785C226.886 275.48 227.943 276.205 228.94 276.99L228.457 277.594ZM169.084 276.899L168.631 276.295C169.657 275.54 170.714 274.846 171.771 274.181L172.164 274.816C171.137 275.48 170.08 276.175 169.084 276.899ZM222.175 273.487C221.088 272.883 219.971 272.309 218.823 271.796L219.125 271.101C220.273 271.614 221.42 272.188 222.538 272.822L222.175 273.487ZM175.426 272.943L175.063 272.279C176.181 271.705 177.328 271.161 178.506 270.648L178.808 271.343C177.66 271.856 176.543 272.369 175.426 272.943ZM215.35 270.376C214.172 269.953 212.994 269.561 211.786 269.229L211.998 268.504C213.206 268.836 214.414 269.229 215.622 269.682L215.35 270.376ZM182.311 270.014L182.07 269.289C183.278 268.896 184.486 268.504 185.724 268.202L185.905 268.927C184.697 269.259 183.489 269.621 182.311 270.014ZM208.162 268.353C206.954 268.111 205.716 267.9 204.478 267.749L204.569 266.994C205.837 267.145 207.075 267.356 208.313 267.598L208.162 268.353ZM189.559 268.141L189.438 267.386C190.677 267.175 191.945 266.994 193.213 266.873L193.304 267.628C192.005 267.749 190.767 267.93 189.559 268.141ZM200.733 267.417C199.495 267.356 198.227 267.356 196.988 267.386L196.958 266.631C198.227 266.601 199.495 266.601 200.763 266.662L200.733 267.417Z" fill="#91C4FF"/>
<path d="M157.426 68.7912V68.0362C158.665 68.0362 159.933 67.9456 161.141 67.7946L161.232 68.5496C159.993 68.6704 158.695 68.761 157.426 68.7912ZM153.621 68.5798C152.353 68.4288 151.084 68.2174 149.846 67.9456L150.027 67.2208C151.235 67.4926 152.474 67.704 153.712 67.855L153.621 68.5798ZM164.976 67.7946L164.795 67.0698C166.003 66.7678 167.181 66.3752 168.359 65.9222L168.631 66.6168C167.453 67.1 166.215 67.4926 164.976 67.7946ZM146.192 66.8584C145.014 66.4356 143.836 65.9222 142.689 65.3182L143.021 64.6538C144.138 65.2276 145.286 65.7108 146.434 66.1336L146.192 66.8584ZM172.104 65.0464L171.741 64.382C172.828 63.8082 173.885 63.1438 174.912 62.419L175.335 63.023C174.308 63.778 173.221 64.4726 172.104 65.0464ZM139.397 63.3854C138.34 62.6908 137.313 61.9056 136.377 61.06L136.86 60.4862C137.796 61.3016 138.793 62.0566 139.82 62.7512L139.397 63.3854ZM178.325 60.6976L177.811 60.1238C178.748 59.3084 179.623 58.4024 180.439 57.4662L181.013 57.9796C180.197 58.946 179.291 59.852 178.325 60.6976ZM133.629 58.4024C132.783 57.4662 131.968 56.4696 131.243 55.4428L131.847 54.9898C132.572 55.9864 133.357 56.983 134.203 57.889L133.629 58.4024ZM183.368 54.9596L182.734 54.5368C183.429 53.51 184.093 52.453 184.667 51.3356L185.331 51.698C184.757 52.8154 184.093 53.9328 183.368 54.9596ZM129.22 52.2114C128.616 51.094 128.072 49.9464 127.589 48.7686L128.283 48.4968C128.736 49.6444 129.28 50.792 129.854 51.8792L129.22 52.2114ZM186.902 48.1948L186.207 47.923C186.63 46.7754 187.022 45.5674 187.294 44.3594L188.019 44.5406C187.717 45.7788 187.355 47.017 186.902 48.1948ZM126.411 45.1144C126.079 43.8762 125.837 42.638 125.656 41.3696L126.411 41.279C126.592 42.5172 126.834 43.7252 127.136 44.9332L126.411 45.1144ZM188.714 40.7958L187.959 40.7052C188.11 39.467 188.17 38.2288 188.17 36.9906C188.17 36.6282 188.17 36.2356 188.14 35.8732L188.895 35.843C188.895 36.2356 188.925 36.6282 188.925 36.9906C188.925 38.259 188.865 39.5576 188.714 40.7958ZM125.354 37.5644C125.354 37.3832 125.354 37.1718 125.354 36.9906C125.354 35.9034 125.414 34.8162 125.505 33.7592L126.26 33.8498C126.169 34.9068 126.109 35.9638 126.109 37.0208C126.109 37.202 126.109 37.3832 126.109 37.5946L125.354 37.5644ZM187.808 32.1586C187.626 30.9204 187.355 29.7124 187.022 28.5044L187.747 28.293C188.079 29.501 188.381 30.7694 188.563 32.0076L187.808 32.1586ZM126.864 30.1654L126.139 30.0144C126.411 28.7762 126.773 27.538 127.196 26.3602L127.921 26.6018C127.498 27.7494 127.136 28.9574 126.864 30.1654ZM185.784 25.0012C185.301 23.8536 184.757 22.7362 184.153 21.649L184.818 21.2866C185.452 22.404 186.026 23.5516 186.509 24.6992L185.784 25.0012ZM129.371 23.159L128.706 22.8268C129.28 21.6792 129.914 20.592 130.609 19.5048L131.243 19.9276C130.548 20.9544 129.914 22.0416 129.371 23.159ZM182.1 18.5384C181.375 17.5418 180.56 16.5754 179.714 15.6694L180.258 15.156C181.133 16.0922 181.949 17.0586 182.704 18.0854L182.1 18.5384ZM133.448 16.9378L132.874 16.4546C133.689 15.4882 134.595 14.552 135.501 13.7064L136.015 14.25C135.139 15.0956 134.263 16.0016 133.448 16.9378ZM176.996 13.1326C176.03 12.3474 175.033 11.5924 174.006 10.928L174.429 10.2938C175.486 10.9884 176.543 11.7434 177.509 12.5588L176.996 13.1326ZM138.914 11.8642L138.461 11.2602C139.488 10.5052 140.575 9.81063 141.662 9.20663L142.024 9.87103C140.967 10.475 139.91 11.1394 138.914 11.8642ZM170.745 9.08582C169.627 8.54222 168.48 8.05903 167.302 7.66643L167.543 6.94163C168.751 7.36443 169.929 7.84763 171.077 8.42143L170.745 9.08582ZM145.407 8.24023L145.135 7.54563C146.313 7.06243 147.521 6.63963 148.759 6.30743L148.97 7.03223C147.732 7.39463 146.554 7.78723 145.407 8.24023ZM163.708 6.66982C162.5 6.39802 161.262 6.21683 160.024 6.09603L160.084 5.34103C161.352 5.46183 162.621 5.64302 163.859 5.91482L163.708 6.66982ZM152.594 6.27723L152.474 5.52223C153.712 5.34103 155.01 5.22023 156.279 5.19003L156.309 5.94503C155.041 6.00543 153.802 6.12623 152.594 6.27723Z" fill="#91C4FF"/>
<path d="M30.3749 231.177C24.3349 231.177 19.4124 226.254 19.4124 220.214C19.4124 214.174 24.3349 209.251 30.3749 209.251C36.4149 209.251 41.3375 214.174 41.3375 220.214C41.3375 226.254 36.4149 231.177 30.3749 231.177ZM30.3749 210.792C25.1805 210.792 20.9224 215.02 20.9224 220.244C20.9224 225.469 25.1503 229.697 30.3749 229.697C35.5995 229.697 39.8275 225.469 39.8275 220.244C39.8275 215.02 35.5693 210.792 30.3749 210.792Z" fill="#91C4FF"/>
<path d="M396.55 90.5352H82.772V322.532H396.55V90.5352Z" fill="white"/>
<path d="M397.305 323.287H82.0171V89.7802H397.305V323.287ZM83.5271 321.777H395.795V91.2902H83.5271V321.777Z" fill="#91C4FF"/>
<path d="M130.186 247.183H104.516V296.862H130.186V247.183Z" fill="#D1E9FF"/>
<path d="M170.956 222.419H145.286V296.862H170.956V222.419Z" fill="#D1E9FF"/>
<path d="M211.726 171.32H186.056V296.862H211.726V171.32Z" fill="#D1E9FF"/>
<path d="M252.496 207.59H226.826V296.861H252.496V207.59Z" fill="#D1E9FF"/>
<path d="M293.266 168.21H267.596V296.862H293.266V168.21Z" fill="#D1E9FF"/>
<path d="M334.036 174.944H308.366V296.862H334.036V174.944Z" fill="#D1E9FF"/>
<path d="M374.806 130.399H349.136V296.862H374.806V130.399Z" fill="#D1E9FF"/>
<path d="M112.247 277.141L111.583 275.812L154.437 253.978L198.65 193.759L239.148 236.129L280.763 194.514L321.111 199.406L361.639 152.898L362.756 153.895L321.745 201.007L281.307 196.114L239.118 238.304L198.831 196.114L155.464 255.155L112.247 277.141Z" fill="#4A7DC9"/>
<path d="M302.809 119.195H176.483V120.705H302.809V119.195Z" fill="#4A7DC9"/>
<path d="M260.167 135.805H219.125V137.315H260.167V135.805Z" fill="#4A7DC9"/>
<path d="M77.6986 366.895C80.175 353.909 78.5442 340.108 73.1988 328.149C67.8534 316.19 58.7632 306.163 47.7402 300.002C53.3272 307.099 54.7768 316.824 55.3204 326.035C55.8942 335.276 55.8338 344.789 59.186 353.335C62.5382 361.882 70.4506 369.251 79.0878 368.194L77.6986 366.895Z" fill="#4A7DC9"/>
<path d="M77.8797 370.157C75.4033 357.171 77.0341 343.369 82.3795 331.41C87.7249 319.451 96.8151 309.424 107.838 303.264C102.251 310.361 100.801 320.085 100.258 329.296C99.6841 338.537 99.7445 348.05 96.3923 356.597C93.0401 365.143 85.1277 372.512 76.4905 371.455L77.8797 370.157Z" fill="#4A7DC9"/>
<path d="M67.9741 363.996C62.4173 354.725 60.8771 342.826 63.9273 332.316C66.9775 321.807 74.5275 312.867 84.0103 308.519C82.0171 321.807 91.8925 334.642 90.1107 347.96C88.9631 356.597 82.5003 364.147 74.4973 366.14L67.9741 363.996Z" fill="#D1E9FF"/>
<path d="M72.0208 381.814C71.9906 368.587 76.5508 355.359 84.7954 344.759C93.04 334.159 104.939 326.186 118.166 322.471C110.647 328.27 107.113 337.511 104.607 346.42C102.1 355.359 100.197 364.691 94.852 372.362C89.4764 380.032 79.3896 385.619 70.239 382.781L72.0208 381.814Z" fill="#91C4FF"/>
<path d="M76.1885 382.539C76.2187 369.311 72.0209 356.083 64.4709 345.483C56.8907 334.883 45.9885 326.91 33.8481 323.196C40.7337 328.994 43.9953 338.235 46.2905 347.144C48.5857 356.083 50.3373 365.415 55.2599 373.086C60.1825 380.757 69.4539 386.344 77.8495 383.505L76.1885 382.539Z" fill="#91C4FF"/>
<path d="M98.4157 427.718H50.5789L42.3645 377.918H106.63L98.4157 427.718Z" fill="white"/>
<path d="M98.899 428.292H50.0958L41.7002 377.344H107.325L98.899 428.292ZM51.0622 427.144H97.9326L105.966 378.462H43.029L51.0622 427.144Z" fill="#91C4FF"/>
<path d="M161.775 52.1812H16.0298V166.669H161.775V52.1812Z" fill="white"/>
<path d="M162.53 167.424H15.2749V51.4261H162.53V167.424ZM16.7849 165.914H161.02V52.9361H16.7849V165.914Z" fill="#91C4FF"/>
<path d="M68.6686 70.9656H35.811V89.5688H68.6686V70.9656Z" fill="#D1E9FF"/>
<path d="M142.357 72.7475H82.5605V73.5327H142.357V72.7475Z" fill="#91C4FF"/>
<path d="M142.357 79.8746H82.5605V80.6598H142.357V79.8746Z" fill="#D1E9FF"/>
<path d="M142.357 86.9716H82.5605V87.7568H142.357V86.9716Z" fill="#D1E9FF"/>
<path d="M58.1288 126.685H51.2734V147.946H58.1288V126.685Z" fill="#D1E9FF"/>
<path d="M64.9843 116.356H58.1289V147.976H64.9843V116.356Z" fill="#91C4FF"/>
<path d="M83.7385 112.762H76.8831V147.825H83.7385V112.762Z" fill="#D1E9FF"/>
<path d="M90.5939 134.869H83.7385V147.855H90.5939V134.869Z" fill="#91C4FF"/>
<path d="M109.348 123.665H102.493V147.945H109.348V123.665Z" fill="#D1E9FF"/>
<path d="M116.204 118.289H109.348V147.945H116.204V118.289Z" fill="#91C4FF"/>
<path d="M134.958 130.852H128.102V147.795H134.958V130.852Z" fill="#D1E9FF"/>
<path d="M141.813 107.387H134.958V147.794H141.813V107.387Z" fill="#91C4FF"/>
<path d="M141.843 148.187H36.1433V105.545H36.9587V147.372H141.843V148.187Z" fill="#91C4FF"/>
<path d="M443.783 407.273L448.313 427.537L417.539 427.476L430.374 416.393L429.438 406.336L443.783 407.273Z" fill="#1B1B43"/>
<path d="M430.708 415.954L429.989 416.81L435.076 421.084L435.794 420.228L430.708 415.954Z" fill="#EBEBFF"/>
<path d="M383.171 406.971L385.436 427.537H352.428L367.528 416.393V406.216L383.171 406.971Z" fill="#1B1B43"/>
<path d="M367.862 415.95L367.143 416.806L372.23 421.08L372.949 420.224L367.862 415.95Z" fill="#EBEBFF"/>
<path d="M449.249 409.719L444.326 409.779L429.77 409.991L421.676 410.112C413.734 382.72 406.335 355.842 400.265 330.474C399.057 325.491 397.939 320.569 396.852 315.737C392.866 297.768 389.664 280.644 387.641 264.819C387.218 261.407 386.826 258.085 386.493 254.793C386.222 252.166 386.01 249.599 385.799 247.062L422.039 253.102C422.401 256.545 422.794 259.987 423.186 263.46C428.683 310.21 438.015 359.376 449.249 409.719Z" fill="#4A7DC9"/>
<path d="M402.801 251.924L401.654 264.246L397.033 313.834L396.852 315.737L388.064 409.749H361.004C361.548 355.359 363.33 303.687 370.457 265.514C370.97 262.706 371.544 259.957 372.118 257.3L386.493 254.793L402.801 251.924Z" fill="#4A7DC9"/>
<path d="M390.929 280.68L390.188 280.824L400.502 333.917L401.243 333.773L390.929 280.68Z" fill="#1B1B43"/>
<path opacity="0.3" d="M423.216 263.4L401.654 264.246L387.641 264.789L370.457 265.484C370.97 262.675 371.544 259.927 372.118 257.269L386.493 254.763C386.221 252.135 386.01 249.568 385.799 247.032L422.039 253.072C422.431 256.514 422.824 259.957 423.216 263.4Z" fill="#1B1B43"/>
<path d="M382.899 195.329L396.791 193.608L425.783 199.678L425.965 251.924C425.965 253.343 425.391 254.733 424.334 255.699C423.367 256.605 422.099 257.118 420.8 257.118L372.178 257.3L362.816 229.002L371.846 202.275L382.899 195.329Z" fill="#1FC7A2"/>
<path d="M400.204 206.775C397.214 206.775 394.315 205.718 392.05 203.574L392.443 203.151C396.761 207.198 403.526 207.198 408.569 203.151L408.932 203.604C406.274 205.718 403.194 206.775 400.204 206.775Z" fill="#1B1B43"/>
<path d="M431.25 203.634C430.193 198.863 426.267 195.269 421.435 194.604L402.922 192.068L414.126 211.184L417.599 223.143L435.025 220.697L431.25 203.634Z" fill="#1FC7A2"/>
<path d="M438.77 241.143C438.317 247.605 434.421 250.354 429.468 251.501C424.274 252.679 417.962 252.105 413.22 252.105C405.399 252.136 397.607 251.803 389.815 251.38L370.004 251.562L367.739 248.028C370.306 244.374 377.313 239.602 389.513 242.502L421.163 235.314L417.63 223.113L435.085 220.667L438.649 236.764C438.83 238.394 438.86 239.844 438.77 241.143Z" fill="#FFBC96"/>
<path d="M353.726 227.975L366.199 243.619L368.464 244.193L370.336 225.952L357.562 219.942L353.726 227.975Z" fill="#FFBC96"/>
<path d="M395.251 191.917L377.071 194.786C372.028 195.571 367.709 198.802 365.504 203.393L357.592 219.942L370.336 225.952L371.665 212.845L395.251 191.917Z" fill="#1FC7A2"/>
<path opacity="0.2" d="M438.769 241.143C438.316 247.605 434.421 250.354 429.468 251.501C428.471 250.293 427.867 248.723 427.867 247.032C427.867 243.136 431.038 239.995 434.904 239.995C436.323 239.995 437.652 240.418 438.769 241.143Z" fill="#FE5B52"/>
<path d="M371.433 212.835L367.452 248.006L368.022 248.071L372.004 212.9L371.433 212.835Z" fill="#1B1B43"/>
<path d="M414.444 211.086L413.893 211.245L420.879 235.413L421.43 235.254L414.444 211.086Z" fill="#1B1B43"/>
<path d="M407.029 150.573C406.939 149.304 406.999 147.976 407.392 146.737C407.784 145.499 408.6 144.321 409.747 143.657C410.321 143.325 410.955 143.083 411.62 142.962C412.284 142.842 412.949 142.842 413.583 142.932C414.881 143.083 416.15 143.566 417.267 144.261C418.385 144.986 419.321 145.952 419.895 147.16C420.499 148.368 420.619 149.788 420.257 151.056C419.895 152.324 419.109 153.442 418.234 154.378C417.328 155.314 416.301 156.069 415.214 156.764L415.093 156.583C416.12 155.858 417.116 155.042 417.962 154.136C418.807 153.2 419.502 152.143 419.804 150.965C420.106 149.788 419.985 148.519 419.442 147.432C418.898 146.345 418.022 145.439 416.995 144.774C415.969 144.11 414.791 143.627 413.553 143.476C412.345 143.325 411.076 143.476 410.019 144.08C408.962 144.684 408.177 145.711 407.784 146.888C407.573 147.462 407.452 148.096 407.362 148.7C407.301 149.335 407.271 149.969 407.271 150.573H407.029Z" fill="#1B1B43"/>
<path d="M413.22 156.915C416.556 156.915 419.26 154.211 419.26 150.875C419.26 147.539 416.556 144.835 413.22 144.835C409.885 144.835 407.18 147.539 407.18 150.875C407.18 154.211 409.885 156.915 413.22 156.915Z" fill="#1B1B43"/>
<path d="M417.811 184.367L414.579 179.384L415.818 184.88L404.613 187.84L383.564 188.685L385.255 171.985C379.88 169.327 376.074 152.324 396.459 149.455C400.174 148.942 403.979 149.274 407.422 150.724C417.932 155.163 421.465 166.941 422.431 183.128L417.811 184.367Z" fill="#1B1B43"/>
<path d="M400.325 202.034C395.795 202.034 392.111 198.349 392.111 193.819V176.001H408.57V193.819C408.539 198.349 404.855 202.034 400.325 202.034Z" fill="#FFBC96"/>
<path d="M403.224 183.491C401.473 188.685 397.335 191.101 392.08 192.43V184.699L403.224 183.491Z" fill="#1B1B43"/>
<path d="M408.177 158.697L407.633 181.8C407.633 181.8 397.939 188.866 391.144 186.843C388.849 186.148 387.309 183.581 386.252 180.35C385.769 178.81 385.376 177.149 385.074 175.427C384.017 169.357 384.077 163.136 384.077 163.136L408.177 158.697Z" fill="#FFBC96"/>
<path d="M388.336 172.89C388.336 173.585 387.913 174.129 387.43 174.129C386.946 174.129 386.524 173.585 386.524 172.89C386.524 172.196 386.946 171.652 387.43 171.652C387.913 171.652 388.336 172.196 388.336 172.89Z" fill="#1B1B43"/>
<path d="M394.406 173.796C394.973 173.796 395.433 173.147 395.433 172.347C395.433 171.546 394.973 170.897 394.406 170.897C393.839 170.897 393.379 171.546 393.379 172.347C393.379 173.147 393.839 173.796 394.406 173.796Z" fill="#1B1B43"/>
<path d="M397.788 169.418C397.758 169.78 396.58 169.84 395.251 169.629C393.953 169.387 392.835 169.478 393.047 168.602C393.228 167.877 394.255 167.938 395.553 168.179C396.852 168.391 397.818 169.116 397.788 169.418Z" fill="#1B1B43"/>
<path d="M384.983 170.203C385.044 170.565 386.04 170.535 387.128 170.203C388.215 169.871 389.181 169.84 388.97 168.995C388.789 168.3 387.913 168.451 386.826 168.783C385.708 169.116 384.923 169.901 384.983 170.203Z" fill="#1B1B43"/>
<path opacity="0.2" d="M402.288 175.337C402.288 176.817 401.08 178.025 399.6 178.025C398.12 178.025 396.912 176.817 396.912 175.337C396.912 173.857 398.12 172.649 399.6 172.649C401.08 172.649 402.288 173.857 402.288 175.337Z" fill="#FE5B52"/>
<path opacity="0.2" d="M387.49 178.085C387.49 179.021 387.007 179.837 386.282 180.32C385.799 178.78 385.406 177.119 385.104 175.397C386.433 175.578 387.49 176.696 387.49 178.085Z" fill="#FE5B52"/>
<path d="M390.45 173.978C390.48 174.219 390.419 174.461 390.329 174.672C390.238 174.884 390.117 175.065 389.997 175.246C389.755 175.578 389.513 175.88 389.453 176.152C389.423 176.273 389.423 176.424 389.453 176.545C389.483 176.666 389.574 176.786 389.664 176.907C389.876 177.149 390.238 177.33 390.601 177.451L390.57 177.753C390.117 177.813 389.634 177.723 389.211 177.421C389 177.27 388.819 177.028 388.728 176.786C388.638 176.515 388.607 176.243 388.698 175.971C388.849 175.427 389.211 175.095 389.483 174.823C389.785 174.521 390.027 174.28 390.148 173.948L390.45 173.978Z" fill="#1B1B43"/>
<path d="M389.725 180.108C390.721 183.28 394.949 181.679 395.282 178.689L389.725 180.108Z" fill="white"/>
<path d="M383.262 166.82C390.359 166.82 396.338 166.156 401.956 163.408C402.56 168.059 404.553 170.293 407.241 171.532L412.918 166.82L409.989 157.277L394.617 156.432L382.718 162.381L383.262 166.82Z" fill="#1B1B43"/>
<path d="M411.699 174.92C413.225 172.751 413.234 170.129 411.72 169.064C410.206 167.999 407.741 168.893 406.215 171.062C404.689 173.231 404.68 175.853 406.194 176.919C407.708 177.984 410.173 177.089 411.699 174.92Z" fill="#FFBC96"/>
<path d="M407.633 174.552C407.512 174.159 407.482 173.736 407.543 173.313C407.603 172.891 407.724 172.468 407.996 172.105C408.267 171.743 408.63 171.441 409.023 171.29C409.415 171.109 409.838 171.049 410.261 171.079L410.321 171.381C409.959 171.532 409.627 171.713 409.355 171.894C409.053 172.075 408.811 172.317 408.63 172.558C408.449 172.83 408.298 173.132 408.207 173.464C408.116 173.797 408.026 174.159 407.965 174.552H407.633Z" fill="#1B1B43"/>
<path d="M415.153 156.673C414.368 156.22 413.704 155.677 413.039 155.163L411.137 153.593C410.502 153.079 409.898 152.566 409.234 152.053C408.6 151.539 407.935 151.086 407.18 150.573C408.086 150.482 408.992 150.694 409.838 151.026C410.684 151.388 411.439 151.871 412.103 152.415C412.798 152.989 413.371 153.623 413.915 154.348C414.398 155.073 414.851 155.828 415.153 156.673Z" fill="#1FC7A2"/>
<path d="M388.366 251.441H368.343V257.36H388.366V251.441Z" fill="#1B1B43"/>
<path d="M374.746 257.36H329.446L309.574 214.416H354.874L374.746 257.36Z" fill="#EBEBFF"/>
<path d="M357.985 255.427C356.928 255.608 356.293 256.484 356.233 257.541V252.86C356.233 251.924 355.569 251.048 354.632 250.958C353.545 250.837 352.639 251.652 352.609 252.679V250.807C352.609 249.84 351.914 248.995 350.978 248.874C349.891 248.753 348.955 249.629 348.955 250.686V252.679C348.894 251.652 347.988 250.837 346.931 250.958C345.995 251.078 345.331 251.924 345.331 252.86V256.575C345.27 255.639 344.546 254.461 343.579 254.37C341.556 254.189 342.009 257.753 342.009 257.753C342.613 261.346 343.67 261.769 345.814 261.92C349.196 262.162 352.609 262.162 356.052 261.92C358.226 261.769 358.558 261.528 359.525 258.296C359.797 256.877 359.525 255.155 357.985 255.427Z" fill="#FFBC96"/>
<path d="M345.361 254.008C345.512 254.763 345.572 255.548 345.603 256.303C345.603 256.696 345.603 257.058 345.603 257.451C345.603 257.843 345.572 258.206 345.482 258.598H345.27C345.18 258.206 345.15 257.843 345.089 257.451C345.059 257.058 345.029 256.696 345.029 256.303C345.029 255.548 345.029 254.763 345.15 254.008H345.361Z" fill="#D28572"/>
<path d="M349.045 252.649C349.196 253.464 349.257 254.28 349.287 255.095C349.287 255.488 349.287 255.911 349.287 256.303C349.287 256.696 349.257 257.119 349.196 257.511H348.985C348.894 257.119 348.864 256.696 348.804 256.303C348.774 255.911 348.743 255.488 348.743 255.095C348.743 254.28 348.743 253.464 348.834 252.649H349.045Z" fill="#D28572"/>
<path d="M352.7 252.649C352.851 253.404 352.941 254.189 352.971 254.944C353.002 255.337 353.002 255.729 353.002 256.092C353.002 256.484 352.971 256.877 352.911 257.239H352.7C352.609 256.847 352.549 256.484 352.518 256.092C352.488 255.699 352.458 255.337 352.428 254.944C352.398 254.159 352.398 253.404 352.488 252.619L352.7 252.649Z" fill="#D28572"/>
<path d="M357.441 255.669C357.26 255.88 357.139 256.152 357.048 256.424C356.928 256.696 356.837 256.968 356.716 257.27C356.595 257.541 356.505 257.843 356.384 258.115C356.263 258.387 356.142 258.689 355.991 258.961L355.78 258.9C355.78 258.568 355.84 258.266 355.901 257.964C355.961 257.662 356.052 257.36 356.173 257.058C356.293 256.756 356.414 256.484 356.595 256.213C356.777 255.941 356.988 255.669 357.29 255.488L357.441 255.669Z" fill="#D28572"/>
<path d="M451.484 158.787V179.535L441.91 186.33H451.484H487.059V158.787H451.484Z" fill="white"/>
<path d="M487.422 186.692H440.733L451.091 179.323V158.395H487.422V186.692ZM443.088 185.937H486.667V159.15H451.846V179.686L443.088 185.937Z" fill="#91C4FF"/>
<path d="M468.789 179.867L462.96 174.28L464.017 173.193L468.396 177.421L475.855 163.74L477.184 164.465L468.789 179.867Z" fill="#91C4FF"/>
<path d="M488.328 427.144H0.265625V428.292H488.328V427.144Z" fill="#1B1B43"/>
</svg>
