<svg width="24" height="23" viewBox="0 0 24 23" fill="none" xmlns="http://www.w3.org/2000/svg">
<path fill-rule="evenodd" clip-rule="evenodd" d="M2.21387 11.5001C2.21387 11.3094 2.28846 11.1266 2.42124 10.9918C2.55403 10.857 2.73412 10.7813 2.9219 10.7813L19.6216 10.7813L15.1652 6.25894C15.0322 6.12398 14.9576 5.94093 14.9576 5.75007C14.9576 5.5592 15.0322 5.37616 15.1652 5.24119C15.2981 5.10623 15.4785 5.03041 15.6665 5.03041C15.8545 5.03041 16.0348 5.10623 16.1678 5.24119L21.832 10.9912C21.898 11.058 21.9503 11.1373 21.986 11.2246C22.0217 11.3119 22.04 11.4055 22.04 11.5001C22.04 11.5946 22.0217 11.6882 21.986 11.7755C21.9503 11.8629 21.898 11.9422 21.832 12.0089L16.1678 17.7589C16.0348 17.8939 15.8545 17.9697 15.6665 17.9697C15.4785 17.9697 15.2981 17.8939 15.1652 17.7589C15.0322 17.624 14.9576 17.4409 14.9576 17.2501C14.9576 17.0592 15.0322 16.8762 15.1652 16.7412L19.6216 12.2188L2.9219 12.2188C2.73412 12.2188 2.55403 12.1431 2.42124 12.0083C2.28846 11.8735 2.21387 11.6907 2.21387 11.5001Z" fill="#1FC7A2"/>
</svg>
