<svg width="16" height="15" viewBox="0 0 16 15" fill="none" xmlns="http://www.w3.org/2000/svg">
<path fill-rule="evenodd" clip-rule="evenodd" d="M14.459 7.4999C14.459 7.37558 14.411 7.25635 14.3257 7.16844C14.2403 7.08053 14.1246 7.03115 14.0038 7.03115L3.26904 7.03115L6.13366 4.08177C6.21912 3.99375 6.26713 3.87437 6.26713 3.7499C6.26713 3.62542 6.21912 3.50604 6.13366 3.41802C6.0482 3.33 5.93228 3.28055 5.81142 3.28055C5.69056 3.28055 5.57465 3.33 5.48919 3.41802L1.84811 7.16802C1.80572 7.21156 1.77209 7.26329 1.74915 7.32024C1.72621 7.37719 1.71439 7.43824 1.71439 7.4999C1.71439 7.56155 1.72621 7.6226 1.74915 7.67955C1.77209 7.7365 1.80572 7.78823 1.84811 7.83177L5.48919 11.5818C5.57465 11.6698 5.69056 11.7192 5.81142 11.7192C5.93228 11.7192 6.04819 11.6698 6.13366 11.5818C6.21912 11.4938 6.26713 11.3744 6.26713 11.2499C6.26713 11.1254 6.21912 11.006 6.13366 10.918L3.26904 7.96865L14.0038 7.96865C14.1246 7.96865 14.2403 7.91926 14.3257 7.83135C14.411 7.74344 14.459 7.62422 14.459 7.4999Z" fill="white"/>
</svg>
