<svg width="15" height="15" viewBox="0 0 15 15" fill="none" xmlns="http://www.w3.org/2000/svg">
<g clip-path="url(#clip0)">
<path fill-rule="evenodd" clip-rule="evenodd" d="M0.989258 7.4999C0.989258 7.37558 1.03721 7.25635 1.12256 7.16844C1.20792 7.08053 1.32368 7.03115 1.44439 7.03115L12.1792 7.03115L9.31459 4.08177C9.22912 3.99375 9.18111 3.87437 9.18111 3.7499C9.18111 3.62542 9.22912 3.50604 9.31459 3.41802C9.40005 3.33 9.51596 3.28055 9.63682 3.28055C9.75768 3.28055 9.87359 3.33 9.95906 3.41802L13.6001 7.16802C13.6425 7.21156 13.6761 7.26329 13.6991 7.32024C13.722 7.37719 13.7338 7.43824 13.7338 7.4999C13.7338 7.56155 13.722 7.6226 13.6991 7.67955C13.6761 7.7365 13.6425 7.78823 13.6001 7.83177L9.95906 11.5818C9.87359 11.6698 9.75768 11.7192 9.63682 11.7192C9.51596 11.7192 9.40005 11.6698 9.31459 11.5818C9.22912 11.4938 9.18111 11.3744 9.18111 11.2499C9.18111 11.1254 9.22912 11.006 9.31459 10.918L12.1792 7.96865L1.44439 7.96865C1.32368 7.96865 1.20792 7.91926 1.12256 7.83135C1.03721 7.74344 0.989258 7.62422 0.989258 7.4999Z" fill="white"/>
</g>
<defs>
<clipPath id="clip0">
<rect width="15" height="14.5643" fill="white" transform="translate(0.0791016 15) rotate(-90)"/>
</clipPath>
</defs>
</svg>
