<svg width="15" height="9" viewBox="0 0 15 9" fill="none" xmlns="http://www.w3.org/2000/svg">
<path fill-rule="evenodd" clip-rule="evenodd" d="M14.0625 4.50002C14.0625 4.3757 14.0131 4.25647 13.9252 4.16856C13.8373 4.08065 13.7181 4.03127 13.5938 4.03127L2.53781 4.03127L5.48813 1.08189C5.57614 0.993875 5.62559 0.874496 5.62559 0.750018C5.62559 0.62554 5.57614 0.506161 5.48813 0.418143C5.40011 0.330124 5.28073 0.280676 5.15625 0.280676C5.03177 0.280676 4.91239 0.330124 4.82437 0.418143L1.07437 4.16814C1.03072 4.21169 0.996087 4.26341 0.972456 4.32036C0.948825 4.37731 0.936662 4.43836 0.936662 4.50002C0.936662 4.56167 0.948825 4.62273 0.972456 4.67967C0.996087 4.73662 1.03072 4.78835 1.07437 4.83189L4.82437 8.58189C4.91239 8.66991 5.03177 8.71936 5.15625 8.71936C5.28073 8.71936 5.40011 8.66991 5.48812 8.58189C5.57614 8.49387 5.62559 8.3745 5.62559 8.25002C5.62559 8.12554 5.57614 8.00616 5.48812 7.91814L2.53781 4.96877L13.5938 4.96877C13.7181 4.96877 13.8373 4.91938 13.9252 4.83147C14.0131 4.74357 14.0625 4.62434 14.0625 4.50002Z" fill="black"/>
</svg>
