<svg width="15" height="9" viewBox="0 0 15 9" fill="none" xmlns="http://www.w3.org/2000/svg">
<path fill-rule="evenodd" clip-rule="evenodd" d="M0.9375 4.50002C0.9375 4.3757 0.986886 4.25647 1.07479 4.16856C1.1627 4.08065 1.28193 4.03127 1.40625 4.03127L12.4622 4.03127L9.51187 1.08189C9.42386 0.993875 9.37441 0.874496 9.37441 0.750018C9.37441 0.62554 9.42386 0.506161 9.51187 0.418143C9.59989 0.330124 9.71927 0.280676 9.84375 0.280676C9.96823 0.280676 10.0876 0.330124 10.1756 0.418143L13.9256 4.16814C13.9693 4.21169 14.0039 4.26341 14.0275 4.32036C14.0512 4.37731 14.0633 4.43836 14.0633 4.50002C14.0633 4.56167 14.0512 4.62273 14.0275 4.67967C14.0039 4.73662 13.9693 4.78835 13.9256 4.83189L10.1756 8.58189C10.0876 8.66991 9.96823 8.71936 9.84375 8.71936C9.71927 8.71936 9.59989 8.66991 9.51188 8.58189C9.42386 8.49387 9.37441 8.3745 9.37441 8.25002C9.37441 8.12554 9.42386 8.00616 9.51188 7.91814L12.4622 4.96877L1.40625 4.96877C1.28193 4.96877 1.1627 4.91938 1.07479 4.83147C0.986886 4.74357 0.9375 4.62434 0.9375 4.50002Z" fill="black"/>
</svg>
