<svg width="388" height="234" viewBox="0 0 388 234" fill="none" xmlns="http://www.w3.org/2000/svg">
<line y1="135.5" x2="387.341" y2="135.5" stroke="#F2F5FA" stroke-width="2"/>
<path d="M177 105H201V137H177V105Z" fill="#A1F8C9"/>
<path d="M143 97H167V137H143V97Z" fill="#82E9B1"/>
<path d="M73 68H97V136H73V68Z" fill="#48D387"/>
<path d="M38 46.0908H62.3101V136.5H38V46.0908Z" fill="#3DC37A"/>
<path d="M108 88H132V137H108V88Z" fill="#5FDF99"/>
<path d="M212 118H236V137H212V118Z" fill="#BCFAD9"/>
<path d="M281 192H305V136H281V192Z" fill="#E58D87"/>
<path d="M247 175.5H271.31V136.5H247V175.5Z" fill="#FBB3AE"/>
<path d="M318 208H342V137H318V208Z" fill="#D7655D"/>
<path d="M351 234H375.31V136.5H351V234Z" fill="#C14B43"/>
<path d="M0 0H24.3101V136.5H0V0Z" fill="#29AD65"/>
</svg>
