<svg width="145" height="36" viewBox="0 0 145 36" fill="none" xmlns="http://www.w3.org/2000/svg">
<path d="M1.45866 14.0766C2.17203 14.0766 2.75033 13.3602 2.75033 12.4766C2.75033 11.5929 2.17203 10.8766 1.45866 10.8766C0.745291 10.8766 0.166992 11.5929 0.166992 12.4766C0.166992 13.3602 0.745291 14.0766 1.45866 14.0766Z" fill="#1FC7A2" fill-opacity="0.1"/>
<path d="M7.91764 16.0873C8.63101 16.0873 9.20931 15.3709 9.20931 14.4873C9.20931 13.6036 8.63101 12.8873 7.91764 12.8873C7.20428 12.8873 6.62598 13.6036 6.62598 14.4873C6.62598 15.3709 7.20428 16.0873 7.91764 16.0873Z" fill="#1FC7A2" fill-opacity="0.1"/>
<path d="M14.3747 24.7465C15.088 24.7465 15.6663 24.0301 15.6663 23.1465C15.6663 22.2628 15.088 21.5464 14.3747 21.5464C13.6613 21.5464 13.083 22.2628 13.083 23.1465C13.083 24.0301 13.6613 24.7465 14.3747 24.7465Z" fill="#1FC7A2" fill-opacity="0.1"/>
<path d="M20.8337 28.2454C21.547 28.2454 22.1253 27.5291 22.1253 26.6454C22.1253 25.7618 21.547 25.0454 20.8337 25.0454C20.1203 25.0454 19.542 25.7618 19.542 26.6454C19.542 27.5291 20.1203 28.2454 20.8337 28.2454Z" fill="#1FC7A2" fill-opacity="0.1"/>
<path d="M27.2926 34.585C28.006 34.585 28.5843 33.8687 28.5843 32.985C28.5843 32.1014 28.006 31.385 27.2926 31.385C26.5793 31.385 26.001 32.1014 26.001 32.985C26.001 33.8687 26.5793 34.585 27.2926 34.585Z" fill="#1FC7A2" fill-opacity="0.1"/>
<path d="M33.7497 35.6C34.463 35.6 35.0413 34.8836 35.0413 34C35.0413 33.1163 34.463 32.4 33.7497 32.4C33.0363 32.4 32.458 33.1163 32.458 34C32.458 34.8836 33.0363 35.6 33.7497 35.6Z" fill="#1FC7A2" fill-opacity="0.1"/>
<path d="M40.2087 30.5108C40.922 30.5108 41.5003 29.7944 41.5003 28.9108C41.5003 28.0271 40.922 27.3108 40.2087 27.3108C39.4953 27.3108 38.917 28.0271 38.917 28.9108C38.917 29.7944 39.4953 30.5108 40.2087 30.5108Z" fill="#1FC7A2" fill-opacity="0.1"/>
<path d="M46.6676 24.5038C47.381 24.5038 47.9593 23.7875 47.9593 22.9038C47.9593 22.0201 47.381 21.3038 46.6676 21.3038C45.9543 21.3038 45.376 22.0201 45.376 22.9038C45.376 23.7875 45.9543 24.5038 46.6676 24.5038Z" fill="#1FC7A2" fill-opacity="0.1"/>
<path d="M53.1247 23.5717C53.838 23.5717 54.4163 22.8553 54.4163 21.9716C54.4163 21.088 53.838 20.3716 53.1247 20.3716C52.4113 20.3716 51.833 21.088 51.833 21.9716C51.833 22.8553 52.4113 23.5717 53.1247 23.5717Z" fill="#1FC7A2" fill-opacity="0.1"/>
<path d="M59.5837 23.8764C60.297 23.8764 60.8753 23.16 60.8753 22.2764C60.8753 21.3927 60.297 20.6764 59.5837 20.6764C58.8703 20.6764 58.292 21.3927 58.292 22.2764C58.292 23.16 58.8703 23.8764 59.5837 23.8764Z" fill="#1FC7A2" fill-opacity="0.1"/>
<path d="M66.0427 30.8039C66.756 30.8039 67.3343 30.0876 67.3343 29.2039C67.3343 28.3203 66.756 27.6039 66.0427 27.6039C65.3293 27.6039 64.751 28.3203 64.751 29.2039C64.751 30.0876 65.3293 30.8039 66.0427 30.8039Z" fill="#1FC7A2" fill-opacity="0.1"/>
<path d="M72.4997 28.372C73.213 28.372 73.7913 27.6557 73.7913 26.772C73.7913 25.8884 73.213 25.172 72.4997 25.172C71.7863 25.172 71.208 25.8884 71.208 26.772C71.208 27.6557 71.7863 28.372 72.4997 28.372Z" fill="#1FC7A2" fill-opacity="0.1"/>
<path d="M78.9587 26.2746C79.672 26.2746 80.2503 25.5583 80.2503 24.6746C80.2503 23.791 79.672 23.0746 78.9587 23.0746C78.2453 23.0746 77.667 23.791 77.667 24.6746C77.667 25.5583 78.2453 26.2746 78.9587 26.2746Z" fill="#1FC7A2" fill-opacity="0.1"/>
<path d="M85.4176 27.4747C86.131 27.4747 86.7093 26.7583 86.7093 25.8747C86.7093 24.991 86.131 24.2747 85.4176 24.2747C84.7043 24.2747 84.126 24.991 84.126 25.8747C84.126 26.7583 84.7043 27.4747 85.4176 27.4747Z" fill="#1FC7A2" fill-opacity="0.1"/>
<path d="M91.8747 27.3031C92.588 27.3031 93.1663 26.5868 93.1663 25.7031C93.1663 24.8195 92.588 24.1031 91.8747 24.1031C91.1613 24.1031 90.583 24.8195 90.583 25.7031C90.583 26.5868 91.1613 27.3031 91.8747 27.3031Z" fill="#1FC7A2" fill-opacity="0.1"/>
<path d="M98.3337 26.5967C99.047 26.5967 99.6253 25.8804 99.6253 24.9967C99.6253 24.1131 99.047 23.3967 98.3337 23.3967C97.6203 23.3967 97.042 24.1131 97.042 24.9967C97.042 25.8804 97.6203 26.5967 98.3337 26.5967Z" fill="#1FC7A2" fill-opacity="0.1"/>
<path d="M104.793 27.4726C105.506 27.4726 106.084 26.7563 106.084 25.8726C106.084 24.989 105.506 24.2726 104.793 24.2726C104.079 24.2726 103.501 24.989 103.501 25.8726C103.501 26.7563 104.079 27.4726 104.793 27.4726Z" fill="#1FC7A2" fill-opacity="0.1"/>
<path d="M111.25 20.3698C111.963 20.3698 112.541 19.6535 112.541 18.7698C112.541 17.8862 111.963 17.1698 111.25 17.1698C110.536 17.1698 109.958 17.8862 109.958 18.7698C109.958 19.6535 110.536 20.3698 111.25 20.3698Z" fill="#1FC7A2" fill-opacity="0.1"/>
<path d="M117.709 18.4283C118.422 18.4283 119 17.7119 119 16.8283C119 15.9446 118.422 15.2283 117.709 15.2283C116.995 15.2283 116.417 15.9446 116.417 16.8283C116.417 17.7119 116.995 18.4283 117.709 18.4283Z" fill="#1FC7A2" fill-opacity="0.1"/>
<path d="M124.168 14.4165C124.881 14.4165 125.459 13.7001 125.459 12.8165C125.459 11.9328 124.881 11.2165 124.168 11.2165C123.454 11.2165 122.876 11.9328 122.876 12.8165C122.876 13.7001 123.454 14.4165 124.168 14.4165Z" fill="#1FC7A2" fill-opacity="0.1"/>
<path d="M130.625 15.3196C131.338 15.3196 131.916 14.6033 131.916 13.7196C131.916 12.836 131.338 12.1196 130.625 12.1196C129.911 12.1196 129.333 12.836 129.333 13.7196C129.333 14.6033 129.911 15.3196 130.625 15.3196Z" fill="#1FC7A2" fill-opacity="0.1"/>
<path d="M137.084 4.98412C137.797 4.98412 138.375 4.26777 138.375 3.38412C138.375 2.50046 137.797 1.78412 137.084 1.78412C136.37 1.78412 135.792 2.50046 135.792 3.38412C135.792 4.26777 136.37 4.98412 137.084 4.98412Z" fill="#1FC7A2" fill-opacity="0.1"/>
<path d="M143.543 3.5999C144.256 3.5999 144.834 2.88356 144.834 1.9999C144.834 1.11625 144.256 0.399902 143.543 0.399902C142.829 0.399902 142.251 1.11625 142.251 1.9999C142.251 2.88356 142.829 3.5999 143.543 3.5999Z" fill="#1FC7A2" fill-opacity="0.1"/>
<path d="M1.45898 12.4766L7.91732 14.4871L14.3757 23.1463L20.834 26.6453L27.2923 32.9851L33.7506 33.9998L40.209 28.9107L46.6673 22.9038L53.1256 21.9715L59.584 22.2764L66.0423 29.2038L72.5006 26.772L78.959 24.6745L85.4173 25.8745L91.8756 25.7031L98.334 24.9966L104.792 25.8724L111.251 18.7698L117.709 16.8283L124.167 12.8165L130.626 13.7195L137.084 3.38411L143.542 1.99985V33.9998H1.45898V12.4766Z" fill="#1FC7A2" fill-opacity="0.1"/>
<path d="M1.45898 12.4766L7.91732 14.4871L14.3757 23.1463L20.834 26.6453L27.2923 32.9851L33.7507 33.9998L40.209 28.9107L46.6673 22.9038L53.1256 21.9715L59.584 22.2764L66.0423 29.2038L72.5006 26.772L78.959 24.6745L85.4173 25.8745L91.8756 25.7031L98.334 24.9966L104.792 25.8724L111.251 18.7698L117.709 16.8283L124.167 12.8165L130.626 13.7195L137.084 3.38411L143.542 1.99985" stroke="#3EB0A0" stroke-width="2" stroke-linecap="round" stroke-linejoin="round"/>
</svg>
