<svg width="150" height="40" viewBox="0 0 150 40" fill="none" xmlns="http://www.w3.org/2000/svg">
<path d="M1.66634 4.39989C2.40272 4.39989 2.99968 3.62385 2.99968 2.66656C2.99968 1.70927 2.40272 0.933228 1.66634 0.933228C0.929962 0.933228 0.333008 1.70927 0.333008 2.66656C0.333008 3.62385 0.929962 4.39989 1.66634 4.39989Z" fill="#F52E2E" fill-opacity="0.1"/>
<path d="M8.33333 6.73654C9.06971 6.73654 9.66667 5.9605 9.66667 5.0032C9.66667 4.04591 9.06971 3.26987 8.33333 3.26987C7.59695 3.26987 7 4.04591 7 5.0032C7 5.9605 7.59695 6.73654 8.33333 6.73654Z" fill="#F52E2E" fill-opacity="0.1"/>
<path d="M14.9994 9.23901C15.7357 9.23901 16.3327 8.46297 16.3327 7.50567C16.3327 6.54838 15.7357 5.77234 14.9994 5.77234C14.263 5.77234 13.666 6.54838 13.666 7.50567C13.666 8.46297 14.263 9.23901 14.9994 9.23901Z" fill="#F52E2E" fill-opacity="0.1"/>
<path d="M21.6663 11.8329C22.4027 11.8329 22.9997 11.0568 22.9997 10.0995C22.9997 9.14222 22.4027 8.36618 21.6663 8.36618C20.93 8.36618 20.333 9.14222 20.333 10.0995C20.333 11.0568 20.93 11.8329 21.6663 11.8329Z" fill="#F52E2E" fill-opacity="0.1"/>
<path d="M28.3333 11.4796C29.0697 11.4796 29.6667 10.7035 29.6667 9.74624C29.6667 8.78895 29.0697 8.01291 28.3333 8.01291C27.597 8.01291 27 8.78895 27 9.74624C27 10.7035 27.597 11.4796 28.3333 11.4796Z" fill="#F52E2E" fill-opacity="0.1"/>
<path d="M34.9993 11.1789C35.7357 11.1789 36.3327 10.4029 36.3327 9.44561C36.3327 8.48832 35.7357 7.71228 34.9993 7.71228C34.263 7.71228 33.666 8.48832 33.666 9.44561C33.666 10.4029 34.263 11.1789 34.9993 11.1789Z" fill="#F52E2E" fill-opacity="0.1"/>
<path d="M41.6663 11.0962C42.4027 11.0962 42.9997 10.3201 42.9997 9.36282C42.9997 8.40553 42.4027 7.62949 41.6663 7.62949C40.93 7.62949 40.333 8.40553 40.333 9.36282C40.333 10.3201 40.93 11.0962 41.6663 11.0962Z" fill="#F52E2E" fill-opacity="0.1"/>
<path d="M48.3333 35.7489C49.0697 35.7489 49.6667 34.9729 49.6667 34.0156C49.6667 33.0583 49.0697 32.2823 48.3333 32.2823C47.597 32.2823 47 33.0583 47 34.0156C47 34.9729 47.597 35.7489 48.3333 35.7489Z" fill="#F52E2E" fill-opacity="0.1"/>
<path d="M54.9994 28.1808C55.7357 28.1808 56.3327 27.4048 56.3327 26.4475C56.3327 25.4902 55.7357 24.7142 54.9994 24.7142C54.263 24.7142 53.666 25.4902 53.666 26.4475C53.666 27.4048 54.263 28.1808 54.9994 28.1808Z" fill="#F52E2E" fill-opacity="0.1"/>
<path d="M61.6663 28.024C62.4027 28.024 62.9997 27.248 62.9997 26.2907C62.9997 25.3334 62.4027 24.5573 61.6663 24.5573C60.93 24.5573 60.333 25.3334 60.333 26.2907C60.333 27.248 60.93 28.024 61.6663 28.024Z" fill="#F52E2E" fill-opacity="0.1"/>
<path d="M68.3333 39.0666C69.0697 39.0666 69.6666 38.2906 69.6666 37.3333C69.6666 36.376 69.0697 35.6 68.3333 35.6C67.5969 35.6 67 36.376 67 37.3333C67 38.2906 67.5969 39.0666 68.3333 39.0666Z" fill="#F52E2E" fill-opacity="0.1"/>
<path d="M74.9993 32.1873C75.7357 32.1873 76.3327 31.4113 76.3327 30.454C76.3327 29.4967 75.7357 28.7207 74.9993 28.7207C74.263 28.7207 73.666 29.4967 73.666 30.454C73.666 31.4113 74.263 32.1873 74.9993 32.1873Z" fill="#F52E2E" fill-opacity="0.1"/>
<path d="M81.6663 29.2273C82.4027 29.2273 82.9997 28.4512 82.9997 27.4939C82.9997 26.5366 82.4027 25.7606 81.6663 25.7606C80.93 25.7606 80.333 26.5366 80.333 27.4939C80.333 28.4512 80.93 29.2273 81.6663 29.2273Z" fill="#F52E2E" fill-opacity="0.1"/>
<path d="M88.3333 29.7983C89.0697 29.7983 89.6666 29.0223 89.6666 28.065C89.6666 27.1077 89.0697 26.3317 88.3333 26.3317C87.5969 26.3317 87 27.1077 87 28.065C87 29.0223 87.5969 29.7983 88.3333 29.7983Z" fill="#F52E2E" fill-opacity="0.1"/>
<path d="M94.9994 24.4493C95.7357 24.4493 96.3327 23.6733 96.3327 22.716C96.3327 21.7587 95.7357 20.9826 94.9994 20.9826C94.263 20.9826 93.666 21.7587 93.666 22.716C93.666 23.6733 94.263 24.4493 94.9994 24.4493Z" fill="#F52E2E" fill-opacity="0.1"/>
<path d="M101.666 26.4066C102.403 26.4066 103 25.6306 103 24.6733C103 23.716 102.403 22.94 101.666 22.94C100.93 22.94 100.333 23.716 100.333 24.6733C100.333 25.6306 100.93 26.4066 101.666 26.4066Z" fill="#F52E2E" fill-opacity="0.1"/>
<path d="M108.333 31.1889C109.07 31.1889 109.667 30.4128 109.667 29.4555C109.667 28.4982 109.07 27.7222 108.333 27.7222C107.597 27.7222 107 28.4982 107 29.4555C107 30.4128 107.597 31.1889 108.333 31.1889Z" fill="#F52E2E" fill-opacity="0.1"/>
<path d="M114.999 28.4904C115.736 28.4904 116.333 27.7143 116.333 26.757C116.333 25.7998 115.736 25.0237 114.999 25.0237C114.263 25.0237 113.666 25.7998 113.666 26.757C113.666 27.7143 114.263 28.4904 114.999 28.4904Z" fill="#F52E2E" fill-opacity="0.1"/>
<path d="M121.666 26.2278C122.403 26.2278 123 25.4517 123 24.4944C123 23.5372 122.403 22.7611 121.666 22.7611C120.93 22.7611 120.333 23.5372 120.333 24.4944C120.333 25.4517 120.93 26.2278 121.666 26.2278Z" fill="#F52E2E" fill-opacity="0.1"/>
<path d="M128.333 27.2045C129.07 27.2045 129.667 26.4284 129.667 25.4711C129.667 24.5138 129.07 23.7378 128.333 23.7378C127.597 23.7378 127 24.5138 127 25.4711C127 26.4284 127.597 27.2045 128.333 27.2045Z" fill="#F52E2E" fill-opacity="0.1"/>
<path d="M134.999 30.0467C135.736 30.0467 136.333 29.2707 136.333 28.3134C136.333 27.3561 135.736 26.5801 134.999 26.5801C134.263 26.5801 133.666 27.3561 133.666 28.3134C133.666 29.2707 134.263 30.0467 134.999 30.0467Z" fill="#F52E2E" fill-opacity="0.1"/>
<path d="M141.666 30.9796C142.403 30.9796 143 30.2035 143 29.2462C143 28.2889 142.403 27.5129 141.666 27.5129C140.93 27.5129 140.333 28.2889 140.333 29.2462C140.333 30.2035 140.93 30.9796 141.666 30.9796Z" fill="#F52E2E" fill-opacity="0.1"/>
<path d="M148.333 28.4119C149.07 28.4119 149.667 27.6359 149.667 26.6786C149.667 25.7213 149.07 24.9453 148.333 24.9453C147.597 24.9453 147 25.7213 147 26.6786C147 27.6359 147.597 28.4119 148.333 28.4119Z" fill="#F52E2E" fill-opacity="0.1"/>
<path d="M1.66602 2.66647L8.33268 5.00316L14.9993 7.50551L21.666 10.0994L28.3327 9.74628L34.9993 9.44548L41.666 9.36265L48.3327 34.0156L54.9993 26.4475L61.666 26.2906L68.3327 37.3331L74.9993 30.4539L81.666 27.4938L88.3327 28.0649L94.9993 22.7158L101.666 24.6732L108.333 29.4555L114.999 26.757L121.666 24.4944L128.333 25.471L134.999 28.3134L141.666 29.2463L148.333 26.6785V37.3331H1.66602V2.66647Z" fill="#F52E2E" fill-opacity="0.1"/>
<path d="M1.66602 2.66647L8.33268 5.00316L14.9993 7.50551L21.666 10.0994L28.3327 9.74629L34.9993 9.44548L41.666 9.36265L48.3327 34.0156L54.9993 26.4475L61.666 26.2906L68.3327 37.3331L74.9993 30.4539L81.666 27.4938L88.3327 28.0649L94.9993 22.7158L101.666 24.6732L108.333 29.4555L114.999 26.757L121.666 24.4944L128.333 25.471L134.999 28.3134L141.666 29.2463L148.333 26.6785" stroke="#F52E2E" stroke-width="2" stroke-linecap="round" stroke-linejoin="round"/>
</svg>
