<svg width="11" height="10" viewBox="0 0 11 10" fill="none" xmlns="http://www.w3.org/2000/svg">
<path d="M8.71251 1.21248C8.8886 1.04484 9.12292 0.952167 9.36604 0.954006C9.60915 0.955846 9.84204 1.05206 10.0156 1.22234C10.1891 1.39263 10.2897 1.62366 10.2961 1.8667C10.3025 2.10974 10.2143 2.34577 10.05 2.52498L5.06251 8.76248C4.97675 8.85486 4.87324 8.92899 4.75818 8.98044C4.64311 9.0319 4.51885 9.05962 4.39283 9.06195C4.2668 9.06429 4.1416 9.04118 4.02471 8.99402C3.90782 8.94686 3.80164 8.87662 3.71251 8.78748L0.405014 5.47998C0.312905 5.39416 0.239028 5.29066 0.187788 5.17566C0.136548 5.06066 0.108995 4.93652 0.106774 4.81064C0.104553 4.68476 0.127709 4.55972 0.174861 4.44299C0.222012 4.32625 0.292193 4.22021 0.381216 4.13119C0.47024 4.04216 0.576282 3.97198 0.693017 3.92483C0.809752 3.87768 0.934789 3.85452 1.06067 3.85674C1.18655 3.85896 1.31069 3.88652 1.42569 3.93776C1.54069 3.989 1.64419 4.06287 1.73001 4.15498L4.34751 6.77123L8.68876 1.23998C8.69658 1.23036 8.70493 1.22118 8.71376 1.21248H8.71251Z" fill="#4A7DC9"/>
</svg>
