<svg width="18" height="18" viewBox="0 0 18 18" fill="none" xmlns="http://www.w3.org/2000/svg">
<path d="M11.7068 9L16.947 3.75985C17.6945 3.01235 17.6945 1.80043 16.947 1.05293C16.1994 0.305435 14.9876 0.305435 14.24 1.05293L8.99988 6.29309L3.75973 1.05293C3.01223 0.305435 1.80031 0.305435 1.05281 1.05293C0.305312 1.80043 0.305312 3.01235 1.05281 3.75985L6.29297 9L1.05281 14.2402C0.305312 14.9877 0.305312 16.1996 1.05281 16.9471C1.42656 17.3208 1.91641 17.5077 2.40625 17.5077C2.89609 17.5077 3.38598 17.3208 3.75969 16.9471L8.99988 11.7069L14.24 16.9471C14.6138 17.3208 15.1036 17.5077 15.5935 17.5077C16.0833 17.5077 16.5732 17.3208 16.9469 16.9471C17.6944 16.1996 17.6944 14.9877 16.9469 14.2402L11.7068 9Z" fill="#4D5772"/>
</svg>
