<svg width="34" height="34" viewBox="0 0 34 34" fill="none" xmlns="http://www.w3.org/2000/svg">
<g filter="url(#filter0_d)">
<circle cx="17" cy="15" r="15" fill="white"/>
</g>
<path d="M17 2.49997C14.5277 2.49997 12.111 3.23308 10.0554 4.6066C7.99976 5.98012 6.39761 7.93235 5.45151 10.2164C4.50542 12.5005 4.25787 15.0138 4.74019 17.4386C5.2225 19.8634 6.41301 22.0906 8.16117 23.8388C9.90933 25.587 12.1366 26.7775 14.5614 27.2598C16.9861 27.7421 19.4995 27.4946 21.7836 26.5485C24.0676 25.6024 26.0199 24.0002 27.3934 21.9446C28.7669 19.889 29.5 17.4722 29.5 15C29.5 13.3584 29.1767 11.733 28.5485 10.2164C27.9203 8.69986 26.9996 7.32187 25.8388 6.16113C24.6781 5.0004 23.3001 4.07966 21.7836 3.45148C20.267 2.82329 18.6415 2.49997 17 2.49997ZM20.3875 16.6125C20.5047 16.7287 20.5977 16.8669 20.6611 17.0192C20.7246 17.1716 20.7573 17.335 20.7573 17.5C20.7573 17.665 20.7246 17.8284 20.6611 17.9807C20.5977 18.133 20.5047 18.2713 20.3875 18.3875C20.2713 18.5046 20.1331 18.5976 19.9807 18.6611C19.8284 18.7245 19.665 18.7572 19.5 18.7572C19.335 18.7572 19.1716 18.7245 19.0193 18.6611C18.867 18.5976 18.7287 18.5046 18.6125 18.3875L17 16.7625L15.3875 18.3875C15.2713 18.5046 15.1331 18.5976 14.9807 18.6611C14.8284 18.7245 14.665 18.7572 14.5 18.7572C14.335 18.7572 14.1716 18.7245 14.0193 18.6611C13.867 18.5976 13.7287 18.5046 13.6125 18.3875C13.4953 18.2713 13.4024 18.133 13.3389 17.9807C13.2754 17.8284 13.2428 17.665 13.2428 17.5C13.2428 17.335 13.2754 17.1716 13.3389 17.0192C13.4024 16.8669 13.4953 16.7287 13.6125 16.6125L15.2375 15L13.6125 13.3875C13.3771 13.1521 13.2449 12.8328 13.2449 12.5C13.2449 12.1671 13.3771 11.8478 13.6125 11.6125C13.8479 11.3771 14.1671 11.2449 14.5 11.2449C14.8329 11.2449 15.1521 11.3771 15.3875 11.6125L17 13.2375L18.6125 11.6125C18.8479 11.3771 19.1671 11.2449 19.5 11.2449C19.8329 11.2449 20.1521 11.3771 20.3875 11.6125C20.6229 11.8478 20.7551 12.1671 20.7551 12.5C20.7551 12.8328 20.6229 13.1521 20.3875 13.3875L18.7625 15L20.3875 16.6125Z" fill="#4A7DC9"/>
<defs>
<filter id="filter0_d" x="0" y="0" width="34" height="34" filterUnits="userSpaceOnUse" color-interpolation-filters="sRGB">
<feFlood flood-opacity="0" result="BackgroundImageFix"/>
<feColorMatrix in="SourceAlpha" type="matrix" values="0 0 0 0 0 0 0 0 0 0 0 0 0 0 0 0 0 0 127 0"/>
<feOffset dy="2"/>
<feGaussianBlur stdDeviation="1"/>
<feColorMatrix type="matrix" values="0 0 0 0 0 0 0 0 0 0 0 0 0 0 0 0 0 0 0.1 0"/>
<feBlend mode="normal" in2="BackgroundImageFix" result="effect1_dropShadow"/>
<feBlend mode="normal" in="SourceGraphic" in2="effect1_dropShadow" result="shape"/>
</filter>
</defs>
</svg>
