<svg width="30" height="30" viewBox="0 0 30 30" fill="none" xmlns="http://www.w3.org/2000/svg">
<g clip-path="url(#clip0)">
<path d="M14.4821 6.58219C16.7724 6.58219 18.9306 7.59751 20.5121 9.18469V9.18938C20.5121 8.42719 21.0249 7.85063 21.7337 7.85063H21.9137C23.0321 7.85063 23.2562 8.90532 23.2562 9.23813L23.2609 21.0834C23.1831 21.8597 24.0624 22.2609 24.5509 21.7622C26.4493 19.8094 28.7246 11.7131 23.3687 7.02563C18.3737 2.65032 11.6696 3.37313 8.10524 5.82938C4.3168 8.44688 1.89524 14.2284 4.24743 19.6622C6.81618 25.5863 14.1596 27.3534 18.5302 25.5909C20.7427 24.6975 21.7627 27.6844 19.4631 28.6622C15.9971 30.1406 6.33805 29.9897 1.8268 22.1775C-1.22101 16.9003 -1.05976 7.61719 7.02712 2.80782C13.2081 -0.873744 21.3634 0.146257 26.2796 5.27907C31.4171 10.65 31.1199 20.6991 26.1043 24.6056C23.8327 26.3822 20.4596 24.6544 20.484 22.0659L20.4587 21.2222C18.8771 22.7888 16.7724 23.7075 14.4821 23.7075C9.95118 23.7075 5.96212 19.7175 5.96212 15.1913C5.96212 10.6163 9.95118 6.58407 14.4821 6.58407V6.58219ZM20.1812 14.8641C20.0096 11.5481 17.5487 9.55126 14.5749 9.55126H14.4624C11.0349 9.55126 9.13087 12.2513 9.13087 15.3122C9.13087 18.7444 11.4306 20.9119 14.4484 20.9119C17.8168 20.9119 20.0284 18.4472 20.1896 15.5316L20.1812 14.8641Z" fill="#1FC7A2"/>
</g>
<defs>
<clipPath id="clip0">
<rect width="30" height="30" fill="white"/>
</clipPath>
</defs>
</svg>
