<svg width="18" height="4" viewBox="0 0 18 4" fill="none" xmlns="http://www.w3.org/2000/svg">
<path d="M2.33333 2.83329C2.79357 2.83329 3.16667 2.4602 3.16667 1.99996C3.16667 1.53972 2.79357 1.16663 2.33333 1.16663C1.8731 1.16663 1.5 1.53972 1.5 1.99996C1.5 2.4602 1.8731 2.83329 2.33333 2.83329Z" stroke="#414C69" stroke-width="1.66667"/>
<path d="M9.00033 2.83329C9.46056 2.83329 9.83366 2.4602 9.83366 1.99996C9.83366 1.53972 9.46056 1.16663 9.00033 1.16663C8.54009 1.16663 8.16699 1.53972 8.16699 1.99996C8.16699 2.4602 8.54009 2.83329 9.00033 2.83329Z" stroke="#414C69" stroke-width="1.66667"/>
<path d="M15.6663 2.83329C16.1266 2.83329 16.4997 2.4602 16.4997 1.99996C16.4997 1.53972 16.1266 1.16663 15.6663 1.16663C15.2061 1.16663 14.833 1.53972 14.833 1.99996C14.833 2.4602 15.2061 2.83329 15.6663 2.83329Z" stroke="#414C69" stroke-width="1.66667"/>
</svg>
