<svg width="20" height="20" viewBox="0 0 20 20" fill="none" xmlns="http://www.w3.org/2000/svg">
<path d="M3.33333 10.8333C3.79357 10.8333 4.16667 10.4602 4.16667 9.99996C4.16667 9.53972 3.79357 9.16663 3.33333 9.16663C2.8731 9.16663 2.5 9.53972 2.5 9.99996C2.5 10.4602 2.8731 10.8333 3.33333 10.8333Z" stroke="#1FC7A2" stroke-width="1.66667"/>
<path d="M10.0003 10.8333C10.4606 10.8333 10.8337 10.4602 10.8337 9.99996C10.8337 9.53972 10.4606 9.16663 10.0003 9.16663C9.54009 9.16663 9.16699 9.53972 9.16699 9.99996C9.16699 10.4602 9.54009 10.8333 10.0003 10.8333Z" stroke="#1FC7A2" stroke-width="1.66667"/>
<path d="M16.6663 10.8333C17.1266 10.8333 17.4997 10.4602 17.4997 9.99996C17.4997 9.53972 17.1266 9.16663 16.6663 9.16663C16.2061 9.16663 15.833 9.53972 15.833 9.99996C15.833 10.4602 16.2061 10.8333 16.6663 10.8333Z" stroke="#1FC7A2" stroke-width="1.66667"/>
</svg>
