<svg width="40" height="40" viewBox="0 0 40 40" fill="none" xmlns="http://www.w3.org/2000/svg">
<circle cx="20" cy="20" r="20" fill="#1FC7A2"/>
<path d="M25.3023 18.2325L17.8373 25.6987C17.4369 26.0989 16.9353 26.3827 16.3861 26.52L13.5223 27.2362C13.4175 27.2626 13.3076 27.2614 13.2033 27.2326C13.0991 27.2039 13.0041 27.1486 12.9277 27.0721C12.8512 26.9957 12.7959 26.9007 12.7672 26.7965C12.7384 26.6922 12.7372 26.5823 12.7636 26.4775L13.4798 23.615C13.6172 23.0652 13.9015 22.5631 14.3023 22.1625L21.7661 14.6962L25.3023 18.2325ZM27.0711 12.93C27.5397 13.3988 27.803 14.0346 27.803 14.6975C27.803 15.3604 27.5397 15.9962 27.0711 16.465L26.1861 17.3475L22.6498 13.8125L23.5348 12.93C23.767 12.6977 24.0426 12.5135 24.346 12.3878C24.6494 12.2621 24.9746 12.1974 25.3029 12.1974C25.6313 12.1974 25.9565 12.2621 26.2599 12.3878C26.5633 12.5135 26.8389 12.6977 27.0711 12.93Z" fill="white"/>
</svg>
