<svg width="20" height="20" viewBox="0 0 20 20" fill="none" xmlns="http://www.w3.org/2000/svg">
<circle cx="10" cy="10" r="10" fill="#1FC7A2"/>
<path d="M13.1455 9.04017C12.9559 8.5708 12.6803 8.14951 12.3359 7.80267L12.0518 7.51586C12.0421 7.50639 12.0305 7.49966 12.0179 7.49628C12.0054 7.4929 11.9922 7.49296 11.9797 7.49646C11.9672 7.49996 11.9556 7.50679 11.946 7.51636C11.9365 7.52592 11.9292 7.53792 11.9248 7.55131L11.7979 7.95199C11.7187 8.20336 11.5732 8.4601 11.3672 8.71254C11.3535 8.72865 11.3379 8.73295 11.3271 8.73402C11.3164 8.7351 11.2998 8.73295 11.2852 8.71791C11.2715 8.70502 11.2646 8.68568 11.2656 8.66635C11.3018 8.01967 11.126 7.29027 10.7412 6.49642C10.4229 5.83685 9.98047 5.3223 9.42773 4.96351L9.02441 4.70248C8.97168 4.6681 8.9043 4.71322 8.90723 4.7809L8.92871 5.29652C8.94336 5.64886 8.90625 5.96039 8.81836 6.21927C8.71094 6.53617 8.55664 6.8305 8.35937 7.09476C8.22209 7.27841 8.0665 7.44453 7.89551 7.58998C7.4837 7.9382 7.14884 8.3844 6.91602 8.89515C6.68376 9.41036 6.56278 9.9776 6.5625 10.5527C6.5625 11.0597 6.65332 11.5506 6.83301 12.0136C7.00651 12.4594 7.25689 12.8639 7.57031 13.2049C7.88672 13.5487 8.25391 13.8194 8.66309 14.0074C9.08691 14.2029 9.53613 14.3017 10 14.3017C10.4639 14.3017 10.9131 14.2029 11.3369 14.0084C11.7451 13.8215 12.1163 13.549 12.4297 13.206C12.7461 12.8622 12.9941 12.4605 13.167 12.0147C13.3464 11.553 13.4384 11.0559 13.4375 10.5537C13.4375 10.0295 13.3398 9.52035 13.1455 9.04017Z" fill="white"/>
</svg>
