<svg width="50" height="50" viewBox="0 0 50 50" fill="none" xmlns="http://www.w3.org/2000/svg">
<circle cx="25" cy="25" r="25" fill="#4A7DC9"/>
<path d="M8.41477 29L9.29261 26.5284H12.821L13.6989 29H14.8068L11.6023 20.2727H10.5114L7.30682 29H8.41477ZM9.625 25.5909L11.0227 21.6534H11.0909L12.4886 25.5909H9.625ZM16.1662 20.2727V29H17.1548V22.3693H17.2401L19.9673 29H20.9219L23.6491 22.3693H23.7344V29H24.723V20.2727H23.4616L20.4957 27.517H20.3935L17.4276 20.2727H16.1662ZM26.5522 29H32.5692V28.0625H27.8136L32.5181 21.0398V20.2727H26.5011V21.2102H31.2567L26.5522 28.233V29ZM41.2624 20.2727H40.2227V27.142H40.1374L35.3647 20.2727H34.342V29H35.3988V22.1477H35.484L40.2397 29H41.2624V20.2727Z" fill="white"/>
</svg>
