<svg width="119" height="38" viewBox="0 0 119 38" fill="none" xmlns="http://www.w3.org/2000/svg">
<path fill-rule="evenodd" clip-rule="evenodd" d="M36.7878 23.9772V37.7461L23.5918 29.2796L34.4186 22.4947L36.7878 23.9772Z" fill="#1FC7A2"/>
<path d="M36.7878 14.7336V0.965332L-8.50674e-05 23.9847V37.7529L36.7878 14.7336Z" fill="#4A7DC9"/>
<path d="M18.3974 12.473V26.2412L0.00346634 14.7315V0.963309L18.3974 12.473Z" fill="#1FC7A2"/>
<path d="M69.7059 17.5703L61.9353 10.4736L69.769 3.37695H62.5671L57.8289 7.92556L53.1119 3.37695H45.8889L53.6804 10.4947L45.931 17.5703H53.0698L57.8079 13.0638L62.5039 17.5703H69.7059Z" fill="#B5B5B5"/>
<path d="M76.0873 3.37695H71.2228V17.5703H76.0873V3.37695Z" fill="#B5B5B5"/>
<path d="M99.3578 10.3262C99.3578 4.95633 94.4933 3.37695 89.2919 3.37695H78.5732V17.5703H89.2919C94.5565 17.5703 99.3578 15.6119 99.3578 10.3262ZM94.3459 10.3683C94.3459 12.8111 92.3453 14.1167 88.4495 14.1167H83.4377V6.83052H88.4495C92.3453 6.83052 94.3459 8.05191 94.3459 10.3683Z" fill="#B5B5B5"/>
<path d="M118.837 17.5703V14.2009H106.033V11.6529H118.837V8.43096H106.033V6.74629H118.837V3.37695H101.169V17.5703H118.837Z" fill="#B5B5B5"/>
<path d="M48.2342 24.1415V22.8003C48.2342 22.7453 48.1998 22.7109 48.1379 22.7109H47.7046C47.6427 22.7109 47.6084 22.7453 47.6084 22.8003V24.169C47.6084 24.5335 47.3883 24.8017 47.065 24.8017C46.7418 24.8017 46.5217 24.5335 46.5217 24.169V22.8003C46.5217 22.7453 46.4873 22.7109 46.4254 22.7109H45.9921C45.9302 22.7109 45.8958 22.7453 45.8958 22.8003V24.1415C45.8958 24.561 46.0678 24.8774 46.3772 25.0837C46.0678 25.2969 45.8958 25.6133 45.8958 26.0328V27.429C45.8958 27.4909 45.9302 27.5253 45.9921 27.5253H46.4254C46.4873 27.5253 46.5217 27.4909 46.5217 27.429V26.0053C46.5217 25.6408 46.7418 25.3795 47.065 25.3795C47.3883 25.3795 47.6084 25.6408 47.6084 26.0053V27.429C47.6084 27.4909 47.6427 27.5253 47.7046 27.5253H48.1379C48.1998 27.5253 48.2342 27.4909 48.2342 27.429V26.0328C48.2342 25.6133 48.0623 25.2969 47.7528 25.0837C48.0623 24.8774 48.2342 24.561 48.2342 24.1415Z" fill="#B5B5B5"/>
<path d="M48.9268 26.0154H50.4605C50.5224 26.0154 50.5568 25.981 50.5568 25.926V25.5821C50.5568 25.5271 50.5224 25.4858 50.4605 25.4858H48.9268C48.8718 25.4858 48.8374 25.5271 48.8374 25.5821V25.926C48.8374 25.981 48.8718 26.0154 48.9268 26.0154Z" fill="#B5B5B5"/>
<path d="M52.3304 27.5383H53.0526C53.1076 27.5383 53.142 27.5039 53.142 27.4489V27.0568C53.142 26.9949 53.1076 26.9605 53.0526 26.9605H52.3786C52.0209 26.9605 51.7802 26.6854 51.7802 26.2934V25.3649H52.8807C52.9426 25.3649 52.9769 25.3305 52.9769 25.2686V24.8972C52.9769 24.8353 52.9426 24.8009 52.8807 24.8009H51.7802V23.9275C51.7802 23.5354 52.0209 23.2603 52.3786 23.2603H53.0526C53.1076 23.2603 53.142 23.226 53.142 23.1641V22.772C53.142 22.717 53.1076 22.6826 53.0526 22.6826H52.3304C51.6358 22.6826 51.1544 23.2053 51.1544 23.9137V26.3072C51.1544 27.0156 51.6358 27.5383 52.3304 27.5383Z" fill="#B5B5B5"/>
<path d="M56.6658 22.6387C56.2875 22.6387 56.04 22.8175 55.8543 23.072C55.6686 22.8175 55.4278 22.6387 55.0427 22.6387C54.348 22.6387 53.9216 23.1407 53.9216 23.9179V27.4324C53.9216 27.4943 53.956 27.5287 54.011 27.5287H54.4443C54.4994 27.5287 54.5337 27.4943 54.5337 27.4324V23.8904C54.5337 23.464 54.7057 23.2233 55.0427 23.2233C55.3384 23.2233 55.5448 23.464 55.5448 23.8904V27.4324C55.5448 27.4943 55.5791 27.5287 55.6342 27.5287H56.0675C56.1225 27.5287 56.1569 27.4943 56.1569 27.4324V23.8904C56.1569 23.464 56.3563 23.2233 56.6658 23.2233C56.9891 23.2233 57.1679 23.464 57.1679 23.8904V27.4324C57.1679 27.4943 57.2023 27.5287 57.2573 27.5287H57.6906C57.7525 27.5287 57.7869 27.4943 57.7869 27.4324V23.9179C57.7869 23.1407 57.3536 22.6387 56.6658 22.6387Z" fill="#B5B5B5"/>
<path d="M58.8193 27.5287H59.2594C59.3145 27.5287 59.3488 27.4943 59.3488 27.4324V25.7955H59.8922C60.6075 25.7955 61.0683 25.3141 61.0683 24.6126V23.911C61.0683 23.1614 60.6006 22.6387 59.8853 22.6387C59.1769 22.6387 58.7299 23.1614 58.7299 23.911V27.4324C58.7299 27.4943 58.7642 27.5287 58.8193 27.5287ZM59.3488 25.2178V23.8835C59.3488 23.4846 59.5552 23.2233 59.8922 23.2233C60.2292 23.2233 60.4424 23.4846 60.4424 23.8835V24.6263C60.4424 24.9977 60.2292 25.2178 59.8716 25.2178H59.3488Z" fill="#B5B5B5"/>
<path d="M61.8676 22.8003V27.429C61.8676 27.4909 61.9019 27.5253 61.9638 27.5253H62.3971C62.4522 27.5253 62.4865 27.4909 62.4865 27.429V22.8003C62.4865 22.7453 62.4522 22.7109 62.3971 22.7109H61.9638C61.9019 22.7109 61.8676 22.7453 61.8676 22.8003Z" fill="#B5B5B5"/>
<path d="M63.5694 27.5287H64.0096C64.0646 27.5287 64.099 27.4943 64.099 27.4324V25.713H64.6561L65.3094 27.4462C65.3232 27.5012 65.3507 27.5287 65.4057 27.5287H65.8734C65.9353 27.5287 65.9834 27.4874 65.9628 27.4255L65.2269 25.5686C65.5845 25.376 65.839 24.9908 65.839 24.4613V23.911C65.839 23.1614 65.3576 22.6387 64.6492 22.6387C63.9545 22.6387 63.48 23.1614 63.48 23.911V27.4324C63.48 27.4943 63.5144 27.5287 63.5694 27.5287ZM64.099 25.1421V23.8835C64.099 23.4846 64.3259 23.2233 64.6561 23.2233C64.9862 23.2233 65.2132 23.4846 65.2132 23.8835V24.475C65.2132 24.8808 64.9862 25.1421 64.6285 25.1421H64.099Z" fill="#B5B5B5"/>
<path d="M66.7847 22.8003V27.429C66.7847 27.4909 66.8191 27.5253 66.881 27.5253H67.3143C67.3693 27.5253 67.4037 27.4909 67.4037 27.429V22.8003C67.4037 22.7453 67.3693 22.7109 67.3143 22.7109H66.881C66.8191 22.7109 66.7847 22.7453 66.7847 22.8003Z" fill="#B5B5B5"/>
<path d="M69.5006 27.6043C70.2021 27.6043 70.6629 27.0748 70.6904 26.2426C70.6904 26.1807 70.656 26.1463 70.601 26.1463H70.1609C70.1058 26.1463 70.0714 26.1738 70.0714 26.2357C70.0577 26.7378 69.8445 27.0197 69.4937 27.0197C69.1498 27.0197 68.9504 26.7859 68.9504 26.4008V23.8423C68.9504 23.4571 69.1498 23.2233 69.4937 23.2233C69.8101 23.2233 70.0233 23.4777 70.0371 23.9592C70.0371 24.0211 70.0714 24.0486 70.1265 24.0486H70.5666C70.6285 24.0486 70.656 24.0142 70.656 23.9592C70.6354 23.1545 70.1746 22.6387 69.5006 22.6387C68.7991 22.6387 68.3245 23.1339 68.3245 23.8767V26.3664C68.3245 27.1092 68.7991 27.6043 69.5006 27.6043Z" fill="#B5B5B5"/>
<path d="M71.508 27.5218H71.9482C72.0032 27.5218 72.0376 27.4874 72.0376 27.4255V25.8987H73.1518V27.4255C73.1518 27.4874 73.1931 27.5218 73.2481 27.5218H73.6814C73.7433 27.5218 73.7777 27.4874 73.7777 27.4255V23.9042C73.7777 23.1476 73.3031 22.6387 72.5947 22.6387C71.8863 22.6387 71.4186 23.1476 71.4186 23.9042V27.4255C71.4186 27.4874 71.453 27.5218 71.508 27.5218ZM72.0376 25.3278V23.8767C72.0376 23.464 72.244 23.2233 72.5947 23.2233C72.9524 23.2233 73.1518 23.464 73.1518 23.8767V25.3278H72.0376Z" fill="#B5B5B5"/>
<path d="M75.8928 26.9682C75.5765 26.9682 75.3495 26.7069 75.3495 26.3148V22.8003C75.3495 22.7453 75.3151 22.7109 75.2532 22.7109H74.813C74.758 22.7109 74.7236 22.7453 74.7236 22.8003V26.3355C74.7236 27.0232 75.1569 27.5459 75.8584 27.5459H76.5531C76.615 27.5459 76.6494 27.5116 76.6494 27.4565V27.0645C76.6494 27.0026 76.615 26.9682 76.5531 26.9682H75.8928Z" fill="#B5B5B5"/>
<path d="M81.7601 22.6387C81.3818 22.6387 81.1343 22.8175 80.9486 23.072C80.7629 22.8175 80.5221 22.6387 80.137 22.6387C79.4423 22.6387 79.0159 23.1407 79.0159 23.9179V27.4324C79.0159 27.4943 79.0503 27.5287 79.1053 27.5287H79.5386C79.5937 27.5287 79.628 27.4943 79.628 27.4324V23.8904C79.628 23.464 79.8 23.2233 80.137 23.2233C80.4327 23.2233 80.6391 23.464 80.6391 23.8904V27.4324C80.6391 27.4943 80.6734 27.5287 80.7285 27.5287H81.1618C81.2168 27.5287 81.2512 27.4943 81.2512 27.4324V23.8904C81.2512 23.464 81.4506 23.2233 81.7601 23.2233C82.0834 23.2233 82.2622 23.464 82.2622 23.8904V27.4324C82.2622 27.4943 82.2966 27.5287 82.3516 27.5287H82.7849C82.8468 27.5287 82.8812 27.4943 82.8812 27.4324V23.9179C82.8812 23.1407 82.4479 22.6387 81.7601 22.6387Z" fill="#B5B5B5"/>
<path d="M84.9689 27.5906C85.6842 27.5906 86.1793 27.0679 86.1793 26.3457V23.8835C86.1793 23.1614 85.6842 22.6387 84.9689 22.6387C84.2536 22.6387 83.7515 23.1614 83.7515 23.9317V26.2976C83.7515 27.0679 84.2536 27.5906 84.9689 27.5906ZM84.9689 27.0129C84.6181 27.0129 84.3774 26.7515 84.3774 26.3251V23.9042C84.3774 23.4777 84.6181 23.2164 84.9689 23.2164C85.3196 23.2164 85.5535 23.4777 85.5535 23.856V26.3733C85.5535 26.7515 85.3196 27.0129 84.9689 27.0129Z" fill="#B5B5B5"/>
<path d="M87.3746 27.5383H88.2618C88.9771 27.5383 89.4379 27.0156 89.4379 26.2934V23.9275C89.4379 23.2053 88.9839 22.6826 88.2618 22.6826H87.3746C87.1958 22.6826 87.0926 22.7789 87.0926 22.9577V27.2632C87.0926 27.442 87.1958 27.5383 87.3746 27.5383ZM87.7185 26.9605V23.2603H88.2412C88.6057 23.2603 88.812 23.5217 88.812 23.9137V26.3072C88.812 26.6992 88.5988 26.9605 88.2412 26.9605H87.7185Z" fill="#B5B5B5"/>
<path d="M91.4209 27.5383H92.143C92.1981 27.5383 92.2325 27.5039 92.2325 27.4489V27.0568C92.2325 26.9949 92.1981 26.9605 92.143 26.9605H91.469C91.1114 26.9605 90.8707 26.6854 90.8707 26.2934V25.3649H91.9711C92.033 25.3649 92.0674 25.3305 92.0674 25.2686V24.8972C92.0674 24.8353 92.033 24.8009 91.9711 24.8009H90.8707V23.9275C90.8707 23.5354 91.1114 23.2603 91.469 23.2603H92.143C92.1981 23.2603 92.2325 23.226 92.2325 23.1641V22.772C92.2325 22.717 92.1981 22.6826 92.143 22.6826H91.4209C90.7262 22.6826 90.2448 23.2053 90.2448 23.9137V26.3072C90.2448 27.0156 90.7262 27.5383 91.4209 27.5383Z" fill="#B5B5B5"/>
<path d="M94.1668 26.9682C93.8504 26.9682 93.6234 26.7069 93.6234 26.3148V22.8003C93.6234 22.7453 93.589 22.7109 93.5271 22.7109H93.087C93.0319 22.7109 92.9976 22.7453 92.9976 22.8003V26.3355C92.9976 27.0232 93.4309 27.5459 94.1324 27.5459H94.827C94.8889 27.5459 94.9233 27.5116 94.9233 27.4565V27.0645C94.9233 27.0026 94.8889 26.9682 94.827 26.9682H94.1668Z" fill="#B5B5B5"/>
<path d="M95.5978 22.8003V27.429C95.5978 27.4909 95.6322 27.5253 95.6941 27.5253H96.1274C96.1824 27.5253 96.2168 27.4909 96.2168 27.429V22.8003C96.2168 22.7453 96.1824 22.7109 96.1274 22.7109H95.6941C95.6322 22.7109 95.5978 22.7453 95.5978 22.8003Z" fill="#B5B5B5"/>
<path d="M97.3069 27.5287H97.747C97.8021 27.5287 97.8365 27.4943 97.8365 27.4324V23.8767C97.8365 23.4846 98.0497 23.2233 98.3935 23.2233C98.7374 23.2233 98.9506 23.4846 98.9506 23.8767V27.4324C98.9506 27.4943 98.9919 27.5287 99.0469 27.5287H99.4802C99.5421 27.5287 99.5765 27.4943 99.5765 27.4324V23.9042C99.5765 23.1614 99.1088 22.6387 98.3935 22.6387C97.6783 22.6387 97.2175 23.1614 97.2175 23.9042V27.4324C97.2175 27.4943 97.2519 27.5287 97.3069 27.5287Z" fill="#B5B5B5"/>
<path d="M101.66 27.6043C102.375 27.6043 102.871 27.0816 102.871 26.3732V25.204C102.871 25.0252 102.767 24.9221 102.589 24.9221H101.777C101.715 24.9221 101.681 24.9564 101.681 25.0183V25.3829C101.681 25.4379 101.715 25.4723 101.777 25.4723H102.252V26.4076C102.252 26.7653 102.011 27.0197 101.667 27.0197C101.316 27.0197 101.075 26.7653 101.075 26.3595V23.8835C101.075 23.4777 101.289 23.2233 101.639 23.2233C101.97 23.2233 102.176 23.4709 102.197 23.8904C102.203 23.9523 102.238 23.9867 102.293 23.9867H102.733C102.788 23.9867 102.822 23.9523 102.822 23.8904C102.802 23.1545 102.327 22.6387 101.639 22.6387C100.924 22.6387 100.45 23.1545 100.45 23.9042V26.332C100.45 27.0816 100.945 27.6043 101.66 27.6043Z" fill="#B5B5B5"/>
<path d="M106.489 28.3552C106.544 28.3552 106.578 28.3208 106.578 28.2658V27.8875C106.578 27.8325 106.55 27.7981 106.489 27.7912C106.186 27.7706 105.98 27.5299 105.98 27.1653V23.0731C105.98 22.7086 106.186 22.4679 106.489 22.4541C106.55 22.4473 106.578 22.4129 106.578 22.351V21.9727C106.578 21.9177 106.544 21.8833 106.489 21.8833C105.821 21.9039 105.381 22.3854 105.381 23.1213V27.1172C105.381 27.8531 105.821 28.3346 106.489 28.3552Z" fill="#B5B5B5"/>
<path d="M109.543 24.1415V22.8003C109.543 22.7453 109.508 22.7109 109.446 22.7109H109.013C108.951 22.7109 108.917 22.7453 108.917 22.8003V24.169C108.917 24.5335 108.697 24.8017 108.374 24.8017C108.05 24.8017 107.83 24.5335 107.83 24.169V22.8003C107.83 22.7453 107.796 22.7109 107.734 22.7109H107.301C107.239 22.7109 107.204 22.7453 107.204 22.8003V24.1415C107.204 24.561 107.376 24.8774 107.686 25.0837C107.376 25.2969 107.204 25.6133 107.204 26.0328V27.429C107.204 27.4909 107.239 27.5253 107.301 27.5253H107.734C107.796 27.5253 107.83 27.4909 107.83 27.429V26.0053C107.83 25.6408 108.05 25.3795 108.374 25.3795C108.697 25.3795 108.917 25.6408 108.917 26.0053V27.429C108.917 27.4909 108.951 27.5253 109.013 27.5253H109.446C109.508 27.5253 109.543 27.4909 109.543 27.429V26.0328C109.543 25.6133 109.371 25.2969 109.061 25.0837C109.371 24.8774 109.543 24.561 109.543 24.1415Z" fill="#B5B5B5"/>
<path d="M111.489 27.5383H112.211C112.266 27.5383 112.301 27.5039 112.301 27.4489V27.0568C112.301 26.9949 112.266 26.9605 112.211 26.9605H111.537C111.18 26.9605 110.939 26.6854 110.939 26.2934V25.3649H112.039C112.101 25.3649 112.136 25.3305 112.136 25.2686V24.8972C112.136 24.8353 112.101 24.8009 112.039 24.8009H110.939V23.9275C110.939 23.5354 111.18 23.2603 111.537 23.2603H112.211C112.266 23.2603 112.301 23.226 112.301 23.1641V22.772C112.301 22.717 112.266 22.6826 112.211 22.6826H111.489C110.794 22.6826 110.313 23.2053 110.313 23.9137V26.3072C110.313 27.0156 110.794 27.5383 111.489 27.5383Z" fill="#B5B5B5"/>
<path d="M115.824 22.6387C115.446 22.6387 115.199 22.8175 115.013 23.072C114.827 22.8175 114.586 22.6387 114.201 22.6387C113.507 22.6387 113.08 23.1407 113.08 23.9179V27.4324C113.08 27.4943 113.115 27.5287 113.17 27.5287H113.603C113.658 27.5287 113.692 27.4943 113.692 27.4324V23.8904C113.692 23.464 113.864 23.2233 114.201 23.2233C114.497 23.2233 114.703 23.464 114.703 23.8904V27.4324C114.703 27.4943 114.738 27.5287 114.793 27.5287H115.226C115.281 27.5287 115.316 27.4943 115.316 27.4324V23.8904C115.316 23.464 115.515 23.2233 115.824 23.2233C116.148 23.2233 116.327 23.464 116.327 23.8904V27.4324C116.327 27.4943 116.361 27.5287 116.416 27.5287H116.849C116.911 27.5287 116.946 27.4943 116.946 27.4324V23.9179C116.946 23.1407 116.512 22.6387 115.824 22.6387Z" fill="#B5B5B5"/>
<path d="M117.731 28.3552C118.398 28.3346 118.838 27.8531 118.838 27.1172V23.1213C118.838 22.3854 118.398 21.9039 117.731 21.8833C117.676 21.8833 117.642 21.9177 117.642 21.9727V22.351C117.642 22.4129 117.669 22.4473 117.731 22.4541C118.034 22.4679 118.24 22.7086 118.24 23.0731V27.1653C118.24 27.5299 118.034 27.7706 117.731 27.7912C117.669 27.7981 117.642 27.8325 117.642 27.8875V28.2658C117.642 28.3208 117.676 28.3552 117.731 28.3552Z" fill="#B5B5B5"/>
<path d="M46.0579 35.2543H46.498C46.553 35.2543 46.5874 35.2199 46.5874 35.158V33.1497H47.6122C47.6672 33.1497 47.7016 33.1154 47.7016 33.0603V32.6683C47.7016 32.6133 47.6672 32.5789 47.6122 32.5789H46.5874V31.6848C46.5874 31.2928 46.8282 31.0177 47.1858 31.0177H47.7429C47.8048 31.0177 47.8392 30.9833 47.8392 30.9214V30.5294C47.8392 30.4743 47.8048 30.4399 47.7429 30.4399H47.1376C46.443 30.4399 45.9684 30.9626 45.9684 31.671V35.158C45.9684 35.2199 46.0028 35.2543 46.0579 35.2543Z" fill="#B5B5B5"/>
<path d="M49.6698 35.3328C50.3851 35.3328 50.8803 34.8101 50.8803 34.0879V31.6257C50.8803 30.9036 50.3851 30.3809 49.6698 30.3809C48.9545 30.3809 48.4525 30.9036 48.4525 31.6739V34.0398C48.4525 34.8101 48.9545 35.3328 49.6698 35.3328ZM49.6698 34.7551C49.319 34.7551 49.0783 34.4937 49.0783 34.0673V31.6464C49.0783 31.2199 49.319 30.9586 49.6698 30.9586C50.0206 30.9586 50.2544 31.2199 50.2544 31.5982V34.1154C50.2544 34.4937 50.0206 34.7551 49.6698 34.7551Z" fill="#B5B5B5"/>
<path d="M51.8466 35.2567H52.2868C52.3418 35.2567 52.3762 35.2223 52.3762 35.1604V33.441H52.9333L53.5867 35.1742C53.6004 35.2292 53.6279 35.2567 53.6829 35.2567H54.1506C54.2125 35.2567 54.2607 35.2155 54.24 35.1536L53.5041 33.2966C53.8618 33.104 54.1162 32.7189 54.1162 32.1893V31.6391C54.1162 30.8894 53.6348 30.3667 52.9264 30.3667C52.2318 30.3667 51.7572 30.8894 51.7572 31.6391V35.1604C51.7572 35.2223 51.7916 35.2567 51.8466 35.2567ZM52.3762 32.8702V31.6116C52.3762 31.2127 52.6032 30.9513 52.9333 30.9513C53.2634 30.9513 53.4904 31.2127 53.4904 31.6116V32.203C53.4904 32.6088 53.2634 32.8702 52.9058 32.8702H52.3762Z" fill="#B5B5B5"/>
<path d="M58.6428 30.4399H56.5314C56.4763 30.4399 56.442 30.4743 56.442 30.5294V30.9214C56.442 30.9833 56.4763 31.0177 56.5314 31.0177H57.281V35.158C57.281 35.2199 57.3154 35.2543 57.3704 35.2543H57.8037C57.8656 35.2543 57.9 35.2199 57.9 35.158V31.0177H58.6428C58.7047 31.0177 58.7391 30.9833 58.7391 30.9214V30.5294C58.7391 30.4743 58.7047 30.4399 58.6428 30.4399Z" fill="#B5B5B5"/>
<path d="M59.4294 35.264H59.8695C59.9246 35.264 59.959 35.2296 59.959 35.1677V33.6409H61.0731V35.1677C61.0731 35.2296 61.1144 35.264 61.1694 35.264H61.6027C61.6646 35.264 61.699 35.2296 61.699 35.1677V31.6464C61.699 30.8898 61.2244 30.3809 60.516 30.3809C59.8076 30.3809 59.34 30.8898 59.34 31.6464V35.1677C59.34 35.2296 59.3744 35.264 59.4294 35.264ZM59.959 33.07V31.6188C59.959 31.2062 60.1653 30.9655 60.516 30.9655C60.8737 30.9655 61.0731 31.2062 61.0731 31.6188V33.07H59.959Z" fill="#B5B5B5"/>
<path d="M63.7482 35.3324C64.4497 35.3324 64.9105 34.8028 64.938 33.9706C64.938 33.9087 64.9036 33.8743 64.8486 33.8743H64.4084C64.3534 33.8743 64.319 33.9018 64.319 33.9637C64.3053 34.4658 64.092 34.7478 63.7413 34.7478C63.3974 34.7478 63.198 34.5139 63.198 34.1288V31.5703C63.198 31.1851 63.3974 30.9513 63.7413 30.9513C64.0577 30.9513 64.2709 31.2058 64.2846 31.6872C64.2846 31.7491 64.319 31.7766 64.374 31.7766H64.8142C64.8761 31.7766 64.9036 31.7422 64.9036 31.6872C64.883 30.8825 64.4222 30.3667 63.7482 30.3667C63.0466 30.3667 62.5721 30.8619 62.5721 31.6047V34.0944C62.5721 34.8372 63.0466 35.3324 63.7482 35.3324Z" fill="#B5B5B5"/>
<path d="M67.5765 30.4399H65.4651C65.4101 30.4399 65.3757 30.4743 65.3757 30.5294V30.9214C65.3757 30.9833 65.4101 31.0177 65.4651 31.0177H66.2147V35.158C66.2147 35.2199 66.2491 35.2543 66.3042 35.2543H66.7374C66.7993 35.2543 66.8337 35.2199 66.8337 35.158V31.0177H67.5765C67.6384 31.0177 67.6728 30.9833 67.6728 30.9214V30.5294C67.6728 30.4743 67.6384 30.4399 67.5765 30.4399Z" fill="#B5B5B5"/>
<path d="M68.3536 30.5294V35.158C68.3536 35.2199 68.388 35.2543 68.4499 35.2543H68.8832C68.9382 35.2543 68.9726 35.2199 68.9726 35.158V30.5294C68.9726 30.4743 68.9382 30.4399 68.8832 30.4399H68.4499C68.388 30.4399 68.3536 30.4743 68.3536 30.5294Z" fill="#B5B5B5"/>
<path d="M71.0695 35.3324C71.771 35.3324 72.2318 34.8028 72.2593 33.9706C72.2593 33.9087 72.2249 33.8743 72.1699 33.8743H71.7297C71.6747 33.8743 71.6403 33.9018 71.6403 33.9637C71.6265 34.4658 71.4133 34.7478 71.0626 34.7478C70.7187 34.7478 70.5192 34.5139 70.5192 34.1288V31.5703C70.5192 31.1851 70.7187 30.9513 71.0626 30.9513C71.3789 30.9513 71.5922 31.2058 71.6059 31.6872C71.6059 31.7491 71.6403 31.7766 71.6953 31.7766H72.1355C72.1974 31.7766 72.2249 31.7422 72.2249 31.6872C72.2043 30.8825 71.7435 30.3667 71.0695 30.3667C70.3679 30.3667 69.8934 30.8619 69.8934 31.6047V34.0944C69.8934 34.8372 70.3679 35.3324 71.0695 35.3324Z" fill="#B5B5B5"/>
<path d="M73.0769 35.264H73.5171C73.5721 35.264 73.6065 35.2296 73.6065 35.1677V33.6409H74.7207V35.1677C74.7207 35.2296 74.7619 35.264 74.8169 35.264H75.2502C75.3121 35.264 75.3465 35.2296 75.3465 35.1677V31.6464C75.3465 30.8898 74.872 30.3809 74.1636 30.3809C73.4552 30.3809 72.9875 30.8898 72.9875 31.6464V35.1677C72.9875 35.2296 73.0219 35.264 73.0769 35.264ZM73.6065 33.07V31.6188C73.6065 31.2062 73.8128 30.9655 74.1636 30.9655C74.5212 30.9655 74.7207 31.2062 74.7207 31.6188V33.07H73.6065Z" fill="#B5B5B5"/>
<path d="M77.4614 34.6972C77.1451 34.6972 76.9181 34.4359 76.9181 34.0438V30.5294C76.9181 30.4743 76.8837 30.4399 76.8218 30.4399H76.3816C76.3266 30.4399 76.2922 30.4743 76.2922 30.5294V34.0645C76.2922 34.7522 76.7255 35.2749 77.427 35.2749H78.1217C78.1836 35.2749 78.218 35.2406 78.218 35.1855V34.7935C78.218 34.7316 78.1836 34.6972 78.1217 34.6972H77.4614Z" fill="#B5B5B5"/>
<path d="M82.5024 30.4399H80.3909C80.3359 30.4399 80.3015 30.4743 80.3015 30.5294V30.9214C80.3015 30.9833 80.3359 31.0177 80.3909 31.0177H81.1406V35.158C81.1406 35.2199 81.175 35.2543 81.23 35.2543H81.6633C81.7252 35.2543 81.7596 35.2199 81.7596 35.158V31.0177H82.5024C82.5643 31.0177 82.5986 30.9833 82.5986 30.9214V30.5294C82.5986 30.4743 82.5643 30.4399 82.5024 30.4399Z" fill="#B5B5B5"/>
<path d="M83.2962 35.2567H83.7364C83.7914 35.2567 83.8258 35.2223 83.8258 35.1604V33.441H84.3829L85.0362 35.1742C85.05 35.2292 85.0775 35.2567 85.1325 35.2567H85.6002C85.6621 35.2567 85.7103 35.2155 85.6896 35.1536L84.9537 33.2966C85.3113 33.104 85.5658 32.7189 85.5658 32.1893V31.6391C85.5658 30.8894 85.0844 30.3667 84.376 30.3667C83.6813 30.3667 83.2068 30.8894 83.2068 31.6391V35.1604C83.2068 35.2223 83.2412 35.2567 83.2962 35.2567ZM83.8258 32.8702V31.6116C83.8258 31.2127 84.0527 30.9513 84.3829 30.9513C84.713 30.9513 84.94 31.2127 84.94 31.6116V32.203C84.94 32.6088 84.713 32.8702 84.3554 32.8702H83.8258Z" fill="#B5B5B5"/>
<path d="M86.5428 35.264H86.983C87.038 35.264 87.0724 35.2296 87.0724 35.1677V33.6409H88.1866V35.1677C88.1866 35.2296 88.2279 35.264 88.2829 35.264H88.7162C88.7781 35.264 88.8125 35.2296 88.8125 35.1677V31.6464C88.8125 30.8898 88.3379 30.3809 87.6295 30.3809C86.9211 30.3809 86.4534 30.8898 86.4534 31.6464V35.1677C86.4534 35.2296 86.4878 35.264 86.5428 35.264ZM87.0724 33.07V31.6188C87.0724 31.2062 87.2787 30.9655 87.6295 30.9655C87.9871 30.9655 88.1866 31.2062 88.1866 31.6188V33.07H87.0724Z" fill="#B5B5B5"/>
<path d="M90.0837 35.2804H90.971C91.6862 35.2804 92.147 34.7577 92.147 34.0356V31.6697C92.147 30.9475 91.6931 30.4248 90.971 30.4248H90.0837C89.9049 30.4248 89.8018 30.5211 89.8018 30.6999V35.0053C89.8018 35.1842 89.9049 35.2804 90.0837 35.2804ZM90.4276 34.7027V31.0025H90.9503C91.3148 31.0025 91.5212 31.2639 91.5212 31.6559V34.0493C91.5212 34.4414 91.308 34.7027 90.9503 34.7027H90.4276Z" fill="#B5B5B5"/>
<path d="M93.0702 30.5294V35.158C93.0702 35.2199 93.1046 35.2543 93.1665 35.2543H93.5998C93.6548 35.2543 93.6892 35.2199 93.6892 35.158V30.5294C93.6892 30.4743 93.6548 30.4399 93.5998 30.4399H93.1665C93.1046 30.4399 93.0702 30.4743 93.0702 30.5294Z" fill="#B5B5B5"/>
<path d="M94.772 35.2567H95.2122C95.2672 35.2567 95.3016 35.2223 95.3016 35.1604V31.6047C95.3016 31.2127 95.5148 30.9513 95.8587 30.9513C96.2026 30.9513 96.4158 31.2127 96.4158 31.6047V35.1604C96.4158 35.2223 96.4571 35.2567 96.5121 35.2567H96.9454C97.0073 35.2567 97.0417 35.2223 97.0417 35.1604V31.6322C97.0417 30.8894 96.574 30.3667 95.8587 30.3667C95.1434 30.3667 94.6826 30.8894 94.6826 31.6322V35.1604C94.6826 35.2223 94.717 35.2567 94.772 35.2567Z" fill="#B5B5B5"/>
<path d="M99.1325 35.3324C99.8477 35.3324 100.343 34.8097 100.343 34.1013V32.9321C100.343 32.7533 100.24 32.6501 100.061 32.6501H99.2494C99.1875 32.6501 99.1531 32.6845 99.1531 32.7464V33.1109C99.1531 33.1659 99.1875 33.2003 99.2494 33.2003H99.7239V34.1357C99.7239 34.4933 99.4832 34.7478 99.1393 34.7478C98.7886 34.7478 98.5479 34.4933 98.5479 34.0875V31.6116C98.5479 31.2058 98.7611 30.9513 99.1118 30.9513C99.442 30.9513 99.6483 31.1989 99.6689 31.6184C99.6758 31.6803 99.7102 31.7147 99.7652 31.7147H100.205C100.26 31.7147 100.295 31.6803 100.295 31.6184C100.274 30.8825 99.7996 30.3667 99.1118 30.3667C98.3966 30.3667 97.922 30.8825 97.922 31.6322V34.06C97.922 34.8097 98.4172 35.3324 99.1325 35.3324Z" fill="#B5B5B5"/>
</svg>
