<svg width="7" height="9" viewBox="0 0 7 9" fill="none" xmlns="http://www.w3.org/2000/svg">
<path d="M0.96875 8.62494C0.894158 8.62494 0.822621 8.58872 0.769876 8.52426C0.717132 8.45979 0.6875 8.37236 0.6875 8.28119V0.718691C0.687508 0.658958 0.700252 0.600257 0.724475 0.548377C0.748698 0.496496 0.783564 0.453226 0.825637 0.42283C0.86771 0.392435 0.915536 0.375964 0.964404 0.375041C1.01327 0.374118 1.06149 0.388775 1.10431 0.417566L6.72931 4.19882C6.77341 4.22849 6.81018 4.27208 6.83579 4.32505C6.8614 4.37802 6.87491 4.43842 6.87491 4.49994C6.87491 4.56147 6.8614 4.62186 6.83579 4.67483C6.81018 4.7278 6.77341 4.77139 6.72931 4.80107L1.10431 8.58231C1.06279 8.61026 1.01615 8.62492 0.96875 8.62494Z" fill="white"/>
</svg>
