<svg width="844" height="473" viewBox="0 0 844 473" fill="none" xmlns="http://www.w3.org/2000/svg">
<rect width="844" height="456" rx="5" fill="white"/>
<line x1="600.5" y1="33.9999" x2="600.5" y2="423" stroke="#777777" stroke-opacity="0.08"/>
<line x1="54.5" y1="33.9999" x2="54.5" y2="423" stroke="#777777" stroke-opacity="0.08"/>
<line x1="312.5" y1="33.9999" x2="312.5" y2="423" stroke="#777777" stroke-opacity="0.08"/>
<line x1="143.5" y1="33.9999" x2="143.5" y2="423" stroke="#777777" stroke-opacity="0.08"/>
<line x1="456.5" y1="33.9999" x2="456.5" y2="423" stroke="#777777" stroke-opacity="0.08"/>
<line x1="741.526" y1="33.9999" x2="741.526" y2="423" stroke="#777777" stroke-opacity="0.08"/>
<line x1="818" y1="220.5" x2="54" y2="220.5" stroke="#777777" stroke-opacity="0.08"/>
<line x1="818" y1="340.5" x2="54" y2="340.5" stroke="#777777" stroke-opacity="0.08"/>
<line x1="818" y1="423.5" x2="54" y2="423.5" stroke="#777777" stroke-opacity="0.08"/>
<line x1="818" y1="140.5" x2="54" y2="140.5" stroke="#777777" stroke-opacity="0.08"/>
<line x1="818" y1="180.5" x2="54" y2="180.5" stroke="#777777" stroke-opacity="0.08"/>
<line x1="818" y1="260.5" x2="54" y2="260.5" stroke="#777777" stroke-opacity="0.08"/>
<line x1="818" y1="300.5" x2="54" y2="300.5" stroke="#777777" stroke-opacity="0.08"/>
<line x1="818" y1="383.5" x2="54" y2="383.5" stroke="#777777" stroke-opacity="0.08"/>
<line x1="818" y1="100.5" x2="54" y2="100.5" stroke="#777777" stroke-opacity="0.08"/>
<line x1="818" y1="60.4999" x2="54" y2="60.4999" stroke="#777777" stroke-opacity="0.08"/>
<path d="M278.704 436.504H279.724C279.716 436.248 279.74 435.996 279.796 435.748C279.86 435.492 279.96 435.264 280.096 435.064C280.232 434.864 280.404 434.704 280.612 434.584C280.828 434.456 281.084 434.392 281.38 434.392C281.604 434.392 281.816 434.428 282.016 434.5C282.216 434.572 282.388 434.676 282.532 434.812C282.684 434.948 282.804 435.112 282.892 435.304C282.98 435.488 283.024 435.696 283.024 435.928C283.024 436.224 282.976 436.484 282.88 436.708C282.792 436.932 282.656 437.14 282.472 437.332C282.296 437.524 282.072 437.716 281.8 437.908C281.528 438.092 281.212 438.296 280.852 438.52C280.556 438.696 280.272 438.884 280 439.084C279.728 439.284 279.484 439.516 279.268 439.78C279.052 440.044 278.872 440.356 278.728 440.716C278.592 441.068 278.504 441.496 278.464 442H284.02V441.1H279.652C279.7 440.836 279.8 440.604 279.952 440.404C280.112 440.196 280.3 440.004 280.516 439.828C280.74 439.652 280.984 439.488 281.248 439.336C281.512 439.176 281.776 439.016 282.04 438.856C282.304 438.688 282.56 438.512 282.808 438.328C283.056 438.144 283.276 437.94 283.468 437.716C283.66 437.484 283.812 437.224 283.924 436.936C284.044 436.648 284.104 436.316 284.104 435.94C284.104 435.54 284.032 435.188 283.888 434.884C283.752 434.58 283.564 434.328 283.324 434.128C283.084 433.92 282.8 433.764 282.472 433.66C282.152 433.548 281.808 433.492 281.44 433.492C280.992 433.492 280.592 433.568 280.24 433.72C279.888 433.872 279.592 434.084 279.352 434.356C279.12 434.62 278.948 434.936 278.836 435.304C278.724 435.672 278.68 436.072 278.704 436.504ZM286.856 437.812C286.856 437.604 286.856 437.376 286.856 437.128C286.864 436.872 286.884 436.62 286.916 436.372C286.956 436.116 287.008 435.868 287.072 435.628C287.144 435.388 287.244 435.18 287.372 435.004C287.508 434.82 287.676 434.672 287.876 434.56C288.076 434.448 288.32 434.392 288.608 434.392C288.896 434.392 289.14 434.448 289.34 434.56C289.54 434.672 289.704 434.82 289.832 435.004C289.968 435.18 290.068 435.388 290.132 435.628C290.204 435.868 290.256 436.116 290.288 436.372C290.328 436.62 290.348 436.872 290.348 437.128C290.356 437.376 290.36 437.604 290.36 437.812C290.36 438.132 290.348 438.492 290.324 438.892C290.308 439.284 290.244 439.656 290.132 440.008C290.028 440.352 289.856 440.644 289.616 440.884C289.376 441.124 289.04 441.244 288.608 441.244C288.176 441.244 287.84 441.124 287.6 440.884C287.36 440.644 287.184 440.352 287.072 440.008C286.968 439.656 286.904 439.284 286.88 438.892C286.864 438.492 286.856 438.132 286.856 437.812ZM285.776 437.824C285.776 438.136 285.784 438.46 285.8 438.796C285.816 439.132 285.856 439.46 285.92 439.78C285.984 440.1 286.076 440.404 286.196 440.692C286.316 440.972 286.48 441.22 286.688 441.436C286.896 441.652 287.156 441.824 287.468 441.952C287.788 442.072 288.168 442.132 288.608 442.132C289.056 442.132 289.436 442.072 289.748 441.952C290.06 441.824 290.32 441.652 290.528 441.436C290.736 441.22 290.9 440.972 291.02 440.692C291.14 440.404 291.232 440.1 291.296 439.78C291.36 439.46 291.4 439.132 291.416 438.796C291.432 438.46 291.44 438.136 291.44 437.824C291.44 437.512 291.432 437.188 291.416 436.852C291.4 436.516 291.36 436.188 291.296 435.868C291.232 435.548 291.14 435.244 291.02 434.956C290.9 434.668 290.736 434.416 290.528 434.2C290.32 433.984 290.056 433.812 289.736 433.684C289.424 433.556 289.048 433.492 288.608 433.492C288.168 433.492 287.788 433.556 287.468 433.684C287.156 433.812 286.896 433.984 286.688 434.2C286.48 434.416 286.316 434.668 286.196 434.956C286.076 435.244 285.984 435.548 285.92 435.868C285.856 436.188 285.816 436.516 285.8 436.852C285.784 437.188 285.776 437.512 285.776 437.824ZM292.897 436.504H293.917C293.909 436.248 293.933 435.996 293.989 435.748C294.053 435.492 294.153 435.264 294.289 435.064C294.425 434.864 294.597 434.704 294.805 434.584C295.021 434.456 295.277 434.392 295.573 434.392C295.797 434.392 296.009 434.428 296.209 434.5C296.409 434.572 296.581 434.676 296.725 434.812C296.877 434.948 296.997 435.112 297.085 435.304C297.173 435.488 297.217 435.696 297.217 435.928C297.217 436.224 297.169 436.484 297.073 436.708C296.985 436.932 296.849 437.14 296.665 437.332C296.489 437.524 296.265 437.716 295.993 437.908C295.721 438.092 295.405 438.296 295.045 438.52C294.749 438.696 294.465 438.884 294.193 439.084C293.921 439.284 293.677 439.516 293.461 439.78C293.245 440.044 293.065 440.356 292.921 440.716C292.785 441.068 292.697 441.496 292.657 442H298.213V441.1H293.845C293.893 440.836 293.993 440.604 294.145 440.404C294.305 440.196 294.493 440.004 294.709 439.828C294.933 439.652 295.177 439.488 295.441 439.336C295.705 439.176 295.969 439.016 296.233 438.856C296.497 438.688 296.753 438.512 297.001 438.328C297.249 438.144 297.469 437.94 297.661 437.716C297.853 437.484 298.005 437.224 298.117 436.936C298.237 436.648 298.297 436.316 298.297 435.94C298.297 435.54 298.225 435.188 298.081 434.884C297.945 434.58 297.757 434.328 297.517 434.128C297.277 433.92 296.993 433.764 296.665 433.66C296.345 433.548 296.001 433.492 295.633 433.492C295.185 433.492 294.785 433.568 294.433 433.72C294.081 433.872 293.785 434.084 293.545 434.356C293.313 434.62 293.141 434.936 293.029 435.304C292.917 435.672 292.873 436.072 292.897 436.504ZM303.737 442V433.492H302.957C302.901 433.812 302.797 434.076 302.645 434.284C302.493 434.492 302.305 434.656 302.081 434.776C301.865 434.896 301.621 434.98 301.349 435.028C301.077 435.068 300.797 435.088 300.509 435.088V435.904H302.717V442H303.737ZM307.558 440.668V442H308.89V440.668H307.558ZM311.914 437.812C311.914 437.604 311.914 437.376 311.914 437.128C311.922 436.872 311.942 436.62 311.974 436.372C312.014 436.116 312.066 435.868 312.13 435.628C312.202 435.388 312.302 435.18 312.43 435.004C312.566 434.82 312.734 434.672 312.934 434.56C313.134 434.448 313.378 434.392 313.666 434.392C313.954 434.392 314.198 434.448 314.398 434.56C314.598 434.672 314.762 434.82 314.89 435.004C315.026 435.18 315.126 435.388 315.19 435.628C315.262 435.868 315.314 436.116 315.346 436.372C315.386 436.62 315.406 436.872 315.406 437.128C315.414 437.376 315.418 437.604 315.418 437.812C315.418 438.132 315.406 438.492 315.382 438.892C315.366 439.284 315.302 439.656 315.19 440.008C315.086 440.352 314.914 440.644 314.674 440.884C314.434 441.124 314.098 441.244 313.666 441.244C313.234 441.244 312.898 441.124 312.658 440.884C312.418 440.644 312.242 440.352 312.13 440.008C312.026 439.656 311.962 439.284 311.938 438.892C311.922 438.492 311.914 438.132 311.914 437.812ZM310.834 437.824C310.834 438.136 310.842 438.46 310.858 438.796C310.874 439.132 310.914 439.46 310.978 439.78C311.042 440.1 311.134 440.404 311.254 440.692C311.374 440.972 311.538 441.22 311.746 441.436C311.954 441.652 312.214 441.824 312.526 441.952C312.846 442.072 313.226 442.132 313.666 442.132C314.114 442.132 314.494 442.072 314.806 441.952C315.118 441.824 315.378 441.652 315.586 441.436C315.794 441.22 315.958 440.972 316.078 440.692C316.198 440.404 316.29 440.1 316.354 439.78C316.418 439.46 316.458 439.132 316.474 438.796C316.49 438.46 316.498 438.136 316.498 437.824C316.498 437.512 316.49 437.188 316.474 436.852C316.458 436.516 316.418 436.188 316.354 435.868C316.29 435.548 316.198 435.244 316.078 434.956C315.958 434.668 315.794 434.416 315.586 434.2C315.378 433.984 315.114 433.812 314.794 433.684C314.482 433.556 314.106 433.492 313.666 433.492C313.226 433.492 312.846 433.556 312.526 433.684C312.214 433.812 311.954 433.984 311.746 434.2C311.538 434.416 311.374 434.668 311.254 434.956C311.134 435.244 311.042 435.548 310.978 435.868C310.914 436.188 310.874 436.516 310.858 436.852C310.842 437.188 310.834 437.512 310.834 437.824ZM321.699 442V433.492H320.919C320.863 433.812 320.759 434.076 320.607 434.284C320.455 434.492 320.267 434.656 320.043 434.776C319.827 434.896 319.583 434.98 319.311 435.028C319.039 435.068 318.759 435.088 318.471 435.088V435.904H320.679V442H321.699ZM325.519 440.668V442H326.851V440.668H325.519ZM328.82 436.504H329.84C329.832 436.248 329.856 435.996 329.912 435.748C329.976 435.492 330.076 435.264 330.212 435.064C330.348 434.864 330.52 434.704 330.728 434.584C330.944 434.456 331.2 434.392 331.496 434.392C331.72 434.392 331.932 434.428 332.132 434.5C332.332 434.572 332.504 434.676 332.648 434.812C332.8 434.948 332.92 435.112 333.008 435.304C333.096 435.488 333.14 435.696 333.14 435.928C333.14 436.224 333.092 436.484 332.996 436.708C332.908 436.932 332.772 437.14 332.588 437.332C332.412 437.524 332.188 437.716 331.916 437.908C331.644 438.092 331.328 438.296 330.968 438.52C330.672 438.696 330.388 438.884 330.116 439.084C329.844 439.284 329.6 439.516 329.384 439.78C329.168 440.044 328.988 440.356 328.844 440.716C328.708 441.068 328.62 441.496 328.58 442H334.136V441.1H329.768C329.816 440.836 329.916 440.604 330.068 440.404C330.228 440.196 330.416 440.004 330.632 439.828C330.856 439.652 331.1 439.488 331.364 439.336C331.628 439.176 331.892 439.016 332.156 438.856C332.42 438.688 332.676 438.512 332.924 438.328C333.172 438.144 333.392 437.94 333.584 437.716C333.776 437.484 333.928 437.224 334.04 436.936C334.16 436.648 334.22 436.316 334.22 435.94C334.22 435.54 334.148 435.188 334.004 434.884C333.868 434.58 333.68 434.328 333.44 434.128C333.2 433.92 332.916 433.764 332.588 433.66C332.268 433.548 331.924 433.492 331.556 433.492C331.108 433.492 330.708 433.568 330.356 433.72C330.004 433.872 329.708 434.084 329.468 434.356C329.236 434.62 329.064 434.936 328.952 435.304C328.84 435.672 328.796 436.072 328.82 436.504ZM341.496 434.512V433.636H335.988V434.596H340.452C340.004 435.068 339.584 435.584 339.192 436.144C338.808 436.704 338.468 437.3 338.172 437.932C337.876 438.556 337.632 439.212 337.44 439.9C337.256 440.58 337.14 441.28 337.092 442H338.232C338.272 441.336 338.384 440.652 338.568 439.948C338.752 439.244 338.988 438.56 339.276 437.896C339.572 437.232 339.908 436.608 340.284 436.024C340.66 435.44 341.064 434.936 341.496 434.512Z" fill="#707070"/>
<path d="M111.588 436.504H112.608C112.6 436.248 112.624 435.996 112.68 435.748C112.744 435.492 112.844 435.264 112.98 435.064C113.116 434.864 113.288 434.704 113.496 434.584C113.712 434.456 113.968 434.392 114.264 434.392C114.488 434.392 114.7 434.428 114.9 434.5C115.1 434.572 115.272 434.676 115.416 434.812C115.568 434.948 115.688 435.112 115.776 435.304C115.864 435.488 115.908 435.696 115.908 435.928C115.908 436.224 115.86 436.484 115.764 436.708C115.676 436.932 115.54 437.14 115.356 437.332C115.18 437.524 114.956 437.716 114.684 437.908C114.412 438.092 114.096 438.296 113.736 438.52C113.44 438.696 113.156 438.884 112.884 439.084C112.612 439.284 112.368 439.516 112.152 439.78C111.936 440.044 111.756 440.356 111.612 440.716C111.476 441.068 111.388 441.496 111.348 442H116.904V441.1H112.536C112.584 440.836 112.684 440.604 112.836 440.404C112.996 440.196 113.184 440.004 113.4 439.828C113.624 439.652 113.868 439.488 114.132 439.336C114.396 439.176 114.66 439.016 114.924 438.856C115.188 438.688 115.444 438.512 115.692 438.328C115.94 438.144 116.16 437.94 116.352 437.716C116.544 437.484 116.696 437.224 116.808 436.936C116.928 436.648 116.988 436.316 116.988 435.94C116.988 435.54 116.916 435.188 116.772 434.884C116.636 434.58 116.448 434.328 116.208 434.128C115.968 433.92 115.684 433.764 115.356 433.66C115.036 433.548 114.692 433.492 114.324 433.492C113.876 433.492 113.476 433.568 113.124 433.72C112.772 433.872 112.476 434.084 112.236 434.356C112.004 434.62 111.832 434.936 111.72 435.304C111.608 435.672 111.564 436.072 111.588 436.504ZM119.74 437.812C119.74 437.604 119.74 437.376 119.74 437.128C119.748 436.872 119.768 436.62 119.8 436.372C119.84 436.116 119.892 435.868 119.956 435.628C120.028 435.388 120.128 435.18 120.256 435.004C120.392 434.82 120.56 434.672 120.76 434.56C120.96 434.448 121.204 434.392 121.492 434.392C121.78 434.392 122.024 434.448 122.224 434.56C122.424 434.672 122.588 434.82 122.716 435.004C122.852 435.18 122.952 435.388 123.016 435.628C123.088 435.868 123.14 436.116 123.172 436.372C123.212 436.62 123.232 436.872 123.232 437.128C123.24 437.376 123.244 437.604 123.244 437.812C123.244 438.132 123.232 438.492 123.208 438.892C123.192 439.284 123.128 439.656 123.016 440.008C122.912 440.352 122.74 440.644 122.5 440.884C122.26 441.124 121.924 441.244 121.492 441.244C121.06 441.244 120.724 441.124 120.484 440.884C120.244 440.644 120.068 440.352 119.956 440.008C119.852 439.656 119.788 439.284 119.764 438.892C119.748 438.492 119.74 438.132 119.74 437.812ZM118.66 437.824C118.66 438.136 118.668 438.46 118.684 438.796C118.7 439.132 118.74 439.46 118.804 439.78C118.868 440.1 118.96 440.404 119.08 440.692C119.2 440.972 119.364 441.22 119.572 441.436C119.78 441.652 120.04 441.824 120.352 441.952C120.672 442.072 121.052 442.132 121.492 442.132C121.94 442.132 122.32 442.072 122.632 441.952C122.944 441.824 123.204 441.652 123.412 441.436C123.62 441.22 123.784 440.972 123.904 440.692C124.024 440.404 124.116 440.1 124.18 439.78C124.244 439.46 124.284 439.132 124.3 438.796C124.316 438.46 124.324 438.136 124.324 437.824C124.324 437.512 124.316 437.188 124.3 436.852C124.284 436.516 124.244 436.188 124.18 435.868C124.116 435.548 124.024 435.244 123.904 434.956C123.784 434.668 123.62 434.416 123.412 434.2C123.204 433.984 122.94 433.812 122.62 433.684C122.308 433.556 121.932 433.492 121.492 433.492C121.052 433.492 120.672 433.556 120.352 433.684C120.04 433.812 119.78 433.984 119.572 434.2C119.364 434.416 119.2 434.668 119.08 434.956C118.96 435.244 118.868 435.548 118.804 435.868C118.74 436.188 118.7 436.516 118.684 436.852C118.668 437.188 118.66 437.512 118.66 437.824ZM125.781 436.504H126.801C126.793 436.248 126.817 435.996 126.873 435.748C126.937 435.492 127.037 435.264 127.173 435.064C127.309 434.864 127.481 434.704 127.689 434.584C127.905 434.456 128.161 434.392 128.457 434.392C128.681 434.392 128.893 434.428 129.093 434.5C129.293 434.572 129.465 434.676 129.609 434.812C129.761 434.948 129.881 435.112 129.969 435.304C130.057 435.488 130.101 435.696 130.101 435.928C130.101 436.224 130.053 436.484 129.957 436.708C129.869 436.932 129.733 437.14 129.549 437.332C129.373 437.524 129.149 437.716 128.877 437.908C128.605 438.092 128.289 438.296 127.929 438.52C127.633 438.696 127.349 438.884 127.077 439.084C126.805 439.284 126.561 439.516 126.345 439.78C126.129 440.044 125.949 440.356 125.805 440.716C125.669 441.068 125.581 441.496 125.541 442H131.097V441.1H126.729C126.777 440.836 126.877 440.604 127.029 440.404C127.189 440.196 127.377 440.004 127.593 439.828C127.817 439.652 128.061 439.488 128.325 439.336C128.589 439.176 128.853 439.016 129.117 438.856C129.381 438.688 129.637 438.512 129.885 438.328C130.133 438.144 130.353 437.94 130.545 437.716C130.737 437.484 130.889 437.224 131.001 436.936C131.121 436.648 131.181 436.316 131.181 435.94C131.181 435.54 131.109 435.188 130.965 434.884C130.829 434.58 130.641 434.328 130.401 434.128C130.161 433.92 129.877 433.764 129.549 433.66C129.229 433.548 128.885 433.492 128.517 433.492C128.069 433.492 127.669 433.568 127.317 433.72C126.965 433.872 126.669 434.084 126.429 434.356C126.197 434.62 126.025 434.936 125.913 435.304C125.801 435.672 125.757 436.072 125.781 436.504ZM136.621 442V433.492H135.841C135.785 433.812 135.681 434.076 135.529 434.284C135.377 434.492 135.189 434.656 134.965 434.776C134.749 434.896 134.505 434.98 134.233 435.028C133.961 435.068 133.681 435.088 133.393 435.088V435.904H135.601V442H136.621ZM140.442 440.668V442H141.774V440.668H140.442ZM144.798 437.812C144.798 437.604 144.798 437.376 144.798 437.128C144.806 436.872 144.826 436.62 144.858 436.372C144.898 436.116 144.95 435.868 145.014 435.628C145.086 435.388 145.186 435.18 145.314 435.004C145.45 434.82 145.618 434.672 145.818 434.56C146.018 434.448 146.262 434.392 146.55 434.392C146.838 434.392 147.082 434.448 147.282 434.56C147.482 434.672 147.646 434.82 147.774 435.004C147.91 435.18 148.01 435.388 148.074 435.628C148.146 435.868 148.198 436.116 148.23 436.372C148.27 436.62 148.29 436.872 148.29 437.128C148.298 437.376 148.302 437.604 148.302 437.812C148.302 438.132 148.29 438.492 148.266 438.892C148.25 439.284 148.186 439.656 148.074 440.008C147.97 440.352 147.798 440.644 147.558 440.884C147.318 441.124 146.982 441.244 146.55 441.244C146.118 441.244 145.782 441.124 145.542 440.884C145.302 440.644 145.126 440.352 145.014 440.008C144.91 439.656 144.846 439.284 144.822 438.892C144.806 438.492 144.798 438.132 144.798 437.812ZM143.718 437.824C143.718 438.136 143.726 438.46 143.742 438.796C143.758 439.132 143.798 439.46 143.862 439.78C143.926 440.1 144.018 440.404 144.138 440.692C144.258 440.972 144.422 441.22 144.63 441.436C144.838 441.652 145.098 441.824 145.41 441.952C145.73 442.072 146.11 442.132 146.55 442.132C146.998 442.132 147.378 442.072 147.69 441.952C148.002 441.824 148.262 441.652 148.47 441.436C148.678 441.22 148.842 440.972 148.962 440.692C149.082 440.404 149.174 440.1 149.238 439.78C149.302 439.46 149.342 439.132 149.358 438.796C149.374 438.46 149.382 438.136 149.382 437.824C149.382 437.512 149.374 437.188 149.358 436.852C149.342 436.516 149.302 436.188 149.238 435.868C149.174 435.548 149.082 435.244 148.962 434.956C148.842 434.668 148.678 434.416 148.47 434.2C148.262 433.984 147.998 433.812 147.678 433.684C147.366 433.556 146.99 433.492 146.55 433.492C146.11 433.492 145.73 433.556 145.41 433.684C145.098 433.812 144.838 433.984 144.63 434.2C144.422 434.416 144.258 434.668 144.138 434.956C144.018 435.244 143.926 435.548 143.862 435.868C143.798 436.188 143.758 436.516 143.742 436.852C143.726 437.188 143.718 437.512 143.718 437.824ZM154.583 442V433.492H153.803C153.747 433.812 153.643 434.076 153.491 434.284C153.339 434.492 153.151 434.656 152.927 434.776C152.711 434.896 152.467 434.98 152.195 435.028C151.923 435.068 151.643 435.088 151.355 435.088V435.904H153.563V442H154.583ZM158.403 440.668V442H159.735V440.668H158.403ZM161.704 436.504H162.724C162.716 436.248 162.74 435.996 162.796 435.748C162.86 435.492 162.96 435.264 163.096 435.064C163.232 434.864 163.404 434.704 163.612 434.584C163.828 434.456 164.084 434.392 164.38 434.392C164.604 434.392 164.816 434.428 165.016 434.5C165.216 434.572 165.388 434.676 165.532 434.812C165.684 434.948 165.804 435.112 165.892 435.304C165.98 435.488 166.024 435.696 166.024 435.928C166.024 436.224 165.976 436.484 165.88 436.708C165.792 436.932 165.656 437.14 165.472 437.332C165.296 437.524 165.072 437.716 164.8 437.908C164.528 438.092 164.212 438.296 163.852 438.52C163.556 438.696 163.272 438.884 163 439.084C162.728 439.284 162.484 439.516 162.268 439.78C162.052 440.044 161.872 440.356 161.728 440.716C161.592 441.068 161.504 441.496 161.464 442H167.02V441.1H162.652C162.7 440.836 162.8 440.604 162.952 440.404C163.112 440.196 163.3 440.004 163.516 439.828C163.74 439.652 163.984 439.488 164.248 439.336C164.512 439.176 164.776 439.016 165.04 438.856C165.304 438.688 165.56 438.512 165.808 438.328C166.056 438.144 166.276 437.94 166.468 437.716C166.66 437.484 166.812 437.224 166.924 436.936C167.044 436.648 167.104 436.316 167.104 435.94C167.104 435.54 167.032 435.188 166.888 434.884C166.752 434.58 166.564 434.328 166.324 434.128C166.084 433.92 165.8 433.764 165.472 433.66C165.152 433.548 164.808 433.492 164.44 433.492C163.992 433.492 163.592 433.568 163.24 433.72C162.888 433.872 162.592 434.084 162.352 434.356C162.12 434.62 161.948 434.936 161.836 435.304C161.724 435.672 161.68 436.072 161.704 436.504ZM173.24 435.664H174.26C174.196 434.96 173.956 434.424 173.54 434.056C173.124 433.68 172.564 433.492 171.86 433.492C171.252 433.492 170.748 433.62 170.348 433.876C169.948 434.132 169.628 434.472 169.388 434.896C169.148 435.32 168.976 435.808 168.872 436.36C168.776 436.904 168.728 437.468 168.728 438.052C168.728 438.5 168.76 438.964 168.824 439.444C168.896 439.924 169.036 440.364 169.244 440.764C169.452 441.164 169.748 441.492 170.132 441.748C170.516 442.004 171.024 442.132 171.656 442.132C172.192 442.132 172.64 442.044 173 441.868C173.368 441.684 173.66 441.456 173.876 441.184C174.1 440.904 174.26 440.596 174.356 440.26C174.452 439.924 174.5 439.6 174.5 439.288C174.5 438.896 174.44 438.532 174.32 438.196C174.2 437.86 174.028 437.568 173.804 437.32C173.588 437.072 173.316 436.88 172.988 436.744C172.668 436.6 172.304 436.528 171.896 436.528C171.432 436.528 171.02 436.616 170.66 436.792C170.308 436.968 170.012 437.252 169.772 437.644L169.748 437.62C169.756 437.292 169.788 436.94 169.844 436.564C169.9 436.188 170 435.84 170.144 435.52C170.296 435.192 170.504 434.924 170.768 434.716C171.032 434.5 171.38 434.392 171.812 434.392C172.22 434.392 172.548 434.508 172.796 434.74C173.044 434.972 173.192 435.28 173.24 435.664ZM171.704 437.428C171.992 437.428 172.244 437.48 172.46 437.584C172.676 437.688 172.856 437.828 173 438.004C173.144 438.172 173.248 438.376 173.312 438.616C173.384 438.848 173.42 439.096 173.42 439.36C173.42 439.608 173.38 439.848 173.3 440.08C173.228 440.304 173.12 440.504 172.976 440.68C172.832 440.856 172.652 440.996 172.436 441.1C172.228 441.196 171.984 441.244 171.704 441.244C171.424 441.244 171.172 441.196 170.948 441.1C170.732 440.996 170.548 440.86 170.396 440.692C170.252 440.524 170.14 440.324 170.06 440.092C169.98 439.86 169.94 439.612 169.94 439.348C169.94 439.084 169.976 438.836 170.048 438.604C170.128 438.364 170.244 438.16 170.396 437.992C170.548 437.816 170.732 437.68 170.948 437.584C171.164 437.48 171.416 437.428 171.704 437.428Z" fill="#707070"/>
<path d="M422.704 436.504H423.724C423.716 436.248 423.74 435.996 423.796 435.748C423.86 435.492 423.96 435.264 424.096 435.064C424.232 434.864 424.404 434.704 424.612 434.584C424.828 434.456 425.084 434.392 425.38 434.392C425.604 434.392 425.816 434.428 426.016 434.5C426.216 434.572 426.388 434.676 426.532 434.812C426.684 434.948 426.804 435.112 426.892 435.304C426.98 435.488 427.024 435.696 427.024 435.928C427.024 436.224 426.976 436.484 426.88 436.708C426.792 436.932 426.656 437.14 426.472 437.332C426.296 437.524 426.072 437.716 425.8 437.908C425.528 438.092 425.212 438.296 424.852 438.52C424.556 438.696 424.272 438.884 424 439.084C423.728 439.284 423.484 439.516 423.268 439.78C423.052 440.044 422.872 440.356 422.728 440.716C422.592 441.068 422.504 441.496 422.464 442H428.02V441.1H423.652C423.7 440.836 423.8 440.604 423.952 440.404C424.112 440.196 424.3 440.004 424.516 439.828C424.74 439.652 424.984 439.488 425.248 439.336C425.512 439.176 425.776 439.016 426.04 438.856C426.304 438.688 426.56 438.512 426.808 438.328C427.056 438.144 427.276 437.94 427.468 437.716C427.66 437.484 427.812 437.224 427.924 436.936C428.044 436.648 428.104 436.316 428.104 435.94C428.104 435.54 428.032 435.188 427.888 434.884C427.752 434.58 427.564 434.328 427.324 434.128C427.084 433.92 426.8 433.764 426.472 433.66C426.152 433.548 425.808 433.492 425.44 433.492C424.992 433.492 424.592 433.568 424.24 433.72C423.888 433.872 423.592 434.084 423.352 434.356C423.12 434.62 422.948 434.936 422.836 435.304C422.724 435.672 422.68 436.072 422.704 436.504ZM430.856 437.812C430.856 437.604 430.856 437.376 430.856 437.128C430.864 436.872 430.884 436.62 430.916 436.372C430.956 436.116 431.008 435.868 431.072 435.628C431.144 435.388 431.244 435.18 431.372 435.004C431.508 434.82 431.676 434.672 431.876 434.56C432.076 434.448 432.32 434.392 432.608 434.392C432.896 434.392 433.14 434.448 433.34 434.56C433.54 434.672 433.704 434.82 433.832 435.004C433.968 435.18 434.068 435.388 434.132 435.628C434.204 435.868 434.256 436.116 434.288 436.372C434.328 436.62 434.348 436.872 434.348 437.128C434.356 437.376 434.36 437.604 434.36 437.812C434.36 438.132 434.348 438.492 434.324 438.892C434.308 439.284 434.244 439.656 434.132 440.008C434.028 440.352 433.856 440.644 433.616 440.884C433.376 441.124 433.04 441.244 432.608 441.244C432.176 441.244 431.84 441.124 431.6 440.884C431.36 440.644 431.184 440.352 431.072 440.008C430.968 439.656 430.904 439.284 430.88 438.892C430.864 438.492 430.856 438.132 430.856 437.812ZM429.776 437.824C429.776 438.136 429.784 438.46 429.8 438.796C429.816 439.132 429.856 439.46 429.92 439.78C429.984 440.1 430.076 440.404 430.196 440.692C430.316 440.972 430.48 441.22 430.688 441.436C430.896 441.652 431.156 441.824 431.468 441.952C431.788 442.072 432.168 442.132 432.608 442.132C433.056 442.132 433.436 442.072 433.748 441.952C434.06 441.824 434.32 441.652 434.528 441.436C434.736 441.22 434.9 440.972 435.02 440.692C435.14 440.404 435.232 440.1 435.296 439.78C435.36 439.46 435.4 439.132 435.416 438.796C435.432 438.46 435.44 438.136 435.44 437.824C435.44 437.512 435.432 437.188 435.416 436.852C435.4 436.516 435.36 436.188 435.296 435.868C435.232 435.548 435.14 435.244 435.02 434.956C434.9 434.668 434.736 434.416 434.528 434.2C434.32 433.984 434.056 433.812 433.736 433.684C433.424 433.556 433.048 433.492 432.608 433.492C432.168 433.492 431.788 433.556 431.468 433.684C431.156 433.812 430.896 433.984 430.688 434.2C430.48 434.416 430.316 434.668 430.196 434.956C430.076 435.244 429.984 435.548 429.92 435.868C429.856 436.188 429.816 436.516 429.8 436.852C429.784 437.188 429.776 437.512 429.776 437.824ZM436.897 436.504H437.917C437.909 436.248 437.933 435.996 437.989 435.748C438.053 435.492 438.153 435.264 438.289 435.064C438.425 434.864 438.597 434.704 438.805 434.584C439.021 434.456 439.277 434.392 439.573 434.392C439.797 434.392 440.009 434.428 440.209 434.5C440.409 434.572 440.581 434.676 440.725 434.812C440.877 434.948 440.997 435.112 441.085 435.304C441.173 435.488 441.217 435.696 441.217 435.928C441.217 436.224 441.169 436.484 441.073 436.708C440.985 436.932 440.849 437.14 440.665 437.332C440.489 437.524 440.265 437.716 439.993 437.908C439.721 438.092 439.405 438.296 439.045 438.52C438.749 438.696 438.465 438.884 438.193 439.084C437.921 439.284 437.677 439.516 437.461 439.78C437.245 440.044 437.065 440.356 436.921 440.716C436.785 441.068 436.697 441.496 436.657 442H442.213V441.1H437.845C437.893 440.836 437.993 440.604 438.145 440.404C438.305 440.196 438.493 440.004 438.709 439.828C438.933 439.652 439.177 439.488 439.441 439.336C439.705 439.176 439.969 439.016 440.233 438.856C440.497 438.688 440.753 438.512 441.001 438.328C441.249 438.144 441.469 437.94 441.661 437.716C441.853 437.484 442.005 437.224 442.117 436.936C442.237 436.648 442.297 436.316 442.297 435.94C442.297 435.54 442.225 435.188 442.081 434.884C441.945 434.58 441.757 434.328 441.517 434.128C441.277 433.92 440.993 433.764 440.665 433.66C440.345 433.548 440.001 433.492 439.633 433.492C439.185 433.492 438.785 433.568 438.433 433.72C438.081 433.872 437.785 434.084 437.545 434.356C437.313 434.62 437.141 434.936 437.029 435.304C436.917 435.672 436.873 436.072 436.897 436.504ZM447.737 442V433.492H446.957C446.901 433.812 446.797 434.076 446.645 434.284C446.493 434.492 446.305 434.656 446.081 434.776C445.865 434.896 445.621 434.98 445.349 435.028C445.077 435.068 444.797 435.088 444.509 435.088V435.904H446.717V442H447.737ZM451.558 440.668V442H452.89V440.668H451.558ZM455.914 437.812C455.914 437.604 455.914 437.376 455.914 437.128C455.922 436.872 455.942 436.62 455.974 436.372C456.014 436.116 456.066 435.868 456.13 435.628C456.202 435.388 456.302 435.18 456.43 435.004C456.566 434.82 456.734 434.672 456.934 434.56C457.134 434.448 457.378 434.392 457.666 434.392C457.954 434.392 458.198 434.448 458.398 434.56C458.598 434.672 458.762 434.82 458.89 435.004C459.026 435.18 459.126 435.388 459.19 435.628C459.262 435.868 459.314 436.116 459.346 436.372C459.386 436.62 459.406 436.872 459.406 437.128C459.414 437.376 459.418 437.604 459.418 437.812C459.418 438.132 459.406 438.492 459.382 438.892C459.366 439.284 459.302 439.656 459.19 440.008C459.086 440.352 458.914 440.644 458.674 440.884C458.434 441.124 458.098 441.244 457.666 441.244C457.234 441.244 456.898 441.124 456.658 440.884C456.418 440.644 456.242 440.352 456.13 440.008C456.026 439.656 455.962 439.284 455.938 438.892C455.922 438.492 455.914 438.132 455.914 437.812ZM454.834 437.824C454.834 438.136 454.842 438.46 454.858 438.796C454.874 439.132 454.914 439.46 454.978 439.78C455.042 440.1 455.134 440.404 455.254 440.692C455.374 440.972 455.538 441.22 455.746 441.436C455.954 441.652 456.214 441.824 456.526 441.952C456.846 442.072 457.226 442.132 457.666 442.132C458.114 442.132 458.494 442.072 458.806 441.952C459.118 441.824 459.378 441.652 459.586 441.436C459.794 441.22 459.958 440.972 460.078 440.692C460.198 440.404 460.29 440.1 460.354 439.78C460.418 439.46 460.458 439.132 460.474 438.796C460.49 438.46 460.498 438.136 460.498 437.824C460.498 437.512 460.49 437.188 460.474 436.852C460.458 436.516 460.418 436.188 460.354 435.868C460.29 435.548 460.198 435.244 460.078 434.956C459.958 434.668 459.794 434.416 459.586 434.2C459.378 433.984 459.114 433.812 458.794 433.684C458.482 433.556 458.106 433.492 457.666 433.492C457.226 433.492 456.846 433.556 456.526 433.684C456.214 433.812 455.954 433.984 455.746 434.2C455.538 434.416 455.374 434.668 455.254 434.956C455.134 435.244 455.042 435.548 454.978 435.868C454.914 436.188 454.874 436.516 454.858 436.852C454.842 437.188 454.834 437.512 454.834 437.824ZM465.699 442V433.492H464.919C464.863 433.812 464.759 434.076 464.607 434.284C464.455 434.492 464.267 434.656 464.043 434.776C463.827 434.896 463.583 434.98 463.311 435.028C463.039 435.068 462.759 435.088 462.471 435.088V435.904H464.679V442H465.699ZM469.519 440.668V442H470.851V440.668H469.519ZM472.82 436.504H473.84C473.832 436.248 473.856 435.996 473.912 435.748C473.976 435.492 474.076 435.264 474.212 435.064C474.348 434.864 474.52 434.704 474.728 434.584C474.944 434.456 475.2 434.392 475.496 434.392C475.72 434.392 475.932 434.428 476.132 434.5C476.332 434.572 476.504 434.676 476.648 434.812C476.8 434.948 476.92 435.112 477.008 435.304C477.096 435.488 477.14 435.696 477.14 435.928C477.14 436.224 477.092 436.484 476.996 436.708C476.908 436.932 476.772 437.14 476.588 437.332C476.412 437.524 476.188 437.716 475.916 437.908C475.644 438.092 475.328 438.296 474.968 438.52C474.672 438.696 474.388 438.884 474.116 439.084C473.844 439.284 473.6 439.516 473.384 439.78C473.168 440.044 472.988 440.356 472.844 440.716C472.708 441.068 472.62 441.496 472.58 442H478.136V441.1H473.768C473.816 440.836 473.916 440.604 474.068 440.404C474.228 440.196 474.416 440.004 474.632 439.828C474.856 439.652 475.1 439.488 475.364 439.336C475.628 439.176 475.892 439.016 476.156 438.856C476.42 438.688 476.676 438.512 476.924 438.328C477.172 438.144 477.392 437.94 477.584 437.716C477.776 437.484 477.928 437.224 478.04 436.936C478.16 436.648 478.22 436.316 478.22 435.94C478.22 435.54 478.148 435.188 478.004 434.884C477.868 434.58 477.68 434.328 477.44 434.128C477.2 433.92 476.916 433.764 476.588 433.66C476.268 433.548 475.924 433.492 475.556 433.492C475.108 433.492 474.708 433.568 474.356 433.72C474.004 433.872 473.708 434.084 473.468 434.356C473.236 434.62 473.064 434.936 472.952 435.304C472.84 435.672 472.796 436.072 472.82 436.504ZM481.248 435.7C481.248 435.484 481.288 435.296 481.368 435.136C481.448 434.976 481.552 434.84 481.68 434.728C481.816 434.616 481.976 434.532 482.16 434.476C482.344 434.42 482.536 434.392 482.736 434.392C483.152 434.392 483.492 434.504 483.756 434.728C484.028 434.944 484.164 435.268 484.164 435.7C484.164 436.132 484.032 436.468 483.768 436.708C483.504 436.948 483.168 437.068 482.76 437.068C482.552 437.068 482.356 437.04 482.172 436.984C481.988 436.928 481.828 436.844 481.692 436.732C481.556 436.62 481.448 436.48 481.368 436.312C481.288 436.136 481.248 435.932 481.248 435.7ZM480.168 435.664C480.168 436.048 480.276 436.404 480.492 436.732C480.708 437.052 480.996 437.284 481.356 437.428C480.876 437.596 480.508 437.868 480.252 438.244C479.996 438.612 479.868 439.048 479.868 439.552C479.868 439.984 479.94 440.364 480.084 440.692C480.236 441.012 480.44 441.28 480.696 441.496C480.96 441.712 481.268 441.872 481.62 441.976C481.972 442.08 482.352 442.132 482.76 442.132C483.152 442.132 483.52 442.076 483.864 441.964C484.208 441.852 484.504 441.688 484.752 441.472C485.008 441.248 485.208 440.976 485.352 440.656C485.504 440.336 485.58 439.968 485.58 439.552C485.58 439.024 485.456 438.58 485.208 438.22C484.96 437.852 484.58 437.588 484.068 437.428C484.428 437.268 484.712 437.032 484.92 436.72C485.136 436.4 485.244 436.048 485.244 435.664C485.244 435.392 485.196 435.128 485.1 434.872C485.004 434.608 484.852 434.376 484.644 434.176C484.444 433.968 484.18 433.804 483.852 433.684C483.524 433.556 483.128 433.492 482.664 433.492C482.336 433.492 482.02 433.54 481.716 433.636C481.42 433.732 481.156 433.872 480.924 434.056C480.692 434.24 480.508 434.468 480.372 434.74C480.236 435.004 480.168 435.312 480.168 435.664ZM480.948 439.6C480.948 439.352 480.992 439.128 481.08 438.928C481.176 438.728 481.304 438.556 481.464 438.412C481.632 438.268 481.824 438.16 482.04 438.088C482.264 438.008 482.5 437.968 482.748 437.968C482.988 437.968 483.212 438.012 483.42 438.1C483.636 438.18 483.824 438.292 483.984 438.436C484.144 438.58 484.268 438.752 484.356 438.952C484.452 439.144 484.5 439.356 484.5 439.588C484.5 439.828 484.456 440.048 484.368 440.248C484.288 440.448 484.168 440.624 484.008 440.776C483.856 440.92 483.672 441.036 483.456 441.124C483.248 441.204 483.016 441.244 482.76 441.244C482.232 441.244 481.796 441.1 481.452 440.812C481.116 440.516 480.948 440.112 480.948 439.6Z" fill="#707070"/>
<path d="M566.704 436.504H567.724C567.716 436.248 567.74 435.996 567.796 435.748C567.86 435.492 567.96 435.264 568.096 435.064C568.232 434.864 568.404 434.704 568.612 434.584C568.828 434.456 569.084 434.392 569.38 434.392C569.604 434.392 569.816 434.428 570.016 434.5C570.216 434.572 570.388 434.676 570.532 434.812C570.684 434.948 570.804 435.112 570.892 435.304C570.98 435.488 571.024 435.696 571.024 435.928C571.024 436.224 570.976 436.484 570.88 436.708C570.792 436.932 570.656 437.14 570.472 437.332C570.296 437.524 570.072 437.716 569.8 437.908C569.528 438.092 569.212 438.296 568.852 438.52C568.556 438.696 568.272 438.884 568 439.084C567.728 439.284 567.484 439.516 567.268 439.78C567.052 440.044 566.872 440.356 566.728 440.716C566.592 441.068 566.504 441.496 566.464 442H572.02V441.1H567.652C567.7 440.836 567.8 440.604 567.952 440.404C568.112 440.196 568.3 440.004 568.516 439.828C568.74 439.652 568.984 439.488 569.248 439.336C569.512 439.176 569.776 439.016 570.04 438.856C570.304 438.688 570.56 438.512 570.808 438.328C571.056 438.144 571.276 437.94 571.468 437.716C571.66 437.484 571.812 437.224 571.924 436.936C572.044 436.648 572.104 436.316 572.104 435.94C572.104 435.54 572.032 435.188 571.888 434.884C571.752 434.58 571.564 434.328 571.324 434.128C571.084 433.92 570.8 433.764 570.472 433.66C570.152 433.548 569.808 433.492 569.44 433.492C568.992 433.492 568.592 433.568 568.24 433.72C567.888 433.872 567.592 434.084 567.352 434.356C567.12 434.62 566.948 434.936 566.836 435.304C566.724 435.672 566.68 436.072 566.704 436.504ZM574.856 437.812C574.856 437.604 574.856 437.376 574.856 437.128C574.864 436.872 574.884 436.62 574.916 436.372C574.956 436.116 575.008 435.868 575.072 435.628C575.144 435.388 575.244 435.18 575.372 435.004C575.508 434.82 575.676 434.672 575.876 434.56C576.076 434.448 576.32 434.392 576.608 434.392C576.896 434.392 577.14 434.448 577.34 434.56C577.54 434.672 577.704 434.82 577.832 435.004C577.968 435.18 578.068 435.388 578.132 435.628C578.204 435.868 578.256 436.116 578.288 436.372C578.328 436.62 578.348 436.872 578.348 437.128C578.356 437.376 578.36 437.604 578.36 437.812C578.36 438.132 578.348 438.492 578.324 438.892C578.308 439.284 578.244 439.656 578.132 440.008C578.028 440.352 577.856 440.644 577.616 440.884C577.376 441.124 577.04 441.244 576.608 441.244C576.176 441.244 575.84 441.124 575.6 440.884C575.36 440.644 575.184 440.352 575.072 440.008C574.968 439.656 574.904 439.284 574.88 438.892C574.864 438.492 574.856 438.132 574.856 437.812ZM573.776 437.824C573.776 438.136 573.784 438.46 573.8 438.796C573.816 439.132 573.856 439.46 573.92 439.78C573.984 440.1 574.076 440.404 574.196 440.692C574.316 440.972 574.48 441.22 574.688 441.436C574.896 441.652 575.156 441.824 575.468 441.952C575.788 442.072 576.168 442.132 576.608 442.132C577.056 442.132 577.436 442.072 577.748 441.952C578.06 441.824 578.32 441.652 578.528 441.436C578.736 441.22 578.9 440.972 579.02 440.692C579.14 440.404 579.232 440.1 579.296 439.78C579.36 439.46 579.4 439.132 579.416 438.796C579.432 438.46 579.44 438.136 579.44 437.824C579.44 437.512 579.432 437.188 579.416 436.852C579.4 436.516 579.36 436.188 579.296 435.868C579.232 435.548 579.14 435.244 579.02 434.956C578.9 434.668 578.736 434.416 578.528 434.2C578.32 433.984 578.056 433.812 577.736 433.684C577.424 433.556 577.048 433.492 576.608 433.492C576.168 433.492 575.788 433.556 575.468 433.684C575.156 433.812 574.896 433.984 574.688 434.2C574.48 434.416 574.316 434.668 574.196 434.956C574.076 435.244 573.984 435.548 573.92 435.868C573.856 436.188 573.816 436.516 573.8 436.852C573.784 437.188 573.776 437.512 573.776 437.824ZM580.897 436.504H581.917C581.909 436.248 581.933 435.996 581.989 435.748C582.053 435.492 582.153 435.264 582.289 435.064C582.425 434.864 582.597 434.704 582.805 434.584C583.021 434.456 583.277 434.392 583.573 434.392C583.797 434.392 584.009 434.428 584.209 434.5C584.409 434.572 584.581 434.676 584.725 434.812C584.877 434.948 584.997 435.112 585.085 435.304C585.173 435.488 585.217 435.696 585.217 435.928C585.217 436.224 585.169 436.484 585.073 436.708C584.985 436.932 584.849 437.14 584.665 437.332C584.489 437.524 584.265 437.716 583.993 437.908C583.721 438.092 583.405 438.296 583.045 438.52C582.749 438.696 582.465 438.884 582.193 439.084C581.921 439.284 581.677 439.516 581.461 439.78C581.245 440.044 581.065 440.356 580.921 440.716C580.785 441.068 580.697 441.496 580.657 442H586.213V441.1H581.845C581.893 440.836 581.993 440.604 582.145 440.404C582.305 440.196 582.493 440.004 582.709 439.828C582.933 439.652 583.177 439.488 583.441 439.336C583.705 439.176 583.969 439.016 584.233 438.856C584.497 438.688 584.753 438.512 585.001 438.328C585.249 438.144 585.469 437.94 585.661 437.716C585.853 437.484 586.005 437.224 586.117 436.936C586.237 436.648 586.297 436.316 586.297 435.94C586.297 435.54 586.225 435.188 586.081 434.884C585.945 434.58 585.757 434.328 585.517 434.128C585.277 433.92 584.993 433.764 584.665 433.66C584.345 433.548 584.001 433.492 583.633 433.492C583.185 433.492 582.785 433.568 582.433 433.72C582.081 433.872 581.785 434.084 581.545 434.356C581.313 434.62 581.141 434.936 581.029 435.304C580.917 435.672 580.873 436.072 580.897 436.504ZM591.737 442V433.492H590.957C590.901 433.812 590.797 434.076 590.645 434.284C590.493 434.492 590.305 434.656 590.081 434.776C589.865 434.896 589.621 434.98 589.349 435.028C589.077 435.068 588.797 435.088 588.509 435.088V435.904H590.717V442H591.737ZM595.558 440.668V442H596.89V440.668H595.558ZM599.914 437.812C599.914 437.604 599.914 437.376 599.914 437.128C599.922 436.872 599.942 436.62 599.974 436.372C600.014 436.116 600.066 435.868 600.13 435.628C600.202 435.388 600.302 435.18 600.43 435.004C600.566 434.82 600.734 434.672 600.934 434.56C601.134 434.448 601.378 434.392 601.666 434.392C601.954 434.392 602.198 434.448 602.398 434.56C602.598 434.672 602.762 434.82 602.89 435.004C603.026 435.18 603.126 435.388 603.19 435.628C603.262 435.868 603.314 436.116 603.346 436.372C603.386 436.62 603.406 436.872 603.406 437.128C603.414 437.376 603.418 437.604 603.418 437.812C603.418 438.132 603.406 438.492 603.382 438.892C603.366 439.284 603.302 439.656 603.19 440.008C603.086 440.352 602.914 440.644 602.674 440.884C602.434 441.124 602.098 441.244 601.666 441.244C601.234 441.244 600.898 441.124 600.658 440.884C600.418 440.644 600.242 440.352 600.13 440.008C600.026 439.656 599.962 439.284 599.938 438.892C599.922 438.492 599.914 438.132 599.914 437.812ZM598.834 437.824C598.834 438.136 598.842 438.46 598.858 438.796C598.874 439.132 598.914 439.46 598.978 439.78C599.042 440.1 599.134 440.404 599.254 440.692C599.374 440.972 599.538 441.22 599.746 441.436C599.954 441.652 600.214 441.824 600.526 441.952C600.846 442.072 601.226 442.132 601.666 442.132C602.114 442.132 602.494 442.072 602.806 441.952C603.118 441.824 603.378 441.652 603.586 441.436C603.794 441.22 603.958 440.972 604.078 440.692C604.198 440.404 604.29 440.1 604.354 439.78C604.418 439.46 604.458 439.132 604.474 438.796C604.49 438.46 604.498 438.136 604.498 437.824C604.498 437.512 604.49 437.188 604.474 436.852C604.458 436.516 604.418 436.188 604.354 435.868C604.29 435.548 604.198 435.244 604.078 434.956C603.958 434.668 603.794 434.416 603.586 434.2C603.378 433.984 603.114 433.812 602.794 433.684C602.482 433.556 602.106 433.492 601.666 433.492C601.226 433.492 600.846 433.556 600.526 433.684C600.214 433.812 599.954 433.984 599.746 434.2C599.538 434.416 599.374 434.668 599.254 434.956C599.134 435.244 599.042 435.548 598.978 435.868C598.914 436.188 598.874 436.516 598.858 436.852C598.842 437.188 598.834 437.512 598.834 437.824ZM609.699 442V433.492H608.919C608.863 433.812 608.759 434.076 608.607 434.284C608.455 434.492 608.267 434.656 608.043 434.776C607.827 434.896 607.583 434.98 607.311 435.028C607.039 435.068 606.759 435.088 606.471 435.088V435.904H608.679V442H609.699ZM613.519 440.668V442H614.851V440.668H613.519ZM616.82 436.504H617.84C617.832 436.248 617.856 435.996 617.912 435.748C617.976 435.492 618.076 435.264 618.212 435.064C618.348 434.864 618.52 434.704 618.728 434.584C618.944 434.456 619.2 434.392 619.496 434.392C619.72 434.392 619.932 434.428 620.132 434.5C620.332 434.572 620.504 434.676 620.648 434.812C620.8 434.948 620.92 435.112 621.008 435.304C621.096 435.488 621.14 435.696 621.14 435.928C621.14 436.224 621.092 436.484 620.996 436.708C620.908 436.932 620.772 437.14 620.588 437.332C620.412 437.524 620.188 437.716 619.916 437.908C619.644 438.092 619.328 438.296 618.968 438.52C618.672 438.696 618.388 438.884 618.116 439.084C617.844 439.284 617.6 439.516 617.384 439.78C617.168 440.044 616.988 440.356 616.844 440.716C616.708 441.068 616.62 441.496 616.58 442H622.136V441.1H617.768C617.816 440.836 617.916 440.604 618.068 440.404C618.228 440.196 618.416 440.004 618.632 439.828C618.856 439.652 619.1 439.488 619.364 439.336C619.628 439.176 619.892 439.016 620.156 438.856C620.42 438.688 620.676 438.512 620.924 438.328C621.172 438.144 621.392 437.94 621.584 437.716C621.776 437.484 621.928 437.224 622.04 436.936C622.16 436.648 622.22 436.316 622.22 435.94C622.22 435.54 622.148 435.188 622.004 434.884C621.868 434.58 621.68 434.328 621.44 434.128C621.2 433.92 620.916 433.764 620.588 433.66C620.268 433.548 619.924 433.492 619.556 433.492C619.108 433.492 618.708 433.568 618.356 433.72C618.004 433.872 617.708 434.084 617.468 434.356C617.236 434.62 617.064 434.936 616.952 435.304C616.84 435.672 616.796 436.072 616.82 436.504ZM624.996 439.948H623.976C624.04 440.684 624.308 441.232 624.78 441.592C625.252 441.952 625.844 442.132 626.556 442.132C627.588 442.132 628.336 441.74 628.8 440.956C629.272 440.164 629.508 439.032 629.508 437.56C629.508 436.752 629.428 436.088 629.268 435.568C629.116 435.04 628.908 434.624 628.644 434.32C628.38 434.016 628.072 433.804 627.72 433.684C627.368 433.556 626.992 433.492 626.592 433.492C626.184 433.492 625.808 433.56 625.464 433.696C625.12 433.832 624.824 434.024 624.576 434.272C624.328 434.512 624.136 434.804 624 435.148C623.864 435.484 623.796 435.856 623.796 436.264C623.796 436.68 623.852 437.064 623.964 437.416C624.084 437.768 624.256 438.068 624.48 438.316C624.712 438.564 624.996 438.76 625.332 438.904C625.668 439.04 626.052 439.108 626.484 439.108C626.9 439.108 627.284 439.004 627.636 438.796C627.988 438.58 628.26 438.292 628.452 437.932L628.476 437.956C628.444 439.068 628.272 439.896 627.96 440.44C627.648 440.976 627.18 441.244 626.556 441.244C626.148 441.244 625.796 441.132 625.5 440.908C625.204 440.684 625.036 440.364 624.996 439.948ZM628.296 436.336C628.296 436.584 628.256 436.824 628.176 437.056C628.096 437.28 627.98 437.48 627.828 437.656C627.676 437.824 627.492 437.96 627.276 438.064C627.06 438.16 626.82 438.208 626.556 438.208C626.308 438.208 626.08 438.16 625.872 438.064C625.672 437.96 625.496 437.824 625.344 437.656C625.2 437.488 625.084 437.296 624.996 437.08C624.916 436.864 624.876 436.64 624.876 436.408C624.876 436.144 624.904 435.892 624.96 435.652C625.024 435.412 625.12 435.2 625.248 435.016C625.384 434.824 625.556 434.672 625.764 434.56C625.98 434.448 626.24 434.392 626.544 434.392C626.832 434.392 627.084 434.444 627.3 434.548C627.516 434.652 627.696 434.796 627.84 434.98C627.992 435.156 628.104 435.36 628.176 435.592C628.256 435.824 628.296 436.072 628.296 436.336Z" fill="#707070"/>
<path d="M709.588 436.504H710.608C710.6 436.248 710.624 435.996 710.68 435.748C710.744 435.492 710.844 435.264 710.98 435.064C711.116 434.864 711.288 434.704 711.496 434.584C711.712 434.456 711.968 434.392 712.264 434.392C712.488 434.392 712.7 434.428 712.9 434.5C713.1 434.572 713.272 434.676 713.416 434.812C713.568 434.948 713.688 435.112 713.776 435.304C713.864 435.488 713.908 435.696 713.908 435.928C713.908 436.224 713.86 436.484 713.764 436.708C713.676 436.932 713.54 437.14 713.356 437.332C713.18 437.524 712.956 437.716 712.684 437.908C712.412 438.092 712.096 438.296 711.736 438.52C711.44 438.696 711.156 438.884 710.884 439.084C710.612 439.284 710.368 439.516 710.152 439.78C709.936 440.044 709.756 440.356 709.612 440.716C709.476 441.068 709.388 441.496 709.348 442H714.904V441.1H710.536C710.584 440.836 710.684 440.604 710.836 440.404C710.996 440.196 711.184 440.004 711.4 439.828C711.624 439.652 711.868 439.488 712.132 439.336C712.396 439.176 712.66 439.016 712.924 438.856C713.188 438.688 713.444 438.512 713.692 438.328C713.94 438.144 714.16 437.94 714.352 437.716C714.544 437.484 714.696 437.224 714.808 436.936C714.928 436.648 714.988 436.316 714.988 435.94C714.988 435.54 714.916 435.188 714.772 434.884C714.636 434.58 714.448 434.328 714.208 434.128C713.968 433.92 713.684 433.764 713.356 433.66C713.036 433.548 712.692 433.492 712.324 433.492C711.876 433.492 711.476 433.568 711.124 433.72C710.772 433.872 710.476 434.084 710.236 434.356C710.004 434.62 709.832 434.936 709.72 435.304C709.608 435.672 709.564 436.072 709.588 436.504ZM717.74 437.812C717.74 437.604 717.74 437.376 717.74 437.128C717.748 436.872 717.768 436.62 717.8 436.372C717.84 436.116 717.892 435.868 717.956 435.628C718.028 435.388 718.128 435.18 718.256 435.004C718.392 434.82 718.56 434.672 718.76 434.56C718.96 434.448 719.204 434.392 719.492 434.392C719.78 434.392 720.024 434.448 720.224 434.56C720.424 434.672 720.588 434.82 720.716 435.004C720.852 435.18 720.952 435.388 721.016 435.628C721.088 435.868 721.14 436.116 721.172 436.372C721.212 436.62 721.232 436.872 721.232 437.128C721.24 437.376 721.244 437.604 721.244 437.812C721.244 438.132 721.232 438.492 721.208 438.892C721.192 439.284 721.128 439.656 721.016 440.008C720.912 440.352 720.74 440.644 720.5 440.884C720.26 441.124 719.924 441.244 719.492 441.244C719.06 441.244 718.724 441.124 718.484 440.884C718.244 440.644 718.068 440.352 717.956 440.008C717.852 439.656 717.788 439.284 717.764 438.892C717.748 438.492 717.74 438.132 717.74 437.812ZM716.66 437.824C716.66 438.136 716.668 438.46 716.684 438.796C716.7 439.132 716.74 439.46 716.804 439.78C716.868 440.1 716.96 440.404 717.08 440.692C717.2 440.972 717.364 441.22 717.572 441.436C717.78 441.652 718.04 441.824 718.352 441.952C718.672 442.072 719.052 442.132 719.492 442.132C719.94 442.132 720.32 442.072 720.632 441.952C720.944 441.824 721.204 441.652 721.412 441.436C721.62 441.22 721.784 440.972 721.904 440.692C722.024 440.404 722.116 440.1 722.18 439.78C722.244 439.46 722.284 439.132 722.3 438.796C722.316 438.46 722.324 438.136 722.324 437.824C722.324 437.512 722.316 437.188 722.3 436.852C722.284 436.516 722.244 436.188 722.18 435.868C722.116 435.548 722.024 435.244 721.904 434.956C721.784 434.668 721.62 434.416 721.412 434.2C721.204 433.984 720.94 433.812 720.62 433.684C720.308 433.556 719.932 433.492 719.492 433.492C719.052 433.492 718.672 433.556 718.352 433.684C718.04 433.812 717.78 433.984 717.572 434.2C717.364 434.416 717.2 434.668 717.08 434.956C716.96 435.244 716.868 435.548 716.804 435.868C716.74 436.188 716.7 436.516 716.684 436.852C716.668 437.188 716.66 437.512 716.66 437.824ZM723.781 436.504H724.801C724.793 436.248 724.817 435.996 724.873 435.748C724.937 435.492 725.037 435.264 725.173 435.064C725.309 434.864 725.481 434.704 725.689 434.584C725.905 434.456 726.161 434.392 726.457 434.392C726.681 434.392 726.893 434.428 727.093 434.5C727.293 434.572 727.465 434.676 727.609 434.812C727.761 434.948 727.881 435.112 727.969 435.304C728.057 435.488 728.101 435.696 728.101 435.928C728.101 436.224 728.053 436.484 727.957 436.708C727.869 436.932 727.733 437.14 727.549 437.332C727.373 437.524 727.149 437.716 726.877 437.908C726.605 438.092 726.289 438.296 725.929 438.52C725.633 438.696 725.349 438.884 725.077 439.084C724.805 439.284 724.561 439.516 724.345 439.78C724.129 440.044 723.949 440.356 723.805 440.716C723.669 441.068 723.581 441.496 723.541 442H729.097V441.1H724.729C724.777 440.836 724.877 440.604 725.029 440.404C725.189 440.196 725.377 440.004 725.593 439.828C725.817 439.652 726.061 439.488 726.325 439.336C726.589 439.176 726.853 439.016 727.117 438.856C727.381 438.688 727.637 438.512 727.885 438.328C728.133 438.144 728.353 437.94 728.545 437.716C728.737 437.484 728.889 437.224 729.001 436.936C729.121 436.648 729.181 436.316 729.181 435.94C729.181 435.54 729.109 435.188 728.965 434.884C728.829 434.58 728.641 434.328 728.401 434.128C728.161 433.92 727.877 433.764 727.549 433.66C727.229 433.548 726.885 433.492 726.517 433.492C726.069 433.492 725.669 433.568 725.317 433.72C724.965 433.872 724.669 434.084 724.429 434.356C724.197 434.62 724.025 434.936 723.913 435.304C723.801 435.672 723.757 436.072 723.781 436.504ZM734.621 442V433.492H733.841C733.785 433.812 733.681 434.076 733.529 434.284C733.377 434.492 733.189 434.656 732.965 434.776C732.749 434.896 732.505 434.98 732.233 435.028C731.961 435.068 731.681 435.088 731.393 435.088V435.904H733.601V442H734.621ZM738.442 440.668V442H739.774V440.668H738.442ZM742.798 437.812C742.798 437.604 742.798 437.376 742.798 437.128C742.806 436.872 742.826 436.62 742.858 436.372C742.898 436.116 742.95 435.868 743.014 435.628C743.086 435.388 743.186 435.18 743.314 435.004C743.45 434.82 743.618 434.672 743.818 434.56C744.018 434.448 744.262 434.392 744.55 434.392C744.838 434.392 745.082 434.448 745.282 434.56C745.482 434.672 745.646 434.82 745.774 435.004C745.91 435.18 746.01 435.388 746.074 435.628C746.146 435.868 746.198 436.116 746.23 436.372C746.27 436.62 746.29 436.872 746.29 437.128C746.298 437.376 746.302 437.604 746.302 437.812C746.302 438.132 746.29 438.492 746.266 438.892C746.25 439.284 746.186 439.656 746.074 440.008C745.97 440.352 745.798 440.644 745.558 440.884C745.318 441.124 744.982 441.244 744.55 441.244C744.118 441.244 743.782 441.124 743.542 440.884C743.302 440.644 743.126 440.352 743.014 440.008C742.91 439.656 742.846 439.284 742.822 438.892C742.806 438.492 742.798 438.132 742.798 437.812ZM741.718 437.824C741.718 438.136 741.726 438.46 741.742 438.796C741.758 439.132 741.798 439.46 741.862 439.78C741.926 440.1 742.018 440.404 742.138 440.692C742.258 440.972 742.422 441.22 742.63 441.436C742.838 441.652 743.098 441.824 743.41 441.952C743.73 442.072 744.11 442.132 744.55 442.132C744.998 442.132 745.378 442.072 745.69 441.952C746.002 441.824 746.262 441.652 746.47 441.436C746.678 441.22 746.842 440.972 746.962 440.692C747.082 440.404 747.174 440.1 747.238 439.78C747.302 439.46 747.342 439.132 747.358 438.796C747.374 438.46 747.382 438.136 747.382 437.824C747.382 437.512 747.374 437.188 747.358 436.852C747.342 436.516 747.302 436.188 747.238 435.868C747.174 435.548 747.082 435.244 746.962 434.956C746.842 434.668 746.678 434.416 746.47 434.2C746.262 433.984 745.998 433.812 745.678 433.684C745.366 433.556 744.99 433.492 744.55 433.492C744.11 433.492 743.73 433.556 743.41 433.684C743.098 433.812 742.838 433.984 742.63 434.2C742.422 434.416 742.258 434.668 742.138 434.956C742.018 435.244 741.926 435.548 741.862 435.868C741.798 436.188 741.758 436.516 741.742 436.852C741.726 437.188 741.718 437.512 741.718 437.824ZM752.583 442V433.492H751.803C751.747 433.812 751.643 434.076 751.491 434.284C751.339 434.492 751.151 434.656 750.927 434.776C750.711 434.896 750.467 434.98 750.195 435.028C749.923 435.068 749.643 435.088 749.355 435.088V435.904H751.563V442H752.583ZM756.403 440.668V442H757.735V440.668H756.403ZM761.792 437.14V438.004C761.984 437.98 762.188 437.968 762.404 437.968C762.66 437.968 762.896 438.004 763.112 438.076C763.336 438.14 763.528 438.244 763.688 438.388C763.848 438.524 763.976 438.696 764.072 438.904C764.168 439.104 764.216 439.336 764.216 439.6C764.216 439.856 764.164 440.088 764.06 440.296C763.964 440.496 763.832 440.668 763.664 440.812C763.496 440.948 763.3 441.056 763.076 441.136C762.852 441.208 762.616 441.244 762.368 441.244C761.784 441.244 761.34 441.072 761.036 440.728C760.732 440.376 760.572 439.924 760.556 439.372H759.536C759.528 439.812 759.588 440.204 759.716 440.548C759.852 440.892 760.044 441.184 760.292 441.424C760.54 441.656 760.84 441.832 761.192 441.952C761.544 442.072 761.936 442.132 762.368 442.132C762.768 442.132 763.144 442.08 763.496 441.976C763.856 441.864 764.168 441.7 764.432 441.484C764.696 441.268 764.904 441 765.056 440.68C765.216 440.352 765.296 439.976 765.296 439.552C765.296 439.04 765.168 438.596 764.912 438.22C764.664 437.844 764.28 437.6 763.76 437.488V437.464C764.096 437.312 764.376 437.088 764.6 436.792C764.824 436.496 764.936 436.156 764.936 435.772C764.936 435.38 764.868 435.04 764.732 434.752C764.604 434.464 764.424 434.228 764.192 434.044C763.96 433.86 763.684 433.724 763.364 433.636C763.052 433.54 762.712 433.492 762.344 433.492C761.92 433.492 761.544 433.56 761.216 433.696C760.896 433.832 760.628 434.02 760.412 434.26C760.196 434.5 760.028 434.788 759.908 435.124C759.796 435.46 759.732 435.832 759.716 436.24H760.736C760.736 435.992 760.768 435.756 760.832 435.532C760.896 435.308 760.992 435.112 761.12 434.944C761.256 434.776 761.424 434.644 761.624 434.548C761.832 434.444 762.072 434.392 762.344 434.392C762.776 434.392 763.136 434.508 763.424 434.74C763.712 434.964 763.856 435.304 763.856 435.76C763.856 435.984 763.812 436.184 763.724 436.36C763.636 436.536 763.516 436.684 763.364 436.804C763.22 436.916 763.048 437.004 762.848 437.068C762.656 437.124 762.452 437.152 762.236 437.152H762.02C761.98 437.152 761.94 437.152 761.9 437.152C761.868 437.152 761.832 437.148 761.792 437.14ZM767.856 437.812C767.856 437.604 767.856 437.376 767.856 437.128C767.864 436.872 767.884 436.62 767.916 436.372C767.956 436.116 768.008 435.868 768.072 435.628C768.144 435.388 768.244 435.18 768.372 435.004C768.508 434.82 768.676 434.672 768.876 434.56C769.076 434.448 769.32 434.392 769.608 434.392C769.896 434.392 770.14 434.448 770.34 434.56C770.54 434.672 770.704 434.82 770.832 435.004C770.968 435.18 771.068 435.388 771.132 435.628C771.204 435.868 771.256 436.116 771.288 436.372C771.328 436.62 771.348 436.872 771.348 437.128C771.356 437.376 771.36 437.604 771.36 437.812C771.36 438.132 771.348 438.492 771.324 438.892C771.308 439.284 771.244 439.656 771.132 440.008C771.028 440.352 770.856 440.644 770.616 440.884C770.376 441.124 770.04 441.244 769.608 441.244C769.176 441.244 768.84 441.124 768.6 440.884C768.36 440.644 768.184 440.352 768.072 440.008C767.968 439.656 767.904 439.284 767.88 438.892C767.864 438.492 767.856 438.132 767.856 437.812ZM766.776 437.824C766.776 438.136 766.784 438.46 766.8 438.796C766.816 439.132 766.856 439.46 766.92 439.78C766.984 440.1 767.076 440.404 767.196 440.692C767.316 440.972 767.48 441.22 767.688 441.436C767.896 441.652 768.156 441.824 768.468 441.952C768.788 442.072 769.168 442.132 769.608 442.132C770.056 442.132 770.436 442.072 770.748 441.952C771.06 441.824 771.32 441.652 771.528 441.436C771.736 441.22 771.9 440.972 772.02 440.692C772.14 440.404 772.232 440.1 772.296 439.78C772.36 439.46 772.4 439.132 772.416 438.796C772.432 438.46 772.44 438.136 772.44 437.824C772.44 437.512 772.432 437.188 772.416 436.852C772.4 436.516 772.36 436.188 772.296 435.868C772.232 435.548 772.14 435.244 772.02 434.956C771.9 434.668 771.736 434.416 771.528 434.2C771.32 433.984 771.056 433.812 770.736 433.684C770.424 433.556 770.048 433.492 769.608 433.492C769.168 433.492 768.788 433.556 768.468 433.684C768.156 433.812 767.896 433.984 767.688 434.2C767.48 434.416 767.316 434.668 767.196 434.956C767.076 435.244 766.984 435.548 766.92 435.868C766.856 436.188 766.816 436.516 766.8 436.852C766.784 437.188 766.776 437.512 766.776 437.824Z" fill="#707070"/>
<path d="M20.86 297.221C20.86 297.005 20.9 296.817 20.98 296.657C21.06 296.497 21.164 296.361 21.292 296.249C21.428 296.137 21.588 296.053 21.772 295.997C21.956 295.941 22.148 295.913 22.348 295.913C22.764 295.913 23.104 296.025 23.368 296.249C23.64 296.465 23.776 296.789 23.776 297.221C23.776 297.653 23.644 297.989 23.38 298.229C23.116 298.469 22.78 298.589 22.372 298.589C22.164 298.589 21.968 298.561 21.784 298.505C21.6 298.449 21.44 298.365 21.304 298.253C21.168 298.141 21.06 298.001 20.98 297.833C20.9 297.657 20.86 297.453 20.86 297.221ZM19.78 297.185C19.78 297.569 19.888 297.925 20.104 298.253C20.32 298.573 20.608 298.805 20.968 298.949C20.488 299.117 20.12 299.389 19.864 299.765C19.608 300.133 19.48 300.569 19.48 301.073C19.48 301.505 19.552 301.885 19.696 302.213C19.848 302.533 20.052 302.801 20.308 303.017C20.572 303.233 20.88 303.393 21.232 303.497C21.584 303.601 21.964 303.653 22.372 303.653C22.764 303.653 23.132 303.597 23.476 303.485C23.82 303.373 24.116 303.209 24.364 302.993C24.62 302.769 24.82 302.497 24.964 302.177C25.116 301.857 25.192 301.489 25.192 301.073C25.192 300.545 25.068 300.101 24.82 299.741C24.572 299.373 24.192 299.109 23.68 298.949C24.04 298.789 24.324 298.553 24.532 298.241C24.748 297.921 24.856 297.569 24.856 297.185C24.856 296.913 24.808 296.649 24.712 296.393C24.616 296.129 24.464 295.897 24.256 295.697C24.056 295.489 23.792 295.325 23.464 295.205C23.136 295.077 22.74 295.013 22.276 295.013C21.948 295.013 21.632 295.061 21.328 295.157C21.032 295.253 20.768 295.393 20.536 295.577C20.304 295.761 20.12 295.989 19.984 296.261C19.848 296.525 19.78 296.833 19.78 297.185ZM20.56 301.121C20.56 300.873 20.604 300.649 20.692 300.449C20.788 300.249 20.916 300.077 21.076 299.933C21.244 299.789 21.436 299.681 21.652 299.609C21.876 299.529 22.112 299.489 22.36 299.489C22.6 299.489 22.824 299.533 23.032 299.621C23.248 299.701 23.436 299.813 23.596 299.957C23.756 300.101 23.88 300.273 23.968 300.473C24.064 300.665 24.112 300.877 24.112 301.109C24.112 301.349 24.068 301.569 23.98 301.769C23.9 301.969 23.78 302.145 23.62 302.297C23.468 302.441 23.284 302.557 23.068 302.645C22.86 302.725 22.628 302.765 22.372 302.765C21.844 302.765 21.408 302.621 21.064 302.333C20.728 302.037 20.56 301.633 20.56 301.121ZM30.1645 300.629H27.3085L30.1405 296.465H30.1645V300.629ZM31.1245 300.629V295.013H30.3085L26.4325 300.545V301.529H30.1645V303.521H31.1245V301.529H32.2765V300.629H31.1245Z" fill="#B7BCC8"/>
<path d="M20.86 337.221C20.86 337.005 20.9 336.817 20.98 336.657C21.06 336.497 21.164 336.361 21.292 336.249C21.428 336.137 21.588 336.053 21.772 335.997C21.956 335.941 22.148 335.913 22.348 335.913C22.764 335.913 23.104 336.025 23.368 336.249C23.64 336.465 23.776 336.789 23.776 337.221C23.776 337.653 23.644 337.989 23.38 338.229C23.116 338.469 22.78 338.589 22.372 338.589C22.164 338.589 21.968 338.561 21.784 338.505C21.6 338.449 21.44 338.365 21.304 338.253C21.168 338.141 21.06 338.001 20.98 337.833C20.9 337.657 20.86 337.453 20.86 337.221ZM19.78 337.185C19.78 337.569 19.888 337.925 20.104 338.253C20.32 338.573 20.608 338.805 20.968 338.949C20.488 339.117 20.12 339.389 19.864 339.765C19.608 340.133 19.48 340.569 19.48 341.073C19.48 341.505 19.552 341.885 19.696 342.213C19.848 342.533 20.052 342.801 20.308 343.017C20.572 343.233 20.88 343.393 21.232 343.497C21.584 343.601 21.964 343.653 22.372 343.653C22.764 343.653 23.132 343.597 23.476 343.485C23.82 343.373 24.116 343.209 24.364 342.993C24.62 342.769 24.82 342.497 24.964 342.177C25.116 341.857 25.192 341.489 25.192 341.073C25.192 340.545 25.068 340.101 24.82 339.741C24.572 339.373 24.192 339.109 23.68 338.949C24.04 338.789 24.324 338.553 24.532 338.241C24.748 337.921 24.856 337.569 24.856 337.185C24.856 336.913 24.808 336.649 24.712 336.393C24.616 336.129 24.464 335.897 24.256 335.697C24.056 335.489 23.792 335.325 23.464 335.205C23.136 335.077 22.74 335.013 22.276 335.013C21.948 335.013 21.632 335.061 21.328 335.157C21.032 335.253 20.768 335.393 20.536 335.577C20.304 335.761 20.12 335.989 19.984 336.261C19.848 336.525 19.78 336.833 19.78 337.185ZM20.56 341.121C20.56 340.873 20.604 340.649 20.692 340.449C20.788 340.249 20.916 340.077 21.076 339.933C21.244 339.789 21.436 339.681 21.652 339.609C21.876 339.529 22.112 339.489 22.36 339.489C22.6 339.489 22.824 339.533 23.032 339.621C23.248 339.701 23.436 339.813 23.596 339.957C23.756 340.101 23.88 340.273 23.968 340.473C24.064 340.665 24.112 340.877 24.112 341.109C24.112 341.349 24.068 341.569 23.98 341.769C23.9 341.969 23.78 342.145 23.62 342.297C23.468 342.441 23.284 342.557 23.068 342.645C22.86 342.725 22.628 342.765 22.372 342.765C21.844 342.765 21.408 342.621 21.064 342.333C20.728 342.037 20.56 341.633 20.56 341.121ZM26.6245 338.025H27.6445C27.6365 337.769 27.6605 337.517 27.7165 337.269C27.7805 337.013 27.8805 336.785 28.0165 336.585C28.1525 336.385 28.3245 336.225 28.5325 336.105C28.7485 335.977 29.0045 335.913 29.3005 335.913C29.5245 335.913 29.7365 335.949 29.9365 336.021C30.1365 336.093 30.3085 336.197 30.4525 336.333C30.6045 336.469 30.7245 336.633 30.8125 336.825C30.9005 337.009 30.9445 337.217 30.9445 337.449C30.9445 337.745 30.8965 338.005 30.8005 338.229C30.7125 338.453 30.5765 338.661 30.3925 338.853C30.2165 339.045 29.9925 339.237 29.7205 339.429C29.4485 339.613 29.1325 339.817 28.7725 340.041C28.4765 340.217 28.1925 340.405 27.9205 340.605C27.6485 340.805 27.4045 341.037 27.1885 341.301C26.9725 341.565 26.7925 341.877 26.6485 342.237C26.5125 342.589 26.4245 343.017 26.3845 343.521H31.9405V342.621H27.5725C27.6205 342.357 27.7205 342.125 27.8725 341.925C28.0325 341.717 28.2205 341.525 28.4365 341.349C28.6605 341.173 28.9045 341.009 29.1685 340.857C29.4325 340.697 29.6965 340.537 29.9605 340.377C30.2245 340.209 30.4805 340.033 30.7285 339.849C30.9765 339.665 31.1965 339.461 31.3885 339.237C31.5805 339.005 31.7325 338.745 31.8445 338.457C31.9645 338.169 32.0245 337.837 32.0245 337.461C32.0245 337.061 31.9525 336.709 31.8085 336.405C31.6725 336.101 31.4845 335.849 31.2445 335.649C31.0045 335.441 30.7205 335.285 30.3925 335.181C30.0725 335.069 29.7285 335.013 29.3605 335.013C28.9125 335.013 28.5125 335.089 28.1605 335.241C27.8085 335.393 27.5125 335.605 27.2725 335.877C27.0405 336.141 26.8685 336.457 26.7565 336.825C26.6445 337.193 26.6005 337.593 26.6245 338.025Z" fill="#B7BCC8"/>
<path d="M20.86 378.7C20.86 378.484 20.9 378.296 20.98 378.136C21.06 377.976 21.164 377.84 21.292 377.728C21.428 377.616 21.588 377.532 21.772 377.476C21.956 377.42 22.148 377.392 22.348 377.392C22.764 377.392 23.104 377.504 23.368 377.728C23.64 377.944 23.776 378.268 23.776 378.7C23.776 379.132 23.644 379.468 23.38 379.708C23.116 379.948 22.78 380.068 22.372 380.068C22.164 380.068 21.968 380.04 21.784 379.984C21.6 379.928 21.44 379.844 21.304 379.732C21.168 379.62 21.06 379.48 20.98 379.312C20.9 379.136 20.86 378.932 20.86 378.7ZM19.78 378.664C19.78 379.048 19.888 379.404 20.104 379.732C20.32 380.052 20.608 380.284 20.968 380.428C20.488 380.596 20.12 380.868 19.864 381.244C19.608 381.612 19.48 382.048 19.48 382.552C19.48 382.984 19.552 383.364 19.696 383.692C19.848 384.012 20.052 384.28 20.308 384.496C20.572 384.712 20.88 384.872 21.232 384.976C21.584 385.08 21.964 385.132 22.372 385.132C22.764 385.132 23.132 385.076 23.476 384.964C23.82 384.852 24.116 384.688 24.364 384.472C24.62 384.248 24.82 383.976 24.964 383.656C25.116 383.336 25.192 382.968 25.192 382.552C25.192 382.024 25.068 381.58 24.82 381.22C24.572 380.852 24.192 380.588 23.68 380.428C24.04 380.268 24.324 380.032 24.532 379.72C24.748 379.4 24.856 379.048 24.856 378.664C24.856 378.392 24.808 378.128 24.712 377.872C24.616 377.608 24.464 377.376 24.256 377.176C24.056 376.968 23.792 376.804 23.464 376.684C23.136 376.556 22.74 376.492 22.276 376.492C21.948 376.492 21.632 376.54 21.328 376.636C21.032 376.732 20.768 376.872 20.536 377.056C20.304 377.24 20.12 377.468 19.984 377.74C19.848 378.004 19.78 378.312 19.78 378.664ZM20.56 382.6C20.56 382.352 20.604 382.128 20.692 381.928C20.788 381.728 20.916 381.556 21.076 381.412C21.244 381.268 21.436 381.16 21.652 381.088C21.876 381.008 22.112 380.968 22.36 380.968C22.6 380.968 22.824 381.012 23.032 381.1C23.248 381.18 23.436 381.292 23.596 381.436C23.756 381.58 23.88 381.752 23.968 381.952C24.064 382.144 24.112 382.356 24.112 382.588C24.112 382.828 24.068 383.048 23.98 383.248C23.9 383.448 23.78 383.624 23.62 383.776C23.468 383.92 23.284 384.036 23.068 384.124C22.86 384.204 22.628 384.244 22.372 384.244C21.844 384.244 21.408 384.1 21.064 383.812C20.728 383.516 20.56 383.112 20.56 382.6ZM27.6805 380.812C27.6805 380.604 27.6805 380.376 27.6805 380.128C27.6885 379.872 27.7085 379.62 27.7405 379.372C27.7805 379.116 27.8325 378.868 27.8965 378.628C27.9685 378.388 28.0685 378.18 28.1965 378.004C28.3325 377.82 28.5005 377.672 28.7005 377.56C28.9005 377.448 29.1445 377.392 29.4325 377.392C29.7205 377.392 29.9645 377.448 30.1645 377.56C30.3645 377.672 30.5285 377.82 30.6565 378.004C30.7925 378.18 30.8925 378.388 30.9565 378.628C31.0285 378.868 31.0805 379.116 31.1125 379.372C31.1525 379.62 31.1725 379.872 31.1725 380.128C31.1805 380.376 31.1845 380.604 31.1845 380.812C31.1845 381.132 31.1725 381.492 31.1485 381.892C31.1325 382.284 31.0685 382.656 30.9565 383.008C30.8525 383.352 30.6805 383.644 30.4405 383.884C30.2005 384.124 29.8645 384.244 29.4325 384.244C29.0005 384.244 28.6645 384.124 28.4245 383.884C28.1845 383.644 28.0085 383.352 27.8965 383.008C27.7925 382.656 27.7285 382.284 27.7045 381.892C27.6885 381.492 27.6805 381.132 27.6805 380.812ZM26.6005 380.824C26.6005 381.136 26.6085 381.46 26.6245 381.796C26.6405 382.132 26.6805 382.46 26.7445 382.78C26.8085 383.1 26.9005 383.404 27.0205 383.692C27.1405 383.972 27.3045 384.22 27.5125 384.436C27.7205 384.652 27.9805 384.824 28.2925 384.952C28.6125 385.072 28.9925 385.132 29.4325 385.132C29.8805 385.132 30.2605 385.072 30.5725 384.952C30.8845 384.824 31.1445 384.652 31.3525 384.436C31.5605 384.22 31.7245 383.972 31.8445 383.692C31.9645 383.404 32.0565 383.1 32.1205 382.78C32.1845 382.46 32.2245 382.132 32.2405 381.796C32.2565 381.46 32.2645 381.136 32.2645 380.824C32.2645 380.512 32.2565 380.188 32.2405 379.852C32.2245 379.516 32.1845 379.188 32.1205 378.868C32.0565 378.548 31.9645 378.244 31.8445 377.956C31.7245 377.668 31.5605 377.416 31.3525 377.2C31.1445 376.984 30.8805 376.812 30.5605 376.684C30.2485 376.556 29.8725 376.492 29.4325 376.492C28.9925 376.492 28.6125 376.556 28.2925 376.684C27.9805 376.812 27.7205 376.984 27.5125 377.2C27.3045 377.416 27.1405 377.668 27.0205 377.956C26.9005 378.244 26.8085 378.548 26.7445 378.868C26.6805 379.188 26.6405 379.516 26.6245 379.852C26.6085 380.188 26.6005 380.512 26.6005 380.824Z" fill="#B7BCC8"/>
<path d="M25.108 418.512V417.636H19.6V418.596H24.064C23.616 419.068 23.196 419.584 22.804 420.144C22.42 420.704 22.08 421.3 21.784 421.932C21.488 422.556 21.244 423.212 21.052 423.9C20.868 424.58 20.752 425.28 20.704 426H21.844C21.884 425.336 21.996 424.652 22.18 423.948C22.364 423.244 22.6 422.56 22.888 421.896C23.184 421.232 23.52 420.608 23.896 420.024C24.272 419.44 24.676 418.936 25.108 418.512ZM27.9565 419.7C27.9565 419.484 27.9965 419.296 28.0765 419.136C28.1565 418.976 28.2605 418.84 28.3885 418.728C28.5245 418.616 28.6845 418.532 28.8685 418.476C29.0525 418.42 29.2445 418.392 29.4445 418.392C29.8605 418.392 30.2005 418.504 30.4645 418.728C30.7365 418.944 30.8725 419.268 30.8725 419.7C30.8725 420.132 30.7405 420.468 30.4765 420.708C30.2125 420.948 29.8765 421.068 29.4685 421.068C29.2605 421.068 29.0645 421.04 28.8805 420.984C28.6965 420.928 28.5365 420.844 28.4005 420.732C28.2645 420.62 28.1565 420.48 28.0765 420.312C27.9965 420.136 27.9565 419.932 27.9565 419.7ZM26.8765 419.664C26.8765 420.048 26.9845 420.404 27.2005 420.732C27.4165 421.052 27.7045 421.284 28.0645 421.428C27.5845 421.596 27.2165 421.868 26.9605 422.244C26.7045 422.612 26.5765 423.048 26.5765 423.552C26.5765 423.984 26.6485 424.364 26.7925 424.692C26.9445 425.012 27.1485 425.28 27.4045 425.496C27.6685 425.712 27.9765 425.872 28.3285 425.976C28.6805 426.08 29.0605 426.132 29.4685 426.132C29.8605 426.132 30.2285 426.076 30.5725 425.964C30.9165 425.852 31.2125 425.688 31.4605 425.472C31.7165 425.248 31.9165 424.976 32.0605 424.656C32.2125 424.336 32.2885 423.968 32.2885 423.552C32.2885 423.024 32.1645 422.58 31.9165 422.22C31.6685 421.852 31.2885 421.588 30.7765 421.428C31.1365 421.268 31.4205 421.032 31.6285 420.72C31.8445 420.4 31.9525 420.048 31.9525 419.664C31.9525 419.392 31.9045 419.128 31.8085 418.872C31.7125 418.608 31.5605 418.376 31.3525 418.176C31.1525 417.968 30.8885 417.804 30.5605 417.684C30.2325 417.556 29.8365 417.492 29.3725 417.492C29.0445 417.492 28.7285 417.54 28.4245 417.636C28.1285 417.732 27.8645 417.872 27.6325 418.056C27.4005 418.24 27.2165 418.468 27.0805 418.74C26.9445 419.004 26.8765 419.312 26.8765 419.664ZM27.6565 423.6C27.6565 423.352 27.7005 423.128 27.7885 422.928C27.8845 422.728 28.0125 422.556 28.1725 422.412C28.3405 422.268 28.5325 422.16 28.7485 422.088C28.9725 422.008 29.2085 421.968 29.4565 421.968C29.6965 421.968 29.9205 422.012 30.1285 422.1C30.3445 422.18 30.5325 422.292 30.6925 422.436C30.8525 422.58 30.9765 422.752 31.0645 422.952C31.1605 423.144 31.2085 423.356 31.2085 423.588C31.2085 423.828 31.1645 424.048 31.0765 424.248C30.9965 424.448 30.8765 424.624 30.7165 424.776C30.5645 424.92 30.3805 425.036 30.1645 425.124C29.9565 425.204 29.7245 425.244 29.4685 425.244C28.9405 425.244 28.5045 425.1 28.1605 424.812C27.8245 424.516 27.6565 424.112 27.6565 423.6Z" fill="#B7BCC8"/>
<path d="M20.86 257.221C20.86 257.005 20.9 256.817 20.98 256.657C21.06 256.497 21.164 256.361 21.292 256.249C21.428 256.137 21.588 256.053 21.772 255.997C21.956 255.941 22.148 255.913 22.348 255.913C22.764 255.913 23.104 256.025 23.368 256.249C23.64 256.465 23.776 256.789 23.776 257.221C23.776 257.653 23.644 257.989 23.38 258.229C23.116 258.469 22.78 258.589 22.372 258.589C22.164 258.589 21.968 258.561 21.784 258.505C21.6 258.449 21.44 258.365 21.304 258.253C21.168 258.141 21.06 258.001 20.98 257.833C20.9 257.657 20.86 257.453 20.86 257.221ZM19.78 257.185C19.78 257.569 19.888 257.925 20.104 258.253C20.32 258.573 20.608 258.805 20.968 258.949C20.488 259.117 20.12 259.389 19.864 259.765C19.608 260.133 19.48 260.569 19.48 261.073C19.48 261.505 19.552 261.885 19.696 262.213C19.848 262.533 20.052 262.801 20.308 263.017C20.572 263.233 20.88 263.393 21.232 263.497C21.584 263.601 21.964 263.653 22.372 263.653C22.764 263.653 23.132 263.597 23.476 263.485C23.82 263.373 24.116 263.209 24.364 262.993C24.62 262.769 24.82 262.497 24.964 262.177C25.116 261.857 25.192 261.489 25.192 261.073C25.192 260.545 25.068 260.101 24.82 259.741C24.572 259.373 24.192 259.109 23.68 258.949C24.04 258.789 24.324 258.553 24.532 258.241C24.748 257.921 24.856 257.569 24.856 257.185C24.856 256.913 24.808 256.649 24.712 256.393C24.616 256.129 24.464 255.897 24.256 255.697C24.056 255.489 23.792 255.325 23.464 255.205C23.136 255.077 22.74 255.013 22.276 255.013C21.948 255.013 21.632 255.061 21.328 255.157C21.032 255.253 20.768 255.393 20.536 255.577C20.304 255.761 20.12 255.989 19.984 256.261C19.848 256.525 19.78 256.833 19.78 257.185ZM20.56 261.121C20.56 260.873 20.604 260.649 20.692 260.449C20.788 260.249 20.916 260.077 21.076 259.933C21.244 259.789 21.436 259.681 21.652 259.609C21.876 259.529 22.112 259.489 22.36 259.489C22.6 259.489 22.824 259.533 23.032 259.621C23.248 259.701 23.436 259.813 23.596 259.957C23.756 260.101 23.88 260.273 23.968 260.473C24.064 260.665 24.112 260.877 24.112 261.109C24.112 261.349 24.068 261.569 23.98 261.769C23.9 261.969 23.78 262.145 23.62 262.297C23.468 262.441 23.284 262.557 23.068 262.645C22.86 262.725 22.628 262.765 22.372 262.765C21.844 262.765 21.408 262.621 21.064 262.333C20.728 262.037 20.56 261.633 20.56 261.121ZM31.0645 257.185H32.0845C32.0205 256.481 31.7805 255.945 31.3645 255.577C30.9485 255.201 30.3885 255.013 29.6845 255.013C29.0765 255.013 28.5725 255.141 28.1725 255.397C27.7725 255.653 27.4525 255.993 27.2125 256.417C26.9725 256.841 26.8005 257.329 26.6965 257.881C26.6005 258.425 26.5525 258.989 26.5525 259.573C26.5525 260.021 26.5845 260.485 26.6485 260.965C26.7205 261.445 26.8605 261.885 27.0685 262.285C27.2765 262.685 27.5725 263.013 27.9565 263.269C28.3405 263.525 28.8485 263.653 29.4805 263.653C30.0165 263.653 30.4645 263.565 30.8245 263.389C31.1925 263.205 31.4845 262.977 31.7005 262.705C31.9245 262.425 32.0845 262.117 32.1805 261.781C32.2765 261.445 32.3245 261.121 32.3245 260.809C32.3245 260.417 32.2645 260.053 32.1445 259.717C32.0245 259.381 31.8525 259.089 31.6285 258.841C31.4125 258.593 31.1405 258.401 30.8125 258.265C30.4925 258.121 30.1285 258.049 29.7205 258.049C29.2565 258.049 28.8445 258.137 28.4845 258.313C28.1325 258.489 27.8365 258.773 27.5965 259.165L27.5725 259.141C27.5805 258.813 27.6125 258.461 27.6685 258.085C27.7245 257.709 27.8245 257.361 27.9685 257.041C28.1205 256.713 28.3285 256.445 28.5925 256.237C28.8565 256.021 29.2045 255.913 29.6365 255.913C30.0445 255.913 30.3725 256.029 30.6205 256.261C30.8685 256.493 31.0165 256.801 31.0645 257.185ZM29.5285 258.949C29.8165 258.949 30.0685 259.001 30.2845 259.105C30.5005 259.209 30.6805 259.349 30.8245 259.525C30.9685 259.693 31.0725 259.897 31.1365 260.137C31.2085 260.369 31.2445 260.617 31.2445 260.881C31.2445 261.129 31.2045 261.369 31.1245 261.601C31.0525 261.825 30.9445 262.025 30.8005 262.201C30.6565 262.377 30.4765 262.517 30.2605 262.621C30.0525 262.717 29.8085 262.765 29.5285 262.765C29.2485 262.765 28.9965 262.717 28.7725 262.621C28.5565 262.517 28.3725 262.381 28.2205 262.213C28.0765 262.045 27.9645 261.845 27.8845 261.613C27.8045 261.381 27.7645 261.133 27.7645 260.869C27.7645 260.605 27.8005 260.357 27.8725 260.125C27.9525 259.885 28.0685 259.681 28.2205 259.513C28.3725 259.337 28.5565 259.201 28.7725 259.105C28.9885 259.001 29.2405 258.949 29.5285 258.949Z" fill="#B7BCC8"/>
<path d="M20.86 217.221C20.86 217.005 20.9 216.817 20.98 216.657C21.06 216.497 21.164 216.361 21.292 216.249C21.428 216.137 21.588 216.053 21.772 215.997C21.956 215.941 22.148 215.913 22.348 215.913C22.764 215.913 23.104 216.025 23.368 216.249C23.64 216.465 23.776 216.789 23.776 217.221C23.776 217.653 23.644 217.989 23.38 218.229C23.116 218.469 22.78 218.589 22.372 218.589C22.164 218.589 21.968 218.561 21.784 218.505C21.6 218.449 21.44 218.365 21.304 218.253C21.168 218.141 21.06 218.001 20.98 217.833C20.9 217.657 20.86 217.453 20.86 217.221ZM19.78 217.185C19.78 217.569 19.888 217.925 20.104 218.253C20.32 218.573 20.608 218.805 20.968 218.949C20.488 219.117 20.12 219.389 19.864 219.765C19.608 220.133 19.48 220.569 19.48 221.073C19.48 221.505 19.552 221.885 19.696 222.213C19.848 222.533 20.052 222.801 20.308 223.017C20.572 223.233 20.88 223.393 21.232 223.497C21.584 223.601 21.964 223.653 22.372 223.653C22.764 223.653 23.132 223.597 23.476 223.485C23.82 223.373 24.116 223.209 24.364 222.993C24.62 222.769 24.82 222.497 24.964 222.177C25.116 221.857 25.192 221.489 25.192 221.073C25.192 220.545 25.068 220.101 24.82 219.741C24.572 219.373 24.192 219.109 23.68 218.949C24.04 218.789 24.324 218.553 24.532 218.241C24.748 217.921 24.856 217.569 24.856 217.185C24.856 216.913 24.808 216.649 24.712 216.393C24.616 216.129 24.464 215.897 24.256 215.697C24.056 215.489 23.792 215.325 23.464 215.205C23.136 215.077 22.74 215.013 22.276 215.013C21.948 215.013 21.632 215.061 21.328 215.157C21.032 215.253 20.768 215.393 20.536 215.577C20.304 215.761 20.12 215.989 19.984 216.261C19.848 216.525 19.78 216.833 19.78 217.185ZM20.56 221.121C20.56 220.873 20.604 220.649 20.692 220.449C20.788 220.249 20.916 220.077 21.076 219.933C21.244 219.789 21.436 219.681 21.652 219.609C21.876 219.529 22.112 219.489 22.36 219.489C22.6 219.489 22.824 219.533 23.032 219.621C23.248 219.701 23.436 219.813 23.596 219.957C23.756 220.101 23.88 220.273 23.968 220.473C24.064 220.665 24.112 220.877 24.112 221.109C24.112 221.349 24.068 221.569 23.98 221.769C23.9 221.969 23.78 222.145 23.62 222.297C23.468 222.441 23.284 222.557 23.068 222.645C22.86 222.725 22.628 222.765 22.372 222.765C21.844 222.765 21.408 222.621 21.064 222.333C20.728 222.037 20.56 221.633 20.56 221.121ZM27.9565 217.221C27.9565 217.005 27.9965 216.817 28.0765 216.657C28.1565 216.497 28.2605 216.361 28.3885 216.249C28.5245 216.137 28.6845 216.053 28.8685 215.997C29.0525 215.941 29.2445 215.913 29.4445 215.913C29.8605 215.913 30.2005 216.025 30.4645 216.249C30.7365 216.465 30.8725 216.789 30.8725 217.221C30.8725 217.653 30.7405 217.989 30.4765 218.229C30.2125 218.469 29.8765 218.589 29.4685 218.589C29.2605 218.589 29.0645 218.561 28.8805 218.505C28.6965 218.449 28.5365 218.365 28.4005 218.253C28.2645 218.141 28.1565 218.001 28.0765 217.833C27.9965 217.657 27.9565 217.453 27.9565 217.221ZM26.8765 217.185C26.8765 217.569 26.9845 217.925 27.2005 218.253C27.4165 218.573 27.7045 218.805 28.0645 218.949C27.5845 219.117 27.2165 219.389 26.9605 219.765C26.7045 220.133 26.5765 220.569 26.5765 221.073C26.5765 221.505 26.6485 221.885 26.7925 222.213C26.9445 222.533 27.1485 222.801 27.4045 223.017C27.6685 223.233 27.9765 223.393 28.3285 223.497C28.6805 223.601 29.0605 223.653 29.4685 223.653C29.8605 223.653 30.2285 223.597 30.5725 223.485C30.9165 223.373 31.2125 223.209 31.4605 222.993C31.7165 222.769 31.9165 222.497 32.0605 222.177C32.2125 221.857 32.2885 221.489 32.2885 221.073C32.2885 220.545 32.1645 220.101 31.9165 219.741C31.6685 219.373 31.2885 219.109 30.7765 218.949C31.1365 218.789 31.4205 218.553 31.6285 218.241C31.8445 217.921 31.9525 217.569 31.9525 217.185C31.9525 216.913 31.9045 216.649 31.8085 216.393C31.7125 216.129 31.5605 215.897 31.3525 215.697C31.1525 215.489 30.8885 215.325 30.5605 215.205C30.2325 215.077 29.8365 215.013 29.3725 215.013C29.0445 215.013 28.7285 215.061 28.4245 215.157C28.1285 215.253 27.8645 215.393 27.6325 215.577C27.4005 215.761 27.2165 215.989 27.0805 216.261C26.9445 216.525 26.8765 216.833 26.8765 217.185ZM27.6565 221.121C27.6565 220.873 27.7005 220.649 27.7885 220.449C27.8845 220.249 28.0125 220.077 28.1725 219.933C28.3405 219.789 28.5325 219.681 28.7485 219.609C28.9725 219.529 29.2085 219.489 29.4565 219.489C29.6965 219.489 29.9205 219.533 30.1285 219.621C30.3445 219.701 30.5325 219.813 30.6925 219.957C30.8525 220.101 30.9765 220.273 31.0645 220.473C31.1605 220.665 31.2085 220.877 31.2085 221.109C31.2085 221.349 31.1645 221.569 31.0765 221.769C30.9965 221.969 30.8765 222.145 30.7165 222.297C30.5645 222.441 30.3805 222.557 30.1645 222.645C29.9565 222.725 29.7245 222.765 29.4685 222.765C28.9405 222.765 28.5045 222.621 28.1605 222.333C27.8245 222.037 27.6565 221.633 27.6565 221.121Z" fill="#B7BCC8"/>
<path d="M20.608 181.469H19.588C19.652 182.205 19.92 182.753 20.392 183.113C20.864 183.473 21.456 183.653 22.168 183.653C23.2 183.653 23.948 183.261 24.412 182.477C24.884 181.685 25.12 180.553 25.12 179.081C25.12 178.273 25.04 177.609 24.88 177.089C24.728 176.561 24.52 176.145 24.256 175.841C23.992 175.537 23.684 175.325 23.332 175.205C22.98 175.077 22.604 175.013 22.204 175.013C21.796 175.013 21.42 175.081 21.076 175.217C20.732 175.353 20.436 175.545 20.188 175.793C19.94 176.033 19.748 176.325 19.612 176.669C19.476 177.005 19.408 177.377 19.408 177.785C19.408 178.201 19.464 178.585 19.576 178.937C19.696 179.289 19.868 179.589 20.092 179.837C20.324 180.085 20.608 180.281 20.944 180.425C21.28 180.561 21.664 180.629 22.096 180.629C22.512 180.629 22.896 180.525 23.248 180.317C23.6 180.101 23.872 179.813 24.064 179.453L24.088 179.477C24.056 180.589 23.884 181.417 23.572 181.961C23.26 182.497 22.792 182.765 22.168 182.765C21.76 182.765 21.408 182.653 21.112 182.429C20.816 182.205 20.648 181.885 20.608 181.469ZM23.908 177.857C23.908 178.105 23.868 178.345 23.788 178.577C23.708 178.801 23.592 179.001 23.44 179.177C23.288 179.345 23.104 179.481 22.888 179.585C22.672 179.681 22.432 179.729 22.168 179.729C21.92 179.729 21.692 179.681 21.484 179.585C21.284 179.481 21.108 179.345 20.956 179.177C20.812 179.009 20.696 178.817 20.608 178.601C20.528 178.385 20.488 178.161 20.488 177.929C20.488 177.665 20.516 177.413 20.572 177.173C20.636 176.933 20.732 176.721 20.86 176.537C20.996 176.345 21.168 176.193 21.376 176.081C21.592 175.969 21.852 175.913 22.156 175.913C22.444 175.913 22.696 175.965 22.912 176.069C23.128 176.173 23.308 176.317 23.452 176.501C23.604 176.677 23.716 176.881 23.788 177.113C23.868 177.345 23.908 177.593 23.908 177.857ZM27.6805 179.333C27.6805 179.125 27.6805 178.897 27.6805 178.649C27.6885 178.393 27.7085 178.141 27.7405 177.893C27.7805 177.637 27.8325 177.389 27.8965 177.149C27.9685 176.909 28.0685 176.701 28.1965 176.525C28.3325 176.341 28.5005 176.193 28.7005 176.081C28.9005 175.969 29.1445 175.913 29.4325 175.913C29.7205 175.913 29.9645 175.969 30.1645 176.081C30.3645 176.193 30.5285 176.341 30.6565 176.525C30.7925 176.701 30.8925 176.909 30.9565 177.149C31.0285 177.389 31.0805 177.637 31.1125 177.893C31.1525 178.141 31.1725 178.393 31.1725 178.649C31.1805 178.897 31.1845 179.125 31.1845 179.333C31.1845 179.653 31.1725 180.013 31.1485 180.413C31.1325 180.805 31.0685 181.177 30.9565 181.529C30.8525 181.873 30.6805 182.165 30.4405 182.405C30.2005 182.645 29.8645 182.765 29.4325 182.765C29.0005 182.765 28.6645 182.645 28.4245 182.405C28.1845 182.165 28.0085 181.873 27.8965 181.529C27.7925 181.177 27.7285 180.805 27.7045 180.413C27.6885 180.013 27.6805 179.653 27.6805 179.333ZM26.6005 179.345C26.6005 179.657 26.6085 179.981 26.6245 180.317C26.6405 180.653 26.6805 180.981 26.7445 181.301C26.8085 181.621 26.9005 181.925 27.0205 182.213C27.1405 182.493 27.3045 182.741 27.5125 182.957C27.7205 183.173 27.9805 183.345 28.2925 183.473C28.6125 183.593 28.9925 183.653 29.4325 183.653C29.8805 183.653 30.2605 183.593 30.5725 183.473C30.8845 183.345 31.1445 183.173 31.3525 182.957C31.5605 182.741 31.7245 182.493 31.8445 182.213C31.9645 181.925 32.0565 181.621 32.1205 181.301C32.1845 180.981 32.2245 180.653 32.2405 180.317C32.2565 179.981 32.2645 179.657 32.2645 179.345C32.2645 179.033 32.2565 178.709 32.2405 178.373C32.2245 178.037 32.1845 177.709 32.1205 177.389C32.0565 177.069 31.9645 176.765 31.8445 176.477C31.7245 176.189 31.5605 175.937 31.3525 175.721C31.1445 175.505 30.8805 175.333 30.5605 175.205C30.2485 175.077 29.8725 175.013 29.4325 175.013C28.9925 175.013 28.6125 175.077 28.2925 175.205C27.9805 175.333 27.7205 175.505 27.5125 175.721C27.3045 175.937 27.1405 176.189 27.0205 176.477C26.9005 176.765 26.8085 177.069 26.7445 177.389C26.6805 177.709 26.6405 178.037 26.6245 178.373C26.6085 178.709 26.6005 179.033 26.6005 179.345Z" fill="#B7BCC8"/>
<path d="M20.608 141.469H19.588C19.652 142.205 19.92 142.753 20.392 143.113C20.864 143.473 21.456 143.653 22.168 143.653C23.2 143.653 23.948 143.261 24.412 142.477C24.884 141.685 25.12 140.553 25.12 139.081C25.12 138.273 25.04 137.609 24.88 137.089C24.728 136.561 24.52 136.145 24.256 135.841C23.992 135.537 23.684 135.325 23.332 135.205C22.98 135.077 22.604 135.013 22.204 135.013C21.796 135.013 21.42 135.081 21.076 135.217C20.732 135.353 20.436 135.545 20.188 135.793C19.94 136.033 19.748 136.325 19.612 136.669C19.476 137.005 19.408 137.377 19.408 137.785C19.408 138.201 19.464 138.585 19.576 138.937C19.696 139.289 19.868 139.589 20.092 139.837C20.324 140.085 20.608 140.281 20.944 140.425C21.28 140.561 21.664 140.629 22.096 140.629C22.512 140.629 22.896 140.525 23.248 140.317C23.6 140.101 23.872 139.813 24.064 139.453L24.088 139.477C24.056 140.589 23.884 141.417 23.572 141.961C23.26 142.497 22.792 142.765 22.168 142.765C21.76 142.765 21.408 142.653 21.112 142.429C20.816 142.205 20.648 141.885 20.608 141.469ZM23.908 137.857C23.908 138.105 23.868 138.345 23.788 138.577C23.708 138.801 23.592 139.001 23.44 139.177C23.288 139.345 23.104 139.481 22.888 139.585C22.672 139.681 22.432 139.729 22.168 139.729C21.92 139.729 21.692 139.681 21.484 139.585C21.284 139.481 21.108 139.345 20.956 139.177C20.812 139.009 20.696 138.817 20.608 138.601C20.528 138.385 20.488 138.161 20.488 137.929C20.488 137.665 20.516 137.413 20.572 137.173C20.636 136.933 20.732 136.721 20.86 136.537C20.996 136.345 21.168 136.193 21.376 136.081C21.592 135.969 21.852 135.913 22.156 135.913C22.444 135.913 22.696 135.965 22.912 136.069C23.128 136.173 23.308 136.317 23.452 136.501C23.604 136.677 23.716 136.881 23.788 137.113C23.868 137.345 23.908 137.593 23.908 137.857ZM26.6245 138.025H27.6445C27.6365 137.769 27.6605 137.517 27.7165 137.269C27.7805 137.013 27.8805 136.785 28.0165 136.585C28.1525 136.385 28.3245 136.225 28.5325 136.105C28.7485 135.977 29.0045 135.913 29.3005 135.913C29.5245 135.913 29.7365 135.949 29.9365 136.021C30.1365 136.093 30.3085 136.197 30.4525 136.333C30.6045 136.469 30.7245 136.633 30.8125 136.825C30.9005 137.009 30.9445 137.217 30.9445 137.449C30.9445 137.745 30.8965 138.005 30.8005 138.229C30.7125 138.453 30.5765 138.661 30.3925 138.853C30.2165 139.045 29.9925 139.237 29.7205 139.429C29.4485 139.613 29.1325 139.817 28.7725 140.041C28.4765 140.217 28.1925 140.405 27.9205 140.605C27.6485 140.805 27.4045 141.037 27.1885 141.301C26.9725 141.565 26.7925 141.877 26.6485 142.237C26.5125 142.589 26.4245 143.017 26.3845 143.521H31.9405V142.621H27.5725C27.6205 142.357 27.7205 142.125 27.8725 141.925C28.0325 141.717 28.2205 141.525 28.4365 141.349C28.6605 141.173 28.9045 141.009 29.1685 140.857C29.4325 140.697 29.6965 140.537 29.9605 140.377C30.2245 140.209 30.4805 140.033 30.7285 139.849C30.9765 139.665 31.1965 139.461 31.3885 139.237C31.5805 139.005 31.7325 138.745 31.8445 138.457C31.9645 138.169 32.0245 137.837 32.0245 137.461C32.0245 137.061 31.9525 136.709 31.8085 136.405C31.6725 136.101 31.4845 135.849 31.2445 135.649C31.0045 135.441 30.7205 135.285 30.3925 135.181C30.0725 135.069 29.7285 135.013 29.3605 135.013C28.9125 135.013 28.5125 135.089 28.1605 135.241C27.8085 135.393 27.5125 135.605 27.2725 135.877C27.0405 136.141 26.8685 136.457 26.7565 136.825C26.6445 137.193 26.6005 137.593 26.6245 138.025Z" fill="#B7BCC8"/>
<path d="M20.608 101.948H19.588C19.652 102.684 19.92 103.232 20.392 103.592C20.864 103.952 21.456 104.132 22.168 104.132C23.2 104.132 23.948 103.74 24.412 102.956C24.884 102.164 25.12 101.032 25.12 99.5599C25.12 98.7519 25.04 98.0879 24.88 97.5679C24.728 97.0399 24.52 96.6239 24.256 96.3199C23.992 96.0159 23.684 95.8039 23.332 95.6839C22.98 95.5559 22.604 95.4919 22.204 95.4919C21.796 95.4919 21.42 95.5599 21.076 95.6959C20.732 95.8319 20.436 96.0239 20.188 96.2719C19.94 96.5119 19.748 96.8039 19.612 97.1479C19.476 97.4839 19.408 97.8559 19.408 98.2639C19.408 98.6799 19.464 99.0639 19.576 99.4159C19.696 99.7679 19.868 100.068 20.092 100.316C20.324 100.564 20.608 100.76 20.944 100.904C21.28 101.04 21.664 101.108 22.096 101.108C22.512 101.108 22.896 101.004 23.248 100.796C23.6 100.58 23.872 100.292 24.064 99.9319L24.088 99.9559C24.056 101.068 23.884 101.896 23.572 102.44C23.26 102.976 22.792 103.244 22.168 103.244C21.76 103.244 21.408 103.132 21.112 102.908C20.816 102.684 20.648 102.364 20.608 101.948ZM23.908 98.3359C23.908 98.5839 23.868 98.8239 23.788 99.0559C23.708 99.2799 23.592 99.4799 23.44 99.6559C23.288 99.8239 23.104 99.9599 22.888 100.064C22.672 100.16 22.432 100.208 22.168 100.208C21.92 100.208 21.692 100.16 21.484 100.064C21.284 99.9599 21.108 99.8239 20.956 99.6559C20.812 99.4879 20.696 99.2959 20.608 99.0799C20.528 98.8639 20.488 98.6399 20.488 98.4079C20.488 98.1439 20.516 97.8919 20.572 97.6519C20.636 97.4119 20.732 97.1999 20.86 97.0159C20.996 96.8239 21.168 96.6719 21.376 96.5599C21.592 96.4479 21.852 96.3919 22.156 96.3919C22.444 96.3919 22.696 96.4439 22.912 96.5479C23.128 96.6519 23.308 96.7959 23.452 96.9799C23.604 97.1559 23.716 97.3599 23.788 97.5919C23.868 97.8239 23.908 98.0719 23.908 98.3359ZM30.1645 101.108H27.3085L30.1405 96.9439H30.1645V101.108ZM31.1245 101.108V95.4919H30.3085L26.4325 101.024V102.008H30.1645V104H31.1245V102.008H32.2765V101.108H31.1245Z" fill="#B7BCC8"/>
<path d="M20.608 61.9479H19.588C19.652 62.6839 19.92 63.2319 20.392 63.5919C20.864 63.9519 21.456 64.1319 22.168 64.1319C23.2 64.1319 23.948 63.7399 24.412 62.9559C24.884 62.1639 25.12 61.0319 25.12 59.5599C25.12 58.7519 25.04 58.0879 24.88 57.5679C24.728 57.0399 24.52 56.6239 24.256 56.3199C23.992 56.0159 23.684 55.8039 23.332 55.6839C22.98 55.5559 22.604 55.4919 22.204 55.4919C21.796 55.4919 21.42 55.5599 21.076 55.6959C20.732 55.8319 20.436 56.0239 20.188 56.2719C19.94 56.5119 19.748 56.8039 19.612 57.1479C19.476 57.4839 19.408 57.8559 19.408 58.2639C19.408 58.6799 19.464 59.0639 19.576 59.4159C19.696 59.7679 19.868 60.0679 20.092 60.3159C20.324 60.5639 20.608 60.7599 20.944 60.9039C21.28 61.0399 21.664 61.1079 22.096 61.1079C22.512 61.1079 22.896 61.0039 23.248 60.7959C23.6 60.5799 23.872 60.2919 24.064 59.9319L24.088 59.9559C24.056 61.0679 23.884 61.8959 23.572 62.4399C23.26 62.9759 22.792 63.2439 22.168 63.2439C21.76 63.2439 21.408 63.1319 21.112 62.9079C20.816 62.6839 20.648 62.3639 20.608 61.9479ZM23.908 58.3359C23.908 58.5839 23.868 58.8239 23.788 59.0559C23.708 59.2799 23.592 59.4799 23.44 59.6559C23.288 59.8239 23.104 59.9599 22.888 60.0639C22.672 60.1599 22.432 60.2079 22.168 60.2079C21.92 60.2079 21.692 60.1599 21.484 60.0639C21.284 59.9599 21.108 59.8239 20.956 59.6559C20.812 59.4879 20.696 59.2959 20.608 59.0799C20.528 58.8639 20.488 58.6399 20.488 58.4079C20.488 58.1439 20.516 57.8919 20.572 57.6519C20.636 57.4119 20.732 57.1999 20.86 57.0159C20.996 56.8239 21.168 56.6719 21.376 56.5599C21.592 56.4479 21.852 56.3919 22.156 56.3919C22.444 56.3919 22.696 56.4439 22.912 56.5479C23.128 56.6519 23.308 56.7959 23.452 56.9799C23.604 57.1559 23.716 57.3599 23.788 57.5919C23.868 57.8239 23.908 58.0719 23.908 58.3359ZM31.0645 57.6639H32.0845C32.0205 56.9599 31.7805 56.4239 31.3645 56.0559C30.9485 55.6799 30.3885 55.4919 29.6845 55.4919C29.0765 55.4919 28.5725 55.6199 28.1725 55.8759C27.7725 56.1319 27.4525 56.4719 27.2125 56.8959C26.9725 57.3199 26.8005 57.8079 26.6965 58.3599C26.6005 58.9039 26.5525 59.4679 26.5525 60.0519C26.5525 60.4999 26.5845 60.9639 26.6485 61.4439C26.7205 61.9239 26.8605 62.3639 27.0685 62.7639C27.2765 63.1639 27.5725 63.4919 27.9565 63.7479C28.3405 64.0039 28.8485 64.1319 29.4805 64.1319C30.0165 64.1319 30.4645 64.0439 30.8245 63.8679C31.1925 63.6839 31.4845 63.4559 31.7005 63.1839C31.9245 62.9039 32.0845 62.5959 32.1805 62.2599C32.2765 61.9239 32.3245 61.5999 32.3245 61.2879C32.3245 60.8959 32.2645 60.5319 32.1445 60.1959C32.0245 59.8599 31.8525 59.5679 31.6285 59.3199C31.4125 59.0719 31.1405 58.8799 30.8125 58.7439C30.4925 58.5999 30.1285 58.5279 29.7205 58.5279C29.2565 58.5279 28.8445 58.6159 28.4845 58.7919C28.1325 58.9679 27.8365 59.2519 27.5965 59.6439L27.5725 59.6199C27.5805 59.2919 27.6125 58.9399 27.6685 58.5639C27.7245 58.1879 27.8245 57.8399 27.9685 57.5199C28.1205 57.1919 28.3285 56.9239 28.5925 56.7159C28.8565 56.4999 29.2045 56.3919 29.6365 56.3919C30.0445 56.3919 30.3725 56.5079 30.6205 56.7399C30.8685 56.9719 31.0165 57.2799 31.0645 57.6639ZM29.5285 59.4279C29.8165 59.4279 30.0685 59.4799 30.2845 59.5839C30.5005 59.6879 30.6805 59.8279 30.8245 60.0039C30.9685 60.1719 31.0725 60.3759 31.1365 60.6159C31.2085 60.8479 31.2445 61.0959 31.2445 61.3599C31.2445 61.6079 31.2045 61.8479 31.1245 62.0799C31.0525 62.3039 30.9445 62.5039 30.8005 62.6799C30.6565 62.8559 30.4765 62.9959 30.2605 63.0999C30.0525 63.1959 29.8085 63.2439 29.5285 63.2439C29.2485 63.2439 28.9965 63.1959 28.7725 63.0999C28.5565 62.9959 28.3725 62.8599 28.2205 62.6919C28.0765 62.5239 27.9645 62.3239 27.8845 62.0919C27.8045 61.8599 27.7645 61.6119 27.7645 61.3479C27.7645 61.0839 27.8005 60.8359 27.8725 60.6039C27.9525 60.3639 28.0685 60.1599 28.2205 59.9919C28.3725 59.8159 28.5565 59.6799 28.7725 59.5839C28.9885 59.4799 29.2405 59.4279 29.5285 59.4279Z" fill="#B7BCC8"/>
<path d="M56.5 217L314 186.5L546.606 127.438C583.085 118.176 620.494 113.062 658.121 112.193L817.931 108.505" stroke="#4A7DC9" stroke-width="4" stroke-linecap="round" stroke-linejoin="round"/>
<path d="M56.4999 180L313.5 125.5L601.5 92.9999L709.25 90.9999L817 88.9999" stroke="#1FC7A2" stroke-width="4" stroke-linecap="round" stroke-linejoin="round"/>
<path d="M56.5 168L277.43 113.63C300.78 107.884 324.513 103.83 348.446 101.499L600 77.0001L715.5 73.0001L817 68.5001" stroke="#F9E7A9" stroke-width="4" stroke-linecap="round" stroke-linejoin="round"/>
<circle cx="818.5" cy="68.5" r="6.5" fill="#F9E7A9"/>
</svg>
