<svg width="974" height="473" viewBox="0 0 974 473" fill="none" xmlns="http://www.w3.org/2000/svg">
<rect width="966" height="456" rx="5" fill="white"/>
<line x1="687.523" y1="34" x2="687.523" y2="423" stroke="#777777" stroke-opacity="0.08"/>
<line x1="62.332" y1="34" x2="62.332" y2="423" stroke="#777777" stroke-opacity="0.08"/>
<line x1="357.753" y1="34" x2="357.753" y2="423" stroke="#777777" stroke-opacity="0.08"/>
<line x1="164.241" y1="34" x2="164.241" y2="423" stroke="#777777" stroke-opacity="0.08"/>
<line x1="522.638" y1="34" x2="522.638" y2="423" stroke="#777777" stroke-opacity="0.08"/>
<line x1="849.003" y1="34" x2="849.003" y2="423" stroke="#777777" stroke-opacity="0.08"/>
<line x1="936.642" y1="220.5" x2="61.8314" y2="220.5" stroke="#777777" stroke-opacity="0.08"/>
<line x1="936.642" y1="340.5" x2="61.8314" y2="340.5" stroke="#777777" stroke-opacity="0.08"/>
<line x1="936.642" y1="423.5" x2="61.8314" y2="423.5" stroke="#777777" stroke-opacity="0.08"/>
<line x1="936.642" y1="140.5" x2="61.8314" y2="140.5" stroke="#777777" stroke-opacity="0.08"/>
<line x1="936.642" y1="180.5" x2="61.8314" y2="180.5" stroke="#777777" stroke-opacity="0.08"/>
<line x1="936.642" y1="260.5" x2="61.8314" y2="260.5" stroke="#777777" stroke-opacity="0.08"/>
<line x1="936.642" y1="300.5" x2="61.8314" y2="300.5" stroke="#777777" stroke-opacity="0.08"/>
<line x1="936.642" y1="383.5" x2="61.8314" y2="383.5" stroke="#777777" stroke-opacity="0.08"/>
<line x1="936.642" y1="100.5" x2="61.8314" y2="100.5" stroke="#777777" stroke-opacity="0.08"/>
<line x1="936.642" y1="60.5" x2="61.8314" y2="60.5" stroke="#777777" stroke-opacity="0.08"/>
<path d="M323.955 436.504H324.975C324.967 436.248 324.991 435.996 325.047 435.748C325.111 435.492 325.211 435.264 325.347 435.064C325.483 434.864 325.655 434.704 325.863 434.584C326.079 434.456 326.335 434.392 326.631 434.392C326.855 434.392 327.067 434.428 327.267 434.5C327.467 434.572 327.639 434.676 327.783 434.812C327.935 434.948 328.055 435.112 328.143 435.304C328.231 435.488 328.275 435.696 328.275 435.928C328.275 436.224 328.227 436.484 328.131 436.708C328.043 436.932 327.907 437.14 327.723 437.332C327.547 437.524 327.323 437.716 327.051 437.908C326.779 438.092 326.463 438.296 326.103 438.52C325.807 438.696 325.523 438.884 325.251 439.084C324.979 439.284 324.735 439.516 324.519 439.78C324.303 440.044 324.123 440.356 323.979 440.716C323.843 441.068 323.755 441.496 323.715 442H329.271V441.1H324.903C324.951 440.836 325.051 440.604 325.203 440.404C325.363 440.196 325.551 440.004 325.767 439.828C325.991 439.652 326.235 439.488 326.499 439.336C326.763 439.176 327.027 439.016 327.291 438.856C327.555 438.688 327.811 438.512 328.059 438.328C328.307 438.144 328.527 437.94 328.719 437.716C328.911 437.484 329.063 437.224 329.175 436.936C329.295 436.648 329.355 436.316 329.355 435.94C329.355 435.54 329.283 435.188 329.139 434.884C329.003 434.58 328.815 434.328 328.575 434.128C328.335 433.92 328.051 433.764 327.723 433.66C327.403 433.548 327.059 433.492 326.691 433.492C326.243 433.492 325.843 433.568 325.491 433.72C325.139 433.872 324.843 434.084 324.603 434.356C324.371 434.62 324.199 434.936 324.087 435.304C323.975 435.672 323.931 436.072 323.955 436.504ZM332.108 437.812C332.108 437.604 332.108 437.376 332.108 437.128C332.116 436.872 332.136 436.62 332.168 436.372C332.208 436.116 332.26 435.868 332.324 435.628C332.396 435.388 332.496 435.18 332.624 435.004C332.76 434.82 332.928 434.672 333.128 434.56C333.328 434.448 333.572 434.392 333.86 434.392C334.148 434.392 334.392 434.448 334.592 434.56C334.792 434.672 334.956 434.82 335.084 435.004C335.22 435.18 335.32 435.388 335.384 435.628C335.456 435.868 335.508 436.116 335.54 436.372C335.58 436.62 335.6 436.872 335.6 437.128C335.608 437.376 335.612 437.604 335.612 437.812C335.612 438.132 335.6 438.492 335.576 438.892C335.56 439.284 335.496 439.656 335.384 440.008C335.28 440.352 335.108 440.644 334.868 440.884C334.628 441.124 334.292 441.244 333.86 441.244C333.428 441.244 333.092 441.124 332.852 440.884C332.612 440.644 332.436 440.352 332.324 440.008C332.22 439.656 332.156 439.284 332.132 438.892C332.116 438.492 332.108 438.132 332.108 437.812ZM331.028 437.824C331.028 438.136 331.036 438.46 331.052 438.796C331.068 439.132 331.108 439.46 331.172 439.78C331.236 440.1 331.328 440.404 331.448 440.692C331.568 440.972 331.732 441.22 331.94 441.436C332.148 441.652 332.408 441.824 332.72 441.952C333.04 442.072 333.42 442.132 333.86 442.132C334.308 442.132 334.688 442.072 335 441.952C335.312 441.824 335.572 441.652 335.78 441.436C335.988 441.22 336.152 440.972 336.272 440.692C336.392 440.404 336.484 440.1 336.548 439.78C336.612 439.46 336.652 439.132 336.668 438.796C336.684 438.46 336.692 438.136 336.692 437.824C336.692 437.512 336.684 437.188 336.668 436.852C336.652 436.516 336.612 436.188 336.548 435.868C336.484 435.548 336.392 435.244 336.272 434.956C336.152 434.668 335.988 434.416 335.78 434.2C335.572 433.984 335.308 433.812 334.988 433.684C334.676 433.556 334.3 433.492 333.86 433.492C333.42 433.492 333.04 433.556 332.72 433.684C332.408 433.812 332.148 433.984 331.94 434.2C331.732 434.416 331.568 434.668 331.448 434.956C331.328 435.244 331.236 435.548 331.172 435.868C331.108 436.188 331.068 436.516 331.052 436.852C331.036 437.188 331.028 437.512 331.028 437.824ZM338.148 436.504H339.168C339.16 436.248 339.184 435.996 339.24 435.748C339.304 435.492 339.404 435.264 339.54 435.064C339.676 434.864 339.848 434.704 340.056 434.584C340.272 434.456 340.528 434.392 340.824 434.392C341.048 434.392 341.26 434.428 341.46 434.5C341.66 434.572 341.832 434.676 341.976 434.812C342.128 434.948 342.248 435.112 342.336 435.304C342.424 435.488 342.468 435.696 342.468 435.928C342.468 436.224 342.42 436.484 342.324 436.708C342.236 436.932 342.1 437.14 341.916 437.332C341.74 437.524 341.516 437.716 341.244 437.908C340.972 438.092 340.656 438.296 340.296 438.52C340 438.696 339.716 438.884 339.444 439.084C339.172 439.284 338.928 439.516 338.712 439.78C338.496 440.044 338.316 440.356 338.172 440.716C338.036 441.068 337.948 441.496 337.908 442H343.464V441.1H339.096C339.144 440.836 339.244 440.604 339.396 440.404C339.556 440.196 339.744 440.004 339.96 439.828C340.184 439.652 340.428 439.488 340.692 439.336C340.956 439.176 341.22 439.016 341.484 438.856C341.748 438.688 342.004 438.512 342.252 438.328C342.5 438.144 342.72 437.94 342.912 437.716C343.104 437.484 343.256 437.224 343.368 436.936C343.488 436.648 343.548 436.316 343.548 435.94C343.548 435.54 343.476 435.188 343.332 434.884C343.196 434.58 343.008 434.328 342.768 434.128C342.528 433.92 342.244 433.764 341.916 433.66C341.596 433.548 341.252 433.492 340.884 433.492C340.436 433.492 340.036 433.568 339.684 433.72C339.332 433.872 339.036 434.084 338.796 434.356C338.564 434.62 338.392 434.936 338.28 435.304C338.168 435.672 338.124 436.072 338.148 436.504ZM348.989 442V433.492H348.209C348.153 433.812 348.049 434.076 347.897 434.284C347.745 434.492 347.557 434.656 347.333 434.776C347.117 434.896 346.873 434.98 346.601 435.028C346.329 435.068 346.049 435.088 345.761 435.088V435.904H347.969V442H348.989ZM352.809 440.668V442H354.141V440.668H352.809ZM357.166 437.812C357.166 437.604 357.166 437.376 357.166 437.128C357.174 436.872 357.194 436.62 357.226 436.372C357.266 436.116 357.318 435.868 357.382 435.628C357.454 435.388 357.554 435.18 357.682 435.004C357.818 434.82 357.986 434.672 358.186 434.56C358.386 434.448 358.63 434.392 358.918 434.392C359.206 434.392 359.45 434.448 359.65 434.56C359.85 434.672 360.014 434.82 360.142 435.004C360.278 435.18 360.378 435.388 360.442 435.628C360.514 435.868 360.566 436.116 360.598 436.372C360.638 436.62 360.658 436.872 360.658 437.128C360.666 437.376 360.67 437.604 360.67 437.812C360.67 438.132 360.658 438.492 360.634 438.892C360.618 439.284 360.554 439.656 360.442 440.008C360.338 440.352 360.166 440.644 359.926 440.884C359.686 441.124 359.35 441.244 358.918 441.244C358.486 441.244 358.15 441.124 357.91 440.884C357.67 440.644 357.494 440.352 357.382 440.008C357.278 439.656 357.214 439.284 357.19 438.892C357.174 438.492 357.166 438.132 357.166 437.812ZM356.086 437.824C356.086 438.136 356.094 438.46 356.11 438.796C356.126 439.132 356.166 439.46 356.23 439.78C356.294 440.1 356.386 440.404 356.506 440.692C356.626 440.972 356.79 441.22 356.998 441.436C357.206 441.652 357.466 441.824 357.778 441.952C358.098 442.072 358.478 442.132 358.918 442.132C359.366 442.132 359.746 442.072 360.058 441.952C360.37 441.824 360.63 441.652 360.838 441.436C361.046 441.22 361.21 440.972 361.33 440.692C361.45 440.404 361.542 440.1 361.606 439.78C361.67 439.46 361.71 439.132 361.726 438.796C361.742 438.46 361.75 438.136 361.75 437.824C361.75 437.512 361.742 437.188 361.726 436.852C361.71 436.516 361.67 436.188 361.606 435.868C361.542 435.548 361.45 435.244 361.33 434.956C361.21 434.668 361.046 434.416 360.838 434.2C360.63 433.984 360.366 433.812 360.046 433.684C359.734 433.556 359.358 433.492 358.918 433.492C358.478 433.492 358.098 433.556 357.778 433.684C357.466 433.812 357.206 433.984 356.998 434.2C356.79 434.416 356.626 434.668 356.506 434.956C356.386 435.244 356.294 435.548 356.23 435.868C356.166 436.188 356.126 436.516 356.11 436.852C356.094 437.188 356.086 437.512 356.086 437.824ZM366.95 442V433.492H366.17C366.114 433.812 366.01 434.076 365.858 434.284C365.706 434.492 365.518 434.656 365.294 434.776C365.078 434.896 364.834 434.98 364.562 435.028C364.29 435.068 364.01 435.088 363.722 435.088V435.904H365.93V442H366.95ZM370.771 440.668V442H372.103V440.668H370.771ZM374.071 436.504H375.091C375.083 436.248 375.107 435.996 375.163 435.748C375.227 435.492 375.327 435.264 375.463 435.064C375.599 434.864 375.771 434.704 375.979 434.584C376.195 434.456 376.451 434.392 376.747 434.392C376.971 434.392 377.183 434.428 377.383 434.5C377.583 434.572 377.755 434.676 377.899 434.812C378.051 434.948 378.171 435.112 378.259 435.304C378.347 435.488 378.391 435.696 378.391 435.928C378.391 436.224 378.343 436.484 378.247 436.708C378.159 436.932 378.023 437.14 377.839 437.332C377.663 437.524 377.439 437.716 377.167 437.908C376.895 438.092 376.579 438.296 376.219 438.52C375.923 438.696 375.639 438.884 375.367 439.084C375.095 439.284 374.851 439.516 374.635 439.78C374.419 440.044 374.239 440.356 374.095 440.716C373.959 441.068 373.871 441.496 373.831 442H379.387V441.1H375.019C375.067 440.836 375.167 440.604 375.319 440.404C375.479 440.196 375.667 440.004 375.883 439.828C376.107 439.652 376.351 439.488 376.615 439.336C376.879 439.176 377.143 439.016 377.407 438.856C377.671 438.688 377.927 438.512 378.175 438.328C378.423 438.144 378.643 437.94 378.835 437.716C379.027 437.484 379.179 437.224 379.291 436.936C379.411 436.648 379.471 436.316 379.471 435.94C379.471 435.54 379.399 435.188 379.255 434.884C379.119 434.58 378.931 434.328 378.691 434.128C378.451 433.92 378.167 433.764 377.839 433.66C377.519 433.548 377.175 433.492 376.807 433.492C376.359 433.492 375.959 433.568 375.607 433.72C375.255 433.872 374.959 434.084 374.719 434.356C374.487 434.62 374.315 434.936 374.203 435.304C374.091 435.672 374.047 436.072 374.071 436.504ZM386.748 434.512V433.636H381.24V434.596H385.704C385.256 435.068 384.836 435.584 384.444 436.144C384.06 436.704 383.72 437.3 383.424 437.932C383.128 438.556 382.884 439.212 382.692 439.9C382.508 440.58 382.392 441.28 382.344 442H383.484C383.524 441.336 383.636 440.652 383.82 439.948C384.004 439.244 384.24 438.56 384.528 437.896C384.824 437.232 385.16 436.608 385.536 436.024C385.912 435.44 386.316 434.936 386.748 434.512Z" fill="#707070"/>
<path d="M132.328 436.504H133.348C133.34 436.248 133.364 435.996 133.42 435.748C133.484 435.492 133.584 435.264 133.72 435.064C133.856 434.864 134.028 434.704 134.236 434.584C134.452 434.456 134.708 434.392 135.004 434.392C135.228 434.392 135.44 434.428 135.64 434.5C135.84 434.572 136.012 434.676 136.156 434.812C136.308 434.948 136.428 435.112 136.516 435.304C136.604 435.488 136.648 435.696 136.648 435.928C136.648 436.224 136.6 436.484 136.504 436.708C136.416 436.932 136.28 437.14 136.096 437.332C135.92 437.524 135.696 437.716 135.424 437.908C135.152 438.092 134.836 438.296 134.476 438.52C134.18 438.696 133.896 438.884 133.624 439.084C133.352 439.284 133.108 439.516 132.892 439.78C132.676 440.044 132.496 440.356 132.352 440.716C132.216 441.068 132.128 441.496 132.088 442H137.644V441.1H133.276C133.324 440.836 133.424 440.604 133.576 440.404C133.736 440.196 133.924 440.004 134.14 439.828C134.364 439.652 134.608 439.488 134.872 439.336C135.136 439.176 135.4 439.016 135.664 438.856C135.928 438.688 136.184 438.512 136.432 438.328C136.68 438.144 136.9 437.94 137.092 437.716C137.284 437.484 137.436 437.224 137.548 436.936C137.668 436.648 137.728 436.316 137.728 435.94C137.728 435.54 137.656 435.188 137.512 434.884C137.376 434.58 137.188 434.328 136.948 434.128C136.708 433.92 136.424 433.764 136.096 433.66C135.776 433.548 135.432 433.492 135.064 433.492C134.616 433.492 134.216 433.568 133.864 433.72C133.512 433.872 133.216 434.084 132.976 434.356C132.744 434.62 132.572 434.936 132.46 435.304C132.348 435.672 132.304 436.072 132.328 436.504ZM140.48 437.812C140.48 437.604 140.48 437.376 140.48 437.128C140.488 436.872 140.508 436.62 140.54 436.372C140.58 436.116 140.632 435.868 140.696 435.628C140.768 435.388 140.868 435.18 140.996 435.004C141.132 434.82 141.3 434.672 141.5 434.56C141.7 434.448 141.944 434.392 142.232 434.392C142.52 434.392 142.764 434.448 142.964 434.56C143.164 434.672 143.328 434.82 143.456 435.004C143.592 435.18 143.692 435.388 143.756 435.628C143.828 435.868 143.88 436.116 143.912 436.372C143.952 436.62 143.972 436.872 143.972 437.128C143.98 437.376 143.984 437.604 143.984 437.812C143.984 438.132 143.972 438.492 143.948 438.892C143.932 439.284 143.868 439.656 143.756 440.008C143.652 440.352 143.48 440.644 143.24 440.884C143 441.124 142.664 441.244 142.232 441.244C141.8 441.244 141.464 441.124 141.224 440.884C140.984 440.644 140.808 440.352 140.696 440.008C140.592 439.656 140.528 439.284 140.504 438.892C140.488 438.492 140.48 438.132 140.48 437.812ZM139.4 437.824C139.4 438.136 139.408 438.46 139.424 438.796C139.44 439.132 139.48 439.46 139.544 439.78C139.608 440.1 139.7 440.404 139.82 440.692C139.94 440.972 140.104 441.22 140.312 441.436C140.52 441.652 140.78 441.824 141.092 441.952C141.412 442.072 141.792 442.132 142.232 442.132C142.68 442.132 143.06 442.072 143.372 441.952C143.684 441.824 143.944 441.652 144.152 441.436C144.36 441.22 144.524 440.972 144.644 440.692C144.764 440.404 144.856 440.1 144.92 439.78C144.984 439.46 145.024 439.132 145.04 438.796C145.056 438.46 145.064 438.136 145.064 437.824C145.064 437.512 145.056 437.188 145.04 436.852C145.024 436.516 144.984 436.188 144.92 435.868C144.856 435.548 144.764 435.244 144.644 434.956C144.524 434.668 144.36 434.416 144.152 434.2C143.944 433.984 143.68 433.812 143.36 433.684C143.048 433.556 142.672 433.492 142.232 433.492C141.792 433.492 141.412 433.556 141.092 433.684C140.78 433.812 140.52 433.984 140.312 434.2C140.104 434.416 139.94 434.668 139.82 434.956C139.7 435.244 139.608 435.548 139.544 435.868C139.48 436.188 139.44 436.516 139.424 436.852C139.408 437.188 139.4 437.512 139.4 437.824ZM146.521 436.504H147.541C147.533 436.248 147.557 435.996 147.613 435.748C147.677 435.492 147.777 435.264 147.913 435.064C148.049 434.864 148.221 434.704 148.429 434.584C148.645 434.456 148.901 434.392 149.197 434.392C149.421 434.392 149.633 434.428 149.833 434.5C150.033 434.572 150.205 434.676 150.349 434.812C150.501 434.948 150.621 435.112 150.709 435.304C150.797 435.488 150.841 435.696 150.841 435.928C150.841 436.224 150.793 436.484 150.697 436.708C150.609 436.932 150.473 437.14 150.289 437.332C150.113 437.524 149.889 437.716 149.617 437.908C149.345 438.092 149.029 438.296 148.669 438.52C148.373 438.696 148.089 438.884 147.817 439.084C147.545 439.284 147.301 439.516 147.085 439.78C146.869 440.044 146.689 440.356 146.545 440.716C146.409 441.068 146.321 441.496 146.281 442H151.837V441.1H147.469C147.517 440.836 147.617 440.604 147.769 440.404C147.929 440.196 148.117 440.004 148.333 439.828C148.557 439.652 148.801 439.488 149.065 439.336C149.329 439.176 149.593 439.016 149.857 438.856C150.121 438.688 150.377 438.512 150.625 438.328C150.873 438.144 151.093 437.94 151.285 437.716C151.477 437.484 151.629 437.224 151.741 436.936C151.861 436.648 151.921 436.316 151.921 435.94C151.921 435.54 151.849 435.188 151.705 434.884C151.569 434.58 151.381 434.328 151.141 434.128C150.901 433.92 150.617 433.764 150.289 433.66C149.969 433.548 149.625 433.492 149.257 433.492C148.809 433.492 148.409 433.568 148.057 433.72C147.705 433.872 147.409 434.084 147.169 434.356C146.937 434.62 146.765 434.936 146.653 435.304C146.541 435.672 146.497 436.072 146.521 436.504ZM157.361 442V433.492H156.581C156.525 433.812 156.421 434.076 156.269 434.284C156.117 434.492 155.929 434.656 155.705 434.776C155.489 434.896 155.245 434.98 154.973 435.028C154.701 435.068 154.421 435.088 154.133 435.088V435.904H156.341V442H157.361ZM161.182 440.668V442H162.514V440.668H161.182ZM165.538 437.812C165.538 437.604 165.538 437.376 165.538 437.128C165.546 436.872 165.566 436.62 165.598 436.372C165.638 436.116 165.69 435.868 165.754 435.628C165.826 435.388 165.926 435.18 166.054 435.004C166.19 434.82 166.358 434.672 166.558 434.56C166.758 434.448 167.002 434.392 167.29 434.392C167.578 434.392 167.822 434.448 168.022 434.56C168.222 434.672 168.386 434.82 168.514 435.004C168.65 435.18 168.75 435.388 168.814 435.628C168.886 435.868 168.938 436.116 168.97 436.372C169.01 436.62 169.03 436.872 169.03 437.128C169.038 437.376 169.042 437.604 169.042 437.812C169.042 438.132 169.03 438.492 169.006 438.892C168.99 439.284 168.926 439.656 168.814 440.008C168.71 440.352 168.538 440.644 168.298 440.884C168.058 441.124 167.722 441.244 167.29 441.244C166.858 441.244 166.522 441.124 166.282 440.884C166.042 440.644 165.866 440.352 165.754 440.008C165.65 439.656 165.586 439.284 165.562 438.892C165.546 438.492 165.538 438.132 165.538 437.812ZM164.458 437.824C164.458 438.136 164.466 438.46 164.482 438.796C164.498 439.132 164.538 439.46 164.602 439.78C164.666 440.1 164.758 440.404 164.878 440.692C164.998 440.972 165.162 441.22 165.37 441.436C165.578 441.652 165.838 441.824 166.15 441.952C166.47 442.072 166.85 442.132 167.29 442.132C167.738 442.132 168.118 442.072 168.43 441.952C168.742 441.824 169.002 441.652 169.21 441.436C169.418 441.22 169.582 440.972 169.702 440.692C169.822 440.404 169.914 440.1 169.978 439.78C170.042 439.46 170.082 439.132 170.098 438.796C170.114 438.46 170.122 438.136 170.122 437.824C170.122 437.512 170.114 437.188 170.098 436.852C170.082 436.516 170.042 436.188 169.978 435.868C169.914 435.548 169.822 435.244 169.702 434.956C169.582 434.668 169.418 434.416 169.21 434.2C169.002 433.984 168.738 433.812 168.418 433.684C168.106 433.556 167.73 433.492 167.29 433.492C166.85 433.492 166.47 433.556 166.15 433.684C165.838 433.812 165.578 433.984 165.37 434.2C165.162 434.416 164.998 434.668 164.878 434.956C164.758 435.244 164.666 435.548 164.602 435.868C164.538 436.188 164.498 436.516 164.482 436.852C164.466 437.188 164.458 437.512 164.458 437.824ZM175.323 442V433.492H174.543C174.487 433.812 174.383 434.076 174.231 434.284C174.079 434.492 173.891 434.656 173.667 434.776C173.451 434.896 173.207 434.98 172.935 435.028C172.663 435.068 172.383 435.088 172.095 435.088V435.904H174.303V442H175.323ZM179.143 440.668V442H180.475V440.668H179.143ZM182.444 436.504H183.464C183.456 436.248 183.48 435.996 183.536 435.748C183.6 435.492 183.7 435.264 183.836 435.064C183.972 434.864 184.144 434.704 184.352 434.584C184.568 434.456 184.824 434.392 185.12 434.392C185.344 434.392 185.556 434.428 185.756 434.5C185.956 434.572 186.128 434.676 186.272 434.812C186.424 434.948 186.544 435.112 186.632 435.304C186.72 435.488 186.764 435.696 186.764 435.928C186.764 436.224 186.716 436.484 186.62 436.708C186.532 436.932 186.396 437.14 186.212 437.332C186.036 437.524 185.812 437.716 185.54 437.908C185.268 438.092 184.952 438.296 184.592 438.52C184.296 438.696 184.012 438.884 183.74 439.084C183.468 439.284 183.224 439.516 183.008 439.78C182.792 440.044 182.612 440.356 182.468 440.716C182.332 441.068 182.244 441.496 182.204 442H187.76V441.1H183.392C183.44 440.836 183.54 440.604 183.692 440.404C183.852 440.196 184.04 440.004 184.256 439.828C184.48 439.652 184.724 439.488 184.988 439.336C185.252 439.176 185.516 439.016 185.78 438.856C186.044 438.688 186.3 438.512 186.548 438.328C186.796 438.144 187.016 437.94 187.208 437.716C187.4 437.484 187.552 437.224 187.664 436.936C187.784 436.648 187.844 436.316 187.844 435.94C187.844 435.54 187.772 435.188 187.628 434.884C187.492 434.58 187.304 434.328 187.064 434.128C186.824 433.92 186.54 433.764 186.212 433.66C185.892 433.548 185.548 433.492 185.18 433.492C184.732 433.492 184.332 433.568 183.98 433.72C183.628 433.872 183.332 434.084 183.092 434.356C182.86 434.62 182.688 434.936 182.576 435.304C182.464 435.672 182.42 436.072 182.444 436.504ZM193.98 435.664H195C194.936 434.96 194.696 434.424 194.28 434.056C193.864 433.68 193.304 433.492 192.6 433.492C191.992 433.492 191.488 433.62 191.088 433.876C190.688 434.132 190.368 434.472 190.128 434.896C189.888 435.32 189.716 435.808 189.612 436.36C189.516 436.904 189.468 437.468 189.468 438.052C189.468 438.5 189.5 438.964 189.564 439.444C189.636 439.924 189.776 440.364 189.984 440.764C190.192 441.164 190.488 441.492 190.872 441.748C191.256 442.004 191.764 442.132 192.396 442.132C192.932 442.132 193.38 442.044 193.74 441.868C194.108 441.684 194.4 441.456 194.616 441.184C194.84 440.904 195 440.596 195.096 440.26C195.192 439.924 195.24 439.6 195.24 439.288C195.24 438.896 195.18 438.532 195.06 438.196C194.94 437.86 194.768 437.568 194.544 437.32C194.328 437.072 194.056 436.88 193.728 436.744C193.408 436.6 193.044 436.528 192.636 436.528C192.172 436.528 191.76 436.616 191.4 436.792C191.048 436.968 190.752 437.252 190.512 437.644L190.488 437.62C190.496 437.292 190.528 436.94 190.584 436.564C190.64 436.188 190.74 435.84 190.884 435.52C191.036 435.192 191.244 434.924 191.508 434.716C191.772 434.5 192.12 434.392 192.552 434.392C192.96 434.392 193.288 434.508 193.536 434.74C193.784 434.972 193.932 435.28 193.98 435.664ZM192.444 437.428C192.732 437.428 192.984 437.48 193.2 437.584C193.416 437.688 193.596 437.828 193.74 438.004C193.884 438.172 193.988 438.376 194.052 438.616C194.124 438.848 194.16 439.096 194.16 439.36C194.16 439.608 194.12 439.848 194.04 440.08C193.968 440.304 193.86 440.504 193.716 440.68C193.572 440.856 193.392 440.996 193.176 441.1C192.968 441.196 192.724 441.244 192.444 441.244C192.164 441.244 191.912 441.196 191.688 441.1C191.472 440.996 191.288 440.86 191.136 440.692C190.992 440.524 190.88 440.324 190.8 440.092C190.72 439.86 190.68 439.612 190.68 439.348C190.68 439.084 190.716 438.836 190.788 438.604C190.868 438.364 190.984 438.16 191.136 437.992C191.288 437.816 191.472 437.68 191.688 437.584C191.904 437.48 192.156 437.428 192.444 437.428Z" fill="#707070"/>
<path d="M488.841 436.504H489.861C489.853 436.248 489.877 435.996 489.933 435.748C489.997 435.492 490.097 435.264 490.233 435.064C490.369 434.864 490.541 434.704 490.749 434.584C490.965 434.456 491.221 434.392 491.517 434.392C491.741 434.392 491.953 434.428 492.153 434.5C492.353 434.572 492.525 434.676 492.669 434.812C492.821 434.948 492.941 435.112 493.029 435.304C493.117 435.488 493.161 435.696 493.161 435.928C493.161 436.224 493.113 436.484 493.017 436.708C492.929 436.932 492.793 437.14 492.609 437.332C492.433 437.524 492.209 437.716 491.937 437.908C491.665 438.092 491.349 438.296 490.989 438.52C490.693 438.696 490.409 438.884 490.137 439.084C489.865 439.284 489.621 439.516 489.405 439.78C489.189 440.044 489.009 440.356 488.865 440.716C488.729 441.068 488.641 441.496 488.601 442H494.157V441.1H489.789C489.837 440.836 489.937 440.604 490.089 440.404C490.249 440.196 490.437 440.004 490.653 439.828C490.877 439.652 491.121 439.488 491.385 439.336C491.649 439.176 491.913 439.016 492.177 438.856C492.441 438.688 492.697 438.512 492.945 438.328C493.193 438.144 493.413 437.94 493.605 437.716C493.797 437.484 493.949 437.224 494.061 436.936C494.181 436.648 494.241 436.316 494.241 435.94C494.241 435.54 494.169 435.188 494.025 434.884C493.889 434.58 493.701 434.328 493.461 434.128C493.221 433.92 492.937 433.764 492.609 433.66C492.289 433.548 491.945 433.492 491.577 433.492C491.129 433.492 490.729 433.568 490.377 433.72C490.025 433.872 489.729 434.084 489.489 434.356C489.257 434.62 489.085 434.936 488.973 435.304C488.861 435.672 488.817 436.072 488.841 436.504ZM496.993 437.812C496.993 437.604 496.993 437.376 496.993 437.128C497.001 436.872 497.021 436.62 497.053 436.372C497.093 436.116 497.145 435.868 497.209 435.628C497.281 435.388 497.381 435.18 497.509 435.004C497.645 434.82 497.813 434.672 498.013 434.56C498.213 434.448 498.457 434.392 498.745 434.392C499.033 434.392 499.277 434.448 499.477 434.56C499.677 434.672 499.841 434.82 499.969 435.004C500.105 435.18 500.205 435.388 500.269 435.628C500.341 435.868 500.393 436.116 500.425 436.372C500.465 436.62 500.485 436.872 500.485 437.128C500.493 437.376 500.497 437.604 500.497 437.812C500.497 438.132 500.485 438.492 500.461 438.892C500.445 439.284 500.381 439.656 500.269 440.008C500.165 440.352 499.993 440.644 499.753 440.884C499.513 441.124 499.177 441.244 498.745 441.244C498.313 441.244 497.977 441.124 497.737 440.884C497.497 440.644 497.321 440.352 497.209 440.008C497.105 439.656 497.041 439.284 497.017 438.892C497.001 438.492 496.993 438.132 496.993 437.812ZM495.913 437.824C495.913 438.136 495.921 438.46 495.937 438.796C495.953 439.132 495.993 439.46 496.057 439.78C496.121 440.1 496.213 440.404 496.333 440.692C496.453 440.972 496.617 441.22 496.825 441.436C497.033 441.652 497.293 441.824 497.605 441.952C497.925 442.072 498.305 442.132 498.745 442.132C499.193 442.132 499.573 442.072 499.885 441.952C500.197 441.824 500.457 441.652 500.665 441.436C500.873 441.22 501.037 440.972 501.157 440.692C501.277 440.404 501.369 440.1 501.433 439.78C501.497 439.46 501.537 439.132 501.553 438.796C501.569 438.46 501.577 438.136 501.577 437.824C501.577 437.512 501.569 437.188 501.553 436.852C501.537 436.516 501.497 436.188 501.433 435.868C501.369 435.548 501.277 435.244 501.157 434.956C501.037 434.668 500.873 434.416 500.665 434.2C500.457 433.984 500.193 433.812 499.873 433.684C499.561 433.556 499.185 433.492 498.745 433.492C498.305 433.492 497.925 433.556 497.605 433.684C497.293 433.812 497.033 433.984 496.825 434.2C496.617 434.416 496.453 434.668 496.333 434.956C496.213 435.244 496.121 435.548 496.057 435.868C495.993 436.188 495.953 436.516 495.937 436.852C495.921 437.188 495.913 437.512 495.913 437.824ZM503.034 436.504H504.054C504.046 436.248 504.07 435.996 504.126 435.748C504.19 435.492 504.29 435.264 504.426 435.064C504.562 434.864 504.734 434.704 504.942 434.584C505.158 434.456 505.414 434.392 505.71 434.392C505.934 434.392 506.146 434.428 506.346 434.5C506.546 434.572 506.718 434.676 506.862 434.812C507.014 434.948 507.134 435.112 507.222 435.304C507.31 435.488 507.354 435.696 507.354 435.928C507.354 436.224 507.306 436.484 507.21 436.708C507.122 436.932 506.986 437.14 506.802 437.332C506.626 437.524 506.402 437.716 506.13 437.908C505.858 438.092 505.542 438.296 505.182 438.52C504.886 438.696 504.602 438.884 504.33 439.084C504.058 439.284 503.814 439.516 503.598 439.78C503.382 440.044 503.202 440.356 503.058 440.716C502.922 441.068 502.834 441.496 502.794 442H508.35V441.1H503.982C504.03 440.836 504.13 440.604 504.282 440.404C504.442 440.196 504.63 440.004 504.846 439.828C505.07 439.652 505.314 439.488 505.578 439.336C505.842 439.176 506.106 439.016 506.37 438.856C506.634 438.688 506.89 438.512 507.138 438.328C507.386 438.144 507.606 437.94 507.798 437.716C507.99 437.484 508.142 437.224 508.254 436.936C508.374 436.648 508.434 436.316 508.434 435.94C508.434 435.54 508.362 435.188 508.218 434.884C508.082 434.58 507.894 434.328 507.654 434.128C507.414 433.92 507.13 433.764 506.802 433.66C506.482 433.548 506.138 433.492 505.77 433.492C505.322 433.492 504.922 433.568 504.57 433.72C504.218 433.872 503.922 434.084 503.682 434.356C503.45 434.62 503.278 434.936 503.166 435.304C503.054 435.672 503.01 436.072 503.034 436.504ZM513.875 442V433.492H513.095C513.039 433.812 512.935 434.076 512.783 434.284C512.631 434.492 512.443 434.656 512.219 434.776C512.003 434.896 511.759 434.98 511.487 435.028C511.215 435.068 510.935 435.088 510.647 435.088V435.904H512.855V442H513.875ZM517.695 440.668V442H519.027V440.668H517.695ZM522.051 437.812C522.051 437.604 522.051 437.376 522.051 437.128C522.059 436.872 522.079 436.62 522.111 436.372C522.151 436.116 522.203 435.868 522.267 435.628C522.339 435.388 522.439 435.18 522.567 435.004C522.703 434.82 522.871 434.672 523.071 434.56C523.271 434.448 523.515 434.392 523.803 434.392C524.091 434.392 524.335 434.448 524.535 434.56C524.735 434.672 524.899 434.82 525.027 435.004C525.163 435.18 525.263 435.388 525.327 435.628C525.399 435.868 525.451 436.116 525.483 436.372C525.523 436.62 525.543 436.872 525.543 437.128C525.551 437.376 525.555 437.604 525.555 437.812C525.555 438.132 525.543 438.492 525.519 438.892C525.503 439.284 525.439 439.656 525.327 440.008C525.223 440.352 525.051 440.644 524.811 440.884C524.571 441.124 524.235 441.244 523.803 441.244C523.371 441.244 523.035 441.124 522.795 440.884C522.555 440.644 522.379 440.352 522.267 440.008C522.163 439.656 522.099 439.284 522.075 438.892C522.059 438.492 522.051 438.132 522.051 437.812ZM520.971 437.824C520.971 438.136 520.979 438.46 520.995 438.796C521.011 439.132 521.051 439.46 521.115 439.78C521.179 440.1 521.271 440.404 521.391 440.692C521.511 440.972 521.675 441.22 521.883 441.436C522.091 441.652 522.351 441.824 522.663 441.952C522.983 442.072 523.363 442.132 523.803 442.132C524.251 442.132 524.631 442.072 524.943 441.952C525.255 441.824 525.515 441.652 525.723 441.436C525.931 441.22 526.095 440.972 526.215 440.692C526.335 440.404 526.427 440.1 526.491 439.78C526.555 439.46 526.595 439.132 526.611 438.796C526.627 438.46 526.635 438.136 526.635 437.824C526.635 437.512 526.627 437.188 526.611 436.852C526.595 436.516 526.555 436.188 526.491 435.868C526.427 435.548 526.335 435.244 526.215 434.956C526.095 434.668 525.931 434.416 525.723 434.2C525.515 433.984 525.251 433.812 524.931 433.684C524.619 433.556 524.243 433.492 523.803 433.492C523.363 433.492 522.983 433.556 522.663 433.684C522.351 433.812 522.091 433.984 521.883 434.2C521.675 434.416 521.511 434.668 521.391 434.956C521.271 435.244 521.179 435.548 521.115 435.868C521.051 436.188 521.011 436.516 520.995 436.852C520.979 437.188 520.971 437.512 520.971 437.824ZM531.836 442V433.492H531.056C531 433.812 530.896 434.076 530.744 434.284C530.592 434.492 530.404 434.656 530.18 434.776C529.964 434.896 529.72 434.98 529.448 435.028C529.176 435.068 528.896 435.088 528.608 435.088V435.904H530.816V442H531.836ZM535.657 440.668V442H536.989V440.668H535.657ZM538.957 436.504H539.977C539.969 436.248 539.993 435.996 540.049 435.748C540.113 435.492 540.213 435.264 540.349 435.064C540.485 434.864 540.657 434.704 540.865 434.584C541.081 434.456 541.337 434.392 541.633 434.392C541.857 434.392 542.069 434.428 542.269 434.5C542.469 434.572 542.641 434.676 542.785 434.812C542.937 434.948 543.057 435.112 543.145 435.304C543.233 435.488 543.277 435.696 543.277 435.928C543.277 436.224 543.229 436.484 543.133 436.708C543.045 436.932 542.909 437.14 542.725 437.332C542.549 437.524 542.325 437.716 542.053 437.908C541.781 438.092 541.465 438.296 541.105 438.52C540.809 438.696 540.525 438.884 540.253 439.084C539.981 439.284 539.737 439.516 539.521 439.78C539.305 440.044 539.125 440.356 538.981 440.716C538.845 441.068 538.757 441.496 538.717 442H544.273V441.1H539.905C539.953 440.836 540.053 440.604 540.205 440.404C540.365 440.196 540.553 440.004 540.769 439.828C540.993 439.652 541.237 439.488 541.501 439.336C541.765 439.176 542.029 439.016 542.293 438.856C542.557 438.688 542.813 438.512 543.061 438.328C543.309 438.144 543.529 437.94 543.721 437.716C543.913 437.484 544.065 437.224 544.177 436.936C544.297 436.648 544.357 436.316 544.357 435.94C544.357 435.54 544.285 435.188 544.141 434.884C544.005 434.58 543.817 434.328 543.577 434.128C543.337 433.92 543.053 433.764 542.725 433.66C542.405 433.548 542.061 433.492 541.693 433.492C541.245 433.492 540.845 433.568 540.493 433.72C540.141 433.872 539.845 434.084 539.605 434.356C539.373 434.62 539.201 434.936 539.089 435.304C538.977 435.672 538.933 436.072 538.957 436.504ZM547.386 435.7C547.386 435.484 547.426 435.296 547.506 435.136C547.586 434.976 547.69 434.84 547.818 434.728C547.954 434.616 548.114 434.532 548.298 434.476C548.482 434.42 548.674 434.392 548.874 434.392C549.29 434.392 549.63 434.504 549.894 434.728C550.166 434.944 550.302 435.268 550.302 435.7C550.302 436.132 550.17 436.468 549.906 436.708C549.642 436.948 549.306 437.068 548.898 437.068C548.69 437.068 548.494 437.04 548.31 436.984C548.126 436.928 547.966 436.844 547.83 436.732C547.694 436.62 547.586 436.48 547.506 436.312C547.426 436.136 547.386 435.932 547.386 435.7ZM546.306 435.664C546.306 436.048 546.414 436.404 546.63 436.732C546.846 437.052 547.134 437.284 547.494 437.428C547.014 437.596 546.646 437.868 546.39 438.244C546.134 438.612 546.006 439.048 546.006 439.552C546.006 439.984 546.078 440.364 546.222 440.692C546.374 441.012 546.578 441.28 546.834 441.496C547.098 441.712 547.406 441.872 547.758 441.976C548.11 442.08 548.49 442.132 548.898 442.132C549.29 442.132 549.658 442.076 550.002 441.964C550.346 441.852 550.642 441.688 550.89 441.472C551.146 441.248 551.346 440.976 551.49 440.656C551.642 440.336 551.718 439.968 551.718 439.552C551.718 439.024 551.594 438.58 551.346 438.22C551.098 437.852 550.718 437.588 550.206 437.428C550.566 437.268 550.85 437.032 551.058 436.72C551.274 436.4 551.382 436.048 551.382 435.664C551.382 435.392 551.334 435.128 551.238 434.872C551.142 434.608 550.99 434.376 550.782 434.176C550.582 433.968 550.318 433.804 549.99 433.684C549.662 433.556 549.266 433.492 548.802 433.492C548.474 433.492 548.158 433.54 547.854 433.636C547.558 433.732 547.294 433.872 547.062 434.056C546.83 434.24 546.646 434.468 546.51 434.74C546.374 435.004 546.306 435.312 546.306 435.664ZM547.086 439.6C547.086 439.352 547.13 439.128 547.218 438.928C547.314 438.728 547.442 438.556 547.602 438.412C547.77 438.268 547.962 438.16 548.178 438.088C548.402 438.008 548.638 437.968 548.886 437.968C549.126 437.968 549.35 438.012 549.558 438.1C549.774 438.18 549.962 438.292 550.122 438.436C550.282 438.58 550.406 438.752 550.494 438.952C550.59 439.144 550.638 439.356 550.638 439.588C550.638 439.828 550.594 440.048 550.506 440.248C550.426 440.448 550.306 440.624 550.146 440.776C549.994 440.92 549.81 441.036 549.594 441.124C549.386 441.204 549.154 441.244 548.898 441.244C548.37 441.244 547.934 441.1 547.59 440.812C547.254 440.516 547.086 440.112 547.086 439.6Z" fill="#707070"/>
<path d="M653.727 436.504H654.747C654.739 436.248 654.763 435.996 654.819 435.748C654.883 435.492 654.983 435.264 655.119 435.064C655.255 434.864 655.427 434.704 655.635 434.584C655.851 434.456 656.107 434.392 656.403 434.392C656.627 434.392 656.839 434.428 657.039 434.5C657.239 434.572 657.411 434.676 657.555 434.812C657.707 434.948 657.827 435.112 657.915 435.304C658.003 435.488 658.047 435.696 658.047 435.928C658.047 436.224 657.999 436.484 657.903 436.708C657.815 436.932 657.679 437.14 657.495 437.332C657.319 437.524 657.095 437.716 656.823 437.908C656.551 438.092 656.235 438.296 655.875 438.52C655.579 438.696 655.295 438.884 655.023 439.084C654.751 439.284 654.507 439.516 654.291 439.78C654.075 440.044 653.895 440.356 653.751 440.716C653.615 441.068 653.527 441.496 653.487 442H659.043V441.1H654.675C654.723 440.836 654.823 440.604 654.975 440.404C655.135 440.196 655.323 440.004 655.539 439.828C655.763 439.652 656.007 439.488 656.271 439.336C656.535 439.176 656.799 439.016 657.063 438.856C657.327 438.688 657.583 438.512 657.831 438.328C658.079 438.144 658.299 437.94 658.491 437.716C658.683 437.484 658.835 437.224 658.947 436.936C659.067 436.648 659.127 436.316 659.127 435.94C659.127 435.54 659.055 435.188 658.911 434.884C658.775 434.58 658.587 434.328 658.347 434.128C658.107 433.92 657.823 433.764 657.495 433.66C657.175 433.548 656.831 433.492 656.463 433.492C656.015 433.492 655.615 433.568 655.263 433.72C654.911 433.872 654.615 434.084 654.375 434.356C654.143 434.62 653.971 434.936 653.859 435.304C653.747 435.672 653.703 436.072 653.727 436.504ZM661.879 437.812C661.879 437.604 661.879 437.376 661.879 437.128C661.887 436.872 661.907 436.62 661.939 436.372C661.979 436.116 662.031 435.868 662.095 435.628C662.167 435.388 662.267 435.18 662.395 435.004C662.531 434.82 662.699 434.672 662.899 434.56C663.099 434.448 663.343 434.392 663.631 434.392C663.919 434.392 664.163 434.448 664.363 434.56C664.563 434.672 664.727 434.82 664.855 435.004C664.991 435.18 665.091 435.388 665.155 435.628C665.227 435.868 665.279 436.116 665.311 436.372C665.351 436.62 665.371 436.872 665.371 437.128C665.379 437.376 665.383 437.604 665.383 437.812C665.383 438.132 665.371 438.492 665.347 438.892C665.331 439.284 665.267 439.656 665.155 440.008C665.051 440.352 664.879 440.644 664.639 440.884C664.399 441.124 664.063 441.244 663.631 441.244C663.199 441.244 662.863 441.124 662.623 440.884C662.383 440.644 662.207 440.352 662.095 440.008C661.991 439.656 661.927 439.284 661.903 438.892C661.887 438.492 661.879 438.132 661.879 437.812ZM660.799 437.824C660.799 438.136 660.807 438.46 660.823 438.796C660.839 439.132 660.879 439.46 660.943 439.78C661.007 440.1 661.099 440.404 661.219 440.692C661.339 440.972 661.503 441.22 661.711 441.436C661.919 441.652 662.179 441.824 662.491 441.952C662.811 442.072 663.191 442.132 663.631 442.132C664.079 442.132 664.459 442.072 664.771 441.952C665.083 441.824 665.343 441.652 665.551 441.436C665.759 441.22 665.923 440.972 666.043 440.692C666.163 440.404 666.255 440.1 666.319 439.78C666.383 439.46 666.423 439.132 666.439 438.796C666.455 438.46 666.463 438.136 666.463 437.824C666.463 437.512 666.455 437.188 666.439 436.852C666.423 436.516 666.383 436.188 666.319 435.868C666.255 435.548 666.163 435.244 666.043 434.956C665.923 434.668 665.759 434.416 665.551 434.2C665.343 433.984 665.079 433.812 664.759 433.684C664.447 433.556 664.071 433.492 663.631 433.492C663.191 433.492 662.811 433.556 662.491 433.684C662.179 433.812 661.919 433.984 661.711 434.2C661.503 434.416 661.339 434.668 661.219 434.956C661.099 435.244 661.007 435.548 660.943 435.868C660.879 436.188 660.839 436.516 660.823 436.852C660.807 437.188 660.799 437.512 660.799 437.824ZM667.92 436.504H668.94C668.932 436.248 668.956 435.996 669.012 435.748C669.076 435.492 669.176 435.264 669.312 435.064C669.448 434.864 669.62 434.704 669.828 434.584C670.044 434.456 670.3 434.392 670.596 434.392C670.82 434.392 671.032 434.428 671.232 434.5C671.432 434.572 671.604 434.676 671.748 434.812C671.9 434.948 672.02 435.112 672.108 435.304C672.196 435.488 672.24 435.696 672.24 435.928C672.24 436.224 672.192 436.484 672.096 436.708C672.008 436.932 671.872 437.14 671.688 437.332C671.512 437.524 671.288 437.716 671.016 437.908C670.744 438.092 670.428 438.296 670.068 438.52C669.772 438.696 669.488 438.884 669.216 439.084C668.944 439.284 668.7 439.516 668.484 439.78C668.268 440.044 668.088 440.356 667.944 440.716C667.808 441.068 667.72 441.496 667.68 442H673.236V441.1H668.868C668.916 440.836 669.016 440.604 669.168 440.404C669.328 440.196 669.516 440.004 669.732 439.828C669.956 439.652 670.2 439.488 670.464 439.336C670.728 439.176 670.992 439.016 671.256 438.856C671.52 438.688 671.776 438.512 672.024 438.328C672.272 438.144 672.492 437.94 672.684 437.716C672.876 437.484 673.028 437.224 673.14 436.936C673.26 436.648 673.32 436.316 673.32 435.94C673.32 435.54 673.248 435.188 673.104 434.884C672.968 434.58 672.78 434.328 672.54 434.128C672.3 433.92 672.016 433.764 671.688 433.66C671.368 433.548 671.024 433.492 670.656 433.492C670.208 433.492 669.808 433.568 669.456 433.72C669.104 433.872 668.808 434.084 668.568 434.356C668.336 434.62 668.164 434.936 668.052 435.304C667.94 435.672 667.896 436.072 667.92 436.504ZM678.76 442V433.492H677.98C677.924 433.812 677.82 434.076 677.668 434.284C677.516 434.492 677.328 434.656 677.104 434.776C676.888 434.896 676.644 434.98 676.372 435.028C676.1 435.068 675.82 435.088 675.532 435.088V435.904H677.74V442H678.76ZM682.581 440.668V442H683.913V440.668H682.581ZM686.937 437.812C686.937 437.604 686.937 437.376 686.937 437.128C686.945 436.872 686.965 436.62 686.997 436.372C687.037 436.116 687.089 435.868 687.153 435.628C687.225 435.388 687.325 435.18 687.453 435.004C687.589 434.82 687.757 434.672 687.957 434.56C688.157 434.448 688.401 434.392 688.689 434.392C688.977 434.392 689.221 434.448 689.421 434.56C689.621 434.672 689.785 434.82 689.913 435.004C690.049 435.18 690.149 435.388 690.213 435.628C690.285 435.868 690.337 436.116 690.369 436.372C690.409 436.62 690.429 436.872 690.429 437.128C690.437 437.376 690.441 437.604 690.441 437.812C690.441 438.132 690.429 438.492 690.405 438.892C690.389 439.284 690.325 439.656 690.213 440.008C690.109 440.352 689.937 440.644 689.697 440.884C689.457 441.124 689.121 441.244 688.689 441.244C688.257 441.244 687.921 441.124 687.681 440.884C687.441 440.644 687.265 440.352 687.153 440.008C687.049 439.656 686.985 439.284 686.961 438.892C686.945 438.492 686.937 438.132 686.937 437.812ZM685.857 437.824C685.857 438.136 685.865 438.46 685.881 438.796C685.897 439.132 685.937 439.46 686.001 439.78C686.065 440.1 686.157 440.404 686.277 440.692C686.397 440.972 686.561 441.22 686.769 441.436C686.977 441.652 687.237 441.824 687.549 441.952C687.869 442.072 688.249 442.132 688.689 442.132C689.137 442.132 689.517 442.072 689.829 441.952C690.141 441.824 690.401 441.652 690.609 441.436C690.817 441.22 690.981 440.972 691.101 440.692C691.221 440.404 691.313 440.1 691.377 439.78C691.441 439.46 691.481 439.132 691.497 438.796C691.513 438.46 691.521 438.136 691.521 437.824C691.521 437.512 691.513 437.188 691.497 436.852C691.481 436.516 691.441 436.188 691.377 435.868C691.313 435.548 691.221 435.244 691.101 434.956C690.981 434.668 690.817 434.416 690.609 434.2C690.401 433.984 690.137 433.812 689.817 433.684C689.505 433.556 689.129 433.492 688.689 433.492C688.249 433.492 687.869 433.556 687.549 433.684C687.237 433.812 686.977 433.984 686.769 434.2C686.561 434.416 686.397 434.668 686.277 434.956C686.157 435.244 686.065 435.548 686.001 435.868C685.937 436.188 685.897 436.516 685.881 436.852C685.865 437.188 685.857 437.512 685.857 437.824ZM696.722 442V433.492H695.942C695.886 433.812 695.782 434.076 695.63 434.284C695.478 434.492 695.29 434.656 695.066 434.776C694.85 434.896 694.606 434.98 694.334 435.028C694.062 435.068 693.782 435.088 693.494 435.088V435.904H695.702V442H696.722ZM700.542 440.668V442H701.874V440.668H700.542ZM703.843 436.504H704.863C704.855 436.248 704.879 435.996 704.935 435.748C704.999 435.492 705.099 435.264 705.235 435.064C705.371 434.864 705.543 434.704 705.751 434.584C705.967 434.456 706.223 434.392 706.519 434.392C706.743 434.392 706.955 434.428 707.155 434.5C707.355 434.572 707.527 434.676 707.671 434.812C707.823 434.948 707.943 435.112 708.031 435.304C708.119 435.488 708.163 435.696 708.163 435.928C708.163 436.224 708.115 436.484 708.019 436.708C707.931 436.932 707.795 437.14 707.611 437.332C707.435 437.524 707.211 437.716 706.939 437.908C706.667 438.092 706.351 438.296 705.991 438.52C705.695 438.696 705.411 438.884 705.139 439.084C704.867 439.284 704.623 439.516 704.407 439.78C704.191 440.044 704.011 440.356 703.867 440.716C703.731 441.068 703.643 441.496 703.603 442H709.159V441.1H704.791C704.839 440.836 704.939 440.604 705.091 440.404C705.251 440.196 705.439 440.004 705.655 439.828C705.879 439.652 706.123 439.488 706.387 439.336C706.651 439.176 706.915 439.016 707.179 438.856C707.443 438.688 707.699 438.512 707.947 438.328C708.195 438.144 708.415 437.94 708.607 437.716C708.799 437.484 708.951 437.224 709.063 436.936C709.183 436.648 709.243 436.316 709.243 435.94C709.243 435.54 709.171 435.188 709.027 434.884C708.891 434.58 708.703 434.328 708.463 434.128C708.223 433.92 707.939 433.764 707.611 433.66C707.291 433.548 706.947 433.492 706.579 433.492C706.131 433.492 705.731 433.568 705.379 433.72C705.027 433.872 704.731 434.084 704.491 434.356C704.259 434.62 704.087 434.936 703.975 435.304C703.863 435.672 703.819 436.072 703.843 436.504ZM712.019 439.948H710.999C711.063 440.684 711.331 441.232 711.803 441.592C712.275 441.952 712.867 442.132 713.579 442.132C714.611 442.132 715.359 441.74 715.823 440.956C716.295 440.164 716.531 439.032 716.531 437.56C716.531 436.752 716.451 436.088 716.291 435.568C716.139 435.04 715.931 434.624 715.667 434.32C715.403 434.016 715.095 433.804 714.743 433.684C714.391 433.556 714.015 433.492 713.615 433.492C713.207 433.492 712.831 433.56 712.487 433.696C712.143 433.832 711.847 434.024 711.599 434.272C711.351 434.512 711.159 434.804 711.023 435.148C710.887 435.484 710.819 435.856 710.819 436.264C710.819 436.68 710.875 437.064 710.987 437.416C711.107 437.768 711.279 438.068 711.503 438.316C711.735 438.564 712.019 438.76 712.355 438.904C712.691 439.04 713.075 439.108 713.507 439.108C713.923 439.108 714.307 439.004 714.659 438.796C715.011 438.58 715.283 438.292 715.475 437.932L715.499 437.956C715.467 439.068 715.295 439.896 714.983 440.44C714.671 440.976 714.203 441.244 713.579 441.244C713.171 441.244 712.819 441.132 712.523 440.908C712.227 440.684 712.059 440.364 712.019 439.948ZM715.319 436.336C715.319 436.584 715.279 436.824 715.199 437.056C715.119 437.28 715.003 437.48 714.851 437.656C714.699 437.824 714.515 437.96 714.299 438.064C714.083 438.16 713.843 438.208 713.579 438.208C713.331 438.208 713.103 438.16 712.895 438.064C712.695 437.96 712.519 437.824 712.367 437.656C712.223 437.488 712.107 437.296 712.019 437.08C711.939 436.864 711.899 436.64 711.899 436.408C711.899 436.144 711.927 435.892 711.983 435.652C712.047 435.412 712.143 435.2 712.271 435.016C712.407 434.824 712.579 434.672 712.787 434.56C713.003 434.448 713.263 434.392 713.567 434.392C713.855 434.392 714.107 434.444 714.323 434.548C714.539 434.652 714.719 434.796 714.863 434.98C715.015 435.156 715.127 435.36 715.199 435.592C715.279 435.824 715.319 436.072 715.319 436.336Z" fill="#707070"/>
<path d="M817.062 436.504H818.082C818.074 436.248 818.098 435.996 818.154 435.748C818.218 435.492 818.318 435.264 818.454 435.064C818.59 434.864 818.762 434.704 818.97 434.584C819.186 434.456 819.442 434.392 819.738 434.392C819.962 434.392 820.174 434.428 820.374 434.5C820.574 434.572 820.746 434.676 820.89 434.812C821.042 434.948 821.162 435.112 821.25 435.304C821.338 435.488 821.382 435.696 821.382 435.928C821.382 436.224 821.334 436.484 821.238 436.708C821.15 436.932 821.014 437.14 820.83 437.332C820.654 437.524 820.43 437.716 820.158 437.908C819.886 438.092 819.57 438.296 819.21 438.52C818.914 438.696 818.63 438.884 818.358 439.084C818.086 439.284 817.842 439.516 817.626 439.78C817.41 440.044 817.23 440.356 817.086 440.716C816.95 441.068 816.862 441.496 816.822 442H822.378V441.1H818.01C818.058 440.836 818.158 440.604 818.31 440.404C818.47 440.196 818.658 440.004 818.874 439.828C819.098 439.652 819.342 439.488 819.606 439.336C819.87 439.176 820.134 439.016 820.398 438.856C820.662 438.688 820.918 438.512 821.166 438.328C821.414 438.144 821.634 437.94 821.826 437.716C822.018 437.484 822.17 437.224 822.282 436.936C822.402 436.648 822.462 436.316 822.462 435.94C822.462 435.54 822.39 435.188 822.246 434.884C822.11 434.58 821.922 434.328 821.682 434.128C821.442 433.92 821.158 433.764 820.83 433.66C820.51 433.548 820.166 433.492 819.798 433.492C819.35 433.492 818.95 433.568 818.598 433.72C818.246 433.872 817.95 434.084 817.71 434.356C817.478 434.62 817.306 434.936 817.194 435.304C817.082 435.672 817.038 436.072 817.062 436.504ZM825.215 437.812C825.215 437.604 825.215 437.376 825.215 437.128C825.223 436.872 825.243 436.62 825.275 436.372C825.315 436.116 825.367 435.868 825.431 435.628C825.503 435.388 825.603 435.18 825.731 435.004C825.867 434.82 826.035 434.672 826.235 434.56C826.435 434.448 826.679 434.392 826.967 434.392C827.255 434.392 827.499 434.448 827.699 434.56C827.899 434.672 828.063 434.82 828.191 435.004C828.327 435.18 828.427 435.388 828.491 435.628C828.563 435.868 828.615 436.116 828.647 436.372C828.687 436.62 828.707 436.872 828.707 437.128C828.715 437.376 828.719 437.604 828.719 437.812C828.719 438.132 828.707 438.492 828.683 438.892C828.667 439.284 828.603 439.656 828.491 440.008C828.387 440.352 828.215 440.644 827.975 440.884C827.735 441.124 827.399 441.244 826.967 441.244C826.535 441.244 826.199 441.124 825.959 440.884C825.719 440.644 825.543 440.352 825.431 440.008C825.327 439.656 825.263 439.284 825.239 438.892C825.223 438.492 825.215 438.132 825.215 437.812ZM824.135 437.824C824.135 438.136 824.143 438.46 824.159 438.796C824.175 439.132 824.215 439.46 824.279 439.78C824.343 440.1 824.435 440.404 824.555 440.692C824.675 440.972 824.839 441.22 825.047 441.436C825.255 441.652 825.515 441.824 825.827 441.952C826.147 442.072 826.527 442.132 826.967 442.132C827.415 442.132 827.795 442.072 828.107 441.952C828.419 441.824 828.679 441.652 828.887 441.436C829.095 441.22 829.259 440.972 829.379 440.692C829.499 440.404 829.591 440.1 829.655 439.78C829.719 439.46 829.759 439.132 829.775 438.796C829.791 438.46 829.799 438.136 829.799 437.824C829.799 437.512 829.791 437.188 829.775 436.852C829.759 436.516 829.719 436.188 829.655 435.868C829.591 435.548 829.499 435.244 829.379 434.956C829.259 434.668 829.095 434.416 828.887 434.2C828.679 433.984 828.415 433.812 828.095 433.684C827.783 433.556 827.407 433.492 826.967 433.492C826.527 433.492 826.147 433.556 825.827 433.684C825.515 433.812 825.255 433.984 825.047 434.2C824.839 434.416 824.675 434.668 824.555 434.956C824.435 435.244 824.343 435.548 824.279 435.868C824.215 436.188 824.175 436.516 824.159 436.852C824.143 437.188 824.135 437.512 824.135 437.824ZM831.255 436.504H832.275C832.267 436.248 832.291 435.996 832.347 435.748C832.411 435.492 832.511 435.264 832.647 435.064C832.783 434.864 832.955 434.704 833.163 434.584C833.379 434.456 833.635 434.392 833.931 434.392C834.155 434.392 834.367 434.428 834.567 434.5C834.767 434.572 834.939 434.676 835.083 434.812C835.235 434.948 835.355 435.112 835.443 435.304C835.531 435.488 835.575 435.696 835.575 435.928C835.575 436.224 835.527 436.484 835.431 436.708C835.343 436.932 835.207 437.14 835.023 437.332C834.847 437.524 834.623 437.716 834.351 437.908C834.079 438.092 833.763 438.296 833.403 438.52C833.107 438.696 832.823 438.884 832.551 439.084C832.279 439.284 832.035 439.516 831.819 439.78C831.603 440.044 831.423 440.356 831.279 440.716C831.143 441.068 831.055 441.496 831.015 442H836.571V441.1H832.203C832.251 440.836 832.351 440.604 832.503 440.404C832.663 440.196 832.851 440.004 833.067 439.828C833.291 439.652 833.535 439.488 833.799 439.336C834.063 439.176 834.327 439.016 834.591 438.856C834.855 438.688 835.111 438.512 835.359 438.328C835.607 438.144 835.827 437.94 836.019 437.716C836.211 437.484 836.363 437.224 836.475 436.936C836.595 436.648 836.655 436.316 836.655 435.94C836.655 435.54 836.583 435.188 836.439 434.884C836.303 434.58 836.115 434.328 835.875 434.128C835.635 433.92 835.351 433.764 835.023 433.66C834.703 433.548 834.359 433.492 833.991 433.492C833.543 433.492 833.143 433.568 832.791 433.72C832.439 433.872 832.143 434.084 831.903 434.356C831.671 434.62 831.499 434.936 831.387 435.304C831.275 435.672 831.231 436.072 831.255 436.504ZM842.096 442V433.492H841.316C841.26 433.812 841.156 434.076 841.004 434.284C840.852 434.492 840.664 434.656 840.44 434.776C840.224 434.896 839.98 434.98 839.708 435.028C839.436 435.068 839.156 435.088 838.868 435.088V435.904H841.076V442H842.096ZM845.916 440.668V442H847.248V440.668H845.916ZM850.273 437.812C850.273 437.604 850.273 437.376 850.273 437.128C850.281 436.872 850.301 436.62 850.333 436.372C850.373 436.116 850.425 435.868 850.489 435.628C850.561 435.388 850.661 435.18 850.789 435.004C850.925 434.82 851.093 434.672 851.293 434.56C851.493 434.448 851.737 434.392 852.025 434.392C852.313 434.392 852.557 434.448 852.757 434.56C852.957 434.672 853.121 434.82 853.249 435.004C853.385 435.18 853.485 435.388 853.549 435.628C853.621 435.868 853.673 436.116 853.705 436.372C853.745 436.62 853.765 436.872 853.765 437.128C853.773 437.376 853.777 437.604 853.777 437.812C853.777 438.132 853.765 438.492 853.741 438.892C853.725 439.284 853.661 439.656 853.549 440.008C853.445 440.352 853.273 440.644 853.033 440.884C852.793 441.124 852.457 441.244 852.025 441.244C851.593 441.244 851.257 441.124 851.017 440.884C850.777 440.644 850.601 440.352 850.489 440.008C850.385 439.656 850.321 439.284 850.297 438.892C850.281 438.492 850.273 438.132 850.273 437.812ZM849.193 437.824C849.193 438.136 849.201 438.46 849.217 438.796C849.233 439.132 849.273 439.46 849.337 439.78C849.401 440.1 849.493 440.404 849.613 440.692C849.733 440.972 849.897 441.22 850.105 441.436C850.313 441.652 850.573 441.824 850.885 441.952C851.205 442.072 851.585 442.132 852.025 442.132C852.473 442.132 852.853 442.072 853.165 441.952C853.477 441.824 853.737 441.652 853.945 441.436C854.153 441.22 854.317 440.972 854.437 440.692C854.557 440.404 854.649 440.1 854.713 439.78C854.777 439.46 854.817 439.132 854.833 438.796C854.849 438.46 854.857 438.136 854.857 437.824C854.857 437.512 854.849 437.188 854.833 436.852C854.817 436.516 854.777 436.188 854.713 435.868C854.649 435.548 854.557 435.244 854.437 434.956C854.317 434.668 854.153 434.416 853.945 434.2C853.737 433.984 853.473 433.812 853.153 433.684C852.841 433.556 852.465 433.492 852.025 433.492C851.585 433.492 851.205 433.556 850.885 433.684C850.573 433.812 850.313 433.984 850.105 434.2C849.897 434.416 849.733 434.668 849.613 434.956C849.493 435.244 849.401 435.548 849.337 435.868C849.273 436.188 849.233 436.516 849.217 436.852C849.201 437.188 849.193 437.512 849.193 437.824ZM860.057 442V433.492H859.277C859.221 433.812 859.117 434.076 858.965 434.284C858.813 434.492 858.625 434.656 858.401 434.776C858.185 434.896 857.941 434.98 857.669 435.028C857.397 435.068 857.117 435.088 856.829 435.088V435.904H859.037V442H860.057ZM863.878 440.668V442H865.21V440.668H863.878ZM869.266 437.14V438.004C869.458 437.98 869.662 437.968 869.878 437.968C870.134 437.968 870.37 438.004 870.586 438.076C870.81 438.14 871.002 438.244 871.162 438.388C871.322 438.524 871.45 438.696 871.546 438.904C871.642 439.104 871.69 439.336 871.69 439.6C871.69 439.856 871.638 440.088 871.534 440.296C871.438 440.496 871.306 440.668 871.138 440.812C870.97 440.948 870.774 441.056 870.55 441.136C870.326 441.208 870.09 441.244 869.842 441.244C869.258 441.244 868.814 441.072 868.51 440.728C868.206 440.376 868.046 439.924 868.03 439.372H867.01C867.002 439.812 867.062 440.204 867.19 440.548C867.326 440.892 867.518 441.184 867.766 441.424C868.014 441.656 868.314 441.832 868.666 441.952C869.018 442.072 869.41 442.132 869.842 442.132C870.242 442.132 870.618 442.08 870.97 441.976C871.33 441.864 871.642 441.7 871.906 441.484C872.17 441.268 872.378 441 872.53 440.68C872.69 440.352 872.77 439.976 872.77 439.552C872.77 439.04 872.642 438.596 872.386 438.22C872.138 437.844 871.754 437.6 871.234 437.488V437.464C871.57 437.312 871.85 437.088 872.074 436.792C872.298 436.496 872.41 436.156 872.41 435.772C872.41 435.38 872.342 435.04 872.206 434.752C872.078 434.464 871.898 434.228 871.666 434.044C871.434 433.86 871.158 433.724 870.838 433.636C870.526 433.54 870.186 433.492 869.818 433.492C869.394 433.492 869.018 433.56 868.69 433.696C868.37 433.832 868.102 434.02 867.886 434.26C867.67 434.5 867.502 434.788 867.382 435.124C867.27 435.46 867.206 435.832 867.19 436.24H868.21C868.21 435.992 868.242 435.756 868.306 435.532C868.37 435.308 868.466 435.112 868.594 434.944C868.73 434.776 868.898 434.644 869.098 434.548C869.306 434.444 869.546 434.392 869.818 434.392C870.25 434.392 870.61 434.508 870.898 434.74C871.186 434.964 871.33 435.304 871.33 435.76C871.33 435.984 871.286 436.184 871.198 436.36C871.11 436.536 870.99 436.684 870.838 436.804C870.694 436.916 870.522 437.004 870.322 437.068C870.13 437.124 869.926 437.152 869.71 437.152H869.494C869.454 437.152 869.414 437.152 869.374 437.152C869.342 437.152 869.306 437.148 869.266 437.14ZM875.331 437.812C875.331 437.604 875.331 437.376 875.331 437.128C875.339 436.872 875.359 436.62 875.391 436.372C875.431 436.116 875.483 435.868 875.547 435.628C875.619 435.388 875.719 435.18 875.847 435.004C875.983 434.82 876.151 434.672 876.351 434.56C876.551 434.448 876.795 434.392 877.083 434.392C877.371 434.392 877.615 434.448 877.815 434.56C878.015 434.672 878.179 434.82 878.307 435.004C878.443 435.18 878.543 435.388 878.607 435.628C878.679 435.868 878.731 436.116 878.763 436.372C878.803 436.62 878.823 436.872 878.823 437.128C878.831 437.376 878.835 437.604 878.835 437.812C878.835 438.132 878.823 438.492 878.799 438.892C878.783 439.284 878.719 439.656 878.607 440.008C878.503 440.352 878.331 440.644 878.091 440.884C877.851 441.124 877.515 441.244 877.083 441.244C876.651 441.244 876.315 441.124 876.075 440.884C875.835 440.644 875.659 440.352 875.547 440.008C875.443 439.656 875.379 439.284 875.355 438.892C875.339 438.492 875.331 438.132 875.331 437.812ZM874.251 437.824C874.251 438.136 874.259 438.46 874.275 438.796C874.291 439.132 874.331 439.46 874.395 439.78C874.459 440.1 874.551 440.404 874.671 440.692C874.791 440.972 874.955 441.22 875.163 441.436C875.371 441.652 875.631 441.824 875.943 441.952C876.263 442.072 876.643 442.132 877.083 442.132C877.531 442.132 877.911 442.072 878.223 441.952C878.535 441.824 878.795 441.652 879.003 441.436C879.211 441.22 879.375 440.972 879.495 440.692C879.615 440.404 879.707 440.1 879.771 439.78C879.835 439.46 879.875 439.132 879.891 438.796C879.907 438.46 879.915 438.136 879.915 437.824C879.915 437.512 879.907 437.188 879.891 436.852C879.875 436.516 879.835 436.188 879.771 435.868C879.707 435.548 879.615 435.244 879.495 434.956C879.375 434.668 879.211 434.416 879.003 434.2C878.795 433.984 878.531 433.812 878.211 433.684C877.899 433.556 877.523 433.492 877.083 433.492C876.643 433.492 876.263 433.556 875.943 433.684C875.631 433.812 875.371 433.984 875.163 434.2C874.955 434.416 874.791 434.668 874.671 434.956C874.551 435.244 874.459 435.548 874.395 435.868C874.331 436.188 874.291 436.516 874.275 436.852C874.259 437.188 874.251 437.512 874.251 437.824Z" fill="#707070"/>
<path d="M26.0279 67V58.492H25.2479C25.1919 58.812 25.0879 59.076 24.9359 59.284C24.7839 59.492 24.5959 59.656 24.3719 59.776C24.1559 59.896 23.9119 59.98 23.6399 60.028C23.3679 60.068 23.0879 60.088 22.7999 60.088V60.904H25.0079V67H26.0279ZM30.2838 60.7C30.2838 60.484 30.3238 60.296 30.4038 60.136C30.4838 59.976 30.5878 59.84 30.7158 59.728C30.8518 59.616 31.0118 59.532 31.1958 59.476C31.3798 59.42 31.5718 59.392 31.7718 59.392C32.1878 59.392 32.5278 59.504 32.7918 59.728C33.0638 59.944 33.1998 60.268 33.1998 60.7C33.1998 61.132 33.0678 61.468 32.8038 61.708C32.5398 61.948 32.2038 62.068 31.7958 62.068C31.5878 62.068 31.3918 62.04 31.2078 61.984C31.0238 61.928 30.8638 61.844 30.7278 61.732C30.5918 61.62 30.4838 61.48 30.4038 61.312C30.3238 61.136 30.2838 60.932 30.2838 60.7ZM29.2038 60.664C29.2038 61.048 29.3118 61.404 29.5278 61.732C29.7438 62.052 30.0318 62.284 30.3918 62.428C29.9118 62.596 29.5438 62.868 29.2878 63.244C29.0318 63.612 28.9038 64.048 28.9038 64.552C28.9038 64.984 28.9758 65.364 29.1198 65.692C29.2718 66.012 29.4758 66.28 29.7318 66.496C29.9958 66.712 30.3038 66.872 30.6558 66.976C31.0078 67.08 31.3878 67.132 31.7958 67.132C32.1878 67.132 32.5558 67.076 32.8998 66.964C33.2438 66.852 33.5398 66.688 33.7878 66.472C34.0438 66.248 34.2438 65.976 34.3878 65.656C34.5398 65.336 34.6158 64.968 34.6158 64.552C34.6158 64.024 34.4918 63.58 34.2438 63.22C33.9958 62.852 33.6158 62.588 33.1038 62.428C33.4638 62.268 33.7478 62.032 33.9558 61.72C34.1718 61.4 34.2798 61.048 34.2798 60.664C34.2798 60.392 34.2318 60.128 34.1358 59.872C34.0398 59.608 33.8878 59.376 33.6798 59.176C33.4798 58.968 33.2158 58.804 32.8878 58.684C32.5598 58.556 32.1638 58.492 31.6998 58.492C31.3718 58.492 31.0558 58.54 30.7518 58.636C30.4558 58.732 30.1918 58.872 29.9598 59.056C29.7278 59.24 29.5438 59.468 29.4078 59.74C29.2718 60.004 29.2038 60.312 29.2038 60.664ZM29.9838 64.6C29.9838 64.352 30.0278 64.128 30.1158 63.928C30.2118 63.728 30.3398 63.556 30.4998 63.412C30.6678 63.268 30.8598 63.16 31.0758 63.088C31.2998 63.008 31.5358 62.968 31.7838 62.968C32.0238 62.968 32.2478 63.012 32.4558 63.1C32.6718 63.18 32.8598 63.292 33.0198 63.436C33.1798 63.58 33.3038 63.752 33.3918 63.952C33.4878 64.144 33.5358 64.356 33.5358 64.588C33.5358 64.828 33.4918 65.048 33.4038 65.248C33.3238 65.448 33.2038 65.624 33.0438 65.776C32.8918 65.92 32.7078 66.036 32.4918 66.124C32.2838 66.204 32.0518 66.244 31.7958 66.244C31.2678 66.244 30.8318 66.1 30.4878 65.812C30.1518 65.516 29.9838 65.112 29.9838 64.6ZM36.6758 62.812C36.6758 62.604 36.6758 62.376 36.6758 62.128C36.6838 61.872 36.7038 61.62 36.7358 61.372C36.7758 61.116 36.8278 60.868 36.8918 60.628C36.9638 60.388 37.0638 60.18 37.1918 60.004C37.3278 59.82 37.4958 59.672 37.6958 59.56C37.8958 59.448 38.1398 59.392 38.4278 59.392C38.7158 59.392 38.9598 59.448 39.1598 59.56C39.3598 59.672 39.5238 59.82 39.6518 60.004C39.7878 60.18 39.8878 60.388 39.9518 60.628C40.0238 60.868 40.0758 61.116 40.1078 61.372C40.1478 61.62 40.1678 61.872 40.1678 62.128C40.1758 62.376 40.1798 62.604 40.1798 62.812C40.1798 63.132 40.1678 63.492 40.1438 63.892C40.1278 64.284 40.0638 64.656 39.9518 65.008C39.8478 65.352 39.6758 65.644 39.4358 65.884C39.1958 66.124 38.8598 66.244 38.4278 66.244C37.9958 66.244 37.6598 66.124 37.4198 65.884C37.1798 65.644 37.0038 65.352 36.8918 65.008C36.7878 64.656 36.7238 64.284 36.6998 63.892C36.6838 63.492 36.6758 63.132 36.6758 62.812ZM35.5958 62.824C35.5958 63.136 35.6038 63.46 35.6198 63.796C35.6358 64.132 35.6758 64.46 35.7398 64.78C35.8038 65.1 35.8958 65.404 36.0158 65.692C36.1358 65.972 36.2998 66.22 36.5078 66.436C36.7158 66.652 36.9758 66.824 37.2878 66.952C37.6078 67.072 37.9878 67.132 38.4278 67.132C38.8758 67.132 39.2558 67.072 39.5678 66.952C39.8798 66.824 40.1398 66.652 40.3478 66.436C40.5558 66.22 40.7198 65.972 40.8398 65.692C40.9598 65.404 41.0518 65.1 41.1158 64.78C41.1798 64.46 41.2198 64.132 41.2358 63.796C41.2518 63.46 41.2598 63.136 41.2598 62.824C41.2598 62.512 41.2518 62.188 41.2358 61.852C41.2198 61.516 41.1798 61.188 41.1158 60.868C41.0518 60.548 40.9598 60.244 40.8398 59.956C40.7198 59.668 40.5558 59.416 40.3478 59.2C40.1398 58.984 39.8758 58.812 39.5558 58.684C39.2438 58.556 38.8678 58.492 38.4278 58.492C37.9878 58.492 37.6078 58.556 37.2878 58.684C36.9758 58.812 36.7158 58.984 36.5078 59.2C36.2998 59.416 36.1358 59.668 36.0158 59.956C35.8958 60.244 35.8038 60.548 35.7398 60.868C35.6758 61.188 35.6358 61.516 35.6198 61.852C35.6038 62.188 35.5958 62.512 35.5958 62.824ZM26.0279 107V98.492H25.2479C25.1919 98.812 25.0879 99.076 24.9359 99.284C24.7839 99.492 24.5959 99.656 24.3719 99.776C24.1559 99.896 23.9119 99.98 23.6399 100.028C23.3679 100.068 23.0879 100.088 22.7999 100.088V100.904H25.0079V107H26.0279ZM33.3918 100.664H34.4118C34.3478 99.96 34.1078 99.424 33.6918 99.056C33.2758 98.68 32.7158 98.492 32.0118 98.492C31.4038 98.492 30.8998 98.62 30.4998 98.876C30.0998 99.132 29.7798 99.472 29.5398 99.896C29.2998 100.32 29.1278 100.808 29.0238 101.36C28.9278 101.904 28.8798 102.468 28.8798 103.052C28.8798 103.5 28.9118 103.964 28.9758 104.444C29.0478 104.924 29.1878 105.364 29.3958 105.764C29.6038 106.164 29.8998 106.492 30.2838 106.748C30.6678 107.004 31.1758 107.132 31.8078 107.132C32.3438 107.132 32.7918 107.044 33.1518 106.868C33.5198 106.684 33.8118 106.456 34.0278 106.184C34.2518 105.904 34.4118 105.596 34.5078 105.26C34.6038 104.924 34.6518 104.6 34.6518 104.288C34.6518 103.896 34.5918 103.532 34.4718 103.196C34.3518 102.86 34.1798 102.568 33.9558 102.32C33.7398 102.072 33.4678 101.88 33.1398 101.744C32.8198 101.6 32.4558 101.528 32.0478 101.528C31.5838 101.528 31.1718 101.616 30.8118 101.792C30.4598 101.968 30.1638 102.252 29.9238 102.644L29.8998 102.62C29.9078 102.292 29.9398 101.94 29.9958 101.564C30.0518 101.188 30.1518 100.84 30.2958 100.52C30.4478 100.192 30.6558 99.924 30.9198 99.716C31.1838 99.5 31.5318 99.392 31.9638 99.392C32.3718 99.392 32.6998 99.508 32.9478 99.74C33.1958 99.972 33.3438 100.28 33.3918 100.664ZM31.8558 102.428C32.1438 102.428 32.3958 102.48 32.6118 102.584C32.8278 102.688 33.0078 102.828 33.1518 103.004C33.2958 103.172 33.3998 103.376 33.4638 103.616C33.5358 103.848 33.5718 104.096 33.5718 104.36C33.5718 104.608 33.5318 104.848 33.4518 105.08C33.3798 105.304 33.2718 105.504 33.1278 105.68C32.9838 105.856 32.8038 105.996 32.5878 106.1C32.3798 106.196 32.1358 106.244 31.8558 106.244C31.5758 106.244 31.3238 106.196 31.0998 106.1C30.8838 105.996 30.6998 105.86 30.5478 105.692C30.4038 105.524 30.2918 105.324 30.2118 105.092C30.1318 104.86 30.0918 104.612 30.0918 104.348C30.0918 104.084 30.1278 103.836 30.1998 103.604C30.2798 103.364 30.3958 103.16 30.5478 102.992C30.6998 102.816 30.8838 102.68 31.0998 102.584C31.3158 102.48 31.5678 102.428 31.8558 102.428ZM36.6758 102.812C36.6758 102.604 36.6758 102.376 36.6758 102.128C36.6838 101.872 36.7038 101.62 36.7358 101.372C36.7758 101.116 36.8278 100.868 36.8918 100.628C36.9638 100.388 37.0638 100.18 37.1918 100.004C37.3278 99.82 37.4958 99.672 37.6958 99.56C37.8958 99.448 38.1398 99.392 38.4278 99.392C38.7158 99.392 38.9598 99.448 39.1598 99.56C39.3598 99.672 39.5238 99.82 39.6518 100.004C39.7878 100.18 39.8878 100.388 39.9518 100.628C40.0238 100.868 40.0758 101.116 40.1078 101.372C40.1478 101.62 40.1678 101.872 40.1678 102.128C40.1758 102.376 40.1798 102.604 40.1798 102.812C40.1798 103.132 40.1678 103.492 40.1438 103.892C40.1278 104.284 40.0638 104.656 39.9518 105.008C39.8478 105.352 39.6758 105.644 39.4358 105.884C39.1958 106.124 38.8598 106.244 38.4278 106.244C37.9958 106.244 37.6598 106.124 37.4198 105.884C37.1798 105.644 37.0038 105.352 36.8918 105.008C36.7878 104.656 36.7238 104.284 36.6998 103.892C36.6838 103.492 36.6758 103.132 36.6758 102.812ZM35.5958 102.824C35.5958 103.136 35.6038 103.46 35.6198 103.796C35.6358 104.132 35.6758 104.46 35.7398 104.78C35.8038 105.1 35.8958 105.404 36.0158 105.692C36.1358 105.972 36.2998 106.22 36.5078 106.436C36.7158 106.652 36.9758 106.824 37.2878 106.952C37.6078 107.072 37.9878 107.132 38.4278 107.132C38.8758 107.132 39.2558 107.072 39.5678 106.952C39.8798 106.824 40.1398 106.652 40.3478 106.436C40.5558 106.22 40.7198 105.972 40.8398 105.692C40.9598 105.404 41.0518 105.1 41.1158 104.78C41.1798 104.46 41.2198 104.132 41.2358 103.796C41.2518 103.46 41.2598 103.136 41.2598 102.824C41.2598 102.512 41.2518 102.188 41.2358 101.852C41.2198 101.516 41.1798 101.188 41.1158 100.868C41.0518 100.548 40.9598 100.244 40.8398 99.956C40.7198 99.668 40.5558 99.416 40.3478 99.2C40.1398 98.984 39.8758 98.812 39.5558 98.684C39.2438 98.556 38.8678 98.492 38.4278 98.492C37.9878 98.492 37.6078 98.556 37.2878 98.684C36.9758 98.812 36.7158 98.984 36.5078 99.2C36.2998 99.416 36.1358 99.668 36.0158 99.956C35.8958 100.244 35.8038 100.548 35.7398 100.868C35.6758 101.188 35.6358 101.516 35.6198 101.852C35.6038 102.188 35.5958 102.512 35.5958 102.824ZM26.0279 147V138.492H25.2479C25.1919 138.812 25.0879 139.076 24.9359 139.284C24.7839 139.492 24.5959 139.656 24.3719 139.776C24.1559 139.896 23.9119 139.98 23.6399 140.028C23.3679 140.068 23.0879 140.088 22.7999 140.088V140.904H25.0079V147H26.0279ZM32.4918 144.108H29.6358L32.4678 139.944H32.4918V144.108ZM33.4518 144.108V138.492H32.6358L28.7598 144.024V145.008H32.4918V147H33.4518V145.008H34.6038V144.108H33.4518ZM36.6758 142.812C36.6758 142.604 36.6758 142.376 36.6758 142.128C36.6838 141.872 36.7038 141.62 36.7358 141.372C36.7758 141.116 36.8278 140.868 36.8918 140.628C36.9638 140.388 37.0638 140.18 37.1918 140.004C37.3278 139.82 37.4958 139.672 37.6958 139.56C37.8958 139.448 38.1398 139.392 38.4278 139.392C38.7158 139.392 38.9598 139.448 39.1598 139.56C39.3598 139.672 39.5238 139.82 39.6518 140.004C39.7878 140.18 39.8878 140.388 39.9518 140.628C40.0238 140.868 40.0758 141.116 40.1078 141.372C40.1478 141.62 40.1678 141.872 40.1678 142.128C40.1758 142.376 40.1798 142.604 40.1798 142.812C40.1798 143.132 40.1678 143.492 40.1438 143.892C40.1278 144.284 40.0638 144.656 39.9518 145.008C39.8478 145.352 39.6758 145.644 39.4358 145.884C39.1958 146.124 38.8598 146.244 38.4278 146.244C37.9958 146.244 37.6598 146.124 37.4198 145.884C37.1798 145.644 37.0038 145.352 36.8918 145.008C36.7878 144.656 36.7238 144.284 36.6998 143.892C36.6838 143.492 36.6758 143.132 36.6758 142.812ZM35.5958 142.824C35.5958 143.136 35.6038 143.46 35.6198 143.796C35.6358 144.132 35.6758 144.46 35.7398 144.78C35.8038 145.1 35.8958 145.404 36.0158 145.692C36.1358 145.972 36.2998 146.22 36.5078 146.436C36.7158 146.652 36.9758 146.824 37.2878 146.952C37.6078 147.072 37.9878 147.132 38.4278 147.132C38.8758 147.132 39.2558 147.072 39.5678 146.952C39.8798 146.824 40.1398 146.652 40.3478 146.436C40.5558 146.22 40.7198 145.972 40.8398 145.692C40.9598 145.404 41.0518 145.1 41.1158 144.78C41.1798 144.46 41.2198 144.132 41.2358 143.796C41.2518 143.46 41.2598 143.136 41.2598 142.824C41.2598 142.512 41.2518 142.188 41.2358 141.852C41.2198 141.516 41.1798 141.188 41.1158 140.868C41.0518 140.548 40.9598 140.244 40.8398 139.956C40.7198 139.668 40.5558 139.416 40.3478 139.2C40.1398 138.984 39.8758 138.812 39.5558 138.684C39.2438 138.556 38.8678 138.492 38.4278 138.492C37.9878 138.492 37.6078 138.556 37.2878 138.684C36.9758 138.812 36.7158 138.984 36.5078 139.2C36.2998 139.416 36.1358 139.668 36.0158 139.956C35.8958 140.244 35.8038 140.548 35.7398 140.868C35.6758 141.188 35.6358 141.516 35.6198 141.852C35.6038 142.188 35.5958 142.512 35.5958 142.824ZM26.0279 187V178.492H25.2479C25.1919 178.812 25.0879 179.076 24.9359 179.284C24.7839 179.492 24.5959 179.656 24.3719 179.776C24.1559 179.896 23.9119 179.98 23.6399 180.028C23.3679 180.068 23.0879 180.088 22.7999 180.088V180.904H25.0079V187H26.0279ZM28.9518 181.504H29.9718C29.9638 181.248 29.9878 180.996 30.0438 180.748C30.1078 180.492 30.2078 180.264 30.3438 180.064C30.4798 179.864 30.6518 179.704 30.8598 179.584C31.0758 179.456 31.3318 179.392 31.6278 179.392C31.8518 179.392 32.0638 179.428 32.2638 179.5C32.4638 179.572 32.6358 179.676 32.7798 179.812C32.9318 179.948 33.0518 180.112 33.1398 180.304C33.2278 180.488 33.2718 180.696 33.2718 180.928C33.2718 181.224 33.2238 181.484 33.1278 181.708C33.0398 181.932 32.9038 182.14 32.7198 182.332C32.5438 182.524 32.3198 182.716 32.0478 182.908C31.7758 183.092 31.4598 183.296 31.0998 183.52C30.8038 183.696 30.5198 183.884 30.2478 184.084C29.9758 184.284 29.7318 184.516 29.5158 184.78C29.2998 185.044 29.1198 185.356 28.9758 185.716C28.8398 186.068 28.7518 186.496 28.7118 187H34.2678V186.1H29.8998C29.9478 185.836 30.0478 185.604 30.1998 185.404C30.3598 185.196 30.5478 185.004 30.7638 184.828C30.9878 184.652 31.2318 184.488 31.4958 184.336C31.7598 184.176 32.0238 184.016 32.2878 183.856C32.5518 183.688 32.8078 183.512 33.0558 183.328C33.3038 183.144 33.5238 182.94 33.7158 182.716C33.9078 182.484 34.0598 182.224 34.1718 181.936C34.2918 181.648 34.3518 181.316 34.3518 180.94C34.3518 180.54 34.2798 180.188 34.1358 179.884C33.9998 179.58 33.8118 179.328 33.5718 179.128C33.3318 178.92 33.0478 178.764 32.7198 178.66C32.3998 178.548 32.0558 178.492 31.6878 178.492C31.2398 178.492 30.8398 178.568 30.4878 178.72C30.1358 178.872 29.8398 179.084 29.5998 179.356C29.3678 179.62 29.1958 179.936 29.0838 180.304C28.9718 180.672 28.9278 181.072 28.9518 181.504ZM36.6758 182.812C36.6758 182.604 36.6758 182.376 36.6758 182.128C36.6838 181.872 36.7038 181.62 36.7358 181.372C36.7758 181.116 36.8278 180.868 36.8918 180.628C36.9638 180.388 37.0638 180.18 37.1918 180.004C37.3278 179.82 37.4958 179.672 37.6958 179.56C37.8958 179.448 38.1398 179.392 38.4278 179.392C38.7158 179.392 38.9598 179.448 39.1598 179.56C39.3598 179.672 39.5238 179.82 39.6518 180.004C39.7878 180.18 39.8878 180.388 39.9518 180.628C40.0238 180.868 40.0758 181.116 40.1078 181.372C40.1478 181.62 40.1678 181.872 40.1678 182.128C40.1758 182.376 40.1798 182.604 40.1798 182.812C40.1798 183.132 40.1678 183.492 40.1438 183.892C40.1278 184.284 40.0638 184.656 39.9518 185.008C39.8478 185.352 39.6758 185.644 39.4358 185.884C39.1958 186.124 38.8598 186.244 38.4278 186.244C37.9958 186.244 37.6598 186.124 37.4198 185.884C37.1798 185.644 37.0038 185.352 36.8918 185.008C36.7878 184.656 36.7238 184.284 36.6998 183.892C36.6838 183.492 36.6758 183.132 36.6758 182.812ZM35.5958 182.824C35.5958 183.136 35.6038 183.46 35.6198 183.796C35.6358 184.132 35.6758 184.46 35.7398 184.78C35.8038 185.1 35.8958 185.404 36.0158 185.692C36.1358 185.972 36.2998 186.22 36.5078 186.436C36.7158 186.652 36.9758 186.824 37.2878 186.952C37.6078 187.072 37.9878 187.132 38.4278 187.132C38.8758 187.132 39.2558 187.072 39.5678 186.952C39.8798 186.824 40.1398 186.652 40.3478 186.436C40.5558 186.22 40.7198 185.972 40.8398 185.692C40.9598 185.404 41.0518 185.1 41.1158 184.78C41.1798 184.46 41.2198 184.132 41.2358 183.796C41.2518 183.46 41.2598 183.136 41.2598 182.824C41.2598 182.512 41.2518 182.188 41.2358 181.852C41.2198 181.516 41.1798 181.188 41.1158 180.868C41.0518 180.548 40.9598 180.244 40.8398 179.956C40.7198 179.668 40.5558 179.416 40.3478 179.2C40.1398 178.984 39.8758 178.812 39.5558 178.684C39.2438 178.556 38.8678 178.492 38.4278 178.492C37.9878 178.492 37.6078 178.556 37.2878 178.684C36.9758 178.812 36.7158 178.984 36.5078 179.2C36.2998 179.416 36.1358 179.668 36.0158 179.956C35.8958 180.244 35.8038 180.548 35.7398 180.868C35.6758 181.188 35.6358 181.516 35.6198 181.852C35.6038 182.188 35.5958 182.512 35.5958 182.824ZM26.0279 227V218.492H25.2479C25.1919 218.812 25.0879 219.076 24.9359 219.284C24.7839 219.492 24.5959 219.656 24.3719 219.776C24.1559 219.896 23.9119 219.98 23.6399 220.028C23.3679 220.068 23.0879 220.088 22.7999 220.088V220.904H25.0079V227H26.0279ZM30.0078 222.812C30.0078 222.604 30.0078 222.376 30.0078 222.128C30.0158 221.872 30.0358 221.62 30.0678 221.372C30.1078 221.116 30.1598 220.868 30.2238 220.628C30.2958 220.388 30.3958 220.18 30.5238 220.004C30.6598 219.82 30.8278 219.672 31.0278 219.56C31.2278 219.448 31.4718 219.392 31.7598 219.392C32.0478 219.392 32.2918 219.448 32.4918 219.56C32.6918 219.672 32.8558 219.82 32.9838 220.004C33.1198 220.18 33.2198 220.388 33.2838 220.628C33.3558 220.868 33.4078 221.116 33.4398 221.372C33.4798 221.62 33.4998 221.872 33.4998 222.128C33.5078 222.376 33.5118 222.604 33.5118 222.812C33.5118 223.132 33.4998 223.492 33.4758 223.892C33.4598 224.284 33.3958 224.656 33.2838 225.008C33.1798 225.352 33.0078 225.644 32.7678 225.884C32.5278 226.124 32.1918 226.244 31.7598 226.244C31.3278 226.244 30.9918 226.124 30.7518 225.884C30.5118 225.644 30.3358 225.352 30.2238 225.008C30.1198 224.656 30.0558 224.284 30.0318 223.892C30.0158 223.492 30.0078 223.132 30.0078 222.812ZM28.9278 222.824C28.9278 223.136 28.9358 223.46 28.9518 223.796C28.9678 224.132 29.0078 224.46 29.0718 224.78C29.1358 225.1 29.2278 225.404 29.3478 225.692C29.4678 225.972 29.6318 226.22 29.8398 226.436C30.0478 226.652 30.3078 226.824 30.6198 226.952C30.9398 227.072 31.3198 227.132 31.7598 227.132C32.2078 227.132 32.5878 227.072 32.8998 226.952C33.2118 226.824 33.4718 226.652 33.6798 226.436C33.8878 226.22 34.0518 225.972 34.1718 225.692C34.2918 225.404 34.3838 225.1 34.4478 224.78C34.5118 224.46 34.5518 224.132 34.5678 223.796C34.5838 223.46 34.5918 223.136 34.5918 222.824C34.5918 222.512 34.5838 222.188 34.5678 221.852C34.5518 221.516 34.5118 221.188 34.4478 220.868C34.3838 220.548 34.2918 220.244 34.1718 219.956C34.0518 219.668 33.8878 219.416 33.6798 219.2C33.4718 218.984 33.2078 218.812 32.8878 218.684C32.5758 218.556 32.1998 218.492 31.7598 218.492C31.3198 218.492 30.9398 218.556 30.6198 218.684C30.3078 218.812 30.0478 218.984 29.8398 219.2C29.6318 219.416 29.4678 219.668 29.3478 219.956C29.2278 220.244 29.1358 220.548 29.0718 220.868C29.0078 221.188 28.9678 221.516 28.9518 221.852C28.9358 222.188 28.9278 222.512 28.9278 222.824ZM36.6758 222.812C36.6758 222.604 36.6758 222.376 36.6758 222.128C36.6838 221.872 36.7038 221.62 36.7358 221.372C36.7758 221.116 36.8278 220.868 36.8918 220.628C36.9638 220.388 37.0638 220.18 37.1918 220.004C37.3278 219.82 37.4958 219.672 37.6958 219.56C37.8958 219.448 38.1398 219.392 38.4278 219.392C38.7158 219.392 38.9598 219.448 39.1598 219.56C39.3598 219.672 39.5238 219.82 39.6518 220.004C39.7878 220.18 39.8878 220.388 39.9518 220.628C40.0238 220.868 40.0758 221.116 40.1078 221.372C40.1478 221.62 40.1678 221.872 40.1678 222.128C40.1758 222.376 40.1798 222.604 40.1798 222.812C40.1798 223.132 40.1678 223.492 40.1438 223.892C40.1278 224.284 40.0638 224.656 39.9518 225.008C39.8478 225.352 39.6758 225.644 39.4358 225.884C39.1958 226.124 38.8598 226.244 38.4278 226.244C37.9958 226.244 37.6598 226.124 37.4198 225.884C37.1798 225.644 37.0038 225.352 36.8918 225.008C36.7878 224.656 36.7238 224.284 36.6998 223.892C36.6838 223.492 36.6758 223.132 36.6758 222.812ZM35.5958 222.824C35.5958 223.136 35.6038 223.46 35.6198 223.796C35.6358 224.132 35.6758 224.46 35.7398 224.78C35.8038 225.1 35.8958 225.404 36.0158 225.692C36.1358 225.972 36.2998 226.22 36.5078 226.436C36.7158 226.652 36.9758 226.824 37.2878 226.952C37.6078 227.072 37.9878 227.132 38.4278 227.132C38.8758 227.132 39.2558 227.072 39.5678 226.952C39.8798 226.824 40.1398 226.652 40.3478 226.436C40.5558 226.22 40.7198 225.972 40.8398 225.692C40.9598 225.404 41.0518 225.1 41.1158 224.78C41.1798 224.46 41.2198 224.132 41.2358 223.796C41.2518 223.46 41.2598 223.136 41.2598 222.824C41.2598 222.512 41.2518 222.188 41.2358 221.852C41.2198 221.516 41.1798 221.188 41.1158 220.868C41.0518 220.548 40.9598 220.244 40.8398 219.956C40.7198 219.668 40.5558 219.416 40.3478 219.2C40.1398 218.984 39.8758 218.812 39.5558 218.684C39.2438 218.556 38.8678 218.492 38.4278 218.492C37.9878 218.492 37.6078 218.556 37.2878 218.684C36.9758 218.812 36.7158 218.984 36.5078 219.2C36.2998 219.416 36.1358 219.668 36.0158 219.956C35.8958 220.244 35.8038 220.548 35.7398 220.868C35.6758 221.188 35.6358 221.516 35.6198 221.852C35.6038 222.188 35.5958 222.512 35.5958 222.824ZM23.6159 260.7C23.6159 260.484 23.6559 260.296 23.7359 260.136C23.8159 259.976 23.9199 259.84 24.0479 259.728C24.1839 259.616 24.3439 259.532 24.5279 259.476C24.7119 259.42 24.9039 259.392 25.1039 259.392C25.5199 259.392 25.8599 259.504 26.1239 259.728C26.3959 259.944 26.5319 260.268 26.5319 260.7C26.5319 261.132 26.3999 261.468 26.1359 261.708C25.8719 261.948 25.5359 262.068 25.1279 262.068C24.9199 262.068 24.7239 262.04 24.5399 261.984C24.3559 261.928 24.1959 261.844 24.0599 261.732C23.9239 261.62 23.8159 261.48 23.7359 261.312C23.6559 261.136 23.6159 260.932 23.6159 260.7ZM22.5359 260.664C22.5359 261.048 22.6439 261.404 22.8599 261.732C23.0759 262.052 23.3639 262.284 23.7239 262.428C23.2439 262.596 22.8759 262.868 22.6199 263.244C22.3639 263.612 22.2359 264.048 22.2359 264.552C22.2359 264.984 22.3079 265.364 22.4519 265.692C22.6039 266.012 22.8079 266.28 23.0639 266.496C23.3279 266.712 23.6359 266.872 23.9879 266.976C24.3399 267.08 24.7199 267.132 25.1279 267.132C25.5199 267.132 25.8879 267.076 26.2319 266.964C26.5759 266.852 26.8719 266.688 27.1199 266.472C27.3759 266.248 27.5759 265.976 27.7199 265.656C27.8719 265.336 27.9479 264.968 27.9479 264.552C27.9479 264.024 27.8239 263.58 27.5759 263.22C27.3279 262.852 26.9479 262.588 26.4359 262.428C26.7959 262.268 27.0799 262.032 27.2879 261.72C27.5039 261.4 27.6119 261.048 27.6119 260.664C27.6119 260.392 27.5639 260.128 27.4679 259.872C27.3719 259.608 27.2199 259.376 27.0119 259.176C26.8119 258.968 26.5479 258.804 26.2199 258.684C25.8919 258.556 25.4959 258.492 25.0319 258.492C24.7039 258.492 24.3879 258.54 24.0839 258.636C23.7879 258.732 23.5239 258.872 23.2919 259.056C23.0599 259.24 22.8759 259.468 22.7399 259.74C22.6039 260.004 22.5359 260.312 22.5359 260.664ZM23.3159 264.6C23.3159 264.352 23.3599 264.128 23.4479 263.928C23.5439 263.728 23.6719 263.556 23.8319 263.412C23.9999 263.268 24.1919 263.16 24.4079 263.088C24.6319 263.008 24.8679 262.968 25.1159 262.968C25.3559 262.968 25.5799 263.012 25.7879 263.1C26.0039 263.18 26.1919 263.292 26.3519 263.436C26.5119 263.58 26.6359 263.752 26.7239 263.952C26.8199 264.144 26.8679 264.356 26.8679 264.588C26.8679 264.828 26.8239 265.048 26.7359 265.248C26.6559 265.448 26.5359 265.624 26.3759 265.776C26.2239 265.92 26.0399 266.036 25.8239 266.124C25.6159 266.204 25.3839 266.244 25.1279 266.244C24.5999 266.244 24.1639 266.1 23.8199 265.812C23.4839 265.516 23.3159 265.112 23.3159 264.6ZM30.0078 262.812C30.0078 262.604 30.0078 262.376 30.0078 262.128C30.0158 261.872 30.0358 261.62 30.0678 261.372C30.1078 261.116 30.1598 260.868 30.2238 260.628C30.2958 260.388 30.3958 260.18 30.5238 260.004C30.6598 259.82 30.8278 259.672 31.0278 259.56C31.2278 259.448 31.4718 259.392 31.7598 259.392C32.0478 259.392 32.2918 259.448 32.4918 259.56C32.6918 259.672 32.8558 259.82 32.9838 260.004C33.1198 260.18 33.2198 260.388 33.2838 260.628C33.3558 260.868 33.4078 261.116 33.4398 261.372C33.4798 261.62 33.4998 261.872 33.4998 262.128C33.5078 262.376 33.5118 262.604 33.5118 262.812C33.5118 263.132 33.4998 263.492 33.4758 263.892C33.4598 264.284 33.3958 264.656 33.2838 265.008C33.1798 265.352 33.0078 265.644 32.7678 265.884C32.5278 266.124 32.1918 266.244 31.7598 266.244C31.3278 266.244 30.9918 266.124 30.7518 265.884C30.5118 265.644 30.3358 265.352 30.2238 265.008C30.1198 264.656 30.0558 264.284 30.0318 263.892C30.0158 263.492 30.0078 263.132 30.0078 262.812ZM28.9278 262.824C28.9278 263.136 28.9358 263.46 28.9518 263.796C28.9678 264.132 29.0078 264.46 29.0718 264.78C29.1358 265.1 29.2278 265.404 29.3478 265.692C29.4678 265.972 29.6318 266.22 29.8398 266.436C30.0478 266.652 30.3078 266.824 30.6198 266.952C30.9398 267.072 31.3198 267.132 31.7598 267.132C32.2078 267.132 32.5878 267.072 32.8998 266.952C33.2118 266.824 33.4718 266.652 33.6798 266.436C33.8878 266.22 34.0518 265.972 34.1718 265.692C34.2918 265.404 34.3838 265.1 34.4478 264.78C34.5118 264.46 34.5518 264.132 34.5678 263.796C34.5838 263.46 34.5918 263.136 34.5918 262.824C34.5918 262.512 34.5838 262.188 34.5678 261.852C34.5518 261.516 34.5118 261.188 34.4478 260.868C34.3838 260.548 34.2918 260.244 34.1718 259.956C34.0518 259.668 33.8878 259.416 33.6798 259.2C33.4718 258.984 33.2078 258.812 32.8878 258.684C32.5758 258.556 32.1998 258.492 31.7598 258.492C31.3198 258.492 30.9398 258.556 30.6198 258.684C30.3078 258.812 30.0478 258.984 29.8398 259.2C29.6318 259.416 29.4678 259.668 29.3478 259.956C29.2278 260.244 29.1358 260.548 29.0718 260.868C29.0078 261.188 28.9678 261.516 28.9518 261.852C28.9358 262.188 28.9278 262.512 28.9278 262.824ZM26.7239 300.664H27.7439C27.6799 299.96 27.4399 299.424 27.0239 299.056C26.6079 298.68 26.0479 298.492 25.3439 298.492C24.7359 298.492 24.2319 298.62 23.8319 298.876C23.4319 299.132 23.1119 299.472 22.8719 299.896C22.6319 300.32 22.4599 300.808 22.3559 301.36C22.2599 301.904 22.2119 302.468 22.2119 303.052C22.2119 303.5 22.2439 303.964 22.3079 304.444C22.3799 304.924 22.5199 305.364 22.7279 305.764C22.9359 306.164 23.2319 306.492 23.6159 306.748C23.9999 307.004 24.5079 307.132 25.1399 307.132C25.6759 307.132 26.1239 307.044 26.4839 306.868C26.8519 306.684 27.1439 306.456 27.3599 306.184C27.5839 305.904 27.7439 305.596 27.8399 305.26C27.9359 304.924 27.9839 304.6 27.9839 304.288C27.9839 303.896 27.9239 303.532 27.8039 303.196C27.6839 302.86 27.5119 302.568 27.2879 302.32C27.0719 302.072 26.7999 301.88 26.4719 301.744C26.1519 301.6 25.7879 301.528 25.3799 301.528C24.9159 301.528 24.5039 301.616 24.1439 301.792C23.7919 301.968 23.4959 302.252 23.2559 302.644L23.2319 302.62C23.2399 302.292 23.2719 301.94 23.3279 301.564C23.3839 301.188 23.4839 300.84 23.6279 300.52C23.7799 300.192 23.9879 299.924 24.2519 299.716C24.5159 299.5 24.8639 299.392 25.2959 299.392C25.7039 299.392 26.0319 299.508 26.2799 299.74C26.5279 299.972 26.6759 300.28 26.7239 300.664ZM25.1879 302.428C25.4759 302.428 25.7279 302.48 25.9439 302.584C26.1599 302.688 26.3399 302.828 26.4839 303.004C26.6279 303.172 26.7319 303.376 26.7959 303.616C26.8679 303.848 26.9039 304.096 26.9039 304.36C26.9039 304.608 26.8639 304.848 26.7839 305.08C26.7119 305.304 26.6039 305.504 26.4599 305.68C26.3159 305.856 26.1359 305.996 25.9199 306.1C25.7119 306.196 25.4679 306.244 25.1879 306.244C24.9079 306.244 24.6559 306.196 24.4319 306.1C24.2159 305.996 24.0319 305.86 23.8799 305.692C23.7359 305.524 23.6239 305.324 23.5439 305.092C23.4639 304.86 23.4239 304.612 23.4239 304.348C23.4239 304.084 23.4599 303.836 23.5319 303.604C23.6119 303.364 23.7279 303.16 23.8799 302.992C24.0319 302.816 24.2159 302.68 24.4319 302.584C24.6479 302.48 24.8999 302.428 25.1879 302.428ZM30.0078 302.812C30.0078 302.604 30.0078 302.376 30.0078 302.128C30.0158 301.872 30.0358 301.62 30.0678 301.372C30.1078 301.116 30.1598 300.868 30.2238 300.628C30.2958 300.388 30.3958 300.18 30.5238 300.004C30.6598 299.82 30.8278 299.672 31.0278 299.56C31.2278 299.448 31.4718 299.392 31.7598 299.392C32.0478 299.392 32.2918 299.448 32.4918 299.56C32.6918 299.672 32.8558 299.82 32.9838 300.004C33.1198 300.18 33.2198 300.388 33.2838 300.628C33.3558 300.868 33.4078 301.116 33.4398 301.372C33.4798 301.62 33.4998 301.872 33.4998 302.128C33.5078 302.376 33.5118 302.604 33.5118 302.812C33.5118 303.132 33.4998 303.492 33.4758 303.892C33.4598 304.284 33.3958 304.656 33.2838 305.008C33.1798 305.352 33.0078 305.644 32.7678 305.884C32.5278 306.124 32.1918 306.244 31.7598 306.244C31.3278 306.244 30.9918 306.124 30.7518 305.884C30.5118 305.644 30.3358 305.352 30.2238 305.008C30.1198 304.656 30.0558 304.284 30.0318 303.892C30.0158 303.492 30.0078 303.132 30.0078 302.812ZM28.9278 302.824C28.9278 303.136 28.9358 303.46 28.9518 303.796C28.9678 304.132 29.0078 304.46 29.0718 304.78C29.1358 305.1 29.2278 305.404 29.3478 305.692C29.4678 305.972 29.6318 306.22 29.8398 306.436C30.0478 306.652 30.3078 306.824 30.6198 306.952C30.9398 307.072 31.3198 307.132 31.7598 307.132C32.2078 307.132 32.5878 307.072 32.8998 306.952C33.2118 306.824 33.4718 306.652 33.6798 306.436C33.8878 306.22 34.0518 305.972 34.1718 305.692C34.2918 305.404 34.3838 305.1 34.4478 304.78C34.5118 304.46 34.5518 304.132 34.5678 303.796C34.5838 303.46 34.5918 303.136 34.5918 302.824C34.5918 302.512 34.5838 302.188 34.5678 301.852C34.5518 301.516 34.5118 301.188 34.4478 300.868C34.3838 300.548 34.2918 300.244 34.1718 299.956C34.0518 299.668 33.8878 299.416 33.6798 299.2C33.4718 298.984 33.2078 298.812 32.8878 298.684C32.5758 298.556 32.1998 298.492 31.7598 298.492C31.3198 298.492 30.9398 298.556 30.6198 298.684C30.3078 298.812 30.0478 298.984 29.8398 299.2C29.6318 299.416 29.4678 299.668 29.3478 299.956C29.2278 300.244 29.1358 300.548 29.0718 300.868C29.0078 301.188 28.9678 301.516 28.9518 301.852C28.9358 302.188 28.9278 302.512 28.9278 302.824ZM25.8239 344.108H22.9679L25.7999 339.944H25.8239V344.108ZM26.7839 344.108V338.492H25.9679L22.0919 344.024V345.008H25.8239V347H26.7839V345.008H27.9359V344.108H26.7839ZM30.0078 342.812C30.0078 342.604 30.0078 342.376 30.0078 342.128C30.0158 341.872 30.0358 341.62 30.0678 341.372C30.1078 341.116 30.1598 340.868 30.2238 340.628C30.2958 340.388 30.3958 340.18 30.5238 340.004C30.6598 339.82 30.8278 339.672 31.0278 339.56C31.2278 339.448 31.4718 339.392 31.7598 339.392C32.0478 339.392 32.2918 339.448 32.4918 339.56C32.6918 339.672 32.8558 339.82 32.9838 340.004C33.1198 340.18 33.2198 340.388 33.2838 340.628C33.3558 340.868 33.4078 341.116 33.4398 341.372C33.4798 341.62 33.4998 341.872 33.4998 342.128C33.5078 342.376 33.5118 342.604 33.5118 342.812C33.5118 343.132 33.4998 343.492 33.4758 343.892C33.4598 344.284 33.3958 344.656 33.2838 345.008C33.1798 345.352 33.0078 345.644 32.7678 345.884C32.5278 346.124 32.1918 346.244 31.7598 346.244C31.3278 346.244 30.9918 346.124 30.7518 345.884C30.5118 345.644 30.3358 345.352 30.2238 345.008C30.1198 344.656 30.0558 344.284 30.0318 343.892C30.0158 343.492 30.0078 343.132 30.0078 342.812ZM28.9278 342.824C28.9278 343.136 28.9358 343.46 28.9518 343.796C28.9678 344.132 29.0078 344.46 29.0718 344.78C29.1358 345.1 29.2278 345.404 29.3478 345.692C29.4678 345.972 29.6318 346.22 29.8398 346.436C30.0478 346.652 30.3078 346.824 30.6198 346.952C30.9398 347.072 31.3198 347.132 31.7598 347.132C32.2078 347.132 32.5878 347.072 32.8998 346.952C33.2118 346.824 33.4718 346.652 33.6798 346.436C33.8878 346.22 34.0518 345.972 34.1718 345.692C34.2918 345.404 34.3838 345.1 34.4478 344.78C34.5118 344.46 34.5518 344.132 34.5678 343.796C34.5838 343.46 34.5918 343.136 34.5918 342.824C34.5918 342.512 34.5838 342.188 34.5678 341.852C34.5518 341.516 34.5118 341.188 34.4478 340.868C34.3838 340.548 34.2918 340.244 34.1718 339.956C34.0518 339.668 33.8878 339.416 33.6798 339.2C33.4718 338.984 33.2078 338.812 32.8878 338.684C32.5758 338.556 32.1998 338.492 31.7598 338.492C31.3198 338.492 30.9398 338.556 30.6198 338.684C30.3078 338.812 30.0478 338.984 29.8398 339.2C29.6318 339.416 29.4678 339.668 29.3478 339.956C29.2278 340.244 29.1358 340.548 29.0718 340.868C29.0078 341.188 28.9678 341.516 28.9518 341.852C28.9358 342.188 28.9278 342.512 28.9278 342.824ZM22.2839 381.504H23.3039C23.2959 381.248 23.3199 380.996 23.3759 380.748C23.4399 380.492 23.5399 380.264 23.6759 380.064C23.8119 379.864 23.9839 379.704 24.1919 379.584C24.4079 379.456 24.6639 379.392 24.9599 379.392C25.1839 379.392 25.3959 379.428 25.5959 379.5C25.7959 379.572 25.9679 379.676 26.1119 379.812C26.2639 379.948 26.3839 380.112 26.4719 380.304C26.5599 380.488 26.6039 380.696 26.6039 380.928C26.6039 381.224 26.5559 381.484 26.4599 381.708C26.3719 381.932 26.2359 382.14 26.0519 382.332C25.8759 382.524 25.6519 382.716 25.3799 382.908C25.1079 383.092 24.7919 383.296 24.4319 383.52C24.1359 383.696 23.8519 383.884 23.5799 384.084C23.3079 384.284 23.0639 384.516 22.8479 384.78C22.6319 385.044 22.4519 385.356 22.3079 385.716C22.1719 386.068 22.0839 386.496 22.0439 387H27.5999V386.1H23.2319C23.2799 385.836 23.3799 385.604 23.5319 385.404C23.6919 385.196 23.8799 385.004 24.0959 384.828C24.3199 384.652 24.5639 384.488 24.8279 384.336C25.0919 384.176 25.3559 384.016 25.6199 383.856C25.8839 383.688 26.1399 383.512 26.3879 383.328C26.6359 383.144 26.8559 382.94 27.0479 382.716C27.2399 382.484 27.3919 382.224 27.5039 381.936C27.6239 381.648 27.6839 381.316 27.6839 380.94C27.6839 380.54 27.6119 380.188 27.4679 379.884C27.3319 379.58 27.1439 379.328 26.9039 379.128C26.6639 378.92 26.3799 378.764 26.0519 378.66C25.7319 378.548 25.3879 378.492 25.0199 378.492C24.5719 378.492 24.1719 378.568 23.8199 378.72C23.4679 378.872 23.1719 379.084 22.9319 379.356C22.6999 379.62 22.5279 379.936 22.4159 380.304C22.3039 380.672 22.2599 381.072 22.2839 381.504ZM30.0078 382.812C30.0078 382.604 30.0078 382.376 30.0078 382.128C30.0158 381.872 30.0358 381.62 30.0678 381.372C30.1078 381.116 30.1598 380.868 30.2238 380.628C30.2958 380.388 30.3958 380.18 30.5238 380.004C30.6598 379.82 30.8278 379.672 31.0278 379.56C31.2278 379.448 31.4718 379.392 31.7598 379.392C32.0478 379.392 32.2918 379.448 32.4918 379.56C32.6918 379.672 32.8558 379.82 32.9838 380.004C33.1198 380.18 33.2198 380.388 33.2838 380.628C33.3558 380.868 33.4078 381.116 33.4398 381.372C33.4798 381.62 33.4998 381.872 33.4998 382.128C33.5078 382.376 33.5118 382.604 33.5118 382.812C33.5118 383.132 33.4998 383.492 33.4758 383.892C33.4598 384.284 33.3958 384.656 33.2838 385.008C33.1798 385.352 33.0078 385.644 32.7678 385.884C32.5278 386.124 32.1918 386.244 31.7598 386.244C31.3278 386.244 30.9918 386.124 30.7518 385.884C30.5118 385.644 30.3358 385.352 30.2238 385.008C30.1198 384.656 30.0558 384.284 30.0318 383.892C30.0158 383.492 30.0078 383.132 30.0078 382.812ZM28.9278 382.824C28.9278 383.136 28.9358 383.46 28.9518 383.796C28.9678 384.132 29.0078 384.46 29.0718 384.78C29.1358 385.1 29.2278 385.404 29.3478 385.692C29.4678 385.972 29.6318 386.22 29.8398 386.436C30.0478 386.652 30.3078 386.824 30.6198 386.952C30.9398 387.072 31.3198 387.132 31.7598 387.132C32.2078 387.132 32.5878 387.072 32.8998 386.952C33.2118 386.824 33.4718 386.652 33.6798 386.436C33.8878 386.22 34.0518 385.972 34.1718 385.692C34.2918 385.404 34.3838 385.1 34.4478 384.78C34.5118 384.46 34.5518 384.132 34.5678 383.796C34.5838 383.46 34.5918 383.136 34.5918 382.824C34.5918 382.512 34.5838 382.188 34.5678 381.852C34.5518 381.516 34.5118 381.188 34.4478 380.868C34.3838 380.548 34.2918 380.244 34.1718 379.956C34.0518 379.668 33.8878 379.416 33.6798 379.2C33.4718 378.984 33.2078 378.812 32.8878 378.684C32.5758 378.556 32.1998 378.492 31.7598 378.492C31.3198 378.492 30.9398 378.556 30.6198 378.684C30.3078 378.812 30.0478 378.984 29.8398 379.2C29.6318 379.416 29.4678 379.668 29.3478 379.956C29.2278 380.244 29.1358 380.548 29.0718 380.868C29.0078 381.188 28.9678 381.516 28.9518 381.852C28.9358 382.188 28.9278 382.512 28.9278 382.824ZM23.3399 422.812C23.3399 422.604 23.3399 422.376 23.3399 422.128C23.3479 421.872 23.3679 421.62 23.3999 421.372C23.4399 421.116 23.4919 420.868 23.5559 420.628C23.6279 420.388 23.7279 420.18 23.8559 420.004C23.9919 419.82 24.1599 419.672 24.3599 419.56C24.5599 419.448 24.8039 419.392 25.0919 419.392C25.3799 419.392 25.6239 419.448 25.8239 419.56C26.0239 419.672 26.1879 419.82 26.3159 420.004C26.4519 420.18 26.5519 420.388 26.6159 420.628C26.6879 420.868 26.7399 421.116 26.7719 421.372C26.8119 421.62 26.8319 421.872 26.8319 422.128C26.8399 422.376 26.8439 422.604 26.8439 422.812C26.8439 423.132 26.8319 423.492 26.8079 423.892C26.7919 424.284 26.7279 424.656 26.6159 425.008C26.5119 425.352 26.3399 425.644 26.0999 425.884C25.8599 426.124 25.5239 426.244 25.0919 426.244C24.6599 426.244 24.3239 426.124 24.0839 425.884C23.8439 425.644 23.6679 425.352 23.5559 425.008C23.4519 424.656 23.3879 424.284 23.3639 423.892C23.3479 423.492 23.3399 423.132 23.3399 422.812ZM22.2599 422.824C22.2599 423.136 22.2679 423.46 22.2839 423.796C22.2999 424.132 22.3399 424.46 22.4039 424.78C22.4679 425.1 22.5599 425.404 22.6799 425.692C22.7999 425.972 22.9639 426.22 23.1719 426.436C23.3799 426.652 23.6399 426.824 23.9519 426.952C24.2719 427.072 24.6519 427.132 25.0919 427.132C25.5399 427.132 25.9199 427.072 26.2319 426.952C26.5439 426.824 26.8039 426.652 27.0119 426.436C27.2199 426.22 27.3839 425.972 27.5039 425.692C27.6239 425.404 27.7159 425.1 27.7799 424.78C27.8439 424.46 27.8839 424.132 27.8999 423.796C27.9159 423.46 27.9239 423.136 27.9239 422.824C27.9239 422.512 27.9159 422.188 27.8999 421.852C27.8839 421.516 27.8439 421.188 27.7799 420.868C27.7159 420.548 27.6239 420.244 27.5039 419.956C27.3839 419.668 27.2199 419.416 27.0119 419.2C26.8039 418.984 26.5399 418.812 26.2199 418.684C25.9079 418.556 25.5319 418.492 25.0919 418.492C24.6519 418.492 24.2719 418.556 23.9519 418.684C23.6399 418.812 23.3799 418.984 23.1719 419.2C22.9639 419.416 22.7999 419.668 22.6799 419.956C22.5599 420.244 22.4679 420.548 22.4039 420.868C22.3399 421.188 22.2999 421.516 22.2839 421.852C22.2679 422.188 22.2599 422.512 22.2599 422.824Z" fill="#B7BCC8"/>
<path d="M64.6953 217L213.775 306.461C244.007 324.603 281.346 324.875 310.549 307.167L326.968 297.211C345.475 285.989 369.07 285.92 388.45 297.031L408.869 308.738C422.303 316.44 439.029 313.831 448.767 302.514L454.595 295.741C462.564 286.48 476.829 285.601 486.521 293.773V293.773C500.704 305.731 522.062 297.517 523.577 279.521L527.884 228.383C530.123 201.784 566.581 196.469 578.238 221.042L586.935 239.375C594.709 255.765 618.613 254.237 622.992 237.071V237.071C627.252 220.371 650.226 218.308 658.598 233.872L665.623 246.934C677.498 269.01 710.59 263.204 712.502 238.709L719.116 153.985C720.605 134.912 744.297 127.413 757.666 141.782V141.782C766.59 151.374 781.583 151.786 790.355 142.681L801.527 131.086C810.543 121.728 824.035 117.925 837.06 121.069L847.191 123.515C868.617 128.687 890.681 121.151 903.702 104.213L936.923 61" stroke="#4A7DC9" stroke-width="4" stroke-linecap="round" stroke-linejoin="round"/>
<ellipse cx="553.443" cy="203.5" rx="7.44276" ry="6.5" fill="#F9E7A9"/>
</svg>
