<svg width="663" height="442" viewBox="0 0 663 442" fill="none" xmlns="http://www.w3.org/2000/svg">
<g clip-path="url(#clip0)">
<path d="M496.299 396.982H614.38C612.7 389.115 601.429 383.059 587.771 383.059C583.616 383.059 579.705 383.612 576.191 384.606C574.091 379.457 568.345 375.788 561.627 375.788C558.378 375.788 555.373 376.65 552.875 378.109C548.941 373.954 542.93 371.302 536.19 371.302C526.908 371.302 518.996 376.341 515.99 383.391C515.637 384.231 515.349 385.093 515.128 385.977C514.863 385.932 514.598 385.91 514.311 385.888C514.245 385.888 514.178 385.888 514.134 385.888C513.736 385.866 513.361 385.866 512.963 385.866C504.918 385.866 498.156 390.595 496.299 396.982Z" fill="#D1E9FF"/>
<path opacity="0.6" d="M496.299 396.982H580.633C578.887 393.446 575.042 390.816 570.401 390.176C570.401 390.043 570.423 389.91 570.423 389.778C570.423 386.772 567.373 384.319 563.594 384.319C560.743 384.319 558.29 385.733 557.273 387.722C554.688 386.949 551.77 386.507 548.676 386.507C545.56 386.507 542.621 386.949 540.013 387.745C538.731 382.639 533.317 378.816 526.842 378.816C522.399 378.816 518.444 380.606 515.99 383.391C515.305 384.142 514.753 385.004 514.333 385.888C514.311 385.91 514.311 385.954 514.289 385.977C514.245 385.932 514.2 385.91 514.156 385.888C513.758 385.866 513.383 385.866 512.985 385.866C504.918 385.866 498.156 390.595 496.299 396.982Z" fill="white"/>
<path d="M599.617 123.738H526.532C527.571 118.876 534.555 115.119 542.997 115.119C545.56 115.119 547.991 115.473 550.157 116.069C551.461 112.887 555.019 110.611 559.174 110.611C561.185 110.611 563.041 111.141 564.588 112.047C567.019 109.483 570.754 107.826 574.909 107.826C580.655 107.826 585.561 110.942 587.418 115.318C587.639 115.826 587.815 116.379 587.948 116.909C588.103 116.887 588.28 116.865 588.456 116.865C588.501 116.865 588.523 116.865 588.567 116.865C588.81 116.843 589.053 116.843 589.296 116.843C594.291 116.865 598.468 119.782 599.617 123.738Z" fill="#D1E9FF"/>
<path opacity="0.4" d="M248.559 192.049L239.475 162.921C239.21 162.037 238.26 161.551 237.398 161.838L215.32 168.733C214.613 168.954 213.839 168.667 213.42 168.048C210.48 163.496 207.011 159.363 203.099 155.717C202.546 155.208 202.392 154.391 202.745 153.728L213.486 133.263C213.906 132.445 213.596 131.451 212.779 131.009L185.772 116.843C184.955 116.423 183.96 116.732 183.518 117.55L172.778 138.014C172.424 138.677 171.673 139.031 170.943 138.854C165.75 137.727 160.38 137.241 154.943 137.418C154.192 137.44 153.506 136.976 153.285 136.246L146.39 114.169C146.125 113.285 145.175 112.798 144.313 113.086L115.185 122.169C114.301 122.434 113.815 123.384 114.102 124.246L120.997 146.324C121.218 147.031 120.931 147.805 120.312 148.225C115.738 151.186 111.605 154.634 107.98 158.501C107.472 159.054 106.654 159.208 105.991 158.855L85.5269 148.114C84.7092 147.694 83.7147 148.004 83.2727 148.821L69.1066 175.85C68.6867 176.667 68.9961 177.662 69.8138 178.104L90.3005 188.867C90.9635 189.22 91.295 189.972 91.1403 190.701C90.0132 195.894 89.527 201.265 89.6596 206.701C89.6817 207.453 89.2176 208.116 88.4883 208.337L66.4104 215.232C65.5264 215.497 65.0402 216.447 65.3275 217.309L74.4327 246.459C74.6979 247.343 75.6482 247.829 76.5101 247.542L98.588 240.647C99.2952 240.426 100.069 240.713 100.466 241.332C103.45 245.907 106.898 250.039 110.809 253.686C111.362 254.194 111.494 255.012 111.163 255.675L100.422 276.162C100.002 276.979 100.312 277.974 101.129 278.416L128.158 292.582C128.975 293.002 129.97 292.692 130.412 291.875L141.153 271.41C141.506 270.747 142.258 270.394 142.987 270.57C148.18 271.697 153.551 272.206 158.987 272.051C159.739 272.029 160.402 272.493 160.645 273.222L167.518 295.278C167.783 296.162 168.733 296.648 169.595 296.361L198.723 287.278C199.607 287.013 200.093 286.062 199.806 285.201L192.933 263.145C192.712 262.438 192.999 261.664 193.618 261.244C198.193 258.283 202.325 254.813 205.95 250.923C206.458 250.371 207.276 250.216 207.939 250.57L228.403 261.31C229.221 261.73 230.216 261.421 230.658 260.603L244.824 233.597C245.244 232.779 244.934 231.785 244.116 231.343L223.674 220.602C223.011 220.249 222.679 219.497 222.834 218.768C223.961 213.552 224.447 208.182 224.271 202.745C224.249 201.994 224.713 201.309 225.442 201.088L247.52 194.193C248.338 193.861 248.824 192.933 248.559 192.049ZM183.739 219.033C160.822 250.901 116.688 227.718 129.859 190.789C129.926 190.635 129.992 190.48 130.103 190.347C152.954 158.501 197.154 181.596 183.982 218.591C183.916 218.746 183.85 218.901 183.739 219.033Z" fill="#D1E9FF"/>
<path opacity="0.4" d="M352.848 98.6323L348.627 85.1071C348.495 84.7093 348.075 84.4662 347.655 84.5988L337.378 87.8033C337.047 87.9138 336.693 87.7812 336.494 87.4718C335.124 85.3502 333.511 83.4275 331.699 81.7258C331.434 81.4827 331.367 81.107 331.544 80.7976L336.539 71.2725C336.738 70.8968 336.583 70.4327 336.207 70.2338L323.654 63.648C323.279 63.4491 322.815 63.6038 322.616 63.9795L317.621 73.5046C317.466 73.814 317.113 73.9687 316.759 73.9024C314.35 73.372 311.853 73.151 309.311 73.2394C308.958 73.2394 308.648 73.0405 308.538 72.709L305.333 62.4325C305.201 62.0347 304.781 61.7916 304.361 61.9242L290.836 66.1453C290.438 66.2779 290.195 66.6978 290.328 67.1177L293.532 77.3942C293.643 77.7257 293.51 78.0793 293.201 78.2782C291.079 79.6484 289.156 81.2617 287.477 83.0518C287.234 83.317 286.858 83.3833 286.548 83.2065L277.023 78.2119C276.648 78.013 276.184 78.1677 275.985 78.5434L269.399 91.0962C269.2 91.4719 269.355 91.936 269.73 92.1349L279.255 97.1295C279.565 97.2842 279.72 97.6378 279.653 97.9914C279.123 100.4 278.902 102.898 278.968 105.417C278.968 105.771 278.769 106.08 278.438 106.168L268.183 109.373C267.786 109.506 267.542 109.925 267.675 110.345L271.896 123.893C272.029 124.29 272.449 124.534 272.869 124.401L283.123 121.196C283.454 121.086 283.808 121.219 284.007 121.506C285.399 123.627 286.991 125.55 288.803 127.252C289.068 127.495 289.134 127.871 288.957 128.18L283.963 137.705C283.764 138.081 283.919 138.545 284.294 138.744L296.847 145.33C297.223 145.529 297.687 145.374 297.886 144.998L302.88 135.473C303.035 135.164 303.389 135.009 303.742 135.075C306.151 135.606 308.648 135.827 311.19 135.76C311.544 135.76 311.853 135.959 311.963 136.291L315.168 146.545C315.301 146.943 315.72 147.186 316.14 147.053L329.666 142.832C330.063 142.7 330.306 142.28 330.174 141.86L326.969 131.606C326.859 131.274 326.991 130.92 327.301 130.722C329.422 129.351 331.345 127.738 333.025 125.926C333.268 125.661 333.644 125.594 333.953 125.771L343.478 130.766C343.854 130.965 344.318 130.81 344.517 130.434L351.103 117.881C351.301 117.506 351.147 117.042 350.771 116.843L341.268 111.848C340.959 111.693 340.804 111.34 340.87 111.008C341.379 108.577 341.622 106.08 341.533 103.561C341.533 103.207 341.732 102.898 342.064 102.787L352.34 99.5826C352.738 99.4721 352.959 99.0522 352.848 98.6323ZM322.726 111.185C312.074 125.992 291.565 115.229 297.687 98.0577C297.709 97.9914 297.753 97.903 297.797 97.8588C308.427 83.0518 328.958 93.7924 322.837 110.986C322.792 111.053 322.77 111.119 322.726 111.185Z" fill="#D1E9FF"/>
<path d="M309.82 165.242L309.798 164.358C311.256 164.314 312.715 164.225 314.174 164.07L314.262 164.954C312.781 165.109 311.301 165.22 309.82 165.242ZM305.356 165.175C303.875 165.087 302.394 164.954 300.936 164.756L301.046 163.872C302.483 164.07 303.963 164.203 305.4 164.291L305.356 165.175ZM318.66 164.314L318.505 163.452C319.92 163.186 321.356 162.855 322.771 162.479L322.992 163.341C321.555 163.695 320.096 164.026 318.66 164.314ZM296.56 163.96C295.123 163.651 293.687 163.275 292.25 162.855L292.494 162.015C293.908 162.435 295.322 162.789 296.737 163.098L296.56 163.96ZM327.257 161.993L326.97 161.153C328.34 160.667 329.71 160.137 331.058 159.562L331.412 160.38C330.019 160.954 328.627 161.507 327.257 161.993ZM288.029 161.441C286.659 160.932 285.289 160.358 283.919 159.739L284.272 158.943C285.62 159.54 286.991 160.115 288.339 160.623L288.029 161.441ZM335.412 158.457L335.014 157.661C336.296 156.998 337.578 156.291 338.859 155.54L339.301 156.291C338.02 157.087 336.716 157.816 335.412 158.457ZM279.919 157.816C278.637 157.153 277.333 156.424 276.029 155.672L276.471 154.921C277.753 155.672 279.057 156.402 280.316 157.043L279.919 157.816ZM343.08 153.971L342.594 153.241C343.788 152.446 345.003 151.606 346.197 150.722L346.727 151.429C345.489 152.313 344.274 153.175 343.08 153.971ZM272.25 153.33C271.057 152.556 269.819 151.717 268.581 150.833L269.09 150.103C270.327 150.965 271.543 151.805 272.736 152.578L272.25 153.33ZM350.219 148.689L349.666 148.004C350.793 147.098 351.92 146.125 353.025 145.153L353.622 145.816C352.473 146.81 351.346 147.761 350.219 148.689ZM264.979 148.225C263.852 147.363 262.659 146.457 261.465 145.506L262.018 144.821C263.167 145.75 264.338 146.634 265.509 147.518L264.979 148.225ZM356.849 142.81L356.23 142.169C357.269 141.175 358.329 140.136 359.346 139.053L359.987 139.672C358.97 140.755 357.91 141.794 356.849 142.81ZM258.04 142.722C256.913 141.772 255.785 140.821 254.658 139.871L255.233 139.208C256.36 140.158 257.465 141.109 258.614 142.059L258.04 142.722ZM251.321 136.954C250.216 135.981 249.111 135.009 248.006 134.014L248.603 133.351C249.708 134.324 250.813 135.296 251.918 136.269L251.321 136.954ZM363.037 136.423L362.374 135.827C363.081 135.053 363.766 134.258 364.451 133.484L365.114 134.059C364.451 134.854 363.744 135.65 363.037 136.423ZM244.713 131.075C243.608 130.081 242.503 129.108 241.42 128.136L241.995 127.473C243.1 128.445 244.205 129.418 245.31 130.412L244.713 131.075ZM71.8471 127.517L71.0957 127.053C71.8692 125.793 72.6869 124.534 73.5267 123.34L74.256 123.848C73.4162 125.042 72.6206 126.279 71.8471 127.517ZM238.083 125.219C236.956 124.246 235.851 123.296 234.724 122.346L235.299 121.661C236.426 122.611 237.553 123.561 238.658 124.534L238.083 125.219ZM76.8638 120.312L76.1787 119.76C77.0848 118.589 78.0572 117.439 79.0296 116.334L79.6926 116.909C78.7202 118.036 77.7699 119.163 76.8638 120.312ZM231.321 119.561C230.171 118.633 229 117.727 227.851 116.843L228.381 116.136C229.553 117.02 230.724 117.948 231.873 118.854L231.321 119.561ZM224.293 114.235C223.1 113.373 221.884 112.533 220.669 111.716L221.155 110.986C222.37 111.804 223.608 112.666 224.801 113.528L224.293 114.235ZM82.6761 113.727L82.0573 113.108C83.096 112.069 84.1789 111.03 85.2618 110.036L85.8585 110.699C84.7756 111.671 83.7148 112.688 82.6761 113.727ZM217 109.285C215.762 108.489 214.503 107.715 213.243 106.964L213.707 106.213C214.967 106.964 216.226 107.738 217.486 108.533L217 109.285ZM89.1956 107.826L88.6431 107.141C89.7923 106.213 90.9636 105.307 92.1791 104.445L92.6874 105.152C91.5161 106.036 90.3448 106.92 89.1956 107.826ZM209.42 104.776C208.138 104.069 206.834 103.362 205.53 102.677L205.928 101.903C207.232 102.566 208.536 103.295 209.84 104.003L209.42 104.776ZM96.3339 102.699L95.8477 101.947C97.0853 101.152 98.3671 100.378 99.6489 99.6489L100.091 100.422C98.8091 101.13 97.5494 101.903 96.3339 102.699ZM201.618 100.71C200.292 100.069 198.966 99.45 197.618 98.8533L197.972 98.0356C199.32 98.6323 200.668 99.2511 201.994 99.892L201.618 100.71ZM103.958 98.3229L103.561 97.5273C104.865 96.8643 106.213 96.2234 107.561 95.6046L107.914 96.4223C106.588 97.019 105.24 97.6599 103.958 98.3229ZM193.552 97.1295C192.204 96.577 190.811 96.0466 189.441 95.5383L189.751 94.6985C191.121 95.2068 192.513 95.7372 193.883 96.3118L193.552 97.1295ZM111.981 94.7206L111.649 93.9029C113.019 93.3725 114.412 92.8642 115.826 92.378L116.113 93.2178C114.721 93.6819 113.329 94.1902 111.981 94.7206ZM185.286 94.0797C183.894 93.6156 182.48 93.1736 181.087 92.7537L181.331 91.9139C182.723 92.3338 184.159 92.7758 185.552 93.2399L185.286 94.0797ZM120.312 91.9139L120.069 91.0741C121.484 90.6763 122.92 90.2785 124.357 89.947L124.556 90.8089C123.141 91.1183 121.705 91.494 120.312 91.9139ZM176.844 91.5824C175.43 91.2067 173.971 90.8752 172.557 90.5658L172.756 89.7039C174.192 90.0133 175.629 90.3669 177.065 90.7205L176.844 91.5824ZM128.865 89.8365L128.688 88.9746C130.125 88.6873 131.605 88.4442 133.064 88.2232L133.197 89.1072C131.738 89.3061 130.279 89.5713 128.865 89.8365ZM168.247 89.7039C166.789 89.4387 165.33 89.2177 163.894 89.0188L164.026 88.1348C165.463 88.3337 166.943 88.5768 168.402 88.842L168.247 89.7039ZM137.55 88.5326L137.462 87.6486C138.921 87.4939 140.401 87.3613 141.882 87.2729L141.948 88.1569C140.49 88.2453 139.009 88.3779 137.55 88.5326ZM159.54 88.4884C158.081 88.3337 156.601 88.2232 155.142 88.1348L155.186 87.2508C156.645 87.3392 158.126 87.4497 159.606 87.6044L159.54 88.4884ZM146.346 87.958L146.324 87.074C147.805 87.0298 149.286 87.0298 150.766 87.074L150.744 87.958C149.285 87.9359 147.805 87.9359 146.346 87.958Z" fill="#D1E9FF"/>
<path d="M-60.8634 512.83L-65.9243 476.056L-65.4823 475.99C43.5591 460.962 140.136 435.436 221.597 400.098C295.919 367.832 406.927 274.703 455.26 229.95L455.393 229.84H455.569L491.681 229.553V361.887L435.9 306.107C380.297 357.755 313.179 400.85 236.404 434.154C151.849 470.84 52.0013 497.294 -60.3993 512.764L-60.8634 512.83ZM-64.9298 476.785L-60.112 511.836C52.0234 496.366 151.65 469.956 236.006 433.359C312.848 400.032 379.987 356.893 435.569 305.179L435.878 304.892L490.753 359.766V230.437L455.724 230.724C407.303 275.543 296.317 368.628 221.928 400.894C140.534 436.232 44.0011 461.757 -64.9298 476.785Z" fill="#D1E9FF"/>
<path d="M480.896 200.226H350.064L399.922 250.084C347.478 298.659 284.25 339.147 211.453 370.727C129.97 406.087 33.3267 431.635 -75.7368 446.641L-70.7864 482.553C41.57 467.083 141.374 440.652 225.884 403.966C302.925 370.551 369.91 327.5 425.58 275.72L480.896 331.058V200.226Z" fill="#D1E9FF"/>
<path d="M408.275 64.3111L407.59 68.2228L407.391 69.1952C407.259 71.3168 405.182 72.687 402.883 73.9688L399.347 67.3609L401.226 60.974L404.629 59.9795L407.833 63.7365L408.275 64.3111Z" fill="#D28572"/>
<path d="M408.276 64.311L407.59 68.2227C405.38 66.8967 404.121 64.974 403.215 62.2557L407.811 63.7585L408.276 64.311Z" fill="#1B1B43"/>
<path d="M411.701 55.8688C411.016 58.8965 411.635 63.3828 410.353 64.8193C409.204 66.1232 407.038 65.3276 405.756 64.6425C404.032 63.6922 402.662 62.2778 401.668 60.5761C399.369 56.6202 402.64 53.9903 402.64 53.9903L406.883 52.156L411.701 55.8688Z" fill="#D28572"/>
<path d="M405.646 59.8027C405.756 58.1231 404.983 56.6203 406.331 55.7142C412.231 58.0126 411.811 57.3054 415.48 53.239C415.48 53.239 413.579 53.46 411.811 52.1561C410.043 50.8301 405.049 46.83 401.911 53.1285C401.911 53.1285 395.015 55.2722 400.85 62.2558C401.513 60.8414 403.922 60.3994 405.646 59.8027Z" fill="#1B1B43"/>
<path d="M406.182 59.3547C406.327 58.4632 405.721 57.6231 404.83 57.4784C403.938 57.3337 403.098 57.9392 402.954 58.8308C402.809 59.7223 403.414 60.5624 404.306 60.7071C405.197 60.8518 406.038 60.2463 406.182 59.3547Z" fill="#D28572"/>
<path d="M446 54.0344C446.619 56.2886 446.685 58.5649 446.464 60.8412L447.26 67.8911L440.851 66.2778L440.497 61.4158C438.884 59.8025 437.978 55.8024 437.867 55.6256L446 54.0344Z" fill="#D28572"/>
<path d="M470.575 52.2223L459.813 53.9019L417.116 60.5982L416.519 57.4379L458.641 47.8686L469.271 45.4597L470.575 52.2223Z" fill="#FE5B52"/>
<path d="M470.575 52.2223L459.813 53.9019L458.641 47.8686L469.271 45.4597L470.575 52.2223Z" fill="#1B1B43"/>
<path d="M440.851 52.2666C440.851 52.7307 440.232 53.1285 439.481 53.1285C438.729 53.1285 438.11 52.7528 438.11 52.2666C438.11 51.8025 438.729 51.4047 439.481 51.4047C440.232 51.4047 440.851 51.8025 440.851 52.2666Z" fill="#D28572"/>
<path d="M441.647 52.3327C442.403 52.3327 443.017 51.9468 443.017 51.4708C443.017 50.9948 442.403 50.6089 441.647 50.6089C440.89 50.6089 440.276 50.9948 440.276 51.4708C440.276 51.9468 440.89 52.3327 441.647 52.3327Z" fill="#D28572"/>
<path d="M445.492 51.0731C445.492 51.5372 444.873 51.935 444.122 51.935C443.37 51.935 442.751 51.5593 442.751 51.0731C442.751 50.609 443.37 50.2112 444.122 50.2112C444.873 50.2112 445.492 50.5869 445.492 51.0731Z" fill="#D28572"/>
<path d="M441.757 57.7031C441.757 58.786 442.508 59.7142 441.646 59.7142C440.784 59.7142 439.923 59.1396 439.923 58.0567C439.923 56.9738 438.796 55.5152 439.569 55.1395C440.784 54.5649 441.757 56.6202 441.757 57.7031Z" fill="#D28572"/>
<path d="M440.762 65.2613L446.884 64.5762L447.149 66.9188L440.762 65.2613Z" fill="#1B1B43"/>
<path d="M449.249 67.4934C449.249 67.4934 449.249 93.6156 434.42 91.7813C433.447 91.6708 432.519 91.5161 431.591 91.3614C426.618 90.4995 422.331 89.1514 419.104 87.9359C415.126 86.4331 412.762 85.085 412.762 85.085L407.369 69.1951C418.11 71.9134 427.922 74.9632 435.215 78.897L440.011 65.0403L449.249 67.4934Z" fill="#1FC7A2"/>
<path d="M431.591 91.3614C426.618 90.4995 422.331 89.1514 419.104 87.9359L419.414 83.6042C425.513 85.0849 429.778 88.5989 431.591 91.3614Z" fill="#1B1B43"/>
<path d="M435.458 119.915L421.756 112.401L407.391 69.2172C421.049 84.0463 432.453 101.704 435.458 119.915Z" fill="#BF8535"/>
<path d="M439.414 184.181L437.956 200.226H455.282L448.718 192.668L449.006 183.032L439.414 184.181Z" fill="#1B1B43"/>
<path d="M448.397 192.346L444.964 195.631L445.59 196.286L449.024 193.001L448.397 192.346Z" fill="white"/>
<path d="M408.541 114.765L411.17 129.661L435.348 141.109V189.463L452.763 187.717L453.89 144.247C454.044 136.932 450.508 130.036 444.497 125.882L426.419 113.417" fill="#4A7DC9"/>
<path d="M419.303 127.893C421.734 130.5 423.347 133.152 423.966 135.672L418.419 133.086L419.303 127.893Z" fill="#1B1B43"/>
<path d="M412.541 60.753C412.43 61.0845 411.833 61.5707 411.038 61.4602C410.419 61.3939 409.778 60.311 409.778 59.5375C409.778 58.7639 410.286 58.123 410.905 58.123C411.833 58.1451 412.651 60.4657 412.541 60.753Z" fill="#D28572"/>
<path d="M394.242 185.596L390.618 200.27H408.872L402.751 193.044L403.502 185.706L394.242 185.596Z" fill="#1B1B43"/>
<path d="M402.404 192.726L399.224 196.167L399.889 196.782L403.069 193.341L402.404 192.726Z" fill="white"/>
<path d="M420.806 113.727C418.839 138.147 412.585 164.137 406.706 190.833L389.977 190.612C396.319 162.258 398.971 136.136 398.463 113.616L420.806 113.727Z" fill="#4A7DC9"/>
<path d="M407.391 69.195C405.866 71.2503 402.971 70.1895 399.325 67.3607L405.557 118.08C412.518 117.506 419.458 115.826 426.397 113.373L407.391 69.195Z" fill="white"/>
<path d="M412.585 125.219L393.181 133.771C391.347 111.318 387.678 96.6432 386.087 78.7864C385.446 71.6481 399.347 67.3607 399.347 67.3607C404.784 73.9686 408.364 82.0572 410.463 91.2729C411.215 94.5216 411.767 97.925 412.165 101.461C412.983 108.865 413.071 116.821 412.585 125.219Z" fill="#1FC7A2"/>
<path d="M407.391 69.1952C420.386 86.3227 430.773 103.296 435.458 119.915C436.144 102.168 423.591 82.1679 407.391 69.1952Z" fill="#1FC7A2"/>
<path d="M420.408 64.9739L421.845 61.239C421.845 61.239 420.563 56.8633 421.778 56.3108C422.994 55.7583 427.171 55.0069 428.232 54.9185C429.292 54.8301 430.773 53.1726 431.193 53.3936C431.613 53.6146 431.193 56.7086 429.248 56.9075C429.248 56.9075 428.85 63.1838 426.972 62.8744L425.491 68.6204L420.408 64.9739Z" fill="#D28572"/>
<path d="M412.165 101.483C405.8 101.24 397.911 96.9085 393.645 91.1625L410.463 91.2951C411.215 94.5438 411.767 97.9472 412.165 101.483Z" fill="#1B1B43"/>
<path d="M393.181 77.7477L407.723 82.676L419.745 64.2225L427.768 69.3718C427.768 69.3718 420.209 99.6267 406.684 96.7537C394.419 94.1459 391.568 89.9911 391.568 89.9911L393.181 77.7477Z" fill="#1FC7A2"/>
<path d="M407.811 82.8971L393.137 77.9246L393.247 77.5931L407.656 82.4551L419.612 64.1342L419.922 64.3331L407.811 82.8971Z" fill="#1B1B43"/>
<path d="M420.497 64.6866L426.132 66.1231L425.646 68.0016L420.497 64.6866Z" fill="#1B1B43"/>
<path d="M298.814 334.086L300.162 347.346L320.229 343.235L309.776 337.887L306.549 331.544L298.814 334.086Z" fill="#1B1B43"/>
<path d="M309.404 337.732L308.255 340.699L309.038 341.003L310.188 338.035L309.404 337.732Z" fill="white"/>
<path d="M310.461 333.423L296.184 337.467C293.267 316.362 291.919 294.527 289.068 275.145C288.714 272.714 288.339 270.327 287.941 268.007L287.433 266.681L284.604 259.299L289.598 257.443L301.201 253.133C301.643 254.901 302.063 256.78 302.461 258.747C306.328 277.819 308.405 305.51 310.461 333.423Z" fill="#1FC7A2"/>
<path d="M306.328 331.566C305.555 310.196 304.162 283.101 300.052 263.189L300.472 263.101C304.56 283.035 305.975 310.151 306.748 331.544L306.328 331.566Z" fill="#BE443D"/>
<path d="M271.012 339.191L270.393 347.744L265.377 363.324L279.366 353.291L280.206 336.892L271.012 339.191Z" fill="#1B1B43"/>
<path d="M270.639 347.428L270.135 348.099L273.477 350.606L273.981 349.934L270.639 347.428Z" fill="white"/>
<path d="M289.62 256.957C289.62 257.134 289.62 257.288 289.62 257.465C289.62 260.294 289.554 263.079 289.488 265.841C289.399 269.001 289.267 272.095 289.112 275.189C287.897 298.151 284.758 319.433 281.908 341.6L267.874 342.948C270.195 316.074 271.808 292.604 271.498 272.073C271.432 267.874 271.277 263.83 271.056 259.874L289.62 256.957Z" fill="#1FC7A2"/>
<path d="M289.224 269.668L288.259 284.865L288.59 284.886L289.555 269.689L289.224 269.668Z" fill="#1B1B43"/>
<path d="M272.051 337.29L271.631 337.268C273.134 315.544 274.835 290.925 274.128 268.184L274.548 268.161C275.255 290.925 273.554 315.544 272.051 337.29Z" fill="#BE443D"/>
<path d="M302.461 258.747C298.682 261.333 294.35 263.697 289.466 265.819C288.803 266.128 288.118 266.393 287.433 266.681C282.593 268.67 277.267 270.46 271.476 272.051C271.41 267.852 271.255 263.808 271.034 259.852L289.643 256.935C289.643 257.111 289.643 257.266 289.643 257.443L301.245 253.133C301.643 254.901 302.063 256.78 302.461 258.747Z" fill="#BE443D"/>
<path d="M228.249 202.966L225.928 198.193C225.751 197.861 225.641 197.486 225.552 197.11C225.309 195.961 224.624 193.309 223.807 193.729C223.21 194.016 223.718 198.259 223.718 198.259C223.718 198.259 220.889 190.635 219.961 191.077C219.033 191.519 221.574 198.635 221.574 198.635C221.574 198.635 216.889 200.646 218.79 203.762C220.69 206.878 224.558 207.961 224.558 207.961L228.249 202.966Z" fill="#FFBC96"/>
<path d="M221.11 201.022C221.597 201.596 222.26 202.392 223.055 202.546C223.409 202.613 223.63 202.414 223.63 202.06C223.608 201.618 223.342 201.154 223.144 200.756C222.945 200.381 222.746 199.983 222.481 199.651C222.326 199.43 221.95 199.651 222.127 199.872C222.503 200.381 222.856 200.999 223.077 201.596C223.121 201.729 223.21 201.883 223.21 202.038C223.21 202.193 223.254 202.149 223.121 202.127C222.458 202.038 221.818 201.198 221.42 200.712C221.221 200.513 220.934 200.801 221.11 201.022Z" fill="#D28572"/>
<path d="M220.05 202.171C220.536 202.745 221.199 203.541 221.994 203.696C222.348 203.762 222.569 203.563 222.569 203.209C222.547 202.767 222.282 202.303 222.083 201.906C221.884 201.53 221.685 201.132 221.42 200.801C221.265 200.58 220.889 200.801 221.066 201.022C221.442 201.53 221.795 202.149 222.017 202.745C222.061 202.878 222.149 203.033 222.149 203.187C222.149 203.342 222.193 203.298 222.061 203.276C221.398 203.187 220.757 202.348 220.359 201.861C220.182 201.662 219.895 201.95 220.05 202.171Z" fill="#D28572"/>
<path d="M218.9 203.033C219.342 203.541 219.917 204.204 220.624 204.359C220.956 204.425 221.177 204.226 221.155 203.917C221.133 203.519 220.889 203.121 220.713 202.767C220.536 202.458 220.359 202.127 220.138 201.839C219.983 201.618 219.608 201.839 219.784 202.06C220.116 202.502 220.403 203.011 220.624 203.541C220.668 203.651 220.713 203.784 220.735 203.917C220.757 204.027 220.801 204.005 220.668 203.961C220.072 203.828 219.563 203.209 219.188 202.767C219.011 202.546 218.724 202.834 218.9 203.033Z" fill="#D28572"/>
<path d="M297.554 259.852L276.294 265.333C273.045 266.172 269.797 263.962 269.377 260.647L266.946 241.288L266.305 236.227L266.128 234.746L276.581 216.779L283.72 213.84L300.825 221.221L303.146 252.028C303.411 255.653 301.068 258.924 297.554 259.852Z" fill="#4A7DC9"/>
<path d="M270.327 236.249C269.598 238.437 268.426 240.05 266.968 241.266L266.327 236.205L270.327 236.249Z" fill="#1B1B43"/>
<path d="M275.189 235.144C259.586 243.785 238.26 230.547 221.685 208.536L229.066 201.419C247.166 220.757 261.399 229.067 279.498 214.237L275.189 235.144Z" fill="#4A7DC9"/>
<path d="M316.295 241.509C325.002 239.675 311.433 225.464 303.565 218.017C300.493 215.099 296.383 213.53 292.14 213.641L283.742 213.84L310.35 240.094L316.295 241.509Z" fill="#4A7DC9"/>
<path d="M308.008 240.072C307.588 240.934 307.654 241.73 308.339 242.459C309.179 243.365 310.284 244.47 311.61 244.404C312.715 244.36 313.555 245.531 314.66 244.89C315.566 244.36 316.008 243.166 316.339 242.238C316.936 240.492 316.649 238.68 315.102 237.531C313.687 236.492 311.72 235.652 310.063 236.669C309.466 237.023 309.002 237.575 308.671 238.194C308.472 238.592 308.405 239.034 308.295 239.454C308.206 239.675 308.118 239.873 308.008 240.072Z" fill="#FFBC96"/>
<path d="M282.924 223.298C281.267 223.298 279.41 222.879 277.377 222.083L277.51 221.774C283.035 223.961 287.013 223.144 289.709 219.254L289.974 219.453C288.162 222.017 285.841 223.298 282.924 223.298Z" fill="#1B1B43"/>
<path d="M301.311 227.542L301.599 231.453L303.411 233.332C303.831 231.807 302.637 229.221 301.311 227.542Z" fill="#1B1B43"/>
<path d="M270.371 238.68C269.863 238.68 269.355 238.68 268.868 238.658V238.238C270.504 238.26 272.183 238.304 273.819 237.973C274.88 237.752 276.272 237.288 277.377 236.271C277.2 236.161 277.045 236.028 276.913 235.895C276.338 235.321 276.139 234.503 276.427 233.84C276.581 233.464 276.935 233.155 277.355 233.045C277.731 232.934 278.106 232.978 278.371 233.177C278.791 233.464 279.012 234.017 278.924 234.592C278.858 235.011 278.659 235.453 278.283 235.895C278.217 235.984 278.15 236.072 278.062 236.139C278.305 236.227 278.57 236.315 278.858 236.36C281.023 236.757 283.499 235.918 285.731 234.061C285.421 233.818 285.2 233.509 285.068 233.177C284.825 232.58 284.891 231.895 285.267 231.453C285.687 230.945 286.504 230.835 286.99 231.21C287.499 231.608 287.543 232.315 287.344 232.824C287.145 233.332 286.769 233.708 286.416 234.039C287.035 234.371 287.72 234.437 288.007 234.459C289.996 234.592 292.029 233.818 293.444 232.404C293.399 232.359 293.333 232.337 293.289 232.293C292.626 231.785 292.228 230.768 292.692 229.973C292.935 229.553 293.421 229.31 293.952 229.332C294.416 229.354 294.77 229.575 294.946 229.951C295.167 230.437 295.035 231.056 294.571 231.719C294.438 231.917 294.283 232.116 294.129 232.293C294.527 232.448 295.013 232.514 295.609 232.514C297.886 232.492 300.14 231.343 301.51 229.553L301.842 229.796C300.383 231.696 297.996 232.89 295.609 232.934C294.88 232.934 294.306 232.846 293.819 232.625C292.317 234.172 290.129 235.034 287.963 234.879C287.211 234.835 286.571 234.636 286.062 234.326C283.72 236.315 281.068 237.199 278.769 236.779C278.394 236.713 278.04 236.603 277.731 236.47C276.537 237.597 275.012 238.128 273.863 238.371C272.736 238.614 271.565 238.68 270.371 238.68ZM277.753 233.398C277.664 233.398 277.576 233.42 277.487 233.442C277.2 233.531 276.935 233.752 276.824 233.995C276.603 234.481 276.78 235.144 277.222 235.586C277.355 235.719 277.51 235.851 277.708 235.94C277.797 235.829 277.907 235.719 277.996 235.608C278.327 235.21 278.504 234.835 278.548 234.503C278.592 234.172 278.504 233.708 278.172 233.487C278.04 233.442 277.907 233.398 277.753 233.398ZM286.327 231.409C286.062 231.409 285.797 231.52 285.62 231.741C285.355 232.072 285.289 232.603 285.488 233.045C285.62 233.376 285.841 233.619 286.084 233.818C286.106 233.796 286.106 233.796 286.128 233.774C286.46 233.487 286.836 233.133 286.99 232.691C287.123 232.315 287.101 231.807 286.769 231.564C286.637 231.453 286.482 231.409 286.327 231.409ZM293.93 229.752C293.576 229.752 293.245 229.928 293.09 230.194C292.736 230.79 293.068 231.586 293.576 231.984C293.643 232.028 293.709 232.072 293.775 232.116C293.952 231.917 294.129 231.719 294.261 231.498C294.527 231.122 294.792 230.569 294.593 230.149C294.438 229.84 294.107 229.796 293.952 229.774C293.952 229.752 293.93 229.752 293.93 229.752Z" fill="#1B1B43"/>
<path d="M285.576 202.281C285.576 206.171 281.686 212.624 277.797 212.624C273.907 212.624 271.454 208.978 272.051 205.11C272.648 201.397 275.3 198.745 278.791 198.414C281.686 198.171 285.576 199.298 285.576 202.281Z" fill="#1B1B43"/>
<path d="M286.106 215.895C286.106 217.353 285.178 218.724 283.72 219.232C281.907 219.851 279.918 218.9 279.255 217.066C278.283 214.326 277.067 210.856 277.067 210.746L280.67 210.613L284.449 210.48L285.731 214.259L285.907 214.768C286.04 215.121 286.106 215.519 286.106 215.895Z" fill="#FFBC96"/>
<path d="M285.731 214.237C283.896 214.237 281.377 213.53 278.681 212.027L280.67 210.591L284.449 210.458L285.731 214.237Z" fill="#1B1B43"/>
<path d="M283.896 200.933C287.3 206.149 292.118 214.171 278.681 212.005L276.404 209.751L276.559 202.392L283.896 200.933Z" fill="#FFBC96"/>
<path d="M278.062 208.513C277.333 207.099 277.311 205.53 277.708 203.894C280.714 204.005 283.454 203.408 285.068 201.596L283.3 200.115L277.377 200.513L274.482 203.718L273.797 208.005L278.062 208.513Z" fill="#1B1B43"/>
<path d="M272.778 210.846C274.406 208.788 274.057 205.8 271.999 204.172C269.941 202.544 266.953 202.893 265.325 204.951C263.697 207.01 264.046 209.998 266.104 211.625C268.162 213.253 271.15 212.904 272.778 210.846Z" fill="#1B1B43"/>
<path d="M277.023 211.232C278.146 211.232 279.056 210.321 279.056 209.199C279.056 208.076 278.146 207.165 277.023 207.165C275.9 207.165 274.99 208.076 274.99 209.199C274.99 210.321 275.9 211.232 277.023 211.232Z" fill="#FFBC96"/>
<path d="M190.812 372.783L190.082 385.557L209.729 384.739L200.646 378.065L198.547 371.567L190.812 372.783Z" fill="#1B1B43"/>
<path d="M200.396 377.73L196.58 380.706L197.069 381.333L200.885 378.357L200.396 377.73Z" fill="white"/>
<path d="M202.613 375.656L203.254 336.649C203.342 331.213 199.806 326.373 194.591 324.804L166.656 316.406L155.717 316.008L159.231 336.892L185.242 342.506L187.85 375.634H202.613V375.656Z" fill="#1FC7A2"/>
<path d="M162.281 333.047C164.468 333.622 166.767 335.721 167.341 338.66L163.275 337.754L162.281 333.047Z" fill="#BF8535"/>
<path d="M161.861 389.513L163.761 394.728L163.562 403.06L177.11 398.64L171.297 393.115L169.485 386.198L161.861 389.513Z" fill="#1B1B43"/>
<path d="M170.427 392.864L164.177 394.471L164.375 395.242L170.625 393.635L170.427 392.864Z" fill="white"/>
<path d="M173.198 387.612L159.54 392.032C150.567 375.28 144.954 354.13 139.252 324.737C138.7 321.82 138.125 318.815 137.551 315.721L148.512 313.135L157.927 310.903L158.744 315.08L160.358 323.235L173.198 387.612Z" fill="#1FC7A2"/>
<path d="M161.706 389.579C154.7 376.916 148.556 357.534 142.39 328.605L142.7 328.539C148.866 357.445 154.987 376.783 161.993 389.424L161.706 389.579Z" fill="#1B1B43"/>
<path opacity="0.4" d="M169.839 317.179C168.535 319.964 165.021 321.953 160.38 323.212C154.435 324.826 146.656 325.268 139.252 324.715C138.7 321.798 138.125 318.792 137.551 315.698L148.512 313.113L158.744 315.058L169.839 317.179Z" fill="#BF8535"/>
<path d="M191.408 279.587L189.861 276.029C189.861 276.029 190.325 270.128 186.038 270.106C185.64 270.106 185.242 270.217 184.889 270.416C184.204 270.813 182.988 271.609 182.413 272.67C181.949 273.532 182.148 274.615 182.833 275.322L184.955 277.488L185.485 280.007L191.408 279.587Z" fill="#D28572"/>
<path d="M162.214 273.554L166.723 274.637C171.828 275.852 176.623 279.035 180.425 282.659L187.121 289.223L187.386 303.941L170.126 288.958L162.214 273.554Z" fill="#D1E9FF"/>
<path d="M192.557 304.958C192.491 304.98 192.425 304.98 192.358 305.002L191.541 305.179C191.298 305.223 191.077 305.245 190.856 305.267C188.535 305.422 186.391 303.809 185.927 301.466L184.601 279.057L192.358 277.841L195.342 294.947L195.607 296.538L196.115 299.389C196.602 301.908 195.033 304.361 192.557 304.958Z" fill="#D1E9FF"/>
<path d="M174.59 288.118L174.126 292.427L177.065 294.947C177.198 292.67 176.314 290.151 174.59 288.118Z" fill="#1B1B43"/>
<path opacity="0.6" d="M195.585 296.538L195.32 294.947C192.226 295.72 189.95 298.505 189.95 301.82C189.95 303.057 190.281 304.229 190.856 305.267C191.099 305.267 191.32 305.245 191.541 305.179L192.359 305.002C192.425 304.98 192.491 304.98 192.558 304.958C191.917 304.074 191.563 302.991 191.563 301.82C191.541 299.3 193.265 297.157 195.585 296.538Z" fill="#4A7DC9"/>
<path d="M175.607 282.88L173.132 299.057L172.888 300.648L171.253 311.389L171.01 313.002L170.678 315.168C170.303 317.71 168.579 318.925 165.264 319.146C157.639 319.08 148.004 317.643 137.551 315.743L138.435 312.008L138.788 310.439L141.263 299.831L141.617 298.239L145.882 280.007L157.86 273.244L162.214 273.576L175.607 282.88Z" fill="#D1E9FF"/>
<path d="M161.529 281.819C161.264 281.819 160.999 281.797 160.733 281.775C158.236 281.51 156.159 280.118 154.877 277.841L155.164 277.687C156.38 279.874 158.369 281.2 160.756 281.444C163.01 281.665 165.22 280.869 166.546 279.366L166.789 279.587C165.573 281.002 163.606 281.819 161.529 281.819Z" fill="#1B1B43"/>
<path d="M142.81 292.958L145.087 289.62C146.081 292.781 145.153 294.947 142.147 296.052L142.81 292.958Z" fill="#1B1B43"/>
<path opacity="0.6" d="M172.712 299.057C168.8 299.057 165.617 302.24 165.617 306.129C165.617 309.444 167.916 312.251 170.988 313.002L171.231 311.389C168.91 310.748 167.209 308.626 167.209 306.129C167.209 303.124 169.662 300.67 172.689 300.67C172.756 300.67 172.8 300.67 172.866 300.67L173.109 299.079C172.999 299.057 172.866 299.057 172.712 299.057Z" fill="#4A7DC9"/>
<path opacity="0.6" d="M141.639 298.217L141.285 299.809C143.915 300.184 145.926 302.483 145.926 305.223C145.926 308.229 143.473 310.682 140.468 310.682C139.893 310.682 139.318 310.593 138.81 310.417L138.457 311.986C139.097 312.185 139.783 312.273 140.49 312.273C144.401 312.273 147.562 309.091 147.562 305.201C147.518 301.687 144.976 298.77 141.639 298.217Z" fill="#4A7DC9"/>
<path d="M144.733 315.875L147.363 318.748C147.363 318.748 152.932 320.715 151.208 324.649C151.054 325.025 150.788 325.334 150.457 325.577C149.816 326.041 148.6 326.837 147.385 326.925C146.413 326.992 145.506 326.395 145.131 325.467L144.026 322.66L141.926 321.135L144.733 315.875Z" fill="#D28572"/>
<path d="M136.512 301.135L148.291 316.538L141.551 322.704L129.263 309.4C128.644 308.737 128.136 308.008 127.694 307.256C127.429 306.792 127.208 306.284 127.009 305.798C125.837 302.77 126.036 299.3 127.65 296.361C127.738 296.184 127.849 296.007 127.959 295.831L128.467 295.013L134.39 285.532C137.595 280.383 142.678 276.692 148.556 275.189L158.324 272.714L136.512 301.135Z" fill="#D1E9FF"/>
<path d="M148.247 316.56L136.468 301.179L136.578 301.09L148.357 316.472L148.247 316.56Z" fill="#1B1B43"/>
<path opacity="0.6" d="M128.49 294.991L127.981 295.809C127.871 295.985 127.76 296.162 127.672 296.339C129.108 297.334 130.081 298.991 130.081 300.87C130.081 303.013 128.843 304.87 127.031 305.776C127.208 306.284 127.451 306.77 127.716 307.234C130.059 306.085 131.694 303.676 131.694 300.87C131.672 298.416 130.412 296.251 128.49 294.991Z" fill="#4A7DC9"/>
<path d="M165.993 270.261L165.927 270.504L164.866 274.305L164.579 275.344C163.916 277.664 161.374 279.366 159.142 277.709C157.485 276.471 156.38 273.952 157.021 271.985C157.043 271.941 159.032 265.753 159.032 265.753L165.993 270.261Z" fill="#D28572"/>
<path d="M165.927 270.504L164.866 274.305C162.612 273.156 161.131 270.858 160.004 268.029L165.927 270.504Z" fill="#1B1B43"/>
<path d="M168.932 262.769C169.441 266.327 170.391 270.548 165.971 271.454C163.076 272.051 158.081 268.029 158.081 264.382C158.081 260.736 161.816 258.018 164.778 258.084C169.021 258.194 168.203 257.531 168.932 262.769Z" fill="#D28572"/>
<path d="M159.009 264.692C158.899 263.277 159.009 261.973 159.938 261.134C162.987 261.554 166.28 261.31 169.64 260.493C169.706 260.471 169.573 259.587 169.551 259.52C169.419 258.769 169.131 258.062 168.711 257.421C167.076 255.012 163.849 254.769 161.219 255.078C159.363 255.299 157.706 256.404 156.844 258.04C155.827 259.94 156.181 262.04 156.888 264.007C156.976 264.25 157.065 264.515 157.175 264.758C157.197 264.824 157.241 264.913 157.264 264.979L159.009 264.692Z" fill="#1B1B43"/>
<path d="M158.523 267.388C159.536 267.388 160.358 266.567 160.358 265.554C160.358 264.541 159.536 263.719 158.523 263.719C157.51 263.719 156.689 264.541 156.689 265.554C156.689 266.567 157.51 267.388 158.523 267.388Z" fill="#D28572"/>
</g>
<defs>
<clipPath id="clip0">
<rect width="663" height="442" fill="white"/>
</clipPath>
</defs>
</svg>
