<svg width="578" height="419" viewBox="0 0 578 419" fill="none" xmlns="http://www.w3.org/2000/svg">
<path d="M381.586 130.405C362.972 129.174 342.539 135.272 345.267 153.244C347.353 167.205 356.981 180.791 368.107 189.188C389.77 205.663 413.251 195.981 415.979 168.649C416.995 158.326 414.856 146.023 406.993 138.695C402.072 134.149 392.123 131.1 381.586 130.405Z" fill="#E2F1FF"/>
<path d="M522.314 307.558C501.346 277.177 462.246 261.505 426.088 264.019C413.946 264.874 402.553 271.453 390.572 271.828C365.165 181.112 211.974 181.753 161.267 246.153C158.218 250.058 131.688 281.509 139.925 286.163C89.9672 258.349 35.623 290.87 29.6858 346.337C26.7974 373.295 36.1044 396.83 52.0439 417.584H522.046C543.388 384.956 544.672 339.919 522.314 307.558Z" fill="#E2F1FF"/>
<path d="M105.799 288.356C119.546 294.881 134.095 299.695 148.911 303.119C211.011 317.453 275.625 307.451 337.779 298.893C373.509 293.972 409.239 289.051 445.023 284.13C459.946 282.098 476.099 279.423 491.825 279.53C490.595 278.781 489.258 278.086 487.974 277.391C477.865 277.605 467.755 278.888 457.753 280.226C439.995 282.633 422.237 285.093 404.479 287.553C369.283 292.421 334.088 297.556 298.786 301.942C266.853 305.953 234.653 308.949 202.453 307.719C169.986 306.488 137.304 300.658 107.672 286.858C102.109 284.291 96.439 281.242 92.1599 276.695C91.3041 276.802 90.4483 276.963 89.646 277.123C93.9786 282.098 100.183 285.681 105.799 288.356Z" fill="white"/>
<path d="M426.034 263.965C416.995 264.607 408.33 268.405 399.558 270.491C409.293 269.688 419.616 268.298 428.174 263.912C427.479 263.965 426.783 263.912 426.034 263.965Z" fill="white"/>
<path d="M538.467 365.272C536.969 366.449 535.418 367.572 533.867 368.642C520.12 377.681 503.432 380.944 487.279 382.442C470.483 383.993 453.527 384.207 436.732 384.314C366.769 384.795 296.753 377.414 228.395 362.384C194.483 354.949 161.534 344.465 128.051 335.372C98.7391 327.402 66.2181 320.235 35.8902 326.547C35.2484 326.654 34.6065 326.814 33.9647 326.974C33.6972 327.723 33.4833 328.526 33.2158 329.328C60.5484 322.321 91.1972 328.258 117.727 334.891C151.318 343.342 184.106 354.414 217.858 362.223C285.52 377.895 354.948 386.079 424.43 386.507C441.653 386.614 458.93 386.347 476.153 385.437C491.29 384.635 506.748 383.084 521.03 377.574C527.074 375.274 533.011 371.958 538.36 367.947C538.413 366.984 538.467 366.128 538.467 365.272Z" fill="white"/>
<path d="M214.381 210.37C254.979 220.8 298.946 216.574 341.148 214.97C339.758 214.274 338.42 213.633 337.03 213.044C329.809 213.365 322.641 213.74 315.42 214.06C283.007 215.612 250.058 216.574 218.179 209.086C216.948 209.514 215.665 209.942 214.381 210.37Z" fill="white"/>
<path d="M162.551 244.495C222.458 250.967 281.081 267.121 341.309 271.133C357.623 272.202 374.044 272.363 390.358 271.186C390.144 270.491 389.93 269.795 389.716 269.1C376.879 270.009 363.988 270.116 351.097 269.581C287.981 266.854 226.79 249.523 164.209 242.57C163.621 243.212 163.086 243.854 162.551 244.495Z" fill="white"/>
<path d="M123.933 196.463C128.961 219.356 125.163 245.779 102.377 245.779C84.6722 245.779 66.0047 236.365 53.4885 224.17C28.9908 200.314 36.6396 169.451 70.0164 160.946C82.6396 157.737 98.3117 158.112 108.902 166.509C115.481 171.751 121.098 183.519 123.933 196.463Z" fill="#E2F1FF"/>
<path d="M409.4 382.923L411.112 417.156L367.519 417.477L386.507 400.842L387.47 379.233L409.4 382.923Z" fill="#102048"/>
<path d="M480.54 382.923L482.251 417.156L438.658 417.477L457.647 400.842L458.609 379.233L480.54 382.923Z" fill="#102048"/>
<path d="M472.41 206.412C472.41 206.412 497.656 375.595 483.375 383.94C469.361 392.07 456.63 388.914 452.619 382.923C448.607 376.933 426.035 242.623 426.035 242.623C426.035 242.623 412.075 288.516 408.063 291.833C408.063 291.833 424.002 382.923 408.705 386.881C393.407 390.84 362.812 402.179 367.465 287.179C367.465 287.179 376.13 243.96 391.054 202.4L427.961 193.414L472.41 206.412Z" fill="#1FC7A2"/>
<path d="M432.775 283.381C432.4 283.381 432.026 283.114 431.972 282.686L425.34 243.158L411.754 237.007C411.326 236.847 411.165 236.365 411.326 235.937C411.486 235.509 411.968 235.349 412.395 235.563L426.73 242.035L433.523 282.419C433.577 282.847 433.309 283.274 432.882 283.328C432.882 283.381 432.828 283.381 432.775 283.381Z" fill="#6B2B2C"/>
<path d="M459.144 294.026C455.186 294.026 452.405 293.384 452.191 293.384C451.763 293.277 451.495 292.849 451.602 292.421C451.709 291.993 452.137 291.726 452.565 291.833C452.672 291.833 461.712 293.865 470.644 290.442C471.072 290.281 471.5 290.495 471.66 290.923C471.821 291.351 471.607 291.779 471.179 291.939C466.9 293.598 462.567 294.026 459.144 294.026Z" fill="#6B2B2C"/>
<path d="M385.598 292.795C382.014 292.795 378.537 291.993 375.167 290.388C374.793 290.174 374.579 289.747 374.793 289.319C375.007 288.891 375.488 288.73 375.863 288.944C380.891 291.298 385.919 291.833 391.321 290.495C391.749 290.388 392.177 290.656 392.284 291.084C392.391 291.512 392.123 291.94 391.695 292.047C389.609 292.528 387.577 292.795 385.598 292.795Z" fill="#6B2B2C"/>
<path d="M387.068 400.065L385.836 401.814L393.62 407.296L394.852 405.546L387.068 400.065Z" fill="white"/>
<path d="M458.296 400.017L456.906 401.644L464.144 407.829L465.534 406.203L458.296 400.017Z" fill="white"/>
<path d="M371.209 106.923C371.209 106.923 370.086 88.7372 369.07 84.0303C368.053 79.3233 364.577 88.5233 364.577 88.5233C364.577 88.5233 362.33 76.7024 359.977 76.5954C357.623 76.4884 356.981 80.2326 356.981 80.2326C356.981 80.2326 353.879 73.3326 351.847 78.7884C351.847 78.7884 348.102 75.8465 347.995 83.4954C347.995 83.4954 336.763 76.2745 350.884 114.037L363.561 117.567L371.209 106.923Z" fill="#E28B6D"/>
<path d="M441.654 107.351L475.886 151.532L472.41 206.412L391.161 202.4L404.105 127.088L441.654 107.351Z" fill="#4A7DC9"/>
<path d="M441.653 107.351C441.653 107.351 411.058 103.714 389.984 128.8C389.984 128.8 375.542 117.14 371.209 104.677L350.937 113.128C350.937 113.128 361.581 166.991 405.763 166.135L441.653 107.351Z" fill="#4A7DC9"/>
<path d="M398.702 159.288C398.648 159.288 398.595 159.288 398.541 159.288C398.114 159.181 397.793 158.807 397.9 158.326C402.339 134.47 415.658 121.633 415.765 121.526C416.086 121.205 416.621 121.258 416.888 121.579C417.209 121.9 417.155 122.435 416.834 122.702C416.727 122.809 403.783 135.326 399.397 158.646C399.451 159.021 399.076 159.288 398.702 159.288Z" fill="#102048"/>
<path d="M404.426 151.479L388.967 154.474C387.416 154.795 386.507 156.347 386.935 157.791L396.188 188.6C396.563 189.884 397.9 190.686 399.237 190.419L414.802 187.156C416.3 186.835 417.209 185.284 416.781 183.786L407.367 153.244C407.046 152.014 405.763 151.212 404.426 151.479Z" fill="white"/>
<path d="M398.756 191.007C397.365 191.007 396.135 190.098 395.761 188.76L386.507 157.951C386.24 157.095 386.347 156.186 386.828 155.384C387.309 154.635 388.058 154.1 388.914 153.94L404.372 150.944C405.977 150.623 407.528 151.586 408.009 153.137L417.423 183.679C417.691 184.535 417.584 185.444 417.102 186.246C416.674 186.995 415.872 187.53 415.016 187.744L399.451 191.007C399.184 191.007 398.97 191.007 398.756 191.007ZM404.961 151.96C404.854 151.96 404.693 151.96 404.586 152.014L389.128 155.009C388.54 155.116 388.058 155.491 387.737 155.972C387.416 156.507 387.363 157.095 387.523 157.684L396.777 188.493C397.098 189.563 398.167 190.151 399.184 189.937L414.749 186.674C415.337 186.567 415.819 186.193 416.14 185.712C416.46 185.177 416.514 184.588 416.354 184.053L406.94 153.512C406.672 152.549 405.87 151.96 404.961 151.96Z" fill="#4A7DC9"/>
<path d="M394.851 158.967C395.065 160.144 396.456 160.893 398.007 160.625C399.558 160.358 400.628 159.235 400.468 158.058C400.254 156.881 398.863 156.132 397.312 156.4C395.761 156.614 394.637 157.791 394.851 158.967Z" fill="#4A7DC9"/>
<path d="M432.346 167.847C432.346 167.847 400.467 162.551 398.221 164.156C395.974 165.76 400.574 168.381 400.574 168.381C400.574 168.381 392.604 167.526 397.204 172.019C397.204 172.019 393.193 174.747 401.59 179.24C401.59 179.24 388.914 184.695 437.321 195.126L451.067 182.984L432.346 167.847Z" fill="#E28B6D"/>
<path d="M441.654 107.351C441.654 107.351 489.526 114.358 496.479 164.209C496.479 164.209 506.428 214.06 437.321 195.125L432.347 167.846L465.937 168.863L441.654 107.351Z" fill="#4A7DC9"/>
<path d="M453.474 169.772C443.204 169.772 432.935 168.702 432.239 168.649C431.811 168.595 431.49 168.221 431.544 167.74C431.597 167.312 431.972 166.991 432.453 167.044C432.721 167.098 457.86 169.719 468.932 166.83C469.039 164.049 469.146 151.319 460.856 139.926C460.588 139.551 460.695 139.07 461.016 138.802C461.39 138.535 461.872 138.642 462.139 138.963C471.821 152.228 470.537 166.884 470.483 167.526L470.43 168.06L469.895 168.221C465.776 169.398 459.625 169.772 453.474 169.772Z" fill="#102048"/>
<path d="M468.932 199.833C458.342 199.833 438.177 196.035 437.214 195.874C436.786 195.768 436.465 195.393 436.572 194.912C436.679 194.484 437.053 194.216 437.535 194.27C437.802 194.323 464.653 199.351 472.623 197.961C473.051 197.907 473.479 198.174 473.532 198.602C473.586 199.03 473.318 199.458 472.891 199.512C471.821 199.779 470.484 199.833 468.932 199.833Z" fill="#102048"/>
<path d="M431.919 94.7279L431.17 107.726C430.902 111.951 434.112 115.535 438.337 115.802C442.509 116.07 446.147 112.86 446.361 108.635L447.109 95.6372L431.919 94.7279Z" fill="#E28B6D"/>
<path d="M431.758 96.9745L431.17 107.565C438.177 105.961 441.868 98.1512 441.868 98.1512L431.758 96.9745Z" fill="#102048"/>
<path d="M427.854 76.9163C427.854 76.9163 421.381 99.6488 431.009 100.826C440.637 102.002 445.612 97.1349 445.612 97.1349L448.286 84.1372L441.707 78.2535L427.854 76.9163Z" fill="#E28B6D"/>
<path d="M445.558 93.2837C445.291 88.0419 444.007 83.8698 440.744 81.8907C440.37 81.6767 438.765 81.9977 438.284 81.9977C437.267 81.9977 436.305 81.9442 435.342 81.8372C433.363 81.6233 431.384 81.1954 429.565 80.3395C426.142 78.6279 423.895 73.814 426.57 70.4442C427.105 69.8023 427.907 69.1605 428.763 69C428.763 69 428.923 72.5837 434.058 71.7279C439.193 70.8721 451.121 65.1488 453.849 80.2326C453.849 80.2326 462.407 90.9837 449.035 94.8349L445.558 93.2837Z" fill="#102048"/>
<path d="M444.435 91.5721C442.67 93.2838 442.349 95.8512 443.793 97.2954C445.184 98.7396 447.805 98.5256 449.57 96.814C451.335 95.1024 451.656 92.5349 450.212 91.0907C448.821 89.6465 446.2 89.8605 444.435 91.5721Z" fill="#E28B6D"/>
<path d="M257.867 64.079L265.035 17.2232C263.644 17.1162 262.2 17.0627 260.809 17.0627C231.765 17.0627 208.177 40.6511 208.177 69.6953C208.177 98.7395 231.765 122.328 260.809 122.328C289.854 122.328 313.442 98.7395 313.442 69.6953C313.442 61.3511 311.463 53.4348 308.04 46.4279L257.867 64.079Z" fill="white"/>
<path d="M260.809 123.398C231.177 123.398 207.107 99.3278 207.107 69.6952C207.107 40.0627 231.177 15.9929 260.809 15.9929C262.146 15.9929 263.537 16.0464 265.142 16.2069L266.265 16.3139L259.205 62.5278L308.521 45.1441L308.949 45.9999C312.639 53.4348 314.458 61.4045 314.458 69.7487C314.512 99.3278 290.388 123.398 260.809 123.398ZM260.809 18.1325C232.353 18.1325 209.246 41.2394 209.246 69.6952C209.246 98.1511 232.353 121.258 260.809 121.258C289.265 121.258 312.372 98.1511 312.372 69.6952C312.372 62.0464 310.714 54.665 307.451 47.765L256.53 65.7371L263.805 18.2929C262.735 18.1859 261.719 18.1325 260.809 18.1325Z" fill="#4A7DC9"/>
<path d="M320.556 30.2745C312.532 14.0675 296.486 2.62097 277.604 1.12329L270.437 47.9791L320.556 30.2745Z" fill="white"/>
<path d="M269.1 49.5837L276.695 0L277.712 0.0534876C296.433 1.55116 313.228 12.9442 321.572 29.8465L322.107 30.9163L269.1 49.5837ZM278.514 2.3L271.775 46.3744L319.058 29.686C311.035 14.3884 295.684 4.01163 278.514 2.3Z" fill="#4A7DC9"/>
<path d="M205.984 356.179H175.496V339.651C175.496 336.87 177.742 334.623 180.524 334.623H200.956C203.737 334.623 205.984 336.87 205.984 339.651V356.179ZM177.1 354.574H204.379V339.651C204.379 337.779 202.828 336.228 200.956 336.228H180.524C178.651 336.228 177.1 337.779 177.1 339.651V354.574Z" fill="#4A7DC9"/>
<path d="M238.131 350.242H143.35V417.209H238.131V350.242Z" fill="white"/>
<path d="M238.933 418.012H142.547V349.44H238.933V418.012ZM144.152 416.407H237.328V351.044H144.152V416.407Z" fill="#4A7DC9"/>
<path d="M237.81 382.977H143.67V384.581H237.81V382.977Z" fill="#4A7DC9"/>
<path d="M193.736 390.358H187.798C186.515 390.358 185.445 389.288 185.445 388.005V379.66C185.445 378.377 186.515 377.307 187.798 377.307H193.736C195.019 377.307 196.089 378.377 196.089 379.66V388.005C196.089 389.288 195.019 390.358 193.736 390.358ZM187.745 378.858C187.317 378.858 186.996 379.179 186.996 379.607V387.951C186.996 388.379 187.317 388.7 187.745 388.7H193.682C194.11 388.7 194.431 388.379 194.431 387.951V379.607C194.431 379.179 194.11 378.858 193.682 378.858H187.745Z" fill="#4A7DC9"/>
<path d="M126.607 387.042L125.483 417.584H177.849C177.849 417.584 149.018 402.233 147.2 385.544L126.607 387.042Z" fill="#102048"/>
<path d="M162.765 224.705C162.016 270.491 160.091 325.209 153.725 392.123L122.595 390.144L123.825 207.214L162.765 224.705Z" fill="#102048"/>
<path d="M113.984 387.042L112.86 417.584H165.225C165.225 417.584 136.395 402.233 134.577 385.544L113.984 387.042Z" fill="#1F3C88"/>
<path d="M156.293 216.04C155.544 261.826 147.414 325.209 141.049 392.123L109.919 390.144C107.351 318.791 105.212 248.881 111.149 207.214L156.293 216.04Z" fill="#4A7DC9"/>
<path d="M142.6 302.156C137.465 302.156 132.704 300.391 132.437 300.284C132.009 300.123 131.795 299.642 131.956 299.267C132.116 298.84 132.597 298.626 132.972 298.786C133.079 298.84 141.316 301.888 147.414 299.856C147.842 299.695 148.27 299.963 148.43 300.337C148.591 300.765 148.323 301.193 147.949 301.354C146.237 301.942 144.418 302.156 142.6 302.156Z" fill="#102048"/>
<path d="M130.405 113.77L145.489 120.777L146.772 113.877L148.698 103.928L149.5 99.5954L144.151 93.1233L138.802 93.9791L130.405 113.77Z" fill="#F9B384"/>
<path d="M141.851 105.533C141.851 105.533 142.814 110.454 146.772 113.877L148.698 103.928L141.851 105.533Z" fill="#102048"/>
<path d="M158.753 85.5279L158.272 94.8883C158.272 94.8883 162.498 98.0442 158.272 99.5953C158.272 99.5953 155.33 115.321 141.851 105.479L135.753 91.0372L141.049 81.7837L152.281 81.1953L158.753 85.5279Z" fill="#F9B384"/>
<path d="M158.754 85.5279C158.754 85.5279 154.047 83.8698 152.87 88.4698C151.693 93.0698 147.093 93.8721 145.221 92.9093C145.221 92.9093 141.637 92.2674 137.733 99.1674C137.091 100.291 135.54 100.451 134.684 99.4349C132.812 97.2418 130.619 92.6418 132.865 84.1372C136.235 71.086 158.165 72.3698 158.754 85.5279Z" fill="#102048"/>
<path d="M141.637 94.7279C142.654 96.3325 144.633 96.8674 146.023 95.9581C147.414 95.0488 147.681 93.0162 146.665 91.4116C145.649 89.8069 143.67 89.2721 142.279 90.1814C140.888 91.1441 140.567 93.1767 141.637 94.7279Z" fill="#F9B384"/>
<path d="M170.04 230.535C170.04 230.535 176.833 163.781 160.626 129.495C155.384 118.37 144.847 111.202 132.705 109.17C128.372 108.474 118.905 110.453 116.177 120.402C110.668 140.3 103.072 221.335 103.072 221.335L170.04 230.535Z" fill="#1FC7A2"/>
<path d="M191.154 146.053L159.623 200.666L200.617 224.334L232.148 169.722L191.154 146.053Z" fill="white"/>
<path d="M200.956 225.4L158.54 200.902L190.846 144.9L233.263 169.398L200.956 225.4ZM160.733 200.367L200.367 223.26L231.123 170.039L191.488 147.146L160.733 200.367Z" fill="#4A7DC9"/>
<path d="M194.177 159.78L193.163 161.664L217.511 174.775L218.526 172.891L194.177 159.78Z" fill="#4A7DC9"/>
<path d="M189.631 168.606L188.616 170.49L212.965 183.6L213.979 181.717L189.631 168.606Z" fill="#4A7DC9"/>
<path d="M177.062 190.002L176.047 191.886L200.396 204.996L201.411 203.112L177.062 190.002Z" fill="#4A7DC9"/>
<path d="M197.746 176.779C205.556 177.26 213.846 177.849 214.916 178.223C216.949 178.972 217.216 180.898 213.258 181.807C213.258 181.807 220.8 183.465 214.809 185.765C214.809 185.765 217.911 188.44 209.942 191.167C209.942 191.167 215.986 195.126 199.191 197.051L188.974 198.014C187.209 198.174 185.498 198.281 183.732 198.388L190.9 176.084C193.146 176.405 195.446 176.672 197.746 176.779Z" fill="#F9B384"/>
<path d="M123.344 133.614L146.826 127.463C146.826 127.463 150.891 143.135 146.451 163.3L169.291 171.109C176.298 173.516 183.519 175.174 190.9 176.084L183.733 198.388C175.495 198.816 167.258 198.388 159.128 197.051C146.772 194.965 131.421 191.221 126.34 185.016C117.3 173.998 119.6 152.87 123.344 133.614Z" fill="#1FC7A2"/>
<path d="M182.93 199.244C177.849 199.244 148.804 198.977 136.342 192.719C123.772 186.46 113.288 177.207 122.542 133.453C122.649 133.026 123.076 132.758 123.504 132.812C123.932 132.919 124.2 133.346 124.146 133.774C115.16 176.458 124.681 185.07 137.09 191.274C149.179 197.319 178.597 197.586 183.09 197.64L189.723 176.886C179.721 176.298 151.104 166.991 149.821 166.563L149.393 166.402L149.286 165.974C149.179 165.439 146.076 153.298 149.553 136.449C149.66 136.021 150.035 135.753 150.516 135.807C150.944 135.914 151.211 136.342 151.158 136.77C148.109 151.533 150.302 162.872 150.783 165.119C154.581 166.349 182.449 175.281 190.632 175.281C190.686 175.281 190.739 175.281 190.846 175.281H191.969L184.321 199.191H183.732C183.572 199.244 183.358 199.244 182.93 199.244Z" fill="#0A8368"/>
<path d="M577.247 416.46H0V418.6H577.247V416.46Z" fill="#102048"/>
</svg>
