<svg width="616" height="616" viewBox="0 0 616 616" fill="none" xmlns="http://www.w3.org/2000/svg">
<path d="M181.997 350.627L181.474 350.073L184.831 346.87L185.354 347.424L181.997 350.627ZM188.681 344.252L188.126 343.697C189.204 342.619 190.313 341.51 191.36 340.432L191.915 340.956C190.868 342.065 189.759 343.174 188.681 344.252ZM195.087 337.568L194.533 337.044C195.549 335.936 196.596 334.765 197.582 333.595L198.167 334.088C197.151 335.258 196.104 336.428 195.087 337.568ZM201.155 330.546L200.57 330.053C201.524 328.882 202.51 327.681 203.465 326.449L204.081 326.911C203.095 328.174 202.11 329.375 201.155 330.546ZM206.853 323.246L206.237 322.784C207.13 321.583 208.054 320.32 208.947 319.057L209.563 319.488C208.67 320.782 207.746 322.045 206.853 323.246ZM212.212 315.7L211.565 315.269C212.428 314.006 213.29 312.712 214.122 311.419L214.768 311.85C213.906 313.144 213.074 314.437 212.212 315.7ZM254.377 310.372C252.96 310.372 251.513 310.094 250.219 309.571L250.496 308.862C251.698 309.355 253.022 309.602 254.346 309.602C254.531 309.571 254.685 309.602 254.839 309.602L254.87 310.372C254.747 310.372 254.531 310.372 254.377 310.372ZM259.49 309.047L259.09 308.37C260.352 307.63 261.43 306.552 262.17 305.259L262.847 305.628C262.046 307.076 260.876 308.246 259.49 309.047ZM217.232 307.938L216.586 307.538C217.386 306.244 218.187 304.92 218.988 303.596L219.635 303.996C218.865 305.32 218.064 306.645 217.232 307.938ZM246.338 306.86C245.291 305.752 244.46 304.396 243.813 302.856L244.521 302.548C245.137 303.996 245.938 305.259 246.924 306.306L246.338 306.86ZM264.141 301.07L263.371 301.039V300.824C263.371 299.684 263.124 298.544 262.693 297.559C262.57 297.312 262.447 297.066 262.324 296.82L263.001 296.45C263.155 296.727 263.278 296.974 263.402 297.251C263.894 298.329 264.141 299.561 264.141 300.824V301.07ZM222.284 300.269L221.698 299.776C222.684 298.575 223.793 297.466 224.994 296.45L225.487 297.035C224.316 298.021 223.238 299.13 222.284 300.269ZM242.612 298.329C242.519 297.59 242.488 296.85 242.488 296.111C242.488 295.31 242.55 294.479 242.642 293.647L243.412 293.74C243.32 294.54 243.258 295.341 243.258 296.111C243.258 296.82 243.289 297.559 243.382 298.236L242.612 298.329ZM229.152 294.325L228.752 293.678C230.045 292.877 231.462 292.138 232.91 291.522L233.218 292.23C231.77 292.846 230.415 293.555 229.152 294.325ZM259.336 293.555C258.227 292.692 256.903 291.953 255.394 291.368L255.671 290.66C257.211 291.276 258.597 292.046 259.798 292.939L259.336 293.555ZM237.499 290.721L237.283 289.982C238.792 289.582 240.332 289.274 241.872 289.089L241.965 289.859C240.456 290.044 238.946 290.321 237.499 290.721ZM251.051 290.105C249.603 289.828 248.063 289.674 246.523 289.643L246.554 288.873C248.156 288.904 249.696 289.089 251.205 289.366L251.051 290.105ZM244.46 289.304L243.72 289.058C244.244 287.61 244.922 286.163 245.753 284.838L246.4 285.239C245.63 286.532 244.983 287.918 244.46 289.304ZM249.172 281.604L248.618 281.081C248.833 280.834 249.08 280.588 249.295 280.372C250.158 279.51 251.112 278.709 252.098 277.97L252.56 278.586C251.574 279.294 250.65 280.095 249.819 280.896C249.603 281.142 249.388 281.389 249.172 281.604ZM256.472 276.245L256.133 275.568C257.519 274.89 258.997 274.305 260.476 273.843L260.691 274.582C259.244 275.013 257.827 275.568 256.472 276.245ZM265.157 273.412L264.972 272.672C266.482 272.272 267.96 271.872 269.438 271.471L269.654 272.21C268.176 272.611 266.666 273.042 265.157 273.412ZM274.058 270.886L273.843 270.147C275.321 269.685 276.8 269.192 278.216 268.699L278.463 269.438C277.015 269.931 275.537 270.424 274.058 270.886ZM282.806 267.837L282.528 267.128C283.976 266.574 285.393 265.989 286.779 265.373L287.087 266.081C285.701 266.666 284.253 267.252 282.806 267.837ZM291.306 264.141L290.968 263.432L295.126 261.4L295.464 262.077L291.306 264.141ZM299.622 260.106L299.284 259.428L303.442 257.396L303.78 258.073L299.622 260.106ZM307.938 256.071L307.6 255.394L311.758 253.361L312.096 254.038L307.938 256.071ZM316.224 252.036L315.885 251.359L320.043 249.326L320.382 250.004L316.224 252.036ZM324.54 248.002L324.201 247.324L328.359 245.291L328.698 245.969L324.54 248.002Z" fill="#91C4FF"/>
<path d="M310.341 104.812C310.341 104.966 310.341 105.12 310.372 105.274H411.642C411.365 96.9276 404.127 90.244 395.195 90.244C392.33 90.244 389.651 90.9216 387.31 92.1228C387.433 85.624 384.322 79.4024 378.563 76.076C369.939 71.0864 358.635 74.4744 353.368 83.6528C351.767 86.4248 350.904 89.4124 350.72 92.3692C346.5 90.4288 341.295 89.2892 335.628 89.2892C321.644 89.2892 310.341 96.25 310.341 104.812Z" fill="#EBEBFF"/>
<path d="M141.896 341.418H58.3969V341.11C58.6125 334.057 64.6492 328.513 72.1644 328.513C74.2896 328.513 76.4149 328.975 78.3244 329.899C78.386 324.478 81.158 319.55 85.624 316.963C88.9504 315.022 92.9236 314.53 96.7429 315.546C100.901 316.655 104.443 319.396 106.66 323.277C107.892 325.433 108.632 327.743 108.847 330.114C112.389 328.544 116.578 327.743 120.952 327.743C132.532 327.743 141.926 333.564 141.926 340.741C141.926 340.895 141.926 341.018 141.896 341.172V341.418ZM58.982 340.864H141.341C141.341 340.833 141.341 340.802 141.341 340.771C141.341 333.934 132.194 328.359 120.952 328.359C116.516 328.359 112.266 329.221 108.724 330.854L108.354 331.038L108.324 330.607C108.17 328.143 107.43 325.802 106.168 323.585C104.012 319.858 100.624 317.209 96.6197 316.131C92.9237 315.146 89.1352 315.608 85.932 317.486C81.4968 320.074 78.8173 325.002 78.9097 330.392V330.884L78.4784 330.669C76.538 329.683 74.3512 329.16 72.1644 329.16C65.0804 329.098 59.3516 334.242 58.982 340.864Z" fill="#91C4FF"/>
<path d="M305.166 333.102C305.166 342.927 313.144 350.935 323 350.935H520.92C530.746 350.935 538.754 342.958 538.754 333.102V212.674H305.166V333.102Z" fill="white"/>
<path d="M292.939 243.412C295.68 234.665 304.304 227.951 313.729 227.242C323.154 226.534 332.794 231.862 336.921 240.117C341.942 240.055 346.9 242.858 349.334 247.108C351.767 251.359 351.613 256.872 348.902 260.968C354.878 262.016 360.237 265.927 362.886 271.225C365.534 276.522 365.38 283.021 362.516 288.165C369.107 284.808 377.516 285.116 383.83 288.935C390.144 292.754 394.117 299.93 393.901 307.107C397.998 300.67 405.852 296.666 413.675 297.035C421.498 297.405 428.952 302.086 432.401 308.862C436.066 297.898 445.861 289.027 457.411 286.194C468.992 283.36 481.958 286.656 490.644 294.602C503.672 296.635 513.159 310.772 509.771 323.092C516.793 328.913 520.397 338.369 518.918 347.208C517.44 356.048 510.972 363.933 502.379 367.29L278.247 367.136L259.151 281.635L292.939 243.412Z" fill="#D1E9FF"/>
<g opacity="0.8">
<path opacity="0.8" d="M289.397 271.81C292.046 263.063 300.392 256.318 309.509 255.609C318.626 254.901 327.928 260.229 331.901 268.453C336.767 268.391 341.541 271.194 343.882 275.414C346.223 279.664 346.069 285.177 343.451 289.274C349.241 290.29 354.416 294.233 356.972 299.53C359.528 304.828 359.374 311.327 356.602 316.47C362.978 313.113 371.109 313.421 377.177 317.209C383.275 321.029 387.125 328.205 386.879 335.381C390.852 328.944 398.429 324.94 405.975 325.279C413.521 325.618 420.728 330.33 424.085 337.106C427.627 326.141 437.083 317.271 448.263 314.407C459.444 311.573 471.979 314.838 480.357 322.784C492.954 324.817 502.102 338.954 498.806 351.274C505.613 357.095 509.062 366.551 507.646 375.391C506.229 384.23 499.946 392.115 491.66 395.472L275.106 395.503L256.718 310.002L289.397 271.81Z" fill="white"/>
</g>
<path opacity="0.7" d="M461.538 216.555C396.673 277.57 350.658 294.017 292.723 299.9L288.873 361.5L349.703 382.29C402.833 380.75 453.838 303.842 485.346 237.838L461.538 216.555Z" fill="#FFF2E0"/>
<path d="M470.686 217.356C460.152 229.83 444.229 241.78 425.471 257.888L451.066 247.447C447.925 252.652 443.366 259.921 440.779 263.063C446.693 260.352 456.179 254.346 459.321 251.174C459.321 255.609 453.992 263.032 451.651 267.067C465.296 255.394 477.739 241.102 481.743 228.598L470.686 217.356Z" fill="#FFA121"/>
<path opacity="0.4" d="M473.673 217.972C467.421 226.257 458.089 234.203 447.062 244.952L462 237.868C460.121 241.318 457.411 246.123 455.902 248.186C459.351 246.338 464.895 242.334 466.774 240.209C466.713 243.104 463.571 248.002 462.154 250.681C470.193 242.889 477.523 233.433 479.987 225.21L473.673 217.972Z" fill="white"/>
<path d="M376.807 260.352C376.9 262.293 376.807 265.527 374.867 266.666C371.664 268.514 369.107 264.018 367.937 261.738C366.52 259.028 366.89 255.671 370.062 254.439C374.282 252.837 376.653 256.749 376.807 260.352Z" fill="#D1E9FF"/>
<path d="M529.298 318.903C529.39 320.844 529.298 324.078 527.358 325.217C524.154 327.065 521.598 322.568 520.428 320.289C519.011 317.579 519.38 314.222 522.553 312.99C526.772 311.388 529.144 315.3 529.298 318.903Z" fill="#D1E9FF"/>
<path d="M359.713 241.256C361.21 241.256 362.424 240.043 362.424 238.546C362.424 237.049 361.21 235.836 359.713 235.836C358.216 235.836 357.003 237.049 357.003 238.546C357.003 240.043 358.216 241.256 359.713 241.256Z" fill="#D1E9FF"/>
<path d="M498.607 290.829C500.633 289.822 501.459 287.363 500.452 285.338C499.445 283.312 496.986 282.485 494.96 283.492C492.934 284.499 492.108 286.958 493.115 288.984C494.122 291.01 496.581 291.836 498.607 290.829Z" fill="#D1E9FF"/>
<path d="M520.89 351.305H322.969C312.928 351.305 304.766 343.143 304.766 333.102V212.305H539.092V333.102C539.092 343.143 530.93 351.305 520.89 351.305ZM305.536 213.075V333.102C305.536 342.712 313.359 350.535 322.969 350.535H520.89C530.499 350.535 538.322 342.712 538.322 333.102V213.075H305.536Z" fill="#91C4FF"/>
<path d="M520.89 166.043H322.969C313.144 166.043 305.136 174.02 305.136 183.876V212.705H538.692V183.876C538.723 174.02 530.715 166.043 520.89 166.043Z" fill="white"/>
<path d="M539.092 213.075H304.766V183.876C304.766 173.835 312.928 165.673 322.969 165.673H520.89C530.93 165.673 539.092 173.835 539.092 183.876V213.075ZM305.536 212.305H538.322V183.876C538.322 174.267 530.499 166.443 520.89 166.443H322.969C313.359 166.443 305.536 174.267 305.536 183.876V212.305Z" fill="#91C4FF"/>
<path d="M338.24 191.308C339.312 186.023 335.898 180.87 330.613 179.797C325.329 178.725 320.176 182.139 319.103 187.424C318.03 192.708 321.445 197.862 326.729 198.934C332.014 200.007 337.167 196.592 338.24 191.308Z" fill="#D1E9FF"/>
<path d="M364.354 196.265C368.167 192.452 368.167 186.27 364.354 182.457C360.541 178.645 354.359 178.645 350.546 182.458C346.734 186.27 346.734 192.452 350.546 196.265C354.359 200.078 360.541 200.078 364.354 196.265Z" fill="white"/>
<path d="M357.465 199.522C351.859 199.522 347.301 194.964 347.301 189.358C347.301 183.753 351.859 179.194 357.465 179.194C363.071 179.194 367.629 183.753 367.629 189.358C367.629 194.964 363.071 199.522 357.465 199.522ZM357.465 179.995C352.291 179.995 348.071 184.215 348.071 189.389C348.071 194.564 352.291 198.783 357.465 198.783C362.639 198.783 366.859 194.564 366.859 189.389C366.859 184.215 362.639 179.995 357.465 179.995Z" fill="#91C4FF"/>
<path d="M431.816 198.691H392.916C387.772 198.691 383.583 194.502 383.583 189.359C383.583 184.215 387.772 180.026 392.916 180.026H431.816C436.96 180.026 441.148 184.215 441.148 189.359C441.148 194.533 436.96 198.691 431.816 198.691Z" fill="white"/>
<path d="M431.816 199.091H392.916C387.556 199.091 383.214 194.749 383.214 189.389C383.214 184.03 387.556 179.687 392.916 179.687H431.816C437.175 179.687 441.518 184.03 441.518 189.389C441.518 194.718 437.175 199.091 431.816 199.091ZM392.916 180.427C387.988 180.427 383.984 184.431 383.984 189.359C383.984 194.287 387.988 198.291 392.916 198.291H431.816C436.744 198.291 440.748 194.287 440.748 189.359C440.748 184.431 436.744 180.427 431.816 180.427H392.916Z" fill="#91C4FF"/>
<path d="M511.218 144.791C495.633 158.435 468.714 149.041 460.367 159.944L484.268 178.856L511.218 144.791Z" fill="#4A7DC9"/>
<path d="M460.337 159.944C459.135 163.117 459.782 166.69 462.031 169.277L478.971 188.65L484.237 178.856L460.337 159.944Z" fill="#D1E9FF"/>
<path d="M546.546 172.788C536.844 191.114 552.151 215.138 543.466 225.764L519.565 206.853L546.546 172.788Z" fill="#4A7DC9"/>
<path d="M543.466 225.764C540.632 227.643 536.998 227.858 534.01 226.257L511.249 214.214L519.565 206.822L543.466 225.764Z" fill="#D1E9FF"/>
<path d="M558.681 121.321L537.429 129.144L555.971 143.805L558.681 121.321Z" fill="#1B1B43"/>
<path d="M555.971 143.805C553.014 177.47 528.127 208.855 497.943 226.288L470.439 204.512C481.989 168.168 503.487 142.173 537.46 129.114L555.971 143.805Z" fill="#C5E3FF"/>
<path d="M470.408 204.543L458.489 212.797L492.615 239.84L497.943 226.318L470.408 204.543Z" fill="#4A7DC9"/>
<path d="M530.963 170.921C537.972 170.087 542.979 163.729 542.146 156.719C541.312 149.709 534.953 144.702 527.943 145.536C520.934 146.37 515.927 152.728 516.76 159.738C517.594 166.748 523.953 171.755 530.963 170.921Z" fill="white"/>
<path d="M530.407 167.306L530.314 166.536C531.054 166.443 531.762 166.289 532.44 166.012L532.717 166.721C531.978 167.029 531.208 167.244 530.407 167.306ZM528.004 167.244C527.204 167.121 526.434 166.875 525.694 166.567L526.002 165.858C526.68 166.166 527.388 166.382 528.097 166.474L528.004 167.244ZM534.842 165.581L534.38 164.965C534.965 164.534 535.489 164.01 535.951 163.425L536.567 163.918C536.074 164.534 535.489 165.119 534.842 165.581ZM523.662 165.304C523.046 164.78 522.491 164.195 522.029 163.548L522.645 163.117C523.076 163.702 523.569 164.257 524.154 164.719L523.662 165.304ZM537.522 162.47L536.844 162.101C537.183 161.454 537.429 160.745 537.583 160.037L538.323 160.191C538.168 160.992 537.891 161.762 537.522 162.47ZM520.89 161.392C520.612 160.653 520.428 159.852 520.366 159.051L521.136 158.99C521.198 159.729 521.352 160.437 521.629 161.146L520.89 161.392ZM537.768 157.85C537.737 157.111 537.583 156.372 537.368 155.694L538.107 155.448C538.353 156.218 538.507 157.019 538.538 157.819L537.768 157.85ZM521.228 156.803L520.458 156.68C520.612 155.879 520.859 155.109 521.198 154.401L521.906 154.739C521.598 155.355 521.352 156.064 521.228 156.803ZM536.413 153.692C536.012 153.076 535.52 152.522 534.965 152.029L535.489 151.444C536.105 151.967 536.628 152.583 537.06 153.261L536.413 153.692ZM523.107 152.861L522.522 152.368C523.046 151.752 523.662 151.197 524.308 150.766L524.74 151.413C524.124 151.783 523.6 152.275 523.107 152.861ZM533.148 150.797C532.501 150.458 531.793 150.243 531.054 150.089L531.208 149.319C532.008 149.473 532.778 149.75 533.487 150.089L533.148 150.797ZM526.711 150.397L526.464 149.657C527.234 149.38 528.004 149.226 528.805 149.165L528.867 149.935C528.128 149.996 527.419 150.15 526.711 150.397Z" fill="#91C4FF"/>
<path d="M466.497 238.361L465.881 237.868C464.988 237.16 464.834 235.866 465.542 234.973L489.504 204.728C490.213 203.834 491.506 203.68 492.4 204.389L493.016 204.882C493.909 205.59 494.063 206.884 493.354 207.777L469.392 238.022C468.714 238.916 467.39 239.07 466.497 238.361Z" fill="#1B1B43"/>
<path d="M508.939 502.04H504.319V501.27H508.939V502.04ZM499.699 502.04H495.079V501.27H499.699V502.04ZM490.459 502.04H485.839V501.27H490.459V502.04ZM481.219 502.04H476.599V501.27H481.219V502.04ZM471.979 502.04H467.359V501.27H471.979V502.04ZM462.739 502.04H458.119V501.27H462.739V502.04ZM453.499 502.04H448.879V501.27H453.499V502.04ZM444.259 502.04H439.639V501.27H444.259V502.04ZM435.019 502.04H430.399V501.27H435.019V502.04ZM425.779 502.04H421.159V501.27H425.779V502.04ZM416.539 502.04C414.938 502.04 413.367 501.763 411.889 501.239L412.135 500.5C413.552 500.993 415.03 501.239 416.539 501.239V502.04ZM509.494 502.04L509.463 501.27C510.972 501.208 512.451 500.931 513.837 500.408L514.114 501.116C512.635 501.67 511.065 501.978 509.494 502.04ZM407.7 499.022C406.437 498.067 405.359 496.896 404.466 495.603L405.113 495.172C405.975 496.404 406.991 497.512 408.193 498.406L407.7 499.022ZM518.21 498.744L517.717 498.159C518.888 497.204 519.904 496.096 520.705 494.833L521.352 495.264C520.52 496.558 519.442 497.759 518.21 498.744ZM402.464 491.322C402.094 490.028 401.909 488.642 401.909 487.287V486.671H402.679V487.287C402.679 488.58 402.864 489.874 403.203 491.106L402.464 491.322ZM523.261 490.921L522.522 490.736C522.799 489.628 522.953 488.457 522.953 487.287V486.24H523.723V487.287C523.693 488.488 523.539 489.72 523.261 490.921ZM402.679 482.02H401.909V477.4H402.679V482.02ZM523.693 481.62H522.923V477H523.693V481.62ZM402.679 472.78H401.909V468.16H402.679V472.78ZM523.693 472.38H522.923V467.76H523.693V472.38ZM402.679 463.54H401.909V458.92H402.679V463.54ZM523.693 463.14H522.923V458.52H523.693V463.14ZM402.679 454.3H401.909V449.68H402.679V454.3ZM523.693 453.9H522.923V449.28H523.693V453.9ZM402.679 445.06H401.909V440.44H402.679V445.06ZM523.693 444.66H522.923V440.04H523.693V444.66ZM402.679 435.82H401.909V432.74C401.909 432.216 401.94 431.693 402.002 431.169L402.772 431.262C402.71 431.754 402.679 432.247 402.679 432.771V435.82ZM523.693 435.42H522.923V432.74C522.923 432.093 522.892 431.477 522.799 430.861L523.569 430.769C523.662 431.416 523.693 432.093 523.693 432.771V435.42ZM403.911 426.919L403.203 426.611C403.85 425.163 404.743 423.839 405.821 422.699L406.375 423.223C405.39 424.301 404.558 425.564 403.911 426.919ZM521.506 426.58C520.828 425.225 519.966 423.993 518.919 422.946L519.473 422.391C520.582 423.531 521.506 424.824 522.214 426.241L521.506 426.58ZM409.948 420.451L409.579 419.773C410.965 419.003 412.474 418.48 414.045 418.202L414.168 418.972C412.689 419.219 411.273 419.742 409.948 420.451ZM515.284 420.266C513.96 419.588 512.512 419.126 511.034 418.88L511.157 418.11C512.728 418.356 514.237 418.818 515.654 419.558L515.284 420.266ZM506.475 418.726H501.855V417.956H506.475V418.726ZM497.235 418.726H492.615V417.956H497.235V418.726ZM487.995 418.726H483.375V417.956H487.995V418.726ZM478.755 418.726H474.135V417.956H478.755V418.726ZM469.515 418.726H464.895V417.956H469.515V418.726ZM460.275 418.726H455.655V417.956H460.275V418.726ZM451.035 418.726H446.415V417.956H451.035V418.726ZM441.795 418.726H437.175V417.956H441.795V418.726ZM432.555 418.726H427.935V417.956H432.555V418.726ZM423.315 418.726H418.695V417.956H423.315V418.726Z" fill="#91C4FF"/>
<path d="M500.5 488.704H402.217C395.934 488.704 390.852 483.622 390.852 477.338V414.476C390.852 408.192 395.934 403.11 402.217 403.11H500.5C506.783 403.11 511.865 408.192 511.865 414.476V477.338C511.865 483.591 506.783 488.704 500.5 488.704Z" fill="#D1E9FF"/>
<path d="M424.978 453.099H411.888V479.71H424.978V453.099Z" fill="white"/>
<path d="M446.908 453.961H433.818V479.71H446.908V453.961Z" fill="white"/>
<path d="M468.868 440.502H455.778V479.71H468.868V440.502Z" fill="white"/>
<path d="M490.798 428.983H477.708V479.71H490.798V428.983Z" fill="white"/>
<path d="M486.517 415.153H416.2V418.233H486.517V415.153Z" fill="white"/>
<path d="M202.079 319.55C199.861 311.819 195.149 305.043 188.65 300.269L186.063 298.36L188.28 344.005L205.344 330.792L202.079 319.55Z" fill="#1FC7A2"/>
<path d="M256.934 374.744L253.145 367.321C252.19 365.442 250.466 364.056 248.433 363.471L237.283 360.391L208.578 342.065L205.344 330.823L188.28 344.036L188.434 347.239C188.742 353.676 192.685 359.374 198.598 361.931L226.472 373.943L239.716 374.251C243.998 375.729 245.445 379.394 248.094 378.07C249.08 377.577 245.23 371.232 245.23 371.232L251.636 378.286L256.934 374.744Z" fill="#FFBC96"/>
<path d="M208.248 341.79L204.5 346.204L205.181 346.782L208.929 342.368L208.248 341.79Z" fill="#D28572"/>
<path d="M207.007 393.224L227.889 391.376C241.472 390.174 253.299 401.139 253.946 415.584L258.658 518.395L229.86 519.288L207.007 393.224Z" fill="#6599D6"/>
<path d="M232.201 518.272L233.094 546.669H275.752L254.716 529.175L253.392 515.469L232.201 518.272Z" fill="#1B1B43"/>
<path d="M254.172 528.481L245.193 535.399L246.264 536.789L255.243 529.872L254.172 528.481Z" fill="white"/>
<path d="M222.499 518.272L223.362 546.669H266.051L245.014 529.175L243.69 515.469L222.499 518.272Z" fill="#D1E9FF"/>
<path d="M244.468 528.475L235.489 535.393L236.56 536.783L245.539 529.866L244.468 528.475Z" fill="white"/>
<path d="M254.285 521.074H218.957L193.794 443.643L190.282 432.802L139.955 432.586C136.844 432.555 133.857 431.108 131.362 428.982C126.003 424.486 123.539 417.371 124.524 410.441L128.929 378.963L203.68 388.696C217.848 390.544 229.306 401.139 232.232 415.153L254.285 521.074Z" fill="#4A7DC9"/>
<path d="M200.631 432.771L193.794 443.612L190.252 432.771H200.631Z" fill="#1B1B43"/>
<path d="M191.391 373.234C191.022 374.682 190.652 376.16 190.252 377.608L187.603 388.419L152.737 386.971L127.635 385.924C120.982 385.647 116.147 379.456 117.502 372.957L129.206 316.624C130.715 307.045 138.477 299.684 148.148 298.668L176.792 295.711L186.063 298.36C195.118 303.226 195.118 312.004 195.549 317.794C197.459 343.02 195.118 358.296 191.391 373.234Z" fill="#1FC7A2"/>
<path opacity="0.3" d="M167.737 371.417C167.367 372.865 190.652 376.13 190.252 377.608L187.603 388.419L152.737 386.971C140.54 377.793 135.982 357.773 131.547 332.732L167.737 371.417Z" fill="#1B1B43"/>
<path d="M160.807 312.004C162.347 313.636 164.072 315.084 166.012 316.131C167.952 317.209 170.047 317.979 172.234 318.226C174.39 318.503 176.669 318.318 178.578 317.302C180.519 316.347 181.751 314.314 181.997 312.096L182.336 312.127C182.336 313.267 182.028 314.437 181.474 315.484C180.888 316.532 179.995 317.394 178.979 317.979C176.915 319.18 174.451 319.396 172.141 319.119C169.831 318.811 167.614 317.979 165.642 316.809C163.671 315.638 161.946 314.068 160.53 312.25L160.807 312.004Z" fill="#1B1B43"/>
<path d="M196.319 346.438L195.672 346.377C196.319 337.506 195.672 326.572 193.763 313.944L194.41 313.852C196.319 326.542 196.966 337.506 196.319 346.438Z" fill="#1B1B43"/>
<path d="M255.578 377.762H222.776V384.23H255.578V377.762Z" fill="#1B1B43"/>
<path d="M312.404 384.23H246.462L276.8 326.265H342.712L312.404 384.23Z" fill="#91C4FF"/>
<path d="M168.076 249.357C160.345 241.749 145.776 244.952 145.992 257.734C130.099 261.923 129.206 279.356 135.612 288.319L141.126 288.75L142.327 282.251L145.53 288.873L160.992 289.859L168.076 249.357Z" fill="#1B1B43"/>
<path d="M180.981 277.847V302.179C180.981 302.394 180.981 302.61 180.95 302.826C180.581 307.846 175.714 311.357 170.755 310.094C163.456 308.216 158.374 301.594 158.435 294.048L158.559 277.847H180.981Z" fill="#FFBC96"/>
<path d="M180.981 288.35V302.148C180.981 302.364 180.981 302.579 180.95 302.795C174.451 301.717 166.936 294.202 165.088 286.009L180.981 288.35Z" fill="#1B1B43"/>
<path d="M194.163 279.633C193.825 281.574 193.363 283.545 192.777 285.424C190.837 291.584 187.357 296.727 181.104 295.834C166.443 293.74 158.25 278.617 158.25 278.617L168.291 267.128L175.036 258.073L195.241 266.79C195.211 266.79 195.334 272.98 194.163 279.633Z" fill="#FFBC96"/>
<path d="M162.593 274.736C169.03 274.52 174.02 271.256 176.145 261.923C176.145 261.923 191.145 274.859 198.506 267.96C204.666 262.17 194.225 248.833 176.915 247.262C170.601 246.677 164.318 248.648 159.39 252.622C151.012 259.336 150.212 274.982 158.035 280.372L162.593 274.736Z" fill="#1B1B43"/>
<path d="M155.047 258.412C154.616 256.903 154.955 255.209 155.633 253.761C156.31 252.314 157.388 251.02 158.651 250.034C159.914 249.049 161.423 248.341 162.963 248.002C164.534 247.694 166.197 247.725 167.614 248.371C166.135 248.864 164.842 249.357 163.61 249.973C162.409 250.589 161.269 251.297 160.222 252.129C159.175 252.93 158.22 253.854 157.327 254.87C156.526 255.886 155.756 256.995 155.047 258.412Z" fill="#1FC7A2"/>
<path d="M162.936 281.418C165.51 280.388 166.587 277.03 165.342 273.919C164.097 270.808 161.001 269.121 158.427 270.152C155.852 271.182 154.775 274.539 156.02 277.651C157.266 280.762 160.362 282.448 162.936 281.418Z" fill="#FFBC96"/>
<path d="M160.684 279.11C160.807 278.032 160.807 277.015 160.499 276.091C160.191 275.137 159.606 274.336 158.897 273.504L159.113 273.227C160.099 273.751 160.961 274.675 161.331 275.814C161.7 276.954 161.546 278.217 161.023 279.202L160.684 279.11Z" fill="#1B1B43"/>
<path d="M184.8 275.845C184.8 276.769 184.123 277.508 183.322 277.508C182.49 277.508 181.843 276.769 181.843 275.845C181.843 274.921 182.521 274.182 183.322 274.182C184.123 274.213 184.8 274.952 184.8 275.845Z" fill="#1B1B43"/>
<path d="M192.623 277.169C192.531 277.97 191.853 278.555 191.114 278.463C190.375 278.37 189.882 277.662 189.974 276.83C190.067 276.03 190.745 275.444 191.484 275.537C192.192 275.629 192.716 276.338 192.623 277.169Z" fill="#1B1B43"/>
<path d="M184.708 271.718C184.769 272.488 183.537 272.549 181.72 272.611C179.903 272.672 178.64 273.227 178.64 272.734C178.64 272.241 179.965 270.978 181.751 270.701C183.599 270.393 184.646 270.794 184.708 271.718Z" fill="#1B1B43"/>
<path d="M190.529 272.457C190.406 273.227 191.299 273.412 192.654 273.658C194.009 273.904 194.872 274.582 194.933 274.089C194.995 273.596 194.132 272.241 192.839 271.748C191.484 271.256 190.683 271.564 190.529 272.457Z" fill="#1B1B43"/>
<path d="M188.342 278.524C188.681 278.956 189.081 279.325 189.451 279.695L190.036 280.249C190.252 280.434 190.467 280.65 190.652 280.958C190.745 281.112 190.837 281.327 190.837 281.543C190.868 281.758 190.775 282.005 190.683 282.159C190.467 282.498 190.221 282.713 189.975 282.867C189.451 283.206 188.866 283.36 188.311 283.452L188.188 283.144C188.65 282.836 189.143 282.559 189.513 282.251C189.697 282.097 189.851 281.912 189.913 281.758C189.975 281.604 189.975 281.574 189.882 281.389C189.697 281.081 189.174 280.65 188.866 280.188C188.496 279.756 188.188 279.233 188.003 278.678L188.342 278.524Z" fill="#1B1B43"/>
<path d="M180.889 283.976C181.782 284.992 182.737 285.947 183.845 286.563C184.954 287.179 186.248 287.364 187.603 287.21L187.695 287.549C187.049 287.826 186.309 287.98 185.57 287.949C184.831 287.918 184.092 287.703 183.445 287.333C182.151 286.594 181.197 285.454 180.611 284.161L180.889 283.976Z" fill="#1B1B43"/>
<path opacity="0.2" d="M175.591 283.021C177.598 283.021 179.225 281.394 179.225 279.387C179.225 277.38 177.598 275.752 175.591 275.752C173.584 275.752 171.957 277.38 171.957 279.387C171.957 281.394 173.584 283.021 175.591 283.021Z" fill="#FE5B52"/>
<path opacity="0.2" d="M194.163 279.633C193.825 281.574 193.363 283.545 192.777 285.424C192.223 284.777 191.853 283.945 191.853 283.021C191.853 281.481 192.808 280.188 194.163 279.633Z" fill="#FE5B52"/>
<path d="M152.583 322.722L131.547 332.732L138.138 348.379L160.222 338.184L152.583 322.722Z" fill="#1FC7A2"/>
<path d="M230.538 376.961C229.953 376.684 229.583 376.468 229.583 376.468L229.799 376.068C229.799 376.068 230.199 376.253 230.754 376.561L230.538 376.961Z" fill="#C5E3FF"/>
<path d="M239.254 379.148C238.577 380.503 233.372 378.101 230.938 376.93C232.817 377.978 236.051 380.01 234.634 381.15C233.464 382.043 230.908 380.134 222.53 376.653C223.793 377.238 231.308 380.811 229.398 382.166C227.335 383.645 218.526 380.411 218.526 380.411L210.857 384.538H202.017L170.262 384.754C168.26 384.754 166.289 384.507 164.38 384.014C160.622 383.06 157.049 381.181 154.062 378.655C152.152 377.054 150.52 375.206 149.164 373.142C148.148 371.602 147.255 369.97 146.546 368.245L138.169 348.41L160.222 338.215L171.741 361.592L209.717 369.846L220.312 367.198C222.592 366.612 225.826 367.598 227.828 368.799C232.663 371.756 239.901 377.854 239.254 379.148Z" fill="#FFBC96"/>
<path opacity="0.2" d="M164.965 380.688C164.965 381.858 164.749 382.936 164.38 383.984C160.622 383.029 157.049 381.15 154.062 378.625C152.152 377.023 150.52 375.175 149.164 373.111C150.828 371.756 152.953 370.955 155.263 370.955C160.622 370.986 164.965 375.329 164.965 380.688Z" fill="#FE5B52"/>
<path d="M209.625 369.631C212.243 368.768 214.922 367.998 217.633 367.444C218.988 367.167 220.374 366.92 221.791 366.859C222.499 366.828 223.208 366.828 223.916 366.92C224.286 366.982 224.624 367.074 224.963 367.167C225.302 367.29 225.641 367.413 225.949 367.536C228.536 368.707 230.784 370.37 232.971 372.095C235.158 373.82 237.191 375.698 239.193 377.639L239.285 377.731L239.316 377.854C239.378 378.286 239.347 378.655 239.1 379.055C238.946 379.209 238.823 379.394 238.608 379.487C238.423 379.61 238.238 379.641 238.053 379.671C237.314 379.795 236.667 379.641 236.082 379.487C234.85 379.148 233.772 378.594 232.663 378.039C231.585 377.454 230.507 376.869 229.491 376.222C228.444 375.606 227.458 374.898 226.411 374.251L226.873 373.512C228.69 374.59 230.446 375.698 232.109 376.992C232.94 377.639 233.772 378.285 234.48 379.179C234.665 379.394 234.819 379.641 234.942 379.949C235.004 380.103 235.035 380.288 235.035 380.472C235.004 380.688 234.942 380.904 234.819 381.088C234.542 381.396 234.203 381.519 233.926 381.581C233.618 381.673 233.372 381.674 233.064 381.704H232.971L232.879 381.673L223.3 377.669L223.577 376.992C225.086 377.7 226.565 378.439 227.951 379.363C228.628 379.856 229.368 380.287 229.86 381.15C229.984 381.365 230.045 381.704 229.953 381.981C229.83 382.289 229.583 382.474 229.398 382.567C228.967 382.782 228.505 382.844 228.074 382.875C226.349 382.905 224.748 382.505 223.146 382.105C221.544 381.673 219.974 381.181 218.434 380.626L218.557 380.287C220.097 380.811 221.668 381.273 223.269 381.643C224.84 382.012 226.472 382.351 228.043 382.259C228.782 382.228 229.676 381.889 229.337 381.396C228.998 380.811 228.29 380.318 227.643 379.887C226.288 379.025 224.809 378.285 223.331 377.639L223.608 376.961L233.218 380.903L233.033 380.873C233.279 380.842 233.526 380.842 233.71 380.78C233.926 380.75 234.111 380.626 234.172 380.565C234.296 380.503 234.111 380.041 233.834 379.671C233.218 378.932 232.417 378.285 231.616 377.669C229.984 376.437 228.228 375.329 226.442 374.282L226.904 373.542C227.92 374.189 228.906 374.898 229.953 375.513C230.969 376.16 232.016 376.746 233.064 377.331C234.142 377.854 235.22 378.409 236.328 378.717C236.883 378.871 237.468 378.994 237.93 378.901L238.115 378.871C238.176 378.871 238.207 378.809 238.238 378.809C238.33 378.778 238.361 378.686 238.454 378.655C238.546 378.532 238.577 378.285 238.546 378.101L238.669 378.316C236.729 376.376 234.665 374.528 232.54 372.803C230.415 371.078 228.197 369.384 225.764 368.245L224.84 367.875C224.532 367.814 224.193 367.721 223.885 367.629C223.238 367.536 222.561 367.536 221.883 367.567C220.528 367.629 219.173 367.814 217.818 368.06C215.107 368.553 212.428 369.261 209.81 370.062L209.625 369.631Z" fill="#D28572"/>
<path d="M138.292 348.687L138.015 348.071L159.79 338.03L150.704 316.809L151.32 316.532L160.653 338.369L138.292 348.687Z" fill="#1B1B43"/>
<path d="M141.403 441.61H140.233V541.094H141.403V441.61Z" fill="#1B1B43"/>
<path d="M168.63 446.015H113.005C109.217 446.015 106.168 442.966 106.168 439.177C106.168 435.389 109.217 432.34 113.005 432.34H168.63C172.419 432.34 175.468 435.389 175.468 439.177C175.468 442.966 172.419 446.015 168.63 446.015Z" fill="#D1E9FF"/>
<path d="M164.226 547.562H117.441V546.423C117.441 540.756 122.061 536.136 127.728 536.136H153.939C159.606 536.136 164.226 540.756 164.226 546.423V547.562Z" fill="#D1E9FF"/>
<path d="M208.147 390.289L207.157 390.914L305.75 547.192L306.74 546.567L208.147 390.289Z" fill="#1B1B43"/>
<path d="M305.735 390.327L207.106 546.567L208.095 547.192L306.725 390.951L305.735 390.327Z" fill="#1B1B43"/>
<path d="M343.297 384.23H170.54V397.258H343.297V384.23Z" fill="#D1E9FF"/>
<path d="M185.016 176.515C165.119 176.515 148.918 160.314 148.918 140.417C148.918 120.52 165.119 104.32 185.016 104.32C204.912 104.32 221.113 120.52 221.113 140.417C221.144 160.314 204.943 176.515 185.016 176.515ZM185.016 105.09C165.519 105.09 149.688 120.952 149.688 140.417C149.688 159.914 165.55 175.745 185.016 175.745C204.481 175.745 220.343 159.883 220.343 140.417C220.374 120.921 204.512 105.09 185.016 105.09Z" fill="#91C4FF"/>
<path d="M209.44 165.55C231.128 165.55 248.71 147.968 248.71 126.28C248.71 104.592 231.128 87.01 209.44 87.01C187.752 87.01 170.17 104.592 170.17 126.28C170.17 147.968 187.752 165.55 209.44 165.55Z" fill="#EBEBFF"/>
<path d="M209.44 127.019L187.664 109.956L188.404 109.032L209.44 125.51L221.144 115.592L221.914 116.486L209.44 127.019Z" fill="#1B1B43"/>
<path d="M107.492 210.98H87.5336C84.3304 210.98 81.7124 213.567 81.7124 216.801V236.76C81.7124 239.963 84.2996 242.581 87.5336 242.581H101.763L107.892 251.051V242.55C110.911 242.334 113.282 239.84 113.282 236.76V216.801C113.313 213.567 110.726 210.98 107.492 210.98Z" fill="white"/>
<path d="M108.324 252.221L101.609 242.95H87.5644C84.1456 242.95 81.3737 240.178 81.3737 236.76V216.801C81.3737 213.382 84.1456 210.61 87.5644 210.61H107.492C110.911 210.61 113.683 213.382 113.683 216.801V236.76C113.683 239.87 111.342 242.488 108.293 242.889V252.221H108.324ZM87.5644 211.38C84.5768 211.38 82.1437 213.814 82.1437 216.801V236.76C82.1437 239.747 84.5768 242.18 87.5644 242.18H102.01L107.554 249.85V242.18L107.923 242.15C110.757 241.934 112.944 239.562 112.944 236.729V216.77C112.944 213.783 110.51 211.35 107.523 211.35H87.5644V211.38Z" fill="#91C4FF"/>
<path d="M97.1125 237.037L89.1353 225.487L91.0449 224.193L96.9277 232.663L105.767 216.832L107.769 217.972L97.1125 237.037Z" fill="#91C4FF"/>
<path d="M547.131 546.392H73.92V547.562H547.131V546.392Z" fill="#1B1B43"/>
</svg>
