<svg width="100" height="100" viewBox="0 0 100 100" fill="none" xmlns="http://www.w3.org/2000/svg">
<path d="M100 51.6129V38.6711C100 35.0822 97.6901 31.9777 94.2532 30.9468L83.871 27.832V25.382C86.792 23.3391 88.7097 19.9565 88.7097 16.1306V11.2903C88.7097 5.06474 83.6449 0 77.4194 0C71.1938 0 66.129 5.06474 66.129 11.2903V16.129C66.129 19.9565 68.0467 23.3391 70.9677 25.3804V27.8305L61.818 30.5759C58.3843 27.5052 54.0094 25.8065 49.3644 25.8065C44.7384 25.8065 40.5061 27.5013 37.2354 30.2939L29.0323 27.832V25.382C31.9533 23.3391 33.871 19.9565 33.871 16.1306V11.2903C33.871 5.06474 28.8062 0 22.5806 0C16.3551 0 11.2903 5.06474 11.2903 11.2903V16.129C11.2903 19.9565 13.208 23.3391 16.129 25.3804V27.8305L5.74676 30.9452C2.30989 31.9777 0 35.0822 0 38.6711V51.6129H3.22581V38.6711C3.22581 36.5179 4.61111 34.6546 6.67449 34.0371L17.0599 30.9208C17.9987 32.1399 19.8148 33.871 22.5806 33.871C25.3465 33.871 27.1626 32.1399 28.1014 30.9208L34.716 32.9046C32.6164 35.5453 31.2177 38.7593 30.7932 42.2757C28.7338 40.0871 25.8175 38.7097 22.5806 38.7097C16.3551 38.7097 11.2903 43.7744 11.2903 50V54.8387C11.2903 58.6662 13.208 62.0487 16.129 64.0901V66.5401L5.74676 69.6549C2.30989 70.6874 0 73.7919 0 77.3808V91.9355H19.3548C20.2432 91.9355 20.9677 92.66 20.9677 93.5484V100H79.0323V93.5484C79.0323 92.66 79.7568 91.9355 80.6452 91.9355H100V77.3808C100 73.7919 97.6901 70.6874 94.2532 69.6565L83.871 66.5417V64.0916C86.792 62.0487 88.7097 58.6662 88.7097 54.8403V50.0016C88.7097 43.776 83.6449 38.7113 77.4194 38.7113C74.2613 38.7113 71.4064 40.0178 69.3548 42.1143V40.5856C69.3548 37.4 67.6238 34.5325 64.9225 33.0165L71.8986 30.9224C72.8374 32.1399 74.6535 33.871 77.4194 33.871C80.1852 33.871 82.0013 32.1399 82.9401 30.9208L93.3271 34.0371C95.3889 34.6546 96.7742 36.5179 96.7742 38.6711V51.6129H100ZM22.5806 3.22581C27.0272 3.22581 30.6452 6.84381 30.6452 11.2903H23.2485C22.2239 11.2903 21.219 10.8745 20.4952 10.15L19.3548 9.00958L18.2145 10.15C17.4907 10.8745 16.4858 11.2903 15.4612 11.2903H14.5161C14.5161 6.84381 18.1341 3.22581 22.5806 3.22581ZM14.5161 16.129V14.5161H15.4612C16.8662 14.5161 18.2082 14.1129 19.3548 13.36C20.5015 14.1129 21.8435 14.5161 23.2485 14.5161H30.6452V16.129C30.6452 20.5755 27.0272 24.1935 22.5806 24.1935C18.1341 24.1935 14.5161 20.5755 14.5161 16.129ZM22.5806 30.6452C20.8661 30.6452 19.7549 29.2047 19.3548 28.5889V26.9452C20.3771 27.25 21.46 27.4194 22.5806 27.4194C23.7013 27.4194 24.7842 27.25 25.8065 26.9437V28.5873C25.4064 29.2063 24.2951 30.6452 22.5806 30.6452ZM66.9158 58.9544C67.7372 61.0407 69.1548 62.8245 70.9677 64.0916V66.5417L60.587 69.6565C60.2452 69.7581 59.9129 69.8904 59.5884 70.0369L58.0645 69.6856V66.5078C59.7885 65.1225 61.147 63.3033 61.981 61.2179C63.8388 61.0548 65.5809 60.2641 66.9158 58.9544ZM50 69.3548C51.7113 69.3548 53.3439 69.013 54.8387 68.4051V70.1613L50 73.7903L45.1613 70.1613V68.4051C46.6561 69.013 48.2887 69.3548 50 69.3548ZM43.1806 72.7082L47.1128 75.6584L43.068 78.0856L42.045 72.9713L43.1806 72.7082ZM48.2178 85.4839H51.7822L53.0368 96.7742H46.9632L48.2178 85.4839ZM52.0626 82.2581H47.9358L47.0097 79.4804L50 77.6871L52.9888 79.4804L52.0626 82.2581ZM52.8872 75.6584L56.8194 72.7082L57.955 72.9697L56.932 78.084L52.8872 75.6584ZM64.8713 56.4808C64.3129 57.0935 63.6034 57.5227 62.8339 57.7841C62.8788 57.3455 62.9032 56.9013 62.9032 56.4516V48.7336C64.639 49.392 65.9306 50.9191 66.1046 52.7438C66.2369 54.1323 65.7998 55.4577 64.8713 56.4808ZM59.6774 56.4516C59.6774 61.7888 55.3372 66.129 50 66.129C44.6628 66.129 40.3226 61.7888 40.3226 56.4516V48.3871H45.7984C49.3133 48.3871 52.7336 47.5098 55.7916 45.8339L57.0675 48.3871H59.6774V56.4516ZM37.1661 57.7841C36.3966 57.5227 35.6871 57.0935 35.1287 56.4808C34.2002 55.4593 33.7631 54.1323 33.8954 52.7454C34.0694 50.9206 35.361 49.392 37.0968 48.7352V56.4516C37.0968 56.9013 37.1212 57.3455 37.1661 57.7841ZM38.019 61.2179C38.8514 63.3033 40.21 65.1225 41.9355 66.5078V69.6856L40.4116 70.0369C40.0855 69.8904 39.7548 69.7596 39.4145 69.6565L29.0323 66.5417V64.0916C30.8436 62.8245 32.2628 61.0407 33.0842 58.9544C34.4191 60.2641 36.1612 61.0548 38.019 61.2179ZM22.5806 41.9355C27.0272 41.9355 30.6452 45.5535 30.6452 50H29.7001C28.6755 50 27.6706 49.5842 26.9468 48.8596L25.8065 47.7193L24.6661 48.8596C23.9423 49.5842 22.9374 50 21.9128 50H14.5161C14.5161 45.5535 18.1341 41.9355 22.5806 41.9355ZM14.5161 54.8387V53.2258H21.9128C23.3178 53.2258 24.6598 52.8226 25.8065 52.0697C26.9531 52.8226 28.2951 53.2258 29.7001 53.2258H30.6452V54.8387C30.6452 59.2852 27.0272 62.9032 22.5806 62.9032C18.1341 62.9032 14.5161 59.2852 14.5161 54.8387ZM22.5806 66.129C23.7013 66.129 24.7842 65.9597 25.8065 65.6534V67.297C25.4064 67.916 24.2951 69.3548 22.5806 69.3548C20.8661 69.3548 19.7549 67.9144 19.3548 67.2985V65.6549C20.3771 65.9597 21.46 66.129 22.5806 66.129ZM19.3548 88.7097H12.9032V77.4194H9.67742V88.7097H3.22581V77.3808C3.22581 75.2276 4.61111 73.3643 6.67449 72.7468L17.0599 69.6305C17.9987 70.8496 19.8148 72.5806 22.5806 72.5806C25.3465 72.5806 27.1626 70.8496 28.1014 69.6305L34.2175 71.4663L29.719 72.5035C24.5661 73.6935 20.9677 78.2179 20.9677 83.5048V85.4839H24.1935V83.5048C24.1935 79.7277 26.7649 76.4971 30.4451 75.6466L38.9003 73.695L40.8014 83.2047L44.1761 81.1807L45.1306 84.045L43.7177 96.7742H35.4839V83.871H32.2581V96.7742H24.1935V93.5484C24.1935 90.881 22.0223 88.7097 19.3548 88.7097ZM93.3255 72.7468C95.3889 73.3643 96.7742 75.2276 96.7742 77.3808V88.7097H90.3226V77.4194H87.0968V88.7097H80.6452C77.9777 88.7097 75.8064 90.881 75.8064 93.5484V96.7742H67.7419V83.871H64.5161V96.7742H56.2823L54.8679 84.045L55.8224 81.1807L59.197 83.2047L61.0982 73.695L69.5549 75.6466C73.2351 76.4971 75.8064 79.7277 75.8064 83.5048V85.4839H79.0323V83.5048C79.0323 78.2179 75.4339 73.6935 70.281 72.5035L65.7825 71.4663L71.8986 69.6305C72.8374 70.8496 74.6535 72.5806 77.4194 72.5806C80.1852 72.5806 82.0013 70.8496 82.9401 69.6305L93.3255 72.7468ZM80.6452 67.2985C80.2451 67.916 79.1339 69.3548 77.4194 69.3548C75.7017 69.3548 74.5889 67.9097 74.1936 67.2985V65.6534C75.2158 65.9597 76.2987 66.129 77.4194 66.129C78.54 66.129 79.6229 65.9597 80.6452 65.6534V67.2985ZM77.4194 62.9032C72.9728 62.9032 69.3548 59.2852 69.3548 54.8387V53.2258H70.2999C71.7049 53.2258 73.0469 52.8226 74.1936 52.0697C75.3402 52.8226 76.6822 53.2258 78.0872 53.2258H85.4839V54.8387C85.4839 59.2852 81.8659 62.9032 77.4194 62.9032ZM77.4194 41.9355C81.8659 41.9355 85.4839 45.5535 85.4839 50H78.0872C77.0626 50 76.0577 49.5842 75.3339 48.8596L74.1936 47.7193L73.0532 48.8596C72.3294 49.5842 71.3245 50 70.2999 50H69.3548C69.3548 45.5535 72.9728 41.9355 77.4194 41.9355ZM66.129 46.9112C64.702 45.8307 62.9292 45.1613 61.0131 45.1613H59.0616L57.0777 41.1936L55.5577 42.2064C52.6564 44.1406 49.2825 45.1613 45.7984 45.1613H38.9869C37.0708 45.1613 35.298 45.8307 33.871 46.9112V44.5257C33.871 35.984 40.8227 29.0323 49.3644 29.0323C53.503 29.0323 57.3951 30.6436 60.3209 33.5693L62.0322 35.2807L62.3937 35.402C64.6272 36.147 66.129 38.2293 66.129 40.584V46.9112ZM77.4194 3.22581C81.8659 3.22581 85.4839 6.84381 85.4839 11.2903H84.5388C83.5142 11.2903 82.5093 10.8745 81.7855 10.15L80.6452 9.00958L79.5048 10.15C78.781 10.8745 77.7761 11.2903 76.7515 11.2903H69.3548C69.3548 6.84381 72.9728 3.22581 77.4194 3.22581ZM69.3548 16.129V14.5161H76.7515C78.1565 14.5161 79.4985 14.1129 80.6452 13.36C81.7918 14.1129 83.1338 14.5161 84.5388 14.5161H85.4839V16.129C85.4839 20.5755 81.8659 24.1935 77.4194 24.1935C72.9728 24.1935 69.3548 20.5755 69.3548 16.129ZM77.4194 30.6452C75.7017 30.6452 74.5889 29.2 74.1936 28.5889V26.9437C75.2158 27.25 76.2987 27.4194 77.4194 27.4194C78.54 27.4194 79.6229 27.25 80.6452 26.9437V28.5873C80.2451 29.2063 79.1339 30.6452 77.4194 30.6452Z" fill="#4A7DC9"/>
<path d="M37.0947 0H40.3205V3.22581H37.0947V0Z" fill="#1FC7A2"/>
<path d="M37.0947 6.45166H40.3205V24.1936H37.0947V6.45166Z" fill="#1FC7A2"/>
<path d="M59.6777 0H62.9035V3.22581H59.6777V0Z" fill="#1FC7A2"/>
<path d="M59.6777 6.45166H62.9035V24.1936H59.6777V6.45166Z" fill="#1FC7A2"/>
<path d="M43.5498 6.45166H46.7756V17.742H43.5498V6.45166Z" fill="#1FC7A2"/>
<path d="M43.5498 20.9678H46.7756V24.1936H43.5498V20.9678Z" fill="#1FC7A2"/>
<path d="M53.2275 6.45166H56.4533V17.742H53.2275V6.45166Z" fill="#1FC7A2"/>
<path d="M53.2275 20.9678H56.4533V24.1936H53.2275V20.9678Z" fill="#1FC7A2"/>
</svg>
