<svg width="108" height="108" viewBox="0 0 108 108" fill="none" xmlns="http://www.w3.org/2000/svg">
<path d="M4.69914 62.3382L50.8202 66.3735L35.6496 93.6806C35.5069 93.9375 35.4337 94.2271 35.4374 94.521C35.441 94.8148 35.5213 95.1026 35.6703 95.3559C35.8193 95.6091 36.0319 95.8191 36.287 95.965C36.5421 96.1108 36.8308 96.1876 37.1247 96.1876H70.8747C71.1685 96.1876 71.4573 96.1108 71.7123 95.965C71.9674 95.8191 72.18 95.6091 72.329 95.3559C72.478 95.1026 72.5583 94.8148 72.562 94.521C72.5656 94.2271 72.4925 93.9375 72.3498 93.6806L57.504 66.9582L102.202 70.8688C102.252 70.873 102.301 70.8753 102.351 70.8753C102.772 70.8749 103.178 70.7166 103.489 70.4316C103.8 70.1466 103.993 69.7555 104.03 69.3355L104.618 62.6112C104.643 62.3177 104.591 62.0227 104.467 61.7556H104.468L88.1142 26.4443C87.9917 26.1798 87.8028 25.9515 87.5658 25.7817C87.3289 25.6119 87.052 25.5063 86.7621 25.4754C86.4723 25.4444 86.1794 25.489 85.9119 25.6049C85.6444 25.7208 85.4115 25.9041 85.2359 26.1367L61.8073 57.1709L43.0419 55.5292C45.4839 53.7301 47.2487 51.1609 48.0517 48.2359C48.8548 45.311 48.6492 42.2008 47.4682 39.407C46.2871 36.6132 44.1995 34.2986 41.542 32.8365C38.8844 31.3745 35.8119 30.8502 32.8199 31.3482L32.857 30.9229L36.2191 31.217C36.2683 31.2214 36.3174 31.2233 36.3668 31.2233C36.7887 31.2233 37.1954 31.0651 37.5066 30.7801C37.8177 30.4951 38.0108 30.1038 38.0477 29.6834L38.636 22.9592C38.6553 22.7384 38.631 22.516 38.5643 22.3046C38.4977 22.0932 38.3901 21.8971 38.2476 21.7273C38.1052 21.5576 37.9306 21.4175 37.7341 21.3152C37.5375 21.2129 37.3227 21.1503 37.1019 21.131L33.7397 20.8357L34.181 15.7926C34.22 15.3467 34.0804 14.9036 33.7927 14.5608C33.505 14.2179 33.0929 14.0034 32.6471 13.9644L9.11216 11.9058C8.89138 11.8865 8.66896 11.9109 8.4576 11.9775C8.24624 12.0442 8.05007 12.1518 7.88031 12.2943C7.71054 12.4367 7.5705 12.6112 7.46818 12.8078C7.36586 13.0044 7.30326 13.2192 7.28397 13.44L6.69503 20.1643C6.65601 20.6101 6.7957 21.0532 7.08337 21.396C7.37104 21.7389 7.78312 21.9534 8.22897 21.9924L11.5911 22.2865L11.2971 25.6488L7.93492 25.3548C7.71414 25.3355 7.49172 25.3598 7.28036 25.4265C7.069 25.4931 6.87283 25.6007 6.70306 25.7432C6.5333 25.8857 6.39326 26.0602 6.29094 26.2568C6.18862 26.4533 6.12602 26.6682 6.10672 26.8889L5.51842 33.613C5.4991 33.8338 5.52346 34.0562 5.5901 34.2675C5.65675 34.4789 5.76437 34.6751 5.90683 34.8448C6.04929 35.0146 6.2238 35.1547 6.42039 35.257C6.61697 35.3593 6.83179 35.4219 7.05257 35.4412L8.73353 35.5888L8.43822 38.9508L6.75725 38.8031C6.31152 38.7648 5.86877 38.9047 5.52607 39.1923C5.18337 39.4799 4.96868 39.8916 4.92906 40.3373L4.34075 47.0615C4.30174 47.5074 4.44143 47.9505 4.72909 48.2933C5.01676 48.6362 5.42885 48.8507 5.87469 48.8897L7.55586 49.0374L7.26161 52.3993L5.58065 52.2516C5.1349 52.2131 4.69206 52.3529 4.34931 52.6405C4.00656 52.9281 3.79191 53.3399 3.75245 53.7856L3.16414 60.5098C3.12513 60.9557 3.26482 61.3988 3.55248 61.7416C3.84015 62.0845 4.25224 62.299 4.69808 62.338L4.69914 62.3382ZM68.0059 92.8126H39.9934L53.9997 67.5999L68.0059 92.8126ZM86.2332 30.416L100.18 60.5282L65.7742 57.5179L86.2332 30.416ZM35.0351 34.5403C35.3292 34.5403 35.6257 34.5531 35.9249 34.5793C38.5239 34.8056 40.9353 36.0265 42.6562 37.9873C44.3771 39.9481 45.2748 42.4976 45.1619 45.104C45.0491 47.7105 43.9345 50.1728 42.0506 51.9776C40.1667 53.7823 37.6588 54.7902 35.0499 54.7911C34.7567 54.7911 34.4603 54.7782 34.1639 54.7523H34.1587C31.5599 54.5253 29.1489 53.3041 27.4285 51.3431C25.7081 49.3821 24.8109 46.8328 24.9241 44.2265C25.0372 41.6203 26.1519 39.1583 28.0359 37.3538C29.9198 35.5493 32.4275 34.5416 35.0362 34.5407L35.0351 34.5403ZM22.8149 50.372C23.4367 51.698 24.2688 52.9148 25.2788 53.9754L10.625 52.6923L10.9191 49.3302L22.8149 50.372ZM22.3137 40.1643L11.8016 39.2446L12.0957 35.8825L23.9925 36.9232C23.2879 37.922 22.7231 39.0124 22.3137 40.1641V40.1643ZM31.7637 24.0516L35.1256 24.3459L34.8316 27.7078L31.4715 27.4135L14.6598 25.9429L14.9541 22.5808L31.7647 24.0514L31.7637 24.0516ZM10.2036 18.7782L10.4978 15.416L30.6706 17.181L30.3766 20.5431L10.2036 18.7782ZM9.3212 28.8648L29.4942 30.6295L29.3358 32.4387C28.5286 32.817 27.7606 33.274 27.0431 33.803L9.02779 32.2259L9.3212 28.8648ZM8.14459 42.3133L21.5931 43.4899C21.4939 44.6239 21.5386 45.7658 21.7262 46.8885L7.85223 45.6746L8.14459 42.3133ZM6.96798 55.7621L101.109 63.9983L100.814 67.3602L6.67457 59.1231L6.96798 55.7621Z" fill="#4A7DC9"/>
<path d="M32.9203 49.5616C32.901 49.7824 32.9253 50.0048 32.992 50.2162C33.0586 50.4275 33.1662 50.6237 33.3087 50.7935C33.4512 50.9632 33.6257 51.1033 33.8222 51.2056C34.0188 51.3079 34.2336 51.3705 34.4544 51.3898C34.5043 51.394 34.554 51.3961 34.6034 51.3961C35.025 51.3957 35.4313 51.2374 35.7421 50.9524C36.0529 50.6674 36.2457 50.2764 36.2826 49.8563L36.3219 49.4074C36.5892 49.2821 36.839 49.1225 37.065 48.9326C37.5766 48.5036 37.9495 47.9325 38.1365 47.2915C38.3235 46.6505 38.3161 45.9685 38.1154 45.3317C37.9146 44.6949 37.5295 44.1319 37.0087 43.714C36.4879 43.2962 35.8549 43.0422 35.1898 42.9842L36.8707 43.1318C37.3166 43.171 37.7598 43.0314 38.1027 42.7438C38.4457 42.4562 38.6604 42.0442 38.6995 41.5983C38.7387 41.1524 38.5991 40.7093 38.3115 40.3663C38.024 40.0233 37.6119 39.8086 37.166 39.7695C37.1864 39.5482 37.1628 39.325 37.0967 39.1129C37.0306 38.9007 36.9232 38.7037 36.7807 38.5331C36.6382 38.3626 36.4634 38.2218 36.2664 38.119C36.0694 38.0162 35.854 37.9533 35.6326 37.9339C35.4112 37.9145 35.1882 37.9391 34.9763 38.0062C34.7645 38.0732 34.5679 38.1815 34.398 38.3247C34.2281 38.468 34.0881 38.6434 33.9862 38.8408C33.8842 39.0383 33.8223 39.254 33.8039 39.4754L33.7642 39.9296C33.0909 40.2431 32.5399 40.7702 32.1968 41.429C31.8536 42.0878 31.7376 42.8415 31.8667 43.573C31.9958 44.3045 32.3628 44.9729 32.9107 45.4744C33.4586 45.976 34.1567 46.2826 34.8968 46.3467L33.2156 46.1991C32.9945 46.179 32.7716 46.2029 32.5597 46.2692C32.3478 46.3354 32.151 46.4429 31.9807 46.5853C31.8104 46.7278 31.6699 46.9025 31.5672 47.0993C31.4646 47.2962 31.4018 47.5114 31.3824 47.7326C31.363 47.9537 31.3875 48.1766 31.4544 48.3883C31.5214 48.6 31.6294 48.7964 31.7724 48.9663C31.9153 49.1361 32.0904 49.2761 32.2876 49.3782C32.4847 49.4803 32.7001 49.5425 32.9213 49.5612L32.9203 49.5616Z" fill="#1FC7A2"/>
<path d="M84.5299 40.5254C84.0841 40.4867 83.6411 40.6265 83.2983 40.9142C82.9556 41.2018 82.741 41.6138 82.7017 42.0595L82.1134 48.7838C82.094 49.0046 82.1184 49.227 82.185 49.4383C82.2517 49.6497 82.3593 49.8459 82.5018 50.0156C82.6442 50.1854 82.8187 50.3254 83.0153 50.4278C83.2119 50.5301 83.4267 50.5927 83.6475 50.612C83.6976 50.6162 83.7472 50.6183 83.7964 50.6183C84.2181 50.6179 84.6244 50.4596 84.9352 50.1746C85.246 49.8896 85.4388 49.4985 85.4757 49.0785L86.064 42.3542C86.0834 42.1334 86.0591 41.9109 85.9925 41.6994C85.9259 41.488 85.8183 41.2918 85.6758 41.1219C85.5334 40.9521 85.3588 40.812 85.1622 40.7096C84.9656 40.6073 84.7507 40.5447 84.5299 40.5254Z" fill="#1FC7A2"/>
<path d="M83.353 53.9741C83.0205 53.945 82.6869 54.0152 82.3943 54.1757C82.1017 54.3363 81.8632 54.58 81.7092 54.8761C81.5551 55.1721 81.4922 55.5073 81.5286 55.839C81.565 56.1708 81.6989 56.4843 81.9135 56.74C82.128 56.9956 82.4136 57.1819 82.734 57.2753C83.0544 57.3687 83.3954 57.3649 83.7137 57.2645C84.032 57.1641 84.3133 56.9716 84.5222 56.7113C84.7311 56.451 84.8581 56.1345 84.8871 55.8021C84.9261 55.3562 84.7864 54.9131 84.4986 54.5703C84.2109 54.2275 83.7988 54.013 83.353 53.9741Z" fill="#1FC7A2"/>
</svg>
