<svg width="20" height="20" viewBox="0 0 20 20" fill="none" xmlns="http://www.w3.org/2000/svg">
<path d="M9.07184 2.80552C10.2752 2.80442 11.4519 3.16026 12.4531 3.82804C13.4542 4.49582 14.2348 5.44552 14.6961 6.55701C15.1573 7.66849 15.2786 8.89182 15.0445 10.0722C14.8104 11.2527 14.2315 12.3371 13.3809 13.1884C12.5304 14.0398 11.4464 14.6197 10.2662 14.8549C9.08603 15.0901 7.86259 14.9699 6.75068 14.5096C5.63878 14.0494 4.68836 13.2697 4.01967 12.2691C3.35098 11.2686 2.99406 10.0923 2.99406 8.88885C3.00135 7.27866 3.64385 5.73641 4.78192 4.5973C5.91999 3.45819 7.46165 2.81428 9.07184 2.80552ZM9.07184 1.66663C7.64341 1.66663 6.24707 2.0902 5.05938 2.88379C3.87169 3.67738 2.946 4.80533 2.39937 6.12502C1.85274 7.44471 1.70971 8.89686 1.98839 10.2978C2.26706 11.6988 2.95491 12.9857 3.96495 13.9957C4.975 15.0058 6.26188 15.6936 7.66285 15.9723C9.06382 16.251 10.516 16.1079 11.8357 15.5613C13.1553 15.0147 14.2833 14.089 15.0769 12.9013C15.8705 11.7136 16.2941 10.3173 16.2941 8.88885C16.2941 6.9734 15.5331 5.1364 14.1787 3.78197C12.8243 2.42754 10.9873 1.66663 9.07184 1.66663Z" fill="#414C69"/>
<path d="M19.4449 18.4944L15.3504 14.3722L14.5615 15.1555L18.656 19.2777C18.7074 19.3295 18.7685 19.3707 18.8359 19.3989C18.9032 19.4271 18.9755 19.4417 19.0484 19.4419C19.1214 19.4422 19.1938 19.4281 19.2613 19.4004C19.3289 19.3727 19.3903 19.332 19.4421 19.2805C19.4939 19.2291 19.535 19.168 19.5632 19.1006C19.5914 19.0333 19.606 18.961 19.6063 18.888C19.6065 18.815 19.5924 18.7427 19.5647 18.6752C19.537 18.6076 19.4963 18.5462 19.4449 18.4944Z" fill="#414C69"/>
</svg>
