<svg width="19" height="20" viewBox="0 0 19 20" fill="none" xmlns="http://www.w3.org/2000/svg">
<path d="M1.05566 4.44446H2.11122V5.55557H1.05566V4.44446Z" fill="#414C69"/>
<path d="M3.69477 5.55557H16.3614C16.5014 5.55557 16.6357 5.49704 16.7346 5.39285C16.8336 5.28866 16.8892 5.14736 16.8892 5.00001C16.8892 4.85267 16.8336 4.71136 16.7346 4.60718C16.6357 4.50299 16.5014 4.44446 16.3614 4.44446H3.69477C3.55479 4.44446 3.42055 4.50299 3.32157 4.60718C3.2226 4.71136 3.16699 4.85267 3.16699 5.00001C3.16699 5.14736 3.2226 5.28866 3.32157 5.39285C3.42055 5.49704 3.55479 5.55557 3.69477 5.55557Z" fill="#414C69"/>
<path d="M1.05566 7.77783H2.11122V8.88894H1.05566V7.77783Z" fill="#414C69"/>
<path d="M16.3614 7.77783H3.69477C3.55479 7.77783 3.42055 7.83636 3.32157 7.94055C3.2226 8.04474 3.16699 8.18604 3.16699 8.33339C3.16699 8.48073 3.2226 8.62204 3.32157 8.72622C3.42055 8.83041 3.55479 8.88894 3.69477 8.88894H16.3614C16.5014 8.88894 16.6357 8.83041 16.7346 8.72622C16.8336 8.62204 16.8892 8.48073 16.8892 8.33339C16.8892 8.18604 16.8336 8.04474 16.7346 7.94055C16.6357 7.83636 16.5014 7.77783 16.3614 7.77783Z" fill="#414C69"/>
<path d="M1.05566 11.1111H2.11122V12.2222H1.05566V11.1111Z" fill="#414C69"/>
<path d="M16.3614 11.1111H3.69477C3.55479 11.1111 3.42055 11.1696 3.32157 11.2738C3.2226 11.378 3.16699 11.5193 3.16699 11.6666C3.16699 11.814 3.2226 11.9553 3.32157 12.0595C3.42055 12.1637 3.55479 12.2222 3.69477 12.2222H16.3614C16.5014 12.2222 16.6357 12.1637 16.7346 12.0595C16.8336 11.9553 16.8892 11.814 16.8892 11.6666C16.8892 11.5193 16.8336 11.378 16.7346 11.2738C16.6357 11.1696 16.5014 11.1111 16.3614 11.1111Z" fill="#414C69"/>
<path d="M1.05566 14.4445H2.11122V15.5556H1.05566V14.4445Z" fill="#414C69"/>
<path d="M16.3614 14.4445H3.69477C3.55479 14.4445 3.42055 14.503 3.32157 14.6072C3.2226 14.7114 3.16699 14.8527 3.16699 15C3.16699 15.1474 3.2226 15.2887 3.32157 15.3928C3.42055 15.497 3.55479 15.5556 3.69477 15.5556H16.3614C16.5014 15.5556 16.6357 15.497 16.7346 15.3928C16.8336 15.2887 16.8892 15.1474 16.8892 15C16.8892 14.8527 16.8336 14.7114 16.7346 14.6072C16.6357 14.503 16.5014 14.4445 16.3614 14.4445Z" fill="#414C69"/>
</svg>
