<svg width="341" height="106" viewBox="0 0 341 106" fill="none" xmlns="http://www.w3.org/2000/svg">
<path fill-rule="evenodd" clip-rule="evenodd" d="M105.417 66.3299V105.785L67.6038 81.524L98.6283 62.0817L105.417 66.3299Z" fill="#1FC7A2"/>
<path d="M105.417 39.8417V0.388184L0.000153896 66.3513V105.805L105.417 39.8417Z" fill="#4A7DC9"/>
<path d="M52.7183 33.3638L52.7183 72.8174L0.00958866 39.8359L0.00958866 0.382374L52.7183 33.3638Z" fill="#1FC7A2"/>
<path d="M199.745 47.9699L177.478 27.634L199.926 7.29822H179.288L165.711 20.3325L152.194 7.29822H131.496L153.823 27.6944L131.617 47.9699H152.073L165.651 35.0563L179.107 47.9699H199.745Z" fill="#2E2E2E"/>
<path d="M218.031 7.29822H204.092V47.9699H218.031V7.29822Z" fill="#2E2E2E"/>
<path d="M284.714 27.2116C284.714 11.824 270.774 7.29822 255.869 7.29822H225.154V47.9699H255.869C270.955 47.9699 284.714 42.3579 284.714 27.2116ZM270.352 27.3323C270.352 34.3322 264.619 38.0735 253.455 38.0735H239.094V17.1946H253.455C264.619 17.1946 270.352 20.6945 270.352 27.3323Z" fill="#2E2E2E"/>
<path d="M340.532 47.9699V38.3149H303.843V31.0133H340.532V21.7807H303.843V16.9532H340.532V7.29822H289.904V47.9699H340.532Z" fill="#2E2E2E"/>
<path d="M138.217 66.8002V62.9571C138.217 62.7995 138.119 62.7009 137.941 62.7009H136.7C136.522 62.7009 136.424 62.7995 136.424 62.9571V66.8791C136.424 67.9236 135.793 68.6922 134.867 68.6922C133.941 68.6922 133.31 67.9236 133.31 66.8791V62.9571C133.31 62.7995 133.212 62.7009 133.034 62.7009H131.793C131.615 62.7009 131.517 62.7995 131.517 62.9571V66.8002C131.517 68.0024 132.009 68.909 132.896 69.5003C132.009 70.1112 131.517 71.0178 131.517 72.22V76.2208C131.517 76.3982 131.615 76.4967 131.793 76.4967H133.034C133.212 76.4967 133.31 76.3982 133.31 76.2208V72.1412C133.31 71.0966 133.941 70.3477 134.867 70.3477C135.793 70.3477 136.424 71.0966 136.424 72.1412V76.2208C136.424 76.3982 136.522 76.4967 136.7 76.4967H137.941C138.119 76.4967 138.217 76.3982 138.217 76.2208V72.22C138.217 71.0178 137.725 70.1112 136.838 69.5003C137.725 68.909 138.217 68.0024 138.217 66.8002Z" fill="#2E2E2E"/>
<path d="M140.202 72.1705H144.596C144.774 72.1705 144.872 72.072 144.872 71.9143V70.9289C144.872 70.7712 144.774 70.653 144.596 70.653H140.202C140.044 70.653 139.945 70.7712 139.945 70.9289V71.9143C139.945 72.072 140.044 72.1705 140.202 72.1705Z" fill="#2E2E2E"/>
<path d="M149.956 76.5347H152.025C152.183 76.5347 152.281 76.4361 152.281 76.2785V75.1551C152.281 74.9777 152.183 74.8792 152.025 74.8792H150.094C149.069 74.8792 148.379 74.0908 148.379 72.9675V70.3069H151.532C151.71 70.3069 151.808 70.2083 151.808 70.0309V68.9667C151.808 68.7893 151.71 68.6908 151.532 68.6908H148.379V66.1878C148.379 65.0644 149.069 64.2761 150.094 64.2761H152.025C152.183 64.2761 152.281 64.1776 152.281 64.0002V62.8768C152.281 62.7191 152.183 62.6206 152.025 62.6206H149.956C147.965 62.6206 146.585 64.1184 146.585 66.1484V73.0069C146.585 75.0368 147.965 76.5347 149.956 76.5347Z" fill="#2E2E2E"/>
<path d="M162.379 62.4941C161.295 62.4941 160.585 63.0066 160.053 63.7358C159.521 63.0066 158.831 62.4941 157.728 62.4941C155.737 62.4941 154.515 63.9328 154.515 66.1599V76.2308C154.515 76.4082 154.614 76.5067 154.771 76.5067H156.013C156.171 76.5067 156.269 76.4082 156.269 76.2308V66.081C156.269 64.8591 156.762 64.1693 157.728 64.1693C158.575 64.1693 159.166 64.8591 159.166 66.081V76.2308C159.166 76.4082 159.265 76.5067 159.422 76.5067H160.664C160.822 76.5067 160.92 76.4082 160.92 76.2308V66.081C160.92 64.8591 161.492 64.1693 162.379 64.1693C163.305 64.1693 163.817 64.8591 163.817 66.081V76.2308C163.817 76.4082 163.916 76.5067 164.074 76.5067H165.315C165.493 76.5067 165.591 76.4082 165.591 76.2308V66.1599C165.591 63.9328 164.35 62.4941 162.379 62.4941Z" fill="#2E2E2E"/>
<path d="M168.549 76.5067H169.811C169.968 76.5067 170.067 76.4082 170.067 76.2308V71.5402H171.624C173.673 71.5402 174.994 70.1607 174.994 68.1504V66.1402C174.994 63.992 173.654 62.4941 171.604 62.4941C169.574 62.4941 168.293 63.992 168.293 66.1402V76.2308C168.293 76.4082 168.392 76.5067 168.549 76.5067ZM170.067 69.8847V66.0613C170.067 64.9183 170.658 64.1693 171.624 64.1693C172.589 64.1693 173.2 64.9183 173.2 66.0613V68.1898C173.2 69.2541 172.589 69.8847 171.565 69.8847H170.067Z" fill="#2E2E2E"/>
<path d="M177.284 62.9571V76.2208C177.284 76.3982 177.383 76.4967 177.56 76.4967H178.802C178.959 76.4967 179.058 76.3982 179.058 76.2208V62.9571C179.058 62.7995 178.959 62.7009 178.802 62.7009H177.56C177.383 62.7009 177.284 62.7995 177.284 62.9571Z" fill="#2E2E2E"/>
<path d="M182.161 76.5067H183.422C183.58 76.5067 183.679 76.4082 183.679 76.2308V71.3037H185.275L187.147 76.2702C187.187 76.4279 187.265 76.5067 187.423 76.5067H188.763C188.941 76.5067 189.079 76.3885 189.019 76.2111L186.911 70.8899C187.935 70.338 188.665 69.2344 188.665 67.7168V66.1402C188.665 63.992 187.285 62.4941 185.255 62.4941C183.265 62.4941 181.905 63.992 181.905 66.1402V76.2308C181.905 76.4082 182.003 76.5067 182.161 76.5067ZM183.679 69.6679V66.0613C183.679 64.9183 184.329 64.1693 185.275 64.1693C186.221 64.1693 186.871 64.9183 186.871 66.0613V67.7562C186.871 68.919 186.221 69.6679 185.196 69.6679H183.679Z" fill="#2E2E2E"/>
<path d="M191.375 62.9571V76.2208C191.375 76.3982 191.473 76.4967 191.65 76.4967H192.892C193.05 76.4967 193.148 76.3982 193.148 76.2208V62.9571C193.148 62.7995 193.05 62.7009 192.892 62.7009H191.65C191.473 62.7009 191.375 62.7995 191.375 62.9571Z" fill="#2E2E2E"/>
<path d="M199.157 76.7235C201.167 76.7235 202.488 75.206 202.567 72.8213C202.567 72.6439 202.468 72.5453 202.311 72.5453H201.049C200.892 72.5453 200.793 72.6242 200.793 72.8016C200.754 74.2403 200.143 75.0483 199.138 75.0483C198.152 75.0483 197.581 74.3782 197.581 73.2746V65.9431C197.581 64.8394 198.152 64.1693 199.138 64.1693C200.044 64.1693 200.655 64.8985 200.694 66.2781C200.694 66.4555 200.793 66.5343 200.951 66.5343H202.212C202.389 66.5343 202.468 66.4358 202.468 66.2781C202.409 63.9723 201.089 62.4941 199.157 62.4941C197.147 62.4941 195.787 63.9131 195.787 66.0416V73.176C195.787 75.3045 197.147 76.7235 199.157 76.7235Z" fill="#2E2E2E"/>
<path d="M204.91 76.4872H206.171C206.329 76.4872 206.428 76.3886 206.428 76.2113V71.836H209.62V76.2113C209.62 76.3886 209.739 76.4872 209.896 76.4872H211.138C211.315 76.4872 211.414 76.3886 211.414 76.2113V66.1206C211.414 63.9527 210.054 62.4943 208.024 62.4943C205.994 62.4943 204.654 63.9527 204.654 66.1206V76.2113C204.654 76.3886 204.752 76.4872 204.91 76.4872ZM206.428 70.2002V66.0418C206.428 64.8593 207.019 64.1695 208.024 64.1695C209.049 64.1695 209.62 64.8593 209.62 66.0418V70.2002H206.428Z" fill="#2E2E2E"/>
<path d="M217.474 74.9004C216.567 74.9004 215.917 74.1514 215.917 73.0281V62.9571C215.917 62.7995 215.818 62.7009 215.641 62.7009H214.38C214.222 62.7009 214.124 62.7995 214.124 62.9571V73.0872C214.124 75.058 215.365 76.5558 217.375 76.5558H219.366C219.543 76.5558 219.642 76.4573 219.642 76.2996V75.1763C219.642 74.9989 219.543 74.9004 219.366 74.9004H217.474Z" fill="#2E2E2E"/>
<path d="M234.287 62.4941C233.203 62.4941 232.494 63.0066 231.962 63.7358C231.43 63.0066 230.74 62.4941 229.636 62.4941C227.646 62.4941 226.424 63.9328 226.424 66.1599V76.2308C226.424 76.4082 226.522 76.5067 226.68 76.5067H227.922C228.079 76.5067 228.178 76.4082 228.178 76.2308V66.081C228.178 64.8591 228.671 64.1693 229.636 64.1693C230.484 64.1693 231.075 64.8591 231.075 66.081V76.2308C231.075 76.4082 231.174 76.5067 231.331 76.5067H232.573C232.73 76.5067 232.829 76.4082 232.829 76.2308V66.081C232.829 64.8591 233.401 64.1693 234.287 64.1693C235.214 64.1693 235.726 64.8591 235.726 66.081V76.2308C235.726 76.4082 235.825 76.5067 235.982 76.5067H237.224C237.401 76.5067 237.5 76.4082 237.5 76.2308V66.1599C237.5 63.9328 236.258 62.4941 234.287 62.4941Z" fill="#2E2E2E"/>
<path d="M243.482 76.6842C245.532 76.6842 246.951 75.1864 246.951 73.117V66.0615C246.951 63.9921 245.532 62.4943 243.482 62.4943C241.432 62.4943 239.994 63.9921 239.994 66.1994V72.9791C239.994 75.1864 241.432 76.6842 243.482 76.6842ZM243.482 75.0287C242.477 75.0287 241.787 74.2798 241.787 73.0579V66.1206C241.787 64.8987 242.477 64.1498 243.482 64.1498C244.487 64.1498 245.157 64.8987 245.157 65.9826V73.1959C245.157 74.2798 244.487 75.0287 243.482 75.0287Z" fill="#2E2E2E"/>
<path d="M250.376 76.5347H252.918C254.968 76.5347 256.288 75.0368 256.288 72.9675V66.1878C256.288 64.1184 254.988 62.6206 252.918 62.6206H250.376C249.863 62.6206 249.568 62.8965 249.568 63.4089V75.7463C249.568 76.2588 249.863 76.5347 250.376 76.5347ZM251.361 74.8792V64.2761H252.859C253.904 64.2761 254.495 65.025 254.495 66.1484V73.0069C254.495 74.1303 253.884 74.8792 252.859 74.8792H251.361Z" fill="#2E2E2E"/>
<path d="M261.971 76.5347H264.041C264.198 76.5347 264.297 76.4361 264.297 76.2785V75.1551C264.297 74.9777 264.198 74.8792 264.041 74.8792H262.109C261.084 74.8792 260.395 74.0908 260.395 72.9675V70.3069H263.548C263.725 70.3069 263.824 70.2083 263.824 70.0309V68.9667C263.824 68.7893 263.725 68.6908 263.548 68.6908H260.395V66.1878C260.395 65.0644 261.084 64.2761 262.109 64.2761H264.041C264.198 64.2761 264.297 64.1776 264.297 64.0002V62.8768C264.297 62.7191 264.198 62.6206 264.041 62.6206H261.971C259.981 62.6206 258.601 64.1184 258.601 66.1484V73.0069C258.601 75.0368 259.981 76.5347 261.971 76.5347Z" fill="#2E2E2E"/>
<path d="M269.839 74.9004C268.933 74.9004 268.282 74.1514 268.282 73.0281V62.9571C268.282 62.7995 268.184 62.7009 268.006 62.7009H266.745C266.587 62.7009 266.489 62.7995 266.489 62.9571V73.0872C266.489 75.058 267.73 76.5558 269.741 76.5558H271.731C271.909 76.5558 272.007 76.4573 272.007 76.2996V75.1763C272.007 74.9989 271.909 74.9004 271.731 74.9004H269.839Z" fill="#2E2E2E"/>
<path d="M273.94 62.9571V76.2208C273.94 76.3982 274.039 76.4967 274.216 76.4967H275.458C275.616 76.4967 275.714 76.3982 275.714 76.2208V62.9571C275.714 62.7995 275.616 62.7009 275.458 62.7009H274.216C274.039 62.7009 273.94 62.7995 273.94 62.9571Z" fill="#2E2E2E"/>
<path d="M278.838 76.5067H280.099C280.257 76.5067 280.355 76.4082 280.355 76.2308V66.0416C280.355 64.9183 280.966 64.1693 281.952 64.1693C282.937 64.1693 283.548 64.9183 283.548 66.0416V76.2308C283.548 76.4082 283.666 76.5067 283.824 76.5067H285.066C285.243 76.5067 285.341 76.4082 285.341 76.2308V66.1205C285.341 63.992 284.001 62.4941 281.952 62.4941C279.902 62.4941 278.582 63.992 278.582 66.1205V76.2308C278.582 76.4082 278.68 76.5067 278.838 76.5067Z" fill="#2E2E2E"/>
<path d="M291.311 76.7235C293.361 76.7235 294.78 75.2257 294.78 73.1957V69.8453C294.78 69.3329 294.484 69.0373 293.972 69.0373H291.646C291.469 69.0373 291.371 69.1358 291.371 69.3132V70.3577C291.371 70.5154 291.469 70.6139 291.646 70.6139H293.006V73.2943C293.006 74.3191 292.317 75.0483 291.331 75.0483C290.326 75.0483 289.636 74.3191 289.636 73.1563V66.0613C289.636 64.8985 290.247 64.1693 291.252 64.1693C292.198 64.1693 292.79 64.8788 292.849 66.081C292.868 66.2584 292.967 66.357 293.125 66.357H294.386C294.544 66.357 294.642 66.2584 294.642 66.081C294.583 63.9723 293.223 62.4941 291.252 62.4941C289.203 62.4941 287.843 63.9723 287.843 66.1205V73.0775C287.843 75.2257 289.262 76.7235 291.311 76.7235Z" fill="#2E2E2E"/>
<path d="M305.148 78.8752C305.305 78.8752 305.404 78.7767 305.404 78.619V77.535C305.404 77.3774 305.325 77.2788 305.148 77.2591C304.28 77.2 303.689 76.5102 303.689 75.4657V63.7392C303.689 62.6947 304.28 62.0049 305.148 61.9655C305.325 61.9458 305.404 61.8473 305.404 61.6699V60.5859C305.404 60.4283 305.305 60.3297 305.148 60.3297C303.236 60.3888 301.975 61.7684 301.975 63.8772V75.3277C301.975 77.4365 303.236 78.8161 305.148 78.8752Z" fill="#2E2E2E"/>
<path d="M313.9 66.8002V62.9571C313.9 62.7995 313.801 62.7009 313.624 62.7009H312.382C312.205 62.7009 312.107 62.7995 312.107 62.9571V66.8791C312.107 67.9236 311.476 68.6922 310.55 68.6922C309.623 68.6922 308.993 67.9236 308.993 66.8791V62.9571C308.993 62.7995 308.894 62.7009 308.717 62.7009H307.475C307.298 62.7009 307.199 62.7995 307.199 62.9571V66.8002C307.199 68.0024 307.692 68.909 308.579 69.5003C307.692 70.1112 307.199 71.0178 307.199 72.22V76.2208C307.199 76.3982 307.298 76.4967 307.475 76.4967H308.717C308.894 76.4967 308.993 76.3982 308.993 76.2208V72.1412C308.993 71.0966 309.623 70.3477 310.55 70.3477C311.476 70.3477 312.107 71.0966 312.107 72.1412V76.2208C312.107 76.3982 312.205 76.4967 312.382 76.4967H313.624C313.801 76.4967 313.9 76.3982 313.9 76.2208V72.22C313.9 71.0178 313.407 70.1112 312.52 69.5003C313.407 68.909 313.9 68.0024 313.9 66.8002Z" fill="#2E2E2E"/>
<path d="M319.477 76.5347H321.546C321.704 76.5347 321.802 76.4361 321.802 76.2785V75.1551C321.802 74.9777 321.704 74.8792 321.546 74.8792H319.615C318.59 74.8792 317.9 74.0908 317.9 72.9675V70.3069H321.053C321.231 70.3069 321.329 70.2083 321.329 70.0309V68.9667C321.329 68.7893 321.231 68.6908 321.053 68.6908H317.9V66.1878C317.9 65.0644 318.59 64.2761 319.615 64.2761H321.546C321.704 64.2761 321.802 64.1776 321.802 64.0002V62.8768C321.802 62.7191 321.704 62.6206 321.546 62.6206H319.477C317.486 62.6206 316.106 64.1184 316.106 66.1484V73.0069C316.106 75.0368 317.486 76.5347 319.477 76.5347Z" fill="#2E2E2E"/>
<path d="M331.901 62.4941C330.817 62.4941 330.107 63.0066 329.575 63.7358C329.043 63.0066 328.353 62.4941 327.25 62.4941C325.259 62.4941 324.037 63.9328 324.037 66.1599V76.2308C324.037 76.4082 324.136 76.5067 324.293 76.5067H325.535C325.693 76.5067 325.791 76.4082 325.791 76.2308V66.081C325.791 64.8591 326.284 64.1693 327.25 64.1693C328.097 64.1693 328.688 64.8591 328.688 66.081V76.2308C328.688 76.4082 328.787 76.5067 328.944 76.5067H330.186C330.344 76.5067 330.442 76.4082 330.442 76.2308V66.081C330.442 64.8591 331.014 64.1693 331.901 64.1693C332.827 64.1693 333.339 64.8591 333.339 66.081V76.2308C333.339 76.4082 333.438 76.5067 333.596 76.5067H334.837C335.015 76.5067 335.113 76.4082 335.113 76.2308V66.1599C335.113 63.9328 333.872 62.4941 331.901 62.4941Z" fill="#2E2E2E"/>
<path d="M337.363 78.8752C339.275 78.8161 340.536 77.4365 340.536 75.3277V63.8772C340.536 61.7684 339.275 60.3888 337.363 60.3297C337.205 60.3297 337.107 60.4283 337.107 60.5859V61.6699C337.107 61.8473 337.186 61.9458 337.363 61.9655C338.23 62.0049 338.822 62.6947 338.822 63.7392V75.4657C338.822 76.5102 338.23 77.2 337.363 77.2591C337.186 77.2788 337.107 77.3774 337.107 77.535V78.619C337.107 78.7767 337.205 78.8752 337.363 78.8752Z" fill="#2E2E2E"/>
<path d="M131.981 98.6447H133.243C133.4 98.6447 133.499 98.5461 133.499 98.3688V92.6139H136.435C136.593 92.6139 136.692 92.5154 136.692 92.3577V91.2344C136.692 91.0767 136.593 90.9782 136.435 90.9782H133.499V88.4161C133.499 87.2927 134.189 86.5044 135.213 86.5044H136.81C136.987 86.5044 137.086 86.4058 137.086 86.2285V85.1051C137.086 84.9474 136.987 84.8489 136.81 84.8489H135.076C133.085 84.8489 131.725 86.3467 131.725 88.3767V98.3688C131.725 98.5461 131.824 98.6447 131.981 98.6447Z" fill="#2E2E2E"/>
<path d="M142.331 98.8695C144.381 98.8695 145.8 97.3717 145.8 95.3023V88.2467C145.8 86.1773 144.381 84.6795 142.331 84.6795C140.281 84.6795 138.843 86.1773 138.843 88.3847V95.1643C138.843 97.3717 140.281 98.8695 142.331 98.8695ZM142.331 97.214C141.326 97.214 140.636 96.4651 140.636 95.2432V88.3058C140.636 87.0839 141.326 86.335 142.331 86.335C143.336 86.335 144.006 87.0839 144.006 88.1679V95.3811C144.006 96.4651 143.336 97.214 142.331 97.214Z" fill="#2E2E2E"/>
<path d="M148.569 98.6519H149.83C149.988 98.6519 150.086 98.5534 150.086 98.376V93.4489H151.683L153.555 98.4154C153.594 98.5731 153.673 98.6519 153.831 98.6519H155.171C155.348 98.6519 155.486 98.5337 155.427 98.3563L153.318 93.035C154.343 92.4832 155.072 91.3795 155.072 89.862V88.2853C155.072 86.1371 153.693 84.6393 151.663 84.6393C149.672 84.6393 148.312 86.1371 148.312 88.2853V98.376C148.312 98.5534 148.411 98.6519 148.569 98.6519ZM150.086 91.8131V88.2065C150.086 87.0634 150.737 86.3145 151.683 86.3145C152.629 86.3145 153.279 87.0634 153.279 88.2065V89.9014C153.279 91.0642 152.629 91.8131 151.604 91.8131H150.086Z" fill="#2E2E2E"/>
<path d="M168.043 84.8489H161.993C161.835 84.8489 161.737 84.9474 161.737 85.1051V86.2285C161.737 86.4058 161.835 86.5044 161.993 86.5044H164.141V98.3688C164.141 98.5461 164.24 98.6447 164.397 98.6447H165.639C165.816 98.6447 165.915 98.5461 165.915 98.3688V86.5044H168.043C168.221 86.5044 168.319 86.4058 168.319 86.2285V85.1051C168.319 84.9474 168.221 84.8489 168.043 84.8489Z" fill="#2E2E2E"/>
<path d="M170.298 98.6724H171.56C171.717 98.6724 171.816 98.5739 171.816 98.3965V94.0212H175.008V98.3965C175.008 98.5739 175.127 98.6724 175.284 98.6724H176.526C176.703 98.6724 176.802 98.5739 176.802 98.3965V88.3058C176.802 86.1379 175.442 84.6795 173.412 84.6795C171.382 84.6795 170.042 86.1379 170.042 88.3058V98.3965C170.042 98.5739 170.141 98.6724 170.298 98.6724ZM171.816 92.3854V88.227C171.816 87.0445 172.407 86.3547 173.412 86.3547C174.437 86.3547 175.008 87.0445 175.008 88.227V92.3854H171.816Z" fill="#2E2E2E"/>
<path d="M182.673 98.8687C184.684 98.8687 186.004 97.3511 186.083 94.9664C186.083 94.7891 185.984 94.6905 185.827 94.6905H184.565C184.408 94.6905 184.309 94.7694 184.309 94.9467C184.27 96.3854 183.659 97.1935 182.654 97.1935C181.668 97.1935 181.097 96.5234 181.097 95.4197V88.0882C181.097 86.9846 181.668 86.3145 182.654 86.3145C183.56 86.3145 184.171 87.0437 184.211 88.4233C184.211 88.6007 184.309 88.6795 184.467 88.6795H185.728C185.905 88.6795 185.984 88.5809 185.984 88.4233C185.925 86.1174 184.605 84.6393 182.673 84.6393C180.663 84.6393 179.303 86.0583 179.303 88.1868V95.3212C179.303 97.4497 180.663 98.8687 182.673 98.8687Z" fill="#2E2E2E"/>
<path d="M193.644 84.8489H187.594C187.436 84.8489 187.337 84.9474 187.337 85.1051V86.2285C187.337 86.4058 187.436 86.5044 187.594 86.5044H189.742V98.3688C189.742 98.5461 189.84 98.6447 189.998 98.6447H191.24C191.417 98.6447 191.516 98.5461 191.516 98.3688V86.5044H193.644C193.821 86.5044 193.92 86.4058 193.92 86.2285V85.1051C193.92 84.9474 193.821 84.8489 193.644 84.8489Z" fill="#2E2E2E"/>
<path d="M195.87 85.1051V98.3688C195.87 98.5461 195.969 98.6447 196.146 98.6447H197.388C197.545 98.6447 197.644 98.5461 197.644 98.3688V85.1051C197.644 84.9474 197.545 84.8489 197.388 84.8489H196.146C195.969 84.8489 195.87 84.9474 195.87 85.1051Z" fill="#2E2E2E"/>
<path d="M203.653 98.8687C205.663 98.8687 206.984 97.3511 207.062 94.9664C207.062 94.7891 206.964 94.6905 206.806 94.6905H205.545C205.387 94.6905 205.289 94.7694 205.289 94.9467C205.249 96.3854 204.638 97.1935 203.633 97.1935C202.648 97.1935 202.076 96.5234 202.076 95.4197V88.0882C202.076 86.9846 202.648 86.3145 203.633 86.3145C204.54 86.3145 205.151 87.0437 205.19 88.4233C205.19 88.6007 205.289 88.6795 205.446 88.6795H206.708C206.885 88.6795 206.964 88.5809 206.964 88.4233C206.905 86.1174 205.584 84.6393 203.653 84.6393C201.643 84.6393 200.283 86.0583 200.283 88.1868V95.3212C200.283 97.4497 201.643 98.8687 203.653 98.8687Z" fill="#2E2E2E"/>
<path d="M209.406 98.6724H210.667C210.825 98.6724 210.923 98.5739 210.923 98.3965V94.0212H214.116V98.3965C214.116 98.5739 214.234 98.6724 214.392 98.6724H215.633C215.811 98.6724 215.909 98.5739 215.909 98.3965V88.3058C215.909 86.1379 214.549 84.6795 212.52 84.6795C210.49 84.6795 209.149 86.1379 209.149 88.3058V98.3965C209.149 98.5739 209.248 98.6724 209.406 98.6724ZM210.923 92.3854V88.227C210.923 87.0445 211.514 86.3547 212.52 86.3547C213.544 86.3547 214.116 87.0445 214.116 88.227V92.3854H210.923Z" fill="#2E2E2E"/>
<path d="M221.97 97.0483C221.063 97.0483 220.413 96.2994 220.413 95.176V85.1051C220.413 84.9474 220.314 84.8489 220.137 84.8489H218.875C218.718 84.8489 218.619 84.9474 218.619 85.1051V95.2351C218.619 97.2059 219.861 98.7038 221.871 98.7038H223.862C224.039 98.7038 224.137 98.6052 224.137 98.4476V97.3242C224.137 97.1468 224.039 97.0483 223.862 97.0483H221.97Z" fill="#2E2E2E"/>
<path d="M236.415 84.8489H230.364C230.206 84.8489 230.108 84.9474 230.108 85.1051V86.2285C230.108 86.4058 230.206 86.5044 230.364 86.5044H232.512V98.3688C232.512 98.5461 232.611 98.6447 232.769 98.6447H234.01C234.188 98.6447 234.286 98.5461 234.286 98.3688V86.5044H236.415C236.592 86.5044 236.69 86.4058 236.69 86.2285V85.1051C236.69 84.9474 236.592 84.8489 236.415 84.8489Z" fill="#2E2E2E"/>
<path d="M238.689 98.6519H239.951C240.108 98.6519 240.207 98.5534 240.207 98.376V93.4489H241.803L243.675 98.4154C243.715 98.5731 243.794 98.6519 243.951 98.6519H245.292C245.469 98.6519 245.607 98.5337 245.548 98.3563L243.439 93.035C244.464 92.4832 245.193 91.3795 245.193 89.862V88.2853C245.193 86.1371 243.813 84.6393 241.783 84.6393C239.793 84.6393 238.433 86.1371 238.433 88.2853V98.376C238.433 98.5534 238.532 98.6519 238.689 98.6519ZM240.207 91.8131V88.2065C240.207 87.0634 240.857 86.3145 241.803 86.3145C242.749 86.3145 243.4 87.0634 243.4 88.2065V89.9014C243.4 91.0642 242.749 91.8131 241.724 91.8131H240.207Z" fill="#2E2E2E"/>
<path d="M247.993 98.6724H249.254C249.412 98.6724 249.51 98.5739 249.51 98.3965V94.0212H252.703V98.3965C252.703 98.5739 252.821 98.6724 252.979 98.6724H254.22C254.398 98.6724 254.496 98.5739 254.496 98.3965V88.3058C254.496 86.1379 253.136 84.6795 251.106 84.6795C249.076 84.6795 247.736 86.1379 247.736 88.3058V98.3965C247.736 98.5739 247.835 98.6724 247.993 98.6724ZM249.51 92.3854V88.227C249.51 87.0445 250.101 86.3547 251.106 86.3547C252.131 86.3547 252.703 87.0445 252.703 88.227V92.3854H249.51Z" fill="#2E2E2E"/>
<path d="M258.139 98.7198H260.681C262.731 98.7198 264.051 97.222 264.051 95.1526V88.373C264.051 86.3036 262.75 84.8058 260.681 84.8058H258.139C257.626 84.8058 257.331 85.0817 257.331 85.5941V97.9315C257.331 98.4439 257.626 98.7198 258.139 98.7198ZM259.124 97.0644V86.4613H260.622C261.666 86.4613 262.258 87.2102 262.258 88.3336V95.1921C262.258 96.3154 261.647 97.0644 260.622 97.0644H259.124Z" fill="#2E2E2E"/>
<path d="M266.697 85.1051V98.3688C266.697 98.5461 266.795 98.6447 266.973 98.6447H268.214C268.372 98.6447 268.47 98.5461 268.47 98.3688V85.1051C268.47 84.9474 268.372 84.8489 268.214 84.8489H266.973C266.795 84.8489 266.697 84.9474 266.697 85.1051Z" fill="#2E2E2E"/>
<path d="M271.574 98.6519H272.835C272.993 98.6519 273.091 98.5534 273.091 98.376V88.1868C273.091 87.0634 273.702 86.3145 274.687 86.3145C275.673 86.3145 276.284 87.0634 276.284 88.1868V98.376C276.284 98.5534 276.402 98.6519 276.56 98.6519H277.801C277.979 98.6519 278.077 98.5534 278.077 98.376V88.2656C278.077 86.1371 276.737 84.6393 274.687 84.6393C272.638 84.6393 271.317 86.1371 271.317 88.2656V98.376C271.317 98.5534 271.416 98.6519 271.574 98.6519Z" fill="#2E2E2E"/>
<path d="M284.069 98.8687C286.118 98.8687 287.537 97.3709 287.537 95.3409V91.9905C287.537 91.4781 287.242 91.1824 286.729 91.1824H284.404C284.226 91.1824 284.128 91.281 284.128 91.4584V92.5029C284.128 92.6606 284.226 92.7591 284.404 92.7591H285.764V95.4394C285.764 96.4643 285.074 97.1935 284.088 97.1935C283.083 97.1935 282.394 96.4643 282.394 95.3015V88.2065C282.394 87.0437 283.005 86.3145 284.01 86.3145C284.956 86.3145 285.547 87.024 285.606 88.2262C285.626 88.4036 285.724 88.5021 285.882 88.5021H287.143C287.301 88.5021 287.399 88.4036 287.399 88.2262C287.34 86.1174 285.98 84.6393 284.01 84.6393C281.96 84.6393 280.6 86.1174 280.6 88.2656V95.2226C280.6 97.3709 282.019 98.8687 284.069 98.8687Z" fill="#2E2E2E"/>
</svg>
