<svg width="100" height="101" viewBox="0 0 100 101" fill="none" xmlns="http://www.w3.org/2000/svg">
<g clip-path="url(#clip0)">
<path d="M33.821 100.441C34.4721 101.092 35.5268 101.092 36.1778 100.441L44.511 92.1082L42.1543 89.7515L34.9994 96.9063L4.02326 65.9302L22.8446 47.1088L20.4879 44.7521L0.488153 64.7518C-0.162067 65.4028 -0.162067 66.4575 0.488153 67.1085L33.821 100.441Z" fill="#4A7DC9"/>
<path d="M99.989 35.7475L96.6557 5.7479C96.5694 4.97236 95.9574 4.35957 95.1819 4.27412L65.1823 0.940833C64.6802 0.887937 64.1797 1.06372 63.8208 1.41934L52.1543 13.0859L54.511 15.4426L65.6112 4.34248L93.499 7.43896L96.5955 35.3186L90.0558 41.8591L86.8885 20.5573C89.1623 19.654 90.4546 17.2451 89.9492 14.8518C89.4447 12.4584 87.2889 10.7771 84.8443 10.8691C82.4005 10.9619 80.3782 12.801 80.0551 15.2261C79.7321 17.6504 81.2026 19.9551 83.5374 20.6842L86.1154 38.0172L62.8443 14.7525C62.1932 14.1015 61.1386 14.1015 60.4875 14.7525L52.1543 23.0857L54.511 25.4425L61.6659 18.2876L82.6422 39.2639L78.8206 43.0855L81.1774 45.4422L86.1773 40.4423C86.2717 40.3348 86.3514 40.2152 86.4141 40.0874L87.114 44.792L83.8206 48.0854L86.1773 50.4421L87.7235 48.8951L88.7822 55.9987C89.0337 58.0495 90.3887 59.7975 92.3117 60.5527C94.2355 61.3079 96.4172 60.949 97.9976 59.6176C99.5772 58.2863 100.301 56.1973 99.884 54.1734L96.8168 39.8018L99.5105 37.109C99.8685 36.7509 100.044 36.2504 99.989 35.7475ZM84.9989 14.2642C85.9193 14.2642 86.6656 15.0105 86.6656 15.9309C86.6656 16.8513 85.9193 17.5975 84.9989 17.5975C84.0785 17.5975 83.3323 16.8513 83.3323 15.9309C83.3323 15.0105 84.0785 14.2642 84.9989 14.2642ZM96.6207 54.8504C96.7802 55.6764 96.4758 56.5244 95.8256 57.0599C95.1762 57.5954 94.2851 57.7321 93.5047 57.4163C92.7242 57.1006 92.179 56.3836 92.0838 55.547L90.6654 45.9622L94.0174 42.6102L96.6207 54.8504Z" fill="#4A7DC9"/>
<path d="M12.1565 65.7522L22.989 54.9197L25.3458 57.2764L14.5133 68.109L12.1565 65.7522Z" fill="#4A7DC9"/>
<path d="M17.3201 70.9182L28.1526 60.0856L30.5102 62.4424L19.6768 73.2749L17.3201 70.9182Z" fill="#4A7DC9"/>
<path d="M22.4875 76.084L28.8206 69.751L31.1781 72.1078L24.8443 78.4408L22.4875 76.084Z" fill="#4A7DC9"/>
<path d="M27.6543 81.2515L32.1554 76.7512L34.5122 79.108L30.0119 83.6091L27.6543 81.2515Z" fill="#4A7DC9"/>
<path d="M32.821 86.4183L36.1544 83.0858L38.5111 85.4425L35.1786 88.775L32.821 86.4183Z" fill="#4A7DC9"/>
<path d="M59.9993 92.5965C65.6771 92.5941 71.2044 90.768 75.7657 87.3867L87.7854 99.4064C89.8175 101.438 93.1109 101.438 95.1421 99.4064C97.1733 97.3751 97.1733 94.0809 95.1421 92.0497L82.8441 79.7517L82.6309 79.9649C89.0118 69.6436 87.6105 56.3145 79.2243 47.5451C70.8374 38.7748 57.584 36.781 46.9884 42.6949C36.3921 48.6087 31.1317 60.936 34.194 72.6782C37.2555 84.4196 47.8649 92.6088 59.9993 92.5965ZM92.7854 94.4064C93.5153 95.1364 93.5153 96.3196 92.7854 97.0496C92.0554 97.7796 90.8721 97.7796 90.1422 97.0496L78.3324 85.2415C79.2398 84.383 80.0853 83.4626 80.8641 82.4868L92.7854 94.4064ZM59.9993 42.5972C72.8857 42.5972 83.3323 53.0438 83.3323 65.9302C83.3323 78.8166 72.8857 89.2633 59.9993 89.2633C47.1129 89.2633 36.6663 78.8166 36.6663 65.9302C36.6801 53.0495 47.1186 42.611 59.9993 42.5972Z" fill="#4A7DC9"/>
<path d="M59.999 85.93C71.0446 85.93 79.9987 76.9759 79.9987 65.9303C79.9987 54.8847 71.0446 45.9305 59.999 45.9305C48.9534 45.9305 39.9993 54.8847 39.9993 65.9303C40.0115 76.971 48.9583 85.9178 59.999 85.93ZM59.999 49.2638C69.2038 49.2638 76.6655 56.7255 76.6655 65.9303C76.6655 75.1351 69.2038 82.5967 59.999 82.5967C50.7942 82.5967 43.3326 75.1351 43.3326 65.9303C43.3423 56.7295 50.7983 49.2736 59.999 49.2638Z" fill="#4A7DC9"/>
<path d="M61.6657 72.5968H58.3325C57.4121 72.5968 56.6658 71.8506 56.6658 70.9302H53.3325C53.3325 73.6914 55.5713 75.9301 58.3325 75.9301V79.2634H61.6657V75.9301C64.4269 75.9301 66.6657 73.6914 66.6657 70.9302V69.2636C66.6657 66.5024 64.4269 64.2636 61.6657 64.2636H58.3325C57.4121 64.2636 56.6658 63.5174 56.6658 62.597V60.9303C56.6658 60.0099 57.4121 59.2637 58.3325 59.2637H61.6657C62.5861 59.2637 63.3324 60.0099 63.3324 60.9303H66.6657C66.6657 58.1691 64.4269 55.9304 61.6657 55.9304V52.5971H58.3325V55.9304C55.5713 55.9304 53.3325 58.1691 53.3325 60.9303V62.597C53.3325 65.3582 55.5713 67.5969 58.3325 67.5969H61.6657C62.5861 67.5969 63.3324 68.3432 63.3324 69.2636V70.9302C63.3324 71.8506 62.5861 72.5968 61.6657 72.5968Z" fill="#1FC7A3"/>
<path d="M8.33322 40.9306H19.4667L30.6978 48.9521C30.9802 49.1547 31.3188 49.2638 31.6662 49.2638C31.9869 49.263 32.301 49.1702 32.5712 48.9969C33.1482 48.6241 33.4371 47.9365 33.2995 47.2635L32.0333 40.9306H41.6661C46.2665 40.9249 49.9936 37.1969 49.9993 32.5973V9.26431C49.9936 4.66395 46.2665 0.936788 41.6661 0.931091H8.33322C3.73286 0.936788 0.00569655 4.66395 0 9.26431V32.5973C0.00569655 37.1969 3.73286 40.9249 8.33322 40.9306ZM3.33329 9.26431C3.33329 6.50312 5.57203 4.26438 8.33322 4.26438H41.6661C44.4273 4.26438 46.666 6.50312 46.666 9.26431V32.5973C46.666 35.3585 44.4273 37.5973 41.6661 37.5973H29.9996C29.4991 37.5973 29.0247 37.8219 28.7081 38.2092C28.3916 38.5974 28.2662 39.1069 28.3663 39.5968L29.1996 43.7984L20.9633 37.9155C20.6833 37.7112 20.3464 37.5997 19.9997 37.5973H8.33322C5.57203 37.5973 3.33329 35.3585 3.33329 32.5973V9.26431Z" fill="#1FC7A3"/>
<path d="M8.33315 34.264H43.3327V30.9307H9.99979V26.4857L13.3331 22.0424L17 26.9309C17.3345 27.35 17.8415 27.5949 18.3778 27.5974C18.9189 27.5827 19.4194 27.306 19.7197 26.8552L25.1477 18.7124L32.0511 26.9992C32.3693 27.3777 32.838 27.5966 33.3328 27.5974C33.3849 27.6006 33.437 27.6006 33.4899 27.5974C34.0367 27.5453 34.5226 27.2279 34.7895 26.747L43.1227 11.7472L40.2094 10.131L33.0561 23.0043L26.2813 14.8705C25.9485 14.4587 25.4382 14.2325 24.9093 14.2642C24.3852 14.2927 23.9042 14.5669 23.6129 15.004L18.2533 23.0475L14.6661 18.264C14.3381 17.8652 13.849 17.6341 13.3331 17.6341C12.8171 17.6341 12.3281 17.8652 12.0001 18.264L9.99979 20.9308V9.26428H6.6665V32.5973C6.6665 33.5177 7.41275 34.264 8.33315 34.264Z" fill="#1FC7A3"/>
</g>
<defs>
<clipPath id="clip0">
<rect width="100" height="100" fill="white" transform="translate(0 0.929626)"/>
</clipPath>
</defs>
</svg>
