<svg width="122" height="122" viewBox="0 0 122 122" fill="none" xmlns="http://www.w3.org/2000/svg">
<path d="M30.9766 45.1513V44.3204C31.961 43.9986 32.8201 43.3772 33.4338 42.5431C34.0476 41.709 34.3852 40.7039 34.3996 39.6684C34.3965 38.3772 33.8817 37.1399 32.968 36.2276C32.0543 35.3153 30.8162 34.8024 29.525 34.8013C29.1276 34.8025 28.7388 34.6859 28.4077 34.466C28.0766 34.2461 27.8183 33.933 27.6653 33.5662C27.5123 33.1994 27.4716 32.7954 27.5484 32.4055C27.6251 32.0156 27.8159 31.6572 28.0964 31.3757C28.377 31.0942 28.7348 30.9023 29.1245 30.8243C29.5142 30.7463 29.9182 30.7857 30.2855 30.9375C30.6528 31.0893 30.9668 31.3467 31.1877 31.677C31.4087 32.0074 31.5266 32.3959 31.5266 32.7933C31.5315 33.1712 31.685 33.5319 31.9539 33.7975C32.2229 34.063 32.5856 34.2118 32.9635 34.2118C33.3415 34.2118 33.7042 34.063 33.9732 33.7975C34.2421 33.5319 34.3956 33.1712 34.4005 32.7933C34.3862 31.7576 34.0484 30.7524 33.4345 29.9182C32.8206 29.084 31.9612 28.4627 30.9766 28.1411V27.4667C30.9766 27.0876 30.826 26.7239 30.5579 26.4558C30.2898 26.1877 29.9261 26.037 29.5469 26.037C29.1678 26.037 28.8041 26.1877 28.536 26.4558C28.2679 26.7239 28.1173 27.0876 28.1173 27.4667V28.1411C27.1296 28.4613 26.2663 29.0814 25.6476 29.9152C25.0289 30.749 24.6855 31.755 24.6653 32.793C24.665 34.0827 25.1767 35.3197 26.0879 36.2324C26.9991 37.145 28.2354 37.6586 29.525 37.6604C30.0573 37.6581 30.5688 37.8673 30.9468 38.242C31.3249 38.6168 31.5385 39.1263 31.5409 39.6586C31.5432 40.1909 31.334 40.7024 30.9593 41.0804C30.5845 41.4585 30.075 41.6722 29.5427 41.6745C29.5348 41.6745 29.5267 41.6745 29.5188 41.6745C29.511 41.6745 29.5031 41.6745 29.495 41.6745C28.9669 41.668 28.4625 41.4539 28.0911 41.0784C27.7196 40.703 27.5109 40.1963 27.5101 39.6682C27.5101 39.2909 27.3602 38.9291 27.0935 38.6623C26.8267 38.3955 26.4649 38.2456 26.0876 38.2456C25.7103 38.2456 25.3485 38.3955 25.0817 38.6623C24.8149 38.9291 24.665 39.2909 24.665 39.6682C24.665 41.8544 26.2108 43.7078 28.117 44.3201V45.1505C28.117 45.5297 28.2677 45.8934 28.5358 46.1615C28.8039 46.4296 29.1675 46.5802 29.5467 46.5802C29.9259 46.5802 30.2895 46.4296 30.5577 46.1615C30.8258 45.8934 30.9764 45.5297 30.9764 45.1505L30.9766 45.1513Z" fill="#1FC7A3"/>
<path d="M46.5389 36.3096C46.5389 32.9431 45.5407 29.6522 43.6704 26.8531C41.8001 24.0539 39.1418 21.8723 36.0316 20.5839C32.9214 19.2956 29.499 18.9585 26.1972 19.6152C22.8954 20.272 19.8625 21.8931 17.4821 24.2735C15.1016 26.654 13.4804 29.6868 12.8237 32.9886C12.1669 36.2904 12.5039 39.7128 13.7922 42.823C15.0805 45.9332 17.2621 48.5916 20.0613 50.4619C22.8604 52.3322 26.1513 53.3305 29.5177 53.3305C34.0304 53.3254 38.3568 51.5305 41.5478 48.3396C44.7387 45.1486 46.5337 40.8223 46.5389 36.3096ZM15.356 36.3096C15.3559 33.5087 16.1864 30.7706 17.7425 28.4417C19.2986 26.1128 21.5104 24.2976 24.0981 23.2257C26.6858 22.1538 29.5333 21.8733 32.2804 22.4197C35.0275 22.9661 37.5509 24.3148 39.5315 26.2954C41.5121 28.2759 42.8609 30.7993 43.4074 33.5465C43.9538 36.2936 43.6734 39.141 42.6015 41.7288C41.5297 44.3165 39.7145 46.5283 37.3856 48.0844C35.0567 49.6406 32.3187 50.4711 29.5177 50.4711C25.7631 50.4669 22.1635 48.9735 19.5086 46.3187C16.8537 43.6638 15.3603 40.0642 15.356 36.3096Z" fill="#1FC7A3"/>
<path d="M50.3793 36.3096C50.3793 32.1836 49.1558 28.1503 46.8636 24.7197C44.5713 21.2891 41.3132 18.6152 37.5013 17.0363C33.6894 15.4573 29.4949 15.0442 25.4482 15.8492C21.4015 16.6541 17.6844 18.6409 14.7669 21.5584C11.8494 24.4759 9.86253 28.1931 9.05759 32.2398C8.25265 36.2865 8.66578 40.481 10.2447 44.2929C11.8237 48.1048 14.4975 51.3629 17.9281 53.6551C21.3587 55.9474 25.3921 57.1709 29.518 57.1709C35.0489 57.1646 40.3514 54.9647 44.2623 51.0539C48.1732 47.143 50.3731 41.8404 50.3793 36.3096ZM11.5156 36.3096C11.5156 32.7492 12.5714 29.2687 14.5495 26.3083C16.5276 23.3479 19.3391 21.0405 22.6285 19.678C25.9179 18.3155 29.5375 17.959 33.0296 18.6536C36.5216 19.3482 39.7292 21.0627 42.2468 23.5803C44.7644 26.0979 46.479 29.3056 47.1736 32.7976C47.8682 36.2896 47.5117 39.9092 46.1492 43.1986C44.7866 46.488 42.4793 49.2996 39.5189 51.2776C36.5585 53.2557 33.078 54.3115 29.5176 54.3115C24.7449 54.306 20.1693 52.4075 16.7946 49.0327C13.4198 45.6579 11.5215 41.0822 11.5161 36.3096H11.5156Z" fill="#1FC7A3"/>
<path d="M23.3812 64.636C23.5867 64.6361 23.7898 64.5918 23.9767 64.5063C24.1635 64.4208 24.3297 64.296 24.464 64.1404L26.8425 61.3832C28.9994 61.599 31.1749 61.543 33.3178 61.2164L35.8629 63.8702C36.0654 64.0814 36.3279 64.2253 36.6149 64.2826C36.9019 64.3399 37.1996 64.3077 37.4677 64.1904L44.7794 60.9917C45.0504 60.8732 45.278 60.6734 45.4307 60.42C45.5835 60.1666 45.6539 59.8721 45.6322 59.5771L45.3624 55.9075C47.0653 54.5577 48.5713 52.9766 49.8366 51.21L53.5 51.3177C53.7956 51.326 54.0866 51.2425 54.3329 51.0788C54.5792 50.9151 54.7689 50.6792 54.8758 50.4035L57.7483 42.9622C57.8543 42.6873 57.8728 42.3864 57.8012 42.1007C57.7297 41.8149 57.5717 41.5582 57.3487 41.3657L54.5923 38.9865C54.8077 36.8295 54.7516 34.654 54.4255 32.5109L57.079 29.9658C57.2902 29.7633 57.4342 29.5008 57.4915 29.2138C57.5488 28.9268 57.5167 28.6292 57.3994 28.361L54.1998 21.0477C54.0818 20.7762 53.8821 20.5483 53.6286 20.3955C53.3751 20.2427 53.0803 20.1726 52.7851 20.1951L49.1156 20.4646C47.7658 18.7619 46.185 17.256 44.4188 15.9904L44.5265 12.3271C44.5352 12.0313 44.4519 11.7401 44.2881 11.4937C44.1243 11.2473 43.8881 11.0577 43.612 10.9512L36.1698 8.07779C35.8949 7.97186 35.594 7.95345 35.3082 8.02506C35.0224 8.09667 34.7658 8.25482 34.5733 8.47787L32.1948 11.2348C30.0375 11.0194 27.8616 11.0754 25.7183 11.4016L23.1727 8.74951C22.9701 8.53824 22.7076 8.39425 22.4206 8.33698C22.1335 8.27971 21.8358 8.31192 21.5677 8.42926L14.256 11.6282C13.985 11.7468 13.7574 11.9465 13.6047 12.1998C13.4519 12.4531 13.3815 12.7476 13.4032 13.0426L13.6729 16.7122C11.9696 18.0618 10.4633 19.6429 9.19753 21.4094L5.53538 21.3024C5.23959 21.2935 4.94832 21.3766 4.70185 21.5404C4.45537 21.7042 4.26588 21.9405 4.15955 22.2167L1.28659 29.6582C1.18064 29.9331 1.16218 30.234 1.23375 30.5198C1.30532 30.8055 1.46342 31.0622 1.68643 31.2547L4.44334 33.6335C4.22767 35.7904 4.28371 37.966 4.61014 40.109L1.95783 42.6548C1.74662 42.8574 1.60265 43.1199 1.54538 43.4069C1.48811 43.6938 1.52029 43.9915 1.63758 44.2596L4.83698 51.5715C4.95482 51.8431 5.15442 52.0712 5.40799 52.224C5.66156 52.3768 5.95647 52.4468 6.25166 52.4241L9.92119 52.1544C11.2709 53.8572 12.852 55.3632 14.6184 56.6286L14.5112 60.2917C14.5024 60.5874 14.5857 60.8787 14.7495 61.1251C14.9132 61.3716 15.1494 61.5612 15.4255 61.6677L22.8677 64.54C23.0315 64.6033 23.2056 64.6359 23.3812 64.636ZM16.8628 54.7049C14.8835 53.3868 13.1485 51.7345 11.7355 49.8218C11.5923 49.6275 11.402 49.4727 11.1826 49.372C10.9632 49.2713 10.7219 49.228 10.4811 49.2461L7.0499 49.4982L4.65708 44.0275L7.1352 41.6504C7.30585 41.4868 7.43324 41.2834 7.50597 41.0584C7.5787 40.8334 7.5945 40.5939 7.55196 40.3613C7.12099 38.0082 7.05885 35.6023 7.36777 33.2301C7.39828 32.9954 7.37005 32.7568 7.28563 32.5357C7.20121 32.3146 7.06322 32.118 6.88406 31.9634L4.31681 29.7473L6.46135 24.1885L9.88926 24.289C10.1316 24.2965 10.3719 24.2421 10.5874 24.1309C10.8029 24.0196 10.9865 23.8552 11.1207 23.6533C12.4392 21.6741 14.0921 19.9395 16.0052 18.5269C16.1993 18.3834 16.3539 18.1932 16.4546 17.9739C16.5553 17.7545 16.5988 17.5133 16.5812 17.2726L16.329 13.8413L21.7995 11.449L24.1766 13.9271C24.3403 14.0978 24.5437 14.2252 24.7687 14.2979C24.9936 14.3706 25.2331 14.3864 25.4657 14.3439C27.8192 13.9126 30.2255 13.8504 32.5982 14.1597C32.8329 14.1901 33.0715 14.1618 33.2926 14.0773C33.5137 13.9929 33.7104 13.8549 33.8651 13.6757L36.0797 11.1085L41.6386 13.253L41.5378 16.6809C41.5306 16.9233 41.5853 17.1635 41.6965 17.379C41.8078 17.5945 41.972 17.7781 42.1737 17.9126C44.1531 19.2312 45.8881 20.884 47.3011 22.7971C47.444 22.9917 47.6342 23.1467 47.8537 23.2474C48.0731 23.3482 48.3146 23.3913 48.5554 23.3728L51.9866 23.1207L54.3799 28.5912L51.9018 30.9685C51.7312 31.1322 51.6038 31.3356 51.5311 31.5606C51.4583 31.7856 51.4425 32.0251 51.4851 32.2576C51.916 34.6108 51.9782 37.0167 51.6693 39.3889C51.6388 39.6236 51.667 39.8621 51.7515 40.0831C51.8359 40.3042 51.9738 40.5008 52.153 40.6554L54.7195 42.8714L52.575 48.4303L49.147 48.3295C48.9045 48.3214 48.664 48.3756 48.4484 48.487C48.2329 48.5983 48.0494 48.763 47.9156 48.9654C46.5974 50.9448 44.945 52.6798 43.0323 54.093C42.8383 54.2365 42.6838 54.4267 42.5831 54.646C42.4825 54.8653 42.4389 55.1065 42.4566 55.3471L42.7087 58.7783L37.2382 61.1714L34.8609 58.6933C34.6973 58.5226 34.4939 58.3952 34.269 58.3224C34.0441 58.2497 33.8046 58.2338 33.572 58.2763C31.2189 58.7073 28.813 58.7695 26.4408 58.4607C26.206 58.4302 25.9674 58.4584 25.7463 58.5428C25.5252 58.6272 25.3284 58.7652 25.1738 58.9444L22.9568 61.51L17.398 59.3655L17.4988 55.9375C17.5061 55.695 17.4515 55.4546 17.3403 55.2389C17.229 55.0233 17.0647 54.8395 16.8628 54.7049Z" fill="#1FC7A3"/>
<path d="M119.379 105.559H116.281V62.6297C116.278 62.4426 116.237 62.2581 116.162 62.0868C116.087 61.9155 115.978 61.7608 115.843 61.6315C115.708 61.5022 115.548 61.4009 115.374 61.3334C115.199 61.2659 115.013 61.2336 114.826 61.2383H102.638C102.455 61.2352 102.274 61.2693 102.105 61.3384C101.936 61.4075 101.783 61.5103 101.655 61.6404C101.527 61.7706 101.427 61.9254 101.361 62.0954C101.294 62.2655 101.263 62.4473 101.27 62.6297V105.559H89.5938V50.1068C89.606 49.7252 89.4676 49.3542 89.2084 49.074C88.9491 48.7937 88.59 48.6268 88.2086 48.6094H76.0198C75.633 48.6245 75.2671 48.7889 74.9989 49.0681C74.7308 49.3474 74.5814 49.7197 74.582 50.1068V105.559H62.9062V75.1523C62.9062 74.3626 62.3804 73.629 61.5907 73.629H49.4021C49.0054 73.647 48.63 73.8138 48.3507 74.0961C48.0713 74.3783 47.9085 74.7554 47.8945 75.1523V105.559H36.457V93.4973C36.4482 93.103 36.2901 92.7268 36.0147 92.4445C35.7393 92.1623 35.367 91.9951 34.973 91.9766H22.7845C21.9948 91.9766 21.4453 92.7077 21.4453 93.4973V105.559H18.6813C18.2824 105.576 17.9046 105.742 17.6223 106.025C17.34 106.307 17.1737 106.685 17.1562 107.084V112.588C17.1562 113.378 17.8911 113.898 18.6813 113.898H119.379C120.168 113.898 120.809 113.377 120.809 112.588V107.084C120.809 106.294 120.168 105.559 119.379 105.559ZM104.129 64.0977H113.422V105.559H104.129V64.0977ZM77.4414 51.4688H86.7344V105.559H77.4414V51.4688ZM50.7539 76.4883H60.0469V105.559H50.7539V76.4883ZM24.3047 94.836H33.5977V105.559H24.3047V94.836ZM117.949 111.039H20.0156V108.418H117.949V111.039Z" fill="#4A7DC9"/>
<path d="M108.815 56.4203C110.072 56.4217 111.311 56.115 112.422 55.527C113.533 54.939 114.483 54.0877 115.188 53.0475C115.894 52.0073 116.334 50.81 116.47 49.5604C116.606 48.3107 116.433 47.0468 115.968 45.8793C115.502 44.7118 114.757 43.6762 113.798 42.8633C112.839 42.0503 111.696 41.4847 110.468 41.216C109.24 40.9473 107.965 40.9837 106.754 41.322C105.544 41.6602 104.435 42.2901 103.524 43.1564L89.8323 37.1169C89.9747 35.9285 89.8377 34.7233 89.4323 33.5972C89.0269 32.4711 88.3643 31.4552 87.4972 30.6303C86.63 29.8054 85.5823 29.1942 84.4374 28.8455C83.2925 28.4967 82.082 28.42 80.9022 28.6215C79.7224 28.823 78.606 29.297 77.6417 30.0059C76.6773 30.7148 75.8918 31.639 75.3475 32.7049C74.8033 33.7708 74.5153 34.9491 74.5065 36.1459C74.4978 37.3427 74.7685 38.525 75.2972 39.5988L59.2527 54.4964C57.8395 53.7266 56.2203 53.4198 54.6234 53.6192C53.0265 53.8186 51.5324 54.5142 50.3519 55.6078C49.1713 56.7015 48.3637 58.1381 48.0431 59.7151C47.7224 61.2922 47.9047 62.9301 48.5644 64.3979L34.3228 74.0896C32.9501 72.7557 31.1291 71.9821 29.2162 71.9201C27.3032 71.858 25.4359 72.512 23.9797 73.7541C22.5235 74.9962 21.5831 76.7369 21.3427 78.6357C21.1022 80.5345 21.5789 82.4547 22.6795 84.0206C23.7801 85.5865 25.4254 86.6853 27.2934 87.1021C29.1614 87.519 31.1178 87.2237 32.7796 86.2742C34.4415 85.3247 35.6892 83.7893 36.2787 81.9683C36.8682 80.1474 36.757 78.172 35.9669 76.4288L50.2016 66.7426C51.6096 68.1249 53.4953 68.9127 55.4681 68.943C57.441 68.9733 59.3499 68.2437 60.7997 66.9053C62.2494 65.567 63.129 63.7223 63.2561 61.7533C63.3833 59.7843 62.7484 57.8418 61.4828 56.3281L77.0268 41.8951C77.8899 42.6811 78.9207 43.2601 80.041 43.5882C81.1613 43.9163 82.3416 43.9848 83.4923 43.7886C84.643 43.5923 85.7339 43.1365 86.6821 42.4556C87.6303 41.7748 88.411 40.8869 88.9647 39.8593L101.824 45.5315C101.287 46.7029 101.053 47.9904 101.143 49.2758C101.234 50.5612 101.646 51.8032 102.343 52.8875C103.039 53.9718 103.997 54.8637 105.128 55.4811C106.259 56.0986 107.527 56.4218 108.815 56.421L108.815 56.4203ZM108.815 43.8979C109.771 43.8978 110.705 44.1812 111.5 44.7121C112.295 45.243 112.914 45.9977 113.28 46.8806C113.645 47.7635 113.741 48.735 113.554 49.6723C113.368 50.6096 112.908 51.4705 112.232 52.1462C111.556 52.8219 110.695 53.2821 109.758 53.4684C108.82 53.6547 107.849 53.5589 106.966 53.1931C106.083 52.8273 105.329 52.2078 104.798 51.4132C104.267 50.6185 103.984 49.6842 103.984 48.7286C103.986 47.4478 104.495 46.22 105.401 45.3144C106.307 44.4088 107.535 43.8994 108.815 43.8979ZM28.9624 84.4295C28.1399 84.4311 27.3305 84.2226 26.6111 83.8238C25.8916 83.425 25.2859 82.8492 24.8513 82.1508C24.4167 81.4525 24.1675 80.6547 24.1275 79.8331C24.0875 79.0115 24.2578 78.1933 24.6225 77.456C24.9871 76.7187 25.534 76.0867 26.2112 75.6198C26.8885 75.153 27.6737 74.8668 28.4925 74.7883C29.3113 74.7098 30.1366 74.8417 30.8902 75.1715C31.6438 75.5012 32.3007 76.0179 32.7987 76.6725L33.0976 77.1079C33.5411 77.8398 33.7818 78.6767 33.795 79.5325C33.8081 80.3883 33.5932 81.2321 33.1723 81.9774C32.7514 82.7226 32.1397 83.3424 31.4001 83.7731C30.6604 84.2037 29.8195 84.4297 28.9636 84.4279L28.9624 84.4295ZM55.5801 66.0845C54.6244 66.0845 53.6902 65.8011 52.8956 65.2702C52.101 64.7392 51.4817 63.9846 51.116 63.1016C50.7503 62.2187 50.6546 61.2472 50.8411 60.3099C51.0276 59.3726 51.4878 58.5116 52.1635 57.8359C52.8393 57.1602 53.7003 56.7 54.6376 56.5136C55.5749 56.3272 56.5464 56.4229 57.4293 56.7886C58.3122 57.1544 59.0669 57.7737 59.5978 58.5684C60.1287 59.363 60.412 60.2972 60.412 61.2529C60.4103 62.5338 59.9007 63.7617 58.9949 64.6674C58.0891 65.573 56.861 66.0824 55.5801 66.0838V66.0845ZM82.1978 41.0385C81.2422 41.0385 80.3081 40.7551 79.5136 40.2241C78.719 39.6932 78.0998 38.9386 77.7341 38.0558C77.3685 37.1729 77.2728 36.2014 77.4592 35.2642C77.6457 34.327 78.1058 33.4661 78.7815 32.7904C79.4572 32.1147 80.3181 31.6545 81.2554 31.4681C82.1926 31.2817 83.164 31.3773 84.0469 31.743C84.9298 32.1087 85.6843 32.7279 86.2153 33.5224C86.7462 34.3169 87.0296 35.2511 87.0297 36.2066C87.0283 37.4877 86.5187 38.7159 85.6129 39.6218C84.707 40.5276 83.4788 41.0371 82.1978 41.0385Z" fill="#4A7DC9"/>
<path d="M72.4375 56.2747C72.4375 55.8955 72.2869 55.5319 72.0188 55.2638C71.7506 54.9957 71.387 54.845 71.0078 54.845C70.6286 54.845 70.265 54.9957 69.9969 55.2638C69.7288 55.5319 69.5781 55.8955 69.5781 56.2747V56.9858C69.5781 57.3649 69.7288 57.7286 69.9969 57.9967C70.265 58.2648 70.6286 58.4154 71.0078 58.4154C71.387 58.4154 71.7506 58.2648 72.0188 57.9967C72.2869 57.7286 72.4375 57.3649 72.4375 56.9858V56.2747Z" fill="#4A7DC9"/>
<path d="M71.0078 60.1572C70.6286 60.1572 70.265 60.3079 69.9969 60.576C69.7288 60.8441 69.5781 61.2077 69.5781 61.5869V82.2385C69.5781 82.6177 69.7288 82.9813 69.9969 83.2494C70.265 83.5176 70.6286 83.6682 71.0078 83.6682C71.387 83.6682 71.7506 83.5176 72.0188 83.2494C72.2869 82.9813 72.4375 82.6177 72.4375 82.2385V61.5869C72.4375 61.2077 72.2869 60.8441 72.0188 60.576C71.7506 60.3079 71.387 60.1572 71.0078 60.1572Z" fill="#4A7DC9"/>
</svg>
