<svg width="693" height="462" viewBox="0 0 693 462" fill="none" xmlns="http://www.w3.org/2000/svg">
<path d="M381.381 292.908H309.632V398.244H381.381V292.908Z" fill="#D3DFFF"/>
<path opacity="0.3" d="M381.381 303.696H309.632V323.723H381.381V303.696Z" fill="#1F3C88"/>
<path d="M345.483 334.026C356.072 334.026 364.656 325.442 364.656 314.853C364.656 304.264 356.072 295.68 345.483 295.68C334.895 295.68 326.311 304.264 326.311 314.853C326.311 325.442 334.895 334.026 345.483 334.026Z" fill="white"/>
<path d="M522.406 80.5035H168.561V313.744H522.406V80.5035Z" fill="#D3DFFF"/>
<path d="M510.556 89.3277H180.457V300.392H510.556V89.3277Z" fill="white"/>
<path d="M419.496 383.991H271.032V398.244H419.496V383.991Z" fill="#4A7DC9"/>
<path d="M268.584 195.264L274.959 149.226C271.956 148.625 268.838 148.302 265.65 148.302C239.616 148.302 218.526 169.392 218.526 195.426C218.526 221.46 239.616 242.55 265.65 242.55C291.684 242.55 312.774 221.46 312.774 195.426C312.774 193.717 312.682 192.03 312.497 190.367L268.584 195.264Z" fill="white" stroke="#4A7DC9" stroke-width="4" stroke-miterlimit="10"/>
<path d="M320.351 182.051C318.156 161.515 302.748 144.906 282.813 140.91L276.438 186.948L320.351 182.051Z" fill="white" stroke="#4A7DC9" stroke-width="4" stroke-miterlimit="10"/>
<path d="M253.269 211.688C253.269 209.656 254.516 208.362 256.272 208.362C258.027 208.362 259.251 209.632 259.251 211.688C259.251 213.744 258.027 215.015 256.272 215.015C254.516 215.015 253.269 213.721 253.269 211.688ZM257.542 211.688C257.542 210.395 257.034 209.771 256.272 209.771C255.532 209.771 255.001 210.418 255.001 211.688C255.001 212.959 255.509 213.606 256.272 213.606C257.034 213.606 257.542 212.982 257.542 211.688ZM263.479 208.501H265.535L257.288 220.582H255.232L263.479 208.501ZM261.492 217.394C261.492 215.361 262.74 214.068 264.472 214.068C266.228 214.068 267.475 215.361 267.475 217.394C267.475 219.427 266.228 220.72 264.472 220.72C262.716 220.72 261.492 219.427 261.492 217.394ZM265.719 217.394C265.719 216.124 265.211 215.477 264.449 215.477C263.71 215.477 263.178 216.1 263.178 217.394C263.178 218.688 263.687 219.311 264.449 219.311C265.234 219.311 265.719 218.665 265.719 217.394Z" fill="#4A7DC9"/>
<path d="M467.867 151.236H347.655V239.917H467.867V151.236Z" fill="white" stroke="#4A7DC9" stroke-width="4" stroke-miterlimit="10"/>
<path d="M367.336 207.923H359.482V222.453H367.336V207.923Z" fill="#D3DFFF"/>
<path d="M382.12 190.159H374.266V222.453H382.12V190.159Z" fill="#D3DFFF"/>
<path d="M396.904 173.365H389.05V222.453H396.904V173.365Z" fill="#D3DFFF"/>
<path d="M411.688 186.047H403.834V222.453H411.688V186.047Z" fill="#D3DFFF"/>
<path d="M426.472 183.044H418.618V222.453H426.472V183.044Z" fill="#D3DFFF"/>
<path d="M441.256 183.668H433.402V222.453H441.256V183.668Z" fill="#D3DFFF"/>
<path d="M456.04 166.597H448.186V222.453H456.04V166.597Z" fill="#D3DFFF"/>
<path d="M363.248 217.44L362.555 216.84L378.309 199.006L394.132 188.149L407.946 200.346L418.249 190.621L418.896 191.291L407.946 201.594L394.04 189.304L378.91 199.699L363.248 217.44Z" fill="#4A7DC9"/>
<path d="M411.78 102.171H282.282V116.77H411.78V102.171Z" fill="#4A7DC9"/>
<path d="M454.215 131.347H238.923V133.379H454.215V131.347Z" fill="#D3DFFF"/>
<path d="M454.215 125.341H238.923V127.373H454.215V125.341Z" fill="#D3DFFF"/>
<path d="M454.215 271.333H238.923V273.365H454.215V271.333Z" fill="#D3DFFF"/>
<path d="M454.215 277.5H238.923V279.533H454.215V277.5Z" fill="#D3DFFF"/>
<path d="M454.215 283.645H238.923V285.678H454.215V283.645Z" fill="#D3DFFF"/>
<path d="M289.212 250.335H240.24V256.641H289.212V250.335Z" fill="#D3DFFF"/>
<path d="M432.247 250.335H383.275V256.641H432.247V250.335Z" fill="#D3DFFF"/>
<path d="M84.1074 272.234H82.5366V357.588H84.1074V272.234Z" fill="#1F3C88"/>
<path d="M68.7456 283.645C77.6853 286.255 82.3746 282.767 84.5691 281.335C85.3314 280.827 85.4469 279.787 84.8232 278.979C82.6749 276.114 77.7084 270.848 70.3395 269.069C60.8223 266.759 52.1367 270.848 52.1367 270.848C52.1367 270.848 61.8387 281.635 68.7456 283.645Z" fill="#1F3C88"/>
<path d="M75.7912 295.842C85.7935 289.813 87.5029 282.698 88.45 279.51C88.7734 278.401 88.1266 277.454 86.9485 277.339C82.906 276.946 73.9663 275.005 65.9737 280.249C55.6711 287.041 51.3745 300.485 51.3745 300.485C51.3745 300.485 68.0527 300.508 75.7912 295.842Z" fill="#4A7DC9"/>
<path d="M78.1937 298.868C75.8838 288.889 80.5268 283.298 82.4903 280.688C83.1602 279.787 84.4538 279.579 85.3778 280.226C88.658 282.444 94.5485 287.687 96.0269 295.934C97.9211 306.583 92.1461 316.77 92.1461 316.77C92.1461 316.77 79.9955 306.583 78.1937 298.868Z" fill="#1F3C88"/>
<path d="M71.4022 267.359C74.7979 276.184 81.2659 278.055 84.1072 279.048C85.1005 279.394 86.1862 278.886 86.5789 277.916C87.9418 274.52 89.7436 267.429 86.602 260.36C82.5364 251.236 72.8113 246.408 72.8113 246.408C72.8113 246.408 68.7689 260.545 71.4022 267.359Z" fill="#D3DFFF"/>
<path d="M110.857 274.012C100.762 284.892 90.8986 284.384 86.4634 284.407C84.9157 284.407 83.7838 283.16 83.8531 281.589C84.1534 276.091 86.1631 265.165 94.8025 256.664C105.983 245.692 122.061 243.589 122.061 243.589C122.061 243.589 118.642 265.627 110.857 274.012Z" fill="#4A7DC9"/>
<path d="M105.937 283.46C96.9047 276.068 88.8428 277.985 85.193 278.655C83.9225 278.886 83.0678 280.087 83.2526 281.381C83.8532 285.862 86.2556 294.548 93.9248 300.208C103.835 307.53 117.21 306.791 117.21 306.791C117.21 306.791 112.913 289.166 105.937 283.46Z" fill="#D3DFFF"/>
<path d="M99.8849 398.383H66.4361L59.6216 343.844H106.699L99.8849 398.383Z" fill="white" stroke="#4A7DC9" stroke-width="4" stroke-miterlimit="10"/>
<path d="M111.296 352.899H55.0244L55.9484 343.844H110.372L111.296 352.899Z" fill="white" stroke="#4A7DC9" stroke-width="4" stroke-miterlimit="10"/>
<path d="M102.31 398.821H64.01C58.9049 398.821 54.77 394.687 54.77 389.581H111.527C111.55 394.687 107.415 398.821 102.31 398.821Z" fill="#4A7DC9"/>
<path d="M554.053 264.888L556.756 268.815C563.224 268.399 568.999 273.157 568.768 275.075H551.628L546.153 265.927L554.053 264.888Z" fill="#F9B384"/>
<path d="M439.408 199.145L434.095 186.948L422.406 184.916C422.406 184.916 422.545 188.011 430.907 189.097L432.57 191.291L439.408 199.145Z" fill="#E28B6D"/>
<path d="M435.551 197.482L431.67 187.249L422.476 190.945C422.476 190.945 423.862 192.908 429.984 191.869L431.693 193.093L435.551 197.482Z" fill="#E28B6D"/>
<path d="M437.583 198.036L431.646 188.866L423.446 194.433C423.446 194.433 425.225 196.05 430.976 193.74L432.894 194.571L437.583 198.036Z" fill="#E28B6D"/>
<path d="M446.196 178.981L420.325 188.612L421.453 191.643L447.324 182.012L446.196 178.981Z" fill="#4A7DC9"/>
<path d="M420.305 188.635L418.11 191.083L421.436 191.661" fill="#102048"/>
<path d="M439.408 199.145C439.408 199.145 435.273 192.931 433.379 191.661C431.485 190.39 429.106 189.512 428.32 187.78C427.558 186.047 426.241 187.687 426.218 188.357C426.195 189.951 426.68 192.192 429.36 193.832C429.36 193.832 431.647 201.016 435.504 201.548L439.408 199.145Z" fill="#F9B384"/>
<path d="M439.408 199.145L443.104 202.125L444.675 208.454L439.755 211.065L432.894 198.937L439.408 199.145Z" fill="#F9B384"/>
<path d="M463.594 398.244C472.926 396.627 477.823 393.162 482.836 389.743V398.244H484.407L486.624 383.16C481.681 386.74 475.259 390.205 469.969 391.129L463.594 398.244Z" fill="#102048"/>
<path d="M479.024 329.337L477.454 382.813L469.969 391.152C475.259 390.205 481.681 386.74 486.624 383.183L495.703 321.737L479.024 329.337Z" fill="#F9B384"/>
<path d="M512.219 313.998L501.316 323.077L528.99 380.041L527.673 390.436C531.854 386.186 535.319 381.058 537.837 376.253C531.808 355.186 525.525 333.333 512.219 313.998Z" fill="#F9B384"/>
<path d="M527.673 390.436L526.703 398.175C534.464 392.746 535.596 389.05 536.797 384.037L540.424 391.73L541.833 391.06C540.586 386.117 539.269 381.173 537.837 376.253C535.342 381.058 531.854 386.163 527.673 390.436Z" fill="#102048"/>
<path d="M521.136 322.476C505.728 328.644 491.152 326.08 479.025 329.314C473.897 316.447 470.593 300.323 476.507 267.821C476.969 265.35 477.593 262.901 478.378 260.522L483.368 245.345L483.483 244.975L500.785 239.57L510.117 245.876L510.279 246.361L510.464 246.939C512.358 252.668 514.737 258.212 517.463 263.617C527.489 283.391 527.928 303.719 521.136 322.476Z" fill="#1F3C88"/>
<path d="M556.687 265.558L546.154 271.379L517.51 226.611C516.378 233.61 513.998 239.824 510.464 245.322C510.349 245.507 510.233 245.692 510.118 245.853C499.954 248.625 492.238 248.833 483.483 244.952C483.368 244.745 483.252 244.537 483.114 244.352C479.533 238.277 476.9 230.723 474.752 222.361L464.68 228.644C460.799 231.069 455.763 230.538 452.46 227.373L434.119 209.725L441.395 200.67L461.769 214.876L474.497 205.59C478.124 202.934 482.259 201.062 486.648 200.046L493.555 198.452L500.716 197.782L509.609 200.878C516.285 203.211 521.945 207.808 525.595 213.883L556.687 265.558Z" fill="#1FC7A3"/>
<path d="M513.374 165.142C513.189 169.092 509.632 171.425 505.913 171.24C502.194 171.055 500.877 167.937 499.837 164.125C498.659 159.852 502.101 157.565 505.82 157.519C510.394 157.45 513.559 161.192 513.374 165.142Z" fill="#102048"/>
<path d="M503.718 186.925L503.094 197.551C502.863 201.571 499.468 204.666 495.471 204.458C492.792 204.319 490.713 202.125 490.713 199.468C490.713 199.376 490.713 199.284 490.713 199.214V199.076L491.059 191.545L495.518 189.905L503.718 186.925Z" fill="#F9B384"/>
<path d="M500.969 190.575C500.969 190.575 497.874 196.858 490.759 199.076L491.106 191.545L495.564 189.905L500.969 190.575Z" fill="#102048"/>
<path d="M505.843 176.831L504.134 187.064C504.134 187.064 498.266 195.796 489.881 195.01C486.416 194.687 484.822 192.515 484.129 190.044C483.598 188.126 483.621 186.024 483.737 184.546C483.852 183.299 484.014 182.467 484.014 182.467L482.882 177.177L485.746 171.725L496.88 168.029L505.843 176.831Z" fill="#F9B384"/>
<path d="M506.19 181.936C506.998 180.018 508.084 178.632 508.107 173.666C507.853 166.62 501.732 161.169 493.392 163.017C492.884 163.132 492.376 163.294 491.891 163.479C479.994 168.052 479.994 176.83 483.459 180.203C485.446 174.474 490.413 173.088 496.026 173.019C497.851 178.702 502.032 181.959 504.942 181.728L506.19 181.936Z" fill="#1F3C88"/>
<path d="M507.576 184.338C507.114 186.232 505.658 187.965 504.411 187.78C503.164 187.595 502.355 185.978 502.609 184.13C502.863 182.282 504.088 180.919 505.335 181.104C506.582 181.266 508.13 182.074 507.576 184.338Z" fill="#F9B384"/>
<path d="M504.203 184.754L503.741 184.708C503.741 184.638 503.903 183.114 504.827 182.605C505.243 182.374 505.751 182.374 506.305 182.652L506.097 183.067C505.682 182.86 505.335 182.86 505.035 183.021C504.457 183.322 504.226 184.361 504.203 184.754Z" fill="#E28B6D"/>
<path d="M487.571 183.206C487.954 183.206 488.264 182.71 488.264 182.097C488.264 181.485 487.954 180.989 487.571 180.989C487.189 180.989 486.878 181.485 486.878 182.097C486.878 182.71 487.189 183.206 487.571 183.206Z" fill="#102048"/>
<path d="M495.033 182.883C495.416 182.883 495.726 182.335 495.726 181.658C495.726 180.982 495.416 180.434 495.033 180.434C494.65 180.434 494.34 180.982 494.34 181.658C494.34 182.335 494.65 182.883 495.033 182.883Z" fill="#102048"/>
<path d="M491.429 181.566C491.267 182.167 490.921 182.721 490.574 183.206C490.228 183.714 489.858 184.176 489.558 184.661C489.419 184.892 489.304 185.146 489.281 185.377C489.234 185.608 489.327 185.793 489.488 185.978C489.858 186.394 490.32 186.787 490.782 187.133L490.69 187.341C490.089 187.133 489.581 186.763 489.119 186.348C489.003 186.232 488.865 186.07 488.796 185.886C488.726 185.701 488.703 185.493 488.703 185.308C488.749 184.939 488.888 184.615 489.05 184.338C489.396 183.784 489.789 183.345 490.158 182.883C490.528 182.421 490.921 181.982 491.198 181.474L491.429 181.566Z" fill="#102048"/>
<path d="M488.865 189.235C489.281 189.304 489.72 189.304 490.136 189.235C490.551 189.189 490.967 189.073 491.337 188.912C491.522 188.819 491.729 188.75 491.914 188.635C492.007 188.588 492.099 188.542 492.191 188.473C492.284 188.404 492.376 188.357 492.469 188.288C492.561 188.242 492.653 188.173 492.723 188.103L492.977 187.918C493.139 187.78 493.323 187.641 493.508 187.503L493.693 187.664C493.577 187.849 493.439 188.057 493.277 188.242C493.115 188.404 492.977 188.588 492.769 188.75C492.422 189.073 492.007 189.304 491.545 189.489C491.106 189.651 490.621 189.766 490.136 189.766C489.65 189.766 489.188 189.674 488.75 189.466L488.865 189.235Z" fill="#102048"/>
<path d="M485.446 180.295C485.631 179.926 485.955 179.626 486.324 179.395C486.694 179.164 487.11 179.002 487.525 178.956C487.964 178.886 488.403 178.933 488.819 179.048C489.235 179.164 489.604 179.395 489.905 179.695L489.72 179.995C489.35 179.926 489.004 179.857 488.657 179.833C488.311 179.81 487.987 179.81 487.664 179.857C487.341 179.903 487.017 179.972 486.694 180.088C486.37 180.203 486.07 180.365 485.723 180.55L485.446 180.295Z" fill="#102048"/>
<path d="M492.746 179.741C492.792 179.649 492.838 179.533 492.907 179.441C492.977 179.348 493.069 179.279 493.138 179.187C493.231 179.117 493.323 179.048 493.415 178.979C493.508 178.909 493.623 178.886 493.716 178.817C494.132 178.655 494.594 178.586 495.009 178.609C495.448 178.609 495.864 178.678 496.257 178.84C496.349 178.886 496.465 178.909 496.557 178.956C496.65 179.002 496.742 179.048 496.834 179.117C497.019 179.233 497.204 179.348 497.366 179.556L497.135 179.834C496.811 179.741 496.442 179.695 496.072 179.649C495.702 179.603 495.333 179.579 494.986 179.556C494.64 179.556 494.27 179.556 493.947 179.603C493.6 179.649 493.3 179.764 493.023 179.972L492.746 179.741Z" fill="#102048"/>
<path opacity="0.4" d="M498.22 188.611C499.751 188.611 500.992 187.37 500.992 185.84C500.992 184.309 499.751 183.068 498.22 183.068C496.689 183.068 495.448 184.309 495.448 185.84C495.448 187.37 496.689 188.611 498.22 188.611Z" fill="#F9B384"/>
<path opacity="0.4" d="M486.948 187.295C486.948 188.819 485.7 190.067 484.176 190.067H484.106C483.575 188.149 483.598 186.047 483.714 184.569C483.852 184.546 484.014 184.523 484.176 184.523C485.7 184.523 486.948 185.747 486.948 187.295Z" fill="#F9B384"/>
<path opacity="0.6" d="M510.279 246.338C506.352 254.215 489.166 254.747 483.368 245.345L483.483 244.975C492.215 248.856 499.953 248.648 510.117 245.876L510.279 246.338Z" fill="#102048"/>
<path d="M476.784 230.376C475.028 226.588 473.966 221.275 473.527 214.091L474.22 214.045C474.659 221.136 475.698 226.38 477.431 230.099L476.784 230.376Z" fill="#6F3428"/>
<path d="M516.239 233.703L515.569 233.541C515.661 233.148 515.777 232.733 515.869 232.34C516.862 228.528 517.879 224.601 517.255 216.262L517.948 216.216C518.595 224.671 517.555 228.667 516.562 232.525C516.447 232.894 516.331 233.31 516.239 233.703Z" fill="#6F3428"/>
<path d="M230.885 213.559C232.132 210.741 231.601 207.276 225.918 201.825L225.456 209.055L230.885 213.559Z" fill="#6F3428"/>
<path d="M244.051 198.475C243.797 198.591 232.848 206.375 232.34 206.56C232.086 206.653 227.766 203.858 226.957 202.587C226.819 202.356 228.459 189.281 229.937 189.905C231.808 190.714 230.838 194.34 230.792 195.495C231.139 195.472 230.977 195.449 231.323 195.426C231.346 195.426 231.37 195.426 231.393 195.426C233.01 192.677 234.65 189.951 236.267 187.202C236.359 187.041 236.475 186.925 236.613 186.856C237.098 186.602 237.63 186.995 237.653 187.526C237.768 189.12 236.174 192.539 235.551 193.878C237.283 192.423 239.847 189.767 241.649 188.381C242.481 187.734 243.312 188.727 242.689 189.72C242.111 190.644 238.969 194.294 237.607 195.657C239.062 194.987 243.358 192.1 243.589 192.308C244.19 192.354 244.675 193.07 244.121 193.624C242.342 195.426 240.979 196.835 238.9 198.221C240.679 197.967 241.88 197.667 243.589 196.928C244.56 196.512 245.022 198.059 244.051 198.475Z" fill="#F9B384"/>
<path d="M227.743 199.353L223.724 204.851L226.057 217.417L236.613 202.957L227.743 199.353Z" fill="#F9B384"/>
<path d="M232.34 200.346L231.878 200.138C232.733 198.106 231.116 196.119 231.116 196.119L231.508 195.796C231.555 195.865 233.31 198.013 232.34 200.346Z" fill="#E28B6D"/>
<path d="M238.231 199.469C237.376 197.274 236.152 195.865 234.535 195.149L234.743 194.687C236.475 195.449 237.792 196.997 238.693 199.284L238.231 199.469Z" fill="#E28B6D"/>
<path d="M178.84 192.492C181.774 192.03 186.394 192.284 190.945 193.024C196.674 193.971 201.686 197.459 204.712 202.402L212.589 215.13L225.918 201.848C226.611 206.445 228.297 210.349 230.885 213.583L216.054 229.152C213.536 231.416 209.748 231.485 207.138 229.314L196.812 221.668L185.262 218.041L178.84 192.492Z" fill="#1FC7A3"/>
<path d="M170.64 377.87L177.154 367.821L168.861 360.822L162.763 370.131C164.819 372.88 167.475 375.537 170.64 377.87Z" fill="#E28B6D"/>
<path d="M170.64 377.87C167.498 375.537 164.842 372.903 162.786 370.108L155.717 380.896L175.029 398.152C176.276 392.677 172.627 383.783 169.577 379.51L170.64 377.87Z" fill="#102048"/>
<path d="M197.574 398.082C193.878 393.763 185.1 390.852 180.18 389.766L180.088 387.41C177.015 387.387 173.781 387.04 170.917 386.278L171.564 398.105H197.574V398.082Z" fill="#1F3C88"/>
<path d="M180.088 387.387L179.579 374.959L170.339 375.421L170.917 386.232C173.781 387.017 176.992 387.387 180.088 387.387Z" fill="#F9B384"/>
<path d="M204.296 293.763L197.967 250.843L174.867 251.998L179.648 291.868V291.915L184.961 303.996C185.562 305.359 185.608 306.907 185.1 308.293L179.672 322.938V322.822L161.469 364.957L176.715 376.738L200.392 322.776C204.389 313.675 205.752 303.603 204.296 293.763Z" fill="#1F3C88"/>
<path d="M160.776 250.381L158.212 266.458C156.849 275.098 156.641 283.876 157.611 292.585L167.521 381.751H183.691L182.143 275.352L199.699 263.178L197.736 249.48L160.776 250.381Z" fill="#4A7DC9"/>
<path d="M156.156 256.549C156.156 256.549 153.384 254.562 155.463 251.097C155.532 250.981 155.602 250.843 155.648 250.681C156.156 249.249 156.202 245.923 156.064 241.972C155.694 232.617 154.077 219.681 154.077 219.681L158.004 202.125L166.158 194.34L186.186 194.179L196.188 207.577L198.822 238.392C198.822 238.392 199.284 243.474 201.732 248.695C206.237 258.258 159.991 260.221 156.156 256.549Z" fill="#1FC7A3"/>
<path d="M194.237 203.116L193.544 203.15L194.314 218.701L195.006 218.667L194.237 203.116Z" fill="#6F3428"/>
<path d="M202.887 240.841L179.695 244.121L179.903 211.896L203.072 208.639L202.887 240.841Z" fill="#F6F5F5"/>
<path d="M184.177 218.341L184.038 217.302L199.838 215.061L199.977 216.077L184.177 218.341Z" fill="#4A7DC9"/>
<path d="M184.153 222.707L184.015 221.691L199.815 219.45L199.954 220.466L184.153 222.707Z" fill="#4A7DC9"/>
<path d="M184.246 227.35L184.13 226.334L199.931 224.093L200.069 225.11L184.246 227.35Z" fill="#4A7DC9"/>
<path d="M184.222 232.386L184.107 231.37L199.907 229.129L200.046 230.145L184.222 232.386Z" fill="#D3DFFF"/>
<path d="M184.223 237.029L184.084 236.013L199.884 233.772L200.023 234.788L184.223 237.029Z" fill="#D3DFFF"/>
<path d="M172.672 241.834C172.672 241.834 178.794 236.498 175.398 228.228L168.861 235.597L172.672 241.834Z" fill="#6F3428"/>
<path opacity="0.3" d="M158.974 234.765C159.852 234.234 161.769 234.719 162.254 233.587C164.195 229.036 162.023 219.196 159.713 214.068L158.974 234.765Z" fill="#6F3428"/>
<path opacity="0.3" d="M172.673 241.857C172.673 241.857 169.439 249.064 155.648 250.681C156.156 249.249 156.202 245.923 156.064 241.972L172.673 241.857Z" fill="#6F3428"/>
<path d="M179.487 226.981L168.769 231.115L169.161 240.586L182.051 235.158L179.487 226.981Z" fill="#F9B384"/>
<path d="M191.615 229.268C191.222 229.337 190.852 229.383 190.46 229.452C190.991 230.145 190.737 231.485 189.559 231.67C189.466 231.693 189.374 231.693 189.305 231.716C189.42 232.132 189.397 232.455 189.097 232.825C188.912 233.079 187.249 234.188 186.579 234.511C176.461 239.339 174.729 233.795 175.237 231.878C175.606 230.399 177.2 228.69 178.471 227.35C182.583 223.885 185.147 222.43 189.305 221.737C190.968 221.46 190.783 223.054 189.397 223.908C188.773 224.301 188.034 224.648 187.341 224.879C187.318 224.902 187.272 224.948 187.249 224.971C186.14 225.756 185.101 226.611 184.13 227.535C185.447 227.489 192.562 226.68 193.301 227.743C193.555 228.089 192.585 229.06 191.615 229.268Z" fill="#F9B384"/>
<path d="M190.43 229.184L184.63 229.685L184.674 230.192L190.473 229.69L190.43 229.184Z" fill="#E28B6D"/>
<path d="M189.284 231.436L184.622 232.126L184.696 232.629L189.358 231.939L189.284 231.436Z" fill="#E28B6D"/>
<path d="M172.026 191.568C166.435 192.03 161.423 193.786 157.195 196.211C150.45 200.069 146.269 207.207 146.084 214.969C145.923 221.529 145.692 230.399 145.53 237.422C145.391 243.22 150.751 247.586 156.387 246.269L172.696 241.834C172.164 237.607 173.435 232.964 175.699 228.089L158.836 230.746L159.251 214.183L174.959 211.111L172.026 191.568Z" fill="#1FC7A3"/>
<path d="M154.447 232.502L154.169 231.855C159.251 229.706 168.307 228.528 175.629 227.743L175.699 228.436C168.422 229.221 159.436 230.399 154.447 232.502Z" fill="#6F3428"/>
<path d="M176.715 202.402C174.52 202.402 172.395 201.663 170.732 200.3L171.171 199.769C172.996 201.247 175.398 201.94 177.801 201.64C179.995 201.363 181.866 200.346 183.067 198.752L183.622 199.168C182.305 200.924 180.272 202.056 177.893 202.333C177.5 202.379 177.108 202.402 176.715 202.402Z" fill="#6F3428"/>
<path d="M181.728 182.559V190.875C181.728 191.222 181.705 191.568 181.635 191.915C181.15 195.056 178.563 197.436 175.421 197.436C171.956 197.436 169.138 194.502 169.138 190.875V182.559H181.728Z" fill="#F9B384"/>
<path d="M181.727 185.493V191.291C181.727 191.614 181.704 191.938 181.635 192.261C174.22 192.423 171.864 186.117 171.864 186.117L181.727 185.493Z" fill="#102048"/>
<path d="M186.925 182.328C186.717 184.477 185.886 186.694 183.737 188.288C180.642 190.575 173.874 191.153 167.429 180.619L167.267 165.974L177.5 164.287L185.955 167.845L185.678 175.006C185.678 175.006 186.117 175.976 186.486 177.454C186.787 178.794 187.087 180.55 186.925 182.328Z" fill="#F9B384"/>
<path d="M169.207 178.933C168.514 174.798 170.201 171.494 173.181 169.924C177.523 171.425 184.038 172.026 187.272 169.023C190.737 166.412 189.836 157.45 182.12 157.681C179.279 158.073 178.147 159.598 177.847 161.677C164.888 153.938 155.555 172.465 166.251 178.355L169.207 178.933Z" fill="#102048"/>
<path d="M170.917 180.55C171.032 182.652 169.392 183.876 167.683 183.945C165.996 184.038 163.756 181.843 163.64 179.718C163.525 177.616 164.98 176.6 166.666 176.507C168.376 176.438 170.801 178.448 170.917 180.55Z" fill="#F9B384"/>
<path d="M168.584 180.041C168.353 179.741 168.122 179.441 167.891 179.164C167.66 178.886 167.382 178.655 167.128 178.517C166.851 178.378 166.597 178.355 166.297 178.471C165.996 178.586 165.696 178.794 165.396 179.025L165.188 178.863C165.373 178.494 165.627 178.147 166.043 177.916C166.251 177.801 166.482 177.731 166.736 177.731C166.99 177.731 167.244 177.801 167.452 177.916C167.868 178.147 168.168 178.471 168.376 178.817C168.607 179.164 168.768 179.533 168.838 179.949L168.584 180.041Z" fill="#E28B6D"/>
<path d="M182.883 175.976C182.929 176.576 183.252 177.038 183.599 177.015C183.945 176.992 184.2 176.484 184.153 175.883C184.107 175.283 183.784 174.821 183.437 174.844C183.091 174.867 182.837 175.375 182.883 175.976Z" fill="#102048"/>
<path d="M176.184 176.6C176.23 177.2 176.553 177.662 176.9 177.639C177.246 177.616 177.5 177.108 177.454 176.507C177.408 175.906 177.084 175.444 176.738 175.468C176.392 175.491 176.137 175.999 176.184 176.6Z" fill="#102048"/>
<path d="M180.249 176.761C180.549 177.2 180.919 177.57 181.289 177.939C181.658 178.309 182.051 178.702 182.397 179.164C182.559 179.395 182.721 179.672 182.79 180.018C182.813 180.18 182.813 180.388 182.744 180.55C182.675 180.711 182.582 180.873 182.467 180.989C182.074 181.404 181.612 181.751 181.104 181.982L180.988 181.774C181.381 181.427 181.774 181.058 182.074 180.642C182.213 180.457 182.259 180.296 182.213 180.111C182.189 179.926 182.051 179.718 181.912 179.51C181.612 179.094 181.242 178.702 180.896 178.286C180.549 177.87 180.203 177.408 180.018 176.854L180.249 176.761Z" fill="#102048"/>
<path d="M183.021 184.223C182.675 184.5 182.259 184.638 181.82 184.708C181.381 184.777 180.942 184.777 180.503 184.685C180.088 184.592 179.672 184.43 179.302 184.199C179.117 184.107 178.956 183.945 178.771 183.83C178.609 183.691 178.471 183.53 178.332 183.391L178.494 183.206C178.679 183.299 178.863 183.391 179.025 183.483L179.302 183.622C179.395 183.668 179.464 183.714 179.556 183.737C179.649 183.761 179.741 183.807 179.834 183.853C179.926 183.899 180.018 183.922 180.111 183.945C180.296 184.015 180.48 184.038 180.665 184.107C181.035 184.176 181.404 184.223 181.797 184.199C182.167 184.176 182.559 184.13 182.929 184.015L183.021 184.223Z" fill="#102048"/>
<path d="M184.546 174.105C184.245 174.012 183.991 173.92 183.737 173.897C183.483 173.851 183.229 173.851 182.998 173.874C182.767 173.897 182.536 173.943 182.305 174.035C182.074 174.128 181.866 174.243 181.612 174.451L181.289 174.29C181.335 173.92 181.566 173.597 181.866 173.365C182.166 173.134 182.536 172.996 182.906 172.973C183.645 172.903 184.407 173.273 184.777 173.874L184.546 174.105Z" fill="#102048"/>
<path d="M178.886 174.775C178.517 174.659 178.193 174.544 177.847 174.497C177.5 174.451 177.177 174.451 176.83 174.497C176.484 174.544 176.137 174.613 175.791 174.705C175.444 174.798 175.098 174.913 174.775 175.052L174.521 174.798C174.775 174.405 175.121 174.151 175.514 173.943C175.906 173.735 176.322 173.62 176.761 173.573C177.2 173.527 177.662 173.573 178.078 173.735C178.494 173.897 178.863 174.151 179.14 174.497L178.886 174.775Z" fill="#102048"/>
<path opacity="0.4" d="M172.049 181.15C172.072 182.513 173.204 183.622 174.59 183.599C175.976 183.576 177.108 182.467 177.084 181.081C177.061 179.718 175.929 178.609 174.543 178.632C173.157 178.655 172.026 179.764 172.049 181.15Z" fill="#F9B384"/>
<path opacity="0.4" d="M186.925 182.328C185.609 182.259 184.546 181.196 184.523 179.88C184.5 178.702 185.355 177.708 186.463 177.431C186.787 178.794 187.087 180.55 186.925 182.328Z" fill="#F9B384"/>
<path d="M601.986 276.715V396.835" stroke="#102048" stroke-width="4" stroke-miterlimit="10"/>
<path d="M654.793 274.567H549.156V280.064H654.793V274.567Z" fill="#D3DFFF"/>
<path d="M624.347 398.798H579.648C579.648 394.848 582.859 391.637 586.809 391.637H617.209C621.136 391.637 624.347 394.848 624.347 398.798Z" fill="#4A7DC9"/>
<path d="M610.995 269.947H579.417V274.567H610.995V269.947Z" fill="#102048"/>
<path d="M625.987 274.567H589.974L604.781 239.408H640.794L625.987 274.567Z" fill="#4A7DC9"/>
<path d="M0 398.244H693" stroke="#102048" stroke-width="4.8" stroke-miterlimit="10"/>
<path d="M580.387 127.951C564.356 127.951 551.351 140.956 551.351 156.988C551.351 161.584 552.413 165.927 554.33 169.785L545.668 179.094L558.165 175.652C563.501 181.982 571.471 186.024 580.387 186.024C596.419 186.024 609.424 173.019 609.424 156.988C609.424 140.956 596.419 127.951 580.387 127.951Z" fill="white" stroke="#4A7DC9" stroke-width="4" stroke-miterlimit="10"/>
<path d="M569.396 159.809C570.957 158.248 570.957 155.718 569.396 154.157C567.836 152.597 565.305 152.597 563.745 154.157C562.184 155.718 562.184 158.248 563.745 159.809C565.305 161.369 567.836 161.369 569.396 159.809Z" fill="#4A7DC9"/>
<path d="M584.235 157.618C584.588 155.44 583.109 153.387 580.93 153.033C578.752 152.68 576.699 154.159 576.345 156.338C575.992 158.516 577.471 160.569 579.65 160.923C581.828 161.276 583.881 159.797 584.235 157.618Z" fill="#D3DFFF"/>
<path d="M597.892 157.945C598.399 155.797 597.069 153.645 594.921 153.138C592.773 152.631 590.62 153.961 590.113 156.109C589.606 158.257 590.936 160.409 593.084 160.916C595.232 161.423 597.384 160.093 597.892 157.945Z" fill="#D3DFFF"/>
<path d="M101.848 120.513C117.879 120.513 130.884 133.518 130.884 149.549C130.884 154.146 129.822 158.489 127.905 162.347L136.567 171.656L124.07 168.214C118.734 174.544 110.764 178.586 101.848 178.586C85.8163 178.586 72.811 165.581 72.811 149.549C72.811 133.518 85.8163 120.513 101.848 120.513Z" fill="white" stroke="#4A7DC9" stroke-width="4" stroke-miterlimit="10"/>
<path d="M115.5 152.76C117.707 152.76 119.496 150.971 119.496 148.764C119.496 146.557 117.707 144.768 115.5 144.768C113.293 144.768 111.504 146.557 111.504 148.764C111.504 150.971 113.293 152.76 115.5 152.76Z" fill="#4A7DC9"/>
<path d="M105.792 148.815C105.826 146.608 104.064 144.792 101.857 144.759C99.65 144.726 97.8339 146.488 97.8006 148.694C97.7673 150.901 99.5293 152.717 101.736 152.751C103.943 152.784 105.759 151.022 105.792 148.815Z" fill="#D3DFFF"/>
<path d="M92.0864 148.791C92.0977 146.584 90.3177 144.786 88.1106 144.774C85.9035 144.763 84.1051 146.543 84.0938 148.75C84.0824 150.957 85.8624 152.755 88.0695 152.767C90.2766 152.778 92.075 150.998 92.0864 148.791Z" fill="#D3DFFF"/>
</svg>
