<svg width="170" height="178" viewBox="0 0 170 178" fill="none" xmlns="http://www.w3.org/2000/svg">
<path fill-rule="evenodd" clip-rule="evenodd" d="M93.6491 1.76824C112.828 0.0116693 135.495 -3.4994 149.442 9.77683C163.355 23.0207 156.496 46.0966 160.043 64.9702C162.985 80.6227 174.053 95.9176 168.431 110.819C162.855 125.598 143.756 128.739 132.001 139.295C118.153 151.73 112.236 179.005 93.6491 177.971C74.7067 176.918 73.7473 146.172 58.2771 135.195C42.4883 123.992 15.7266 131.515 5.24295 115.244C-5.17045 99.082 1.93147 76.899 9.26659 59.1283C16.2203 42.2816 29.7446 29.6071 44.8211 19.3587C59.486 9.39002 75.9882 3.38573 93.6491 1.76824Z" fill="#F2F5FA"/>
<path d="M128.73 42.2076L113.105 26.5826C112.812 26.2896 112.414 26.125 112 26.125H72.9375C71.2805 26.1269 69.6919 26.786 68.5202 27.9577C67.3485 29.1294 66.6894 30.718 66.6875 32.375V77.6875H69.8125V32.375C69.8134 31.5465 70.143 30.7522 70.7288 30.1663C71.3147 29.5805 72.109 29.2509 72.9375 29.25H110.438V38.625C110.439 40.282 111.098 41.8706 112.27 43.0423C113.442 44.214 115.03 44.8731 116.688 44.875H126.062V113.625C126.062 114.454 125.732 115.248 125.146 115.834C124.56 116.42 123.766 116.749 122.938 116.75H72.9375C72.1689 116.751 71.4272 116.467 70.8547 115.955L68.7703 118.283C69.9158 119.309 71.3997 119.876 72.9375 119.875H122.938C124.595 119.873 126.183 119.214 127.355 118.042C128.527 116.871 129.186 115.282 129.188 113.625V43.3125C129.187 42.8981 129.023 42.5007 128.73 42.2076ZM113.562 38.625V31.4597L123.853 41.75H116.688C115.859 41.7491 115.065 41.4195 114.479 40.8337C113.893 40.2478 113.563 39.4535 113.562 38.625Z" fill="#4A7DC9"/>
<path d="M72.9375 32.375H79.1875V35.5H72.9375V32.375Z" fill="#4A7DC9"/>
<path d="M82.3125 32.375H93.25V35.5H82.3125V32.375Z" fill="#4A7DC9"/>
<path d="M72.9375 38.625H82.3125V41.75H72.9375V38.625Z" fill="#4A7DC9"/>
<path d="M72.9375 48H83.875V51.125H72.9375V48Z" fill="#4A7DC9"/>
<path d="M87 48H99.5V51.125H87V48Z" fill="#4A7DC9"/>
<path d="M72.9375 54.25H87V57.375H72.9375V54.25Z" fill="#4A7DC9"/>
<path d="M80.75 60.5H96.375V63.625H80.75V60.5Z" fill="#4A7DC9"/>
<path d="M99.5 60.5H113.562V63.625H99.5V60.5Z" fill="#4A7DC9"/>
<path d="M116.688 60.5H122.938V63.625H116.688V60.5Z" fill="#4A7DC9"/>
<path d="M72.9375 66.75H88.5625V69.875H72.9375V66.75Z" fill="#4A7DC9"/>
<path d="M91.6875 66.75H105.75V69.875H91.6875V66.75Z" fill="#4A7DC9"/>
<path d="M108.875 66.75H122.938V69.875H108.875V66.75Z" fill="#4A7DC9"/>
<path d="M72.9375 73H96.375V76.125H72.9375V73Z" fill="#4A7DC9"/>
<path d="M99.5 73H113.562V76.125H99.5V73Z" fill="#4A7DC9"/>
<path d="M116.688 73H122.938V76.125H116.688V73Z" fill="#4A7DC9"/>
<path d="M82.3125 102.688C81.8981 102.688 81.5007 102.852 81.2077 103.145C80.9146 103.438 80.75 103.836 80.75 104.25V113.625C80.75 114.039 80.9146 114.437 81.2077 114.73C81.5007 115.023 81.8981 115.187 82.3125 115.188H91.6875C92.1019 115.187 92.4993 115.023 92.7923 114.73C93.0854 114.437 93.25 114.039 93.25 113.625V104.25C93.25 103.836 93.0854 103.438 92.7923 103.145C92.4993 102.852 92.1019 102.688 91.6875 102.688H82.3125ZM90.125 112.062H83.875V105.812H90.125V112.062Z" fill="#1FC7A3"/>
<path d="M96.375 113.625C96.375 114.039 96.5396 114.437 96.8327 114.73C97.1257 115.023 97.5231 115.187 97.9375 115.188H107.312C107.727 115.187 108.124 115.023 108.417 114.73C108.71 114.437 108.875 114.039 108.875 113.625V96.4375C108.875 96.0231 108.71 95.6257 108.417 95.3327C108.124 95.0396 107.727 94.875 107.312 94.875H97.9375C97.5231 94.875 97.1257 95.0396 96.8327 95.3327C96.5396 95.6257 96.375 96.0231 96.375 96.4375V113.625ZM99.5 98H105.75V112.062H99.5V98Z" fill="#1FC7A3"/>
<path d="M113.562 115.188H122.938C123.352 115.187 123.749 115.023 124.042 114.73C124.335 114.437 124.5 114.039 124.5 113.625V90.1875C124.5 89.7731 124.335 89.3757 124.042 89.0827C123.749 88.7896 123.352 88.625 122.938 88.625H113.562C113.148 88.625 112.751 88.7896 112.458 89.0827C112.165 89.3757 112 89.7731 112 90.1875V113.625C112 114.039 112.165 114.437 112.458 114.73C112.751 115.023 113.148 115.187 113.562 115.188ZM115.125 91.75H121.375V112.062H115.125V91.75Z" fill="#1FC7A3"/>
<path d="M47.9375 97.9999C47.9418 94.3867 49.3352 90.9135 51.8292 88.299C54.3232 85.6845 57.7269 84.129 61.3359 83.9543L59.3326 85.9575L61.5424 88.1674L66.2299 83.4799C66.523 83.1868 66.6876 82.7894 66.6876 82.3749C66.6876 81.9605 66.523 81.5631 66.2299 81.27L61.5424 76.5825L59.3326 78.7924L61.3657 80.8254C57.639 80.9633 54.0582 82.3095 51.1636 84.6608C48.269 87.0121 46.2177 90.241 45.319 93.8604C44.4204 97.4797 44.7232 101.293 46.1818 104.725C47.6404 108.157 50.1757 111.022 53.4051 112.887L54.9699 110.182C52.8351 108.944 51.0624 107.167 49.8284 105.029C48.5945 102.892 47.9425 100.468 47.9375 97.9999Z" fill="#1FC7A3"/>
<path d="M79.1876 98C79.1816 94.984 78.3851 92.0222 76.8774 89.41C75.3697 86.7979 73.2036 84.6266 70.5949 83.1128L69.0302 85.8178C71.6621 87.3372 73.731 89.6682 74.9272 92.4619C76.1235 95.2556 76.3825 98.3616 75.6657 101.315C74.9489 104.268 73.2948 106.91 70.9509 108.844C68.6071 110.779 65.6998 111.902 62.6641 112.046L64.6675 110.042L62.4576 107.833L57.7701 112.52C57.4771 112.813 57.3125 113.211 57.3125 113.625C57.3125 114.039 57.4771 114.437 57.7701 114.73L62.4576 119.417L64.6675 117.208L62.6344 115.175C67.0781 115.005 71.2837 113.123 74.3697 109.921C77.4557 106.719 79.1823 102.447 79.1876 98Z" fill="#1FC7A3"/>
<path d="M63.1049 99.1049C63.3978 98.8118 63.5624 98.4144 63.5624 98V90.1875H60.4374V97.3528L56.2075 101.583L58.4174 103.792L63.1049 99.1049Z" fill="#1FC7A3"/>
</svg>
