<svg width="176" height="152" viewBox="0 0 176 152" fill="none" xmlns="http://www.w3.org/2000/svg">
<path fill-rule="evenodd" clip-rule="evenodd" d="M75.9445 0.0974375C96.1862 1.77018 97.9903 27.0305 114.555 36.5257C131.386 46.1729 160.09 40.251 170.792 54.4638C181.372 68.5154 174.161 87.9592 164.019 102.218C154.787 115.197 135.803 120.327 119.174 127.032C105.36 132.601 90.9117 134.63 75.9445 137.727C54.5392 142.158 31.4056 158.645 12.8077 149.047C-5.47993 139.608 1.42644 116.33 0.667118 98.877C0.106621 85.9939 3.6683 73.9063 9.00983 61.7507C14.2057 49.9265 20.8378 39.0784 31.0969 29.6288C44.121 17.6323 56.2354 -1.53129 75.9445 0.0974375Z" fill="#F2F5FA"/>
<g clip-path="url(#clip0)">
<path d="M108.834 34H42.1666C37.5666 34.0054 33.8387 37.7333 33.8333 42.3334V95.6669C33.8328 99.468 36.4045 102.787 40.0849 103.737L40.9183 100.51C38.7093 99.9407 37.1658 97.9482 37.1666 95.6669V42.3334C37.1666 39.5719 39.4052 37.3333 42.1666 37.3333H108.834C111.595 37.3333 113.834 39.5719 113.834 42.3334V44H117.167V42.3334C117.162 37.7333 113.434 34.0054 108.834 34Z" fill="#4A7DC9"/>
<path d="M43.8333 40.6667H40.5V44.0001H43.8333V40.6667Z" fill="#1FC7A3"/>
<path d="M50.5001 40.6667H47.1667V44.0001H50.5001V40.6667Z" fill="#1FC7A3"/>
<path d="M57.1668 40.6667H53.8335V44.0001H57.1668V40.6667Z" fill="#1FC7A3"/>
<path d="M131.679 126.155L115.87 110.347C116.701 108.865 117.365 107.295 117.85 105.667H120.5V102.334H118.567C119.195 98.2992 118.711 94.17 117.167 90.3902V74.0001H113.834V84.6135C112.844 83.3491 111.727 82.1898 110.5 81.1535V67.3334H107.167V78.8235C106.1 78.2052 104.985 77.6729 103.834 77.2318V60.6667H100.5V76.2201C99.4019 75.9831 98.2879 75.8266 97.1669 75.7518V64.0001H93.8335V75.7518C92.7125 75.8266 91.5985 75.9831 90.5002 76.2201V70.6668H87.1668V77.2318C86.0151 77.6729 84.9006 78.2052 83.8335 78.8235V69.0001H80.5001V81.1535C79.2735 82.1898 78.1566 83.3491 77.1668 84.6135V72.3335H73.8334V90.3902C72.2897 94.17 71.8057 98.2992 72.4334 102.334H50.5V105.667H73.1501C76.8055 117.997 89.7639 125.028 102.093 121.373C104.523 120.652 106.819 119.54 108.89 118.08L124.322 133.512C124.973 134.163 126.028 134.163 126.679 133.512L131.679 128.512C132.329 127.861 132.329 126.806 131.679 126.155ZM95.5002 119C84.4593 118.988 75.512 110.041 75.5001 99.0002C75.5001 87.9546 84.4545 79.0002 95.5002 79.0002C106.546 79.0002 115.5 87.9546 115.5 99.0002C115.5 110.046 106.546 119 95.5002 119ZM125.5 129.977L111.48 115.957C112.389 115.099 113.227 114.17 113.989 113.179L128.144 127.334L125.5 129.977Z" fill="#1FC7A3"/>
<path d="M95.5002 82.3335C86.2954 82.3335 78.8335 89.7954 78.8335 99.0002C78.8335 108.205 86.2954 115.667 95.5002 115.667C104.705 115.667 112.167 108.205 112.167 99.0002C112.157 89.7996 104.701 82.3435 95.5002 82.3335ZM95.5002 112.334C90.7427 112.328 86.3489 109.787 83.9702 105.667H107.03C104.652 109.787 100.258 112.328 95.5002 112.334ZM82.6052 102.334C81.2641 97.2586 83.0548 91.871 87.1669 88.6085V99.0002H90.5002V86.6485C91.569 86.216 92.6896 85.9248 93.8336 85.7818V99.0002H97.1669V85.7818C98.3109 85.9248 99.4315 86.216 100.5 86.6485V99.0002H103.834V88.6085C107.946 91.871 109.736 97.2586 108.395 102.334H82.6052Z" fill="#4A7DC9"/>
<path d="M118.834 47.3334H52.1669C47.5668 47.3388 43.8389 51.0667 43.8335 55.6667V109C43.8389 113.6 47.5668 117.328 52.1669 117.334H73.8336V114H52.1669C49.4054 114 47.1668 111.762 47.1668 109V55.6667C47.1668 52.9053 49.4054 50.6667 52.1669 50.6667H118.834C121.595 50.6667 123.834 52.9053 123.834 55.6667V109C123.834 110.218 123.389 111.394 122.584 112.307L125.084 114.512C126.427 112.99 127.168 111.03 127.167 109V55.6667C127.162 51.0667 123.434 47.3388 118.834 47.3334Z" fill="#4A7DC9"/>
<path d="M53.8333 54.0001H50.5V57.3335H53.8333V54.0001Z" fill="#1FC7A3"/>
<path d="M60.5001 54.0001H57.1667V57.3335H60.5001V54.0001Z" fill="#1FC7A3"/>
<path d="M67.1668 54.0001H63.8335V57.3335H67.1668V54.0001Z" fill="#1FC7A3"/>
<path d="M57.1668 89.0002H53.8335V99.0003H57.1668V89.0002Z" fill="#1FC7A3"/>
<path d="M63.8333 79.0002H60.5V99.0003H63.8333V79.0002Z" fill="#1FC7A3"/>
<path d="M70.5001 84.0002H67.1667V99.0003H70.5001V84.0002Z" fill="#1FC7A3"/>
</g>
<defs>
<clipPath id="clip0">
<rect width="100" height="100" fill="white" transform="translate(33 34)"/>
</clipPath>
</defs>
</svg>
