<svg width="166" height="142" viewBox="0 0 166 142" fill="none" xmlns="http://www.w3.org/2000/svg">
<path fill-rule="evenodd" clip-rule="evenodd" d="M87.2578 0.674079C102.491 -0.549332 118.16 -0.851783 131.615 6.42051C146.286 14.3501 159.854 26.4414 164.596 42.4738C169.292 58.351 161.091 74.3614 156.405 90.2413C151.568 106.631 150.88 126.503 136.911 136.281C122.979 146.033 104.102 140.833 87.2578 138.642C72.5294 136.727 59.3482 131.311 46.1482 124.48C30.355 116.307 10.2348 111.475 3.15491 95.1184C-4.02407 78.5327 2.13423 58.6211 10.7731 42.752C18.5249 28.5123 33.5974 20.9535 47.7751 13.1537C60.1781 6.33014 73.1586 1.80639 87.2578 0.674079Z" fill="#F2F5FA"/>
<path d="M83.9084 46.8877H102.847C103.6 46.8877 104.21 46.2778 104.21 45.5252C104.21 44.7727 103.6 44.1627 102.847 44.1627H83.9084C83.1559 44.1627 82.5459 44.7727 82.5459 45.5252C82.5459 46.2778 83.1561 46.8877 83.9084 46.8877Z" fill="#1FC7A3"/>
<path d="M82.5459 51.8992C82.5459 52.6518 83.1559 53.2617 83.9084 53.2617H102.847C103.6 53.2617 104.21 52.6518 104.21 51.8992C104.21 51.1467 103.6 50.5367 102.847 50.5367H83.9084C83.1561 50.5367 82.5459 51.1467 82.5459 51.8992Z" fill="#1FC7A3"/>
<path d="M83.9084 59.6356H102.847C103.6 59.6356 104.21 59.0257 104.21 58.2731C104.21 57.5206 103.6 56.9106 102.847 56.9106H83.9084C83.1559 56.9106 82.5459 57.5206 82.5459 58.2731C82.5459 59.0255 83.1561 59.6356 83.9084 59.6356Z" fill="#1FC7A3"/>
<path d="M104.21 93.8455C104.21 93.093 103.6 92.483 102.847 92.483H85.2414C84.4889 92.483 83.8789 93.093 83.8789 93.8455C83.8789 94.5981 84.4889 95.208 85.2414 95.208H102.847C103.599 95.208 104.21 94.5981 104.21 93.8455Z" fill="#1FC7A3"/>
<path d="M74.6754 80.5499C74.6754 79.7973 74.0654 79.1874 73.3129 79.1874H54.3742C53.6217 79.1874 53.0117 79.7973 53.0117 80.5499C53.0117 81.3024 53.6217 81.9124 54.3742 81.9124H73.3129C74.0652 81.9126 74.6754 81.3024 74.6754 80.5499Z" fill="#1FC7A3"/>
<path d="M54.3742 75.5385H73.3129C74.0654 75.5385 74.6754 74.9285 74.6754 74.176C74.6754 73.4234 74.0654 72.8135 73.3129 72.8135H54.3742C53.6217 72.8135 53.0117 73.4234 53.0117 74.176C53.0115 74.9285 53.6217 75.5385 54.3742 75.5385Z" fill="#1FC7A3"/>
<path d="M65.6682 37.1981C57.8816 37.1981 51.5469 43.5329 51.5469 51.3194C51.5469 59.1059 57.8816 65.4407 65.6682 65.4407C73.4547 65.4407 79.7895 59.1059 79.7895 51.3194C79.7895 43.5329 73.4549 37.1981 65.6682 37.1981ZM65.6682 62.5112C59.4971 62.5112 54.4766 57.4907 54.4766 51.3196C54.4766 45.645 58.7219 40.9432 64.2033 40.2233V51.3196C64.2033 52.1286 64.8592 52.7844 65.6682 52.7844H76.7645C76.0447 58.2659 71.343 62.5112 65.6682 62.5112ZM67.133 49.8548V40.2233C72.135 40.8802 76.1076 44.8528 76.7645 49.8548H67.133Z" fill="#1FC7A3"/>
<path d="M78.1753 70.8228V83.9033C78.1753 85.2119 79.2399 86.2765 80.5485 86.2765H103.301C104.61 86.2765 105.675 85.2119 105.675 83.9033V70.8228C105.675 69.5142 104.61 68.4496 103.301 68.4496H80.5483C79.2397 68.4496 78.1753 69.514 78.1753 70.8228ZM81.105 71.3793H102.745V83.3467H81.105V71.3793Z" fill="#1FC7A3"/>
<path d="M51.5469 110.884C51.5469 112.193 52.6115 113.257 53.9199 113.257H57.9002C59.2088 113.257 60.2734 112.193 60.2734 110.884V91.014C60.2734 89.7054 59.2088 88.641 57.9002 88.641H53.9199C52.6113 88.641 51.5469 89.7056 51.5469 91.014V110.884ZM54.4766 91.5707H57.3437V110.328H54.4766V91.5707Z" fill="#4A7DC9"/>
<path d="M64.7341 93.8545C63.4255 93.8545 62.3608 94.9191 62.3608 96.2275V110.884C62.3608 112.193 63.4255 113.257 64.7341 113.257H68.7142C70.0228 113.257 71.0874 112.193 71.0874 110.884V96.2275C71.0874 94.9189 70.0228 93.8545 68.7142 93.8545H64.7341ZM68.1577 110.328H65.2905V96.7842H68.1577V110.328Z" fill="#4A7DC9"/>
<path d="M75.5485 113.257H79.5288C80.8374 113.257 81.9021 112.193 81.9021 110.884V102.723C81.9021 101.415 80.8374 100.35 79.5288 100.35H75.5485C74.2399 100.35 73.1753 101.415 73.1753 102.723V110.884C73.1753 112.193 74.2399 113.257 75.5485 113.257ZM76.105 103.28H78.9724V110.328H76.105V103.28Z" fill="#4A7DC9"/>
<path d="M102.847 99.1777H85.2414C84.4889 99.1777 83.8789 99.7877 83.8789 100.54C83.8789 101.293 84.4889 101.903 85.2414 101.903H102.847C103.6 101.903 104.21 101.293 104.21 100.54C104.21 99.7877 103.6 99.1777 102.847 99.1777Z" fill="#4A7DC9"/>
<path d="M102.847 105.872H85.2414C84.4889 105.872 83.8789 106.482 83.8789 107.235C83.8789 107.987 84.4889 108.597 85.2414 108.597H102.847C103.6 108.597 104.21 107.987 104.21 107.235C104.21 106.482 103.6 105.872 102.847 105.872Z" fill="#4A7DC9"/>
<path d="M118.188 41.1619C118.997 41.1619 119.653 40.5061 119.653 39.6971V27.9098C119.653 25.2025 117.451 23 114.744 23H56.0355C53.3283 23 51.1258 25.2025 51.1258 27.9098V29.7791H49.2564C46.5492 29.7791 44.3467 31.9816 44.3467 34.6889V97.4461C44.3467 98.2551 45.0025 98.9109 45.8115 98.9109C46.6205 98.9109 47.2764 98.2551 47.2764 97.4461V34.6889C47.2764 33.5971 48.1646 32.7088 49.2564 32.7088H107.964C109.056 32.7088 109.945 33.5971 109.945 34.6889V118.09C109.945 119.182 109.056 120.07 107.964 120.07H49.2564C48.1646 120.07 47.2764 119.182 47.2764 118.09V104.282C47.2764 103.473 46.6205 102.817 45.8115 102.817C45.0025 102.817 44.3467 103.473 44.3467 104.282V118.09C44.3467 120.797 46.5492 123 49.2564 123H107.964C110.672 123 112.874 120.797 112.874 118.09V116.221H114.744C117.451 116.221 119.653 114.018 119.653 111.311V46.533C119.653 45.724 118.997 45.0682 118.188 45.0682C117.379 45.0682 116.724 45.724 116.724 46.533V111.311C116.724 112.403 115.835 113.291 114.744 113.291H112.874V34.6889C112.874 31.9816 110.672 29.7791 107.964 29.7791C104.999 29.7791 57.2207 29.7791 54.0555 29.7791V27.9098C54.0555 26.818 54.9437 25.9297 56.0355 25.9297H114.744C115.835 25.9297 116.724 26.818 116.724 27.9098V39.6971C116.724 40.5061 117.379 41.1619 118.188 41.1619Z" fill="#4A7DC9"/>
</svg>
