<svg width="151" height="150" viewBox="0 0 151 150" fill="none" xmlns="http://www.w3.org/2000/svg">
<path fill-rule="evenodd" clip-rule="evenodd" d="M80.8943 1.96736C94.8289 4.31826 106.643 11.8615 117.899 20.3762C128.912 28.707 139.391 37.7651 144.913 50.3949C150.847 63.966 152.336 78.844 149.844 93.437C147.02 109.969 143.02 127.81 129.897 138.312C116.556 148.989 97.6352 152.15 80.8943 148.615C65.5985 145.385 57.4092 129.816 44.9706 120.377C32.9431 111.251 16.8163 107.363 9.30294 94.2921C0.905566 79.6836 -2.48918 61.8075 1.96909 45.5696C6.53149 28.9525 18.3835 14.4931 33.5064 6.13843C47.7222 -1.71514 64.8671 -0.73656 80.8943 1.96736Z" fill="#F2F5FA"/>
<path d="M121.371 99.7605C121.384 99.7613 121.399 99.7613 121.413 99.7613C122.203 99.7613 122.854 99.1326 122.876 98.3376L122.878 98.2606C122.901 97.4511 122.264 96.7774 121.455 96.7545C120.644 96.7248 119.973 97.3687 119.95 98.1774L119.948 98.2552C119.925 99.0639 120.562 99.7376 121.371 99.7605Z" fill="#1FC7A3"/>
<path d="M121.47 101.708C120.661 101.679 119.987 102.322 119.964 103.131L119.962 103.209C119.939 104.018 120.576 104.691 121.385 104.714C121.399 104.715 121.413 104.715 121.427 104.715C122.217 104.715 122.868 104.086 122.89 103.291L122.892 103.214C122.915 102.405 122.278 101.731 121.47 101.708Z" fill="#1FC7A3"/>
<path d="M123.975 99.2638L123.897 99.2615C123.096 99.2356 122.416 99.878 122.394 100.687C122.372 101.495 123.01 102.168 123.819 102.19L123.897 102.193H123.937C124.727 102.193 125.379 101.563 125.4 100.768C125.422 99.9588 124.784 99.2859 123.975 99.2638Z" fill="#1FC7A3"/>
<path d="M120.447 100.782C120.469 99.9733 119.831 99.3004 119.023 99.2782L118.945 99.2759C118.136 99.2515 117.462 99.8916 117.441 100.701C117.419 101.51 118.057 102.183 118.865 102.205L118.943 102.207H118.984C119.774 102.207 120.426 101.578 120.447 100.782Z" fill="#1FC7A3"/>
<path d="M108.469 26.1553C108.483 26.156 108.498 26.156 108.511 26.156C109.301 26.156 109.953 25.5266 109.975 24.7324L109.977 24.6546C110 23.8458 109.363 23.1722 108.554 23.1493C107.745 23.1264 107.072 23.7634 107.049 24.5722L107.046 24.65C107.024 25.4579 107.661 26.1324 108.469 26.1553Z" fill="#1FC7A3"/>
<path d="M108.569 28.1031C107.755 28.0802 107.086 28.7173 107.063 29.526L107.061 29.6031C107.038 30.4118 107.675 31.0862 108.484 31.1091H108.526C109.316 31.1091 109.967 30.4805 109.99 29.6862L109.992 29.6084C110.014 28.7997 109.377 28.126 108.569 28.1031Z" fill="#1FC7A3"/>
<path d="M109.493 27.0807C109.471 27.8902 110.108 28.5631 110.917 28.5852L110.994 28.5867C111.008 28.5875 111.022 28.5875 111.035 28.5875C111.826 28.5875 112.477 27.9573 112.499 27.1623C112.52 26.3536 111.882 25.6799 111.074 25.6586L110.997 25.6563C110.185 25.6326 109.514 26.272 109.493 27.0807Z" fill="#1FC7A3"/>
<path d="M105.96 28.5997L106.038 28.602H106.082C106.871 28.602 107.522 27.9748 107.546 27.1806C107.569 26.3719 106.933 25.6967 106.124 25.673L106.047 25.6707C105.239 25.6509 104.563 26.2834 104.54 27.0921C104.515 27.9008 105.152 28.5753 105.96 28.5997Z" fill="#1FC7A3"/>
<path d="M50.4694 32.9851C50.4831 32.9851 50.4968 32.9859 50.5113 32.9859C51.301 32.9859 51.9525 32.3564 51.9747 31.5622L51.977 31.4844C51.9998 30.6757 51.3628 30.002 50.5541 29.9791C49.7423 29.9562 49.0709 30.5933 49.048 31.402L49.0465 31.4791C49.0236 32.2878 49.6607 32.9622 50.4694 32.9851Z" fill="#1FC7A3"/>
<path d="M50.5687 34.9328C49.7585 34.9107 49.0856 35.547 49.0627 36.3557L49.0611 36.4328C49.0383 37.2415 49.6753 37.9159 50.484 37.9388C50.4978 37.9388 50.5115 37.9396 50.526 37.9396C51.3156 37.9396 51.9672 37.3101 51.9893 36.5159L51.9916 36.4381C52.0145 35.6294 51.3774 34.9557 50.5687 34.9328Z" fill="#1FC7A3"/>
<path d="M51.4923 33.9075C51.4687 34.7162 52.105 35.3907 52.9137 35.4143L52.9915 35.4174H53.035C53.8239 35.4174 54.4754 34.7902 54.4983 33.996C54.5227 33.1873 53.8864 32.5121 53.0777 32.4884L52.9999 32.4862C52.1912 32.464 51.516 33.0988 51.4923 33.9075Z" fill="#1FC7A3"/>
<path d="M47.9601 35.4288L48.0371 35.4311C48.0524 35.4318 48.0669 35.4318 48.0814 35.4318C48.8703 35.4318 49.5218 34.8039 49.5447 34.0105C49.5684 33.2018 48.9328 32.5266 48.1241 32.5029L48.0463 32.5006C47.233 32.48 46.5631 33.1133 46.5387 33.922C46.5151 34.7299 47.1514 35.4051 47.9601 35.4288Z" fill="#1FC7A3"/>
<path d="M46.9688 70.3804C48.0186 70.633 49.1172 70.8771 50.2349 71.1052C50.3341 71.1251 50.4325 71.135 50.5294 71.135C51.2115 71.135 51.8218 70.6566 51.9637 69.9623C52.1247 69.1696 51.6136 68.396 50.8209 68.2343C49.736 68.013 48.6717 67.7765 47.6554 67.5324C46.8688 67.3424 46.0777 67.8261 45.8885 68.6127C45.6985 69.4 46.1822 70.1912 46.9688 70.3804Z" fill="#1FC7A3"/>
<path d="M46.9688 83.9119C48.0186 84.1645 49.1172 84.4086 50.2349 84.6367C50.3341 84.6565 50.4325 84.6665 50.5294 84.6665C51.2115 84.6665 51.8218 84.1881 51.9637 83.4938C52.1247 82.7011 51.6136 81.9275 50.8209 81.7658C49.736 81.5445 48.6717 81.308 47.6554 81.0639C46.8688 80.8739 46.0777 81.3576 45.8885 82.1442C45.6985 82.9315 46.1822 83.7227 46.9688 83.9119Z" fill="#1FC7A3"/>
<path d="M46.9688 79.776C48.0186 80.0293 49.1172 80.2727 50.2349 80.5008C50.3341 80.5214 50.4325 80.5306 50.5294 80.5306C51.2115 80.5306 51.8218 80.0522 51.9637 79.3579C52.1247 78.5652 51.6136 77.7916 50.8209 77.6299C49.736 77.4086 48.6717 77.1729 47.6554 76.928C46.8688 76.738 46.0777 77.2225 45.8885 78.0083C45.6985 78.7956 46.1822 79.5868 46.9688 79.776Z" fill="#1FC7A3"/>
<path d="M114.385 69.4771C114.542 70.1539 115.144 70.6116 115.811 70.6116C115.92 70.6116 116.032 70.5994 116.143 70.5735C120.016 69.6763 123.385 68.6242 126.155 67.4469C126.9 67.1303 127.247 66.2705 126.93 65.5259C126.614 64.7812 125.754 64.4341 125.009 64.7507C122.395 65.8616 119.19 66.8602 115.482 67.7193C114.693 67.9017 114.203 68.689 114.385 69.4771Z" fill="#1FC7A3"/>
<path d="M125.009 69.3016C124.172 69.6579 123.264 70.0058 122.31 70.3377C121.546 70.6024 121.141 71.4371 121.407 72.2016C121.617 72.8066 122.184 73.1865 122.791 73.1865C122.949 73.1865 123.112 73.1606 123.271 73.1049C124.287 72.7516 125.257 72.3801 126.155 71.9978C126.9 71.682 127.247 70.8214 126.93 70.0768C126.615 69.3321 125.754 68.985 125.009 69.3016Z" fill="#1FC7A3"/>
<path d="M89.2141 81.3798C86.6063 81.3798 84.4854 83.5007 84.4854 86.1085C84.4854 88.7162 86.6063 90.8372 89.2141 90.8372C91.821 90.8372 93.9427 88.7162 93.9427 86.1085C93.9427 83.5007 91.821 81.3798 89.2141 81.3798ZM89.2141 87.9075C88.2222 87.9075 87.415 87.1003 87.415 86.1085C87.415 85.1166 88.2222 84.3094 89.2141 84.3094C90.2059 84.3094 91.0131 85.1166 91.0131 86.1085C91.0131 87.1003 90.2059 87.9075 89.2141 87.9075Z" fill="#1FC7A3"/>
<path d="M101.837 59.3064H62.0899C59.7095 59.3064 57.7739 61.242 57.7739 63.6216C57.7739 66.0012 59.7095 67.9375 62.0899 67.9375H101.837C104.217 67.9375 106.153 66.0012 106.153 63.6216C106.153 61.242 104.217 59.3064 101.837 59.3064ZM101.837 65.0078H62.0899C61.3254 65.0078 60.7036 64.386 60.7036 63.6216C60.7036 62.8571 61.3254 62.2353 62.0899 62.2353H101.837C102.602 62.2353 103.223 62.8571 103.223 63.6216C103.223 64.386 102.602 65.0078 101.837 65.0078Z" fill="#1FC7A3"/>
<path d="M131.991 55.0805C131.976 52.3301 129.608 49.8842 124.953 47.8097C121.015 46.055 115.414 44.568 108.74 43.4999C107.677 41.1981 106.239 39.0703 104.469 37.2102C101.79 34.3942 98.4641 32.3038 94.7982 31.1136C94.8104 30.9961 94.8165 30.8771 94.8165 30.7566V30.6185C94.8165 27.8871 92.5941 25.6639 89.8627 25.6639H74.0631C71.3317 25.6639 69.1085 27.8871 69.1085 30.6185V30.7566C69.1085 30.8695 69.1146 30.9816 69.1261 31.0922C65.4373 32.2778 62.0918 34.3729 59.3979 37.2011C57.6179 39.0695 56.1745 41.208 55.1086 43.522C46.4623 44.9159 32.0389 48.2645 32.0008 55.0805C32.0008 55.1256 32 79.1123 32 79.1123C32 79.3305 32.0175 79.5602 32.0534 79.8135C32.0549 79.8203 32.0557 79.8272 32.0565 79.8341C32.3754 81.8619 34.0218 83.7296 36.9507 85.3852C37.6541 85.7835 38.5483 85.5355 38.9465 84.8313C39.3448 84.1264 39.0968 83.2329 38.3919 82.8347C36.3472 81.6788 35.1265 80.4551 34.9526 79.3885C34.9373 79.2786 34.9297 79.1879 34.9297 79.1123V60.2815C38.1241 62.7664 43.409 64.499 48.1163 65.6381C49.8207 66.0485 51.6434 66.43 53.5347 66.7703C53.7712 66.813 53.9421 67.0152 53.9421 67.2509V87.0446C53.9421 87.2445 53.8315 87.3665 53.7651 87.4215C53.7002 87.4749 53.5637 87.5603 53.3722 87.5245C50.2075 86.9317 47.3389 86.2404 44.8463 85.4706C44.0727 85.2318 43.2533 85.6652 43.0145 86.438C42.7765 87.2117 43.2091 88.0318 43.9819 88.2699C46.5805 89.0725 49.5583 89.7904 52.8328 90.4038C54.9034 90.7914 56.8718 89.1465 56.8718 87.0446V78.7408C57.7369 79.0574 58.6548 79.2252 59.5924 79.2252C60.2348 79.2252 60.8764 79.1444 61.4982 78.991L61.692 82.4143C62.1017 89.6554 67.427 95.5163 74.3133 96.83V98.2003C72.4647 98.4276 70.9724 98.7816 69.7906 99.2691H56.4926C51.934 99.2691 48.2246 102.979 48.2246 107.538V117.306C48.2246 118.115 48.8808 118.771 49.6895 118.771C50.4982 118.771 51.1543 118.115 51.1543 117.306V107.538C51.1543 104.594 53.5492 102.199 56.4926 102.199H66.468C66.143 102.926 66.0415 103.648 66.0415 104.264C66.0415 106.914 67.8237 109.966 70.8091 112.427C74.0196 115.073 77.9807 116.531 81.9633 116.531C85.9458 116.531 89.907 115.073 93.1174 112.427C96.1028 109.966 97.885 106.914 97.885 104.264C97.885 103.648 97.7836 102.926 97.4585 102.199H107.434C110.377 102.199 112.772 104.594 112.772 107.538V117.306C112.772 118.115 113.428 118.771 114.237 118.771C115.046 118.771 115.702 118.115 115.702 117.306V107.538C115.702 102.979 111.993 99.2691 107.434 99.2691H94.1398C92.9549 98.7763 91.4832 98.4276 89.6133 98.1995V96.8186C96.4667 95.4789 101.758 89.6325 102.167 82.4143L102.36 78.9918C102.982 79.1451 103.622 79.2252 104.266 79.2252C105.248 79.2252 106.22 79.0391 107.128 78.6881V87.0461C107.128 89.1549 109.108 90.7929 111.181 90.403C126.96 87.4428 131.14 83.2291 131.868 80.2148C131.956 79.8493 132 79.4785 132 79.1123C132 79.1123 131.992 55.1103 131.991 55.0805ZM102.347 39.2297C104.508 41.501 106.104 44.2262 107.027 47.1879C106.904 47.1826 106.782 47.1788 106.657 47.1788H89.7674C87.9058 46.1565 86.753 44.2186 86.753 42.0908V34.173H91.4008C92.0455 34.173 92.6475 33.9899 93.1632 33.6778C96.6552 34.6666 99.8267 36.5816 102.347 39.2297ZM80.1032 34.173H83.8233V42.0908C83.8233 43.9554 84.4131 45.7231 85.4568 47.1788H78.469C79.5127 45.7231 80.1032 43.9554 80.1032 42.0908V34.173ZM72.0382 30.6185C72.0382 29.5023 72.9469 28.5936 74.0631 28.5936H89.8627C90.9789 28.5936 91.8876 29.5023 91.8876 30.6185V30.7566C91.8876 31.0243 91.6694 31.2433 91.4008 31.2433H72.525C72.2572 31.2433 72.0382 31.0243 72.0382 30.7566V30.6185ZM38.2309 58.983C36.1023 57.7508 34.9297 56.4607 34.9297 55.3499C34.9297 55.3071 34.9266 55.2652 34.9236 55.224C34.9274 55.182 34.9304 55.1393 34.9304 55.0966C34.9449 52.5331 40.8394 49.003 53.9184 46.6936C53.7857 47.1467 53.669 47.6037 53.5637 48.0653C50.8911 49.4226 49.054 52.1966 49.054 55.3933V62.8488C48.9708 62.8297 48.8861 62.8099 48.8037 62.79C44.3146 61.7044 40.6586 60.3875 38.2309 58.983ZM59.5924 76.2956C58.6197 76.2956 57.682 76.0148 56.8718 75.4876V74.9123C57.0038 74.9192 57.1365 74.923 57.2685 74.923H61.2678L61.3281 75.9866C60.7765 76.191 60.1944 76.2956 59.5924 76.2956ZM81.9633 113.602C74.9168 113.602 68.9712 107.867 68.9712 104.264C68.9712 103.59 68.9727 101.872 74.3751 101.147C74.8481 104.914 78.0692 107.839 81.9633 107.839C85.8566 107.839 89.0784 104.914 89.5507 101.147C94.9531 101.872 94.9553 103.59 94.9553 104.264C94.9546 107.867 89.009 113.602 81.9633 113.602ZM86.6836 100.189C86.6836 102.792 84.5657 104.91 81.9633 104.91C79.3601 104.91 77.243 102.792 77.243 100.189V97.1077H86.6187C86.6401 97.1077 86.6615 97.1062 86.6836 97.1062V100.189ZM86.6187 94.1781H77.2399C70.5406 94.1781 64.9955 88.9382 64.6171 82.2488L64.2021 74.923H77.8579L77.468 77.6124C77.33 78.5676 77.613 79.535 78.2447 80.2651C78.8772 80.9953 79.7935 81.4141 80.7594 81.4141H83.0993C84.0652 81.4141 84.9815 80.9953 85.6139 80.2651C86.2457 79.535 86.5287 78.5676 86.3906 77.6116L86.0007 74.923H99.6566L99.2415 82.2488C98.8631 88.9382 93.3181 94.1781 86.6187 94.1781ZM83.0405 74.923L83.4914 78.032C83.5128 78.18 83.4525 78.2853 83.3984 78.3479C83.345 78.4097 83.2488 78.4844 83.1001 78.4844H80.7594C80.6098 78.4844 80.5145 78.4097 80.4603 78.3479C80.4061 78.2853 80.3466 78.18 80.368 78.032L80.8181 74.923H83.0405ZM104.266 76.2956C103.672 76.2956 103.083 76.1872 102.531 75.9835L102.591 74.923H106.657C106.814 74.923 106.971 74.9169 107.128 74.9078V75.3915C106.287 75.9812 105.305 76.2956 104.266 76.2956ZM107.128 67.2524V71.972C106.972 71.9857 106.814 71.9933 106.657 71.9933H57.2685C57.1358 71.9933 57.0038 71.9865 56.8718 71.9773V67.2509C56.8718 65.5961 55.6869 64.1816 54.0542 63.8879C53.3531 63.7612 52.6619 63.6293 51.9836 63.4919V55.3941C51.9836 52.4797 54.3541 50.1085 57.2685 50.1085H63.5666C64.3753 50.1085 65.0314 49.4531 65.0314 48.6436C65.0314 47.8342 64.3753 47.1788 63.5666 47.1788H57.2685C57.1213 47.1788 56.9755 47.1834 56.8298 47.191C57.7545 44.2239 59.3536 41.4957 61.5196 39.2213C64.0495 36.5656 67.2348 34.6491 70.742 33.6649C71.2616 33.9845 71.8711 34.173 72.525 34.173H77.1728V42.0908C77.1728 44.2186 76.02 46.1565 74.1584 47.1788H70.3041C69.4946 47.1788 68.8392 47.8342 68.8392 48.6436C68.8392 49.4531 69.4946 50.1085 70.3041 50.1085H106.657C109.571 50.1085 111.942 52.4797 111.942 55.3941V63.5072C111.29 63.6384 110.625 63.7666 109.945 63.8894C108.313 64.1832 107.128 65.5976 107.128 67.2524ZM123.385 61.7974C123.727 62.5306 124.599 62.8465 125.332 62.5047C126.829 61.8066 128.075 61.0688 129.07 60.2945V79.1131C129.07 79.2504 129.053 79.3862 129.02 79.5281C128.834 80.2972 127.923 81.8612 123.914 83.6968C120.679 85.1784 116.089 86.5014 110.641 87.5237C110.441 87.5611 110.3 87.4741 110.232 87.4192C110.168 87.365 110.058 87.2445 110.058 87.0469V67.2524C110.058 67.0167 110.229 66.8153 110.465 66.7726C112.093 66.4788 113.657 66.1584 115.114 65.8204C116.331 65.5389 117.508 65.2375 118.61 64.9255C119.389 64.705 119.842 63.8955 119.621 63.1166C119.401 62.3384 118.591 61.8859 117.813 62.1064C116.882 62.3696 115.893 62.6245 114.873 62.8671V55.3941C114.873 52.1661 113 49.3684 110.286 48.0264C110.181 47.5702 110.065 47.1178 109.933 46.6707C115.622 47.6694 120.375 48.977 123.761 50.4861C127.122 51.9838 129.054 53.6645 129.062 55.0966C129.062 55.1553 129.067 55.2133 129.074 55.2705C129.072 55.2964 129.07 55.3232 129.07 55.3499C129.07 56.7331 127.256 58.3734 124.093 59.8504C123.36 60.193 123.043 61.0643 123.385 61.7974Z" fill="#4A7DC9"/>
</svg>
