<svg width="24" height="24" viewBox="0 0 24 24" fill="none" xmlns="http://www.w3.org/2000/svg">
<circle cx="12" cy="12" r="11.5" stroke="#1FC7A2"/>
<path d="M14.7809 16.78H9.21845C9.11289 16.7799 9.01008 16.7463 8.92475 16.6842C8.83943 16.622 8.77596 16.5345 8.74345 16.434L7.02445 11.144C6.99185 11.0437 6.99185 10.9356 7.02446 10.8353C7.05706 10.735 7.12059 10.6475 7.20595 10.5855L11.7059 7.31553C11.7913 7.25312 11.8942 7.21948 11.9999 7.21948C12.1057 7.21948 12.2086 7.25312 12.2939 7.31553L16.7939 10.5855C16.8793 10.6475 16.9428 10.735 16.9754 10.8353C17.008 10.9356 17.0081 11.0437 16.9754 11.144L15.2569 16.434C15.2244 16.5346 15.1608 16.6223 15.0752 16.6845C14.9897 16.7466 14.8867 16.7801 14.7809 16.78Z" fill="#1FC7A2"/>
</svg>
