<svg width="30" height="30" viewBox="0 0 30 30" fill="none" xmlns="http://www.w3.org/2000/svg">
<path d="M25.0371 8.45801C25.2129 8.63379 25.3125 8.87109 25.3125 9.12012V27.1875C25.3125 27.7061 24.8936 28.125 24.375 28.125H5.625C5.10645 28.125 4.6875 27.7061 4.6875 27.1875V2.8125C4.6875 2.29395 5.10645 1.875 5.625 1.875H18.0674C18.3164 1.875 18.5566 1.97461 18.7324 2.15039L25.0371 8.45801ZM23.1504 9.55078L17.6367 4.03711V9.55078H23.1504ZM18.5514 18.6697C18.1066 18.6551 17.6338 18.6894 17.0968 18.7564C16.3849 18.3173 15.9056 17.7141 15.5651 16.8278L15.5965 16.6995L15.6328 16.5478C15.7588 16.0166 15.8265 15.629 15.8467 15.2382C15.8619 14.9432 15.8455 14.671 15.7931 14.4187C15.6964 13.8741 15.3111 13.5557 14.8257 13.536C14.373 13.5176 13.957 13.7704 13.8507 14.1621C13.6775 14.7955 13.7789 15.629 14.146 17.0505C13.6784 18.1652 13.0605 19.4722 12.646 20.2011C12.0926 20.4864 11.6616 20.746 11.2995 21.0337C10.822 21.4137 10.5237 21.8042 10.4417 22.2144C10.4019 22.4045 10.4619 22.6529 10.5987 22.8565C10.754 23.0874 10.9878 23.2374 11.2682 23.2591C11.9757 23.3139 12.8452 22.5844 13.8053 20.937C13.9017 20.9048 14.0036 20.8708 14.1281 20.8286L14.4768 20.7108C14.6974 20.6364 14.8573 20.5831 15.0155 20.5318C15.7011 20.3086 16.2196 20.1677 16.6913 20.0874C17.511 20.5263 18.4585 20.814 19.0966 20.814C19.6233 20.814 19.9793 20.5409 20.1079 20.1111C20.2207 19.7338 20.1313 19.2961 19.8888 19.0541C19.638 18.8077 19.1769 18.6899 18.5514 18.6697ZM11.286 22.432V22.4215L11.2898 22.4115C11.3327 22.3007 11.3877 22.195 11.4539 22.0963C11.5793 21.9035 11.7519 21.7008 11.9657 21.4849C12.0806 21.3691 12.2001 21.2563 12.3404 21.1298C12.3718 21.1017 12.5722 20.9232 12.6097 20.8881L12.9369 20.5834L12.699 20.9622C12.3381 21.5376 12.0117 21.9519 11.7322 22.222C11.6294 22.3216 11.5389 22.3948 11.4656 22.442C11.4414 22.4581 11.4159 22.4721 11.3892 22.4836C11.3771 22.4886 11.3666 22.4915 11.3561 22.4924C11.3449 22.4938 11.3336 22.4923 11.3232 22.488C11.3122 22.4834 11.3028 22.4756 11.2962 22.4656C11.2896 22.4557 11.286 22.444 11.286 22.432ZM14.9757 16.0371L14.9095 16.1543L14.8685 16.026C14.7776 15.738 14.7108 15.3041 14.6924 14.9127C14.6713 14.4674 14.7067 14.2002 14.8474 14.2002C15.0448 14.2002 15.1354 14.5166 15.1424 14.9927C15.1488 15.411 15.0829 15.8464 14.9754 16.0371H14.9757ZM14.8055 17.7498L14.8503 17.6312L14.9115 17.7425C15.254 18.3647 15.6984 18.8839 16.1871 19.2457L16.2926 19.3236L16.164 19.35C15.6855 19.449 15.2399 19.5979 14.6306 19.8437C14.6941 19.8179 13.9972 20.1032 13.8208 20.1709L13.667 20.2298L13.749 20.0868C14.1108 19.4569 14.4451 18.7005 14.8052 17.7498H14.8055ZM19.4232 19.984C19.193 20.0748 18.6973 19.9937 17.8245 19.621L17.603 19.5267L17.8433 19.5091C18.5259 19.4584 19.0093 19.4959 19.2911 19.599C19.4112 19.643 19.4912 19.6983 19.5267 19.7616C19.5453 19.7916 19.5516 19.8276 19.5442 19.8621C19.5367 19.8966 19.5162 19.9269 19.4868 19.9465C19.4682 19.9629 19.4466 19.9756 19.4232 19.984Z" fill="white"/>
</svg>
