<svg width="1077" height="417" viewBox="0 0 1077 417" fill="none" xmlns="http://www.w3.org/2000/svg">
<line x1="108.66" y1="4.05225" x2="108.66" y2="393.052" stroke="#777777" stroke-opacity="0.08"/>
<line x1="456.494" y1="4.05225" x2="456.494" y2="393.052" stroke="#777777" stroke-opacity="0.08"/>
<line x1="805.311" y1="4.05225" x2="805.311" y2="393.052" stroke="#777777" stroke-opacity="0.08"/>
<line x1="54.0527" y1="4.05225" x2="54.0527" y2="393.052" stroke="#777777" stroke-opacity="0.08"/>
<line x1="175.477" y1="4.05225" x2="175.477" y2="393.052" stroke="#777777" stroke-opacity="0.08"/>
<line x1="523.311" y1="4.05225" x2="523.311" y2="393.052" stroke="#777777" stroke-opacity="0.08"/>
<line x1="872.125" y1="4.05225" x2="872.125" y2="393.052" stroke="#777777" stroke-opacity="0.08"/>
<line x1="243.273" y1="4.05225" x2="243.273" y2="393.052" stroke="#777777" stroke-opacity="0.08"/>
<line x1="591.107" y1="4.05225" x2="591.107" y2="393.052" stroke="#777777" stroke-opacity="0.08"/>
<line x1="939.924" y1="4.05225" x2="939.924" y2="393.052" stroke="#777777" stroke-opacity="0.08"/>
<line x1="315.002" y1="4.05225" x2="315.002" y2="393.052" stroke="#777777" stroke-opacity="0.08"/>
<line x1="662.836" y1="4.05225" x2="662.836" y2="393.052" stroke="#777777" stroke-opacity="0.08"/>
<line x1="1011.65" y1="4.05225" x2="1011.65" y2="393.052" stroke="#777777" stroke-opacity="0.08"/>
<line x1="387.713" y1="4.05225" x2="387.713" y2="393.052" stroke="#777777" stroke-opacity="0.08"/>
<line x1="735.547" y1="4.05225" x2="735.547" y2="393.052" stroke="#777777" stroke-opacity="0.08"/>
<line x1="1060.93" y1="190.552" x2="53.5524" y2="190.552" stroke="#777777" stroke-opacity="0.08"/>
<line x1="1060.93" y1="310.552" x2="53.5524" y2="310.552" stroke="#777777" stroke-opacity="0.08"/>
<line x1="1060.93" y1="393.552" x2="53.5524" y2="393.552" stroke="#777777" stroke-opacity="0.08"/>
<line x1="1060.93" y1="110.552" x2="53.5524" y2="110.552" stroke="#777777" stroke-opacity="0.08"/>
<line x1="1060.93" y1="150.552" x2="53.5524" y2="150.552" stroke="#777777" stroke-opacity="0.08"/>
<line x1="1060.93" y1="230.552" x2="53.5524" y2="230.552" stroke="#777777" stroke-opacity="0.08"/>
<line x1="1060.93" y1="270.552" x2="53.5524" y2="270.552" stroke="#777777" stroke-opacity="0.08"/>
<line x1="1060.93" y1="353.552" x2="53.5524" y2="353.552" stroke="#777777" stroke-opacity="0.08"/>
<line x1="1060.93" y1="70.5522" x2="53.5524" y2="70.5522" stroke="#777777" stroke-opacity="0.08"/>
<line x1="1060.93" y1="30.5522" x2="53.5524" y2="30.5522" stroke="#777777" stroke-opacity="0.08"/>
<path d="M142.108 406.507H141.102V413.052H142.108V410.257H145.244V413.052H146.25V406.507H145.244V409.32H142.108V406.507ZM150.746 413.189C152.518 413.189 153.711 411.842 153.711 409.814C153.711 407.768 152.518 406.422 150.746 406.422C148.973 406.422 147.78 407.768 147.78 409.814C147.78 411.842 148.973 413.189 150.746 413.189ZM150.746 412.285C149.399 412.285 148.785 411.126 148.785 409.814C148.785 408.501 149.399 407.325 150.746 407.325C152.092 407.325 152.706 408.501 152.706 409.814C152.706 411.126 152.092 412.285 150.746 412.285ZM159.184 413.052H160.139V406.507H157.445C156.035 406.507 155.178 407.244 155.178 408.45C155.178 409.349 155.63 409.989 156.419 410.257L154.82 413.052H155.911L157.428 410.393H159.184V413.052ZM159.184 409.456H157.326C156.615 409.456 156.184 409.077 156.184 408.45C156.184 407.815 156.661 407.427 157.445 407.427H159.184V409.456ZM163.485 411.859H162.394L162.343 412.337C162.219 413.491 161.976 414.642 161.866 415.183H162.633C162.837 414.604 163.272 413.291 163.417 412.32L163.485 411.859ZM167.356 404.325H166.3L164.118 405.774V406.848L166.248 405.433H166.3V413.052H167.356V404.325ZM170.139 413.052H171.247L175.133 405.314V404.325H169.542V405.263H174.042V405.331L170.139 413.052Z" fill="#707070"/>
<path d="M495.386 414.927H496.391V413.052H501.232V414.927H502.238V412.115H501.232V406.507H497.073L496.852 409.098C496.694 410.93 496.46 411.561 495.931 412.115H495.386V414.927ZM497.073 412.115C497.533 411.51 497.7 410.466 497.84 409.098L498.011 407.445H500.227V412.115H497.073ZM506.317 413.189C507.647 413.189 508.618 412.524 508.925 411.535L507.953 411.263C507.698 411.945 507.105 412.285 506.317 412.285C505.137 412.285 504.323 411.523 504.276 410.121H509.027V409.695C509.027 407.257 507.578 406.422 506.215 406.422C504.442 406.422 503.266 407.82 503.266 409.831C503.266 411.842 504.425 413.189 506.317 413.189ZM504.276 409.251C504.344 408.233 505.064 407.325 506.215 407.325C507.306 407.325 508.005 408.143 508.005 409.251H504.276ZM510.557 413.052H511.563V410.291H512.466L514.614 413.052H515.909L513.233 409.66L515.875 406.507H514.58L512.228 409.354H511.563V406.507H510.557V413.052ZM518.502 411.859H517.412L517.36 412.337C517.237 413.491 516.994 414.642 516.883 415.183H517.65C517.855 414.604 518.289 413.291 518.434 412.32L518.502 411.859ZM522.374 404.325H521.317L519.135 405.774V406.848L521.266 405.433H521.317V413.052H522.374V404.325ZM525.157 413.052H526.265L530.151 405.314V404.325H524.56V405.263H529.06V405.331L525.157 413.052Z" fill="#707070"/>
<path d="M857.251 413.052H858.205V406.507H855.512C854.101 406.507 853.245 407.244 853.245 408.45C853.245 409.349 853.697 409.989 854.485 410.257L852.887 413.052H853.978L855.495 410.393H857.251V413.052ZM857.251 409.456H855.393C854.681 409.456 854.251 409.077 854.251 408.45C854.251 407.815 854.728 407.427 855.512 407.427H857.251V409.456ZM861.057 406.507H860.051V413.052H861.057V410.257H864.193V413.052H865.199V406.507H864.193V409.32H861.057V406.507ZM867.036 413.052H870.121C871.45 413.052 872.252 412.302 872.252 411.297C872.252 410.27 871.472 409.716 870.752 409.609C871.489 409.456 872.013 409.043 872.013 408.246C872.013 407.202 871.118 406.507 869.712 406.507H867.036V413.052ZM867.99 412.132V410.121H870.121C870.811 410.121 871.229 410.534 871.229 411.212C871.229 411.783 870.811 412.132 870.121 412.132H867.99ZM867.99 409.251V407.427H869.712C870.517 407.427 871.007 407.764 871.007 408.314C871.007 408.898 870.517 409.251 869.712 409.251H867.99ZM875.274 411.859H874.183L874.132 412.337C874.008 413.491 873.765 414.642 873.655 415.183H874.422C874.626 414.604 875.061 413.291 875.206 412.32L875.274 411.859ZM879.145 404.325H878.089L875.907 405.774V406.848L878.037 405.433H878.089V413.052H879.145V404.325ZM881.928 413.052H883.036L886.922 405.314V404.325H881.331V405.263H885.831V405.331L881.928 413.052Z" fill="#707070"/>
<path d="M73.4027 406.507H72.397V413.052H73.4027V410.257H76.5391V413.052H77.5447V406.507H76.5391V409.32H73.4027V406.507ZM82.0405 413.189C83.8132 413.189 85.0064 411.842 85.0064 409.814C85.0064 407.768 83.8132 406.422 82.0405 406.422C80.2678 406.422 79.0746 407.768 79.0746 409.814C79.0746 411.842 80.2678 413.189 82.0405 413.189ZM82.0405 412.285C80.6939 412.285 80.0803 411.126 80.0803 409.814C80.0803 408.501 80.6939 407.325 82.0405 407.325C83.3871 407.325 84.0007 408.501 84.0007 409.814C84.0007 411.126 83.3871 412.285 82.0405 412.285ZM90.479 413.052H91.4336V406.507H88.7404C87.3299 406.507 86.4734 407.244 86.4734 408.45C86.4734 409.349 86.9251 409.989 87.7134 410.257L86.1154 413.052H87.2063L88.7234 410.393H90.479V413.052ZM90.479 409.456H88.6211C87.9094 409.456 87.479 409.077 87.479 408.45C87.479 407.815 87.9563 407.427 88.7404 407.427H90.479V409.456ZM94.7798 411.859H93.6889L93.6378 412.337C93.5142 413.491 93.2713 414.642 93.1605 415.183H93.9276C94.1321 414.604 94.5668 413.291 94.7116 412.32L94.7798 411.859ZM98.6513 404.325H97.5945L95.4126 405.774V406.848L97.5433 405.433H97.5945V413.052H98.6513V404.325ZM101.161 413.052H106.667V412.115H102.61V412.047L104.57 409.95C106.07 408.344 106.513 407.594 106.513 406.626C106.513 405.28 105.423 404.206 103.888 404.206C102.359 404.206 101.195 405.246 101.195 406.78H102.201C102.201 405.787 102.844 405.126 103.854 405.126C104.8 405.126 105.525 405.706 105.525 406.626C105.525 407.432 105.052 408.028 104.042 409.132L101.161 412.285V413.052Z" fill="#707070"/>
<path d="M424.472 414.927H425.477V413.052H430.318V414.927H431.324V412.115H430.318V406.507H426.159L425.938 409.098C425.78 410.93 425.545 411.561 425.017 412.115H424.472V414.927ZM426.159 412.115C426.619 411.51 426.786 410.466 426.926 409.098L427.097 407.445H429.312V412.115H426.159ZM435.403 413.189C436.733 413.189 437.704 412.524 438.011 411.535L437.039 411.263C436.784 411.945 436.191 412.285 435.403 412.285C434.223 412.285 433.409 411.523 433.362 410.121H438.113V409.695C438.113 407.257 436.664 406.422 435.301 406.422C433.528 406.422 432.352 407.82 432.352 409.831C432.352 411.842 433.511 413.189 435.403 413.189ZM433.362 409.251C433.43 408.233 434.15 407.325 435.301 407.325C436.392 407.325 437.091 408.143 437.091 409.251H433.362ZM439.643 413.052H440.649V410.291H441.552L443.7 413.052H444.995L442.319 409.66L444.961 406.507H443.666L441.314 409.354H440.649V406.507H439.643V413.052ZM447.588 411.859H446.498L446.446 412.337C446.323 413.491 446.08 414.642 445.969 415.183H446.736C446.941 414.604 447.375 413.291 447.52 412.32L447.588 411.859ZM455.878 404.325H454.821L452.639 405.774V406.848L454.77 405.433H454.821V413.052H455.878V404.325ZM458.388 413.052H463.893V412.115H459.837V412.047L461.797 409.95C463.297 408.344 463.74 407.594 463.74 406.626C463.74 405.28 462.649 404.206 461.115 404.206C459.585 404.206 458.422 405.246 458.422 406.78H459.428C459.428 405.787 460.071 405.126 461.081 405.126C462.027 405.126 462.751 405.706 462.751 406.626C462.751 407.432 462.278 408.028 461.268 409.132L458.388 412.285V413.052Z" fill="#707070"/>
<path d="M786.336 413.052H787.291V406.507H784.598C783.187 406.507 782.331 407.244 782.331 408.45C782.331 409.349 782.782 409.989 783.571 410.257L781.973 413.052H783.064L784.581 410.393H786.336V413.052ZM786.336 409.456H784.479C783.767 409.456 783.336 409.077 783.336 408.45C783.336 407.815 783.814 407.427 784.598 407.427H786.336V409.456ZM790.143 406.507H789.137V413.052H790.143V410.257H793.279V413.052H794.285V406.507H793.279V409.32H790.143V406.507ZM796.122 413.052H799.207C800.536 413.052 801.338 412.302 801.338 411.297C801.338 410.27 800.558 409.716 799.838 409.609C800.575 409.456 801.099 409.043 801.099 408.246C801.099 407.202 800.204 406.507 798.798 406.507H796.122V413.052ZM797.076 412.132V410.121H799.207C799.897 410.121 800.315 410.534 800.315 411.212C800.315 411.783 799.897 412.132 799.207 412.132H797.076ZM797.076 409.251V407.427H798.798C799.603 407.427 800.093 407.764 800.093 408.314C800.093 408.898 799.603 409.251 798.798 409.251H797.076ZM804.36 411.859H803.269L803.218 412.337C803.094 413.491 802.851 414.642 802.741 415.183H803.508C803.712 414.604 804.147 413.291 804.292 412.32L804.36 411.859ZM812.649 404.325H811.593L809.411 405.774V406.848L811.541 405.433H811.593V413.052H812.649V404.325ZM815.159 413.052H820.665V412.115H816.608V412.047L818.568 409.95C820.068 408.344 820.512 407.594 820.512 406.626C820.512 405.28 819.421 404.206 817.887 404.206C816.357 404.206 815.193 405.246 815.193 406.78H816.199C816.199 405.787 816.843 405.126 817.852 405.126C818.798 405.126 819.523 405.706 819.523 406.626C819.523 407.432 819.05 408.028 818.04 409.132L815.159 412.285V413.052Z" fill="#707070"/>
<path d="M209.194 406.507H208.188V413.052H209.194V410.257H212.33V413.052H213.336V406.507H212.33V409.319H209.194V406.507ZM217.831 413.189C219.604 413.189 220.797 411.842 220.797 409.814C220.797 407.768 219.604 406.422 217.831 406.422C216.059 406.422 214.866 407.768 214.866 409.814C214.866 411.842 216.059 413.189 217.831 413.189ZM217.831 412.285C216.485 412.285 215.871 411.126 215.871 409.814C215.871 408.501 216.485 407.325 217.831 407.325C219.178 407.325 219.792 408.501 219.792 409.814C219.792 411.126 219.178 412.285 217.831 412.285ZM226.27 413.052H227.225V406.507H224.531C223.121 406.507 222.264 407.244 222.264 408.45C222.264 409.349 222.716 409.988 223.504 410.257L221.906 413.052H222.997L224.514 410.393H226.27V413.052ZM226.27 409.456H224.412C223.7 409.456 223.27 409.076 223.27 408.45C223.27 407.815 223.747 407.427 224.531 407.427H226.27V409.456ZM230.571 411.859H229.48L229.429 412.336C229.305 413.491 229.062 414.642 228.952 415.183H229.719C229.923 414.603 230.358 413.291 230.503 412.319L230.571 411.859ZM235.792 413.052H241.298V412.115H237.241V412.047L239.201 409.95C240.701 408.343 241.144 407.593 241.144 406.626C241.144 405.28 240.053 404.206 238.519 404.206C236.99 404.206 235.826 405.245 235.826 406.78H236.832C236.832 405.787 237.475 405.126 238.485 405.126C239.431 405.126 240.156 405.706 240.156 406.626C240.156 407.432 239.683 408.028 238.673 409.132L235.792 412.285V413.052ZM246.126 404.325H245.069L242.887 405.774V406.848L245.018 405.433H245.069V413.052H246.126V404.325Z" fill="#707070"/>
<path d="M562.472 414.927H563.477V413.052H568.318V414.927H569.324V412.115H568.318V406.507H564.159L563.938 409.098C563.78 410.93 563.545 411.561 563.017 412.115H562.472V414.927ZM564.159 412.115C564.619 411.51 564.786 410.466 564.926 409.098L565.097 407.444H567.312V412.115H564.159ZM573.403 413.189C574.733 413.189 575.704 412.524 576.011 411.535L575.039 411.262C574.784 411.944 574.191 412.285 573.403 412.285C572.223 412.285 571.409 411.522 571.362 410.12H576.113V409.694C576.113 407.257 574.664 406.422 573.301 406.422C571.528 406.422 570.352 407.819 570.352 409.831C570.352 411.842 571.511 413.189 573.403 413.189ZM571.362 409.251C571.43 408.233 572.15 407.325 573.301 407.325C574.392 407.325 575.091 408.143 575.091 409.251H571.362ZM577.643 413.052H578.649V410.291H579.552L581.7 413.052H582.995L580.319 409.66L582.961 406.507H581.666L579.314 409.353H578.649V406.507H577.643V413.052ZM585.588 411.859H584.498L584.446 412.336C584.323 413.491 584.08 414.642 583.969 415.183H584.736C584.941 414.603 585.375 413.291 585.52 412.319L585.588 411.859ZM590.81 413.052H596.315V412.115H592.259V412.047L594.219 409.95C595.719 408.343 596.162 407.593 596.162 406.626C596.162 405.28 595.071 404.206 593.537 404.206C592.007 404.206 590.844 405.245 590.844 406.78H591.849C591.849 405.787 592.493 405.126 593.503 405.126C594.449 405.126 595.173 405.706 595.173 406.626C595.173 407.432 594.7 408.028 593.69 409.132L590.81 412.285V413.052ZM601.143 404.325H600.087L597.905 405.774V406.848L600.036 405.433H600.087V413.052H601.143V404.325Z" fill="#707070"/>
<path d="M924.336 413.052H925.291V406.507H922.598C921.187 406.507 920.331 407.244 920.331 408.45C920.331 409.349 920.782 409.988 921.571 410.257L919.973 413.052H921.064L922.581 410.393H924.336V413.052ZM924.336 409.456H922.479C921.767 409.456 921.336 409.076 921.336 408.45C921.336 407.815 921.814 407.427 922.598 407.427H924.336V409.456ZM928.143 406.507H927.137V413.052H928.143V410.257H931.279V413.052H932.285V406.507H931.279V409.319H928.143V406.507ZM934.122 413.052H937.207C938.536 413.052 939.338 412.302 939.338 411.297C939.338 410.27 938.558 409.716 937.838 409.609C938.575 409.456 939.099 409.042 939.099 408.245C939.099 407.201 938.204 406.507 936.798 406.507H934.122V413.052ZM935.076 412.132V410.12H937.207C937.897 410.12 938.315 410.534 938.315 411.211C938.315 411.782 937.897 412.132 937.207 412.132H935.076ZM935.076 409.251V407.427H936.798C937.603 407.427 938.093 407.764 938.093 408.314C938.093 408.897 937.603 409.251 936.798 409.251H935.076ZM942.36 411.859H941.269L941.218 412.336C941.094 413.491 940.851 414.642 940.741 415.183H941.508C941.712 414.603 942.147 413.291 942.292 412.319L942.36 411.859ZM947.581 413.052H953.087V412.115H949.03V412.047L950.99 409.95C952.49 408.343 952.933 407.593 952.933 406.626C952.933 405.28 951.843 404.206 950.308 404.206C948.779 404.206 947.615 405.245 947.615 406.78H948.621C948.621 405.787 949.264 405.126 950.274 405.126C951.22 405.126 951.945 405.706 951.945 406.626C951.945 407.432 951.472 408.028 950.462 409.132L947.581 412.285V413.052ZM957.915 404.325H956.858L954.676 405.774V406.848L956.807 405.433H956.858V413.052H957.915V404.325Z" fill="#707070"/>
<path d="M281.332 406.507H280.327V413.052H281.332V410.257H284.469V413.052H285.474V406.507H284.469V409.32H281.332V406.507ZM289.97 413.189C291.743 413.189 292.936 411.842 292.936 409.814C292.936 407.768 291.743 406.422 289.97 406.422C288.197 406.422 287.004 407.768 287.004 409.814C287.004 411.842 288.197 413.189 289.97 413.189ZM289.97 412.285C288.624 412.285 288.01 411.126 288.01 409.814C288.01 408.501 288.624 407.325 289.97 407.325C291.317 407.325 291.93 408.501 291.93 409.814C291.93 411.126 291.317 412.285 289.97 412.285ZM298.409 413.052H299.363V406.507H296.67C295.26 406.507 294.403 407.244 294.403 408.45C294.403 409.349 294.855 409.989 295.643 410.257L294.045 413.052H295.136L296.653 410.393H298.409V413.052ZM298.409 409.456H296.551C295.839 409.456 295.409 409.077 295.409 408.45C295.409 407.815 295.886 407.427 296.67 407.427H298.409V409.456ZM302.71 411.859H301.619L301.567 412.337C301.444 413.491 301.201 414.642 301.09 415.183H301.857C302.062 414.604 302.496 413.291 302.641 412.32L302.71 411.859ZM307.931 413.052H313.436V412.115H309.38V412.047L311.34 409.95C312.84 408.344 313.283 407.594 313.283 406.626C313.283 405.28 312.192 404.206 310.658 404.206C309.128 404.206 307.965 405.246 307.965 406.78H308.971C308.971 405.787 309.614 405.126 310.624 405.126C311.57 405.126 312.294 405.706 312.294 406.626C312.294 407.432 311.821 408.028 310.811 409.132L307.931 412.285V413.052ZM317.924 413.172C319.586 413.172 320.804 411.945 320.804 410.274C320.804 408.582 319.628 407.342 318.026 407.342C317.438 407.342 316.867 407.551 316.509 407.837H316.458L316.765 405.263H320.412V404.325H315.878L315.35 408.621L316.338 408.74C316.701 408.48 317.319 408.293 317.855 408.297C318.968 408.305 319.782 409.149 319.782 410.291C319.782 411.412 318.998 412.234 317.924 412.234C317.029 412.234 316.317 411.659 316.236 410.871H315.213C315.277 412.2 316.424 413.172 317.924 413.172Z" fill="#707070"/>
<path d="M634.61 414.927H635.616V413.052H640.457V414.927H641.463V412.115H640.457V406.507H636.298L636.076 409.098C635.919 410.93 635.684 411.561 635.156 412.115H634.61V414.927ZM636.298 412.115C636.758 411.51 636.924 410.466 637.065 409.098L637.235 407.445H639.451V412.115H636.298ZM645.542 413.189C646.871 413.189 647.843 412.524 648.15 411.535L647.178 411.263C646.922 411.945 646.33 412.285 645.542 412.285C644.361 412.285 643.547 411.523 643.501 410.121H648.252V409.695C648.252 407.257 646.803 406.422 645.439 406.422C643.667 406.422 642.491 407.82 642.491 409.831C642.491 411.842 643.65 413.189 645.542 413.189ZM643.501 409.251C643.569 408.233 644.289 407.325 645.439 407.325C646.53 407.325 647.229 408.143 647.229 409.251H643.501ZM649.782 413.052H650.787V410.291H651.691L653.839 413.052H655.134L652.458 409.66L655.1 406.507H653.805L651.452 409.354H650.787V406.507H649.782V413.052ZM657.727 411.859H656.636L656.585 412.337C656.461 413.491 656.219 414.642 656.108 415.183H656.875C657.079 414.604 657.514 413.291 657.659 412.32L657.727 411.859ZM662.948 413.052H668.454V412.115H664.397V412.047L666.357 409.95C667.857 408.344 668.301 407.594 668.301 406.626C668.301 405.28 667.21 404.206 665.676 404.206C664.146 404.206 662.982 405.246 662.982 406.78H663.988C663.988 405.787 664.632 405.126 665.642 405.126C666.588 405.126 667.312 405.706 667.312 406.626C667.312 407.432 666.839 408.028 665.829 409.132L662.948 412.285V413.052ZM672.941 413.172C674.603 413.172 675.822 411.945 675.822 410.274C675.822 408.582 674.646 407.342 673.044 407.342C672.455 407.342 671.884 407.551 671.526 407.837H671.475L671.782 405.263H675.43V404.325H670.896L670.367 408.621L671.356 408.74C671.718 408.48 672.336 408.293 672.873 408.297C673.985 408.305 674.799 409.149 674.799 410.291C674.799 411.412 674.015 412.234 672.941 412.234C672.046 412.234 671.335 411.659 671.254 410.871H670.231C670.295 412.2 671.441 413.172 672.941 413.172Z" fill="#707070"/>
<path d="M993.475 413H994.43V406.455H991.737C990.326 406.455 989.469 407.192 989.469 408.398C989.469 409.297 989.921 409.936 990.71 410.205L989.112 413H990.202L991.719 410.341H993.475V413ZM993.475 409.403H991.617C990.906 409.403 990.475 409.024 990.475 408.398C990.475 407.763 990.952 407.375 991.737 407.375H993.475V409.403ZM997.282 406.455H996.276V413H997.282V410.205H1000.42V413H1001.42V406.455H1000.42V409.267H997.282V406.455ZM1003.26 413H1006.35C1007.68 413 1008.48 412.25 1008.48 411.244C1008.48 410.217 1007.7 409.663 1006.98 409.557C1007.71 409.403 1008.24 408.99 1008.24 408.193C1008.24 407.149 1007.34 406.455 1005.94 406.455H1003.26V413ZM1004.21 412.08V410.068H1006.35C1007.04 410.068 1007.45 410.482 1007.45 411.159C1007.45 411.73 1007.04 412.08 1006.35 412.08H1004.21ZM1004.21 409.199V407.375H1005.94C1006.74 407.375 1007.23 407.712 1007.23 408.261C1007.23 408.845 1006.74 409.199 1005.94 409.199H1004.21ZM1011.5 411.807H1010.41L1010.36 412.284C1010.23 413.439 1009.99 414.589 1009.88 415.131H1010.65C1010.85 414.551 1011.29 413.239 1011.43 412.267L1011.5 411.807ZM1016.72 413H1022.23V412.062H1018.17V411.994L1020.13 409.898C1021.63 408.291 1022.07 407.541 1022.07 406.574C1022.07 405.227 1020.98 404.153 1019.45 404.153C1017.92 404.153 1016.75 405.193 1016.75 406.727H1017.76C1017.76 405.734 1018.4 405.074 1019.41 405.074C1020.36 405.074 1021.08 405.653 1021.08 406.574C1021.08 407.379 1020.61 407.976 1019.6 409.08L1016.72 412.233V413ZM1026.71 413.119C1028.37 413.119 1029.59 411.892 1029.59 410.222C1029.59 408.53 1028.42 407.29 1026.81 407.29C1026.23 407.29 1025.66 407.499 1025.3 407.784H1025.25L1025.55 405.21H1029.2V404.273H1024.67L1024.14 408.568L1025.13 408.688C1025.49 408.428 1026.11 408.24 1026.64 408.244C1027.76 408.253 1028.57 409.097 1028.57 410.239C1028.57 411.359 1027.79 412.182 1026.71 412.182C1025.82 412.182 1025.11 411.607 1025.03 410.818H1024C1024.07 412.148 1025.21 413.119 1026.71 413.119Z" fill="#707070"/>
<path d="M354.286 406.507H353.28V413.052H354.286V410.257H357.422V413.052H358.428V406.507H357.422V409.32H354.286V406.507ZM362.923 413.189C364.696 413.189 365.889 411.842 365.889 409.814C365.889 407.768 364.696 406.422 362.923 406.422C361.151 406.422 359.957 407.768 359.957 409.814C359.957 411.842 361.151 413.189 362.923 413.189ZM362.923 412.285C361.577 412.285 360.963 411.126 360.963 409.814C360.963 408.501 361.577 407.325 362.923 407.325C364.27 407.325 364.884 408.501 364.884 409.814C364.884 411.126 364.27 412.285 362.923 412.285ZM371.362 413.052H372.316V406.507H369.623C368.213 406.507 367.356 407.244 367.356 408.45C367.356 409.349 367.808 409.989 368.596 410.257L366.998 413.052H368.089L369.606 410.393H371.362V413.052ZM371.362 409.456H369.504C368.792 409.456 368.362 409.077 368.362 408.45C368.362 407.815 368.839 407.427 369.623 407.427H371.362V409.456ZM375.663 411.859H374.572L374.521 412.337C374.397 413.491 374.154 414.642 374.043 415.183H374.81C375.015 414.604 375.45 413.291 375.594 412.32L375.663 411.859ZM380.884 413.052H386.39V412.115H382.333V412.047L384.293 409.95C385.793 408.344 386.236 407.594 386.236 406.626C386.236 405.28 385.145 404.206 383.611 404.206C382.081 404.206 380.918 405.246 380.918 406.78H381.924C381.924 405.787 382.567 405.126 383.577 405.126C384.523 405.126 385.248 405.706 385.248 406.626C385.248 407.432 384.775 408.028 383.765 409.132L380.884 412.285V413.052ZM390.945 413.172C392.688 413.172 393.902 412.153 393.911 410.734C393.902 409.631 393.165 408.693 392.223 408.518V408.467C393.042 408.254 393.578 407.453 393.587 406.524C393.578 405.195 392.462 404.206 390.945 404.206C389.411 404.206 388.294 405.195 388.303 406.524C388.294 407.453 388.831 408.254 389.667 408.467V408.518C388.708 408.693 387.971 409.631 387.979 410.734C387.971 412.153 389.185 413.172 390.945 413.172ZM390.945 412.234C389.748 412.234 389.01 411.621 389.019 410.683C389.01 409.699 389.824 408.996 390.945 408.996C392.049 408.996 392.863 409.699 392.871 410.683C392.863 411.621 392.125 412.234 390.945 412.234ZM390.945 408.092C389.99 408.092 389.317 407.496 389.326 406.592C389.317 405.706 389.965 405.126 390.945 405.126C391.908 405.126 392.556 405.706 392.564 406.592C392.556 407.496 391.882 408.092 390.945 408.092Z" fill="#707070"/>
<path d="M707.563 414.927H708.569V413.052H713.41V414.927H714.416V412.115H713.41V406.507H709.251L709.029 409.098C708.872 410.93 708.637 411.561 708.109 412.115H707.563V414.927ZM709.251 412.115C709.711 411.51 709.877 410.466 710.018 409.098L710.188 407.445H712.404V412.115H709.251ZM718.495 413.189C719.824 413.189 720.796 412.524 721.103 411.535L720.131 411.263C719.876 411.945 719.283 412.285 718.495 412.285C717.314 412.285 716.501 411.523 716.454 410.121H721.205V409.695C721.205 407.257 719.756 406.422 718.393 406.422C716.62 406.422 715.444 407.82 715.444 409.831C715.444 411.842 716.603 413.189 718.495 413.189ZM716.454 409.251C716.522 408.233 717.242 407.325 718.393 407.325C719.483 407.325 720.182 408.143 720.182 409.251H716.454ZM722.735 413.052H723.741V410.291H724.644L726.792 413.052H728.087L725.411 409.66L728.053 406.507H726.758L724.405 409.354H723.741V406.507H722.735V413.052ZM730.68 411.859H729.589L729.538 412.337C729.415 413.491 729.172 414.642 729.061 415.183H729.828C730.032 414.604 730.467 413.291 730.612 412.32L730.68 411.859ZM735.901 413.052H741.407V412.115H737.35V412.047L739.311 409.95C740.811 408.344 741.254 407.594 741.254 406.626C741.254 405.28 740.163 404.206 738.629 404.206C737.099 404.206 735.936 405.246 735.936 406.78H736.941C736.941 405.787 737.585 405.126 738.595 405.126C739.541 405.126 740.265 405.706 740.265 406.626C740.265 407.432 739.792 408.028 738.782 409.132L735.901 412.285V413.052ZM745.963 413.172C747.705 413.172 748.92 412.153 748.928 410.734C748.92 409.631 748.183 408.693 747.241 408.518V408.467C748.059 408.254 748.596 407.453 748.605 406.524C748.596 405.195 747.48 404.206 745.963 404.206C744.428 404.206 743.312 405.195 743.32 406.524C743.312 407.453 743.849 408.254 744.684 408.467V408.518C743.725 408.693 742.988 409.631 742.997 410.734C742.988 412.153 744.203 413.172 745.963 413.172ZM745.963 412.234C744.765 412.234 744.028 411.621 744.036 410.683C744.028 409.699 744.842 408.996 745.963 408.996C747.066 408.996 747.88 409.699 747.889 410.683C747.88 411.621 747.143 412.234 745.963 412.234ZM745.963 408.092C745.008 408.092 744.335 407.496 744.343 406.592C744.335 405.706 744.982 405.126 745.963 405.126C746.926 405.126 747.573 405.706 747.582 406.592C747.573 407.496 746.9 408.092 745.963 408.092Z" fill="#707070"/>
<path d="M0.903409 274.573H6.40909V273.636H2.35227V273.568L4.3125 271.471C5.8125 269.864 6.25568 269.114 6.25568 268.147C6.25568 266.801 5.16477 265.727 3.63068 265.727C2.10085 265.727 0.9375 266.766 0.9375 268.301H1.94318C1.94318 267.308 2.58665 266.647 3.59659 266.647C4.54261 266.647 5.26705 267.227 5.26705 268.147C5.26705 268.953 4.79403 269.549 3.78409 270.653L0.903409 273.806V274.573ZM11.0668 274.693C12.831 274.714 13.9815 273.384 13.9815 271.761C13.9815 270.073 12.733 268.863 11.2372 268.863C10.3381 268.863 9.56676 269.302 9.08949 270.022H9.02131C9.02557 267.896 9.85227 266.664 11.2031 266.664C12.1236 266.664 12.6776 267.244 12.8736 268.028H13.9134C13.7003 266.673 12.669 265.727 11.2031 265.727C9.23864 265.727 8.03267 267.465 8.03267 270.551C8.03267 273.776 9.63494 274.676 11.0668 274.693ZM11.0668 273.755C9.97159 273.755 9.17045 272.822 9.17472 271.778C9.17898 270.734 10.0185 269.801 11.1009 269.801C12.1705 269.801 12.9588 270.678 12.9588 271.761C12.9588 272.869 12.1364 273.755 11.0668 273.755ZM18.5039 274.693C20.43 274.693 21.538 273.06 21.538 270.21C21.538 267.38 20.413 265.727 18.5039 265.727C16.5948 265.727 15.4698 267.38 15.4698 270.21C15.4698 273.06 16.5778 274.693 18.5039 274.693ZM18.5039 273.755C17.234 273.755 16.4925 272.481 16.4925 270.21C16.4925 267.943 17.2425 266.647 18.5039 266.647C19.7653 266.647 20.5153 267.943 20.5153 270.21C20.5153 272.481 19.7738 273.755 18.5039 273.755ZM26.0039 274.693C27.93 274.693 29.038 273.06 29.038 270.21C29.038 267.38 27.913 265.727 26.0039 265.727C24.0948 265.727 22.9698 267.38 22.9698 270.21C22.9698 273.06 24.0778 274.693 26.0039 274.693ZM26.0039 273.755C24.734 273.755 23.9925 272.481 23.9925 270.21C23.9925 267.943 24.7425 266.647 26.0039 266.647C27.2653 266.647 28.0153 267.943 28.0153 270.21C28.0153 272.481 27.2738 273.755 26.0039 273.755Z" fill="#B7BCC8"/>
<path d="M0.903409 314.573H6.40909V313.636H2.35227V313.568L4.3125 311.471C5.8125 309.864 6.25568 309.114 6.25568 308.147C6.25568 306.801 5.16477 305.727 3.63068 305.727C2.10085 305.727 0.9375 306.766 0.9375 308.301H1.94318C1.94318 307.308 2.58665 306.647 3.59659 306.647C4.54261 306.647 5.26705 307.227 5.26705 308.147C5.26705 308.953 4.79403 309.549 3.78409 310.653L0.903409 313.806V314.573ZM7.77699 312.783H11.8849V314.573H12.8906V312.783H14.0838V311.846H12.8906V305.846H11.6122L7.77699 311.914V312.783ZM11.8849 311.846H8.91903V311.778L11.8168 307.193H11.8849V311.846ZM18.5273 314.693C20.4535 314.693 21.5614 313.06 21.5614 310.21C21.5614 307.38 20.4364 305.727 18.5273 305.727C16.6183 305.727 15.4933 307.38 15.4933 310.21C15.4933 313.06 16.6012 314.693 18.5273 314.693ZM18.5273 313.755C17.2575 313.755 16.516 312.481 16.516 310.21C16.516 307.943 17.266 306.647 18.5273 306.647C19.7887 306.647 20.5387 307.943 20.5387 310.21C20.5387 312.481 19.7972 313.755 18.5273 313.755ZM26.0273 314.693C27.9535 314.693 29.0614 313.06 29.0614 310.21C29.0614 307.38 27.9364 305.727 26.0273 305.727C24.1183 305.727 22.9933 307.38 22.9933 310.21C22.9933 313.06 24.1012 314.693 26.0273 314.693ZM26.0273 313.755C24.7575 313.755 24.016 312.481 24.016 310.21C24.016 307.943 24.766 306.647 26.0273 306.647C27.2887 306.647 28.0387 307.943 28.0387 310.21C28.0387 312.481 27.2972 313.755 26.0273 313.755Z" fill="#B7BCC8"/>
<path d="M0.903409 356.052H6.40909V355.115H2.35227V355.047L4.3125 352.95C5.8125 351.343 6.25568 350.593 6.25568 349.626C6.25568 348.28 5.16477 347.206 3.63068 347.206C2.10085 347.206 0.9375 348.245 0.9375 349.78H1.94318C1.94318 348.787 2.58665 348.126 3.59659 348.126C4.54261 348.126 5.26705 348.706 5.26705 349.626C5.26705 350.432 4.79403 351.028 3.78409 352.132L0.903409 355.285V356.052ZM8.16903 356.052H13.6747V355.115H9.6179V355.047L11.5781 352.95C13.0781 351.343 13.5213 350.593 13.5213 349.626C13.5213 348.28 12.4304 347.206 10.8963 347.206C9.36648 347.206 8.20312 348.245 8.20312 349.78H9.20881C9.20881 348.787 9.85227 348.126 10.8622 348.126C11.8082 348.126 12.5327 348.706 12.5327 349.626C12.5327 350.432 12.0597 351.028 11.0497 352.132L8.16903 355.285V356.052ZM18.2812 356.172C20.2074 356.172 21.3153 354.539 21.3153 351.689C21.3153 348.859 20.1903 347.206 18.2812 347.206C16.3722 347.206 15.2472 348.859 15.2472 351.689C15.2472 354.539 16.3551 356.172 18.2812 356.172ZM18.2812 355.234C17.0114 355.234 16.2699 353.96 16.2699 351.689C16.2699 349.422 17.0199 348.126 18.2812 348.126C19.5426 348.126 20.2926 349.422 20.2926 351.689C20.2926 353.96 19.5511 355.234 18.2812 355.234ZM25.7812 356.172C27.7074 356.172 28.8153 354.539 28.8153 351.689C28.8153 348.859 27.6903 347.206 25.7812 347.206C23.8722 347.206 22.7472 348.859 22.7472 351.689C22.7472 354.539 23.8551 356.172 25.7812 356.172ZM25.7812 355.234C24.5114 355.234 23.7699 353.96 23.7699 351.689C23.7699 349.422 24.5199 348.126 25.7812 348.126C27.0426 348.126 27.7926 349.422 27.7926 351.689C27.7926 353.96 27.0511 355.234 25.7812 355.234Z" fill="#B7BCC8"/>
<path d="M0.903409 397.052H6.40909V396.115H2.35227V396.047L4.3125 393.95C5.8125 392.343 6.25568 391.593 6.25568 390.626C6.25568 389.28 5.16477 388.206 3.63068 388.206C2.10085 388.206 0.9375 389.245 0.9375 390.78H1.94318C1.94318 389.787 2.58665 389.126 3.59659 389.126C4.54261 389.126 5.26705 389.706 5.26705 390.626C5.26705 391.432 4.79403 392.028 3.78409 393.132L0.903409 396.285V397.052ZM11.0156 397.172C12.9418 397.172 14.0497 395.539 14.0497 392.689C14.0497 389.859 12.9247 388.206 11.0156 388.206C9.10653 388.206 7.98153 389.859 7.98153 392.689C7.98153 395.539 9.08949 397.172 11.0156 397.172ZM11.0156 396.234C9.74574 396.234 9.00426 394.96 9.00426 392.689C9.00426 390.422 9.75426 389.126 11.0156 389.126C12.277 389.126 13.027 390.422 13.027 392.689C13.027 394.96 12.2855 396.234 11.0156 396.234ZM18.5156 397.172C20.4418 397.172 21.5497 395.539 21.5497 392.689C21.5497 389.859 20.4247 388.206 18.5156 388.206C16.6065 388.206 15.4815 389.859 15.4815 392.689C15.4815 395.539 16.5895 397.172 18.5156 397.172ZM18.5156 396.234C17.2457 396.234 16.5043 394.96 16.5043 392.689C16.5043 390.422 17.2543 389.126 18.5156 389.126C19.777 389.126 20.527 390.422 20.527 392.689C20.527 394.96 19.7855 396.234 18.5156 396.234ZM26.0156 397.172C27.9418 397.172 29.0497 395.539 29.0497 392.689C29.0497 389.859 27.9247 388.206 26.0156 388.206C24.1065 388.206 22.9815 389.859 22.9815 392.689C22.9815 395.539 24.0895 397.172 26.0156 397.172ZM26.0156 396.234C24.7457 396.234 24.0043 394.96 24.0043 392.689C24.0043 390.422 24.7543 389.126 26.0156 389.126C27.277 389.126 28.027 390.422 28.027 392.689C28.027 394.96 27.2855 396.234 26.0156 396.234Z" fill="#B7BCC8"/>
<path d="M0.903409 234.573H6.40909V233.636H2.35227V233.568L4.3125 231.471C5.8125 229.864 6.25568 229.114 6.25568 228.147C6.25568 226.801 5.16477 225.727 3.63068 225.727C2.10085 225.727 0.9375 226.766 0.9375 228.301H1.94318C1.94318 227.308 2.58665 226.647 3.59659 226.647C4.54261 226.647 5.26705 227.227 5.26705 228.147C5.26705 228.953 4.79403 229.549 3.78409 230.653L0.903409 233.806V234.573ZM10.9645 234.693C12.7074 234.693 13.9219 233.674 13.9304 232.255C13.9219 231.151 13.1847 230.214 12.2429 230.039V229.988C13.0611 229.775 13.598 228.974 13.6065 228.045C13.598 226.715 12.4815 225.727 10.9645 225.727C9.4304 225.727 8.31392 226.715 8.32244 228.045C8.31392 228.974 8.85085 229.775 9.68608 229.988V230.039C8.72727 230.214 7.99006 231.151 7.99858 232.255C7.99006 233.674 9.20455 234.693 10.9645 234.693ZM10.9645 233.755C9.76705 233.755 9.02983 233.141 9.03835 232.204C9.02983 231.22 9.84375 230.516 10.9645 230.516C12.0682 230.516 12.8821 231.22 12.8906 232.204C12.8821 233.141 12.1449 233.755 10.9645 233.755ZM10.9645 229.613C10.0099 229.613 9.33665 229.016 9.34517 228.113C9.33665 227.227 9.98438 226.647 10.9645 226.647C11.9276 226.647 12.5753 227.227 12.5838 228.113C12.5753 229.016 11.902 229.613 10.9645 229.613ZM18.4102 234.693C20.3363 234.693 21.4442 233.06 21.4442 230.21C21.4442 227.38 20.3192 225.727 18.4102 225.727C16.5011 225.727 15.3761 227.38 15.3761 230.21C15.3761 233.06 16.484 234.693 18.4102 234.693ZM18.4102 233.755C17.1403 233.755 16.3988 232.481 16.3988 230.21C16.3988 227.943 17.1488 226.647 18.4102 226.647C19.6715 226.647 20.4215 227.943 20.4215 230.21C20.4215 232.481 19.68 233.755 18.4102 233.755ZM25.9102 234.693C27.8363 234.693 28.9442 233.06 28.9442 230.21C28.9442 227.38 27.8192 225.727 25.9102 225.727C24.0011 225.727 22.8761 227.38 22.8761 230.21C22.8761 233.06 23.984 234.693 25.9102 234.693ZM25.9102 233.755C24.6403 233.755 23.8988 232.481 23.8988 230.21C23.8988 227.943 24.6488 226.647 25.9102 226.647C27.1715 226.647 27.9215 227.943 27.9215 230.21C27.9215 232.481 27.18 233.755 25.9102 233.755Z" fill="#B7BCC8"/>
<path d="M3.85227 194.693C5.54403 194.693 6.80114 193.631 6.80114 192.204C6.80114 191.096 6.14489 190.291 5.04545 190.107V190.039C5.92756 189.771 6.47727 189.046 6.47727 188.062C6.47727 186.826 5.50142 185.727 3.88636 185.727C2.37784 185.727 1.125 186.656 1.07386 188.028H2.09659C2.13494 187.158 2.96165 186.647 3.86932 186.647C4.83239 186.647 5.45455 187.231 5.45455 188.113C5.45455 189.033 4.73438 189.63 3.69886 189.63H3V190.568H3.69886C5.02415 190.568 5.76136 191.241 5.76136 192.204C5.76136 193.129 4.95597 193.755 3.83523 193.755C2.82528 193.755 2.02415 193.235 1.96023 192.391H0.886364C0.950284 193.764 2.16051 194.693 3.85227 194.693ZM11.3906 194.693C13.3168 194.693 14.4247 193.06 14.4247 190.21C14.4247 187.38 13.2997 185.727 11.3906 185.727C9.48153 185.727 8.35653 187.38 8.35653 190.21C8.35653 193.06 9.46449 194.693 11.3906 194.693ZM11.3906 193.755C10.1207 193.755 9.37926 192.481 9.37926 190.21C9.37926 187.943 10.1293 186.647 11.3906 186.647C12.652 186.647 13.402 187.943 13.402 190.21C13.402 192.481 12.6605 193.755 11.3906 193.755ZM18.8906 194.693C20.8168 194.693 21.9247 193.06 21.9247 190.21C21.9247 187.38 20.7997 185.727 18.8906 185.727C16.9815 185.727 15.8565 187.38 15.8565 190.21C15.8565 193.06 16.9645 194.693 18.8906 194.693ZM18.8906 193.755C17.6207 193.755 16.8793 192.481 16.8793 190.21C16.8793 187.943 17.6293 186.647 18.8906 186.647C20.152 186.647 20.902 187.943 20.902 190.21C20.902 192.481 20.1605 193.755 18.8906 193.755ZM26.3906 194.693C28.3168 194.693 29.4247 193.06 29.4247 190.21C29.4247 187.38 28.2997 185.727 26.3906 185.727C24.4815 185.727 23.3565 187.38 23.3565 190.21C23.3565 193.06 24.4645 194.693 26.3906 194.693ZM26.3906 193.755C25.1207 193.755 24.3793 192.481 24.3793 190.21C24.3793 187.943 25.1293 186.647 26.3906 186.647C27.652 186.647 28.402 187.943 28.402 190.21C28.402 192.481 27.6605 193.755 26.3906 193.755Z" fill="#B7BCC8"/>
<path d="M3.85227 154.693C5.54403 154.693 6.80114 153.631 6.80114 152.204C6.80114 151.096 6.14489 150.291 5.04545 150.107V150.039C5.92756 149.771 6.47727 149.046 6.47727 148.062C6.47727 146.826 5.50142 145.727 3.88636 145.727C2.37784 145.727 1.125 146.656 1.07386 148.028H2.09659C2.13494 147.158 2.96165 146.647 3.86932 146.647C4.83239 146.647 5.45455 147.231 5.45455 148.113C5.45455 149.033 4.73438 149.63 3.69886 149.63H3V150.568H3.69886C5.02415 150.568 5.76136 151.241 5.76136 152.204C5.76136 153.129 4.95597 153.755 3.83523 153.755C2.82528 153.755 2.02415 153.235 1.96023 152.391H0.886364C0.950284 153.764 2.16051 154.693 3.85227 154.693ZM8.54403 154.573H14.0497V153.636H9.9929V153.568L11.9531 151.471C13.4531 149.864 13.8963 149.114 13.8963 148.147C13.8963 146.801 12.8054 145.727 11.2713 145.727C9.74148 145.727 8.57812 146.766 8.57812 148.301H9.58381C9.58381 147.308 10.2273 146.647 11.2372 146.647C12.1832 146.647 12.9077 147.227 12.9077 148.147C12.9077 148.953 12.4347 149.549 11.4247 150.653L8.54403 153.806V154.573ZM18.6562 154.693C20.5824 154.693 21.6903 153.06 21.6903 150.21C21.6903 147.38 20.5653 145.727 18.6562 145.727C16.7472 145.727 15.6222 147.38 15.6222 150.21C15.6222 153.06 16.7301 154.693 18.6562 154.693ZM18.6562 153.755C17.3864 153.755 16.6449 152.481 16.6449 150.21C16.6449 147.943 17.3949 146.647 18.6562 146.647C19.9176 146.647 20.6676 147.943 20.6676 150.21C20.6676 152.481 19.9261 153.755 18.6562 153.755ZM26.1562 154.693C28.0824 154.693 29.1903 153.06 29.1903 150.21C29.1903 147.38 28.0653 145.727 26.1562 145.727C24.2472 145.727 23.1222 147.38 23.1222 150.21C23.1222 153.06 24.2301 154.693 26.1562 154.693ZM26.1562 153.755C24.8864 153.755 24.1449 152.481 24.1449 150.21C24.1449 147.943 24.8949 146.647 26.1562 146.647C27.4176 146.647 28.1676 147.943 28.1676 150.21C28.1676 152.481 27.4261 153.755 26.1562 153.755Z" fill="#B7BCC8"/>
<path d="M3.85227 114.693C5.54403 114.693 6.80114 113.631 6.80114 112.204C6.80114 111.096 6.14489 110.291 5.04545 110.107V110.039C5.92756 109.771 6.47727 109.046 6.47727 108.062C6.47727 106.826 5.50142 105.727 3.88636 105.727C2.37784 105.727 1.125 106.656 1.07386 108.028H2.09659C2.13494 107.158 2.96165 106.647 3.86932 106.647C4.83239 106.647 5.45455 107.231 5.45455 108.113C5.45455 109.033 4.73438 109.63 3.69886 109.63H3V110.568H3.69886C5.02415 110.568 5.76136 111.241 5.76136 112.204C5.76136 113.129 4.95597 113.755 3.83523 113.755C2.82528 113.755 2.02415 113.235 1.96023 112.391H0.886364C0.950284 113.764 2.16051 114.693 3.85227 114.693ZM8.33949 112.783H12.4474V114.573H13.4531V112.783H14.6463V111.846H13.4531V105.846H12.1747L8.33949 111.914V112.783ZM12.4474 111.846H9.48153V111.778L12.3793 107.193H12.4474V111.846ZM19.0898 114.693C21.016 114.693 22.1239 113.06 22.1239 110.21C22.1239 107.38 20.9989 105.727 19.0898 105.727C17.1808 105.727 16.0558 107.38 16.0558 110.21C16.0558 113.06 17.1637 114.693 19.0898 114.693ZM19.0898 113.755C17.82 113.755 17.0785 112.481 17.0785 110.21C17.0785 107.943 17.8285 106.647 19.0898 106.647C20.3512 106.647 21.1012 107.943 21.1012 110.21C21.1012 112.481 20.3597 113.755 19.0898 113.755ZM26.5898 114.693C28.516 114.693 29.6239 113.06 29.6239 110.21C29.6239 107.38 28.4989 105.727 26.5898 105.727C24.6808 105.727 23.5558 107.38 23.5558 110.21C23.5558 113.06 24.6637 114.693 26.5898 114.693ZM26.5898 113.755C25.32 113.755 24.5785 112.481 24.5785 110.21C24.5785 107.943 25.3285 106.647 26.5898 106.647C27.8512 106.647 28.6012 107.943 28.6012 110.21C28.6012 112.481 27.8597 113.755 26.5898 113.755Z" fill="#B7BCC8"/>
<path d="M3.85227 75.1716C5.54403 75.1716 6.80114 74.1105 6.80114 72.6829C6.80114 71.575 6.14489 70.7696 5.04545 70.5863V70.5182C5.92756 70.2497 6.47727 69.5253 6.47727 68.5409C6.47727 67.3051 5.50142 66.2057 3.88636 66.2057C2.37784 66.2057 1.125 67.1346 1.07386 68.5068H2.09659C2.13494 67.6375 2.96165 67.1261 3.86932 67.1261C4.83239 67.1261 5.45455 67.7099 5.45455 68.592C5.45455 69.5125 4.73438 70.1091 3.69886 70.1091H3V71.0466H3.69886C5.02415 71.0466 5.76136 71.7199 5.76136 72.6829C5.76136 73.6076 4.95597 74.2341 3.83523 74.2341C2.82528 74.2341 2.02415 73.7142 1.96023 72.8704H0.886364C0.950284 74.2426 2.16051 75.1716 3.85227 75.1716ZM11.4418 75.1716C13.206 75.1929 14.3565 73.8633 14.3565 72.2397C14.3565 70.5522 13.108 69.342 11.6122 69.342C10.7131 69.342 9.94176 69.7809 9.46449 70.5011H9.39631C9.40057 68.3747 10.2273 67.1432 11.5781 67.1432C12.4986 67.1432 13.0526 67.7227 13.2486 68.5068H14.2884C14.0753 67.1517 13.044 66.2057 11.5781 66.2057C9.61364 66.2057 8.40767 67.9443 8.40767 71.0295C8.40767 74.2554 10.0099 75.1545 11.4418 75.1716ZM11.4418 74.2341C10.3466 74.2341 9.54545 73.3008 9.54972 72.2568C9.55398 71.2128 10.3935 70.2795 11.4759 70.2795C12.5455 70.2795 13.3338 71.1574 13.3338 72.2397C13.3338 73.3477 12.5114 74.2341 11.4418 74.2341ZM18.8789 75.1716C20.805 75.1716 21.913 73.5395 21.913 70.6886C21.913 67.8591 20.788 66.2057 18.8789 66.2057C16.9698 66.2057 15.8448 67.8591 15.8448 70.6886C15.8448 73.5395 16.9528 75.1716 18.8789 75.1716ZM18.8789 74.2341C17.609 74.2341 16.8675 72.9599 16.8675 70.6886C16.8675 68.4216 17.6175 67.1261 18.8789 67.1261C20.1403 67.1261 20.8903 68.4216 20.8903 70.6886C20.8903 72.9599 20.1488 74.2341 18.8789 74.2341ZM26.3789 75.1716C28.305 75.1716 29.413 73.5395 29.413 70.6886C29.413 67.8591 28.288 66.2057 26.3789 66.2057C24.4698 66.2057 23.3448 67.8591 23.3448 70.6886C23.3448 73.5395 24.4528 75.1716 26.3789 75.1716ZM26.3789 74.2341C25.109 74.2341 24.3675 72.9599 24.3675 70.6886C24.3675 68.4216 25.1175 67.1261 26.3789 67.1261C27.6403 67.1261 28.3903 68.4216 28.3903 70.6886C28.3903 72.9599 27.6488 74.2341 26.3789 74.2341Z" fill="#B7BCC8"/>
<path d="M3.85227 35.1716C5.54403 35.1716 6.80114 34.1105 6.80114 32.6829C6.80114 31.575 6.14489 30.7696 5.04545 30.5863V30.5182C5.92756 30.2497 6.47727 29.5253 6.47727 28.5409C6.47727 27.3051 5.50142 26.2057 3.88636 26.2057C2.37784 26.2057 1.125 27.1346 1.07386 28.5068H2.09659C2.13494 27.6375 2.96165 27.1261 3.86932 27.1261C4.83239 27.1261 5.45455 27.7099 5.45455 28.592C5.45455 29.5125 4.73438 30.1091 3.69886 30.1091H3V31.0466H3.69886C5.02415 31.0466 5.76136 31.7199 5.76136 32.6829C5.76136 33.6076 4.95597 34.2341 3.83523 34.2341C2.82528 34.2341 2.02415 33.7142 1.96023 32.8704H0.886364C0.950284 34.2426 2.16051 35.1716 3.85227 35.1716ZM11.3395 35.1716C13.0824 35.1716 14.2969 34.1531 14.3054 32.7341C14.2969 31.6304 13.5597 30.6929 12.6179 30.5182V30.467C13.4361 30.254 13.973 29.4528 13.9815 28.5238C13.973 27.1943 12.8565 26.2057 11.3395 26.2057C9.8054 26.2057 8.68892 27.1943 8.69744 28.5238C8.68892 29.4528 9.22585 30.254 10.0611 30.467V30.5182C9.10227 30.6929 8.36506 31.6304 8.37358 32.7341C8.36506 34.1531 9.57955 35.1716 11.3395 35.1716ZM11.3395 34.2341C10.142 34.2341 9.40483 33.6204 9.41335 32.6829C9.40483 31.6986 10.2188 30.9954 11.3395 30.9954C12.4432 30.9954 13.2571 31.6986 13.2656 32.6829C13.2571 33.6204 12.5199 34.2341 11.3395 34.2341ZM11.3395 30.092C10.3849 30.092 9.71165 29.4954 9.72017 28.592C9.71165 27.7057 10.3594 27.1261 11.3395 27.1261C12.3026 27.1261 12.9503 27.7057 12.9588 28.592C12.9503 29.4954 12.277 30.092 11.3395 30.092ZM18.7852 35.1716C20.7113 35.1716 21.8192 33.5395 21.8192 30.6886C21.8192 27.8591 20.6942 26.2057 18.7852 26.2057C16.8761 26.2057 15.7511 27.8591 15.7511 30.6886C15.7511 33.5395 16.859 35.1716 18.7852 35.1716ZM18.7852 34.2341C17.5153 34.2341 16.7738 32.9599 16.7738 30.6886C16.7738 28.4216 17.5238 27.1261 18.7852 27.1261C20.0465 27.1261 20.7965 28.4216 20.7965 30.6886C20.7965 32.9599 20.055 34.2341 18.7852 34.2341ZM26.2852 35.1716C28.2113 35.1716 29.3192 33.5395 29.3192 30.6886C29.3192 27.8591 28.1942 26.2057 26.2852 26.2057C24.3761 26.2057 23.2511 27.8591 23.2511 30.6886C23.2511 33.5395 24.359 35.1716 26.2852 35.1716ZM26.2852 34.2341C25.0153 34.2341 24.2738 32.9599 24.2738 30.6886C24.2738 28.4216 25.0238 27.1261 26.2852 27.1261C27.5465 27.1261 28.2965 28.4216 28.2965 30.6886C28.2965 32.9599 27.555 34.2341 26.2852 34.2341Z" fill="#B7BCC8"/>
<path d="M54 187.128L116.325 202.279L140.372 197.785L161.965 187.128L193.864 162.337L212.021 153.85L233.124 162.337L248.828 174.819L271.402 178.314L289.069 166.831L306.245 162.337L328.329 166.831L345.996 187.128L366.608 202.279L391.636 206.772L414.21 202.279L431.877 183.307L458.378 149.356L482.915 142.366L502.545 149.356L520.703 166.831L544.75 169.826L569.778 153.85L583.519 149.356L627.686 159.342L654.187 162.337H678.234L701.79 153.85L739.087 121.397L755.772 103.423L771.967 92.4394L794.051 88.9445L826.44 92.4394L851.714 83.4525L876.006 61.4847L892.201 51H912.812L937.84 61.4847L959.433 88.9445L981.517 103.423H1006.55L1036.48 92.4394L1062 78.46V393H54V187.128Z" fill="url(#paint0_linear)" fill-opacity="0.1"/>
<path d="M56.8487 187.053L96.794 198.086C120.629 204.669 145.418 200.002 163.605 185.507L193.398 161.761C206.32 151.462 225.897 153.156 238.468 165.662V165.662C250.733 177.865 269.735 179.815 282.706 170.202L284.951 168.539C299.472 157.778 320.815 160.23 334.216 174.199L345.891 186.369C369.844 211.338 409.452 210.899 429.039 185.447L453.08 154.206C466.094 137.294 492.777 137.915 507.545 155.472V155.472C521.526 172.094 546.692 173.465 560.43 158.631V158.631C568.936 149.447 582.448 145.937 595.272 149.733L629.682 159.921C662.323 169.585 696.476 161.703 719.143 139.275L753.796 104.988C767.356 91.5712 787.314 86.0593 807.148 90.254L808.465 90.5325C829.022 94.8803 849.597 88.3722 862.516 73.4354L868.562 66.444C890.69 40.8597 933.701 46.2744 952.622 77.0264V77.0264C967.637 101.432 999.079 110.906 1023.17 98.2854L1060.84 78.5572" stroke="#1FC7A2" stroke-width="4" stroke-linecap="round" stroke-linejoin="round"/>
<defs>
<linearGradient id="paint0_linear" x1="558.576" y1="251.595" x2="558.154" y2="393.001" gradientUnits="userSpaceOnUse">
<stop stop-color="#1FC7A2"/>
<stop offset="1" stop-color="#1FC7A2" stop-opacity="0.23"/>
</linearGradient>
</defs>
</svg>
