<svg width="368" height="481" viewBox="0 0 368 481" fill="none" xmlns="http://www.w3.org/2000/svg">
<path d="M316.466 107.898C274.157 70.9064 216.819 107.898 161.215 185.697C105.496 263.612 79.0238 230.781 31.7434 265.114C-15.6526 299.448 -28.253 440.017 138.558 426.261C305.137 412.62 427.095 204.424 316.466 107.898Z" fill="#E1E8F4"/>
<path d="M367.793 479.784C367.793 479.899 287.566 480.13 188.497 480.13C89.4281 480.13 9.20166 480.015 9.20166 479.784C9.20166 479.668 89.4281 479.437 188.497 479.437C287.566 479.552 367.793 479.668 367.793 479.784Z" fill="#263238"/>
<path d="M289.647 338.289C271.845 325.804 267.683 302.684 268.493 281.876C268.608 278.408 268.261 274.709 269.88 271.704C271.498 268.698 275.429 266.617 278.55 268.004C281.093 269.276 282.249 272.166 283.752 274.709C285.717 278.062 288.491 280.72 291.844 282.454C294.04 283.61 296.814 284.304 299.011 283.148C302.016 281.53 302.363 277.368 302.363 273.9C302.363 267.426 302.248 261.068 302.248 254.595C302.248 251.127 302.248 247.659 303.288 244.306C304.329 241.07 306.756 237.948 309.993 237.024C313.23 236.099 317.391 237.948 318.085 241.416C318.432 242.804 318.085 244.306 318.2 245.694C318.316 247.081 319.01 248.699 320.281 249.162C321.669 249.624 323.056 248.584 324.096 247.543C327.68 244.075 330.107 239.567 332.304 235.058C334.5 230.55 336.812 226.042 340.049 222.227C343.286 218.412 347.794 215.406 352.765 215.175C357.736 214.944 362.938 217.95 364.209 222.805C365.481 227.66 362.591 232.631 359.585 236.561C354.961 242.457 349.528 247.543 343.517 251.82C342.476 252.63 341.205 253.439 340.858 254.71C340.164 257.022 342.245 259.334 344.557 260.028C347.1 260.837 349.875 260.606 352.649 260.953C355.308 261.3 358.314 262.456 359.238 264.999C360.626 268.582 357.736 272.282 354.846 274.709C349.066 279.564 342.361 283.379 335.309 286.038C332.766 286.963 330.107 287.772 328.026 289.622C325.946 291.356 324.79 294.477 325.946 296.904C327.217 299.332 330.339 300.141 332.997 299.679C335.656 299.216 338.084 297.714 340.627 296.789C345.366 294.939 351.493 295.286 354.499 299.448C356.464 302.106 356.695 305.921 355.655 309.158C354.614 312.395 352.649 315.169 350.453 317.712C342.823 326.614 333.113 333.781 322.131 337.711C310.802 341.295 300.629 342.335 289.647 338.289Z" fill="#1FC7A2"/>
<path d="M359.007 218.065C359.007 218.065 358.892 218.181 358.66 218.412C358.429 218.643 358.082 218.99 357.62 219.337C356.695 220.146 355.424 221.302 353.69 222.92C350.337 226.042 345.598 230.781 340.511 237.139C337.968 240.376 335.309 243.96 332.419 247.89C329.645 251.82 326.639 256.098 323.749 260.606C320.859 265.23 317.854 270.085 315.195 275.403C313.808 278.062 312.652 280.836 311.496 283.61C310.34 286.385 309.068 289.275 307.796 292.165C302.941 303.725 298.548 314.938 295.427 325.458C292.306 335.862 290.456 345.572 289.647 353.78C288.838 361.987 288.954 368.692 289.3 373.316C289.532 375.628 289.647 377.362 289.763 378.634C289.878 379.212 289.878 379.674 289.878 380.021C289.878 380.368 289.878 380.483 289.878 380.483C289.878 380.483 289.878 380.368 289.763 380.021C289.763 379.674 289.647 379.212 289.532 378.634C289.3 377.478 289.069 375.628 288.838 373.316C288.376 368.692 288.144 361.987 288.954 353.78C289.763 345.572 291.497 335.746 294.618 325.342C297.739 314.822 302.016 303.609 306.872 292.049C308.143 289.159 309.299 286.269 310.571 283.495C311.727 280.72 312.998 277.946 314.27 275.287C316.929 269.97 319.934 264.999 322.824 260.49C325.83 255.866 328.72 251.705 331.61 247.774C334.384 243.844 337.159 240.26 339.702 237.024C344.904 230.666 349.644 225.926 353.112 222.92C354.846 221.418 356.233 220.262 357.158 219.452C357.62 219.106 357.967 218.759 358.198 218.528C358.892 218.065 359.007 218.065 359.007 218.065Z" fill="#263238"/>
<path d="M314.848 275.056C314.848 275.056 314.732 274.594 314.501 273.553C314.27 272.628 314.154 271.241 313.808 269.507C313.345 266.039 312.767 261.3 312.305 255.982C311.727 250.664 311.149 245.925 310.686 242.572C310.455 240.838 310.224 239.451 309.993 238.526C309.877 237.602 309.762 237.024 309.762 237.024C309.762 237.024 309.993 237.486 310.224 238.526C310.455 239.451 310.802 240.838 311.033 242.572C311.727 246.04 312.305 250.78 312.883 255.982C313.461 261.184 313.923 265.924 314.27 269.507C314.501 271.126 314.617 272.513 314.732 273.553C314.964 274.478 314.964 275.056 314.848 275.056Z" fill="#263238"/>
<path d="M359.354 266.733C359.354 266.733 358.776 266.848 357.62 266.964C356.464 267.08 354.846 267.195 352.765 267.426C348.719 267.889 343.055 268.698 336.928 269.854C330.801 271.01 325.252 272.282 321.322 273.322C319.357 273.784 317.738 274.247 316.582 274.594C315.426 274.94 314.848 275.056 314.848 275.056C314.848 275.056 315.426 274.825 316.467 274.362C317.507 274.016 319.125 273.438 321.091 272.86C325.021 271.704 330.57 270.316 336.697 269.16C342.823 268.004 348.488 267.311 352.534 266.964C354.615 266.733 356.233 266.733 357.389 266.733C358.661 266.733 359.354 266.733 359.354 266.733Z" fill="#263238"/>
<path d="M295.543 324.417C295.543 324.417 295.427 324.186 295.196 323.839C294.965 323.377 294.734 322.914 294.387 322.221C293.693 320.834 292.884 318.753 291.728 316.21C289.532 311.123 286.873 303.956 283.983 296.095C281.093 288.234 278.434 281.067 276.353 275.865C275.313 273.322 274.504 271.357 273.926 269.854C273.695 269.16 273.463 268.698 273.232 268.236C273.117 267.889 273.001 267.658 273.001 267.658C273.001 267.658 273.117 267.889 273.348 268.236C273.579 268.698 273.81 269.16 274.157 269.854C274.851 271.241 275.66 273.322 276.816 275.865C279.012 280.952 281.671 288.119 284.561 295.98C287.451 303.84 290.11 311.008 292.191 316.094C293.231 318.637 294.04 320.602 294.618 322.105C294.849 322.799 295.081 323.261 295.312 323.724C295.543 324.186 295.543 324.417 295.543 324.417Z" fill="#263238"/>
<path d="M354.615 305.459C354.615 305.459 354.383 305.574 354.037 305.69C353.574 305.806 352.996 306.037 352.303 306.268C350.684 306.73 348.603 307.424 345.945 308.349C340.627 310.083 333.229 312.51 325.137 315.285C317.045 318.059 309.646 320.487 304.213 322.105C301.554 322.914 299.358 323.608 297.855 323.955C297.161 324.186 296.583 324.302 296.121 324.417C295.774 324.533 295.543 324.533 295.543 324.533C295.543 324.533 295.774 324.417 296.121 324.302C296.583 324.186 297.161 323.955 297.855 323.724C299.473 323.261 301.554 322.568 304.213 321.643C309.531 319.909 316.929 317.481 325.021 314.707C333.113 311.932 340.511 309.505 345.829 307.886C348.488 307.077 350.684 306.384 352.187 306.037C352.881 305.806 353.459 305.69 353.921 305.574C354.383 305.459 354.615 305.343 354.615 305.459Z" fill="#263238"/>
<path d="M330.454 25.0132L324.443 27.094L321.9 19.3488C317.16 5.01441 302.248 -2.73079 288.491 2.24001C274.735 7.09521 267.452 22.8168 272.076 37.1512L274.619 44.8964L268.608 46.9772C263.984 48.5956 261.441 54.0288 263.059 58.884L279.59 109.517C281.209 114.488 286.295 117.031 291.035 115.412L352.765 93.3328C357.505 91.5988 360.048 86.2812 358.429 81.3104L341.899 30.6776C340.396 25.938 335.194 23.2792 330.454 25.0132ZM283.521 33.1052C280.977 25.2444 284.908 16.69 292.537 13.9156C300.051 11.2568 308.259 15.4184 310.802 23.2792L313.345 31.0244L286.064 40.7348L283.521 33.1052ZM318.201 78.0736L322.478 91.0208C322.709 91.5988 322.362 92.1768 321.784 92.2924L315.889 94.3732C315.426 94.4888 314.848 94.2576 314.733 93.7952L310.455 80.848C305.831 80.6168 301.67 77.6112 300.051 72.756C297.971 66.5136 301.207 59.6932 307.219 57.4968C313.23 55.3004 319.703 58.6528 321.784 65.0108C323.287 69.866 321.669 74.9524 318.201 78.0736Z" fill="#1FC7A2"/>
<path d="M324.327 26.9784C324.327 27.094 313.345 31.2556 299.589 36.2264C285.832 41.1972 274.619 45.1276 274.619 44.8964C274.619 44.7808 285.601 40.6192 299.358 35.6484C312.998 30.6776 324.212 26.8628 324.327 26.9784Z" fill="#263238"/>
<path d="M337.39 29.0592C337.39 29.0592 337.39 29.1748 337.506 29.406C337.621 29.6372 337.737 29.984 337.853 30.3308C338.199 31.14 338.546 32.296 339.124 33.7988C340.165 36.92 341.667 41.3128 343.517 46.746C345.367 52.1792 347.563 58.7684 349.991 65.9356C351.147 69.5192 352.534 73.334 353.805 77.2644C354.383 79.2296 354.846 81.426 354.73 83.6224C354.615 84.6628 354.383 85.8188 353.805 86.8592C353.227 87.8996 352.534 88.7088 351.609 89.4024C349.875 90.7896 347.794 91.5988 345.713 92.408C343.748 93.1016 341.667 93.7952 339.702 94.6044C335.772 95.9916 332.073 97.3788 328.489 98.6504C321.322 101.194 314.848 103.506 309.415 105.471C303.982 107.32 299.589 108.939 296.583 109.979C295.081 110.442 293.925 110.904 293.115 111.135C292.769 111.251 292.422 111.366 292.191 111.482C291.959 111.598 291.844 111.598 291.844 111.598C291.844 111.598 291.959 111.598 292.191 111.482C292.422 111.366 292.769 111.251 293.115 111.135C293.925 110.788 295.081 110.326 296.583 109.864C299.705 108.708 303.982 107.089 309.415 105.124C314.848 103.159 321.322 100.847 328.489 98.188C332.073 96.9164 335.887 95.5292 339.702 94.142C341.667 93.4484 343.633 92.7548 345.598 91.9456C347.563 91.252 349.644 90.4428 351.262 89.0556C352.071 88.362 352.765 87.5528 353.343 86.628C353.805 85.7032 354.152 84.6628 354.268 83.6224C354.499 81.5416 354.037 79.4608 353.459 77.4956C352.187 73.5652 350.915 69.7504 349.759 66.1668C347.332 58.884 345.251 52.4104 343.401 46.9772C341.667 41.544 340.165 37.1512 339.124 34.03C338.662 32.5272 338.315 31.3712 337.968 30.4464C337.853 30.0996 337.737 29.7528 337.737 29.5216C337.39 29.1748 337.39 29.0592 337.39 29.0592Z" fill="#263238"/>
<path d="M304.791 13.222C304.791 13.222 304.213 12.8752 303.057 12.4128C301.901 11.9504 300.167 11.488 297.97 11.3724C295.774 11.2568 293.115 11.6036 290.572 12.7596C287.913 13.9156 285.37 15.8808 283.52 18.6552C281.671 21.4296 280.862 24.5508 280.862 27.4408C280.862 30.3308 281.44 32.874 282.018 34.9548C282.596 37.0356 283.289 38.7696 283.636 39.9256C284.098 41.0816 284.33 41.7752 284.214 41.7752C284.214 41.7752 283.867 41.1972 283.405 40.0412C282.942 38.8852 282.249 37.2668 281.555 35.186C280.862 33.1052 280.284 30.4464 280.284 27.4408C280.284 24.4352 281.093 21.1984 283.058 18.3084C285.023 15.4184 287.682 13.3376 290.456 12.1816C293.231 11.0256 295.89 10.6788 298.086 10.91C300.282 11.0256 302.016 11.6036 303.172 12.1816C303.75 12.4128 304.213 12.644 304.444 12.8752C304.675 13.1064 304.906 13.1064 304.791 13.222Z" fill="#263238"/>
<path d="M305.369 58.4216C305.369 58.4216 305.6 58.306 305.947 58.0748C306.294 57.8436 306.987 57.6124 307.681 57.3812C308.49 57.15 309.53 56.9188 310.686 56.9188C311.842 56.8032 313.345 57.0344 314.732 57.4968C317.738 58.5372 320.397 61.5428 321.784 65.5888C322.478 67.554 322.478 69.9816 321.784 72.178C321.09 74.49 319.819 76.5708 317.969 78.4204L318.085 78.0736C319.588 82.2352 321.322 86.8592 323.056 91.5988L323.171 91.9456L322.824 92.0612C322.015 92.2924 321.09 92.6392 320.166 92.986C318.2 93.6796 316.351 94.2576 314.386 94.9512L314.154 95.0668L314.039 94.8356C312.42 90.096 310.686 85.472 309.415 81.1948L309.646 81.426C307.334 81.3104 305.138 80.27 303.404 78.9984C301.67 77.7268 300.398 76.1084 299.473 74.3744C298.664 72.6404 298.202 70.7908 298.202 69.1724C298.202 67.554 298.664 65.9356 299.126 64.664C300.167 62.1208 301.785 60.5024 303.057 59.5776C304.56 58.6528 305.369 58.4216 305.369 58.4216C305.369 58.4216 304.675 58.7684 303.519 59.6932C302.363 60.618 300.86 62.2364 299.82 64.7796C298.78 67.2072 298.433 70.7908 300.167 74.1432C300.976 75.7616 302.248 77.38 303.982 78.536C305.6 79.8076 307.681 80.7324 309.877 80.848H310.108V81.0792C311.38 85.3564 313.114 89.8648 314.732 94.72L314.386 94.4888C316.235 93.9108 318.2 93.2172 320.166 92.5236C321.09 92.1768 322.015 91.9456 322.824 91.5988L322.593 91.9456C320.859 87.206 319.241 82.582 317.622 78.4204L317.507 78.3048L317.622 78.1892C319.356 76.4552 320.628 74.3744 321.322 72.178C321.9 69.9816 321.9 67.7852 321.322 65.82C320.05 61.8896 317.507 58.9996 314.617 57.9592C313.23 57.3812 311.842 57.2656 310.686 57.2656C309.53 57.2656 308.49 57.4968 307.681 57.728C306.178 58.0748 305.369 58.4216 305.369 58.4216Z" fill="#263238"/>
<path d="M269.648 392.159L154.164 391.581C140.292 391.465 129.079 380.252 129.079 366.38L130.35 76.9176C130.466 63.0456 141.679 51.8324 155.667 51.8324L271.151 52.4104C285.023 52.526 296.236 63.7392 296.236 77.6112L294.965 367.074C294.849 381.061 283.52 392.274 269.648 392.159Z" fill="#455A64"/>
<path d="M270.92 62.352H248.493C245.488 62.352 243.06 64.8952 243.06 68.0164V72.0624C243.06 75.1836 240.633 77.7268 237.627 77.7268L194.046 77.4956C191.04 77.4956 188.613 74.9524 188.613 71.8312V67.7852C188.613 64.664 186.185 62.1208 183.179 62.1208H175.319L155.782 62.0052C146.072 62.0052 138.095 69.866 138.095 79.5764L136.939 362.103C136.939 371.813 144.8 379.79 154.511 379.79L269.764 380.368C279.474 380.368 287.451 372.507 287.451 362.796L288.607 80.27C288.491 70.3284 280.63 62.4676 270.92 62.352Z" fill="white"/>
<path d="M255.429 342.451L169.77 342.104C168.845 342.104 168.151 341.179 168.151 339.908L168.267 317.481C168.267 316.325 168.961 315.285 169.885 315.285L255.545 315.632C256.47 315.632 257.163 316.556 257.163 317.828L257.048 340.254C257.048 341.526 256.354 342.451 255.429 342.451Z" fill="#1FC7A2"/>
<path d="M186.778 145.423L157.069 145.286L157.044 150.719L186.753 150.857L186.778 145.423Z" fill="#4A7DC9"/>
<path opacity="0.1" d="M186.778 145.423L157.069 145.286L157.044 150.719L186.753 150.857L186.778 145.423Z" fill="black"/>
<path d="M274.041 178.877C274.041 178.877 274.272 178.877 274.734 178.761C275.197 178.646 275.775 178.068 275.89 177.258C275.89 175.409 275.89 172.75 275.89 169.282C275.89 167.548 275.89 165.583 275.89 163.502C275.89 162.924 275.89 162.462 275.89 161.884C275.89 161.306 275.891 160.843 275.544 160.381C275.197 159.918 274.734 159.687 274.156 159.687C273.578 159.687 273.001 159.687 272.307 159.687C267.336 159.687 261.787 159.687 255.66 159.687C230.922 159.572 196.704 159.456 159.019 159.34C158.556 159.34 157.979 159.572 157.747 160.034C157.401 160.496 157.401 160.959 157.401 161.537C157.401 162.693 157.401 163.849 157.401 165.005C157.401 167.317 157.401 169.629 157.401 171.941C157.401 173.097 157.401 174.253 157.401 175.409C157.401 175.987 157.401 176.565 157.401 177.027C157.516 177.49 157.863 177.836 158.325 178.068C158.557 178.183 158.788 178.183 159.019 178.183H159.828H161.562C162.718 178.183 163.759 178.183 164.915 178.183C173.816 178.183 182.37 178.299 190.578 178.299C206.877 178.414 221.674 178.53 234.043 178.53C246.413 178.646 256.354 178.761 263.29 178.761C266.758 178.761 269.417 178.877 271.266 178.877C272.191 178.877 272.885 178.877 273.347 178.877C273.694 178.877 274.041 178.877 274.041 178.877C274.041 178.877 273.81 178.877 273.347 178.877C272.885 178.877 272.191 178.877 271.266 178.877C269.417 178.877 266.758 178.877 263.29 178.877C256.354 178.877 246.297 178.877 233.928 178.877C221.559 178.877 206.762 178.761 190.462 178.761C182.254 178.761 173.7 178.646 164.799 178.646C163.643 178.646 162.603 178.646 161.447 178.646H159.713H158.903C158.557 178.646 158.21 178.646 157.979 178.53C157.401 178.299 156.938 177.721 156.707 177.143C156.591 176.796 156.591 176.449 156.591 176.218V175.409C156.591 174.253 156.591 173.097 156.591 171.941C156.591 169.629 156.591 167.317 156.591 165.005C156.591 163.849 156.591 162.693 156.591 161.537C156.591 161.19 156.591 160.959 156.591 160.612C156.591 160.265 156.822 159.918 156.938 159.687C157.285 159.109 157.978 158.762 158.672 158.762C196.473 158.994 230.575 159.109 255.314 159.34C261.441 159.34 267.105 159.456 271.96 159.456C272.538 159.456 273.232 159.456 273.81 159.456C274.503 159.456 275.081 159.803 275.428 160.265C275.775 160.728 275.775 161.421 275.775 161.999C275.775 162.577 275.775 163.04 275.775 163.618C275.775 165.698 275.775 167.664 275.775 169.398C275.775 172.866 275.659 175.524 275.659 177.374C275.544 178.299 274.85 178.877 274.388 178.992C274.272 178.992 274.041 178.877 274.041 178.877Z" fill="#E0E0E0"/>
<path d="M219.376 166.52L165.044 166.269L165.021 171.355L219.353 171.606L219.376 166.52Z" fill="#4A7DC9"/>
<path opacity="0.2" d="M219.376 166.52L165.044 166.269L165.021 171.355L219.353 171.606L219.376 166.52Z" fill="white"/>
<path d="M186.547 195.247L156.837 195.11L156.812 200.543L186.522 200.681L186.547 195.247Z" fill="#4A7DC9"/>
<path opacity="0.1" d="M186.547 195.247L156.837 195.11L156.812 200.543L186.522 200.681L186.547 195.247Z" fill="black"/>
<path d="M273.232 228.7C273.232 228.7 273.463 228.7 273.926 228.585C274.388 228.469 274.966 228.122 275.428 227.313C275.66 226.851 275.66 226.388 275.66 225.81C275.66 225.232 275.66 224.654 275.66 223.961C275.66 222.574 275.66 221.071 275.66 219.337C275.66 217.603 275.66 215.638 275.66 213.557C275.66 212.979 275.66 212.516 275.66 211.938C275.66 211.36 275.66 210.898 275.313 210.436C275.082 209.973 274.619 209.626 274.041 209.511C273.579 209.395 272.885 209.395 272.307 209.395C267.452 209.395 261.788 209.395 255.661 209.395C231.038 209.28 196.936 209.164 159.366 209.048C158.326 209.048 157.401 209.858 157.285 210.898C157.285 212.054 157.285 213.21 157.285 214.366C157.285 216.678 157.285 218.99 157.285 221.302C157.285 222.458 157.285 223.614 157.285 224.77C157.285 225.348 157.17 225.926 157.401 226.388C157.516 226.851 157.863 227.313 158.21 227.544C158.672 227.776 159.135 227.891 159.597 227.891H161.331C162.487 227.891 163.528 227.891 164.684 227.891C173.585 227.891 182.139 228.007 190.231 228.007C206.531 228.122 221.212 228.238 233.581 228.238C245.95 228.354 255.892 228.469 262.828 228.469C266.296 228.469 268.955 228.585 270.804 228.585C271.729 228.585 272.423 228.585 272.885 228.585C273.001 228.7 273.232 228.7 273.232 228.7C273.232 228.7 273.001 228.7 272.538 228.7C272.076 228.7 271.382 228.7 270.458 228.7C268.608 228.7 265.949 228.7 262.481 228.7C255.545 228.7 245.604 228.7 233.234 228.7C220.865 228.7 206.184 228.585 189.884 228.585C181.677 228.585 173.122 228.469 164.337 228.469C163.181 228.469 162.14 228.469 160.984 228.469H159.25C158.672 228.469 157.979 228.354 157.516 228.007C156.938 227.66 156.592 227.082 156.476 226.504C156.36 225.81 156.36 225.348 156.36 224.77C156.36 223.614 156.36 222.458 156.36 221.302C156.36 218.99 156.36 216.678 156.36 214.366C156.36 213.21 156.36 212.054 156.36 210.782C156.476 209.395 157.748 208.355 159.019 208.355C196.589 208.586 230.691 208.702 255.314 208.933C261.441 208.933 267.105 209.048 271.96 209.048C272.538 209.048 273.232 208.933 273.81 209.164C274.388 209.395 274.966 209.742 275.197 210.32C275.544 210.782 275.544 211.476 275.544 212.054C275.544 212.632 275.544 213.094 275.544 213.672C275.544 215.753 275.544 217.718 275.544 219.452C275.544 221.186 275.544 222.689 275.544 224.076C275.544 224.77 275.544 225.348 275.544 225.926C275.544 226.504 275.544 226.966 275.313 227.429C274.85 228.238 274.157 228.585 273.81 228.7C273.463 228.7 273.232 228.7 273.232 228.7Z" fill="#E0E0E0"/>
<path d="M186.315 247.152L156.606 247.015L156.581 252.449L186.29 252.585L186.315 247.152Z" fill="#4A7DC9"/>
<path opacity="0.1" d="M186.315 247.152L156.606 247.015L156.581 252.449L186.29 252.585L186.315 247.152Z" fill="black"/>
<path d="M273 280.605C273 280.605 273.232 280.605 273.694 280.489C274.156 280.374 274.735 280.027 275.197 279.218C275.428 278.755 275.428 278.293 275.428 277.715C275.428 277.137 275.428 276.559 275.428 275.865C275.428 274.478 275.428 272.975 275.428 271.241C275.428 269.507 275.428 267.542 275.428 265.461C275.428 264.883 275.428 264.421 275.428 263.843C275.428 263.265 275.428 262.802 275.081 262.34C274.85 261.878 274.388 261.531 273.81 261.415C273.347 261.3 272.654 261.3 272.076 261.3C267.22 261.3 261.556 261.3 255.429 261.3C230.807 261.184 196.705 261.068 159.135 260.953C158.094 260.953 157.169 261.762 157.054 262.802C157.054 263.958 157.054 265.114 157.054 266.27C157.054 268.582 157.054 270.894 157.054 273.206C157.054 274.362 157.054 275.518 157.054 276.674C157.054 277.252 156.938 277.83 157.169 278.293C157.285 278.755 157.632 279.218 157.979 279.449C158.441 279.68 158.903 279.796 159.366 279.796H161.1C162.256 279.796 163.296 279.796 164.452 279.796C173.353 279.796 181.908 279.911 190 279.911C206.299 280.027 220.98 280.142 233.35 280.142C245.719 280.258 255.66 280.374 262.596 280.374C266.064 280.374 268.723 280.489 270.573 280.489C271.498 280.489 272.191 280.489 272.654 280.489C272.769 280.605 273 280.605 273 280.605C273 280.605 272.769 280.605 272.307 280.605C271.845 280.605 271.151 280.605 270.226 280.605C268.376 280.605 265.718 280.605 262.25 280.605C255.314 280.605 245.372 280.605 233.003 280.605C220.634 280.605 205.952 280.489 189.653 280.489C181.445 280.489 172.891 280.374 164.105 280.374C162.949 280.374 161.909 280.374 160.753 280.374H159.019C158.441 280.374 157.747 280.258 157.285 279.911C156.707 279.564 156.36 278.986 156.245 278.408C156.129 277.715 156.129 277.252 156.129 276.674C156.129 275.518 156.129 274.362 156.129 273.206C156.129 270.894 156.129 268.582 156.129 266.27C156.129 265.114 156.129 263.958 156.129 262.687C156.245 261.3 157.516 260.259 158.788 260.259C196.358 260.49 230.46 260.606 255.082 260.837C261.209 260.837 266.874 260.953 271.729 260.953C272.307 260.953 273 260.837 273.578 261.068C274.156 261.3 274.734 261.646 274.966 262.224C275.312 262.687 275.312 263.38 275.312 263.958C275.312 264.536 275.312 264.999 275.312 265.577C275.312 267.658 275.312 269.623 275.312 271.357C275.312 273.091 275.312 274.594 275.312 275.981C275.312 276.674 275.312 277.252 275.312 277.83C275.312 278.408 275.312 278.986 275.081 279.333C274.619 280.142 273.925 280.489 273.578 280.605C273.232 280.605 273 280.605 273 280.605Z" fill="#E0E0E0"/>
<path d="M219.145 216.344L164.813 216.093L164.789 221.179L219.121 221.43L219.145 216.344Z" fill="#4A7DC9"/>
<path opacity="0.2" d="M219.145 216.344L164.813 216.093L164.789 221.179L219.121 221.43L219.145 216.344Z" fill="white"/>
<path d="M169.77 271.126C169.77 272.513 168.729 273.669 167.342 273.669C166.07 273.669 164.914 272.513 165.03 271.126C165.03 269.738 166.07 268.582 167.458 268.582C168.729 268.582 169.77 269.738 169.77 271.126Z" fill="#4A7DC9"/>
<path d="M177.168 271.241C177.168 272.628 176.128 273.784 174.74 273.784C173.469 273.784 172.313 272.628 172.428 271.241C172.428 269.854 173.469 268.698 174.856 268.698C176.128 268.698 177.168 269.854 177.168 271.241Z" fill="#4A7DC9"/>
<path d="M184.566 271.241C184.566 272.628 183.526 273.784 182.139 273.784C180.867 273.784 179.711 272.628 179.827 271.241C179.827 269.854 180.867 268.698 182.254 268.698C183.41 268.698 184.566 269.854 184.566 271.241Z" fill="#4A7DC9"/>
<path d="M191.849 271.241C191.849 272.628 190.809 273.784 189.422 273.784C188.15 273.784 186.994 272.628 187.11 271.241C187.11 269.854 188.15 268.698 189.537 268.698C190.809 268.698 191.849 269.854 191.849 271.241Z" fill="#4A7DC9"/>
<path d="M199.248 271.357C199.248 272.744 198.207 273.9 196.82 273.9C195.548 273.9 194.392 272.744 194.508 271.357C194.508 269.97 195.548 268.814 196.936 268.814C198.207 268.814 199.248 269.854 199.248 271.357Z" fill="#4A7DC9"/>
<path d="M206.646 271.357C206.646 272.744 205.606 273.9 204.218 273.9C202.947 273.9 201.791 272.744 201.906 271.357C201.906 269.97 202.947 268.814 204.334 268.814C205.606 268.814 206.646 269.97 206.646 271.357Z" fill="#4A7DC9"/>
<path d="M213.929 271.357C213.929 272.744 212.888 273.9 211.501 273.9C210.23 273.9 209.074 272.744 209.189 271.357C209.189 269.97 210.23 268.814 211.617 268.814C212.888 268.814 214.044 269.97 213.929 271.357Z" fill="#4A7DC9"/>
<path d="M221.327 271.357C221.327 272.744 220.287 273.9 218.9 273.9C217.628 273.9 216.472 272.744 216.588 271.357C216.588 269.97 217.628 268.814 219.015 268.814C220.287 268.814 221.327 269.97 221.327 271.357Z" fill="#4A7DC9"/>
<path d="M228.726 271.472C228.726 272.86 227.685 274.016 226.298 274.016C225.026 274.016 223.87 272.86 223.986 271.472C223.986 270.085 225.026 268.929 226.414 268.929C227.685 268.929 228.726 270.085 228.726 271.472Z" fill="#4A7DC9"/>
<g opacity="0.2">
<g opacity="0.2">
<path opacity="0.2" d="M169.77 271.126C169.77 272.513 168.729 273.669 167.342 273.669C166.07 273.669 164.914 272.513 165.03 271.126C165.03 269.738 166.07 268.582 167.458 268.582C168.729 268.582 169.77 269.738 169.77 271.126Z" fill="white"/>
</g>
<g opacity="0.2">
<path opacity="0.2" d="M177.168 271.241C177.168 272.628 176.128 273.784 174.74 273.784C173.469 273.784 172.313 272.628 172.428 271.241C172.428 269.854 173.469 268.698 174.856 268.698C176.128 268.698 177.168 269.854 177.168 271.241Z" fill="white"/>
</g>
<g opacity="0.2">
<path opacity="0.2" d="M184.566 271.241C184.566 272.628 183.526 273.784 182.139 273.784C180.867 273.784 179.711 272.628 179.827 271.241C179.827 269.854 180.867 268.698 182.254 268.698C183.41 268.698 184.566 269.854 184.566 271.241Z" fill="white"/>
</g>
<g opacity="0.2">
<path opacity="0.2" d="M191.849 271.241C191.849 272.628 190.809 273.784 189.422 273.784C188.15 273.784 186.994 272.628 187.11 271.241C187.11 269.854 188.15 268.698 189.537 268.698C190.809 268.698 191.849 269.854 191.849 271.241Z" fill="white"/>
</g>
<g opacity="0.2">
<path opacity="0.2" d="M199.248 271.357C199.248 272.744 198.207 273.9 196.82 273.9C195.548 273.9 194.392 272.744 194.508 271.357C194.508 269.97 195.548 268.814 196.936 268.814C198.207 268.814 199.248 269.854 199.248 271.357Z" fill="white"/>
</g>
<g opacity="0.2">
<path opacity="0.2" d="M206.646 271.357C206.646 272.744 205.606 273.9 204.218 273.9C202.947 273.9 201.791 272.744 201.906 271.357C201.906 269.97 202.947 268.814 204.334 268.814C205.606 268.814 206.646 269.97 206.646 271.357Z" fill="white"/>
</g>
<g opacity="0.2">
<path opacity="0.2" d="M213.929 271.357C213.929 272.744 212.888 273.9 211.501 273.9C210.23 273.9 209.074 272.744 209.189 271.357C209.189 269.97 210.23 268.814 211.617 268.814C212.888 268.814 214.044 269.97 213.929 271.357Z" fill="white"/>
</g>
<g opacity="0.2">
<path opacity="0.2" d="M221.327 271.357C221.327 272.744 220.287 273.9 218.9 273.9C217.628 273.9 216.472 272.744 216.588 271.357C216.588 269.97 217.628 268.814 219.015 268.814C220.287 268.814 221.327 269.97 221.327 271.357Z" fill="white"/>
</g>
<g opacity="0.2">
<path opacity="0.2" d="M228.726 271.472C228.726 272.86 227.685 274.016 226.298 274.016C225.026 274.016 223.87 272.86 223.986 271.472C223.986 270.085 225.026 268.929 226.414 268.929C227.685 268.929 228.726 270.085 228.726 271.472Z" fill="white"/>
</g>
</g>
<path d="M218.206 104.546C219.709 103.852 220.865 102.234 220.865 100.384C220.865 97.9568 219.016 95.876 216.704 95.876C214.392 95.876 212.542 97.8412 212.426 100.384C212.426 102.35 213.582 103.968 215.085 104.546C208.612 105.471 208.958 112.522 208.958 112.522L224.218 112.638C224.333 112.638 224.68 105.471 218.206 104.546Z" fill="#4A7DC9"/>
<path opacity="0.1" d="M218.206 104.546C219.709 103.852 220.865 102.234 220.865 100.384C220.865 97.9568 219.016 95.876 216.704 95.876C214.392 95.876 212.542 97.8412 212.426 100.384C212.426 102.35 213.582 103.968 215.085 104.546C208.612 105.471 208.958 112.522 208.958 112.522L224.218 112.638C224.333 112.638 224.68 105.471 218.206 104.546Z" fill="black"/>
<path d="M243.078 117.274L188.515 117.022L188.485 123.496L243.048 123.747L243.078 117.274Z" fill="#4A7DC9"/>
<path opacity="0.2" d="M243.078 117.274L188.515 117.022L188.485 123.496L243.048 123.747L243.078 117.274Z" fill="white"/>
<path d="M42.6102 151.017C42.6102 151.017 42.379 151.017 42.0322 151.133C41.6854 151.133 41.1074 151.248 40.4138 151.248C39.7202 151.248 38.911 151.364 37.8706 151.595C37.4082 151.711 36.8302 151.711 36.2522 151.942C35.6742 152.058 35.0962 152.289 34.5182 152.404C31.975 153.214 28.9694 154.485 25.9638 156.682C22.9582 158.878 19.9526 161.999 17.525 166.045C16.2534 168.01 15.4442 170.322 14.635 172.75C13.9414 175.178 13.3634 177.836 13.3634 180.611C13.2478 181.998 13.3634 183.385 13.479 184.772C13.479 185.466 13.7102 186.16 13.7102 186.853C13.8258 187.547 13.9414 188.24 14.1726 189.05C14.7506 191.94 15.9066 194.714 17.4094 197.488C20.415 202.922 25.3858 207.546 31.5126 210.32C34.6338 211.707 37.9862 212.401 41.4542 212.516C44.9222 212.748 48.5058 212.17 51.8582 211.014L52.8986 210.667H53.0142L53.1298 210.782C58.1006 213.326 62.9558 215.753 67.6954 218.181L67.233 218.528C65.7302 213.672 64.1118 209.048 62.7246 204.54V204.424L62.8402 204.309C66.5394 200.61 69.0826 196.101 70.4698 191.593C71.857 186.969 72.0882 182.345 71.6258 178.068C71.0478 173.79 69.6606 169.86 67.811 166.623C65.9614 163.271 63.6494 160.612 61.2218 158.531C58.7942 156.45 56.251 155.063 54.0546 154.023C51.7426 153.098 49.6618 152.404 48.0434 152.173C47.2342 152.058 46.425 151.942 45.7314 151.826C45.0378 151.826 44.5754 151.711 44.113 151.711C43.6506 151.711 43.3038 151.595 43.0726 151.595C42.7258 151.017 42.6102 151.017 42.6102 151.017C42.6102 151.017 42.7258 151.017 42.957 151.017C43.1882 151.017 43.535 151.017 43.9974 151.017C44.4598 151.017 45.0378 151.017 45.7314 151.133C46.425 151.248 47.1186 151.364 48.0434 151.48C49.7774 151.826 51.8582 152.404 54.1702 153.329C56.4822 154.37 59.0254 155.757 61.453 157.838C63.8806 159.918 66.3082 162.577 68.1578 165.93C70.123 169.282 71.5102 173.212 72.0882 177.605C72.6662 181.998 72.435 186.738 71.0478 191.362C69.6606 195.986 67.0018 200.61 63.3026 204.309L63.4182 203.962C64.921 208.47 66.4238 213.094 67.9266 217.95L68.1578 218.643L67.4642 218.296C62.7246 215.869 57.8694 213.441 52.8986 210.898H53.1298L52.0894 211.245C48.6214 212.401 45.0378 212.979 41.4542 212.748C37.8706 212.632 34.4026 211.823 31.2814 210.436C25.039 207.661 19.9526 202.922 16.947 197.373C15.4442 194.598 14.2882 191.708 13.7102 188.818C13.479 188.125 13.3634 187.316 13.2478 186.622C13.1322 185.928 13.0166 185.235 13.0166 184.426C13.0166 183.038 12.7854 181.536 12.901 180.148C12.901 177.374 13.5946 174.715 14.2882 172.172C15.0974 169.744 16.0222 167.432 17.2938 165.352C19.7214 161.306 22.8426 158.069 25.8482 155.988C28.9694 153.792 31.975 152.52 34.5182 151.826C35.2118 151.711 35.7898 151.48 36.3678 151.364C36.9458 151.248 37.5238 151.133 37.9862 151.133C39.0266 151.017 39.8358 150.786 40.5294 150.902C41.223 150.902 41.6854 150.902 42.1478 150.902C42.379 151.017 42.6102 151.017 42.6102 151.017Z" fill="#1FC7A2"/>
<path d="M49.1993 177.952H47.1185L42.4945 171.478V167.201C42.4945 167.201 39.1421 166.97 39.6045 172.634C39.9513 178.183 39.6045 176.796 39.6045 176.796C39.6045 176.796 32.5529 176.796 31.9749 177.49C31.5125 177.952 31.3969 184.888 31.2812 188.703C31.2812 190.552 32.4373 192.402 34.1713 192.864C34.4025 192.98 34.6337 192.98 34.9805 192.98C36.7145 192.98 45.6157 191.593 45.6157 191.593H49.3149V177.952H49.1993Z" fill="#1FC7A2"/>
<path d="M55.3263 176.796L53.9391 191.477H50.3555V177.143L55.3263 176.796Z" fill="#1FC7A2"/>
<path d="M98.7917 474.235V464.293L81.1049 464.177L80.9893 479.09L82.1453 479.206C87.0005 479.552 106.999 480.015 110.352 478.974C113.935 477.934 98.7917 474.235 98.7917 474.235Z" fill="#4A7DC9"/>
<path d="M110.699 478.165C110.699 478.281 104.109 478.512 95.9018 478.512C87.6942 478.512 81.105 478.396 81.105 478.165C81.105 478.05 87.6942 477.818 95.9018 477.818C103.994 477.818 110.699 477.934 110.699 478.165Z" fill="#263238"/>
<path d="M99.1386 476.316C99.023 476.2 99.1386 475.738 99.4854 475.16C99.8322 474.697 100.295 474.35 100.41 474.466C100.526 474.581 100.295 475.044 99.9478 475.506C99.601 475.969 99.2542 476.431 99.1386 476.316Z" fill="#263238"/>
<path d="M100.295 477.009C100.179 477.009 100.179 476.316 100.526 475.738C100.873 475.16 101.335 474.697 101.451 474.813C101.566 474.928 101.335 475.391 100.988 475.969C100.757 476.547 100.41 477.009 100.295 477.009Z" fill="#263238"/>
<path d="M86.4223 478.05C86.3067 478.05 86.0755 477.818 85.7287 477.356C85.3819 476.894 84.8039 476.316 84.2259 475.853C83.5323 475.391 82.8387 475.044 82.2607 475.044C81.6827 474.928 81.3359 475.044 81.3359 474.928C81.3359 474.813 81.6827 474.582 82.2607 474.582C82.8387 474.582 83.7635 474.813 84.5727 475.391C85.2663 475.969 85.8443 476.662 86.0755 477.125C86.3067 477.703 86.4223 478.05 86.4223 478.05Z" fill="#263238"/>
<path d="M99.254 474.466C99.3696 474.582 99.0228 474.928 98.5604 475.16C98.098 475.391 97.6356 475.275 97.52 475.16C97.52 475.044 97.8668 474.813 98.3292 474.582C98.676 474.35 99.1384 474.35 99.254 474.466Z" fill="#263238"/>
<path d="M98.9075 473.541C98.9075 473.657 98.4451 473.888 97.8671 473.888C97.2891 473.888 96.8267 473.772 96.8267 473.657C96.8267 473.541 97.2891 473.31 97.8671 473.31C98.4451 473.194 98.9075 473.31 98.9075 473.541Z" fill="#263238"/>
<path d="M142.488 474.235V464.293L124.802 464.177L124.686 478.974L125.842 479.09C130.697 479.437 150.696 480.015 154.048 478.974C157.516 477.934 142.488 474.235 142.488 474.235Z" fill="#4A7DC9"/>
<path d="M154.28 478.165C154.28 478.281 147.69 478.512 139.483 478.512C131.275 478.512 124.686 478.396 124.686 478.165C124.686 478.05 131.275 477.818 139.483 477.818C147.69 477.818 154.28 477.934 154.28 478.165Z" fill="#263238"/>
<path d="M142.835 476.316C142.72 476.2 142.835 475.738 143.182 475.16C143.529 474.697 143.991 474.35 144.107 474.466C144.223 474.581 143.991 475.044 143.645 475.506C143.298 475.969 142.951 476.431 142.835 476.316Z" fill="#263238"/>
<path d="M143.876 477.009C143.76 477.009 143.76 476.316 144.107 475.738C144.454 475.16 144.916 474.697 145.032 474.813C145.147 474.928 144.916 475.391 144.569 475.969C144.454 476.547 144.107 477.009 143.876 477.009Z" fill="#263238"/>
<path d="M130.004 478.05C129.888 478.05 129.657 477.818 129.31 477.356C128.963 476.894 128.385 476.316 127.807 475.853C127.114 475.391 126.42 475.044 125.842 475.044C125.264 474.928 124.917 475.044 124.917 474.928C124.917 474.813 125.264 474.582 125.842 474.582C126.42 474.582 127.345 474.813 128.154 475.391C128.848 475.969 129.426 476.662 129.657 477.125C130.004 477.703 130.12 478.05 130.004 478.05Z" fill="#263238"/>
<path d="M142.835 474.466C142.951 474.582 142.604 474.928 142.141 475.16C141.679 475.391 141.217 475.275 141.101 475.16C141.101 475.044 141.448 474.813 141.91 474.582C142.373 474.35 142.719 474.35 142.835 474.466Z" fill="#263238"/>
<path d="M142.604 473.541C142.604 473.657 142.142 473.888 141.564 473.888C140.986 473.888 140.523 473.772 140.523 473.657C140.523 473.541 140.986 473.31 141.564 473.31C142.142 473.194 142.604 473.31 142.604 473.541Z" fill="#263238"/>
<path d="M207.802 180.726C207.34 180.264 206.184 180.495 206.184 180.495C206.184 180.495 206.415 179.108 206.184 178.53C205.953 177.836 204.566 177.952 204.566 177.952C204.566 177.952 204.45 177.374 204.566 176.334C204.566 176.102 204.45 175.871 204.219 175.756C203.525 175.293 202.022 175.409 202.022 175.409C201.098 174.715 204.797 169.744 206.068 168.126C207.34 166.508 207.224 165.236 205.953 165.236C205.144 165.236 200.866 170.091 199.595 171.71C198.323 173.328 194.855 177.836 194.74 174.253C194.624 170.669 193.121 167.895 192.312 167.432C191.387 166.97 190.463 168.01 190.925 169.051C191.387 169.86 191.618 171.478 191.734 172.634C191.85 173.559 191.85 174.6 191.618 175.524C191.04 178.183 190.347 180.033 190.116 180.726H190C190 180.726 164.799 204.887 162.95 206.621C161.331 208.124 128.501 204.771 121.912 204.078C120.062 203.846 117.403 203.5 115.207 203.615C112.317 203.731 111.854 204.193 108.964 204.193C100.179 204.309 93.0117 205.118 87.5785 206.043C80.9893 207.199 75.6717 211.823 73.5909 218.181C67.0017 238.873 51.9737 287.888 49.3149 315.4C47.2341 319.331 44.8065 323.955 43.8817 326.614C42.0321 331.7 42.4945 331.816 43.0725 331.931C44.8065 332.278 46.6561 323.146 47.3497 325.342C48.0433 327.538 43.6505 336.208 45.5001 336.44C47.8121 336.786 49.6617 327.192 49.8929 326.382C50.1241 325.573 51.2801 325.92 51.0489 326.614C50.7021 327.654 47.4653 338.405 49.7773 338.752C51.0489 338.983 51.1645 336.671 51.1645 336.671C51.1645 336.671 53.4765 326.382 54.5169 326.498C55.5573 326.729 54.4013 332.856 53.9389 334.821C53.3609 336.786 54.1701 337.942 55.2105 337.364C55.9041 337.018 57.7537 330.891 58.2161 328.81C58.6785 326.845 59.9501 321.18 61.5685 324.417C63.1869 327.654 65.6145 329.504 66.6549 329.504C67.6953 329.504 68.1577 328.116 67.2329 327.423C66.5393 326.845 65.6145 325.573 65.0365 324.533C64.5741 323.724 64.1117 322.799 63.8805 321.874C63.0713 318.175 63.0713 315.978 63.0713 315.978L62.8401 314.822C65.3833 301.991 72.8973 264.421 83.6481 240.376L88.0409 249.508L90.0061 256.213L78.2149 285.229L128.385 284.535L120.871 255.751L130.004 225.695C139.83 225.926 165.146 226.273 169.308 224.423C174.625 222.111 202.022 187.547 202.022 187.547C203.872 186.044 205.722 184.541 207.109 183.154C207.109 183.154 208.727 181.767 207.802 180.726Z" fill="#FFBE9D"/>
<path d="M76.0183 263.958C77.5211 258.988 84.9196 234.365 84.9196 234.365C84.9196 234.365 88.6187 254.364 87.5783 256.791C86.4223 259.566 84.4571 262.802 84.4571 262.802C76.0183 275.75 77.0588 282.223 77.0588 282.223L128.27 280.605C128.385 273.438 124.108 256.791 123.299 254.132C122.374 251.474 125.38 242.804 125.38 242.804C125.38 242.804 131.16 236.908 130.928 233.902C130.466 227.776 129.888 225.81 129.888 225.81L161.1 226.966L160.175 205.812L115.322 201.303C113.82 205.696 99.6007 203.5 99.6007 203.5C84.3416 203.962 83.4168 206.852 77.0588 211.707C70.7008 216.678 60.1812 258.872 60.1812 258.872L76.0183 263.958Z" fill="#4A7DC9"/>
<path d="M106.305 258.988C106.305 259.103 105.265 259.103 103.647 259.103C102.028 259.103 99.7161 258.988 97.1729 258.756C94.6297 258.525 92.3177 258.178 90.6993 257.832C89.0809 257.485 88.0405 257.254 88.0405 257.138C88.0405 257.022 89.0809 257.138 90.6993 257.369C92.3177 257.6 94.6297 257.832 97.1729 258.178C99.7161 258.41 102.028 258.641 103.647 258.756C105.265 258.756 106.305 258.872 106.305 258.988Z" fill="#263238"/>
<path d="M109.889 254.595C109.889 254.71 108.849 255.057 107.115 255.52C105.381 255.982 102.837 256.56 100.063 256.907C97.2886 257.254 94.7455 257.254 92.8959 257.254C91.0463 257.254 90.0059 257.022 90.0059 257.022C90.0059 256.907 91.1619 256.907 92.8959 256.907C94.7455 256.907 97.1731 256.676 99.9475 256.444C102.722 256.098 105.149 255.635 106.883 255.288C108.733 254.71 109.773 254.479 109.889 254.595Z" fill="#263238"/>
<path d="M127.113 235.174C127.229 235.174 127.113 236.214 126.767 237.833C126.42 239.451 125.957 241.648 125.379 244.075C124.801 246.503 124.223 248.699 123.761 250.202C123.299 251.705 122.952 252.745 122.836 252.63C122.721 252.63 122.952 251.589 123.299 250.086C123.761 248.237 124.223 246.156 124.801 243.96C125.379 241.648 125.842 239.567 126.304 237.833C126.767 236.099 126.998 235.174 127.113 235.174Z" fill="#263238"/>
<path d="M76.5962 260.953C76.5962 261.068 73.0127 260.259 68.7355 259.103C64.4582 257.947 60.9902 256.791 60.9902 256.676C60.9902 256.56 64.5738 257.369 68.851 258.525C73.1282 259.797 76.5962 260.837 76.5962 260.953Z" fill="#263238"/>
<path d="M130.582 225.464C130.582 225.464 130.119 225.579 129.31 225.464C128.501 225.348 127.229 225.232 125.842 224.654C124.455 224.076 122.721 223.267 121.218 221.88C119.715 220.493 118.328 218.643 117.403 216.447C116.479 214.25 116.247 211.938 116.363 209.973C116.479 207.892 117.057 206.158 117.981 204.771C118.906 203.5 120.062 202.806 120.871 202.575C121.334 202.459 121.681 202.459 121.912 202.459C122.143 202.459 122.259 202.459 122.259 202.459C122.259 202.459 121.796 202.459 120.987 202.806C120.178 203.037 119.137 203.731 118.328 205.002C116.71 207.43 116.363 211.938 117.981 216.216C118.791 218.296 120.062 220.146 121.565 221.418C123.068 222.805 124.571 223.614 125.958 224.192C128.617 225.464 130.582 225.348 130.582 225.464Z" fill="#263238"/>
<path d="M157.516 226.504C157.401 226.504 157.169 221.764 157.285 215.869C157.285 209.973 157.401 205.234 157.632 205.234C157.747 205.234 157.979 209.973 157.863 215.869C157.863 221.764 157.632 226.504 157.516 226.504Z" fill="#263238"/>
<path d="M115.091 202.575C115.207 200.032 115.438 197.026 115.438 197.026C115.438 197.026 121.796 196.332 122.259 189.743C122.605 183.154 122.259 168.01 122.259 168.01L110.583 162.115L97.7515 172.172L99.7167 205.118L111.508 205.812C113.357 205.927 114.976 204.54 115.091 202.575Z" fill="#FFBE9D"/>
<path d="M116.248 184.541C116.248 184.541 116.248 184.657 116.132 184.772C116.016 184.888 115.785 185.119 115.438 185.119C114.745 185.119 113.936 184.31 113.704 183.27C113.589 182.807 113.589 182.229 113.704 181.767C113.82 181.304 114.051 180.842 114.398 180.726C114.514 180.611 114.745 180.726 114.86 180.726C114.976 180.842 115.092 180.842 115.092 180.958C115.207 181.189 115.092 181.304 115.092 181.304C115.092 181.304 115.092 181.189 114.976 181.073C114.86 180.958 114.629 180.842 114.398 180.958C114.167 181.073 113.936 181.42 113.936 181.767C113.82 182.114 113.82 182.576 113.936 183.038C114.167 183.963 114.745 184.657 115.323 184.772C115.554 184.772 115.785 184.657 115.901 184.657C116.132 184.657 116.248 184.541 116.248 184.541Z" fill="#EB996E"/>
<path d="M126.189 164.427C125.264 161.421 122.027 159.918 119.137 159.109C114.629 157.838 109.774 157.26 105.496 158.878C101.104 160.496 95.9017 163.271 95.9017 168.126C93.3585 167.895 91.8557 170.207 90.8153 172.981C90.2373 174.6 89.7749 176.449 89.7749 178.299C89.4281 184.657 87.6941 193.327 83.5325 197.951C81.2205 200.494 77.9837 202.344 76.7121 205.58C75.5561 208.355 76.1341 211.707 75.0937 214.482C74.1689 217.025 71.9725 218.759 70.4697 220.955C67.1173 225.695 66.8861 232.284 69.3137 237.602C71.7413 242.919 76.5965 246.734 81.9141 248.468C87.2317 250.202 93.1273 250.086 98.5605 248.584C102.606 247.543 106.537 245.809 109.658 243.035C112.895 240.26 115.322 236.446 116.016 232.284C116.825 227.544 115.554 222.805 114.513 218.065C111.392 203.268 112.317 202.459 116.247 188.703C116.363 188.472 116.363 188.24 116.478 188.009C116.478 187.778 116.594 187.662 116.594 187.431C116.71 186.853 116.825 186.391 116.825 185.813C115.669 186.275 114.398 185.928 113.473 185.119C112.664 184.194 112.317 182.807 112.664 181.651C113.126 180.264 114.398 179.339 115.669 178.877C116.941 178.414 118.328 178.068 119.6 177.49C122.258 176.218 124.108 173.559 125.38 170.785C126.189 168.704 126.767 166.508 126.189 164.427Z" fill="#263238"/>
<path d="M116.71 184.888C116.71 184.888 116.941 185.35 117.288 186.044C117.635 186.738 118.097 187.778 118.559 188.934L118.675 189.165H118.444C118.097 189.165 117.635 189.281 117.288 189.281C116.479 189.281 115.785 189.396 114.976 189.396C114.86 189.396 114.745 189.281 114.629 189.165C114.629 189.05 114.629 188.934 114.629 188.818C114.629 188.587 114.744 188.472 114.744 188.356L114.976 187.547C115.207 186.506 115.438 185.928 115.438 185.928C115.438 185.928 115.438 186.622 115.207 187.547L115.091 188.356C114.976 188.587 114.976 189.05 115.091 189.05C115.669 189.05 116.479 188.934 117.288 188.818C117.635 188.818 118.097 188.703 118.444 188.703L118.328 188.934C117.866 187.778 117.403 186.738 117.172 185.928C116.825 185.35 116.71 184.888 116.71 184.888Z" fill="#4A7DC9"/>
<path d="M77.1743 282.223L128.385 280.605L150.696 367.652L146.534 467.53H119.484L122.836 369.732L102.953 309.158L105.959 471.46L78.5616 471.807L75.6716 319.331C75.556 315.054 74.1687 305.574 74.6311 301.297L77.1743 282.223Z" fill="#263238"/>
<path d="M109.774 310.43C109.774 310.545 108.849 310.429 107.23 310.314C105.612 310.198 103.531 309.852 101.219 309.389C98.9072 308.927 96.8264 308.349 95.3236 308.002C93.8208 307.655 92.896 307.193 92.896 307.193C92.896 307.077 96.7108 307.886 101.335 308.811C106.074 309.62 109.774 310.314 109.774 310.43Z" fill="#455A64"/>
<path d="M146.303 462.097C146.303 462.212 140.177 462.444 132.547 462.444C124.917 462.444 118.791 462.328 118.791 462.097C118.791 461.981 124.917 461.75 132.547 461.75C140.177 461.866 146.303 461.981 146.303 462.097Z" fill="#455A64"/>
<path d="M105.728 467.299C105.728 467.414 99.7164 467.646 92.4336 467.646C85.0352 467.646 79.1396 467.53 79.1396 467.299C79.1396 467.183 85.1508 466.952 92.4336 466.952C99.832 466.952 105.728 467.067 105.728 467.299Z" fill="#455A64"/>
<path d="M102.26 466.836C102.144 466.836 101.335 431.347 100.641 387.65C99.9475 343.954 99.4851 308.464 99.6007 308.464C99.7163 308.464 100.526 343.954 101.219 387.65C101.913 431.347 102.375 466.836 102.26 466.836Z" fill="#455A64"/>
<path d="M142.72 462.097C142.72 462.097 142.72 461.981 142.72 461.634C142.72 461.288 142.72 460.825 142.72 460.247C142.72 458.976 142.835 457.242 142.835 454.93C142.951 450.306 143.182 443.601 143.529 435.393C144.107 418.862 145.032 395.974 145.956 370.888C145.956 370.657 145.956 370.426 145.956 370.195V370.31C139.83 346.034 134.396 323.955 130.466 308.002C128.501 300.026 126.882 293.668 125.842 289.159C125.264 286.963 124.917 285.229 124.57 284.073C124.455 283.495 124.339 283.032 124.224 282.686C124.108 282.339 124.108 282.223 124.108 282.223C124.108 282.223 124.224 282.339 124.224 282.686C124.339 283.032 124.455 283.495 124.57 283.957C124.917 285.113 125.38 286.847 125.958 289.044C127.114 293.552 128.732 299.91 130.813 307.886C134.859 323.839 140.408 345.803 146.534 370.079C146.534 370.31 146.534 370.542 146.534 370.773C145.494 395.974 144.569 418.747 143.876 435.278C143.529 443.485 143.182 450.19 142.951 454.814C142.835 457.126 142.72 458.86 142.72 460.132C142.72 460.71 142.604 461.172 142.604 461.519C142.72 461.981 142.72 462.097 142.72 462.097Z" fill="#455A64"/>
<path d="M133.819 368.114C133.819 368.23 131.16 368.923 127.807 369.501C125.264 369.964 123.183 370.195 122.259 370.31V370.079C122.605 370.195 122.721 370.195 122.721 370.31C122.721 370.31 122.49 370.31 122.259 370.31H121.565L122.259 370.079C123.183 369.848 125.264 369.386 127.807 368.923C131.044 368.23 133.819 367.998 133.819 368.114Z" fill="#455A64"/>
<path d="M133.356 371.466C133.356 371.582 130.928 371.466 127.923 371.235C124.917 371.004 122.605 370.773 122.605 370.657C122.605 370.542 125.033 370.426 128.038 370.657C130.928 370.773 133.356 371.235 133.356 371.466Z" fill="#455A64"/>
<path opacity="0.2" d="M76.9434 284.073C78.215 285.807 79.949 286.385 82.0298 286.732C84.1106 287.078 86.1914 286.847 88.2722 286.616C101.451 285.113 115.554 283.842 128.501 280.605C111.739 281.53 94.0522 281.183 77.2902 282.223C77.2902 282.223 77.1746 283.379 77.059 283.61" fill="black"/>
<g opacity="0.2">
<path opacity="0.2" d="M94.1675 307.655L103.647 344.3L102.953 309.274L94.1675 307.655Z" fill="black"/>
</g>
</svg>
