<svg width="50" height="50" viewBox="0 0 50 50" fill="none" xmlns="http://www.w3.org/2000/svg">
<path d="M44.3398 17.2412L31.9423 15.4395L26.4003 4.20412C26.2489 3.8965 25.9999 3.64748 25.6923 3.49611C24.9208 3.11525 23.9833 3.43264 23.5976 4.20412L18.0556 15.4395L5.65813 17.2412C5.31633 17.2901 5.00383 17.4512 4.76457 17.6953C4.47532 17.9926 4.31593 18.3926 4.32143 18.8074C4.32692 19.2221 4.49685 19.6177 4.79387 19.9072L13.7636 28.6524L11.6445 41.001C11.5948 41.2883 11.6265 41.5837 11.7362 41.8538C11.8459 42.1239 12.029 42.3579 12.2649 42.5292C12.5008 42.7005 12.7799 42.8023 13.0707 42.823C13.3615 42.8438 13.6523 42.7826 13.9101 42.6465L24.9989 36.8164L36.0878 42.6465C36.3905 42.8076 36.7421 42.8613 37.079 42.8028C37.9286 42.6563 38.4999 41.8506 38.3534 41.001L36.2343 28.6524L45.204 19.9072C45.4482 19.668 45.6093 19.3555 45.6581 19.0137C45.79 18.1592 45.1943 17.3682 44.3398 17.2412Z" fill="white"/>
</svg>
