<svg width="92" height="92" viewBox="0 0 92 92" fill="none" xmlns="http://www.w3.org/2000/svg">
<path fill-rule="evenodd" clip-rule="evenodd" d="M46.0008 0.16748C20.6883 0.16748 0.16748 20.6883 0.16748 46.0008C0.16748 71.3133 20.6883 91.8341 46.0008 91.8341C71.3133 91.8341 91.8341 71.3133 91.8341 46.0008C91.8341 20.6883 71.3133 0.16748 46.0008 0.16748ZM65.8675 38.2508C66.2333 37.8327 66.5118 37.3456 66.6866 36.8182C66.8614 36.2908 66.9289 35.7338 66.8853 35.1799C66.8416 34.626 66.6876 34.0865 66.4324 33.593C66.1771 33.0995 65.8257 32.6621 65.3989 32.3064C64.9721 31.9507 64.4785 31.684 63.9471 31.5219C63.4156 31.3598 62.8572 31.3057 62.3045 31.3626C61.7518 31.4195 61.2161 31.5864 60.7289 31.8535C60.2417 32.1205 59.8128 32.4822 59.4675 32.9175L41.5508 54.4133L32.28 45.1383C31.4941 44.3793 30.4416 43.9593 29.3491 43.9688C28.2567 43.9783 27.2116 44.4165 26.4391 45.1891C25.6665 45.9616 25.2283 47.0067 25.2188 48.0991C25.2093 49.1916 25.6293 50.2441 26.3883 51.03L38.8883 63.53C39.2977 63.9391 39.7879 64.2585 40.3275 64.4677C40.8672 64.677 41.4446 64.7714 42.0228 64.7452C42.601 64.7189 43.1674 64.5725 43.6859 64.3152C44.2043 64.0579 44.6635 63.6954 45.0341 63.2508L65.8675 38.2508Z" fill="#1FC7A2"/>
</svg>
