<svg width="100" height="100" viewBox="0 0 100 100" fill="none" xmlns="http://www.w3.org/2000/svg">
<path fill-rule="evenodd" clip-rule="evenodd" d="M50 0C45.6875 0 38.4813 1.65625 31.7 3.5C24.7625 5.375 17.7688 7.59375 13.6563 8.9375C11.9369 9.50532 10.4125 10.5467 9.25826 11.9419C8.10405 13.3371 7.36683 15.0296 7.13128 16.825C3.40628 44.8063 12.05 65.5438 22.5375 79.2625C26.9849 85.131 32.2877 90.299 38.2688 94.5938C40.6813 96.3 42.9188 97.6063 44.8188 98.5C46.5688 99.325 48.45 100 50 100C51.55 100 53.425 99.325 55.1813 98.5C57.4718 97.3867 59.6631 96.0799 61.7313 94.5938C67.7125 90.2991 73.0153 85.1311 77.4625 79.2625C87.95 65.5438 96.5938 44.8063 92.8688 16.825C92.6336 15.0288 91.8966 13.3353 90.7425 11.939C89.5883 10.5427 88.0637 9.50019 86.3438 8.93125C80.3738 6.97383 74.3575 5.16081 68.3 3.49375C61.5188 1.6625 54.3125 0 50 0ZM63.4125 32.1625C63.9993 31.5757 64.7952 31.2461 65.625 31.2461C66.4549 31.2461 67.2507 31.5757 67.8375 32.1625C68.4243 32.7493 68.754 33.5452 68.754 34.375C68.754 35.2048 68.4243 36.0007 67.8375 36.5875L49.0875 55.3375C48.7972 55.6285 48.4524 55.8594 48.0727 56.017C47.6931 56.1745 47.2861 56.2556 46.875 56.2556C46.464 56.2556 46.057 56.1745 45.6773 56.017C45.2977 55.8594 44.9528 55.6285 44.6625 55.3375L35.2875 45.9625C34.997 45.672 34.7665 45.327 34.6093 44.9474C34.452 44.5678 34.3711 44.1609 34.3711 43.75C34.3711 43.3391 34.452 42.9322 34.6093 42.5526C34.7665 42.173 34.997 41.828 35.2875 41.5375C35.5781 41.2469 35.923 41.0165 36.3026 40.8592C36.6823 40.702 37.0891 40.6211 37.5 40.6211C37.9109 40.6211 38.3178 40.702 38.6974 40.8592C39.0771 41.0165 39.422 41.2469 39.7125 41.5375L46.875 48.7063L63.4125 32.1625Z" fill="#1FC7A2"/>
</svg>
