<svg width="55" height="18" viewBox="0 0 55 18" fill="none" xmlns="http://www.w3.org/2000/svg">
<path d="M2.29134 3.60002C2.54447 3.60002 2.74968 3.33139 2.74968 3.00002C2.74968 2.66865 2.54447 2.40002 2.29134 2.40002C2.03821 2.40002 1.83301 2.66865 1.83301 3.00002C1.83301 3.33139 2.03821 3.60002 2.29134 3.60002Z" fill="#F52E2E" fill-opacity="0.1"/>
<path d="M4.58333 4.40886C4.83646 4.40886 5.04167 4.14023 5.04167 3.80886C5.04167 3.47749 4.83646 3.20886 4.58333 3.20886C4.3302 3.20886 4.125 3.47749 4.125 3.80886C4.125 4.14023 4.3302 4.40886 4.58333 4.40886Z" fill="#F52E2E" fill-opacity="0.1"/>
<path d="M6.87435 5.27507C7.12748 5.27507 7.33268 5.00644 7.33268 4.67507C7.33268 4.3437 7.12748 4.07507 6.87435 4.07507C6.62122 4.07507 6.41602 4.3437 6.41602 4.67507C6.41602 5.00644 6.62122 5.27507 6.87435 5.27507Z" fill="#F52E2E" fill-opacity="0.1"/>
<path d="M9.16634 6.17302C9.41947 6.17302 9.62467 5.90439 9.62467 5.57302C9.62467 5.24165 9.41947 4.97302 9.16634 4.97302C8.91321 4.97302 8.70801 5.24165 8.70801 5.57302C8.70801 5.90439 8.91321 6.17302 9.16634 6.17302Z" fill="#F52E2E" fill-opacity="0.1"/>
<path d="M11.4583 6.05071C11.7115 6.05071 11.9167 5.78208 11.9167 5.45071C11.9167 5.11934 11.7115 4.85071 11.4583 4.85071C11.2052 4.85071 11 5.11934 11 5.45071C11 5.78208 11.2052 6.05071 11.4583 6.05071Z" fill="#F52E2E" fill-opacity="0.1"/>
<path d="M13.7493 5.94658C14.0025 5.94658 14.2077 5.67795 14.2077 5.34658C14.2077 5.01521 14.0025 4.74658 13.7493 4.74658C13.4962 4.74658 13.291 5.01521 13.291 5.34658C13.291 5.67795 13.4962 5.94658 13.7493 5.94658Z" fill="#F52E2E" fill-opacity="0.1"/>
<path d="M16.0413 5.91802C16.2945 5.91802 16.4997 5.64939 16.4997 5.31802C16.4997 4.98665 16.2945 4.71802 16.0413 4.71802C15.7882 4.71802 15.583 4.98665 15.583 5.31802C15.583 5.64939 15.7882 5.91802 16.0413 5.91802Z" fill="#F52E2E" fill-opacity="0.1"/>
<path d="M18.3333 14.4516C18.5865 14.4516 18.7917 14.183 18.7917 13.8516C18.7917 13.5202 18.5865 13.2516 18.3333 13.2516C18.0802 13.2516 17.875 13.5202 17.875 13.8516C17.875 14.183 18.0802 14.4516 18.3333 14.4516Z" fill="#F52E2E" fill-opacity="0.1"/>
<path d="M20.6243 11.8318C20.8775 11.8318 21.0827 11.5632 21.0827 11.2318C21.0827 10.9005 20.8775 10.6318 20.6243 10.6318C20.3712 10.6318 20.166 10.9005 20.166 11.2318C20.166 11.5632 20.3712 11.8318 20.6243 11.8318Z" fill="#F52E2E" fill-opacity="0.1"/>
<path d="M22.9163 11.7776C23.1695 11.7776 23.3747 11.509 23.3747 11.1776C23.3747 10.8463 23.1695 10.5776 22.9163 10.5776C22.6632 10.5776 22.458 10.8463 22.458 11.1776C22.458 11.509 22.6632 11.7776 22.9163 11.7776Z" fill="#F52E2E" fill-opacity="0.1"/>
<path d="M25.2083 15.6C25.4615 15.6 25.6667 15.3314 25.6667 15C25.6667 14.6687 25.4615 14.4 25.2083 14.4C24.9552 14.4 24.75 14.6687 24.75 15C24.75 15.3314 24.9552 15.6 25.2083 15.6Z" fill="#F52E2E" fill-opacity="0.1"/>
<path d="M27.4993 13.2188C27.7525 13.2188 27.9577 12.9502 27.9577 12.6188C27.9577 12.2874 27.7525 12.0188 27.4993 12.0188C27.2462 12.0188 27.041 12.2874 27.041 12.6188C27.041 12.9502 27.2462 13.2188 27.4993 13.2188Z" fill="#F52E2E" fill-opacity="0.1"/>
<path d="M29.7913 12.1941C30.0445 12.1941 30.2497 11.9255 30.2497 11.5941C30.2497 11.2628 30.0445 10.9941 29.7913 10.9941C29.5382 10.9941 29.333 11.2628 29.333 11.5941C29.333 11.9255 29.5382 12.1941 29.7913 12.1941Z" fill="#F52E2E" fill-opacity="0.1"/>
<path d="M32.0833 12.3918C32.3365 12.3918 32.5417 12.1231 32.5417 11.7918C32.5417 11.4604 32.3365 11.1918 32.0833 11.1918C31.8302 11.1918 31.625 11.4604 31.625 11.7918C31.625 12.1231 31.8302 12.3918 32.0833 12.3918Z" fill="#F52E2E" fill-opacity="0.1"/>
<path d="M34.3744 10.5402C34.6275 10.5402 34.8327 10.2716 34.8327 9.94021C34.8327 9.60884 34.6275 9.34021 34.3744 9.34021C34.1212 9.34021 33.916 9.60884 33.916 9.94021C33.916 10.2716 34.1212 10.5402 34.3744 10.5402Z" fill="#F52E2E" fill-opacity="0.1"/>
<path d="M36.6663 11.2177C36.9195 11.2177 37.1247 10.9491 37.1247 10.6177C37.1247 10.2863 36.9195 10.0177 36.6663 10.0177C36.4132 10.0177 36.208 10.2863 36.208 10.6177C36.208 10.9491 36.4132 11.2177 36.6663 11.2177Z" fill="#F52E2E" fill-opacity="0.1"/>
<path d="M38.9583 12.8731C39.2115 12.8731 39.4167 12.6045 39.4167 12.2731C39.4167 11.9417 39.2115 11.6731 38.9583 11.6731C38.7052 11.6731 38.5 11.9417 38.5 12.2731C38.5 12.6045 38.7052 12.8731 38.9583 12.8731Z" fill="#F52E2E" fill-opacity="0.1"/>
<path d="M41.2493 11.939C41.5025 11.939 41.7077 11.6704 41.7077 11.339C41.7077 11.0076 41.5025 10.739 41.2493 10.739C40.9962 10.739 40.791 11.0076 40.791 11.339C40.791 11.6704 40.9962 11.939 41.2493 11.939Z" fill="#F52E2E" fill-opacity="0.1"/>
<path d="M43.5413 11.1558C43.7945 11.1558 43.9997 10.8872 43.9997 10.5558C43.9997 10.2244 43.7945 9.95581 43.5413 9.95581C43.2882 9.95581 43.083 10.2244 43.083 10.5558C43.083 10.8872 43.2882 11.1558 43.5413 11.1558Z" fill="#F52E2E" fill-opacity="0.1"/>
<path d="M45.8333 11.4939C46.0865 11.4939 46.2917 11.2253 46.2917 10.8939C46.2917 10.5626 46.0865 10.2939 45.8333 10.2939C45.5802 10.2939 45.375 10.5626 45.375 10.8939C45.375 11.2253 45.5802 11.4939 45.8333 11.4939Z" fill="#F52E2E" fill-opacity="0.1"/>
<path d="M48.1244 12.4778C48.3775 12.4778 48.5827 12.2092 48.5827 11.8778C48.5827 11.5465 48.3775 11.2778 48.1244 11.2778C47.8712 11.2778 47.666 11.5465 47.666 11.8778C47.666 12.2092 47.8712 12.4778 48.1244 12.4778Z" fill="#F52E2E" fill-opacity="0.1"/>
<path d="M50.4163 12.8007C50.6695 12.8007 50.8747 12.5321 50.8747 12.2007C50.8747 11.8693 50.6695 11.6007 50.4163 11.6007C50.1632 11.6007 49.958 11.8693 49.958 12.2007C49.958 12.5321 50.1632 12.8007 50.4163 12.8007Z" fill="#F52E2E" fill-opacity="0.1"/>
<path d="M52.7083 11.9119C52.9615 11.9119 53.1667 11.6433 53.1667 11.3119C53.1667 10.9805 52.9615 10.7119 52.7083 10.7119C52.4552 10.7119 52.25 10.9805 52.25 11.3119C52.25 11.6433 52.4552 11.9119 52.7083 11.9119Z" fill="#F52E2E" fill-opacity="0.1"/>
<path d="M2.29102 3L4.58268 3.80885L6.87435 4.67505L9.16601 5.57294L11.4577 5.4507L13.7493 5.34658L16.041 5.31791L18.3327 13.8516L20.6243 11.2319L22.916 11.1776L25.2077 15L27.4993 12.6187L29.791 11.5941L32.0827 11.7917L34.3743 9.94014L36.666 10.6177L38.9577 12.2731L41.2493 11.339L43.541 10.5558L45.8327 10.8939L48.1243 11.8778L50.416 12.2007L52.7077 11.3119V15H2.29102V3Z" fill="#F52E2E" fill-opacity="0.1"/>
<path d="M2.29102 3L4.58268 3.80885L6.87435 4.67505L9.16601 5.57294L11.4577 5.4507L13.7493 5.34658L16.041 5.31791L18.3327 13.8516L20.6243 11.2319L22.916 11.1776L25.2077 15L27.4993 12.6187L29.791 11.5941L32.0827 11.7918L34.3743 9.94014L36.666 10.6177L38.9577 12.2731L41.2493 11.339L43.541 10.5558L45.8327 10.8939L48.1243 11.8778L50.416 12.2007L52.7077 11.3119" stroke="#F52E2E" stroke-width="2" stroke-linecap="round" stroke-linejoin="round"/>
</svg>
