<svg width="24" height="24" viewBox="0 0 24 24" fill="none" xmlns="http://www.w3.org/2000/svg">
<circle cx="12" cy="12" r="11.5" stroke="#4A7DC9"/>
<path d="M14.781 16.78H9.21851C9.11295 16.7799 9.01014 16.7463 8.92481 16.6842C8.83949 16.622 8.77602 16.5345 8.74351 16.434L7.02451 11.144C6.99191 11.0437 6.99191 10.9356 7.02452 10.8353C7.05712 10.735 7.12066 10.6475 7.20601 10.5855L11.706 7.31553C11.7913 7.25312 11.8943 7.21948 12 7.21948C12.1057 7.21948 12.2087 7.25312 12.294 7.31553L16.794 10.5855C16.8794 10.6475 16.9429 10.735 16.9755 10.8353C17.0081 10.9356 17.0081 11.0437 16.9755 11.144L15.257 16.434C15.2244 16.5346 15.1608 16.6223 15.0753 16.6845C14.9898 16.7466 14.8867 16.7801 14.781 16.78Z" fill="#D1E9FF"/>
</svg>
