<svg width="75" height="75" viewBox="0 0 75 75" fill="none" xmlns="http://www.w3.org/2000/svg">
<path d="M22.2656 5.85938H24.6094V8.20312H22.2656V5.85938Z" fill="#1FC7A2"/>
<path d="M26.9531 5.85938H31.6406V8.20312H26.9531V5.85938Z" fill="#1FC7A2"/>
<path d="M66.7969 3.51562H36.3281V1.17188H17.5781V3.51562H8.20312C4.32539 3.51562 1.17188 6.66914 1.17188 10.5469V62.1094C1.17188 65.9871 4.32539 69.1406 8.20312 69.1406H15.2344V57.4219H22.8797C23.6133 60.532 24.9902 63.4805 26.9531 66.0305V73.8281H48.0469V66.0305C50.0098 63.4805 51.3867 60.532 52.1203 57.4219H59.7656V69.1406H66.7969C70.6746 69.1406 73.8281 65.9871 73.8281 62.1094V10.5469C73.8281 6.66914 70.6746 3.51562 66.7969 3.51562ZM19.9219 3.51562H33.9844V10.5469H19.9219V3.51562ZM8.20312 5.85938H17.5781V12.8906H26.2066L31.1648 23.5148C29.6367 24.573 28.5527 26.2207 28.2305 28.125H24.6094V25.7812H17.5781V32.8125H24.6094V30.4688H28.2316C28.5797 32.523 29.8254 34.3207 31.6406 35.3719V51.5625C31.6406 52.2094 31.1156 52.7344 30.4688 52.7344C29.8219 52.7344 29.2969 52.2094 29.2969 51.5625V44.5312C29.2969 41.9461 27.1945 39.8438 24.6094 39.8438C23.3168 39.8438 22.2656 40.8949 22.2656 42.1875V50.3906H15.2344V48.0469H19.9219V45.7031H15.2344V15.2344H8.20312C5.61797 15.2344 3.51562 13.132 3.51562 10.5469C3.51562 7.96172 5.61797 5.85938 8.20312 5.85938ZM48.0469 17.5781H59.7656V24.6094H48.0469V17.5781ZM59.7656 26.9531V50.3906H52.7344V48.0469H57.4219V45.7031H52.7344V44.5312C52.7344 42.593 51.157 41.0156 49.2188 41.0156C48.7559 41.0156 48.3164 41.1105 47.9109 41.2734C47.5066 39.7793 46.152 38.6719 44.5312 38.6719C44.0684 38.6719 43.6289 38.7668 43.2234 38.9297C42.8191 37.4355 41.4645 36.3281 39.8438 36.3281C39.4313 36.3281 39.0398 36.4125 38.6719 36.5438V35.3719C40.8258 34.125 42.1875 31.8246 42.1875 29.2969C42.1875 27.0598 41.134 25.0676 39.5004 23.7797L42.8836 17.5781H45.7031V26.9531H59.7656ZM39.8438 29.2969C39.8438 30.4805 39.3961 31.5902 38.6332 32.4352C38.4434 30.6762 36.9656 29.2969 35.1562 29.2969C33.3469 29.2969 31.8691 30.6762 31.6793 32.4352C30.9164 31.5902 30.4688 30.4805 30.4688 29.2969C30.4688 26.7117 32.5711 24.6094 35.1562 24.6094C37.7414 24.6094 39.8438 26.7117 39.8438 29.2969ZM22.2656 28.125V30.4688H19.9219V28.125H22.2656ZM12.8906 66.7969H8.20312C5.61797 66.7969 3.51562 64.6945 3.51562 62.1094V15.784C4.76133 16.8984 6.4043 17.5781 8.20312 17.5781H12.8906V66.7969ZM15.2344 55.0781V52.7344H22.2855C22.302 53.5207 22.3652 54.3012 22.4637 55.0781H15.2344ZM50.3906 52.2621C50.3906 56.8348 48.8168 61.3207 45.9598 64.8926L45.7031 65.2137V71.4844H29.2969V65.2137L29.0402 64.8926C26.1832 61.3207 24.6094 56.8348 24.6094 52.2621V42.1875C25.902 42.1875 26.9531 43.2387 26.9531 44.5312V51.5625C26.9531 53.5008 28.5305 55.0781 30.4688 55.0781C32.407 55.0781 33.9844 53.5008 33.9844 51.5625V32.8125C33.9844 32.1656 34.5094 31.6406 35.1562 31.6406C35.8031 31.6406 36.3281 32.1656 36.3281 32.8125V52.7344H38.6719V39.8438C38.6719 39.1969 39.1969 38.6719 39.8438 38.6719C40.4906 38.6719 41.0156 39.1969 41.0156 39.8438V52.7344H43.3594V42.1875C43.3594 41.5406 43.8844 41.0156 44.5312 41.0156C45.1781 41.0156 45.7031 41.5406 45.7031 42.1875V52.7344H48.0469V44.5312C48.0469 43.8844 48.5719 43.3594 49.2188 43.3594C49.8656 43.3594 50.3906 43.8844 50.3906 44.5312V52.2621ZM52.5375 55.0781C52.6359 54.3012 52.698 53.5207 52.7156 52.7344H59.7656V55.0781H52.5375ZM71.4844 62.1094C71.4844 64.6945 69.382 66.7969 66.7969 66.7969H62.1094V17.5781H66.7969C68.5957 17.5781 70.2398 16.8984 71.4844 15.784V62.1094ZM66.7969 15.2344H60.9375H59.7656H41.4914L37.4437 22.6559C36.7254 22.4074 35.9578 22.2656 35.1562 22.2656C34.5094 22.2656 33.8848 22.3605 33.2895 22.5246L28.793 12.8906H36.3281V5.85938H66.7969C69.382 5.85938 71.4844 7.96172 71.4844 10.5469C71.4844 13.132 69.382 15.2344 66.7969 15.2344Z" fill="#4A7DC9"/>
<path d="M45.7031 29.2969H57.4219V31.6406H45.7031V29.2969Z" fill="#1FC7A2"/>
<path d="M50.3906 33.9844H57.4219V36.3281H50.3906V33.9844Z" fill="#1FC7A2"/>
<path d="M50.3906 19.9219H57.4219V22.2656H50.3906V19.9219Z" fill="#1FC7A2"/>
</svg>
