<svg width="75" height="75" viewBox="0 0 75 75" fill="none" xmlns="http://www.w3.org/2000/svg">
<path d="M68.7974 14.4057L57.0787 2.68693C56.8589 2.4672 56.5608 2.34376 56.25 2.34375H26.9531C25.7104 2.34517 24.5189 2.83949 23.6401 3.71826C22.7614 4.59703 22.267 5.78848 22.2656 7.03125V41.0156H24.6094V7.03125C24.6101 6.40987 24.8572 5.81414 25.2966 5.37475C25.736 4.93537 26.3317 4.68821 26.9531 4.6875H55.0781V11.7188C55.0795 12.9615 55.5739 14.153 56.4526 15.0317C57.3314 15.9105 58.5229 16.4048 59.7656 16.4062H66.7969V67.9688C66.7962 68.5901 66.549 69.1859 66.1096 69.6252C65.6702 70.0646 65.0745 70.3118 64.4531 70.3125H26.9531C26.3767 70.313 25.8204 70.1005 25.391 69.716L23.8277 71.4623C24.6868 72.2318 25.7998 72.657 26.9531 72.6562H64.4531C65.6959 72.6548 66.8873 72.1605 67.7661 71.2817C68.6449 70.403 69.1392 69.2115 69.1406 67.9688V15.2344C69.1406 14.9236 69.0172 14.6255 68.7974 14.4057ZM57.4219 11.7188V6.34475L65.1396 14.0625H59.7656C59.1442 14.0618 58.5485 13.8146 58.1091 13.3752C57.6697 12.9359 57.4226 12.3401 57.4219 11.7188Z" fill="#4A7DC9"/>
<path d="M26.9531 7.03125H31.6406V9.375H26.9531V7.03125Z" fill="#4A7DC9"/>
<path d="M33.9844 7.03125H42.1875V9.375H33.9844V7.03125Z" fill="#4A7DC9"/>
<path d="M26.9531 11.7188H33.9844V14.0625H26.9531V11.7188Z" fill="#4A7DC9"/>
<path d="M26.9531 18.75H35.1562V21.0938H26.9531V18.75Z" fill="#4A7DC9"/>
<path d="M37.5 18.75H46.875V21.0938H37.5V18.75Z" fill="#4A7DC9"/>
<path d="M26.9531 23.4375H37.5V25.7812H26.9531V23.4375Z" fill="#4A7DC9"/>
<path d="M32.8125 28.125H44.5312V30.4688H32.8125V28.125Z" fill="#4A7DC9"/>
<path d="M46.875 28.125H57.4219V30.4688H46.875V28.125Z" fill="#4A7DC9"/>
<path d="M59.7656 28.125H64.4531V30.4688H59.7656V28.125Z" fill="#4A7DC9"/>
<path d="M26.9531 32.8125H38.6719V35.1562H26.9531V32.8125Z" fill="#4A7DC9"/>
<path d="M41.0156 32.8125H51.5625V35.1562H41.0156V32.8125Z" fill="#4A7DC9"/>
<path d="M53.9062 32.8125H64.4531V35.1562H53.9062V32.8125Z" fill="#4A7DC9"/>
<path d="M26.9531 37.5H44.5312V39.8438H26.9531V37.5Z" fill="#4A7DC9"/>
<path d="M46.875 37.5H57.4219V39.8438H46.875V37.5Z" fill="#4A7DC9"/>
<path d="M59.7656 37.5H64.4531V39.8438H59.7656V37.5Z" fill="#1FC7A2"/>
<path d="M33.9844 59.7656C33.6736 59.7656 33.3755 59.8891 33.1558 60.1089C32.936 60.3286 32.8125 60.6267 32.8125 60.9375V67.9688C32.8125 68.2795 32.936 68.5776 33.1558 68.7974C33.3755 69.0171 33.6736 69.1406 33.9844 69.1406H41.0156C41.3264 69.1406 41.6245 69.0171 41.8442 68.7974C42.064 68.5776 42.1875 68.2795 42.1875 67.9688V60.9375C42.1875 60.6267 42.064 60.3286 41.8442 60.1089C41.6245 59.8891 41.3264 59.7656 41.0156 59.7656H33.9844ZM39.8438 66.7969H35.1562V62.1094H39.8438V66.7969Z" fill="#1FC7A2"/>
<path d="M44.5312 67.9688C44.5313 68.2795 44.6547 68.5776 44.8745 68.7974C45.0943 69.0171 45.3923 69.1406 45.7031 69.1406H52.7344C53.0452 69.1406 53.3432 69.0171 53.563 68.7974C53.7828 68.5776 53.9062 68.2795 53.9062 67.9688V55.0781C53.9062 54.7673 53.7828 54.4693 53.563 54.2495C53.3432 54.0297 53.0452 53.9063 52.7344 53.9062H45.7031C45.3923 53.9063 45.0943 54.0297 44.8745 54.2495C44.6547 54.4693 44.5313 54.7673 44.5312 55.0781V67.9688ZM46.875 56.25H51.5625V66.7969H46.875V56.25Z" fill="#1FC7A2"/>
<path d="M57.4219 69.1406H64.4531C64.7639 69.1406 65.062 69.0171 65.2817 68.7974C65.5015 68.5776 65.625 68.2795 65.625 67.9688V50.3906C65.625 50.0798 65.5015 49.7818 65.2817 49.562C65.062 49.3422 64.7639 49.2188 64.4531 49.2188H57.4219C57.1111 49.2188 56.813 49.3422 56.5933 49.562C56.3735 49.7818 56.25 50.0798 56.25 50.3906V67.9688C56.25 68.2795 56.3735 68.5776 56.5933 68.7974C56.813 69.0171 57.1111 69.1406 57.4219 69.1406ZM58.5938 51.5625H63.2812V66.7969H58.5938V51.5625Z" fill="#1FC7A2"/>
<path d="M8.20313 56.25C8.20639 53.5401 9.2514 50.9351 11.1219 48.9743C12.9924 47.0134 15.5452 45.8468 18.2519 45.7158L16.7494 47.2182L18.4068 48.8756L21.9225 45.3599C22.1422 45.1401 22.2657 44.8421 22.2657 44.5312C22.2657 44.2204 22.1422 43.9223 21.9225 43.7025L18.4068 40.1869L16.7494 41.8443L18.2743 43.3691C15.4792 43.4725 12.7937 44.4821 10.6227 46.2456C8.45177 48.0091 6.91325 50.4308 6.23927 53.1453C5.56528 55.8598 5.79241 58.7199 6.88637 61.294C7.98033 63.8682 9.88178 66.0167 12.3038 67.4154L13.4774 65.3867C11.8763 64.4577 10.5468 63.1251 9.62133 61.522C8.69588 59.9188 8.2069 58.1011 8.20313 56.25Z" fill="#1FC7A2"/>
<path d="M31.6407 56.25C31.6362 53.988 31.0388 51.7666 29.9081 49.8075C28.7773 47.8484 27.1527 46.2199 25.1962 45.0846L24.0226 47.1133C25.9966 48.2529 27.5483 50.0012 28.4454 52.0964C29.3426 54.1917 29.5369 56.5212 28.9993 58.7361C28.4617 60.9511 27.2211 62.9323 25.4632 64.3831C23.7053 65.834 21.5248 66.6764 19.2481 66.7842L20.7506 65.2818L19.0932 63.6244L15.5776 67.1401C15.3578 67.3599 15.2344 67.6579 15.2344 67.9688C15.2344 68.2796 15.3578 68.5777 15.5776 68.7974L19.0932 72.3131L20.7506 70.6557L19.2258 69.1309C22.5585 69.0041 25.7128 67.592 28.0273 65.1906C30.3417 62.7893 31.6367 59.5852 31.6407 56.25Z" fill="#1FC7A2"/>
<path d="M19.5787 57.0787C19.7984 56.8589 19.9218 56.5608 19.9218 56.25V50.3906H17.5781V55.7646L14.4056 58.9369L16.063 60.5943L19.5787 57.0787Z" fill="#1FC7A2"/>
</svg>
