<svg width="75" height="75" viewBox="0 0 75 75" fill="none" xmlns="http://www.w3.org/2000/svg">
<path d="M72.5098 72.8027V49.5028H70.3125V72.8027H63.7207V22.5957H70.3125V47.3055H72.5098V20.3984H61.5234V72.8027H54.8729L54.9335 38.579H43.9472L43.8866 72.8027H37.3535V29.2254H26.3672V58.6925H28.5645V31.4227H35.1562V72.8027H28.5645V60.8899H26.3672V72.8027H19.7754V49.6377H8.78906V72.8027H2.19727V4.39453H0V75H75V72.8027H72.5098ZM46.1405 40.7761H52.7323L52.6756 72.8027H46.0838L46.1405 40.7761ZM10.9863 51.835H17.5781V72.8027H10.9863V51.835Z" fill="#4A7DC9"/>
<path d="M0 0H2.19727V2.19727H0V0Z" fill="#1FC7A2"/>
<path d="M14.2822 43.0433C15.6889 43.0433 17.0956 42.5079 18.1665 41.4371C20.3083 39.2952 20.3083 35.8103 18.1665 33.6686C18.0836 33.5857 17.9981 33.5071 17.9112 33.4305L27.4157 20.3684C27.5827 20.5981 27.7692 20.8178 27.976 21.0248C29.0469 22.0957 30.4536 22.631 31.8603 22.631C33.267 22.631 34.6737 22.0956 35.7446 21.0248C36.1492 20.6202 36.4772 20.1675 36.7289 19.6852L44.0216 25.6031C43.7465 27.2896 44.2564 29.0805 45.5543 30.3784C46.6252 31.4493 48.0319 31.9847 49.4386 31.9847C50.8453 31.9847 52.252 31.4493 53.3229 30.3784C55.2049 28.4963 55.4326 25.5775 54.007 23.4438L64.0097 12.9108C64.9193 13.5062 65.9679 13.8043 67.0167 13.8043C68.4234 13.8043 69.8302 13.2689 70.901 12.1981C73.0428 10.0562 73.0428 6.5713 70.901 4.42955C68.759 2.28765 65.2741 2.2878 63.1325 4.42955C61.2505 6.31158 61.023 9.23057 62.4484 11.3641L52.4458 21.8971C50.3162 20.5033 47.4237 20.7406 45.5544 22.61C45.2912 22.8733 45.0608 23.157 44.8623 23.4557L37.346 17.3564C37.4036 15.8786 36.8704 14.3821 35.7448 13.2564C33.603 11.1147 30.1182 11.1145 27.9763 13.2564C26.6913 14.5415 26.1783 16.31 26.4353 17.9818L15.9917 32.3347C14.0872 31.7145 11.9089 32.158 10.3983 33.6687C8.25656 35.8105 8.25656 39.2955 10.3983 41.4372C11.4688 42.5079 12.8755 43.0433 14.2822 43.0433ZM64.6858 5.98301C65.3285 5.34039 66.1722 5.01915 67.0164 5.01915C67.8603 5.01915 68.7045 5.34053 69.347 5.98301C70.6319 7.26812 70.6319 9.35904 69.347 10.6441C68.062 11.9293 65.9708 11.9291 64.6858 10.6441C63.4007 9.35904 63.4007 7.26812 64.6858 5.98301ZM47.1077 24.1633C48.3925 22.8784 50.4837 22.8782 51.7689 24.1633C53.0538 25.4484 53.0538 27.5394 51.7689 28.8245C50.4837 30.1096 48.3927 30.1094 47.1077 28.8245C45.8228 27.5395 45.8228 25.4484 47.1077 24.1633ZM29.5296 14.8099C30.8147 13.5249 32.9058 13.5249 34.1907 14.8099C35.4758 16.095 35.4758 18.1859 34.1907 19.471C32.9056 20.756 30.8147 20.756 29.5296 19.471C28.2446 18.1859 28.2446 16.095 29.5296 14.8099ZM11.9516 35.2222C12.5942 34.5795 13.438 34.2583 14.2822 34.2583C15.1261 34.2583 15.9703 34.5797 16.6128 35.2222C17.8977 36.5071 17.8977 38.5982 16.6128 39.8833C15.3276 41.1683 13.2366 41.1683 11.9516 39.8833C10.6665 38.5982 10.6665 36.5073 11.9516 35.2222Z" fill="#1FC7A2"/>
<path d="M13.1835 68.4102H15.3807V70.6075H13.1835V68.4102Z" fill="#1FC7A2"/>
<path d="M65.9178 34.7504H68.1151V36.9476H65.9178V34.7504Z" fill="#1FC7A2"/>
<path d="M65.9178 25.9613H68.1151V32.5531H65.9178V25.9613Z" fill="#1FC7A2"/>
<path d="M30.7617 34.7166H32.959V41.3084H30.7617V34.7166Z" fill="#1FC7A2"/>
<path d="M30.7617 43.5057H32.959V45.703H30.7617V43.5057Z" fill="#1FC7A2"/>
<path d="M48.3398 62.9171H50.5371V69.5089H48.3398V62.9171Z" fill="#1FC7A2"/>
<path d="M48.3398 58.5225H50.5371V60.7197H48.3398V58.5225Z" fill="#1FC7A2"/>
</svg>
