<svg width="75" height="75" viewBox="0 0 75 75" fill="none" xmlns="http://www.w3.org/2000/svg">
<path d="M8.20312 22.5586C8.20312 22.4809 8.23399 22.4064 8.28893 22.3514C8.34388 22.2965 8.41839 22.2656 8.49609 22.2656H10.5469V25.7812H12.8906V11.7188H63.2812C63.5921 11.7188 63.8901 11.5953 64.1099 11.3755C64.3297 11.1557 64.4531 10.8577 64.4531 10.5469V3.51562C64.4531 3.20482 64.3297 2.90675 64.1099 2.68698C63.8901 2.46721 63.5921 2.34375 63.2812 2.34375H57.4219V4.6875H62.1094V9.375H12.8906V4.6875H55.0781V2.34375H11.7188C11.4079 2.34375 11.1099 2.46721 10.8901 2.68698C10.6703 2.90675 10.5469 3.20482 10.5469 3.51562V19.9219H8.49609C7.79704 19.9227 7.12686 20.2007 6.63255 20.6951C6.13825 21.1894 5.86019 21.8595 5.85938 22.5586V25.7812H8.20312V22.5586Z" fill="#4A7DC9"/>
<path d="M66.7969 51.5625H8.20312V46.875H5.85938V58.3008C5.86019 58.9998 6.13825 59.67 6.63255 60.1643C7.12686 60.6586 7.79704 60.9367 8.49609 60.9375H12.8906V58.5938H8.49609C8.41839 58.5938 8.34388 58.5629 8.28893 58.5079C8.23399 58.453 8.20312 58.3785 8.20312 58.3008V53.9062H66.7969V58.3008C66.7969 58.3785 66.766 58.453 66.7111 58.5079C66.6561 58.5629 66.5816 58.5938 66.5039 58.5938H15.2344V60.9375H30.4688V63.0741C30.4708 63.8375 30.2009 64.5767 29.7074 65.1591C29.214 65.7416 28.5293 66.1293 27.7759 66.2528L26.8648 66.4047C25.906 66.5619 25.0344 67.0553 24.4064 67.7967C23.7784 68.5381 23.4349 69.4789 23.4375 70.4505V71.4844C23.4375 71.7952 23.561 72.0932 23.7807 72.313C24.0005 72.5328 24.2986 72.6562 24.6094 72.6562H50.3906C50.7014 72.6562 50.9995 72.5328 51.2193 72.313C51.439 72.0932 51.5625 71.7952 51.5625 71.4844V70.4505C51.5651 69.4788 51.2215 68.538 50.5934 67.7967C49.9653 67.0553 49.0937 66.5619 48.1348 66.4049L47.2236 66.253C46.4704 66.1294 45.7857 65.7416 45.2924 65.1591C44.799 64.5766 44.5292 63.8375 44.5312 63.0741V60.9375H66.5039C67.203 60.9367 67.8731 60.6586 68.3674 60.1643C68.8618 59.67 69.1398 58.9998 69.1406 58.3008V32.8125H66.7969V51.5625ZM46.8388 68.5648L47.75 68.7167C48.1375 68.7802 48.4924 68.972 48.7578 69.2614C49.0232 69.5508 49.1837 69.921 49.2135 70.3125H25.7865C25.8163 69.921 25.9768 69.5508 26.2422 69.2614C26.5076 68.972 26.8625 68.7802 27.25 68.7167L28.1613 68.5648C29.4626 68.3515 30.6453 67.6817 31.4976 66.6756C32.3499 65.6695 32.816 64.3927 32.8125 63.0741V60.9375H42.1875V63.0741C42.184 64.3927 42.6502 65.6695 43.5025 66.6756C44.3548 67.6818 45.5376 68.3515 46.8388 68.5648Z" fill="#4A7DC9"/>
<path d="M10.5469 48.0469C10.5469 48.3577 10.6703 48.6557 10.8901 48.8755C11.1099 49.0953 11.4079 49.2188 11.7188 49.2188H63.2812C63.5921 49.2188 63.8901 49.0953 64.1099 48.8755C64.3297 48.6557 64.4531 48.3577 64.4531 48.0469V32.8125H62.1094V46.875H10.5469V48.0469Z" fill="#4A7DC9"/>
<path d="M37.5 16.4062C34.9505 16.4063 32.4582 17.1623 30.3384 18.5787C28.2185 19.9952 26.5663 22.0084 25.5906 24.3638C24.615 26.7193 24.3597 29.3112 24.8571 31.8117C25.3545 34.3122 26.5822 36.6091 28.385 38.4119C30.1877 40.2147 32.4846 41.4424 34.9852 41.9398C37.4857 42.4372 40.0776 42.1819 42.433 41.2063C44.7885 40.2306 46.8017 38.5784 48.2182 36.4585C49.6346 34.3387 50.3906 31.8464 50.3906 29.2969C50.3868 25.8793 49.0274 22.6027 46.6108 20.1861C44.1941 17.7695 40.9176 16.4101 37.5 16.4062ZM37.5 33.9844C36.5729 33.9844 35.6666 33.7095 34.8958 33.1944C34.1249 32.6793 33.5241 31.9472 33.1693 31.0907C32.8145 30.2342 32.7217 29.2917 32.9026 28.3824C33.0834 27.4731 33.5299 26.6379 34.1854 25.9823C34.841 25.3268 35.6762 24.8803 36.5855 24.6994C37.4948 24.5186 38.4373 24.6114 39.2938 24.9662C40.1504 25.321 40.8824 25.9218 41.3975 26.6926C41.9126 27.4635 42.1875 28.3698 42.1875 29.2969C42.1861 30.5396 41.6918 31.7311 40.813 32.6099C39.9342 33.4887 38.7428 33.983 37.5 33.9844ZM36.3281 18.8146V22.3633C34.8895 22.6091 33.5626 23.2954 32.5305 24.3274C31.4985 25.3594 30.8123 26.6863 30.5665 28.125H27.0177C27.2872 25.7486 28.3547 23.5339 30.0459 21.8427C31.737 20.1516 33.9517 19.0841 36.3281 18.8146ZM27.0177 30.4688H30.5665C30.8123 31.9074 31.4985 33.2343 32.5305 34.2663C33.5626 35.2984 34.8895 35.9846 36.3281 36.2304V39.7791C33.9517 39.5097 31.737 38.4422 30.0459 36.751C28.3547 35.0599 27.2872 32.8451 27.0177 30.4688ZM38.6719 39.7791V36.2304C40.3103 35.9534 41.7977 35.105 42.8703 33.8358C43.9429 32.5666 44.5314 30.9586 44.5314 29.2969C44.5314 27.6352 43.9429 26.0271 42.8703 24.7579C41.7977 23.4887 40.3103 22.6404 38.6719 22.3633V18.8146C41.2502 19.1029 43.6319 20.3314 45.3615 22.2652C47.0911 24.199 48.0473 26.7024 48.0473 29.2969C48.0473 31.8913 47.0911 34.3947 45.3615 36.3285C43.6319 38.2623 41.2502 39.4908 38.6719 39.7791Z" fill="#1FC7A2"/>
<path d="M24.9526 18.4068L26.6099 16.7495L24.2662 14.4057C24.1573 14.2969 24.0281 14.2106 23.886 14.1517C23.7438 14.0928 23.5914 14.0625 23.4375 14.0625H16.4062V16.4062H22.9521L24.9526 18.4068Z" fill="#1FC7A2"/>
<path d="M16.4062 18.75H22.2656V21.0938H16.4062V18.75Z" fill="#1FC7A2"/>
<path d="M50.0473 40.1869L48.39 41.8442L50.7338 44.188C50.8426 44.2968 50.9718 44.3831 51.114 44.442C51.2561 44.5009 51.4085 44.5312 51.5624 44.5312H58.5937V42.1874H52.0479L50.0473 40.1869Z" fill="#1FC7A2"/>
<path d="M52.7344 37.5H58.5938V39.8438H52.7344V37.5Z" fill="#1FC7A2"/>
<path d="M15.2344 5.85938H17.5781V8.20312H15.2344V5.85938Z" fill="#1FC7A2"/>
<path d="M19.9219 5.85938H22.2656V8.20312H19.9219V5.85938Z" fill="#1FC7A2"/>
<path d="M24.6094 5.85938H26.9531V8.20312H24.6094V5.85938Z" fill="#1FC7A2"/>
<path d="M57.4219 5.85938H59.7656V8.20312H57.4219V5.85938Z" fill="#1FC7A2"/>
<path d="M21.0938 43.3594V41.6016L25.3125 38.4375C25.4807 38.3114 25.6118 38.1424 25.6922 37.9482C25.7726 37.754 25.7993 37.5418 25.7694 37.3337C25.7396 37.1256 25.6544 36.9294 25.5227 36.7656C25.391 36.6018 25.2177 36.4765 25.0209 36.4027L21.0938 34.9301V29.2969C21.0938 28.9861 20.9703 28.688 20.7505 28.4682C20.5307 28.2485 20.2327 28.125 19.9219 28.125H3.51562C3.20482 28.125 2.90675 28.2485 2.68698 28.4682C2.46721 28.688 2.34375 28.9861 2.34375 29.2969V43.3594C2.34375 43.6702 2.46721 43.9682 2.68698 44.188C2.90675 44.4078 3.20482 44.5312 3.51562 44.5312H19.9219C20.2327 44.5312 20.5307 44.4078 20.7505 44.188C20.9703 43.9682 21.0938 43.6702 21.0938 43.3594ZM18.75 41.0156V42.1875H4.6875V30.4688H18.75V35.7422C18.75 35.9807 18.8228 36.2136 18.9587 36.4097C19.0945 36.6058 19.287 36.7557 19.5104 36.8395L22.1949 37.8461L19.2188 40.0781C19.0732 40.1873 18.9551 40.3288 18.8737 40.4915C18.7924 40.6543 18.75 40.8337 18.75 41.0156Z" fill="#1FC7A2"/>
<path d="M7.03125 36.3281H9.375V39.8438H7.03125V36.3281Z" fill="#1FC7A2"/>
<path d="M10.5469 32.8125H12.8906V39.8438H10.5469V32.8125Z" fill="#1FC7A2"/>
<path d="M14.0625 35.1562H16.4062V39.8438H14.0625V35.1562Z" fill="#1FC7A2"/>
<path d="M71.4844 14.0625H55.0782C54.7674 14.0625 54.4693 14.186 54.2495 14.4057C54.0298 14.6255 53.9063 14.9236 53.9063 15.2344V16.9922L49.6876 20.1563C49.5194 20.2824 49.3883 20.4514 49.3079 20.6456C49.2275 20.8398 49.2008 21.052 49.2306 21.2601C49.2604 21.4681 49.3457 21.6643 49.4774 21.8281C49.6091 21.9919 49.7824 22.1173 49.9792 22.1911L53.9063 23.6637V29.2969C53.9063 29.6077 54.0298 29.9057 54.2495 30.1255C54.4693 30.3453 54.7674 30.4688 55.0782 30.4688H71.4844C71.7952 30.4688 72.0933 30.3453 72.3131 30.1255C72.5328 29.9057 72.6563 29.6077 72.6563 29.2969V15.2344C72.6563 14.9236 72.5328 14.6255 72.3131 14.4057C72.0933 14.186 71.7952 14.0625 71.4844 14.0625ZM70.3125 28.125H56.25V22.8516C56.2501 22.613 56.1773 22.3801 56.0414 22.184C55.9055 21.988 55.713 21.838 55.4896 21.7542L52.8052 20.7476L55.7813 18.5156C55.9268 18.4065 56.045 18.2649 56.1263 18.1022C56.2077 17.9395 56.25 17.7601 56.25 17.5781V16.4062H70.3125V28.125Z" fill="#1FC7A2"/>
<path d="M62.1093 22.7511L63.6244 24.2662C63.7431 24.3849 63.886 24.4767 64.0433 24.5354C64.2006 24.5941 64.3686 24.6184 64.5361 24.6065C64.7036 24.5945 64.8666 24.5468 65.014 24.4664C65.1614 24.3861 65.2898 24.2749 65.3905 24.1406L68.9062 19.4531L67.0312 18.0469L64.3262 21.6535L62.938 20.2651C62.8291 20.1563 62.7 20.0699 62.5578 20.011C62.4156 19.9521 62.2632 19.9218 62.1093 19.9218C61.9554 19.9218 61.803 19.9521 61.6608 20.011C61.5187 20.0699 61.3895 20.1563 61.2806 20.2651L57.765 23.7807L59.4223 25.438L62.1093 22.7511Z" fill="#1FC7A2"/>
</svg>
