<svg width="75" height="75" viewBox="0 0 75 75" fill="none" xmlns="http://www.w3.org/2000/svg">
<path d="M74.4208 66.6524L73.3509 65.5824C72.9218 65.1532 72.2262 65.1533 71.7973 65.5822C71.3681 66.0113 71.3681 66.7069 71.7971 67.1358L72.7116 68.0505L68.0508 72.7115L60.1269 64.7877L64.7878 60.1267L68.4845 63.8234C68.9137 64.2523 69.6092 64.2523 70.0383 63.8234C70.4673 63.3942 70.4673 62.6987 70.0383 62.2696L65.5667 57.7982C65.566 57.7975 65.5654 57.7967 65.5648 57.796L62.4574 54.6886C62.4565 54.6877 62.4557 54.6872 62.4548 54.6863L59.7125 51.9439C59.3389 51.5703 58.8423 51.3645 58.314 51.3645C57.7856 51.3645 57.289 51.5703 56.9156 51.9436L56.7602 52.0992L52.829 48.167C55.6389 44.6563 57.6683 40.496 58.6532 35.9505H66.3942C67.0011 35.9505 67.4928 35.4587 67.4928 34.8519C67.4928 34.245 67.0011 33.7532 66.3942 33.7532H59.0427C59.1395 33.0545 59.2119 32.3481 59.2589 31.6349H71.6309C72.2377 31.6349 72.7295 31.1432 72.7295 30.5363C72.7295 29.9294 72.2377 29.4376 71.6309 29.4376H59.3238C59.3186 28.7268 59.2891 28.0204 59.2352 27.3192H66.3943C67.0012 27.3192 67.493 26.8274 67.493 26.2206C67.493 25.6137 67.0012 25.1219 66.3943 25.1219H58.9843C58.2167 20.0713 56.164 15.3469 52.9339 11.2661C52.5573 10.7905 51.8665 10.7102 51.3905 11.0865C50.9149 11.4631 50.8345 12.1541 51.2109 12.6299C55.0825 17.5208 57.1289 23.4108 57.1289 29.6631C57.1289 44.8078 44.8078 57.1289 29.6631 57.1289C14.5184 57.1289 2.19727 44.8078 2.19727 29.6631C2.19727 14.5184 14.5184 2.19727 29.6631 2.19727C36.5095 2.19727 43.068 4.73115 48.1302 9.33208C48.5791 9.74048 49.2743 9.70708 49.6821 9.25811C50.0902 8.80913 50.0571 8.11421 49.608 7.7061C44.1406 2.73677 37.0573 0 29.6631 0C13.3068 0 0 13.3068 0 29.6631C0 44.1038 10.3731 56.1652 24.059 58.7928V66.2048C24.059 66.8117 24.5508 67.3034 25.1577 67.3034C25.7646 67.3034 26.2563 66.8117 26.2563 66.2048V59.1294C26.9555 59.2097 27.6618 59.266 28.3748 59.2966V71.3713C28.3748 71.9782 28.8665 72.4699 29.4734 72.4699C30.0803 72.4699 30.572 71.9782 30.572 71.3713V59.3109C31.2845 59.2894 31.9912 59.244 32.6905 59.1728V66.2048C32.6905 66.8117 33.1822 67.3034 33.7891 67.3034C34.396 67.3034 34.8877 66.8117 34.8877 66.2048V58.8653C39.8481 57.9803 44.3843 55.8568 48.1671 52.829L52.0994 56.7604L51.9441 56.9156C51.5704 57.2892 51.3646 57.7857 51.3646 58.3141C51.3646 58.8425 51.5704 59.3391 51.9438 59.7125L54.6872 62.4557C54.6877 62.4563 54.6882 62.4568 54.6888 62.4574L57.7961 65.5648C57.7967 65.5654 57.7976 65.566 57.7982 65.5667L66.6521 74.4205C67.0257 74.7943 67.5223 75 68.0506 75C68.579 75 69.0754 74.7943 69.4491 74.4208L74.4208 69.4491C74.7943 69.0754 75 68.579 75 68.0506C75 67.5223 74.7943 67.0257 74.4208 66.6524ZM51.3898 49.8352L55.2063 53.6525L53.6527 55.2062L49.8353 51.3896C50.3723 50.8909 50.8909 50.3723 51.3898 49.8352ZM58.5731 63.2341L57.0193 61.6805L61.6803 57.0195L63.2339 58.5732L58.5731 63.2341ZM58.3141 53.653L60.1267 55.4656L55.4657 60.1266L53.6531 58.314L58.3141 53.653Z" fill="#4A7DC9"/>
<path d="M14.3636 49.7742C18.7639 53.0817 24.0499 54.8651 29.663 54.9316C43.5962 54.9316 54.9316 43.5962 54.9316 29.6631C54.9316 15.7299 43.5962 4.39453 29.663 4.39453C22.939 4.39453 16.6145 7.02642 11.8551 11.8053C7.11571 16.5639 4.46625 22.9018 4.39447 29.6514C4.32855 35.8651 6.58632 41.8376 10.7517 46.4685C11.1575 46.9195 11.8521 46.9564 12.3033 46.5507C12.7545 46.1449 12.7912 45.4501 12.3855 44.9991C8.5892 40.7786 6.53153 35.3363 6.59174 29.6748C6.65721 23.5015 9.07933 17.706 13.4119 13.356C17.756 8.99399 23.5274 6.5918 29.663 6.5918C42.3846 6.5918 52.7343 16.9415 52.7343 29.6631C52.7343 42.3847 42.3846 52.7344 29.6761 52.7345C24.5463 52.6736 19.7079 51.0425 15.6837 48.0179C15.199 47.653 14.5099 47.751 14.1455 48.236C13.7807 48.721 13.8785 49.4098 14.3636 49.7742Z" fill="#1FC7A2"/>
<path d="M33.8378 10.0342H26.2207C25.2918 10.0342 24.5361 10.7899 24.5361 11.7188V15.6006H17.4316C16.5027 15.6006 15.747 16.3563 15.747 17.2852V29.0771H14.2766C13.6697 29.0771 13.178 29.5689 13.178 30.1758C13.178 30.7827 13.6697 31.2744 14.2766 31.2744H45.7819C46.3888 31.2744 46.8805 30.7827 46.8805 30.1758C46.8805 29.5689 46.3888 29.0771 45.7819 29.0771H44.3115V22.8516C44.3115 21.9227 43.5558 21.167 42.6269 21.167H35.5224V11.7188C35.5224 10.7899 34.7667 10.0342 33.8378 10.0342ZM17.9443 17.7979H24.5361V29.0771H17.9443V17.7979ZM26.7333 12.2314H33.3251V29.0771H26.7333V12.2314ZM42.1142 23.3643V29.0771H35.5224V23.3643H42.1142Z" fill="#1FC7A2"/>
<path d="M42.334 40.5839H37.1618L34.8122 34.5776C34.6461 34.1532 34.2391 33.8786 33.7793 33.8792C33.3235 33.8833 32.9174 34.1685 32.7589 34.5959L29.548 43.2544L27.3038 36.8936C27.1603 36.4864 26.7914 36.2011 26.3611 36.1645C25.9313 36.1272 25.5191 36.3467 25.3084 36.7234L23.1533 40.5837H17.9948C17.3879 40.5837 16.8961 41.0755 16.8961 41.6824C16.8961 42.2893 17.3879 42.781 17.9948 42.781H23.7982C24.1963 42.781 24.5634 42.5655 24.7575 42.2179L26.0411 39.9188L28.4861 46.849C28.6401 47.2854 29.0507 47.5784 29.5134 47.5822H29.5223C29.9813 47.5822 30.3925 47.2965 30.5523 46.8654L33.8164 38.0635L35.3886 42.0827C35.5534 42.5038 35.9593 42.7811 36.4116 42.7811H42.334C42.9409 42.7811 43.4326 42.2894 43.4326 41.6825C43.4326 41.0756 42.9409 40.5839 42.334 40.5839Z" fill="#1FC7A2"/>
</svg>
