<svg width="75" height="75" viewBox="0 0 75 75" fill="none" xmlns="http://www.w3.org/2000/svg">
<path d="M51.5625 22.2656H53.9062C56.4914 22.2656 58.5938 20.1633 58.5938 17.5781C58.5938 16.1801 57.9785 14.9215 57.0035 14.0625C57.9785 13.2035 58.5938 11.9449 58.5938 10.5469C58.5938 7.96172 56.4914 5.85938 53.9062 5.85938H51.5625C50.2699 5.85938 49.2188 6.91055 49.2188 8.20312V19.9219C49.2188 21.2145 50.2699 22.2656 51.5625 22.2656ZM51.5625 8.20312H53.9062C55.1988 8.20312 56.25 9.2543 56.25 10.5469C56.25 11.8395 55.1988 12.8906 53.9062 12.8906H51.5625V8.20312ZM51.5625 15.2344H53.9062C55.1988 15.2344 56.25 16.2855 56.25 17.5781C56.25 18.8707 55.1988 19.9219 53.9062 19.9219H51.5625V15.2344Z" fill="#1FC7A2"/>
<path d="M18.75 17.5781H23.4375V22.2656H25.7812V10.5469C25.7812 7.96172 23.6789 5.85938 21.0938 5.85938C18.5086 5.85938 16.4062 7.96172 16.4062 10.5469V22.2656H18.75V17.5781ZM21.0938 8.20312C22.3863 8.20312 23.4375 9.2543 23.4375 10.5469V15.2344H18.75V10.5469C18.75 9.2543 19.8012 8.20312 21.0938 8.20312Z" fill="#1FC7A2"/>
<path d="M69.1406 8.20312H65.3742C63.2355 4.03594 58.9031 1.17188 53.9062 1.17188C48.9094 1.17188 44.577 4.03594 42.4383 8.20312H32.5605C30.423 4.03594 26.0906 1.17188 21.0938 1.17188C16.0969 1.17188 11.7645 4.03594 9.62578 8.20312H5.85938C3.27422 8.20312 1.17188 10.3055 1.17188 12.8906V57.4219C1.17188 60.007 3.27422 62.1094 5.85938 62.1094H24.3891C23.7398 63.9973 21.7793 65.9086 20.6883 66.7969H17.5781C16.2855 66.7969 15.2344 67.848 15.2344 69.1406V71.4844C15.2344 72.777 16.2855 73.8281 17.5781 73.8281H57.4219C58.7145 73.8281 59.7656 72.777 59.7656 71.4844V69.1406C59.7656 67.848 58.7145 66.7969 57.4219 66.7969H54.3117C53.2195 65.9086 51.2602 63.9973 50.6109 62.1094H69.1406C71.7258 62.1094 73.8281 60.007 73.8281 57.4219V12.8906C73.8281 10.3055 71.7258 8.20312 69.1406 8.20312ZM66.7969 15.2344V45.7031H41.0156V15.2344H41.0754C41.284 17.5336 42.0996 19.6582 43.3594 21.4512V31.6406H64.4531V21.4512C65.7129 19.6582 66.5285 17.5348 66.7371 15.2344H66.7969ZM45.7031 23.9988C47.9332 25.8434 50.7926 26.9531 53.9062 26.9531C57.0199 26.9531 59.8793 25.8434 62.1094 23.9988V29.2969H45.7031V23.9988ZM53.9062 3.51562C59.7211 3.51562 64.4531 8.24766 64.4531 14.0625C64.4531 19.8773 59.7211 24.6094 53.9062 24.6094C48.0914 24.6094 43.3594 19.8773 43.3594 14.0625C43.3594 8.24766 48.0914 3.51562 53.9062 3.51562ZM33.9844 15.2344V45.7031H8.20312V15.2344H8.26289C8.47148 17.5336 9.28711 19.6582 10.5469 21.4512V31.6406H31.6406V21.4512C32.9004 19.6582 33.716 17.5348 33.9246 15.2344H33.9844ZM12.8906 23.9988C15.1207 25.8434 17.9801 26.9531 21.0938 26.9531C24.2074 26.9531 27.0668 25.8434 29.2969 23.9988V29.2969H12.8906V23.9988ZM21.0938 3.51562C26.9086 3.51562 31.6406 8.24766 31.6406 14.0625C31.6406 19.8773 26.9086 24.6094 21.0938 24.6094C15.2789 24.6094 10.5469 19.8773 10.5469 14.0625C10.5469 8.24766 15.2789 3.51562 21.0938 3.51562ZM5.85938 10.5469H8.70234C8.48789 11.3027 8.33555 12.0855 8.26172 12.8906H8.20312C6.91055 12.8906 5.85938 13.9418 5.85938 15.2344V45.7031C5.85938 46.9957 6.91055 48.0469 8.20312 48.0469H33.9844C35.277 48.0469 36.3281 46.9957 36.3281 45.7031V15.2344C36.3281 13.9418 35.277 12.8906 33.9844 12.8906H33.9246C33.852 12.0844 33.6996 11.3027 33.484 10.5469H41.5148C41.3004 11.3027 41.148 12.0855 41.0742 12.8906H41.0156C39.723 12.8906 38.6719 13.9418 38.6719 15.2344V45.7031C38.6719 46.9957 39.723 48.0469 41.0156 48.0469H66.7969C68.0895 48.0469 69.1406 46.9957 69.1406 45.7031V15.2344C69.1406 13.9418 68.0895 12.8906 66.7969 12.8906H66.7371C66.6645 12.0844 66.5121 11.3027 66.2965 10.5469H69.1406C70.4332 10.5469 71.4844 11.598 71.4844 12.8906V50.3906H3.51562V12.8906C3.51562 11.598 4.5668 10.5469 5.85938 10.5469ZM57.423 71.4844H17.5781V69.1406H57.4219L57.423 71.4844ZM50.8945 66.7969H24.1055C25.2398 65.5676 26.427 63.9105 26.8137 62.1094H48.1863C48.573 63.9105 49.7602 65.5676 50.8945 66.7969ZM69.1406 59.7656H5.85938C4.5668 59.7656 3.51562 58.7145 3.51562 57.4219V52.7344H71.4844V57.4219C71.4844 58.7145 70.4332 59.7656 69.1406 59.7656Z" fill="#4A7DC9"/>
<path d="M10.5469 43.3594H19.9219V33.9844H10.5469V43.3594ZM12.8906 36.3281H17.5781V41.0156H12.8906V36.3281Z" fill="#1FC7A2"/>
<path d="M22.2656 33.9844H24.6094V36.3281H22.2656V33.9844Z" fill="#1FC7A2"/>
<path d="M26.9531 33.9844H31.6406V36.3281H26.9531V33.9844Z" fill="#1FC7A2"/>
<path d="M22.2656 38.6719H31.6406V41.0156H22.2656V38.6719Z" fill="#1FC7A2"/>
<path d="M43.3594 43.3594H52.7344V33.9844H43.3594V43.3594ZM45.7031 36.3281H50.3906V41.0156H45.7031V36.3281Z" fill="#1FC7A2"/>
<path d="M55.0781 33.9844H57.4219V36.3281H55.0781V33.9844Z" fill="#1FC7A2"/>
<path d="M59.7656 33.9844H64.4531V36.3281H59.7656V33.9844Z" fill="#1FC7A2"/>
<path d="M55.0781 38.6719H64.4531V41.0156H55.0781V38.6719Z" fill="#1FC7A2"/>
<path d="M64.4531 55.0781H66.7969V57.4219H64.4531V55.0781Z" fill="#1FC7A2"/>
<path d="M59.7656 55.0781H62.1094V57.4219H59.7656V55.0781Z" fill="#1FC7A2"/>
<path d="M55.0781 55.0781H57.4219V57.4219H55.0781V55.0781Z" fill="#1FC7A2"/>
</svg>
