<svg width="489" height="429" viewBox="0 0 489 429" fill="none" xmlns="http://www.w3.org/2000/svg">
<path d="M423.49 59.8158C433.514 49.7911 433.514 33.538 423.49 23.5133C413.465 13.4887 397.212 13.4887 387.187 23.5133C377.162 33.538 377.162 49.7911 387.187 59.8158C397.212 69.8404 413.465 69.8404 423.49 59.8158Z" fill="#D1E9FF"/>
<path d="M407.966 53.1484V56.712H403.466V53.3296C400.265 53.1484 397.154 52.2726 395.251 51.0948L397.698 45.5984C399.812 46.8366 402.62 47.652 405.097 47.652C407.241 47.652 407.996 47.199 407.996 46.444C407.996 43.6354 395.614 45.9004 395.614 37.535C395.614 33.911 398.241 30.891 403.496 30.136V26.6328H407.996V30.0454C410.351 30.2568 412.677 30.891 414.489 31.9178L412.224 37.384C410.019 36.2666 407.935 35.723 405.972 35.723C403.768 35.723 403.073 36.3572 403.073 37.1424C403.073 39.8302 415.455 37.5954 415.455 45.84C415.425 49.2828 412.918 52.2726 407.966 53.1484Z" fill="white"/>
<path d="M360.703 92.1065C369.292 92.1065 376.256 85.1432 376.256 76.5535C376.256 67.9638 369.292 61.0005 360.703 61.0005C352.113 61.0005 345.15 67.9638 345.15 76.5535C345.15 85.1432 352.113 92.1065 360.703 92.1065Z" fill="#D1E9FF"/>
<path d="M362.303 83.4996V85.6438H359.555V83.5902C357.622 83.4694 355.75 82.956 354.572 82.2312L356.052 78.9092C357.32 79.6642 359.042 80.1474 360.521 80.1474C361.82 80.1474 362.273 79.8756 362.273 79.4226C362.273 77.7012 354.783 79.0904 354.783 74.047C354.783 71.8424 356.384 70.0002 359.555 69.5774V67.4634H362.303V69.5472C363.723 69.668 365.142 70.0606 366.229 70.6646L364.84 73.9866C363.511 73.3222 362.243 72.99 361.065 72.99C359.736 72.99 359.313 73.3826 359.313 73.8356C359.313 75.4664 366.803 74.1074 366.803 79.1206C366.803 81.144 365.293 82.9862 362.303 83.4996Z" fill="white"/>
<path d="M413.873 89.2453C415.369 82.7952 411.353 76.3538 404.903 74.858C398.453 73.3622 392.011 77.3784 390.516 83.8285C389.02 90.2785 393.036 96.7199 399.486 98.2157C405.936 99.7115 412.377 95.6953 413.873 89.2453Z" fill="#D1E9FF"/>
<path d="M403.436 91.8951V93.5561H401.322V91.9555C399.812 91.8649 398.362 91.4723 397.486 90.8985L398.634 88.3315C399.63 88.9053 400.929 89.2979 402.077 89.2979C403.073 89.2979 403.436 89.0865 403.436 88.7241C403.436 87.3953 397.637 88.4825 397.637 84.5565C397.637 82.8653 398.875 81.4459 401.322 81.1137V79.4829H403.436V81.0835C404.553 81.1741 405.61 81.4761 406.486 81.9593L405.429 84.5263C404.402 84.0129 403.435 83.7411 402.499 83.7411C401.472 83.7411 401.14 84.0431 401.14 84.4055C401.14 85.6739 406.939 84.6169 406.939 88.4825C406.908 90.0831 405.761 91.4723 403.436 91.8951Z" fill="white"/>
<path d="M353.877 34.2131H352.126V46.7763H353.877V34.2131Z" fill="#91CAFF"/>
<path d="M359.283 39.6191H346.72V41.3707H359.283V39.6191Z" fill="#91CAFF"/>
<path d="M369.551 0.540039H366.924V19.4452H369.551V0.540039Z" fill="#91CAFF"/>
<path d="M377.675 8.69409H358.77V11.3215H377.675V8.69409Z" fill="#91CAFF"/>
<path d="M428.804 97.1499H426.81V111.465H428.804V97.1499Z" fill="#91CAFF"/>
<path d="M434.964 103.311H420.65V105.304H434.964V103.311Z" fill="#91CAFF"/>
<path opacity="0.4" d="M207.722 64.3058C216.815 55.2128 216.815 40.4702 207.722 31.3773C198.629 22.2843 183.887 22.2843 174.794 31.3773C165.701 40.4702 165.701 55.2129 174.794 64.3058C183.887 73.3988 198.629 73.3988 207.722 64.3058Z" fill="#E5F4FF"/>
<path opacity="0.4" d="M246.849 354.998C261.326 354.998 273.062 343.262 273.062 328.784C273.062 314.307 261.326 302.571 246.849 302.571C232.371 302.571 220.635 314.307 220.635 328.784C220.635 343.262 232.371 354.998 246.849 354.998Z" fill="#E5F4FF"/>
<path d="M198.317 367.229C198.046 367.229 197.774 367.229 197.502 367.229V366.474C198.74 366.504 200.009 366.474 201.247 366.383L201.277 367.138C200.311 367.198 199.284 367.229 198.317 367.229ZM193.697 367.017C192.428 366.896 191.16 366.745 189.922 366.534L190.043 365.779C191.251 365.99 192.519 366.141 193.757 366.262L193.697 367.017ZM205.052 366.776L204.961 366.021C206.2 365.87 207.438 365.628 208.646 365.386L208.797 366.111C207.589 366.383 206.32 366.594 205.052 366.776ZM186.207 365.749C184.969 365.447 183.761 365.084 182.553 364.692L182.795 363.967C183.972 364.36 185.18 364.692 186.388 364.994L186.207 365.749ZM212.511 365.205L212.3 364.48C213.508 364.118 214.686 363.725 215.864 363.303L216.135 363.997C214.927 364.45 213.719 364.843 212.511 365.205ZM178.989 363.393C177.812 362.91 176.664 362.366 175.547 361.793L175.879 361.128C176.996 361.702 178.144 362.215 179.291 362.699L178.989 363.393ZM219.608 362.517L219.276 361.823C220.394 361.309 221.511 360.705 222.598 360.101L222.961 360.766C221.873 361.4 220.756 361.974 219.608 362.517ZM172.194 359.92C171.107 359.256 170.05 358.561 169.023 357.836L169.476 357.232C170.503 357.957 171.53 358.652 172.587 359.286L172.194 359.92ZM226.222 358.773L225.799 358.138C226.826 357.444 227.853 356.719 228.819 355.934L229.272 356.538C228.306 357.323 227.279 358.078 226.222 358.773ZM166.034 355.511C165.067 354.696 164.131 353.85 163.225 352.974L163.738 352.431C164.614 353.306 165.55 354.152 166.517 354.937L166.034 355.511ZM232.202 354.092L231.688 353.548C232.594 352.702 233.5 351.827 234.346 350.921L234.89 351.434C234.044 352.34 233.138 353.246 232.202 354.092ZM160.567 350.196C159.722 349.26 158.937 348.263 158.151 347.266L158.755 346.813C159.51 347.81 160.296 348.776 161.111 349.713L160.567 350.196ZM237.396 348.565L236.822 348.082C237.608 347.115 238.363 346.119 239.057 345.092L239.691 345.515C238.967 346.572 238.212 347.599 237.396 348.565ZM156.007 344.156C155.313 343.099 154.678 341.981 154.074 340.894L154.739 340.532C155.343 341.619 155.977 342.706 156.641 343.763L156.007 344.156ZM241.745 342.314L241.081 341.921C241.715 340.834 242.319 339.747 242.862 338.629L243.527 338.961C242.983 340.109 242.379 341.226 241.745 342.314ZM152.383 337.482C151.87 336.334 151.387 335.156 150.964 333.948L151.689 333.707C152.111 334.884 152.564 336.032 153.078 337.18L152.383 337.482ZM245.067 335.488L244.372 335.217C244.825 334.069 245.248 332.861 245.611 331.683L246.335 331.895C245.973 333.103 245.55 334.311 245.067 335.488ZM149.816 330.324C149.484 329.116 149.182 327.848 148.94 326.61L149.695 326.459C149.937 327.667 150.209 328.905 150.541 330.113L149.816 330.324ZM247.332 328.24L246.607 328.059C246.879 326.851 247.121 325.613 247.302 324.375L248.057 324.496C247.845 325.734 247.604 327.002 247.332 328.24ZM148.336 322.865C148.185 321.627 148.095 320.328 148.034 319.09L148.789 319.06C148.85 320.298 148.94 321.566 149.091 322.804L148.336 322.865ZM248.48 320.721L247.725 320.66C247.815 319.422 247.876 318.154 247.876 316.915H248.631C248.6 318.184 248.57 319.452 248.48 320.721ZM247.845 316.432C247.845 315.194 247.785 313.926 247.664 312.687L248.419 312.627C248.54 313.895 248.6 315.164 248.6 316.432H247.845ZM148.789 315.315L148.034 315.285C148.065 314.016 148.155 312.748 148.306 311.479L149.061 311.57C148.91 312.808 148.82 314.046 148.789 315.315ZM247.211 308.973C247 307.735 246.758 306.496 246.486 305.288L247.211 305.107C247.513 306.345 247.755 307.584 247.966 308.822L247.211 308.973ZM149.575 307.855L148.82 307.704C149.061 306.466 149.333 305.228 149.665 303.99L150.39 304.171C150.088 305.409 149.816 306.647 149.575 307.855ZM245.46 301.695C245.067 300.517 244.644 299.339 244.161 298.191L244.856 297.92C245.339 299.097 245.762 300.275 246.154 301.483L245.46 301.695ZM151.507 300.638L150.783 300.396C151.205 299.188 151.658 298.01 152.172 296.863L152.866 297.165C152.353 298.282 151.9 299.46 151.507 300.638ZM242.651 294.779C242.107 293.661 241.503 292.574 240.839 291.487L241.473 291.094C242.138 292.182 242.742 293.299 243.315 294.416L242.651 294.779ZM154.497 293.752L153.833 293.39C154.437 292.272 155.071 291.155 155.735 290.098L156.37 290.49C155.705 291.578 155.071 292.665 154.497 293.752ZM238.785 288.346C238.061 287.319 237.306 286.323 236.52 285.387L237.094 284.903C237.91 285.87 238.665 286.897 239.389 287.923L238.785 288.346ZM158.484 287.44L157.88 286.987C158.635 285.96 159.42 284.964 160.265 284.028L160.839 284.511C160.024 285.447 159.239 286.444 158.484 287.44ZM234.014 282.578C233.138 281.672 232.232 280.796 231.326 279.981L231.839 279.407C232.776 280.253 233.712 281.128 234.588 282.034L234.014 282.578ZM163.376 281.763L162.832 281.219C163.738 280.343 164.675 279.467 165.641 278.652L166.124 279.226C165.188 280.041 164.282 280.887 163.376 281.763ZM228.457 277.595C227.46 276.84 226.434 276.115 225.407 275.421L225.83 274.786C226.887 275.481 227.944 276.206 228.94 276.991L228.457 277.595ZM169.084 276.9L168.631 276.296C169.658 275.541 170.715 274.847 171.772 274.182L172.164 274.817C171.137 275.481 170.08 276.176 169.084 276.9ZM222.175 273.488C221.088 272.884 219.971 272.31 218.823 271.797L219.125 271.102C220.273 271.615 221.42 272.189 222.538 272.823L222.175 273.488ZM175.426 272.944L175.063 272.28C176.181 271.706 177.328 271.162 178.506 270.649L178.808 271.344C177.661 271.857 176.543 272.37 175.426 272.944ZM215.35 270.377C214.172 269.954 212.995 269.562 211.787 269.23L211.998 268.505C213.206 268.837 214.414 269.23 215.622 269.683L215.35 270.377ZM182.311 270.015L182.07 269.29C183.278 268.897 184.486 268.505 185.724 268.203L185.905 268.928C184.697 269.26 183.489 269.622 182.311 270.015ZM208.163 268.354C206.955 268.112 205.716 267.901 204.478 267.75L204.569 266.995C205.837 267.146 207.075 267.357 208.314 267.599L208.163 268.354ZM189.559 268.142L189.439 267.387C190.677 267.176 191.945 266.995 193.214 266.874L193.304 267.629C192.006 267.75 190.767 267.931 189.559 268.142ZM200.733 267.418C199.495 267.357 198.227 267.357 196.989 267.387L196.958 266.632C198.227 266.602 199.495 266.602 200.764 266.663L200.733 267.418Z" fill="#91CAFF"/>
<path d="M157.426 68.7921V68.0371C158.665 68.0371 159.933 67.9465 161.141 67.7955L161.232 68.5505C159.993 68.6713 158.695 68.7619 157.426 68.7921ZM153.621 68.5807C152.353 68.4297 151.084 68.2183 149.846 67.9465L150.027 67.2217C151.235 67.4935 152.474 67.7049 153.712 67.8559L153.621 68.5807ZM164.976 67.7955L164.795 67.0707C166.003 66.7687 167.181 66.3761 168.359 65.9231L168.631 66.6177C167.453 67.1009 166.215 67.4935 164.976 67.7955ZM146.192 66.8593C145.014 66.4365 143.836 65.9231 142.689 65.3191L143.021 64.6547C144.138 65.2285 145.286 65.7117 146.434 66.1345L146.192 66.8593ZM172.104 65.0473L171.741 64.3829C172.828 63.8091 173.885 63.1447 174.912 62.4199L175.335 63.0239C174.308 63.7789 173.221 64.4735 172.104 65.0473ZM139.397 63.3863C138.34 62.6917 137.313 61.9065 136.377 61.0609L136.86 60.4871C137.796 61.3025 138.793 62.0575 139.82 62.7521L139.397 63.3863ZM178.325 60.6985L177.811 60.1247C178.748 59.3093 179.623 58.4033 180.439 57.4671L181.013 57.9805C180.197 58.9469 179.291 59.8529 178.325 60.6985ZM133.629 58.4033C132.783 57.4671 131.968 56.4705 131.243 55.4437L131.847 54.9907C132.572 55.9873 133.357 56.9839 134.203 57.8899L133.629 58.4033ZM183.368 54.9605L182.734 54.5377C183.429 53.5109 184.093 52.4539 184.667 51.3365L185.331 51.6989C184.757 52.8163 184.093 53.9337 183.368 54.9605ZM129.22 52.2123C128.616 51.0949 128.072 49.9473 127.589 48.7695L128.283 48.4977C128.736 49.6453 129.28 50.7929 129.854 51.8801L129.22 52.2123ZM186.902 48.1957L186.207 47.9239C186.63 46.7763 187.022 45.5683 187.294 44.3603L188.019 44.5415C187.717 45.7797 187.355 47.0179 186.902 48.1957ZM126.411 45.1153C126.079 43.8771 125.837 42.6389 125.656 41.3705L126.411 41.2799C126.592 42.5181 126.834 43.7261 127.136 44.9341L126.411 45.1153ZM188.714 40.7967L187.959 40.7061C188.11 39.4679 188.17 38.2297 188.17 36.9915C188.17 36.6291 188.17 36.2365 188.14 35.8741L188.895 35.8439C188.895 36.2365 188.925 36.6291 188.925 36.9915C188.925 38.2599 188.865 39.5585 188.714 40.7967ZM125.354 37.5653C125.354 37.3841 125.354 37.1727 125.354 36.9915C125.354 35.9043 125.414 34.8171 125.505 33.7601L126.26 33.8507C126.169 34.9077 126.109 35.9647 126.109 37.0217C126.109 37.2029 126.109 37.3841 126.109 37.5955L125.354 37.5653ZM187.808 32.1595C187.626 30.9213 187.355 29.7133 187.022 28.5053L187.747 28.2939C188.079 29.5019 188.381 30.7703 188.563 32.0085L187.808 32.1595ZM126.864 30.1663L126.139 30.0153C126.411 28.7771 126.773 27.5389 127.196 26.3611L127.921 26.6027C127.498 27.7503 127.136 28.9583 126.864 30.1663ZM185.784 25.0021C185.301 23.8545 184.757 22.7371 184.153 21.6499L184.818 21.2875C185.452 22.4049 186.026 23.5525 186.509 24.7001L185.784 25.0021ZM129.371 23.1599L128.706 22.8277C129.28 21.6801 129.914 20.5929 130.609 19.5057L131.243 19.9285C130.548 20.9553 129.914 22.0425 129.371 23.1599ZM182.1 18.5393C181.375 17.5427 180.56 16.5763 179.714 15.6703L180.258 15.1569C181.133 16.0931 181.949 17.0595 182.704 18.0863L182.1 18.5393ZM133.448 16.9387L132.874 16.4555C133.689 15.4891 134.595 14.5529 135.501 13.7073L136.015 14.2509C135.139 15.0965 134.263 16.0025 133.448 16.9387ZM176.996 13.1335C176.03 12.3483 175.033 11.5933 174.006 10.9289L174.429 10.2947C175.486 10.9893 176.543 11.7443 177.509 12.5597L176.996 13.1335ZM138.914 11.8651L138.461 11.2611C139.488 10.5061 140.575 9.81152 141.662 9.20752L142.024 9.87192C140.967 10.4759 139.91 11.1403 138.914 11.8651ZM170.745 9.08672C169.627 8.54312 168.48 8.05992 167.302 7.66732L167.543 6.94252C168.751 7.36532 169.929 7.84852 171.077 8.42232L170.745 9.08672ZM145.407 8.24112L145.135 7.54652C146.313 7.06332 147.521 6.64052 148.759 6.30832L148.97 7.03312C147.732 7.39552 146.554 7.78812 145.407 8.24112ZM163.708 6.67072C162.5 6.39892 161.262 6.21772 160.024 6.09692L160.084 5.34192C161.352 5.46272 162.621 5.64392 163.859 5.91572L163.708 6.67072ZM152.594 6.27812L152.474 5.52312C153.712 5.34192 155.01 5.22112 156.279 5.19092L156.309 5.94592C155.041 6.00632 153.802 6.12712 152.594 6.27812Z" fill="#91CAFF"/>
<path d="M30.3751 231.178C24.3351 231.178 19.4125 226.255 19.4125 220.215C19.4125 214.175 24.3351 209.252 30.3751 209.252C36.4151 209.252 41.3377 214.175 41.3377 220.215C41.3377 226.255 36.4151 231.178 30.3751 231.178ZM30.3751 210.793C25.1807 210.793 20.9225 215.021 20.9225 220.245C20.9225 225.47 25.1505 229.698 30.3751 229.698C35.5997 229.698 39.8277 225.47 39.8277 220.245C39.8277 215.021 35.5695 210.793 30.3751 210.793Z" fill="#91CAFF"/>
<path d="M396.55 90.5359H82.7721V322.532H396.55V90.5359Z" fill="white"/>
<path d="M397.305 323.287H82.0171V89.781H397.305V323.287ZM83.5271 321.777H395.795V91.291H83.5271V321.777Z" fill="#91CAFF"/>
<path d="M130.186 247.183H104.516V296.862H130.186V247.183Z" fill="#D1E9FF"/>
<path d="M170.956 222.419H145.286V296.862H170.956V222.419Z" fill="#D1E9FF"/>
<path d="M211.726 171.321H186.056V296.862H211.726V171.321Z" fill="#D1E9FF"/>
<path d="M252.496 207.591H226.826V296.862H252.496V207.591Z" fill="#D1E9FF"/>
<path d="M293.266 168.21H267.596V296.862H293.266V168.21Z" fill="#D1E9FF"/>
<path d="M334.036 174.945H308.366V296.862H334.036V174.945Z" fill="#D1E9FF"/>
<path d="M374.806 130.4H349.136V296.862H374.806V130.4Z" fill="#D1E9FF"/>
<path d="M112.247 277.142L111.583 275.813L154.437 253.978L198.649 193.76L239.148 236.13L280.763 194.515L321.11 199.407L361.639 152.899L362.756 153.896L321.745 201.008L281.307 196.115L239.117 238.305L198.831 196.115L155.463 255.156L112.247 277.142Z" fill="#4A7DC9"/>
<path d="M302.809 119.196H176.483V120.706H302.809V119.196Z" fill="#4A7DC9"/>
<path d="M260.167 135.806H219.125V137.316H260.167V135.806Z" fill="#4A7DC9"/>
<path d="M77.6984 366.896C80.1748 353.91 78.544 340.109 73.1986 328.15C67.8532 316.19 58.763 306.164 47.74 300.003C53.327 307.1 54.7766 316.825 55.3202 326.036C55.894 335.277 55.8336 344.79 59.1858 353.336C62.538 361.883 70.4504 369.252 79.0876 368.195L77.6984 366.896Z" fill="#4A7DC9"/>
<path d="M77.8797 370.157C75.4033 357.171 77.0341 343.37 82.3795 331.411C87.7249 319.452 96.8151 309.425 107.838 303.264C102.251 310.361 100.801 320.086 100.258 329.297C99.6841 338.538 99.7445 348.051 96.3923 356.598C93.0401 365.144 85.1277 372.513 76.4905 371.456L77.8797 370.157Z" fill="#4A7DC9"/>
<path d="M67.9741 363.997C62.4173 354.726 60.8771 342.827 63.9273 332.317C66.9775 321.808 74.5275 312.868 84.0103 308.52C82.0171 321.808 91.8925 334.643 90.1107 347.961C88.9631 356.598 82.5003 364.148 74.4973 366.141L67.9741 363.997Z" fill="#D1E9FF"/>
<path d="M72.0208 381.815C71.9906 368.587 76.5508 355.36 84.7954 344.76C93.04 334.159 104.939 326.187 118.166 322.472C110.647 328.27 107.113 337.512 104.607 346.421C102.1 355.36 100.197 364.692 94.852 372.362C89.4764 380.033 79.3896 385.62 70.239 382.781L72.0208 381.815Z" fill="#91CAFF"/>
<path d="M76.1884 382.539C76.2186 369.312 72.0208 356.084 64.4708 345.484C56.8906 334.884 45.9884 326.911 33.848 323.196C40.7336 328.995 43.9952 338.236 46.2904 347.145C48.5856 356.084 50.3372 365.416 55.2598 373.087C60.1824 380.758 69.4538 386.345 77.8494 383.506L76.1884 382.539Z" fill="#91CAFF"/>
<path d="M98.4156 427.719H50.5788L42.3644 377.919H106.63L98.4156 427.719Z" fill="white"/>
<path d="M98.8988 428.293H50.0955L41.7 377.345H107.325L98.8988 428.293ZM51.062 427.145H97.9324L105.966 378.463H43.0287L51.062 427.145Z" fill="#91CAFF"/>
<path d="M161.775 52.1821H16.03V166.67H161.775V52.1821Z" fill="white"/>
<path d="M162.53 167.425H15.275V51.427H162.53V167.425ZM16.785 165.915H161.02V52.937H16.785V165.915Z" fill="#91CAFF"/>
<path d="M68.6686 70.9666H35.811V89.5697H68.6686V70.9666Z" fill="#D1E9FF"/>
<path d="M142.357 72.7483H82.5605V73.5335H142.357V72.7483Z" fill="#91CAFF"/>
<path d="M142.357 79.8755H82.5605V80.6607H142.357V79.8755Z" fill="#D1E9FF"/>
<path d="M142.357 86.9724H82.5605V87.7576H142.357V86.9724Z" fill="#D1E9FF"/>
<path d="M58.1288 126.686H51.2734V147.946H58.1288V126.686Z" fill="#D1E9FF"/>
<path d="M64.9842 116.357H58.1288V147.977H64.9842V116.357Z" fill="#91CAFF"/>
<path d="M83.7385 112.763H76.8831V147.825H83.7385V112.763Z" fill="#D1E9FF"/>
<path d="M90.5939 134.87H83.7385V147.856H90.5939V134.87Z" fill="#91CAFF"/>
<path d="M109.348 123.665H102.493V147.946H109.348V123.665Z" fill="#D1E9FF"/>
<path d="M116.203 118.29H109.348V147.946H116.203V118.29Z" fill="#91CAFF"/>
<path d="M134.958 130.853H128.102V147.795H134.958V130.853Z" fill="#D1E9FF"/>
<path d="M141.813 107.388H134.958V147.795H141.813V107.388Z" fill="#91CAFF"/>
<path d="M141.843 148.188H36.1433V105.545H36.9587V147.372H141.843V148.188Z" fill="#91CAFF"/>
<path d="M443.783 407.274L448.313 427.538L417.539 427.477L430.374 416.394L429.438 406.337L443.783 407.274Z" fill="#1B1B43"/>
<path d="M430.708 415.955L429.989 416.811L435.076 421.085L435.795 420.229L430.708 415.955Z" fill="#EBF8FF"/>
<path d="M383.171 406.972L385.436 427.538H352.428L367.528 416.394V406.217L383.171 406.972Z" fill="#1B1B43"/>
<path d="M367.862 415.951L367.143 416.806L372.23 421.08L372.949 420.225L367.862 415.951Z" fill="#EBF8FF"/>
<path d="M449.249 409.72L444.326 409.78L429.77 409.992L421.676 410.113C413.734 382.721 406.335 355.843 400.265 330.475C399.057 325.492 397.939 320.57 396.852 315.738C392.866 297.769 389.664 280.645 387.641 264.82C387.218 261.408 386.826 258.086 386.493 254.794C386.222 252.167 386.01 249.6 385.799 247.063L422.039 253.103C422.401 256.546 422.794 259.988 423.186 263.461C428.683 310.211 438.015 359.377 449.249 409.72Z" fill="#4A7DC9"/>
<path d="M402.801 251.925L401.654 264.247L397.033 313.835L396.852 315.738L388.064 409.75H361.005C361.548 355.36 363.33 303.688 370.457 265.515C370.971 262.706 371.544 259.958 372.118 257.301L386.493 254.794L402.801 251.925Z" fill="#4A7DC9"/>
<path d="M390.929 280.681L390.188 280.825L400.502 333.918L401.243 333.774L390.929 280.681Z" fill="#1B1B43"/>
<path opacity="0.3" d="M423.217 263.401L401.654 264.246L387.641 264.79L370.457 265.485C370.971 262.676 371.544 259.928 372.118 257.27L386.493 254.764C386.222 252.136 386.01 249.569 385.799 247.032L422.039 253.072C422.432 256.515 422.824 259.958 423.217 263.401Z" fill="#1B1B43"/>
<path d="M382.9 195.33L396.792 193.609L425.784 199.679L425.965 251.925C425.965 253.344 425.391 254.734 424.334 255.7C423.368 256.606 422.099 257.119 420.801 257.119L372.179 257.301L362.817 229.003L371.846 202.276L382.9 195.33Z" fill="#1FC7A2"/>
<path d="M400.204 206.776C397.214 206.776 394.315 205.719 392.05 203.575L392.443 203.152C396.761 207.199 403.526 207.199 408.57 203.152L408.932 203.605C406.274 205.719 403.194 206.776 400.204 206.776Z" fill="#1B1B43"/>
<path d="M431.25 203.635C430.193 198.863 426.267 195.27 421.435 194.605L402.922 192.068L414.126 211.185L417.599 223.144L435.025 220.698L431.25 203.635Z" fill="#1FC7A2"/>
<path d="M438.77 241.143C438.316 247.606 434.421 250.354 429.468 251.502C424.273 252.68 417.962 252.106 413.22 252.106C405.398 252.136 397.607 251.804 389.815 251.381L370.004 251.562L367.739 248.029C370.306 244.375 377.313 239.603 389.513 242.502L421.163 235.315L417.63 223.114L435.085 220.668L438.649 236.764C438.83 238.395 438.86 239.845 438.77 241.143Z" fill="#FFBC96"/>
<path d="M353.726 227.976L366.199 243.62L368.464 244.194L370.336 225.953L357.562 219.943L353.726 227.976Z" fill="#FFBC96"/>
<path d="M395.251 191.917L377.071 194.786C372.028 195.572 367.709 198.803 365.504 203.393L357.592 219.943L370.336 225.953L371.665 212.846L395.251 191.917Z" fill="#1FC7A2"/>
<path opacity="0.2" d="M438.77 241.143C438.317 247.606 434.421 250.354 429.468 251.502C428.471 250.294 427.867 248.724 427.867 247.032C427.867 243.137 431.038 239.996 434.904 239.996C436.323 239.996 437.652 240.419 438.77 241.143Z" fill="#FE5B52"/>
<path d="M371.434 212.836L367.452 248.007L368.022 248.072L372.004 212.9L371.434 212.836Z" fill="#1B1B43"/>
<path d="M414.444 211.087L413.893 211.246L420.879 235.414L421.43 235.255L414.444 211.087Z" fill="#1B1B43"/>
<path d="M407.029 150.574C406.939 149.305 406.999 147.976 407.392 146.738C407.784 145.5 408.6 144.322 409.747 143.658C410.321 143.326 410.955 143.084 411.62 142.963C412.284 142.842 412.949 142.842 413.583 142.933C414.881 143.084 416.15 143.567 417.267 144.262C418.385 144.987 419.321 145.953 419.895 147.161C420.499 148.369 420.619 149.788 420.257 151.057C419.895 152.325 419.109 153.443 418.234 154.379C417.328 155.315 416.301 156.07 415.214 156.765L415.093 156.583C416.12 155.859 417.116 155.043 417.962 154.137C418.807 153.201 419.502 152.144 419.804 150.966C420.106 149.788 419.985 148.52 419.442 147.433C418.898 146.346 418.022 145.44 416.995 144.775C415.969 144.111 414.791 143.628 413.553 143.477C412.345 143.326 411.076 143.477 410.019 144.081C408.962 144.685 408.177 145.711 407.784 146.889C407.573 147.463 407.452 148.097 407.362 148.701C407.301 149.335 407.271 149.97 407.271 150.574H407.029Z" fill="#1B1B43"/>
<path d="M413.22 156.915C416.556 156.915 419.26 154.211 419.26 150.875C419.26 147.54 416.556 144.835 413.22 144.835C409.885 144.835 407.18 147.54 407.18 150.875C407.18 154.211 409.885 156.915 413.22 156.915Z" fill="#1B1B43"/>
<path d="M417.811 184.367L414.579 179.384L415.818 184.881L404.613 187.84L383.564 188.686L385.255 171.985C379.88 169.328 376.074 152.325 396.459 149.456C400.174 148.943 403.979 149.275 407.422 150.725C417.932 155.164 421.465 166.942 422.431 183.129L417.811 184.367Z" fill="#1B1B43"/>
<path d="M400.325 202.034C395.795 202.034 392.111 198.35 392.111 193.82V176.002H408.57V193.82C408.539 198.35 404.855 202.034 400.325 202.034Z" fill="#FFBC96"/>
<path d="M403.224 183.491C401.473 188.686 397.335 191.102 392.08 192.431V184.699L403.224 183.491Z" fill="#1B1B43"/>
<path d="M408.177 158.698L407.633 181.8C407.633 181.8 397.939 188.867 391.144 186.844C388.849 186.149 387.309 183.582 386.252 180.351C385.769 178.811 385.376 177.15 385.074 175.428C384.017 169.358 384.077 163.137 384.077 163.137L408.177 158.698Z" fill="#FFBC96"/>
<path d="M388.336 172.891C388.336 173.586 387.913 174.129 387.43 174.129C386.946 174.129 386.524 173.586 386.524 172.891C386.524 172.197 386.946 171.653 387.43 171.653C387.913 171.653 388.336 172.197 388.336 172.891Z" fill="#1B1B43"/>
<path d="M394.406 173.797C394.973 173.797 395.433 173.148 395.433 172.348C395.433 171.547 394.973 170.898 394.406 170.898C393.839 170.898 393.379 171.547 393.379 172.348C393.379 173.148 393.839 173.797 394.406 173.797Z" fill="#1B1B43"/>
<path d="M397.788 169.418C397.758 169.781 396.58 169.841 395.251 169.63C393.953 169.388 392.835 169.479 393.047 168.603C393.228 167.878 394.255 167.939 395.553 168.18C396.852 168.392 397.818 169.116 397.788 169.418Z" fill="#1B1B43"/>
<path d="M384.983 170.204C385.044 170.566 386.04 170.536 387.128 170.204C388.215 169.871 389.181 169.841 388.97 168.996C388.789 168.301 387.913 168.452 386.826 168.784C385.708 169.117 384.923 169.902 384.983 170.204Z" fill="#1B1B43"/>
<path opacity="0.2" d="M402.288 175.338C402.288 176.817 401.08 178.025 399.6 178.025C398.12 178.025 396.912 176.817 396.912 175.338C396.912 173.858 398.12 172.65 399.6 172.65C401.08 172.65 402.288 173.858 402.288 175.338Z" fill="#FE5B52"/>
<path opacity="0.2" d="M387.49 178.086C387.49 179.022 387.007 179.837 386.282 180.321C385.799 178.78 385.406 177.119 385.104 175.398C386.433 175.579 387.49 176.697 387.49 178.086Z" fill="#FE5B52"/>
<path d="M390.45 173.979C390.48 174.22 390.419 174.462 390.329 174.673C390.238 174.885 390.117 175.066 389.997 175.247C389.755 175.579 389.513 175.881 389.453 176.153C389.423 176.274 389.423 176.425 389.453 176.546C389.483 176.666 389.574 176.787 389.664 176.908C389.876 177.15 390.238 177.331 390.601 177.452L390.57 177.754C390.117 177.814 389.634 177.723 389.211 177.421C389 177.27 388.819 177.029 388.728 176.787C388.638 176.515 388.607 176.244 388.698 175.972C388.849 175.428 389.211 175.096 389.483 174.824C389.785 174.522 390.027 174.281 390.148 173.948L390.45 173.979Z" fill="#1B1B43"/>
<path d="M389.725 180.109C390.721 183.28 394.949 181.68 395.282 178.69L389.725 180.109Z" fill="white"/>
<path d="M383.262 166.821C390.359 166.821 396.339 166.157 401.956 163.409C402.56 168.059 404.553 170.294 407.241 171.532L412.918 166.821L409.989 157.278L394.617 156.432L382.718 162.382L383.262 166.821Z" fill="#1B1B43"/>
<path d="M411.699 174.921C413.225 172.752 413.234 170.13 411.72 169.065C410.206 167.999 407.741 168.894 406.215 171.063C404.69 173.232 404.68 175.854 406.194 176.92C407.708 177.985 410.173 177.09 411.699 174.921Z" fill="#FFBC96"/>
<path d="M407.633 174.553C407.513 174.16 407.482 173.737 407.543 173.314C407.603 172.892 407.724 172.469 407.996 172.106C408.268 171.744 408.63 171.442 409.023 171.291C409.415 171.11 409.838 171.049 410.261 171.08L410.321 171.382C409.959 171.533 409.627 171.714 409.355 171.895C409.053 172.076 408.811 172.318 408.63 172.559C408.449 172.831 408.298 173.133 408.207 173.465C408.117 173.798 408.026 174.16 407.966 174.553H407.633Z" fill="#1B1B43"/>
<path d="M415.153 156.674C414.368 156.221 413.704 155.677 413.039 155.164L411.137 153.594C410.502 153.08 409.898 152.567 409.234 152.053C408.6 151.54 407.935 151.087 407.18 150.574C408.086 150.483 408.992 150.694 409.838 151.027C410.684 151.389 411.439 151.872 412.103 152.416C412.798 152.99 413.371 153.624 413.915 154.349C414.398 155.073 414.851 155.828 415.153 156.674Z" fill="#1FC7A2"/>
<path d="M388.366 251.442H368.343V257.361H388.366V251.442Z" fill="#1B1B43"/>
<path d="M374.746 257.361H329.446L309.574 214.417H354.874L374.746 257.361Z" fill="#EBF8FF"/>
<path d="M357.985 255.428C356.928 255.609 356.293 256.485 356.233 257.542V252.861C356.233 251.925 355.569 251.049 354.632 250.958C353.545 250.838 352.639 251.653 352.609 252.68V250.807C352.609 249.841 351.914 248.995 350.978 248.875C349.891 248.754 348.955 249.63 348.955 250.687V252.68C348.894 251.653 347.988 250.838 346.931 250.958C345.995 251.079 345.331 251.925 345.331 252.861V256.576C345.27 255.639 344.546 254.462 343.579 254.371C341.556 254.19 342.009 257.753 342.009 257.753C342.613 261.347 343.67 261.77 345.814 261.921C349.196 262.163 352.609 262.163 356.052 261.921C358.226 261.77 358.558 261.528 359.525 258.297C359.797 256.878 359.525 255.156 357.985 255.428Z" fill="#FFBC96"/>
<path d="M345.361 254.009C345.512 254.764 345.572 255.549 345.603 256.304C345.603 256.697 345.603 257.059 345.603 257.452C345.603 257.844 345.572 258.207 345.482 258.599H345.27C345.18 258.207 345.15 257.844 345.089 257.452C345.059 257.059 345.029 256.697 345.029 256.304C345.029 255.549 345.029 254.764 345.15 254.009H345.361Z" fill="#D28572"/>
<path d="M349.045 252.65C349.196 253.465 349.257 254.281 349.287 255.096C349.287 255.489 349.287 255.912 349.287 256.304C349.287 256.697 349.257 257.12 349.196 257.512H348.985C348.894 257.12 348.864 256.697 348.804 256.304C348.774 255.912 348.743 255.489 348.743 255.096C348.743 254.281 348.743 253.465 348.834 252.65H349.045Z" fill="#D28572"/>
<path d="M352.7 252.65C352.851 253.405 352.941 254.19 352.971 254.945C353.002 255.338 353.002 255.73 353.002 256.093C353.002 256.485 352.971 256.878 352.911 257.24H352.7C352.609 256.848 352.549 256.485 352.518 256.093C352.488 255.7 352.458 255.338 352.428 254.945C352.398 254.16 352.398 253.405 352.488 252.62L352.7 252.65Z" fill="#D28572"/>
<path d="M357.441 255.67C357.26 255.881 357.139 256.153 357.049 256.425C356.928 256.697 356.837 256.969 356.716 257.271C356.596 257.542 356.505 257.844 356.384 258.116C356.263 258.388 356.143 258.69 355.992 258.962L355.78 258.901C355.78 258.569 355.841 258.267 355.901 257.965C355.961 257.663 356.052 257.361 356.173 257.059C356.294 256.757 356.414 256.485 356.596 256.214C356.777 255.942 356.988 255.67 357.29 255.489L357.441 255.67Z" fill="#D28572"/>
<path d="M451.484 158.788V179.536L441.91 186.331H451.484H487.059V158.788H451.484Z" fill="white"/>
<path d="M487.422 186.693H440.733L451.091 179.324V158.396H487.422V186.693ZM443.088 185.938H486.667V159.151H451.846V179.686L443.088 185.938Z" fill="#91CAFF"/>
<path d="M468.789 179.868L462.96 174.281L464.017 173.194L468.396 177.422L475.855 163.741L477.184 164.466L468.789 179.868Z" fill="#91CAFF"/>
<path d="M488.328 427.145H0.265625V428.293H488.328V427.145Z" fill="#1B1B43"/>
</svg>
